G04 #@! TF.GenerationSoftware,KiCad,Pcbnew,5.0.2-bee76a0~70~ubuntu18.04.1*
G04 #@! TF.CreationDate,2019-03-01T11:09:08-06:00*
G04 #@! TF.ProjectId,MotorDriverXL,4d6f746f-7244-4726-9976-6572584c2e6b,V1.0*
G04 #@! TF.SameCoordinates,Original*
G04 #@! TF.FileFunction,Soldermask,Top*
G04 #@! TF.FilePolarity,Negative*
%FSLAX46Y46*%
G04 Gerber Fmt 4.6, Leading zero omitted, Abs format (unit mm)*
G04 Created by KiCad (PCBNEW 5.0.2-bee76a0~70~ubuntu18.04.1) date Fri 01 Mar 2019 11:09:08 AM CST*
%MOMM*%
%LPD*%
G01*
G04 APERTURE LIST*
%ADD10C,0.100000*%
G04 APERTURE END LIST*
D10*
G36*
X135444600Y-127773800D02*
X133643000Y-127773800D01*
X133643000Y-125972200D01*
X135444600Y-125972200D01*
X135444600Y-127773800D01*
X135444600Y-127773800D01*
G37*
G36*
X132092162Y-125976545D02*
X132180388Y-125985234D01*
X132293589Y-126019573D01*
X132350190Y-126036743D01*
X132488780Y-126110822D01*
X132506679Y-126120389D01*
X132542409Y-126149712D01*
X132643844Y-126232956D01*
X132727088Y-126334391D01*
X132756411Y-126370121D01*
X132756412Y-126370123D01*
X132840057Y-126526610D01*
X132840057Y-126526611D01*
X132891566Y-126696412D01*
X132908958Y-126873000D01*
X132891566Y-127049588D01*
X132857227Y-127162789D01*
X132840057Y-127219390D01*
X132765978Y-127357980D01*
X132756411Y-127375879D01*
X132727088Y-127411609D01*
X132643844Y-127513044D01*
X132542409Y-127596288D01*
X132506679Y-127625611D01*
X132506677Y-127625612D01*
X132350190Y-127709257D01*
X132293589Y-127726427D01*
X132180388Y-127760766D01*
X132092162Y-127769455D01*
X132048050Y-127773800D01*
X131959550Y-127773800D01*
X131915438Y-127769455D01*
X131827212Y-127760766D01*
X131714011Y-127726427D01*
X131657410Y-127709257D01*
X131500923Y-127625612D01*
X131500921Y-127625611D01*
X131465191Y-127596288D01*
X131363756Y-127513044D01*
X131280512Y-127411609D01*
X131251189Y-127375879D01*
X131241622Y-127357980D01*
X131167543Y-127219390D01*
X131150373Y-127162789D01*
X131116034Y-127049588D01*
X131098642Y-126873000D01*
X131116034Y-126696412D01*
X131167543Y-126526611D01*
X131167543Y-126526610D01*
X131251188Y-126370123D01*
X131251189Y-126370121D01*
X131280512Y-126334391D01*
X131363756Y-126232956D01*
X131465191Y-126149712D01*
X131500921Y-126120389D01*
X131518820Y-126110822D01*
X131657410Y-126036743D01*
X131714011Y-126019573D01*
X131827212Y-125985234D01*
X131915438Y-125976545D01*
X131959550Y-125972200D01*
X132048050Y-125972200D01*
X132092162Y-125976545D01*
X132092162Y-125976545D01*
G37*
G36*
X116852162Y-125976545D02*
X116940388Y-125985234D01*
X117053589Y-126019573D01*
X117110190Y-126036743D01*
X117248780Y-126110822D01*
X117266679Y-126120389D01*
X117302409Y-126149712D01*
X117403844Y-126232956D01*
X117487088Y-126334391D01*
X117516411Y-126370121D01*
X117516412Y-126370123D01*
X117600057Y-126526610D01*
X117600057Y-126526611D01*
X117651566Y-126696412D01*
X117668958Y-126873000D01*
X117651566Y-127049588D01*
X117617227Y-127162789D01*
X117600057Y-127219390D01*
X117525978Y-127357980D01*
X117516411Y-127375879D01*
X117487088Y-127411609D01*
X117403844Y-127513044D01*
X117302409Y-127596288D01*
X117266679Y-127625611D01*
X117266677Y-127625612D01*
X117110190Y-127709257D01*
X117053589Y-127726427D01*
X116940388Y-127760766D01*
X116852162Y-127769455D01*
X116808050Y-127773800D01*
X116719550Y-127773800D01*
X116675438Y-127769455D01*
X116587212Y-127760766D01*
X116474011Y-127726427D01*
X116417410Y-127709257D01*
X116260923Y-127625612D01*
X116260921Y-127625611D01*
X116225191Y-127596288D01*
X116123756Y-127513044D01*
X116040512Y-127411609D01*
X116011189Y-127375879D01*
X116001622Y-127357980D01*
X115927543Y-127219390D01*
X115910373Y-127162789D01*
X115876034Y-127049588D01*
X115858642Y-126873000D01*
X115876034Y-126696412D01*
X115927543Y-126526611D01*
X115927543Y-126526610D01*
X116011188Y-126370123D01*
X116011189Y-126370121D01*
X116040512Y-126334391D01*
X116123756Y-126232956D01*
X116225191Y-126149712D01*
X116260921Y-126120389D01*
X116278820Y-126110822D01*
X116417410Y-126036743D01*
X116474011Y-126019573D01*
X116587212Y-125985234D01*
X116675438Y-125976545D01*
X116719550Y-125972200D01*
X116808050Y-125972200D01*
X116852162Y-125976545D01*
X116852162Y-125976545D01*
G37*
G36*
X119392162Y-125976545D02*
X119480388Y-125985234D01*
X119593589Y-126019573D01*
X119650190Y-126036743D01*
X119788780Y-126110822D01*
X119806679Y-126120389D01*
X119842409Y-126149712D01*
X119943844Y-126232956D01*
X120027088Y-126334391D01*
X120056411Y-126370121D01*
X120056412Y-126370123D01*
X120140057Y-126526610D01*
X120140057Y-126526611D01*
X120191566Y-126696412D01*
X120208958Y-126873000D01*
X120191566Y-127049588D01*
X120157227Y-127162789D01*
X120140057Y-127219390D01*
X120065978Y-127357980D01*
X120056411Y-127375879D01*
X120027088Y-127411609D01*
X119943844Y-127513044D01*
X119842409Y-127596288D01*
X119806679Y-127625611D01*
X119806677Y-127625612D01*
X119650190Y-127709257D01*
X119593589Y-127726427D01*
X119480388Y-127760766D01*
X119392162Y-127769455D01*
X119348050Y-127773800D01*
X119259550Y-127773800D01*
X119215438Y-127769455D01*
X119127212Y-127760766D01*
X119014011Y-127726427D01*
X118957410Y-127709257D01*
X118800923Y-127625612D01*
X118800921Y-127625611D01*
X118765191Y-127596288D01*
X118663756Y-127513044D01*
X118580512Y-127411609D01*
X118551189Y-127375879D01*
X118541622Y-127357980D01*
X118467543Y-127219390D01*
X118450373Y-127162789D01*
X118416034Y-127049588D01*
X118398642Y-126873000D01*
X118416034Y-126696412D01*
X118467543Y-126526611D01*
X118467543Y-126526610D01*
X118551188Y-126370123D01*
X118551189Y-126370121D01*
X118580512Y-126334391D01*
X118663756Y-126232956D01*
X118765191Y-126149712D01*
X118800921Y-126120389D01*
X118818820Y-126110822D01*
X118957410Y-126036743D01*
X119014011Y-126019573D01*
X119127212Y-125985234D01*
X119215438Y-125976545D01*
X119259550Y-125972200D01*
X119348050Y-125972200D01*
X119392162Y-125976545D01*
X119392162Y-125976545D01*
G37*
G36*
X121932162Y-125976545D02*
X122020388Y-125985234D01*
X122133589Y-126019573D01*
X122190190Y-126036743D01*
X122328780Y-126110822D01*
X122346679Y-126120389D01*
X122382409Y-126149712D01*
X122483844Y-126232956D01*
X122567088Y-126334391D01*
X122596411Y-126370121D01*
X122596412Y-126370123D01*
X122680057Y-126526610D01*
X122680057Y-126526611D01*
X122731566Y-126696412D01*
X122748958Y-126873000D01*
X122731566Y-127049588D01*
X122697227Y-127162789D01*
X122680057Y-127219390D01*
X122605978Y-127357980D01*
X122596411Y-127375879D01*
X122567088Y-127411609D01*
X122483844Y-127513044D01*
X122382409Y-127596288D01*
X122346679Y-127625611D01*
X122346677Y-127625612D01*
X122190190Y-127709257D01*
X122133589Y-127726427D01*
X122020388Y-127760766D01*
X121932162Y-127769455D01*
X121888050Y-127773800D01*
X121799550Y-127773800D01*
X121755438Y-127769455D01*
X121667212Y-127760766D01*
X121554011Y-127726427D01*
X121497410Y-127709257D01*
X121340923Y-127625612D01*
X121340921Y-127625611D01*
X121305191Y-127596288D01*
X121203756Y-127513044D01*
X121120512Y-127411609D01*
X121091189Y-127375879D01*
X121081622Y-127357980D01*
X121007543Y-127219390D01*
X120990373Y-127162789D01*
X120956034Y-127049588D01*
X120938642Y-126873000D01*
X120956034Y-126696412D01*
X121007543Y-126526611D01*
X121007543Y-126526610D01*
X121091188Y-126370123D01*
X121091189Y-126370121D01*
X121120512Y-126334391D01*
X121203756Y-126232956D01*
X121305191Y-126149712D01*
X121340921Y-126120389D01*
X121358820Y-126110822D01*
X121497410Y-126036743D01*
X121554011Y-126019573D01*
X121667212Y-125985234D01*
X121755438Y-125976545D01*
X121799550Y-125972200D01*
X121888050Y-125972200D01*
X121932162Y-125976545D01*
X121932162Y-125976545D01*
G37*
G36*
X127012162Y-125976545D02*
X127100388Y-125985234D01*
X127213589Y-126019573D01*
X127270190Y-126036743D01*
X127408780Y-126110822D01*
X127426679Y-126120389D01*
X127462409Y-126149712D01*
X127563844Y-126232956D01*
X127647088Y-126334391D01*
X127676411Y-126370121D01*
X127676412Y-126370123D01*
X127760057Y-126526610D01*
X127760057Y-126526611D01*
X127811566Y-126696412D01*
X127828958Y-126873000D01*
X127811566Y-127049588D01*
X127777227Y-127162789D01*
X127760057Y-127219390D01*
X127685978Y-127357980D01*
X127676411Y-127375879D01*
X127647088Y-127411609D01*
X127563844Y-127513044D01*
X127462409Y-127596288D01*
X127426679Y-127625611D01*
X127426677Y-127625612D01*
X127270190Y-127709257D01*
X127213589Y-127726427D01*
X127100388Y-127760766D01*
X127012162Y-127769455D01*
X126968050Y-127773800D01*
X126879550Y-127773800D01*
X126835438Y-127769455D01*
X126747212Y-127760766D01*
X126634011Y-127726427D01*
X126577410Y-127709257D01*
X126420923Y-127625612D01*
X126420921Y-127625611D01*
X126385191Y-127596288D01*
X126283756Y-127513044D01*
X126200512Y-127411609D01*
X126171189Y-127375879D01*
X126161622Y-127357980D01*
X126087543Y-127219390D01*
X126070373Y-127162789D01*
X126036034Y-127049588D01*
X126018642Y-126873000D01*
X126036034Y-126696412D01*
X126087543Y-126526611D01*
X126087543Y-126526610D01*
X126171188Y-126370123D01*
X126171189Y-126370121D01*
X126200512Y-126334391D01*
X126283756Y-126232956D01*
X126385191Y-126149712D01*
X126420921Y-126120389D01*
X126438820Y-126110822D01*
X126577410Y-126036743D01*
X126634011Y-126019573D01*
X126747212Y-125985234D01*
X126835438Y-125976545D01*
X126879550Y-125972200D01*
X126968050Y-125972200D01*
X127012162Y-125976545D01*
X127012162Y-125976545D01*
G37*
G36*
X124472162Y-125976545D02*
X124560388Y-125985234D01*
X124673589Y-126019573D01*
X124730190Y-126036743D01*
X124868780Y-126110822D01*
X124886679Y-126120389D01*
X124922409Y-126149712D01*
X125023844Y-126232956D01*
X125107088Y-126334391D01*
X125136411Y-126370121D01*
X125136412Y-126370123D01*
X125220057Y-126526610D01*
X125220057Y-126526611D01*
X125271566Y-126696412D01*
X125288958Y-126873000D01*
X125271566Y-127049588D01*
X125237227Y-127162789D01*
X125220057Y-127219390D01*
X125145978Y-127357980D01*
X125136411Y-127375879D01*
X125107088Y-127411609D01*
X125023844Y-127513044D01*
X124922409Y-127596288D01*
X124886679Y-127625611D01*
X124886677Y-127625612D01*
X124730190Y-127709257D01*
X124673589Y-127726427D01*
X124560388Y-127760766D01*
X124472162Y-127769455D01*
X124428050Y-127773800D01*
X124339550Y-127773800D01*
X124295438Y-127769455D01*
X124207212Y-127760766D01*
X124094011Y-127726427D01*
X124037410Y-127709257D01*
X123880923Y-127625612D01*
X123880921Y-127625611D01*
X123845191Y-127596288D01*
X123743756Y-127513044D01*
X123660512Y-127411609D01*
X123631189Y-127375879D01*
X123621622Y-127357980D01*
X123547543Y-127219390D01*
X123530373Y-127162789D01*
X123496034Y-127049588D01*
X123478642Y-126873000D01*
X123496034Y-126696412D01*
X123547543Y-126526611D01*
X123547543Y-126526610D01*
X123631188Y-126370123D01*
X123631189Y-126370121D01*
X123660512Y-126334391D01*
X123743756Y-126232956D01*
X123845191Y-126149712D01*
X123880921Y-126120389D01*
X123898820Y-126110822D01*
X124037410Y-126036743D01*
X124094011Y-126019573D01*
X124207212Y-125985234D01*
X124295438Y-125976545D01*
X124339550Y-125972200D01*
X124428050Y-125972200D01*
X124472162Y-125976545D01*
X124472162Y-125976545D01*
G37*
G36*
X129552162Y-125976545D02*
X129640388Y-125985234D01*
X129753589Y-126019573D01*
X129810190Y-126036743D01*
X129948780Y-126110822D01*
X129966679Y-126120389D01*
X130002409Y-126149712D01*
X130103844Y-126232956D01*
X130187088Y-126334391D01*
X130216411Y-126370121D01*
X130216412Y-126370123D01*
X130300057Y-126526610D01*
X130300057Y-126526611D01*
X130351566Y-126696412D01*
X130368958Y-126873000D01*
X130351566Y-127049588D01*
X130317227Y-127162789D01*
X130300057Y-127219390D01*
X130225978Y-127357980D01*
X130216411Y-127375879D01*
X130187088Y-127411609D01*
X130103844Y-127513044D01*
X130002409Y-127596288D01*
X129966679Y-127625611D01*
X129966677Y-127625612D01*
X129810190Y-127709257D01*
X129753589Y-127726427D01*
X129640388Y-127760766D01*
X129552162Y-127769455D01*
X129508050Y-127773800D01*
X129419550Y-127773800D01*
X129375438Y-127769455D01*
X129287212Y-127760766D01*
X129174011Y-127726427D01*
X129117410Y-127709257D01*
X128960923Y-127625612D01*
X128960921Y-127625611D01*
X128925191Y-127596288D01*
X128823756Y-127513044D01*
X128740512Y-127411609D01*
X128711189Y-127375879D01*
X128701622Y-127357980D01*
X128627543Y-127219390D01*
X128610373Y-127162789D01*
X128576034Y-127049588D01*
X128558642Y-126873000D01*
X128576034Y-126696412D01*
X128627543Y-126526611D01*
X128627543Y-126526610D01*
X128711188Y-126370123D01*
X128711189Y-126370121D01*
X128740512Y-126334391D01*
X128823756Y-126232956D01*
X128925191Y-126149712D01*
X128960921Y-126120389D01*
X128978820Y-126110822D01*
X129117410Y-126036743D01*
X129174011Y-126019573D01*
X129287212Y-125985234D01*
X129375438Y-125976545D01*
X129419550Y-125972200D01*
X129508050Y-125972200D01*
X129552162Y-125976545D01*
X129552162Y-125976545D01*
G37*
G36*
X159623000Y-124494800D02*
X157521400Y-124494800D01*
X157521400Y-122393200D01*
X159623000Y-122393200D01*
X159623000Y-124494800D01*
X159623000Y-124494800D01*
G37*
G36*
X153878707Y-122433582D02*
X154069940Y-122512793D01*
X154240887Y-122627016D01*
X154242049Y-122627793D01*
X154388407Y-122774151D01*
X154388409Y-122774154D01*
X154503407Y-122946260D01*
X154582618Y-123137493D01*
X154623000Y-123340505D01*
X154623000Y-123547495D01*
X154582618Y-123750507D01*
X154503407Y-123941740D01*
X154389184Y-124112687D01*
X154388407Y-124113849D01*
X154242049Y-124260207D01*
X154242046Y-124260209D01*
X154069940Y-124375207D01*
X153878707Y-124454418D01*
X153675695Y-124494800D01*
X153468705Y-124494800D01*
X153265693Y-124454418D01*
X153074460Y-124375207D01*
X152902354Y-124260209D01*
X152902351Y-124260207D01*
X152755993Y-124113849D01*
X152755216Y-124112687D01*
X152640993Y-123941740D01*
X152561782Y-123750507D01*
X152521400Y-123547495D01*
X152521400Y-123340505D01*
X152561782Y-123137493D01*
X152640993Y-122946260D01*
X152755991Y-122774154D01*
X152755993Y-122774151D01*
X152902351Y-122627793D01*
X152903513Y-122627016D01*
X153074460Y-122512793D01*
X153265693Y-122433582D01*
X153468705Y-122393200D01*
X153675695Y-122393200D01*
X153878707Y-122433582D01*
X153878707Y-122433582D01*
G37*
G36*
X124788668Y-117067083D02*
X124822634Y-117077386D01*
X124853932Y-117094116D01*
X124881368Y-117116632D01*
X124903884Y-117144068D01*
X124920614Y-117175366D01*
X124930917Y-117209332D01*
X124935000Y-117250790D01*
X124935000Y-117851810D01*
X124930917Y-117893268D01*
X124920614Y-117927234D01*
X124903884Y-117958532D01*
X124881368Y-117985968D01*
X124853932Y-118008484D01*
X124822634Y-118025214D01*
X124788668Y-118035517D01*
X124747210Y-118039600D01*
X124071190Y-118039600D01*
X124029732Y-118035517D01*
X123995766Y-118025214D01*
X123964468Y-118008484D01*
X123937032Y-117985968D01*
X123914516Y-117958532D01*
X123897786Y-117927234D01*
X123887483Y-117893268D01*
X123883400Y-117851810D01*
X123883400Y-117250790D01*
X123887483Y-117209332D01*
X123897786Y-117175366D01*
X123914516Y-117144068D01*
X123937032Y-117116632D01*
X123964468Y-117094116D01*
X123995766Y-117077386D01*
X124029732Y-117067083D01*
X124071190Y-117063000D01*
X124747210Y-117063000D01*
X124788668Y-117067083D01*
X124788668Y-117067083D01*
G37*
G36*
X126266269Y-117060682D02*
X126300235Y-117070985D01*
X126331533Y-117087715D01*
X126358969Y-117110231D01*
X126381485Y-117137667D01*
X126398215Y-117168965D01*
X126408518Y-117202931D01*
X126412601Y-117244389D01*
X126412601Y-117845409D01*
X126408518Y-117886867D01*
X126398215Y-117920833D01*
X126381485Y-117952131D01*
X126358969Y-117979567D01*
X126331533Y-118002083D01*
X126300235Y-118018813D01*
X126266269Y-118029116D01*
X126224811Y-118033199D01*
X125548791Y-118033199D01*
X125507333Y-118029116D01*
X125473367Y-118018813D01*
X125442069Y-118002083D01*
X125414633Y-117979567D01*
X125392117Y-117952131D01*
X125375387Y-117920833D01*
X125365084Y-117886867D01*
X125361001Y-117845409D01*
X125361001Y-117244389D01*
X125365084Y-117202931D01*
X125375387Y-117168965D01*
X125392117Y-117137667D01*
X125414633Y-117110231D01*
X125442069Y-117087715D01*
X125473367Y-117070985D01*
X125507333Y-117060682D01*
X125548791Y-117056599D01*
X126224811Y-117056599D01*
X126266269Y-117060682D01*
X126266269Y-117060682D01*
G37*
G36*
X154316668Y-116572283D02*
X154350634Y-116582586D01*
X154381932Y-116599316D01*
X154409368Y-116621832D01*
X154431884Y-116649268D01*
X154448614Y-116680566D01*
X154458917Y-116714532D01*
X154463000Y-116755990D01*
X154463000Y-117432010D01*
X154458917Y-117473468D01*
X154448614Y-117507434D01*
X154431884Y-117538732D01*
X154409368Y-117566168D01*
X154381932Y-117588684D01*
X154350634Y-117605414D01*
X154316668Y-117615717D01*
X154275210Y-117619800D01*
X153674190Y-117619800D01*
X153632732Y-117615717D01*
X153598766Y-117605414D01*
X153567468Y-117588684D01*
X153540032Y-117566168D01*
X153517516Y-117538732D01*
X153500786Y-117507434D01*
X153490483Y-117473468D01*
X153486400Y-117432010D01*
X153486400Y-116755990D01*
X153490483Y-116714532D01*
X153500786Y-116680566D01*
X153517516Y-116649268D01*
X153540032Y-116621832D01*
X153567468Y-116599316D01*
X153598766Y-116582586D01*
X153632732Y-116572283D01*
X153674190Y-116568200D01*
X154275210Y-116568200D01*
X154316668Y-116572283D01*
X154316668Y-116572283D01*
G37*
G36*
X155891668Y-116572283D02*
X155925634Y-116582586D01*
X155956932Y-116599316D01*
X155984368Y-116621832D01*
X156006884Y-116649268D01*
X156023614Y-116680566D01*
X156033917Y-116714532D01*
X156038000Y-116755990D01*
X156038000Y-117432010D01*
X156033917Y-117473468D01*
X156023614Y-117507434D01*
X156006884Y-117538732D01*
X155984368Y-117566168D01*
X155956932Y-117588684D01*
X155925634Y-117605414D01*
X155891668Y-117615717D01*
X155850210Y-117619800D01*
X155249190Y-117619800D01*
X155207732Y-117615717D01*
X155173766Y-117605414D01*
X155142468Y-117588684D01*
X155115032Y-117566168D01*
X155092516Y-117538732D01*
X155075786Y-117507434D01*
X155065483Y-117473468D01*
X155061400Y-117432010D01*
X155061400Y-116755990D01*
X155065483Y-116714532D01*
X155075786Y-116680566D01*
X155092516Y-116649268D01*
X155115032Y-116621832D01*
X155142468Y-116599316D01*
X155173766Y-116582586D01*
X155207732Y-116572283D01*
X155249190Y-116568200D01*
X155850210Y-116568200D01*
X155891668Y-116572283D01*
X155891668Y-116572283D01*
G37*
G36*
X162738000Y-112347700D02*
X162740402Y-112372086D01*
X162747515Y-112395535D01*
X162759066Y-112417146D01*
X162774612Y-112436088D01*
X162793554Y-112451634D01*
X162815165Y-112463185D01*
X162838614Y-112470298D01*
X162863000Y-112472700D01*
X164821400Y-112472700D01*
X164845786Y-112470298D01*
X164869235Y-112463185D01*
X164890846Y-112451634D01*
X164909788Y-112436088D01*
X164925334Y-112417146D01*
X164936885Y-112395535D01*
X164943998Y-112372086D01*
X164946400Y-112347700D01*
X164946400Y-112003200D01*
X165558000Y-112003200D01*
X165558000Y-117104800D01*
X164946400Y-117104800D01*
X164946400Y-116760300D01*
X164943998Y-116735914D01*
X164936885Y-116712465D01*
X164925334Y-116690854D01*
X164909788Y-116671912D01*
X164890846Y-116656366D01*
X164869235Y-116644815D01*
X164845786Y-116637702D01*
X164821400Y-116635300D01*
X162863000Y-116635300D01*
X162838614Y-116637702D01*
X162815165Y-116644815D01*
X162793554Y-116656366D01*
X162774612Y-116671912D01*
X162759066Y-116690854D01*
X162747515Y-116712465D01*
X162740402Y-116735914D01*
X162738000Y-116760300D01*
X162738000Y-117230300D01*
X162026400Y-117230300D01*
X162026400Y-116760300D01*
X162023998Y-116735914D01*
X162016885Y-116712465D01*
X162005334Y-116690854D01*
X161989788Y-116671912D01*
X161970846Y-116656366D01*
X161949235Y-116644815D01*
X161925786Y-116637702D01*
X161901400Y-116635300D01*
X161316400Y-116635300D01*
X161316400Y-112472700D01*
X161901400Y-112472700D01*
X161925786Y-112470298D01*
X161949235Y-112463185D01*
X161970846Y-112451634D01*
X161989788Y-112436088D01*
X162005334Y-112417146D01*
X162016885Y-112395535D01*
X162023998Y-112372086D01*
X162026400Y-112347700D01*
X162026400Y-111877700D01*
X162738000Y-111877700D01*
X162738000Y-112347700D01*
X162738000Y-112347700D01*
G37*
G36*
X160127000Y-116714800D02*
X159205400Y-116714800D01*
X159205400Y-116203200D01*
X160127000Y-116203200D01*
X160127000Y-116714800D01*
X160127000Y-116714800D01*
G37*
G36*
X124788668Y-115492083D02*
X124822634Y-115502386D01*
X124853932Y-115519116D01*
X124881368Y-115541632D01*
X124903884Y-115569068D01*
X124920614Y-115600366D01*
X124930917Y-115634332D01*
X124935000Y-115675790D01*
X124935000Y-116276810D01*
X124930917Y-116318268D01*
X124920614Y-116352234D01*
X124903884Y-116383532D01*
X124881368Y-116410968D01*
X124853932Y-116433484D01*
X124822634Y-116450214D01*
X124788668Y-116460517D01*
X124747210Y-116464600D01*
X124071190Y-116464600D01*
X124029732Y-116460517D01*
X123995766Y-116450214D01*
X123964468Y-116433484D01*
X123937032Y-116410968D01*
X123914516Y-116383532D01*
X123897786Y-116352234D01*
X123887483Y-116318268D01*
X123883400Y-116276810D01*
X123883400Y-115675790D01*
X123887483Y-115634332D01*
X123897786Y-115600366D01*
X123914516Y-115569068D01*
X123937032Y-115541632D01*
X123964468Y-115519116D01*
X123995766Y-115502386D01*
X124029732Y-115492083D01*
X124071190Y-115488000D01*
X124747210Y-115488000D01*
X124788668Y-115492083D01*
X124788668Y-115492083D01*
G37*
G36*
X126266269Y-115485682D02*
X126300235Y-115495985D01*
X126331533Y-115512715D01*
X126358969Y-115535231D01*
X126381485Y-115562667D01*
X126398215Y-115593965D01*
X126408518Y-115627931D01*
X126412601Y-115669389D01*
X126412601Y-116270409D01*
X126408518Y-116311867D01*
X126398215Y-116345833D01*
X126381485Y-116377131D01*
X126358969Y-116404567D01*
X126331533Y-116427083D01*
X126300235Y-116443813D01*
X126266269Y-116454116D01*
X126224811Y-116458199D01*
X125548791Y-116458199D01*
X125507333Y-116454116D01*
X125473367Y-116443813D01*
X125442069Y-116427083D01*
X125414633Y-116404567D01*
X125392117Y-116377131D01*
X125375387Y-116345833D01*
X125365084Y-116311867D01*
X125361001Y-116270409D01*
X125361001Y-115669389D01*
X125365084Y-115627931D01*
X125375387Y-115593965D01*
X125392117Y-115562667D01*
X125414633Y-115535231D01*
X125442069Y-115512715D01*
X125473367Y-115495985D01*
X125507333Y-115485682D01*
X125548791Y-115481599D01*
X126224811Y-115481599D01*
X126266269Y-115485682D01*
X126266269Y-115485682D01*
G37*
G36*
X151052268Y-114704883D02*
X151086234Y-114715186D01*
X151117532Y-114731916D01*
X151144968Y-114754432D01*
X151167484Y-114781868D01*
X151184214Y-114813166D01*
X151194517Y-114847132D01*
X151198600Y-114888590D01*
X151198600Y-115489610D01*
X151194517Y-115531068D01*
X151184214Y-115565034D01*
X151167484Y-115596332D01*
X151144968Y-115623768D01*
X151117532Y-115646284D01*
X151086234Y-115663014D01*
X151052268Y-115673317D01*
X151010810Y-115677400D01*
X150334790Y-115677400D01*
X150293332Y-115673317D01*
X150259366Y-115663014D01*
X150228068Y-115646284D01*
X150200632Y-115623768D01*
X150178116Y-115596332D01*
X150161386Y-115565034D01*
X150151083Y-115531068D01*
X150147000Y-115489610D01*
X150147000Y-114888590D01*
X150151083Y-114847132D01*
X150161386Y-114813166D01*
X150178116Y-114781868D01*
X150200632Y-114754432D01*
X150228068Y-114731916D01*
X150259366Y-114715186D01*
X150293332Y-114704883D01*
X150334790Y-114700800D01*
X151010810Y-114700800D01*
X151052268Y-114704883D01*
X151052268Y-114704883D01*
G37*
G36*
X160127000Y-115444800D02*
X159205400Y-115444800D01*
X159205400Y-114933200D01*
X160127000Y-114933200D01*
X160127000Y-115444800D01*
X160127000Y-115444800D01*
G37*
G36*
X160127000Y-114174800D02*
X159205400Y-114174800D01*
X159205400Y-113663200D01*
X160127000Y-113663200D01*
X160127000Y-114174800D01*
X160127000Y-114174800D01*
G37*
G36*
X151052268Y-113129883D02*
X151086234Y-113140186D01*
X151117532Y-113156916D01*
X151144968Y-113179432D01*
X151167484Y-113206868D01*
X151184214Y-113238166D01*
X151194517Y-113272132D01*
X151198600Y-113313590D01*
X151198600Y-113914610D01*
X151194517Y-113956068D01*
X151184214Y-113990034D01*
X151167484Y-114021332D01*
X151144968Y-114048768D01*
X151117532Y-114071284D01*
X151086234Y-114088014D01*
X151052268Y-114098317D01*
X151010810Y-114102400D01*
X150334790Y-114102400D01*
X150293332Y-114098317D01*
X150259366Y-114088014D01*
X150228068Y-114071284D01*
X150200632Y-114048768D01*
X150178116Y-114021332D01*
X150161386Y-113990034D01*
X150151083Y-113956068D01*
X150147000Y-113914610D01*
X150147000Y-113313590D01*
X150151083Y-113272132D01*
X150161386Y-113238166D01*
X150178116Y-113206868D01*
X150200632Y-113179432D01*
X150228068Y-113156916D01*
X150259366Y-113140186D01*
X150293332Y-113129883D01*
X150334790Y-113125800D01*
X151010810Y-113125800D01*
X151052268Y-113129883D01*
X151052268Y-113129883D01*
G37*
G36*
X112811982Y-112538551D02*
X112845948Y-112548854D01*
X112877246Y-112565584D01*
X112904682Y-112588100D01*
X112927198Y-112615536D01*
X112943928Y-112646834D01*
X112954231Y-112680800D01*
X112958314Y-112722258D01*
X112958314Y-113398278D01*
X112954231Y-113439736D01*
X112943928Y-113473702D01*
X112927198Y-113505000D01*
X112904682Y-113532436D01*
X112877246Y-113554952D01*
X112845948Y-113571682D01*
X112811982Y-113581985D01*
X112770524Y-113586068D01*
X112169504Y-113586068D01*
X112128046Y-113581985D01*
X112094080Y-113571682D01*
X112062782Y-113554952D01*
X112035346Y-113532436D01*
X112012830Y-113505000D01*
X111996100Y-113473702D01*
X111985797Y-113439736D01*
X111981714Y-113398278D01*
X111981714Y-112722258D01*
X111985797Y-112680800D01*
X111996100Y-112646834D01*
X112012830Y-112615536D01*
X112035346Y-112588100D01*
X112062782Y-112565584D01*
X112094080Y-112548854D01*
X112128046Y-112538551D01*
X112169504Y-112534468D01*
X112770524Y-112534468D01*
X112811982Y-112538551D01*
X112811982Y-112538551D01*
G37*
G36*
X111236982Y-112538551D02*
X111270948Y-112548854D01*
X111302246Y-112565584D01*
X111329682Y-112588100D01*
X111352198Y-112615536D01*
X111368928Y-112646834D01*
X111379231Y-112680800D01*
X111383314Y-112722258D01*
X111383314Y-113398278D01*
X111379231Y-113439736D01*
X111368928Y-113473702D01*
X111352198Y-113505000D01*
X111329682Y-113532436D01*
X111302246Y-113554952D01*
X111270948Y-113571682D01*
X111236982Y-113581985D01*
X111195524Y-113586068D01*
X110594504Y-113586068D01*
X110553046Y-113581985D01*
X110519080Y-113571682D01*
X110487782Y-113554952D01*
X110460346Y-113532436D01*
X110437830Y-113505000D01*
X110421100Y-113473702D01*
X110410797Y-113439736D01*
X110406714Y-113398278D01*
X110406714Y-112722258D01*
X110410797Y-112680800D01*
X110421100Y-112646834D01*
X110437830Y-112615536D01*
X110460346Y-112588100D01*
X110487782Y-112565584D01*
X110519080Y-112548854D01*
X110553046Y-112538551D01*
X110594504Y-112534468D01*
X111195524Y-112534468D01*
X111236982Y-112538551D01*
X111236982Y-112538551D01*
G37*
G36*
X170087800Y-113064800D02*
X167986200Y-113064800D01*
X167986200Y-110963200D01*
X170087800Y-110963200D01*
X170087800Y-113064800D01*
X170087800Y-113064800D01*
G37*
G36*
X160127000Y-112904800D02*
X159205400Y-112904800D01*
X159205400Y-112393200D01*
X160127000Y-112393200D01*
X160127000Y-112904800D01*
X160127000Y-112904800D01*
G37*
G36*
X118413268Y-111631483D02*
X118447234Y-111641786D01*
X118478532Y-111658516D01*
X118505968Y-111681032D01*
X118528484Y-111708468D01*
X118545214Y-111739766D01*
X118555517Y-111773732D01*
X118559600Y-111815190D01*
X118559600Y-112416210D01*
X118555517Y-112457668D01*
X118545214Y-112491634D01*
X118528484Y-112522932D01*
X118505968Y-112550368D01*
X118478532Y-112572884D01*
X118447234Y-112589614D01*
X118413268Y-112599917D01*
X118371810Y-112604000D01*
X117695790Y-112604000D01*
X117654332Y-112599917D01*
X117620366Y-112589614D01*
X117589068Y-112572884D01*
X117561632Y-112550368D01*
X117539116Y-112522932D01*
X117522386Y-112491634D01*
X117512083Y-112457668D01*
X117508000Y-112416210D01*
X117508000Y-111815190D01*
X117512083Y-111773732D01*
X117522386Y-111739766D01*
X117539116Y-111708468D01*
X117561632Y-111681032D01*
X117589068Y-111658516D01*
X117620366Y-111641786D01*
X117654332Y-111631483D01*
X117695790Y-111627400D01*
X118371810Y-111627400D01*
X118413268Y-111631483D01*
X118413268Y-111631483D01*
G37*
G36*
X121461268Y-111631483D02*
X121495234Y-111641786D01*
X121526532Y-111658516D01*
X121553968Y-111681032D01*
X121576484Y-111708468D01*
X121593214Y-111739766D01*
X121603517Y-111773732D01*
X121607600Y-111815190D01*
X121607600Y-112416210D01*
X121603517Y-112457668D01*
X121593214Y-112491634D01*
X121576484Y-112522932D01*
X121553968Y-112550368D01*
X121526532Y-112572884D01*
X121495234Y-112589614D01*
X121461268Y-112599917D01*
X121419810Y-112604000D01*
X120743790Y-112604000D01*
X120702332Y-112599917D01*
X120668366Y-112589614D01*
X120637068Y-112572884D01*
X120609632Y-112550368D01*
X120587116Y-112522932D01*
X120570386Y-112491634D01*
X120560083Y-112457668D01*
X120556000Y-112416210D01*
X120556000Y-111815190D01*
X120560083Y-111773732D01*
X120570386Y-111739766D01*
X120587116Y-111708468D01*
X120609632Y-111681032D01*
X120637068Y-111658516D01*
X120668366Y-111641786D01*
X120702332Y-111631483D01*
X120743790Y-111627400D01*
X121419810Y-111627400D01*
X121461268Y-111631483D01*
X121461268Y-111631483D01*
G37*
G36*
X119937268Y-111631483D02*
X119971234Y-111641786D01*
X120002532Y-111658516D01*
X120029968Y-111681032D01*
X120052484Y-111708468D01*
X120069214Y-111739766D01*
X120079517Y-111773732D01*
X120083600Y-111815190D01*
X120083600Y-112416210D01*
X120079517Y-112457668D01*
X120069214Y-112491634D01*
X120052484Y-112522932D01*
X120029968Y-112550368D01*
X120002532Y-112572884D01*
X119971234Y-112589614D01*
X119937268Y-112599917D01*
X119895810Y-112604000D01*
X119219790Y-112604000D01*
X119178332Y-112599917D01*
X119144366Y-112589614D01*
X119113068Y-112572884D01*
X119085632Y-112550368D01*
X119063116Y-112522932D01*
X119046386Y-112491634D01*
X119036083Y-112457668D01*
X119032000Y-112416210D01*
X119032000Y-111815190D01*
X119036083Y-111773732D01*
X119046386Y-111739766D01*
X119063116Y-111708468D01*
X119085632Y-111681032D01*
X119113068Y-111658516D01*
X119144366Y-111641786D01*
X119178332Y-111631483D01*
X119219790Y-111627400D01*
X119895810Y-111627400D01*
X119937268Y-111631483D01*
X119937268Y-111631483D01*
G37*
G36*
X110523714Y-112023268D02*
X109222114Y-112023268D01*
X109222114Y-110121668D01*
X110523714Y-110121668D01*
X110523714Y-112023268D01*
X110523714Y-112023268D01*
G37*
G36*
X112923714Y-112023268D02*
X111622114Y-112023268D01*
X111622114Y-110121668D01*
X112923714Y-110121668D01*
X112923714Y-112023268D01*
X112923714Y-112023268D01*
G37*
G36*
X155150665Y-108356546D02*
X155187195Y-108367627D01*
X155220859Y-108385621D01*
X155250364Y-108409836D01*
X155274579Y-108439341D01*
X155292573Y-108473005D01*
X155303654Y-108509535D01*
X155308000Y-108553660D01*
X155308000Y-110902340D01*
X155303654Y-110946465D01*
X155292573Y-110982995D01*
X155274579Y-111016659D01*
X155250364Y-111046164D01*
X155220859Y-111070379D01*
X155187195Y-111088373D01*
X155150665Y-111099454D01*
X155106540Y-111103800D01*
X154157860Y-111103800D01*
X154113735Y-111099454D01*
X154077205Y-111088373D01*
X154043541Y-111070379D01*
X154014036Y-111046164D01*
X153989821Y-111016659D01*
X153971827Y-110982995D01*
X153960746Y-110946465D01*
X153956400Y-110902340D01*
X153956400Y-108553660D01*
X153960746Y-108509535D01*
X153971827Y-108473005D01*
X153989821Y-108439341D01*
X154014036Y-108409836D01*
X154043541Y-108385621D01*
X154077205Y-108367627D01*
X154113735Y-108356546D01*
X154157860Y-108352200D01*
X155106540Y-108352200D01*
X155150665Y-108356546D01*
X155150665Y-108356546D01*
G37*
G36*
X157950665Y-108356546D02*
X157987195Y-108367627D01*
X158020859Y-108385621D01*
X158050364Y-108409836D01*
X158074579Y-108439341D01*
X158092573Y-108473005D01*
X158103654Y-108509535D01*
X158108000Y-108553660D01*
X158108000Y-110902340D01*
X158103654Y-110946465D01*
X158092573Y-110982995D01*
X158074579Y-111016659D01*
X158050364Y-111046164D01*
X158020859Y-111070379D01*
X157987195Y-111088373D01*
X157950665Y-111099454D01*
X157906540Y-111103800D01*
X156957860Y-111103800D01*
X156913735Y-111099454D01*
X156877205Y-111088373D01*
X156843541Y-111070379D01*
X156814036Y-111046164D01*
X156789821Y-111016659D01*
X156771827Y-110982995D01*
X156760746Y-110946465D01*
X156756400Y-110902340D01*
X156756400Y-108553660D01*
X156760746Y-108509535D01*
X156771827Y-108473005D01*
X156789821Y-108439341D01*
X156814036Y-108409836D01*
X156843541Y-108385621D01*
X156877205Y-108367627D01*
X156913735Y-108356546D01*
X156957860Y-108352200D01*
X157906540Y-108352200D01*
X157950665Y-108356546D01*
X157950665Y-108356546D01*
G37*
G36*
X119937268Y-110056483D02*
X119971234Y-110066786D01*
X120002532Y-110083516D01*
X120029968Y-110106032D01*
X120052484Y-110133468D01*
X120069214Y-110164766D01*
X120079517Y-110198732D01*
X120083600Y-110240190D01*
X120083600Y-110841210D01*
X120079517Y-110882668D01*
X120069214Y-110916634D01*
X120052484Y-110947932D01*
X120029968Y-110975368D01*
X120002532Y-110997884D01*
X119971234Y-111014614D01*
X119937268Y-111024917D01*
X119895810Y-111029000D01*
X119219790Y-111029000D01*
X119178332Y-111024917D01*
X119144366Y-111014614D01*
X119113068Y-110997884D01*
X119085632Y-110975368D01*
X119063116Y-110947932D01*
X119046386Y-110916634D01*
X119036083Y-110882668D01*
X119032000Y-110841210D01*
X119032000Y-110240190D01*
X119036083Y-110198732D01*
X119046386Y-110164766D01*
X119063116Y-110133468D01*
X119085632Y-110106032D01*
X119113068Y-110083516D01*
X119144366Y-110066786D01*
X119178332Y-110056483D01*
X119219790Y-110052400D01*
X119895810Y-110052400D01*
X119937268Y-110056483D01*
X119937268Y-110056483D01*
G37*
G36*
X118413268Y-110056483D02*
X118447234Y-110066786D01*
X118478532Y-110083516D01*
X118505968Y-110106032D01*
X118528484Y-110133468D01*
X118545214Y-110164766D01*
X118555517Y-110198732D01*
X118559600Y-110240190D01*
X118559600Y-110841210D01*
X118555517Y-110882668D01*
X118545214Y-110916634D01*
X118528484Y-110947932D01*
X118505968Y-110975368D01*
X118478532Y-110997884D01*
X118447234Y-111014614D01*
X118413268Y-111024917D01*
X118371810Y-111029000D01*
X117695790Y-111029000D01*
X117654332Y-111024917D01*
X117620366Y-111014614D01*
X117589068Y-110997884D01*
X117561632Y-110975368D01*
X117539116Y-110947932D01*
X117522386Y-110916634D01*
X117512083Y-110882668D01*
X117508000Y-110841210D01*
X117508000Y-110240190D01*
X117512083Y-110198732D01*
X117522386Y-110164766D01*
X117539116Y-110133468D01*
X117561632Y-110106032D01*
X117589068Y-110083516D01*
X117620366Y-110066786D01*
X117654332Y-110056483D01*
X117695790Y-110052400D01*
X118371810Y-110052400D01*
X118413268Y-110056483D01*
X118413268Y-110056483D01*
G37*
G36*
X121461268Y-110056483D02*
X121495234Y-110066786D01*
X121526532Y-110083516D01*
X121553968Y-110106032D01*
X121576484Y-110133468D01*
X121593214Y-110164766D01*
X121603517Y-110198732D01*
X121607600Y-110240190D01*
X121607600Y-110841210D01*
X121603517Y-110882668D01*
X121593214Y-110916634D01*
X121576484Y-110947932D01*
X121553968Y-110975368D01*
X121526532Y-110997884D01*
X121495234Y-111014614D01*
X121461268Y-111024917D01*
X121419810Y-111029000D01*
X120743790Y-111029000D01*
X120702332Y-111024917D01*
X120668366Y-111014614D01*
X120637068Y-110997884D01*
X120609632Y-110975368D01*
X120587116Y-110947932D01*
X120570386Y-110916634D01*
X120560083Y-110882668D01*
X120556000Y-110841210D01*
X120556000Y-110240190D01*
X120560083Y-110198732D01*
X120570386Y-110164766D01*
X120587116Y-110133468D01*
X120609632Y-110106032D01*
X120637068Y-110083516D01*
X120668366Y-110066786D01*
X120702332Y-110056483D01*
X120743790Y-110052400D01*
X121419810Y-110052400D01*
X121461268Y-110056483D01*
X121461268Y-110056483D01*
G37*
G36*
X162738000Y-105997700D02*
X162740402Y-106022086D01*
X162747515Y-106045535D01*
X162759066Y-106067146D01*
X162774612Y-106086088D01*
X162793554Y-106101634D01*
X162815165Y-106113185D01*
X162838614Y-106120298D01*
X162863000Y-106122700D01*
X163448000Y-106122700D01*
X163448000Y-110285300D01*
X162863000Y-110285300D01*
X162838614Y-110287702D01*
X162815165Y-110294815D01*
X162793554Y-110306366D01*
X162774612Y-110321912D01*
X162759066Y-110340854D01*
X162747515Y-110362465D01*
X162740402Y-110385914D01*
X162738000Y-110410300D01*
X162738000Y-110880300D01*
X162026400Y-110880300D01*
X162026400Y-110410300D01*
X162023998Y-110385914D01*
X162016885Y-110362465D01*
X162005334Y-110340854D01*
X161989788Y-110321912D01*
X161970846Y-110306366D01*
X161949235Y-110294815D01*
X161925786Y-110287702D01*
X161901400Y-110285300D01*
X159943000Y-110285300D01*
X159918614Y-110287702D01*
X159895165Y-110294815D01*
X159873554Y-110306366D01*
X159854612Y-110321912D01*
X159839066Y-110340854D01*
X159827515Y-110362465D01*
X159820402Y-110385914D01*
X159818000Y-110410300D01*
X159818000Y-110754800D01*
X159206400Y-110754800D01*
X159206400Y-105653200D01*
X159818000Y-105653200D01*
X159818000Y-105997700D01*
X159820402Y-106022086D01*
X159827515Y-106045535D01*
X159839066Y-106067146D01*
X159854612Y-106086088D01*
X159873554Y-106101634D01*
X159895165Y-106113185D01*
X159918614Y-106120298D01*
X159943000Y-106122700D01*
X161901400Y-106122700D01*
X161925786Y-106120298D01*
X161949235Y-106113185D01*
X161970846Y-106101634D01*
X161989788Y-106086088D01*
X162005334Y-106067146D01*
X162016885Y-106045535D01*
X162023998Y-106022086D01*
X162026400Y-105997700D01*
X162026400Y-105527700D01*
X162738000Y-105527700D01*
X162738000Y-105997700D01*
X162738000Y-105997700D01*
G37*
G36*
X165559000Y-110364800D02*
X164637400Y-110364800D01*
X164637400Y-109853200D01*
X165559000Y-109853200D01*
X165559000Y-110364800D01*
X165559000Y-110364800D01*
G37*
G36*
X118413268Y-108583483D02*
X118447234Y-108593786D01*
X118478532Y-108610516D01*
X118505968Y-108633032D01*
X118528484Y-108660468D01*
X118545214Y-108691766D01*
X118555517Y-108725732D01*
X118559600Y-108767190D01*
X118559600Y-109368210D01*
X118555517Y-109409668D01*
X118545214Y-109443634D01*
X118528484Y-109474932D01*
X118505968Y-109502368D01*
X118478532Y-109524884D01*
X118447234Y-109541614D01*
X118413268Y-109551917D01*
X118371810Y-109556000D01*
X117695790Y-109556000D01*
X117654332Y-109551917D01*
X117620366Y-109541614D01*
X117589068Y-109524884D01*
X117561632Y-109502368D01*
X117539116Y-109474932D01*
X117522386Y-109443634D01*
X117512083Y-109409668D01*
X117508000Y-109368210D01*
X117508000Y-108767190D01*
X117512083Y-108725732D01*
X117522386Y-108691766D01*
X117539116Y-108660468D01*
X117561632Y-108633032D01*
X117589068Y-108610516D01*
X117620366Y-108593786D01*
X117654332Y-108583483D01*
X117695790Y-108579400D01*
X118371810Y-108579400D01*
X118413268Y-108583483D01*
X118413268Y-108583483D01*
G37*
G36*
X119937268Y-108583483D02*
X119971234Y-108593786D01*
X120002532Y-108610516D01*
X120029968Y-108633032D01*
X120052484Y-108660468D01*
X120069214Y-108691766D01*
X120079517Y-108725732D01*
X120083600Y-108767190D01*
X120083600Y-109368210D01*
X120079517Y-109409668D01*
X120069214Y-109443634D01*
X120052484Y-109474932D01*
X120029968Y-109502368D01*
X120002532Y-109524884D01*
X119971234Y-109541614D01*
X119937268Y-109551917D01*
X119895810Y-109556000D01*
X119219790Y-109556000D01*
X119178332Y-109551917D01*
X119144366Y-109541614D01*
X119113068Y-109524884D01*
X119085632Y-109502368D01*
X119063116Y-109474932D01*
X119046386Y-109443634D01*
X119036083Y-109409668D01*
X119032000Y-109368210D01*
X119032000Y-108767190D01*
X119036083Y-108725732D01*
X119046386Y-108691766D01*
X119063116Y-108660468D01*
X119085632Y-108633032D01*
X119113068Y-108610516D01*
X119144366Y-108593786D01*
X119178332Y-108583483D01*
X119219790Y-108579400D01*
X119895810Y-108579400D01*
X119937268Y-108583483D01*
X119937268Y-108583483D01*
G37*
G36*
X121461268Y-108583483D02*
X121495234Y-108593786D01*
X121526532Y-108610516D01*
X121553968Y-108633032D01*
X121576484Y-108660468D01*
X121593214Y-108691766D01*
X121603517Y-108725732D01*
X121607600Y-108767190D01*
X121607600Y-109368210D01*
X121603517Y-109409668D01*
X121593214Y-109443634D01*
X121576484Y-109474932D01*
X121553968Y-109502368D01*
X121526532Y-109524884D01*
X121495234Y-109541614D01*
X121461268Y-109551917D01*
X121419810Y-109556000D01*
X120743790Y-109556000D01*
X120702332Y-109551917D01*
X120668366Y-109541614D01*
X120637068Y-109524884D01*
X120609632Y-109502368D01*
X120587116Y-109474932D01*
X120570386Y-109443634D01*
X120560083Y-109409668D01*
X120556000Y-109368210D01*
X120556000Y-108767190D01*
X120560083Y-108725732D01*
X120570386Y-108691766D01*
X120587116Y-108660468D01*
X120609632Y-108633032D01*
X120637068Y-108610516D01*
X120668366Y-108593786D01*
X120702332Y-108583483D01*
X120743790Y-108579400D01*
X121419810Y-108579400D01*
X121461268Y-108583483D01*
X121461268Y-108583483D01*
G37*
G36*
X165559000Y-109094800D02*
X164637400Y-109094800D01*
X164637400Y-108583200D01*
X165559000Y-108583200D01*
X165559000Y-109094800D01*
X165559000Y-109094800D01*
G37*
G36*
X148119268Y-107606083D02*
X148153234Y-107616386D01*
X148184532Y-107633116D01*
X148211968Y-107655632D01*
X148234484Y-107683068D01*
X148251214Y-107714366D01*
X148261517Y-107748332D01*
X148265600Y-107789790D01*
X148265600Y-108465810D01*
X148261517Y-108507268D01*
X148251214Y-108541234D01*
X148234484Y-108572532D01*
X148211968Y-108599968D01*
X148184532Y-108622484D01*
X148153234Y-108639214D01*
X148119268Y-108649517D01*
X148077810Y-108653600D01*
X147476790Y-108653600D01*
X147435332Y-108649517D01*
X147401366Y-108639214D01*
X147370068Y-108622484D01*
X147342632Y-108599968D01*
X147320116Y-108572532D01*
X147303386Y-108541234D01*
X147293083Y-108507268D01*
X147289000Y-108465810D01*
X147289000Y-107789790D01*
X147293083Y-107748332D01*
X147303386Y-107714366D01*
X147320116Y-107683068D01*
X147342632Y-107655632D01*
X147370068Y-107633116D01*
X147401366Y-107616386D01*
X147435332Y-107606083D01*
X147476790Y-107602000D01*
X148077810Y-107602000D01*
X148119268Y-107606083D01*
X148119268Y-107606083D01*
G37*
G36*
X146544268Y-107606083D02*
X146578234Y-107616386D01*
X146609532Y-107633116D01*
X146636968Y-107655632D01*
X146659484Y-107683068D01*
X146676214Y-107714366D01*
X146686517Y-107748332D01*
X146690600Y-107789790D01*
X146690600Y-108465810D01*
X146686517Y-108507268D01*
X146676214Y-108541234D01*
X146659484Y-108572532D01*
X146636968Y-108599968D01*
X146609532Y-108622484D01*
X146578234Y-108639214D01*
X146544268Y-108649517D01*
X146502810Y-108653600D01*
X145901790Y-108653600D01*
X145860332Y-108649517D01*
X145826366Y-108639214D01*
X145795068Y-108622484D01*
X145767632Y-108599968D01*
X145745116Y-108572532D01*
X145728386Y-108541234D01*
X145718083Y-108507268D01*
X145714000Y-108465810D01*
X145714000Y-107789790D01*
X145718083Y-107748332D01*
X145728386Y-107714366D01*
X145745116Y-107683068D01*
X145767632Y-107655632D01*
X145795068Y-107633116D01*
X145826366Y-107616386D01*
X145860332Y-107606083D01*
X145901790Y-107602000D01*
X146502810Y-107602000D01*
X146544268Y-107606083D01*
X146544268Y-107606083D01*
G37*
G36*
X144956268Y-107605583D02*
X144990234Y-107615886D01*
X145021532Y-107632616D01*
X145048968Y-107655132D01*
X145071484Y-107682568D01*
X145088214Y-107713866D01*
X145098517Y-107747832D01*
X145102600Y-107789290D01*
X145102600Y-108390310D01*
X145098517Y-108431768D01*
X145088214Y-108465734D01*
X145071484Y-108497032D01*
X145048968Y-108524468D01*
X145021532Y-108546984D01*
X144990234Y-108563714D01*
X144956268Y-108574017D01*
X144914810Y-108578100D01*
X144238790Y-108578100D01*
X144197332Y-108574017D01*
X144163366Y-108563714D01*
X144132068Y-108546984D01*
X144104632Y-108524468D01*
X144082116Y-108497032D01*
X144065386Y-108465734D01*
X144055083Y-108431768D01*
X144051000Y-108390310D01*
X144051000Y-107789290D01*
X144055083Y-107747832D01*
X144065386Y-107713866D01*
X144082116Y-107682568D01*
X144104632Y-107655132D01*
X144132068Y-107632616D01*
X144163366Y-107615886D01*
X144197332Y-107605583D01*
X144238790Y-107601500D01*
X144914810Y-107601500D01*
X144956268Y-107605583D01*
X144956268Y-107605583D01*
G37*
G36*
X112923714Y-108023268D02*
X111622114Y-108023268D01*
X111622114Y-106121668D01*
X112923714Y-106121668D01*
X112923714Y-108023268D01*
X112923714Y-108023268D01*
G37*
G36*
X110523714Y-108023268D02*
X109222114Y-108023268D01*
X109222114Y-106121668D01*
X110523714Y-106121668D01*
X110523714Y-108023268D01*
X110523714Y-108023268D01*
G37*
G36*
X118413268Y-107008483D02*
X118447234Y-107018786D01*
X118478532Y-107035516D01*
X118505968Y-107058032D01*
X118528484Y-107085468D01*
X118545214Y-107116766D01*
X118555517Y-107150732D01*
X118559600Y-107192190D01*
X118559600Y-107793210D01*
X118555517Y-107834668D01*
X118545214Y-107868634D01*
X118528484Y-107899932D01*
X118505968Y-107927368D01*
X118478532Y-107949884D01*
X118447234Y-107966614D01*
X118413268Y-107976917D01*
X118371810Y-107981000D01*
X117695790Y-107981000D01*
X117654332Y-107976917D01*
X117620366Y-107966614D01*
X117589068Y-107949884D01*
X117561632Y-107927368D01*
X117539116Y-107899932D01*
X117522386Y-107868634D01*
X117512083Y-107834668D01*
X117508000Y-107793210D01*
X117508000Y-107192190D01*
X117512083Y-107150732D01*
X117522386Y-107116766D01*
X117539116Y-107085468D01*
X117561632Y-107058032D01*
X117589068Y-107035516D01*
X117620366Y-107018786D01*
X117654332Y-107008483D01*
X117695790Y-107004400D01*
X118371810Y-107004400D01*
X118413268Y-107008483D01*
X118413268Y-107008483D01*
G37*
G36*
X121461268Y-107008483D02*
X121495234Y-107018786D01*
X121526532Y-107035516D01*
X121553968Y-107058032D01*
X121576484Y-107085468D01*
X121593214Y-107116766D01*
X121603517Y-107150732D01*
X121607600Y-107192190D01*
X121607600Y-107793210D01*
X121603517Y-107834668D01*
X121593214Y-107868634D01*
X121576484Y-107899932D01*
X121553968Y-107927368D01*
X121526532Y-107949884D01*
X121495234Y-107966614D01*
X121461268Y-107976917D01*
X121419810Y-107981000D01*
X120743790Y-107981000D01*
X120702332Y-107976917D01*
X120668366Y-107966614D01*
X120637068Y-107949884D01*
X120609632Y-107927368D01*
X120587116Y-107899932D01*
X120570386Y-107868634D01*
X120560083Y-107834668D01*
X120556000Y-107793210D01*
X120556000Y-107192190D01*
X120560083Y-107150732D01*
X120570386Y-107116766D01*
X120587116Y-107085468D01*
X120609632Y-107058032D01*
X120637068Y-107035516D01*
X120668366Y-107018786D01*
X120702332Y-107008483D01*
X120743790Y-107004400D01*
X121419810Y-107004400D01*
X121461268Y-107008483D01*
X121461268Y-107008483D01*
G37*
G36*
X119937268Y-107008483D02*
X119971234Y-107018786D01*
X120002532Y-107035516D01*
X120029968Y-107058032D01*
X120052484Y-107085468D01*
X120069214Y-107116766D01*
X120079517Y-107150732D01*
X120083600Y-107192190D01*
X120083600Y-107793210D01*
X120079517Y-107834668D01*
X120069214Y-107868634D01*
X120052484Y-107899932D01*
X120029968Y-107927368D01*
X120002532Y-107949884D01*
X119971234Y-107966614D01*
X119937268Y-107976917D01*
X119895810Y-107981000D01*
X119219790Y-107981000D01*
X119178332Y-107976917D01*
X119144366Y-107966614D01*
X119113068Y-107949884D01*
X119085632Y-107927368D01*
X119063116Y-107899932D01*
X119046386Y-107868634D01*
X119036083Y-107834668D01*
X119032000Y-107793210D01*
X119032000Y-107192190D01*
X119036083Y-107150732D01*
X119046386Y-107116766D01*
X119063116Y-107085468D01*
X119085632Y-107058032D01*
X119113068Y-107035516D01*
X119144366Y-107018786D01*
X119178332Y-107008483D01*
X119219790Y-107004400D01*
X119895810Y-107004400D01*
X119937268Y-107008483D01*
X119937268Y-107008483D01*
G37*
G36*
X137294465Y-105181546D02*
X137330995Y-105192627D01*
X137364659Y-105210621D01*
X137394164Y-105234836D01*
X137418379Y-105264341D01*
X137436373Y-105298005D01*
X137447454Y-105334535D01*
X137451800Y-105378660D01*
X137451800Y-107727340D01*
X137447454Y-107771465D01*
X137436373Y-107807995D01*
X137418379Y-107841659D01*
X137394164Y-107871164D01*
X137364659Y-107895379D01*
X137330995Y-107913373D01*
X137294465Y-107924454D01*
X137250340Y-107928800D01*
X136301660Y-107928800D01*
X136257535Y-107924454D01*
X136221005Y-107913373D01*
X136187341Y-107895379D01*
X136157836Y-107871164D01*
X136133621Y-107841659D01*
X136115627Y-107807995D01*
X136104546Y-107771465D01*
X136100200Y-107727340D01*
X136100200Y-105378660D01*
X136104546Y-105334535D01*
X136115627Y-105298005D01*
X136133621Y-105264341D01*
X136157836Y-105234836D01*
X136187341Y-105210621D01*
X136221005Y-105192627D01*
X136257535Y-105181546D01*
X136301660Y-105177200D01*
X137250340Y-105177200D01*
X137294465Y-105181546D01*
X137294465Y-105181546D01*
G37*
G36*
X140094465Y-105181546D02*
X140130995Y-105192627D01*
X140164659Y-105210621D01*
X140194164Y-105234836D01*
X140218379Y-105264341D01*
X140236373Y-105298005D01*
X140247454Y-105334535D01*
X140251800Y-105378660D01*
X140251800Y-107727340D01*
X140247454Y-107771465D01*
X140236373Y-107807995D01*
X140218379Y-107841659D01*
X140194164Y-107871164D01*
X140164659Y-107895379D01*
X140130995Y-107913373D01*
X140094465Y-107924454D01*
X140050340Y-107928800D01*
X139101660Y-107928800D01*
X139057535Y-107924454D01*
X139021005Y-107913373D01*
X138987341Y-107895379D01*
X138957836Y-107871164D01*
X138933621Y-107841659D01*
X138915627Y-107807995D01*
X138904546Y-107771465D01*
X138900200Y-107727340D01*
X138900200Y-105378660D01*
X138904546Y-105334535D01*
X138915627Y-105298005D01*
X138933621Y-105264341D01*
X138957836Y-105234836D01*
X138987341Y-105210621D01*
X139021005Y-105192627D01*
X139057535Y-105181546D01*
X139101660Y-105177200D01*
X140050340Y-105177200D01*
X140094465Y-105181546D01*
X140094465Y-105181546D01*
G37*
G36*
X165559000Y-107824800D02*
X164637400Y-107824800D01*
X164637400Y-107313200D01*
X165559000Y-107313200D01*
X165559000Y-107824800D01*
X165559000Y-107824800D01*
G37*
G36*
X157950665Y-105054546D02*
X157987195Y-105065627D01*
X158020859Y-105083621D01*
X158050364Y-105107836D01*
X158074579Y-105137341D01*
X158092573Y-105171005D01*
X158103654Y-105207535D01*
X158108000Y-105251660D01*
X158108000Y-107600340D01*
X158103654Y-107644465D01*
X158092573Y-107680995D01*
X158074579Y-107714659D01*
X158050364Y-107744164D01*
X158020859Y-107768379D01*
X157987195Y-107786373D01*
X157950665Y-107797454D01*
X157906540Y-107801800D01*
X156957860Y-107801800D01*
X156913735Y-107797454D01*
X156877205Y-107786373D01*
X156843541Y-107768379D01*
X156814036Y-107744164D01*
X156789821Y-107714659D01*
X156771827Y-107680995D01*
X156760746Y-107644465D01*
X156756400Y-107600340D01*
X156756400Y-105251660D01*
X156760746Y-105207535D01*
X156771827Y-105171005D01*
X156789821Y-105137341D01*
X156814036Y-105107836D01*
X156843541Y-105083621D01*
X156877205Y-105065627D01*
X156913735Y-105054546D01*
X156957860Y-105050200D01*
X157906540Y-105050200D01*
X157950665Y-105054546D01*
X157950665Y-105054546D01*
G37*
G36*
X155150665Y-105054546D02*
X155187195Y-105065627D01*
X155220859Y-105083621D01*
X155250364Y-105107836D01*
X155274579Y-105137341D01*
X155292573Y-105171005D01*
X155303654Y-105207535D01*
X155308000Y-105251660D01*
X155308000Y-107600340D01*
X155303654Y-107644465D01*
X155292573Y-107680995D01*
X155274579Y-107714659D01*
X155250364Y-107744164D01*
X155220859Y-107768379D01*
X155187195Y-107786373D01*
X155150665Y-107797454D01*
X155106540Y-107801800D01*
X154157860Y-107801800D01*
X154113735Y-107797454D01*
X154077205Y-107786373D01*
X154043541Y-107768379D01*
X154014036Y-107744164D01*
X153989821Y-107714659D01*
X153971827Y-107680995D01*
X153960746Y-107644465D01*
X153956400Y-107600340D01*
X153956400Y-105251660D01*
X153960746Y-105207535D01*
X153971827Y-105171005D01*
X153989821Y-105137341D01*
X154014036Y-105107836D01*
X154043541Y-105083621D01*
X154077205Y-105065627D01*
X154113735Y-105054546D01*
X154157860Y-105050200D01*
X155106540Y-105050200D01*
X155150665Y-105054546D01*
X155150665Y-105054546D01*
G37*
G36*
X132269468Y-106666283D02*
X132303434Y-106676586D01*
X132334732Y-106693316D01*
X132362168Y-106715832D01*
X132384684Y-106743268D01*
X132401414Y-106774566D01*
X132411717Y-106808532D01*
X132415800Y-106849990D01*
X132415800Y-107526010D01*
X132411717Y-107567468D01*
X132401414Y-107601434D01*
X132384684Y-107632732D01*
X132362168Y-107660168D01*
X132334732Y-107682684D01*
X132303434Y-107699414D01*
X132269468Y-107709717D01*
X132228010Y-107713800D01*
X131626990Y-107713800D01*
X131585532Y-107709717D01*
X131551566Y-107699414D01*
X131520268Y-107682684D01*
X131492832Y-107660168D01*
X131470316Y-107632732D01*
X131453586Y-107601434D01*
X131443283Y-107567468D01*
X131439200Y-107526010D01*
X131439200Y-106849990D01*
X131443283Y-106808532D01*
X131453586Y-106774566D01*
X131470316Y-106743268D01*
X131492832Y-106715832D01*
X131520268Y-106693316D01*
X131551566Y-106676586D01*
X131585532Y-106666283D01*
X131626990Y-106662200D01*
X132228010Y-106662200D01*
X132269468Y-106666283D01*
X132269468Y-106666283D01*
G37*
G36*
X133844468Y-106666283D02*
X133878434Y-106676586D01*
X133909732Y-106693316D01*
X133937168Y-106715832D01*
X133959684Y-106743268D01*
X133976414Y-106774566D01*
X133986717Y-106808532D01*
X133990800Y-106849990D01*
X133990800Y-107526010D01*
X133986717Y-107567468D01*
X133976414Y-107601434D01*
X133959684Y-107632732D01*
X133937168Y-107660168D01*
X133909732Y-107682684D01*
X133878434Y-107699414D01*
X133844468Y-107709717D01*
X133803010Y-107713800D01*
X133201990Y-107713800D01*
X133160532Y-107709717D01*
X133126566Y-107699414D01*
X133095268Y-107682684D01*
X133067832Y-107660168D01*
X133045316Y-107632732D01*
X133028586Y-107601434D01*
X133018283Y-107567468D01*
X133014200Y-107526010D01*
X133014200Y-106849990D01*
X133018283Y-106808532D01*
X133028586Y-106774566D01*
X133045316Y-106743268D01*
X133067832Y-106715832D01*
X133095268Y-106693316D01*
X133126566Y-106676586D01*
X133160532Y-106666283D01*
X133201990Y-106662200D01*
X133803010Y-106662200D01*
X133844468Y-106666283D01*
X133844468Y-106666283D01*
G37*
G36*
X106183800Y-107707800D02*
X104382200Y-107707800D01*
X104382200Y-105906200D01*
X106183800Y-105906200D01*
X106183800Y-107707800D01*
X106183800Y-107707800D01*
G37*
G36*
X146544268Y-106031283D02*
X146578234Y-106041586D01*
X146609532Y-106058316D01*
X146636968Y-106080832D01*
X146659484Y-106108268D01*
X146676214Y-106139566D01*
X146686517Y-106173532D01*
X146690600Y-106214990D01*
X146690600Y-106891010D01*
X146686517Y-106932468D01*
X146676214Y-106966434D01*
X146659484Y-106997732D01*
X146636968Y-107025168D01*
X146609532Y-107047684D01*
X146578234Y-107064414D01*
X146544268Y-107074717D01*
X146502810Y-107078800D01*
X145901790Y-107078800D01*
X145860332Y-107074717D01*
X145826366Y-107064414D01*
X145795068Y-107047684D01*
X145767632Y-107025168D01*
X145745116Y-106997732D01*
X145728386Y-106966434D01*
X145718083Y-106932468D01*
X145714000Y-106891010D01*
X145714000Y-106214990D01*
X145718083Y-106173532D01*
X145728386Y-106139566D01*
X145745116Y-106108268D01*
X145767632Y-106080832D01*
X145795068Y-106058316D01*
X145826366Y-106041586D01*
X145860332Y-106031283D01*
X145901790Y-106027200D01*
X146502810Y-106027200D01*
X146544268Y-106031283D01*
X146544268Y-106031283D01*
G37*
G36*
X148119268Y-106031283D02*
X148153234Y-106041586D01*
X148184532Y-106058316D01*
X148211968Y-106080832D01*
X148234484Y-106108268D01*
X148251214Y-106139566D01*
X148261517Y-106173532D01*
X148265600Y-106214990D01*
X148265600Y-106891010D01*
X148261517Y-106932468D01*
X148251214Y-106966434D01*
X148234484Y-106997732D01*
X148211968Y-107025168D01*
X148184532Y-107047684D01*
X148153234Y-107064414D01*
X148119268Y-107074717D01*
X148077810Y-107078800D01*
X147476790Y-107078800D01*
X147435332Y-107074717D01*
X147401366Y-107064414D01*
X147370068Y-107047684D01*
X147342632Y-107025168D01*
X147320116Y-106997732D01*
X147303386Y-106966434D01*
X147293083Y-106932468D01*
X147289000Y-106891010D01*
X147289000Y-106214990D01*
X147293083Y-106173532D01*
X147303386Y-106139566D01*
X147320116Y-106108268D01*
X147342632Y-106080832D01*
X147370068Y-106058316D01*
X147401366Y-106041586D01*
X147435332Y-106031283D01*
X147476790Y-106027200D01*
X148077810Y-106027200D01*
X148119268Y-106031283D01*
X148119268Y-106031283D01*
G37*
G36*
X144956268Y-106030583D02*
X144990234Y-106040886D01*
X145021532Y-106057616D01*
X145048968Y-106080132D01*
X145071484Y-106107568D01*
X145088214Y-106138866D01*
X145098517Y-106172832D01*
X145102600Y-106214290D01*
X145102600Y-106815310D01*
X145098517Y-106856768D01*
X145088214Y-106890734D01*
X145071484Y-106922032D01*
X145048968Y-106949468D01*
X145021532Y-106971984D01*
X144990234Y-106988714D01*
X144956268Y-106999017D01*
X144914810Y-107003100D01*
X144238790Y-107003100D01*
X144197332Y-106999017D01*
X144163366Y-106988714D01*
X144132068Y-106971984D01*
X144104632Y-106949468D01*
X144082116Y-106922032D01*
X144065386Y-106890734D01*
X144055083Y-106856768D01*
X144051000Y-106815310D01*
X144051000Y-106214290D01*
X144055083Y-106172832D01*
X144065386Y-106138866D01*
X144082116Y-106107568D01*
X144104632Y-106080132D01*
X144132068Y-106057616D01*
X144163366Y-106040886D01*
X144197332Y-106030583D01*
X144238790Y-106026500D01*
X144914810Y-106026500D01*
X144956268Y-106030583D01*
X144956268Y-106030583D01*
G37*
G36*
X165559000Y-106554800D02*
X164637400Y-106554800D01*
X164637400Y-106043200D01*
X165559000Y-106043200D01*
X165559000Y-106554800D01*
X165559000Y-106554800D01*
G37*
G36*
X133818968Y-105142283D02*
X133852934Y-105152586D01*
X133884232Y-105169316D01*
X133911668Y-105191832D01*
X133934184Y-105219268D01*
X133950914Y-105250566D01*
X133961217Y-105284532D01*
X133965300Y-105325990D01*
X133965300Y-106002010D01*
X133961217Y-106043468D01*
X133950914Y-106077434D01*
X133934184Y-106108732D01*
X133911668Y-106136168D01*
X133884232Y-106158684D01*
X133852934Y-106175414D01*
X133818968Y-106185717D01*
X133777510Y-106189800D01*
X133176490Y-106189800D01*
X133135032Y-106185717D01*
X133101066Y-106175414D01*
X133069768Y-106158684D01*
X133042332Y-106136168D01*
X133019816Y-106108732D01*
X133003086Y-106077434D01*
X132992783Y-106043468D01*
X132988700Y-106002010D01*
X132988700Y-105325990D01*
X132992783Y-105284532D01*
X133003086Y-105250566D01*
X133019816Y-105219268D01*
X133042332Y-105191832D01*
X133069768Y-105169316D01*
X133101066Y-105152586D01*
X133135032Y-105142283D01*
X133176490Y-105138200D01*
X133777510Y-105138200D01*
X133818968Y-105142283D01*
X133818968Y-105142283D01*
G37*
G36*
X132243968Y-105142283D02*
X132277934Y-105152586D01*
X132309232Y-105169316D01*
X132336668Y-105191832D01*
X132359184Y-105219268D01*
X132375914Y-105250566D01*
X132386217Y-105284532D01*
X132390300Y-105325990D01*
X132390300Y-106002010D01*
X132386217Y-106043468D01*
X132375914Y-106077434D01*
X132359184Y-106108732D01*
X132336668Y-106136168D01*
X132309232Y-106158684D01*
X132277934Y-106175414D01*
X132243968Y-106185717D01*
X132202510Y-106189800D01*
X131601490Y-106189800D01*
X131560032Y-106185717D01*
X131526066Y-106175414D01*
X131494768Y-106158684D01*
X131467332Y-106136168D01*
X131444816Y-106108732D01*
X131428086Y-106077434D01*
X131417783Y-106043468D01*
X131413700Y-106002010D01*
X131413700Y-105325990D01*
X131417783Y-105284532D01*
X131428086Y-105250566D01*
X131444816Y-105219268D01*
X131467332Y-105191832D01*
X131494768Y-105169316D01*
X131526066Y-105152586D01*
X131560032Y-105142283D01*
X131601490Y-105138200D01*
X132202510Y-105138200D01*
X132243968Y-105142283D01*
X132243968Y-105142283D01*
G37*
G36*
X125081268Y-104939083D02*
X125115234Y-104949386D01*
X125146532Y-104966116D01*
X125173968Y-104988632D01*
X125196484Y-105016068D01*
X125213214Y-105047366D01*
X125223517Y-105081332D01*
X125227600Y-105122790D01*
X125227600Y-105798810D01*
X125223517Y-105840268D01*
X125213214Y-105874234D01*
X125196484Y-105905532D01*
X125173968Y-105932968D01*
X125146532Y-105955484D01*
X125115234Y-105972214D01*
X125081268Y-105982517D01*
X125039810Y-105986600D01*
X124438790Y-105986600D01*
X124397332Y-105982517D01*
X124363366Y-105972214D01*
X124332068Y-105955484D01*
X124304632Y-105932968D01*
X124282116Y-105905532D01*
X124265386Y-105874234D01*
X124255083Y-105840268D01*
X124251000Y-105798810D01*
X124251000Y-105122790D01*
X124255083Y-105081332D01*
X124265386Y-105047366D01*
X124282116Y-105016068D01*
X124304632Y-104988632D01*
X124332068Y-104966116D01*
X124363366Y-104949386D01*
X124397332Y-104939083D01*
X124438790Y-104935000D01*
X125039810Y-104935000D01*
X125081268Y-104939083D01*
X125081268Y-104939083D01*
G37*
G36*
X126656268Y-104939083D02*
X126690234Y-104949386D01*
X126721532Y-104966116D01*
X126748968Y-104988632D01*
X126771484Y-105016068D01*
X126788214Y-105047366D01*
X126798517Y-105081332D01*
X126802600Y-105122790D01*
X126802600Y-105798810D01*
X126798517Y-105840268D01*
X126788214Y-105874234D01*
X126771484Y-105905532D01*
X126748968Y-105932968D01*
X126721532Y-105955484D01*
X126690234Y-105972214D01*
X126656268Y-105982517D01*
X126614810Y-105986600D01*
X126013790Y-105986600D01*
X125972332Y-105982517D01*
X125938366Y-105972214D01*
X125907068Y-105955484D01*
X125879632Y-105932968D01*
X125857116Y-105905532D01*
X125840386Y-105874234D01*
X125830083Y-105840268D01*
X125826000Y-105798810D01*
X125826000Y-105122790D01*
X125830083Y-105081332D01*
X125840386Y-105047366D01*
X125857116Y-105016068D01*
X125879632Y-104988632D01*
X125907068Y-104966116D01*
X125938366Y-104949386D01*
X125972332Y-104939083D01*
X126013790Y-104935000D01*
X126614810Y-104935000D01*
X126656268Y-104939083D01*
X126656268Y-104939083D01*
G37*
G36*
X111592782Y-104562951D02*
X111626748Y-104573254D01*
X111658046Y-104589984D01*
X111685482Y-104612500D01*
X111707998Y-104639936D01*
X111724728Y-104671234D01*
X111735031Y-104705200D01*
X111739114Y-104746658D01*
X111739114Y-105422678D01*
X111735031Y-105464136D01*
X111724728Y-105498102D01*
X111707998Y-105529400D01*
X111685482Y-105556836D01*
X111658046Y-105579352D01*
X111626748Y-105596082D01*
X111592782Y-105606385D01*
X111551324Y-105610468D01*
X110950304Y-105610468D01*
X110908846Y-105606385D01*
X110874880Y-105596082D01*
X110843582Y-105579352D01*
X110816146Y-105556836D01*
X110793630Y-105529400D01*
X110776900Y-105498102D01*
X110766597Y-105464136D01*
X110762514Y-105422678D01*
X110762514Y-104746658D01*
X110766597Y-104705200D01*
X110776900Y-104671234D01*
X110793630Y-104639936D01*
X110816146Y-104612500D01*
X110843582Y-104589984D01*
X110874880Y-104573254D01*
X110908846Y-104562951D01*
X110950304Y-104558868D01*
X111551324Y-104558868D01*
X111592782Y-104562951D01*
X111592782Y-104562951D01*
G37*
G36*
X110017782Y-104562951D02*
X110051748Y-104573254D01*
X110083046Y-104589984D01*
X110110482Y-104612500D01*
X110132998Y-104639936D01*
X110149728Y-104671234D01*
X110160031Y-104705200D01*
X110164114Y-104746658D01*
X110164114Y-105422678D01*
X110160031Y-105464136D01*
X110149728Y-105498102D01*
X110132998Y-105529400D01*
X110110482Y-105556836D01*
X110083046Y-105579352D01*
X110051748Y-105596082D01*
X110017782Y-105606385D01*
X109976324Y-105610468D01*
X109375304Y-105610468D01*
X109333846Y-105606385D01*
X109299880Y-105596082D01*
X109268582Y-105579352D01*
X109241146Y-105556836D01*
X109218630Y-105529400D01*
X109201900Y-105498102D01*
X109191597Y-105464136D01*
X109187514Y-105422678D01*
X109187514Y-104746658D01*
X109191597Y-104705200D01*
X109201900Y-104671234D01*
X109218630Y-104639936D01*
X109241146Y-104612500D01*
X109268582Y-104589984D01*
X109299880Y-104573254D01*
X109333846Y-104562951D01*
X109375304Y-104558868D01*
X109976324Y-104558868D01*
X110017782Y-104562951D01*
X110017782Y-104562951D01*
G37*
G36*
X146518868Y-104443783D02*
X146552834Y-104454086D01*
X146584132Y-104470816D01*
X146611568Y-104493332D01*
X146634084Y-104520768D01*
X146650814Y-104552066D01*
X146661117Y-104586032D01*
X146665200Y-104627490D01*
X146665200Y-105303510D01*
X146661117Y-105344968D01*
X146650814Y-105378934D01*
X146634084Y-105410232D01*
X146611568Y-105437668D01*
X146584132Y-105460184D01*
X146552834Y-105476914D01*
X146518868Y-105487217D01*
X146477410Y-105491300D01*
X145876390Y-105491300D01*
X145834932Y-105487217D01*
X145800966Y-105476914D01*
X145769668Y-105460184D01*
X145742232Y-105437668D01*
X145719716Y-105410232D01*
X145702986Y-105378934D01*
X145692683Y-105344968D01*
X145688600Y-105303510D01*
X145688600Y-104627490D01*
X145692683Y-104586032D01*
X145702986Y-104552066D01*
X145719716Y-104520768D01*
X145742232Y-104493332D01*
X145769668Y-104470816D01*
X145800966Y-104454086D01*
X145834932Y-104443783D01*
X145876390Y-104439700D01*
X146477410Y-104439700D01*
X146518868Y-104443783D01*
X146518868Y-104443783D01*
G37*
G36*
X148093868Y-104443783D02*
X148127834Y-104454086D01*
X148159132Y-104470816D01*
X148186568Y-104493332D01*
X148209084Y-104520768D01*
X148225814Y-104552066D01*
X148236117Y-104586032D01*
X148240200Y-104627490D01*
X148240200Y-105303510D01*
X148236117Y-105344968D01*
X148225814Y-105378934D01*
X148209084Y-105410232D01*
X148186568Y-105437668D01*
X148159132Y-105460184D01*
X148127834Y-105476914D01*
X148093868Y-105487217D01*
X148052410Y-105491300D01*
X147451390Y-105491300D01*
X147409932Y-105487217D01*
X147375966Y-105476914D01*
X147344668Y-105460184D01*
X147317232Y-105437668D01*
X147294716Y-105410232D01*
X147277986Y-105378934D01*
X147267683Y-105344968D01*
X147263600Y-105303510D01*
X147263600Y-104627490D01*
X147267683Y-104586032D01*
X147277986Y-104552066D01*
X147294716Y-104520768D01*
X147317232Y-104493332D01*
X147344668Y-104470816D01*
X147375966Y-104454086D01*
X147409932Y-104443783D01*
X147451390Y-104439700D01*
X148052410Y-104439700D01*
X148093868Y-104443783D01*
X148093868Y-104443783D01*
G37*
G36*
X144956268Y-104506783D02*
X144990234Y-104517086D01*
X145021532Y-104533816D01*
X145048968Y-104556332D01*
X145071484Y-104583768D01*
X145088214Y-104615066D01*
X145098517Y-104649032D01*
X145102600Y-104690490D01*
X145102600Y-105291510D01*
X145098517Y-105332968D01*
X145088214Y-105366934D01*
X145071484Y-105398232D01*
X145048968Y-105425668D01*
X145021532Y-105448184D01*
X144990234Y-105464914D01*
X144956268Y-105475217D01*
X144914810Y-105479300D01*
X144238790Y-105479300D01*
X144197332Y-105475217D01*
X144163366Y-105464914D01*
X144132068Y-105448184D01*
X144104632Y-105425668D01*
X144082116Y-105398232D01*
X144065386Y-105366934D01*
X144055083Y-105332968D01*
X144051000Y-105291510D01*
X144051000Y-104690490D01*
X144055083Y-104649032D01*
X144065386Y-104615066D01*
X144082116Y-104583768D01*
X144104632Y-104556332D01*
X144132068Y-104533816D01*
X144163366Y-104517086D01*
X144197332Y-104506783D01*
X144238790Y-104502700D01*
X144914810Y-104502700D01*
X144956268Y-104506783D01*
X144956268Y-104506783D01*
G37*
G36*
X116318468Y-104354883D02*
X116352434Y-104365186D01*
X116383732Y-104381916D01*
X116411168Y-104404432D01*
X116433684Y-104431868D01*
X116450414Y-104463166D01*
X116460717Y-104497132D01*
X116464800Y-104538590D01*
X116464800Y-105214610D01*
X116460717Y-105256068D01*
X116450414Y-105290034D01*
X116433684Y-105321332D01*
X116411168Y-105348768D01*
X116383732Y-105371284D01*
X116352434Y-105388014D01*
X116318468Y-105398317D01*
X116277010Y-105402400D01*
X115675990Y-105402400D01*
X115634532Y-105398317D01*
X115600566Y-105388014D01*
X115569268Y-105371284D01*
X115541832Y-105348768D01*
X115519316Y-105321332D01*
X115502586Y-105290034D01*
X115492283Y-105256068D01*
X115488200Y-105214610D01*
X115488200Y-104538590D01*
X115492283Y-104497132D01*
X115502586Y-104463166D01*
X115519316Y-104431868D01*
X115541832Y-104404432D01*
X115569268Y-104381916D01*
X115600566Y-104365186D01*
X115634532Y-104354883D01*
X115675990Y-104350800D01*
X116277010Y-104350800D01*
X116318468Y-104354883D01*
X116318468Y-104354883D01*
G37*
G36*
X114743468Y-104354883D02*
X114777434Y-104365186D01*
X114808732Y-104381916D01*
X114836168Y-104404432D01*
X114858684Y-104431868D01*
X114875414Y-104463166D01*
X114885717Y-104497132D01*
X114889800Y-104538590D01*
X114889800Y-105214610D01*
X114885717Y-105256068D01*
X114875414Y-105290034D01*
X114858684Y-105321332D01*
X114836168Y-105348768D01*
X114808732Y-105371284D01*
X114777434Y-105388014D01*
X114743468Y-105398317D01*
X114702010Y-105402400D01*
X114100990Y-105402400D01*
X114059532Y-105398317D01*
X114025566Y-105388014D01*
X113994268Y-105371284D01*
X113966832Y-105348768D01*
X113944316Y-105321332D01*
X113927586Y-105290034D01*
X113917283Y-105256068D01*
X113913200Y-105214610D01*
X113913200Y-104538590D01*
X113917283Y-104497132D01*
X113927586Y-104463166D01*
X113944316Y-104431868D01*
X113966832Y-104404432D01*
X113994268Y-104381916D01*
X114025566Y-104365186D01*
X114059532Y-104354883D01*
X114100990Y-104350800D01*
X114702010Y-104350800D01*
X114743468Y-104354883D01*
X114743468Y-104354883D01*
G37*
G36*
X105371362Y-103370545D02*
X105459588Y-103379234D01*
X105562987Y-103410600D01*
X105629390Y-103430743D01*
X105721011Y-103479716D01*
X105785879Y-103514389D01*
X105804496Y-103529668D01*
X105923044Y-103626956D01*
X105989374Y-103707781D01*
X106035611Y-103764121D01*
X106035612Y-103764123D01*
X106119257Y-103920610D01*
X106133420Y-103967300D01*
X106170766Y-104090412D01*
X106188158Y-104267000D01*
X106170766Y-104443588D01*
X106139299Y-104547319D01*
X106119257Y-104613390D01*
X106048023Y-104746658D01*
X106035611Y-104769879D01*
X106008414Y-104803018D01*
X105923044Y-104907044D01*
X105851063Y-104966116D01*
X105785879Y-105019611D01*
X105785877Y-105019612D01*
X105629390Y-105103257D01*
X105572789Y-105120427D01*
X105459588Y-105154766D01*
X105371362Y-105163455D01*
X105327250Y-105167800D01*
X105238750Y-105167800D01*
X105194638Y-105163455D01*
X105106412Y-105154766D01*
X104993211Y-105120427D01*
X104936610Y-105103257D01*
X104780123Y-105019612D01*
X104780121Y-105019611D01*
X104714937Y-104966116D01*
X104642956Y-104907044D01*
X104557586Y-104803018D01*
X104530389Y-104769879D01*
X104517977Y-104746658D01*
X104446743Y-104613390D01*
X104426701Y-104547319D01*
X104395234Y-104443588D01*
X104377842Y-104267000D01*
X104395234Y-104090412D01*
X104432580Y-103967300D01*
X104446743Y-103920610D01*
X104530388Y-103764123D01*
X104530389Y-103764121D01*
X104576626Y-103707781D01*
X104642956Y-103626956D01*
X104761504Y-103529668D01*
X104780121Y-103514389D01*
X104844989Y-103479716D01*
X104936610Y-103430743D01*
X105003013Y-103410600D01*
X105106412Y-103379234D01*
X105194638Y-103370545D01*
X105238750Y-103366200D01*
X105327250Y-103366200D01*
X105371362Y-103370545D01*
X105371362Y-103370545D01*
G37*
G36*
X127455668Y-103452683D02*
X127489634Y-103462986D01*
X127520932Y-103479716D01*
X127548368Y-103502232D01*
X127570884Y-103529668D01*
X127587614Y-103560966D01*
X127597917Y-103594932D01*
X127602000Y-103636390D01*
X127602000Y-104237410D01*
X127597917Y-104278868D01*
X127587614Y-104312834D01*
X127570884Y-104344132D01*
X127548368Y-104371568D01*
X127520932Y-104394084D01*
X127489634Y-104410814D01*
X127455668Y-104421117D01*
X127414210Y-104425200D01*
X126738190Y-104425200D01*
X126696732Y-104421117D01*
X126662766Y-104410814D01*
X126631468Y-104394084D01*
X126604032Y-104371568D01*
X126581516Y-104344132D01*
X126564786Y-104312834D01*
X126554483Y-104278868D01*
X126550400Y-104237410D01*
X126550400Y-103636390D01*
X126554483Y-103594932D01*
X126564786Y-103560966D01*
X126581516Y-103529668D01*
X126604032Y-103502232D01*
X126631468Y-103479716D01*
X126662766Y-103462986D01*
X126696732Y-103452683D01*
X126738190Y-103448600D01*
X127414210Y-103448600D01*
X127455668Y-103452683D01*
X127455668Y-103452683D01*
G37*
G36*
X134413600Y-104410600D02*
X132762000Y-104410600D01*
X132762000Y-90509000D01*
X134413600Y-90509000D01*
X134413600Y-104410600D01*
X134413600Y-104410600D01*
G37*
G36*
X141913600Y-104410600D02*
X140262000Y-104410600D01*
X140262000Y-90509000D01*
X141913600Y-90509000D01*
X141913600Y-104410600D01*
X141913600Y-104410600D01*
G37*
G36*
X155942468Y-103237283D02*
X155976434Y-103247586D01*
X156007732Y-103264316D01*
X156035168Y-103286832D01*
X156057684Y-103314268D01*
X156074414Y-103345566D01*
X156084717Y-103379532D01*
X156088800Y-103420990D01*
X156088800Y-104097010D01*
X156084717Y-104138468D01*
X156074414Y-104172434D01*
X156057684Y-104203732D01*
X156035168Y-104231168D01*
X156007732Y-104253684D01*
X155976434Y-104270414D01*
X155942468Y-104280717D01*
X155901010Y-104284800D01*
X155299990Y-104284800D01*
X155258532Y-104280717D01*
X155224566Y-104270414D01*
X155193268Y-104253684D01*
X155165832Y-104231168D01*
X155143316Y-104203732D01*
X155126586Y-104172434D01*
X155116283Y-104138468D01*
X155112200Y-104097010D01*
X155112200Y-103420990D01*
X155116283Y-103379532D01*
X155126586Y-103345566D01*
X155143316Y-103314268D01*
X155165832Y-103286832D01*
X155193268Y-103264316D01*
X155224566Y-103247586D01*
X155258532Y-103237283D01*
X155299990Y-103233200D01*
X155901010Y-103233200D01*
X155942468Y-103237283D01*
X155942468Y-103237283D01*
G37*
G36*
X154367468Y-103237283D02*
X154401434Y-103247586D01*
X154432732Y-103264316D01*
X154460168Y-103286832D01*
X154482684Y-103314268D01*
X154499414Y-103345566D01*
X154509717Y-103379532D01*
X154513800Y-103420990D01*
X154513800Y-104097010D01*
X154509717Y-104138468D01*
X154499414Y-104172434D01*
X154482684Y-104203732D01*
X154460168Y-104231168D01*
X154432732Y-104253684D01*
X154401434Y-104270414D01*
X154367468Y-104280717D01*
X154326010Y-104284800D01*
X153724990Y-104284800D01*
X153683532Y-104280717D01*
X153649566Y-104270414D01*
X153618268Y-104253684D01*
X153590832Y-104231168D01*
X153568316Y-104203732D01*
X153551586Y-104172434D01*
X153541283Y-104138468D01*
X153537200Y-104097010D01*
X153537200Y-103420990D01*
X153541283Y-103379532D01*
X153551586Y-103345566D01*
X153568316Y-103314268D01*
X153590832Y-103286832D01*
X153618268Y-103264316D01*
X153649566Y-103247586D01*
X153683532Y-103237283D01*
X153724990Y-103233200D01*
X154326010Y-103233200D01*
X154367468Y-103237283D01*
X154367468Y-103237283D01*
G37*
G36*
X146518868Y-102919783D02*
X146552834Y-102930086D01*
X146584132Y-102946816D01*
X146611568Y-102969332D01*
X146634084Y-102996768D01*
X146650814Y-103028066D01*
X146661117Y-103062032D01*
X146665200Y-103103490D01*
X146665200Y-103779510D01*
X146661117Y-103820968D01*
X146650814Y-103854934D01*
X146634084Y-103886232D01*
X146611568Y-103913668D01*
X146584132Y-103936184D01*
X146552834Y-103952914D01*
X146518868Y-103963217D01*
X146477410Y-103967300D01*
X145876390Y-103967300D01*
X145834932Y-103963217D01*
X145800966Y-103952914D01*
X145769668Y-103936184D01*
X145742232Y-103913668D01*
X145719716Y-103886232D01*
X145702986Y-103854934D01*
X145692683Y-103820968D01*
X145688600Y-103779510D01*
X145688600Y-103103490D01*
X145692683Y-103062032D01*
X145702986Y-103028066D01*
X145719716Y-102996768D01*
X145742232Y-102969332D01*
X145769668Y-102946816D01*
X145800966Y-102930086D01*
X145834932Y-102919783D01*
X145876390Y-102915700D01*
X146477410Y-102915700D01*
X146518868Y-102919783D01*
X146518868Y-102919783D01*
G37*
G36*
X148093868Y-102919783D02*
X148127834Y-102930086D01*
X148159132Y-102946816D01*
X148186568Y-102969332D01*
X148209084Y-102996768D01*
X148225814Y-103028066D01*
X148236117Y-103062032D01*
X148240200Y-103103490D01*
X148240200Y-103779510D01*
X148236117Y-103820968D01*
X148225814Y-103854934D01*
X148209084Y-103886232D01*
X148186568Y-103913668D01*
X148159132Y-103936184D01*
X148127834Y-103952914D01*
X148093868Y-103963217D01*
X148052410Y-103967300D01*
X147451390Y-103967300D01*
X147409932Y-103963217D01*
X147375966Y-103952914D01*
X147344668Y-103936184D01*
X147317232Y-103913668D01*
X147294716Y-103886232D01*
X147277986Y-103854934D01*
X147267683Y-103820968D01*
X147263600Y-103779510D01*
X147263600Y-103103490D01*
X147267683Y-103062032D01*
X147277986Y-103028066D01*
X147294716Y-102996768D01*
X147317232Y-102969332D01*
X147344668Y-102946816D01*
X147375966Y-102930086D01*
X147409932Y-102919783D01*
X147451390Y-102915700D01*
X148052410Y-102915700D01*
X148093868Y-102919783D01*
X148093868Y-102919783D01*
G37*
G36*
X144956268Y-102931783D02*
X144990234Y-102942086D01*
X145021532Y-102958816D01*
X145048968Y-102981332D01*
X145071484Y-103008768D01*
X145088214Y-103040066D01*
X145098517Y-103074032D01*
X145102600Y-103115490D01*
X145102600Y-103716510D01*
X145098517Y-103757968D01*
X145088214Y-103791934D01*
X145071484Y-103823232D01*
X145048968Y-103850668D01*
X145021532Y-103873184D01*
X144990234Y-103889914D01*
X144956268Y-103900217D01*
X144914810Y-103904300D01*
X144238790Y-103904300D01*
X144197332Y-103900217D01*
X144163366Y-103889914D01*
X144132068Y-103873184D01*
X144104632Y-103850668D01*
X144082116Y-103823232D01*
X144065386Y-103791934D01*
X144055083Y-103757968D01*
X144051000Y-103716510D01*
X144051000Y-103115490D01*
X144055083Y-103074032D01*
X144065386Y-103040066D01*
X144082116Y-103008768D01*
X144104632Y-102981332D01*
X144132068Y-102958816D01*
X144163366Y-102942086D01*
X144197332Y-102931783D01*
X144238790Y-102927700D01*
X144914810Y-102927700D01*
X144956268Y-102931783D01*
X144956268Y-102931783D01*
G37*
G36*
X123722693Y-103638735D02*
X115871093Y-103638735D01*
X115871093Y-102537135D01*
X123722693Y-102537135D01*
X123722693Y-103638735D01*
X123722693Y-103638735D01*
G37*
G36*
X127455668Y-101877683D02*
X127489634Y-101887986D01*
X127520932Y-101904716D01*
X127548368Y-101927232D01*
X127570884Y-101954668D01*
X127587614Y-101985966D01*
X127597917Y-102019932D01*
X127602000Y-102061390D01*
X127602000Y-102662410D01*
X127597917Y-102703868D01*
X127587614Y-102737834D01*
X127570884Y-102769132D01*
X127548368Y-102796568D01*
X127520932Y-102819084D01*
X127489634Y-102835814D01*
X127455668Y-102846117D01*
X127414210Y-102850200D01*
X126738190Y-102850200D01*
X126696732Y-102846117D01*
X126662766Y-102835814D01*
X126631468Y-102819084D01*
X126604032Y-102796568D01*
X126581516Y-102769132D01*
X126564786Y-102737834D01*
X126554483Y-102703868D01*
X126550400Y-102662410D01*
X126550400Y-102061390D01*
X126554483Y-102019932D01*
X126564786Y-101985966D01*
X126581516Y-101954668D01*
X126604032Y-101927232D01*
X126631468Y-101904716D01*
X126662766Y-101887986D01*
X126696732Y-101877683D01*
X126738190Y-101873600D01*
X127414210Y-101873600D01*
X127455668Y-101877683D01*
X127455668Y-101877683D01*
G37*
G36*
X105371362Y-100830545D02*
X105459588Y-100839234D01*
X105572789Y-100873573D01*
X105629390Y-100890743D01*
X105764946Y-100963200D01*
X105785879Y-100974389D01*
X105808130Y-100992650D01*
X105923044Y-101086956D01*
X106002002Y-101183168D01*
X106035611Y-101224121D01*
X106035612Y-101224123D01*
X106119257Y-101380610D01*
X106123713Y-101395300D01*
X106170766Y-101550412D01*
X106188158Y-101727000D01*
X106170766Y-101903588D01*
X106158170Y-101945110D01*
X106119257Y-102073390D01*
X106045178Y-102211980D01*
X106035611Y-102229879D01*
X106006288Y-102265609D01*
X105923044Y-102367044D01*
X105821609Y-102450288D01*
X105785879Y-102479611D01*
X105785877Y-102479612D01*
X105629390Y-102563257D01*
X105572789Y-102580427D01*
X105459588Y-102614766D01*
X105371362Y-102623455D01*
X105327250Y-102627800D01*
X105238750Y-102627800D01*
X105194638Y-102623455D01*
X105106412Y-102614766D01*
X104993211Y-102580427D01*
X104936610Y-102563257D01*
X104780123Y-102479612D01*
X104780121Y-102479611D01*
X104744391Y-102450288D01*
X104642956Y-102367044D01*
X104559712Y-102265609D01*
X104530389Y-102229879D01*
X104520822Y-102211980D01*
X104446743Y-102073390D01*
X104407830Y-101945110D01*
X104395234Y-101903588D01*
X104377842Y-101727000D01*
X104395234Y-101550412D01*
X104442287Y-101395300D01*
X104446743Y-101380610D01*
X104530388Y-101224123D01*
X104530389Y-101224121D01*
X104563998Y-101183168D01*
X104642956Y-101086956D01*
X104757870Y-100992650D01*
X104780121Y-100974389D01*
X104801054Y-100963200D01*
X104936610Y-100890743D01*
X104993211Y-100873573D01*
X105106412Y-100839234D01*
X105194638Y-100830545D01*
X105238750Y-100826200D01*
X105327250Y-100826200D01*
X105371362Y-100830545D01*
X105371362Y-100830545D01*
G37*
G36*
X154367468Y-101332283D02*
X154401434Y-101342586D01*
X154432732Y-101359316D01*
X154460168Y-101381832D01*
X154482684Y-101409268D01*
X154499414Y-101440566D01*
X154509717Y-101474532D01*
X154513800Y-101515990D01*
X154513800Y-102192010D01*
X154509717Y-102233468D01*
X154499414Y-102267434D01*
X154482684Y-102298732D01*
X154460168Y-102326168D01*
X154432732Y-102348684D01*
X154401434Y-102365414D01*
X154367468Y-102375717D01*
X154326010Y-102379800D01*
X153724990Y-102379800D01*
X153683532Y-102375717D01*
X153649566Y-102365414D01*
X153618268Y-102348684D01*
X153590832Y-102326168D01*
X153568316Y-102298732D01*
X153551586Y-102267434D01*
X153541283Y-102233468D01*
X153537200Y-102192010D01*
X153537200Y-101515990D01*
X153541283Y-101474532D01*
X153551586Y-101440566D01*
X153568316Y-101409268D01*
X153590832Y-101381832D01*
X153618268Y-101359316D01*
X153649566Y-101342586D01*
X153683532Y-101332283D01*
X153724990Y-101328200D01*
X154326010Y-101328200D01*
X154367468Y-101332283D01*
X154367468Y-101332283D01*
G37*
G36*
X155942468Y-101332283D02*
X155976434Y-101342586D01*
X156007732Y-101359316D01*
X156035168Y-101381832D01*
X156057684Y-101409268D01*
X156074414Y-101440566D01*
X156084717Y-101474532D01*
X156088800Y-101515990D01*
X156088800Y-102192010D01*
X156084717Y-102233468D01*
X156074414Y-102267434D01*
X156057684Y-102298732D01*
X156035168Y-102326168D01*
X156007732Y-102348684D01*
X155976434Y-102365414D01*
X155942468Y-102375717D01*
X155901010Y-102379800D01*
X155299990Y-102379800D01*
X155258532Y-102375717D01*
X155224566Y-102365414D01*
X155193268Y-102348684D01*
X155165832Y-102326168D01*
X155143316Y-102298732D01*
X155126586Y-102267434D01*
X155116283Y-102233468D01*
X155112200Y-102192010D01*
X155112200Y-101515990D01*
X155116283Y-101474532D01*
X155126586Y-101440566D01*
X155143316Y-101409268D01*
X155165832Y-101381832D01*
X155193268Y-101359316D01*
X155224566Y-101342586D01*
X155258532Y-101332283D01*
X155299990Y-101328200D01*
X155901010Y-101328200D01*
X155942468Y-101332283D01*
X155942468Y-101332283D01*
G37*
G36*
X162738000Y-97107700D02*
X162740402Y-97132086D01*
X162747515Y-97155535D01*
X162759066Y-97177146D01*
X162774612Y-97196088D01*
X162793554Y-97211634D01*
X162815165Y-97223185D01*
X162838614Y-97230298D01*
X162863000Y-97232700D01*
X164821400Y-97232700D01*
X164845786Y-97230298D01*
X164869235Y-97223185D01*
X164890846Y-97211634D01*
X164909788Y-97196088D01*
X164925334Y-97177146D01*
X164936885Y-97155535D01*
X164943998Y-97132086D01*
X164946400Y-97107700D01*
X164946400Y-96763200D01*
X165558000Y-96763200D01*
X165558000Y-101864800D01*
X164946400Y-101864800D01*
X164946400Y-101520300D01*
X164943998Y-101495914D01*
X164936885Y-101472465D01*
X164925334Y-101450854D01*
X164909788Y-101431912D01*
X164890846Y-101416366D01*
X164869235Y-101404815D01*
X164845786Y-101397702D01*
X164821400Y-101395300D01*
X162863000Y-101395300D01*
X162838614Y-101397702D01*
X162815165Y-101404815D01*
X162793554Y-101416366D01*
X162774612Y-101431912D01*
X162759066Y-101450854D01*
X162747515Y-101472465D01*
X162740402Y-101495914D01*
X162738000Y-101520300D01*
X162738000Y-101990300D01*
X162026400Y-101990300D01*
X162026400Y-101520300D01*
X162023998Y-101495914D01*
X162016885Y-101472465D01*
X162005334Y-101450854D01*
X161989788Y-101431912D01*
X161970846Y-101416366D01*
X161949235Y-101404815D01*
X161925786Y-101397702D01*
X161901400Y-101395300D01*
X161316400Y-101395300D01*
X161316400Y-97232700D01*
X161901400Y-97232700D01*
X161925786Y-97230298D01*
X161949235Y-97223185D01*
X161970846Y-97211634D01*
X161989788Y-97196088D01*
X162005334Y-97177146D01*
X162016885Y-97155535D01*
X162023998Y-97132086D01*
X162026400Y-97107700D01*
X162026400Y-96637700D01*
X162738000Y-96637700D01*
X162738000Y-97107700D01*
X162738000Y-97107700D01*
G37*
G36*
X160127000Y-101474800D02*
X159205400Y-101474800D01*
X159205400Y-100963200D01*
X160127000Y-100963200D01*
X160127000Y-101474800D01*
X160127000Y-101474800D01*
G37*
G36*
X126047693Y-101313735D02*
X124946093Y-101313735D01*
X124946093Y-93462135D01*
X126047693Y-93462135D01*
X126047693Y-101313735D01*
X126047693Y-101313735D01*
G37*
G36*
X114647693Y-101313735D02*
X113546093Y-101313735D01*
X113546093Y-93462135D01*
X114647693Y-93462135D01*
X114647693Y-101313735D01*
X114647693Y-101313735D01*
G37*
G36*
X144817068Y-100189283D02*
X144851034Y-100199586D01*
X144882332Y-100216316D01*
X144909768Y-100238832D01*
X144932284Y-100266268D01*
X144949014Y-100297566D01*
X144959317Y-100331532D01*
X144963400Y-100372990D01*
X144963400Y-101049010D01*
X144959317Y-101090468D01*
X144949014Y-101124434D01*
X144932284Y-101155732D01*
X144909768Y-101183168D01*
X144882332Y-101205684D01*
X144851034Y-101222414D01*
X144817068Y-101232717D01*
X144775610Y-101236800D01*
X144174590Y-101236800D01*
X144133132Y-101232717D01*
X144099166Y-101222414D01*
X144067868Y-101205684D01*
X144040432Y-101183168D01*
X144017916Y-101155732D01*
X144001186Y-101124434D01*
X143990883Y-101090468D01*
X143986800Y-101049010D01*
X143986800Y-100372990D01*
X143990883Y-100331532D01*
X144001186Y-100297566D01*
X144017916Y-100266268D01*
X144040432Y-100238832D01*
X144067868Y-100216316D01*
X144099166Y-100199586D01*
X144133132Y-100189283D01*
X144174590Y-100185200D01*
X144775610Y-100185200D01*
X144817068Y-100189283D01*
X144817068Y-100189283D01*
G37*
G36*
X146392068Y-100189283D02*
X146426034Y-100199586D01*
X146457332Y-100216316D01*
X146484768Y-100238832D01*
X146507284Y-100266268D01*
X146524014Y-100297566D01*
X146534317Y-100331532D01*
X146538400Y-100372990D01*
X146538400Y-101049010D01*
X146534317Y-101090468D01*
X146524014Y-101124434D01*
X146507284Y-101155732D01*
X146484768Y-101183168D01*
X146457332Y-101205684D01*
X146426034Y-101222414D01*
X146392068Y-101232717D01*
X146350610Y-101236800D01*
X145749590Y-101236800D01*
X145708132Y-101232717D01*
X145674166Y-101222414D01*
X145642868Y-101205684D01*
X145615432Y-101183168D01*
X145592916Y-101155732D01*
X145576186Y-101124434D01*
X145565883Y-101090468D01*
X145561800Y-101049010D01*
X145561800Y-100372990D01*
X145565883Y-100331532D01*
X145576186Y-100297566D01*
X145592916Y-100266268D01*
X145615432Y-100238832D01*
X145642868Y-100216316D01*
X145674166Y-100199586D01*
X145708132Y-100189283D01*
X145749590Y-100185200D01*
X146350610Y-100185200D01*
X146392068Y-100189283D01*
X146392068Y-100189283D01*
G37*
G36*
X139193600Y-100685600D02*
X135482000Y-100685600D01*
X135482000Y-94234000D01*
X139193600Y-94234000D01*
X139193600Y-100685600D01*
X139193600Y-100685600D01*
G37*
G36*
X152164859Y-96957446D02*
X152200411Y-96968230D01*
X152233172Y-96985742D01*
X152261890Y-97009310D01*
X152285458Y-97038028D01*
X152302970Y-97070789D01*
X152313754Y-97106341D01*
X152318000Y-97149451D01*
X152318000Y-100208549D01*
X152313754Y-100251659D01*
X152302970Y-100287211D01*
X152285458Y-100319972D01*
X152261890Y-100348690D01*
X152233172Y-100372258D01*
X152200411Y-100389770D01*
X152164859Y-100400554D01*
X152121749Y-100404800D01*
X151062651Y-100404800D01*
X151019541Y-100400554D01*
X150983989Y-100389770D01*
X150951228Y-100372258D01*
X150922510Y-100348690D01*
X150898942Y-100319972D01*
X150881430Y-100287211D01*
X150870646Y-100251659D01*
X150866400Y-100208549D01*
X150866400Y-97149451D01*
X150870646Y-97106341D01*
X150881430Y-97070789D01*
X150898942Y-97038028D01*
X150922510Y-97009310D01*
X150951228Y-96985742D01*
X150983989Y-96968230D01*
X151019541Y-96957446D01*
X151062651Y-96953200D01*
X152121749Y-96953200D01*
X152164859Y-96957446D01*
X152164859Y-96957446D01*
G37*
G36*
X157964859Y-96957446D02*
X158000411Y-96968230D01*
X158033172Y-96985742D01*
X158061890Y-97009310D01*
X158085458Y-97038028D01*
X158102970Y-97070789D01*
X158113754Y-97106341D01*
X158118000Y-97149451D01*
X158118000Y-100208549D01*
X158113754Y-100251659D01*
X158102970Y-100287211D01*
X158085458Y-100319972D01*
X158061890Y-100348690D01*
X158033172Y-100372258D01*
X158000411Y-100389770D01*
X157964859Y-100400554D01*
X157921749Y-100404800D01*
X156862651Y-100404800D01*
X156819541Y-100400554D01*
X156783989Y-100389770D01*
X156751228Y-100372258D01*
X156722510Y-100348690D01*
X156698942Y-100319972D01*
X156681430Y-100287211D01*
X156670646Y-100251659D01*
X156666400Y-100208549D01*
X156666400Y-97149451D01*
X156670646Y-97106341D01*
X156681430Y-97070789D01*
X156698942Y-97038028D01*
X156722510Y-97009310D01*
X156751228Y-96985742D01*
X156783989Y-96968230D01*
X156819541Y-96957446D01*
X156862651Y-96953200D01*
X157921749Y-96953200D01*
X157964859Y-96957446D01*
X157964859Y-96957446D01*
G37*
G36*
X160127000Y-100204800D02*
X159205400Y-100204800D01*
X159205400Y-99693200D01*
X160127000Y-99693200D01*
X160127000Y-100204800D01*
X160127000Y-100204800D01*
G37*
G36*
X105371362Y-98290545D02*
X105459588Y-98299234D01*
X105572789Y-98333573D01*
X105629390Y-98350743D01*
X105682939Y-98379366D01*
X105785879Y-98434389D01*
X105819687Y-98462135D01*
X105923044Y-98546956D01*
X105998657Y-98639092D01*
X106035611Y-98684121D01*
X106035612Y-98684123D01*
X106119257Y-98840610D01*
X106119257Y-98840611D01*
X106170766Y-99010412D01*
X106188158Y-99187000D01*
X106170766Y-99363588D01*
X106156505Y-99410600D01*
X106119257Y-99533390D01*
X106045178Y-99671980D01*
X106035611Y-99689879D01*
X106006288Y-99725609D01*
X105923044Y-99827044D01*
X105821609Y-99910288D01*
X105785879Y-99939611D01*
X105785877Y-99939612D01*
X105629390Y-100023257D01*
X105572789Y-100040427D01*
X105459588Y-100074766D01*
X105371362Y-100083455D01*
X105327250Y-100087800D01*
X105238750Y-100087800D01*
X105194638Y-100083455D01*
X105106412Y-100074766D01*
X104993211Y-100040427D01*
X104936610Y-100023257D01*
X104780123Y-99939612D01*
X104780121Y-99939611D01*
X104744391Y-99910288D01*
X104642956Y-99827044D01*
X104559712Y-99725609D01*
X104530389Y-99689879D01*
X104520822Y-99671980D01*
X104446743Y-99533390D01*
X104409495Y-99410600D01*
X104395234Y-99363588D01*
X104377842Y-99187000D01*
X104395234Y-99010412D01*
X104446743Y-98840611D01*
X104446743Y-98840610D01*
X104530388Y-98684123D01*
X104530389Y-98684121D01*
X104567343Y-98639092D01*
X104642956Y-98546956D01*
X104746313Y-98462135D01*
X104780121Y-98434389D01*
X104883061Y-98379366D01*
X104936610Y-98350743D01*
X104993211Y-98333573D01*
X105106412Y-98299234D01*
X105194638Y-98290545D01*
X105238750Y-98286200D01*
X105327250Y-98286200D01*
X105371362Y-98290545D01*
X105371362Y-98290545D01*
G37*
G36*
X112571268Y-98271083D02*
X112605234Y-98281386D01*
X112636532Y-98298116D01*
X112663968Y-98320632D01*
X112686484Y-98348068D01*
X112703214Y-98379366D01*
X112713517Y-98413332D01*
X112717600Y-98454790D01*
X112717600Y-99055810D01*
X112713517Y-99097268D01*
X112703214Y-99131234D01*
X112686484Y-99162532D01*
X112663968Y-99189968D01*
X112636532Y-99212484D01*
X112605234Y-99229214D01*
X112571268Y-99239517D01*
X112529810Y-99243600D01*
X111853790Y-99243600D01*
X111812332Y-99239517D01*
X111778366Y-99229214D01*
X111747068Y-99212484D01*
X111719632Y-99189968D01*
X111697116Y-99162532D01*
X111680386Y-99131234D01*
X111670083Y-99097268D01*
X111666000Y-99055810D01*
X111666000Y-98454790D01*
X111670083Y-98413332D01*
X111680386Y-98379366D01*
X111697116Y-98348068D01*
X111719632Y-98320632D01*
X111747068Y-98298116D01*
X111778366Y-98281386D01*
X111812332Y-98271083D01*
X111853790Y-98267000D01*
X112529810Y-98267000D01*
X112571268Y-98271083D01*
X112571268Y-98271083D01*
G37*
G36*
X110894868Y-98271083D02*
X110928834Y-98281386D01*
X110960132Y-98298116D01*
X110987568Y-98320632D01*
X111010084Y-98348068D01*
X111026814Y-98379366D01*
X111037117Y-98413332D01*
X111041200Y-98454790D01*
X111041200Y-99055810D01*
X111037117Y-99097268D01*
X111026814Y-99131234D01*
X111010084Y-99162532D01*
X110987568Y-99189968D01*
X110960132Y-99212484D01*
X110928834Y-99229214D01*
X110894868Y-99239517D01*
X110853410Y-99243600D01*
X110177390Y-99243600D01*
X110135932Y-99239517D01*
X110101966Y-99229214D01*
X110070668Y-99212484D01*
X110043232Y-99189968D01*
X110020716Y-99162532D01*
X110003986Y-99131234D01*
X109993683Y-99097268D01*
X109989600Y-99055810D01*
X109989600Y-98454790D01*
X109993683Y-98413332D01*
X110003986Y-98379366D01*
X110020716Y-98348068D01*
X110043232Y-98320632D01*
X110070668Y-98298116D01*
X110101966Y-98281386D01*
X110135932Y-98271083D01*
X110177390Y-98267000D01*
X110853410Y-98267000D01*
X110894868Y-98271083D01*
X110894868Y-98271083D01*
G37*
G36*
X160127000Y-98934800D02*
X159205400Y-98934800D01*
X159205400Y-98423200D01*
X160127000Y-98423200D01*
X160127000Y-98934800D01*
X160127000Y-98934800D01*
G37*
G36*
X146392068Y-97700083D02*
X146426034Y-97710386D01*
X146457332Y-97727116D01*
X146484768Y-97749632D01*
X146507284Y-97777068D01*
X146524014Y-97808366D01*
X146534317Y-97842332D01*
X146538400Y-97883790D01*
X146538400Y-98559810D01*
X146534317Y-98601268D01*
X146524014Y-98635234D01*
X146507284Y-98666532D01*
X146484768Y-98693968D01*
X146457332Y-98716484D01*
X146426034Y-98733214D01*
X146392068Y-98743517D01*
X146350610Y-98747600D01*
X145749590Y-98747600D01*
X145708132Y-98743517D01*
X145674166Y-98733214D01*
X145642868Y-98716484D01*
X145615432Y-98693968D01*
X145592916Y-98666532D01*
X145576186Y-98635234D01*
X145565883Y-98601268D01*
X145561800Y-98559810D01*
X145561800Y-97883790D01*
X145565883Y-97842332D01*
X145576186Y-97808366D01*
X145592916Y-97777068D01*
X145615432Y-97749632D01*
X145642868Y-97727116D01*
X145674166Y-97710386D01*
X145708132Y-97700083D01*
X145749590Y-97696000D01*
X146350610Y-97696000D01*
X146392068Y-97700083D01*
X146392068Y-97700083D01*
G37*
G36*
X144817068Y-97700083D02*
X144851034Y-97710386D01*
X144882332Y-97727116D01*
X144909768Y-97749632D01*
X144932284Y-97777068D01*
X144949014Y-97808366D01*
X144959317Y-97842332D01*
X144963400Y-97883790D01*
X144963400Y-98559810D01*
X144959317Y-98601268D01*
X144949014Y-98635234D01*
X144932284Y-98666532D01*
X144909768Y-98693968D01*
X144882332Y-98716484D01*
X144851034Y-98733214D01*
X144817068Y-98743517D01*
X144775610Y-98747600D01*
X144174590Y-98747600D01*
X144133132Y-98743517D01*
X144099166Y-98733214D01*
X144067868Y-98716484D01*
X144040432Y-98693968D01*
X144017916Y-98666532D01*
X144001186Y-98635234D01*
X143990883Y-98601268D01*
X143986800Y-98559810D01*
X143986800Y-97883790D01*
X143990883Y-97842332D01*
X144001186Y-97808366D01*
X144017916Y-97777068D01*
X144040432Y-97749632D01*
X144067868Y-97727116D01*
X144099166Y-97710386D01*
X144133132Y-97700083D01*
X144174590Y-97696000D01*
X144775610Y-97696000D01*
X144817068Y-97700083D01*
X144817068Y-97700083D01*
G37*
G36*
X170087800Y-98078800D02*
X167986200Y-98078800D01*
X167986200Y-95977200D01*
X170087800Y-95977200D01*
X170087800Y-98078800D01*
X170087800Y-98078800D01*
G37*
G36*
X112571268Y-96696083D02*
X112605234Y-96706386D01*
X112636532Y-96723116D01*
X112663968Y-96745632D01*
X112686484Y-96773068D01*
X112703214Y-96804366D01*
X112713517Y-96838332D01*
X112717600Y-96879790D01*
X112717600Y-97480810D01*
X112713517Y-97522268D01*
X112703214Y-97556234D01*
X112686484Y-97587532D01*
X112663968Y-97614968D01*
X112636532Y-97637484D01*
X112605234Y-97654214D01*
X112571268Y-97664517D01*
X112529810Y-97668600D01*
X111853790Y-97668600D01*
X111812332Y-97664517D01*
X111778366Y-97654214D01*
X111747068Y-97637484D01*
X111719632Y-97614968D01*
X111697116Y-97587532D01*
X111680386Y-97556234D01*
X111670083Y-97522268D01*
X111666000Y-97480810D01*
X111666000Y-96879790D01*
X111670083Y-96838332D01*
X111680386Y-96804366D01*
X111697116Y-96773068D01*
X111719632Y-96745632D01*
X111747068Y-96723116D01*
X111778366Y-96706386D01*
X111812332Y-96696083D01*
X111853790Y-96692000D01*
X112529810Y-96692000D01*
X112571268Y-96696083D01*
X112571268Y-96696083D01*
G37*
G36*
X110894868Y-96696083D02*
X110928834Y-96706386D01*
X110960132Y-96723116D01*
X110987568Y-96745632D01*
X111010084Y-96773068D01*
X111026814Y-96804366D01*
X111037117Y-96838332D01*
X111041200Y-96879790D01*
X111041200Y-97480810D01*
X111037117Y-97522268D01*
X111026814Y-97556234D01*
X111010084Y-97587532D01*
X110987568Y-97614968D01*
X110960132Y-97637484D01*
X110928834Y-97654214D01*
X110894868Y-97664517D01*
X110853410Y-97668600D01*
X110177390Y-97668600D01*
X110135932Y-97664517D01*
X110101966Y-97654214D01*
X110070668Y-97637484D01*
X110043232Y-97614968D01*
X110020716Y-97587532D01*
X110003986Y-97556234D01*
X109993683Y-97522268D01*
X109989600Y-97480810D01*
X109989600Y-96879790D01*
X109993683Y-96838332D01*
X110003986Y-96804366D01*
X110020716Y-96773068D01*
X110043232Y-96745632D01*
X110070668Y-96723116D01*
X110101966Y-96706386D01*
X110135932Y-96696083D01*
X110177390Y-96692000D01*
X110853410Y-96692000D01*
X110894868Y-96696083D01*
X110894868Y-96696083D01*
G37*
G36*
X160127000Y-97664800D02*
X159205400Y-97664800D01*
X159205400Y-97153200D01*
X160127000Y-97153200D01*
X160127000Y-97664800D01*
X160127000Y-97664800D01*
G37*
G36*
X105371362Y-95750545D02*
X105459588Y-95759234D01*
X105543290Y-95784625D01*
X105629390Y-95810743D01*
X105767980Y-95884822D01*
X105785879Y-95894389D01*
X105805632Y-95910600D01*
X105923044Y-96006956D01*
X106005706Y-96107682D01*
X106035611Y-96144121D01*
X106038696Y-96149892D01*
X106119257Y-96300610D01*
X106119257Y-96300611D01*
X106170766Y-96470412D01*
X106188158Y-96647000D01*
X106170766Y-96823588D01*
X106153717Y-96879790D01*
X106119257Y-96993390D01*
X106045178Y-97131980D01*
X106035611Y-97149879D01*
X106030969Y-97155535D01*
X105923044Y-97287044D01*
X105821609Y-97370288D01*
X105785879Y-97399611D01*
X105785877Y-97399612D01*
X105629390Y-97483257D01*
X105572789Y-97500427D01*
X105459588Y-97534766D01*
X105371362Y-97543455D01*
X105327250Y-97547800D01*
X105238750Y-97547800D01*
X105194638Y-97543455D01*
X105106412Y-97534766D01*
X104993211Y-97500427D01*
X104936610Y-97483257D01*
X104780123Y-97399612D01*
X104780121Y-97399611D01*
X104744391Y-97370288D01*
X104642956Y-97287044D01*
X104535031Y-97155535D01*
X104530389Y-97149879D01*
X104520822Y-97131980D01*
X104446743Y-96993390D01*
X104412283Y-96879790D01*
X104395234Y-96823588D01*
X104377842Y-96647000D01*
X104395234Y-96470412D01*
X104446743Y-96300611D01*
X104446743Y-96300610D01*
X104527304Y-96149892D01*
X104530389Y-96144121D01*
X104560294Y-96107682D01*
X104642956Y-96006956D01*
X104760368Y-95910600D01*
X104780121Y-95894389D01*
X104798020Y-95884822D01*
X104936610Y-95810743D01*
X105022710Y-95784625D01*
X105106412Y-95759234D01*
X105194638Y-95750545D01*
X105238750Y-95746200D01*
X105327250Y-95746200D01*
X105371362Y-95750545D01*
X105371362Y-95750545D01*
G37*
G36*
X129233668Y-96188283D02*
X129267634Y-96198586D01*
X129298932Y-96215316D01*
X129326368Y-96237832D01*
X129348884Y-96265268D01*
X129365614Y-96296566D01*
X129375917Y-96330532D01*
X129380000Y-96371990D01*
X129380000Y-96973010D01*
X129375917Y-97014468D01*
X129365614Y-97048434D01*
X129348884Y-97079732D01*
X129326368Y-97107168D01*
X129298932Y-97129684D01*
X129267634Y-97146414D01*
X129233668Y-97156717D01*
X129192210Y-97160800D01*
X128516190Y-97160800D01*
X128474732Y-97156717D01*
X128440766Y-97146414D01*
X128409468Y-97129684D01*
X128382032Y-97107168D01*
X128359516Y-97079732D01*
X128342786Y-97048434D01*
X128332483Y-97014468D01*
X128328400Y-96973010D01*
X128328400Y-96371990D01*
X128332483Y-96330532D01*
X128342786Y-96296566D01*
X128359516Y-96265268D01*
X128382032Y-96237832D01*
X128409468Y-96215316D01*
X128440766Y-96198586D01*
X128474732Y-96188283D01*
X128516190Y-96184200D01*
X129192210Y-96184200D01*
X129233668Y-96188283D01*
X129233668Y-96188283D01*
G37*
G36*
X144817068Y-95210883D02*
X144851034Y-95221186D01*
X144882332Y-95237916D01*
X144909768Y-95260432D01*
X144932284Y-95287868D01*
X144949014Y-95319166D01*
X144959317Y-95353132D01*
X144963400Y-95394590D01*
X144963400Y-96070610D01*
X144959317Y-96112068D01*
X144949014Y-96146034D01*
X144932284Y-96177332D01*
X144909768Y-96204768D01*
X144882332Y-96227284D01*
X144851034Y-96244014D01*
X144817068Y-96254317D01*
X144775610Y-96258400D01*
X144174590Y-96258400D01*
X144133132Y-96254317D01*
X144099166Y-96244014D01*
X144067868Y-96227284D01*
X144040432Y-96204768D01*
X144017916Y-96177332D01*
X144001186Y-96146034D01*
X143990883Y-96112068D01*
X143986800Y-96070610D01*
X143986800Y-95394590D01*
X143990883Y-95353132D01*
X144001186Y-95319166D01*
X144017916Y-95287868D01*
X144040432Y-95260432D01*
X144067868Y-95237916D01*
X144099166Y-95221186D01*
X144133132Y-95210883D01*
X144174590Y-95206800D01*
X144775610Y-95206800D01*
X144817068Y-95210883D01*
X144817068Y-95210883D01*
G37*
G36*
X146392068Y-95210883D02*
X146426034Y-95221186D01*
X146457332Y-95237916D01*
X146484768Y-95260432D01*
X146507284Y-95287868D01*
X146524014Y-95319166D01*
X146534317Y-95353132D01*
X146538400Y-95394590D01*
X146538400Y-96070610D01*
X146534317Y-96112068D01*
X146524014Y-96146034D01*
X146507284Y-96177332D01*
X146484768Y-96204768D01*
X146457332Y-96227284D01*
X146426034Y-96244014D01*
X146392068Y-96254317D01*
X146350610Y-96258400D01*
X145749590Y-96258400D01*
X145708132Y-96254317D01*
X145674166Y-96244014D01*
X145642868Y-96227284D01*
X145615432Y-96204768D01*
X145592916Y-96177332D01*
X145576186Y-96146034D01*
X145565883Y-96112068D01*
X145561800Y-96070610D01*
X145561800Y-95394590D01*
X145565883Y-95353132D01*
X145576186Y-95319166D01*
X145592916Y-95287868D01*
X145615432Y-95260432D01*
X145642868Y-95237916D01*
X145674166Y-95221186D01*
X145708132Y-95210883D01*
X145749590Y-95206800D01*
X146350610Y-95206800D01*
X146392068Y-95210883D01*
X146392068Y-95210883D01*
G37*
G36*
X157950665Y-93116546D02*
X157987195Y-93127627D01*
X158020859Y-93145621D01*
X158050364Y-93169836D01*
X158074579Y-93199341D01*
X158092573Y-93233005D01*
X158103654Y-93269535D01*
X158108000Y-93313660D01*
X158108000Y-95662340D01*
X158103654Y-95706465D01*
X158092573Y-95742995D01*
X158074579Y-95776659D01*
X158050364Y-95806164D01*
X158020859Y-95830379D01*
X157987195Y-95848373D01*
X157950665Y-95859454D01*
X157906540Y-95863800D01*
X156957860Y-95863800D01*
X156913735Y-95859454D01*
X156877205Y-95848373D01*
X156843541Y-95830379D01*
X156814036Y-95806164D01*
X156789821Y-95776659D01*
X156771827Y-95742995D01*
X156760746Y-95706465D01*
X156756400Y-95662340D01*
X156756400Y-93313660D01*
X156760746Y-93269535D01*
X156771827Y-93233005D01*
X156789821Y-93199341D01*
X156814036Y-93169836D01*
X156843541Y-93145621D01*
X156877205Y-93127627D01*
X156913735Y-93116546D01*
X156957860Y-93112200D01*
X157906540Y-93112200D01*
X157950665Y-93116546D01*
X157950665Y-93116546D01*
G37*
G36*
X155150665Y-93116546D02*
X155187195Y-93127627D01*
X155220859Y-93145621D01*
X155250364Y-93169836D01*
X155274579Y-93199341D01*
X155292573Y-93233005D01*
X155303654Y-93269535D01*
X155308000Y-93313660D01*
X155308000Y-95662340D01*
X155303654Y-95706465D01*
X155292573Y-95742995D01*
X155274579Y-95776659D01*
X155250364Y-95806164D01*
X155220859Y-95830379D01*
X155187195Y-95848373D01*
X155150665Y-95859454D01*
X155106540Y-95863800D01*
X154157860Y-95863800D01*
X154113735Y-95859454D01*
X154077205Y-95848373D01*
X154043541Y-95830379D01*
X154014036Y-95806164D01*
X153989821Y-95776659D01*
X153971827Y-95742995D01*
X153960746Y-95706465D01*
X153956400Y-95662340D01*
X153956400Y-93313660D01*
X153960746Y-93269535D01*
X153971827Y-93233005D01*
X153989821Y-93199341D01*
X154014036Y-93169836D01*
X154043541Y-93145621D01*
X154077205Y-93127627D01*
X154113735Y-93116546D01*
X154157860Y-93112200D01*
X155106540Y-93112200D01*
X155150665Y-93116546D01*
X155150665Y-93116546D01*
G37*
G36*
X162738000Y-90757700D02*
X162740402Y-90782086D01*
X162747515Y-90805535D01*
X162759066Y-90827146D01*
X162774612Y-90846088D01*
X162793554Y-90861634D01*
X162815165Y-90873185D01*
X162838614Y-90880298D01*
X162863000Y-90882700D01*
X163448000Y-90882700D01*
X163448000Y-95045300D01*
X162863000Y-95045300D01*
X162838614Y-95047702D01*
X162815165Y-95054815D01*
X162793554Y-95066366D01*
X162774612Y-95081912D01*
X162759066Y-95100854D01*
X162747515Y-95122465D01*
X162740402Y-95145914D01*
X162738000Y-95170300D01*
X162738000Y-95640300D01*
X162026400Y-95640300D01*
X162026400Y-95170300D01*
X162023998Y-95145914D01*
X162016885Y-95122465D01*
X162005334Y-95100854D01*
X161989788Y-95081912D01*
X161970846Y-95066366D01*
X161949235Y-95054815D01*
X161925786Y-95047702D01*
X161901400Y-95045300D01*
X159943000Y-95045300D01*
X159918614Y-95047702D01*
X159895165Y-95054815D01*
X159873554Y-95066366D01*
X159854612Y-95081912D01*
X159839066Y-95100854D01*
X159827515Y-95122465D01*
X159820402Y-95145914D01*
X159818000Y-95170300D01*
X159818000Y-95514800D01*
X159206400Y-95514800D01*
X159206400Y-90413200D01*
X159818000Y-90413200D01*
X159818000Y-90757700D01*
X159820402Y-90782086D01*
X159827515Y-90805535D01*
X159839066Y-90827146D01*
X159854612Y-90846088D01*
X159873554Y-90861634D01*
X159895165Y-90873185D01*
X159918614Y-90880298D01*
X159943000Y-90882700D01*
X161901400Y-90882700D01*
X161925786Y-90880298D01*
X161949235Y-90873185D01*
X161970846Y-90861634D01*
X161989788Y-90846088D01*
X162005334Y-90827146D01*
X162016885Y-90805535D01*
X162023998Y-90782086D01*
X162026400Y-90757700D01*
X162026400Y-90287700D01*
X162738000Y-90287700D01*
X162738000Y-90757700D01*
X162738000Y-90757700D01*
G37*
G36*
X129233668Y-94613283D02*
X129267634Y-94623586D01*
X129298932Y-94640316D01*
X129326368Y-94662832D01*
X129348884Y-94690268D01*
X129365614Y-94721566D01*
X129375917Y-94755532D01*
X129380000Y-94796990D01*
X129380000Y-95398010D01*
X129375917Y-95439468D01*
X129365614Y-95473434D01*
X129348884Y-95504732D01*
X129326368Y-95532168D01*
X129298932Y-95554684D01*
X129267634Y-95571414D01*
X129233668Y-95581717D01*
X129192210Y-95585800D01*
X128516190Y-95585800D01*
X128474732Y-95581717D01*
X128440766Y-95571414D01*
X128409468Y-95554684D01*
X128382032Y-95532168D01*
X128359516Y-95504732D01*
X128342786Y-95473434D01*
X128332483Y-95439468D01*
X128328400Y-95398010D01*
X128328400Y-94796990D01*
X128332483Y-94755532D01*
X128342786Y-94721566D01*
X128359516Y-94690268D01*
X128382032Y-94662832D01*
X128409468Y-94640316D01*
X128440766Y-94623586D01*
X128474732Y-94613283D01*
X128516190Y-94609200D01*
X129192210Y-94609200D01*
X129233668Y-94613283D01*
X129233668Y-94613283D01*
G37*
G36*
X165559000Y-95124800D02*
X164637400Y-95124800D01*
X164637400Y-94613200D01*
X165559000Y-94613200D01*
X165559000Y-95124800D01*
X165559000Y-95124800D01*
G37*
G36*
X144817068Y-92975683D02*
X144851034Y-92985986D01*
X144882332Y-93002716D01*
X144909768Y-93025232D01*
X144932284Y-93052668D01*
X144949014Y-93083966D01*
X144959317Y-93117932D01*
X144963400Y-93159390D01*
X144963400Y-93835410D01*
X144959317Y-93876868D01*
X144949014Y-93910834D01*
X144932284Y-93942132D01*
X144909768Y-93969568D01*
X144882332Y-93992084D01*
X144851034Y-94008814D01*
X144817068Y-94019117D01*
X144775610Y-94023200D01*
X144174590Y-94023200D01*
X144133132Y-94019117D01*
X144099166Y-94008814D01*
X144067868Y-93992084D01*
X144040432Y-93969568D01*
X144017916Y-93942132D01*
X144001186Y-93910834D01*
X143990883Y-93876868D01*
X143986800Y-93835410D01*
X143986800Y-93159390D01*
X143990883Y-93117932D01*
X144001186Y-93083966D01*
X144017916Y-93052668D01*
X144040432Y-93025232D01*
X144067868Y-93002716D01*
X144099166Y-92985986D01*
X144133132Y-92975683D01*
X144174590Y-92971600D01*
X144775610Y-92971600D01*
X144817068Y-92975683D01*
X144817068Y-92975683D01*
G37*
G36*
X146392068Y-92975683D02*
X146426034Y-92985986D01*
X146457332Y-93002716D01*
X146484768Y-93025232D01*
X146507284Y-93052668D01*
X146524014Y-93083966D01*
X146534317Y-93117932D01*
X146538400Y-93159390D01*
X146538400Y-93835410D01*
X146534317Y-93876868D01*
X146524014Y-93910834D01*
X146507284Y-93942132D01*
X146484768Y-93969568D01*
X146457332Y-93992084D01*
X146426034Y-94008814D01*
X146392068Y-94019117D01*
X146350610Y-94023200D01*
X145749590Y-94023200D01*
X145708132Y-94019117D01*
X145674166Y-94008814D01*
X145642868Y-93992084D01*
X145615432Y-93969568D01*
X145592916Y-93942132D01*
X145576186Y-93910834D01*
X145565883Y-93876868D01*
X145561800Y-93835410D01*
X145561800Y-93159390D01*
X145565883Y-93117932D01*
X145576186Y-93083966D01*
X145592916Y-93052668D01*
X145615432Y-93025232D01*
X145642868Y-93002716D01*
X145674166Y-92985986D01*
X145708132Y-92975683D01*
X145749590Y-92971600D01*
X146350610Y-92971600D01*
X146392068Y-92975683D01*
X146392068Y-92975683D01*
G37*
G36*
X165559000Y-93854800D02*
X164637400Y-93854800D01*
X164637400Y-93343200D01*
X165559000Y-93343200D01*
X165559000Y-93854800D01*
X165559000Y-93854800D01*
G37*
G36*
X106678468Y-92378283D02*
X106712434Y-92388586D01*
X106743732Y-92405316D01*
X106771168Y-92427832D01*
X106793684Y-92455268D01*
X106810414Y-92486566D01*
X106820717Y-92520532D01*
X106824800Y-92561990D01*
X106824800Y-93163010D01*
X106820717Y-93204468D01*
X106810414Y-93238434D01*
X106793684Y-93269732D01*
X106771168Y-93297168D01*
X106743732Y-93319684D01*
X106712434Y-93336414D01*
X106678468Y-93346717D01*
X106637010Y-93350800D01*
X105960990Y-93350800D01*
X105919532Y-93346717D01*
X105885566Y-93336414D01*
X105854268Y-93319684D01*
X105826832Y-93297168D01*
X105804316Y-93269732D01*
X105787586Y-93238434D01*
X105777283Y-93204468D01*
X105773200Y-93163010D01*
X105773200Y-92561990D01*
X105777283Y-92520532D01*
X105787586Y-92486566D01*
X105804316Y-92455268D01*
X105826832Y-92427832D01*
X105854268Y-92405316D01*
X105885566Y-92388586D01*
X105919532Y-92378283D01*
X105960990Y-92374200D01*
X106637010Y-92374200D01*
X106678468Y-92378283D01*
X106678468Y-92378283D01*
G37*
G36*
X108202468Y-92378283D02*
X108236434Y-92388586D01*
X108267732Y-92405316D01*
X108295168Y-92427832D01*
X108317684Y-92455268D01*
X108334414Y-92486566D01*
X108344717Y-92520532D01*
X108348800Y-92561990D01*
X108348800Y-93163010D01*
X108344717Y-93204468D01*
X108334414Y-93238434D01*
X108317684Y-93269732D01*
X108295168Y-93297168D01*
X108267732Y-93319684D01*
X108236434Y-93336414D01*
X108202468Y-93346717D01*
X108161010Y-93350800D01*
X107484990Y-93350800D01*
X107443532Y-93346717D01*
X107409566Y-93336414D01*
X107378268Y-93319684D01*
X107350832Y-93297168D01*
X107328316Y-93269732D01*
X107311586Y-93238434D01*
X107301283Y-93204468D01*
X107297200Y-93163010D01*
X107297200Y-92561990D01*
X107301283Y-92520532D01*
X107311586Y-92486566D01*
X107328316Y-92455268D01*
X107350832Y-92427832D01*
X107378268Y-92405316D01*
X107409566Y-92388586D01*
X107443532Y-92378283D01*
X107484990Y-92374200D01*
X108161010Y-92374200D01*
X108202468Y-92378283D01*
X108202468Y-92378283D01*
G37*
G36*
X105154468Y-92378283D02*
X105188434Y-92388586D01*
X105219732Y-92405316D01*
X105247168Y-92427832D01*
X105269684Y-92455268D01*
X105286414Y-92486566D01*
X105296717Y-92520532D01*
X105300800Y-92561990D01*
X105300800Y-93163010D01*
X105296717Y-93204468D01*
X105286414Y-93238434D01*
X105269684Y-93269732D01*
X105247168Y-93297168D01*
X105219732Y-93319684D01*
X105188434Y-93336414D01*
X105154468Y-93346717D01*
X105113010Y-93350800D01*
X104436990Y-93350800D01*
X104395532Y-93346717D01*
X104361566Y-93336414D01*
X104330268Y-93319684D01*
X104302832Y-93297168D01*
X104280316Y-93269732D01*
X104263586Y-93238434D01*
X104253283Y-93204468D01*
X104249200Y-93163010D01*
X104249200Y-92561990D01*
X104253283Y-92520532D01*
X104263586Y-92486566D01*
X104280316Y-92455268D01*
X104302832Y-92427832D01*
X104330268Y-92405316D01*
X104361566Y-92388586D01*
X104395532Y-92378283D01*
X104436990Y-92374200D01*
X105113010Y-92374200D01*
X105154468Y-92378283D01*
X105154468Y-92378283D01*
G37*
G36*
X165559000Y-92584800D02*
X164637400Y-92584800D01*
X164637400Y-92073200D01*
X165559000Y-92073200D01*
X165559000Y-92584800D01*
X165559000Y-92584800D01*
G37*
G36*
X157950665Y-89814546D02*
X157987195Y-89825627D01*
X158020859Y-89843621D01*
X158050364Y-89867836D01*
X158074579Y-89897341D01*
X158092573Y-89931005D01*
X158103654Y-89967535D01*
X158108000Y-90011660D01*
X158108000Y-92360340D01*
X158103654Y-92404465D01*
X158092573Y-92440995D01*
X158074579Y-92474659D01*
X158050364Y-92504164D01*
X158020859Y-92528379D01*
X157987195Y-92546373D01*
X157950665Y-92557454D01*
X157906540Y-92561800D01*
X156957860Y-92561800D01*
X156913735Y-92557454D01*
X156877205Y-92546373D01*
X156843541Y-92528379D01*
X156814036Y-92504164D01*
X156789821Y-92474659D01*
X156771827Y-92440995D01*
X156760746Y-92404465D01*
X156756400Y-92360340D01*
X156756400Y-90011660D01*
X156760746Y-89967535D01*
X156771827Y-89931005D01*
X156789821Y-89897341D01*
X156814036Y-89867836D01*
X156843541Y-89843621D01*
X156877205Y-89825627D01*
X156913735Y-89814546D01*
X156957860Y-89810200D01*
X157906540Y-89810200D01*
X157950665Y-89814546D01*
X157950665Y-89814546D01*
G37*
G36*
X155150665Y-89814546D02*
X155187195Y-89825627D01*
X155220859Y-89843621D01*
X155250364Y-89867836D01*
X155274579Y-89897341D01*
X155292573Y-89931005D01*
X155303654Y-89967535D01*
X155308000Y-90011660D01*
X155308000Y-92360340D01*
X155303654Y-92404465D01*
X155292573Y-92440995D01*
X155274579Y-92474659D01*
X155250364Y-92504164D01*
X155220859Y-92528379D01*
X155187195Y-92546373D01*
X155150665Y-92557454D01*
X155106540Y-92561800D01*
X154157860Y-92561800D01*
X154113735Y-92557454D01*
X154077205Y-92546373D01*
X154043541Y-92528379D01*
X154014036Y-92504164D01*
X153989821Y-92474659D01*
X153971827Y-92440995D01*
X153960746Y-92404465D01*
X153956400Y-92360340D01*
X153956400Y-90011660D01*
X153960746Y-89967535D01*
X153971827Y-89931005D01*
X153989821Y-89897341D01*
X154014036Y-89867836D01*
X154043541Y-89843621D01*
X154077205Y-89825627D01*
X154113735Y-89814546D01*
X154157860Y-89810200D01*
X155106540Y-89810200D01*
X155150665Y-89814546D01*
X155150665Y-89814546D01*
G37*
G36*
X123722693Y-92238735D02*
X115871093Y-92238735D01*
X115871093Y-91137135D01*
X123722693Y-91137135D01*
X123722693Y-92238735D01*
X123722693Y-92238735D01*
G37*
G36*
X148106665Y-90873146D02*
X148143195Y-90884227D01*
X148176859Y-90902221D01*
X148206364Y-90926436D01*
X148230579Y-90955941D01*
X148248573Y-90989605D01*
X148259654Y-91026135D01*
X148264000Y-91070260D01*
X148264000Y-92018940D01*
X148259654Y-92063065D01*
X148248573Y-92099595D01*
X148230579Y-92133259D01*
X148206364Y-92162764D01*
X148176859Y-92186979D01*
X148143195Y-92204973D01*
X148106665Y-92216054D01*
X148062540Y-92220400D01*
X145713860Y-92220400D01*
X145669735Y-92216054D01*
X145633205Y-92204973D01*
X145599541Y-92186979D01*
X145570036Y-92162764D01*
X145545821Y-92133259D01*
X145527827Y-92099595D01*
X145516746Y-92063065D01*
X145512400Y-92018940D01*
X145512400Y-91070260D01*
X145516746Y-91026135D01*
X145527827Y-90989605D01*
X145545821Y-90955941D01*
X145570036Y-90926436D01*
X145599541Y-90902221D01*
X145633205Y-90884227D01*
X145669735Y-90873146D01*
X145713860Y-90868800D01*
X148062540Y-90868800D01*
X148106665Y-90873146D01*
X148106665Y-90873146D01*
G37*
G36*
X108202468Y-90803283D02*
X108236434Y-90813586D01*
X108267732Y-90830316D01*
X108295168Y-90852832D01*
X108317684Y-90880268D01*
X108334414Y-90911566D01*
X108344717Y-90945532D01*
X108348800Y-90986990D01*
X108348800Y-91588010D01*
X108344717Y-91629468D01*
X108334414Y-91663434D01*
X108317684Y-91694732D01*
X108295168Y-91722168D01*
X108267732Y-91744684D01*
X108236434Y-91761414D01*
X108202468Y-91771717D01*
X108161010Y-91775800D01*
X107484990Y-91775800D01*
X107443532Y-91771717D01*
X107409566Y-91761414D01*
X107378268Y-91744684D01*
X107350832Y-91722168D01*
X107328316Y-91694732D01*
X107311586Y-91663434D01*
X107301283Y-91629468D01*
X107297200Y-91588010D01*
X107297200Y-90986990D01*
X107301283Y-90945532D01*
X107311586Y-90911566D01*
X107328316Y-90880268D01*
X107350832Y-90852832D01*
X107378268Y-90830316D01*
X107409566Y-90813586D01*
X107443532Y-90803283D01*
X107484990Y-90799200D01*
X108161010Y-90799200D01*
X108202468Y-90803283D01*
X108202468Y-90803283D01*
G37*
G36*
X105154468Y-90803283D02*
X105188434Y-90813586D01*
X105219732Y-90830316D01*
X105247168Y-90852832D01*
X105269684Y-90880268D01*
X105286414Y-90911566D01*
X105296717Y-90945532D01*
X105300800Y-90986990D01*
X105300800Y-91588010D01*
X105296717Y-91629468D01*
X105286414Y-91663434D01*
X105269684Y-91694732D01*
X105247168Y-91722168D01*
X105219732Y-91744684D01*
X105188434Y-91761414D01*
X105154468Y-91771717D01*
X105113010Y-91775800D01*
X104436990Y-91775800D01*
X104395532Y-91771717D01*
X104361566Y-91761414D01*
X104330268Y-91744684D01*
X104302832Y-91722168D01*
X104280316Y-91694732D01*
X104263586Y-91663434D01*
X104253283Y-91629468D01*
X104249200Y-91588010D01*
X104249200Y-90986990D01*
X104253283Y-90945532D01*
X104263586Y-90911566D01*
X104280316Y-90880268D01*
X104302832Y-90852832D01*
X104330268Y-90830316D01*
X104361566Y-90813586D01*
X104395532Y-90803283D01*
X104436990Y-90799200D01*
X105113010Y-90799200D01*
X105154468Y-90803283D01*
X105154468Y-90803283D01*
G37*
G36*
X106678468Y-90803283D02*
X106712434Y-90813586D01*
X106743732Y-90830316D01*
X106771168Y-90852832D01*
X106793684Y-90880268D01*
X106810414Y-90911566D01*
X106820717Y-90945532D01*
X106824800Y-90986990D01*
X106824800Y-91588010D01*
X106820717Y-91629468D01*
X106810414Y-91663434D01*
X106793684Y-91694732D01*
X106771168Y-91722168D01*
X106743732Y-91744684D01*
X106712434Y-91761414D01*
X106678468Y-91771717D01*
X106637010Y-91775800D01*
X105960990Y-91775800D01*
X105919532Y-91771717D01*
X105885566Y-91761414D01*
X105854268Y-91744684D01*
X105826832Y-91722168D01*
X105804316Y-91694732D01*
X105787586Y-91663434D01*
X105777283Y-91629468D01*
X105773200Y-91588010D01*
X105773200Y-90986990D01*
X105777283Y-90945532D01*
X105787586Y-90911566D01*
X105804316Y-90880268D01*
X105826832Y-90852832D01*
X105854268Y-90830316D01*
X105885566Y-90813586D01*
X105919532Y-90803283D01*
X105960990Y-90799200D01*
X106637010Y-90799200D01*
X106678468Y-90803283D01*
X106678468Y-90803283D01*
G37*
G36*
X165559000Y-91314800D02*
X164637400Y-91314800D01*
X164637400Y-90803200D01*
X165559000Y-90803200D01*
X165559000Y-91314800D01*
X165559000Y-91314800D01*
G37*
G36*
X114794468Y-89572083D02*
X114828434Y-89582386D01*
X114859732Y-89599116D01*
X114887168Y-89621632D01*
X114909684Y-89649068D01*
X114926414Y-89680366D01*
X114936717Y-89714332D01*
X114940800Y-89755790D01*
X114940800Y-90431810D01*
X114936717Y-90473268D01*
X114926414Y-90507234D01*
X114909684Y-90538532D01*
X114887168Y-90565968D01*
X114859732Y-90588484D01*
X114828434Y-90605214D01*
X114794468Y-90615517D01*
X114753010Y-90619600D01*
X114151990Y-90619600D01*
X114110532Y-90615517D01*
X114076566Y-90605214D01*
X114045268Y-90588484D01*
X114017832Y-90565968D01*
X113995316Y-90538532D01*
X113978586Y-90507234D01*
X113968283Y-90473268D01*
X113964200Y-90431810D01*
X113964200Y-89755790D01*
X113968283Y-89714332D01*
X113978586Y-89680366D01*
X113995316Y-89649068D01*
X114017832Y-89621632D01*
X114045268Y-89599116D01*
X114076566Y-89582386D01*
X114110532Y-89572083D01*
X114151990Y-89568000D01*
X114753010Y-89568000D01*
X114794468Y-89572083D01*
X114794468Y-89572083D01*
G37*
G36*
X113219468Y-89572083D02*
X113253434Y-89582386D01*
X113284732Y-89599116D01*
X113312168Y-89621632D01*
X113334684Y-89649068D01*
X113351414Y-89680366D01*
X113361717Y-89714332D01*
X113365800Y-89755790D01*
X113365800Y-90431810D01*
X113361717Y-90473268D01*
X113351414Y-90507234D01*
X113334684Y-90538532D01*
X113312168Y-90565968D01*
X113284732Y-90588484D01*
X113253434Y-90605214D01*
X113219468Y-90615517D01*
X113178010Y-90619600D01*
X112576990Y-90619600D01*
X112535532Y-90615517D01*
X112501566Y-90605214D01*
X112470268Y-90588484D01*
X112442832Y-90565968D01*
X112420316Y-90538532D01*
X112403586Y-90507234D01*
X112393283Y-90473268D01*
X112389200Y-90431810D01*
X112389200Y-89755790D01*
X112393283Y-89714332D01*
X112403586Y-89680366D01*
X112420316Y-89649068D01*
X112442832Y-89621632D01*
X112470268Y-89599116D01*
X112501566Y-89582386D01*
X112535532Y-89572083D01*
X112576990Y-89568000D01*
X113178010Y-89568000D01*
X113219468Y-89572083D01*
X113219468Y-89572083D01*
G37*
G36*
X141443800Y-89656200D02*
X140242200Y-89656200D01*
X140242200Y-88454600D01*
X141443800Y-88454600D01*
X141443800Y-89656200D01*
X141443800Y-89656200D01*
G37*
G36*
X148106665Y-88073146D02*
X148143195Y-88084227D01*
X148176859Y-88102221D01*
X148206364Y-88126436D01*
X148230579Y-88155941D01*
X148248573Y-88189605D01*
X148259654Y-88226135D01*
X148264000Y-88270260D01*
X148264000Y-89218940D01*
X148259654Y-89263065D01*
X148248573Y-89299595D01*
X148230579Y-89333259D01*
X148206364Y-89362764D01*
X148176859Y-89386979D01*
X148143195Y-89404973D01*
X148106665Y-89416054D01*
X148062540Y-89420400D01*
X145713860Y-89420400D01*
X145669735Y-89416054D01*
X145633205Y-89404973D01*
X145599541Y-89386979D01*
X145570036Y-89362764D01*
X145545821Y-89333259D01*
X145527827Y-89299595D01*
X145516746Y-89263065D01*
X145512400Y-89218940D01*
X145512400Y-88270260D01*
X145516746Y-88226135D01*
X145527827Y-88189605D01*
X145545821Y-88155941D01*
X145570036Y-88126436D01*
X145599541Y-88102221D01*
X145633205Y-88084227D01*
X145669735Y-88073146D01*
X145713860Y-88068800D01*
X148062540Y-88068800D01*
X148106665Y-88073146D01*
X148106665Y-88073146D01*
G37*
G36*
X139051800Y-89371000D02*
X130950200Y-89371000D01*
X130950200Y-86569400D01*
X139051800Y-86569400D01*
X139051800Y-89371000D01*
X139051800Y-89371000D01*
G37*
G36*
X144766468Y-88149683D02*
X144800434Y-88159986D01*
X144831732Y-88176716D01*
X144859168Y-88199232D01*
X144881684Y-88226668D01*
X144898414Y-88257966D01*
X144908717Y-88291932D01*
X144912800Y-88333390D01*
X144912800Y-89009410D01*
X144908717Y-89050868D01*
X144898414Y-89084834D01*
X144881684Y-89116132D01*
X144859168Y-89143568D01*
X144831732Y-89166084D01*
X144800434Y-89182814D01*
X144766468Y-89193117D01*
X144725010Y-89197200D01*
X144123990Y-89197200D01*
X144082532Y-89193117D01*
X144048566Y-89182814D01*
X144017268Y-89166084D01*
X143989832Y-89143568D01*
X143967316Y-89116132D01*
X143950586Y-89084834D01*
X143940283Y-89050868D01*
X143936200Y-89009410D01*
X143936200Y-88333390D01*
X143940283Y-88291932D01*
X143950586Y-88257966D01*
X143967316Y-88226668D01*
X143989832Y-88199232D01*
X144017268Y-88176716D01*
X144048566Y-88159986D01*
X144082532Y-88149683D01*
X144123990Y-88145600D01*
X144725010Y-88145600D01*
X144766468Y-88149683D01*
X144766468Y-88149683D01*
G37*
G36*
X143191468Y-88149683D02*
X143225434Y-88159986D01*
X143256732Y-88176716D01*
X143284168Y-88199232D01*
X143306684Y-88226668D01*
X143323414Y-88257966D01*
X143333717Y-88291932D01*
X143337800Y-88333390D01*
X143337800Y-89009410D01*
X143333717Y-89050868D01*
X143323414Y-89084834D01*
X143306684Y-89116132D01*
X143284168Y-89143568D01*
X143256732Y-89166084D01*
X143225434Y-89182814D01*
X143191468Y-89193117D01*
X143150010Y-89197200D01*
X142548990Y-89197200D01*
X142507532Y-89193117D01*
X142473566Y-89182814D01*
X142442268Y-89166084D01*
X142414832Y-89143568D01*
X142392316Y-89116132D01*
X142375586Y-89084834D01*
X142365283Y-89050868D01*
X142361200Y-89009410D01*
X142361200Y-88333390D01*
X142365283Y-88291932D01*
X142375586Y-88257966D01*
X142392316Y-88226668D01*
X142414832Y-88199232D01*
X142442268Y-88176716D01*
X142473566Y-88159986D01*
X142507532Y-88149683D01*
X142548990Y-88145600D01*
X143150010Y-88145600D01*
X143191468Y-88149683D01*
X143191468Y-88149683D01*
G37*
G36*
X154240468Y-87870283D02*
X154274434Y-87880586D01*
X154305732Y-87897316D01*
X154333168Y-87919832D01*
X154355684Y-87947268D01*
X154372414Y-87978566D01*
X154382717Y-88012532D01*
X154386800Y-88053990D01*
X154386800Y-88730010D01*
X154382717Y-88771468D01*
X154372414Y-88805434D01*
X154355684Y-88836732D01*
X154333168Y-88864168D01*
X154305732Y-88886684D01*
X154274434Y-88903414D01*
X154240468Y-88913717D01*
X154199010Y-88917800D01*
X153597990Y-88917800D01*
X153556532Y-88913717D01*
X153522566Y-88903414D01*
X153491268Y-88886684D01*
X153463832Y-88864168D01*
X153441316Y-88836732D01*
X153424586Y-88805434D01*
X153414283Y-88771468D01*
X153410200Y-88730010D01*
X153410200Y-88053990D01*
X153414283Y-88012532D01*
X153424586Y-87978566D01*
X153441316Y-87947268D01*
X153463832Y-87919832D01*
X153491268Y-87897316D01*
X153522566Y-87880586D01*
X153556532Y-87870283D01*
X153597990Y-87866200D01*
X154199010Y-87866200D01*
X154240468Y-87870283D01*
X154240468Y-87870283D01*
G37*
G36*
X155815468Y-87870283D02*
X155849434Y-87880586D01*
X155880732Y-87897316D01*
X155908168Y-87919832D01*
X155930684Y-87947268D01*
X155947414Y-87978566D01*
X155957717Y-88012532D01*
X155961800Y-88053990D01*
X155961800Y-88730010D01*
X155957717Y-88771468D01*
X155947414Y-88805434D01*
X155930684Y-88836732D01*
X155908168Y-88864168D01*
X155880732Y-88886684D01*
X155849434Y-88903414D01*
X155815468Y-88913717D01*
X155774010Y-88917800D01*
X155172990Y-88917800D01*
X155131532Y-88913717D01*
X155097566Y-88903414D01*
X155066268Y-88886684D01*
X155038832Y-88864168D01*
X155016316Y-88836732D01*
X154999586Y-88805434D01*
X154989283Y-88771468D01*
X154985200Y-88730010D01*
X154985200Y-88053990D01*
X154989283Y-88012532D01*
X154999586Y-87978566D01*
X155016316Y-87947268D01*
X155038832Y-87919832D01*
X155066268Y-87897316D01*
X155097566Y-87880586D01*
X155131532Y-87870283D01*
X155172990Y-87866200D01*
X155774010Y-87866200D01*
X155815468Y-87870283D01*
X155815468Y-87870283D01*
G37*
G36*
X154240468Y-86092283D02*
X154274434Y-86102586D01*
X154305732Y-86119316D01*
X154333168Y-86141832D01*
X154355684Y-86169268D01*
X154372414Y-86200566D01*
X154382717Y-86234532D01*
X154386800Y-86275990D01*
X154386800Y-86952010D01*
X154382717Y-86993468D01*
X154372414Y-87027434D01*
X154355684Y-87058732D01*
X154333168Y-87086168D01*
X154305732Y-87108684D01*
X154274434Y-87125414D01*
X154240468Y-87135717D01*
X154199010Y-87139800D01*
X153597990Y-87139800D01*
X153556532Y-87135717D01*
X153522566Y-87125414D01*
X153491268Y-87108684D01*
X153463832Y-87086168D01*
X153441316Y-87058732D01*
X153424586Y-87027434D01*
X153414283Y-86993468D01*
X153410200Y-86952010D01*
X153410200Y-86275990D01*
X153414283Y-86234532D01*
X153424586Y-86200566D01*
X153441316Y-86169268D01*
X153463832Y-86141832D01*
X153491268Y-86119316D01*
X153522566Y-86102586D01*
X153556532Y-86092283D01*
X153597990Y-86088200D01*
X154199010Y-86088200D01*
X154240468Y-86092283D01*
X154240468Y-86092283D01*
G37*
G36*
X155815468Y-86092283D02*
X155849434Y-86102586D01*
X155880732Y-86119316D01*
X155908168Y-86141832D01*
X155930684Y-86169268D01*
X155947414Y-86200566D01*
X155957717Y-86234532D01*
X155961800Y-86275990D01*
X155961800Y-86952010D01*
X155957717Y-86993468D01*
X155947414Y-87027434D01*
X155930684Y-87058732D01*
X155908168Y-87086168D01*
X155880732Y-87108684D01*
X155849434Y-87125414D01*
X155815468Y-87135717D01*
X155774010Y-87139800D01*
X155172990Y-87139800D01*
X155131532Y-87135717D01*
X155097566Y-87125414D01*
X155066268Y-87108684D01*
X155038832Y-87086168D01*
X155016316Y-87058732D01*
X154999586Y-87027434D01*
X154989283Y-86993468D01*
X154985200Y-86952010D01*
X154985200Y-86275990D01*
X154989283Y-86234532D01*
X154999586Y-86200566D01*
X155016316Y-86169268D01*
X155038832Y-86141832D01*
X155066268Y-86119316D01*
X155097566Y-86102586D01*
X155131532Y-86092283D01*
X155172990Y-86088200D01*
X155774010Y-86088200D01*
X155815468Y-86092283D01*
X155815468Y-86092283D01*
G37*
G36*
X105244362Y-85336545D02*
X105332588Y-85345234D01*
X105445789Y-85379573D01*
X105502390Y-85396743D01*
X105640980Y-85470822D01*
X105658879Y-85480389D01*
X105694609Y-85509712D01*
X105796044Y-85592956D01*
X105873987Y-85687932D01*
X105908611Y-85730121D01*
X105908612Y-85730123D01*
X105992257Y-85886610D01*
X105992257Y-85886611D01*
X106043766Y-86056412D01*
X106061158Y-86233000D01*
X106043766Y-86409588D01*
X106019947Y-86488109D01*
X105992257Y-86579390D01*
X105918178Y-86717980D01*
X105908611Y-86735879D01*
X105896776Y-86750300D01*
X105796044Y-86873044D01*
X105710458Y-86943281D01*
X105658879Y-86985611D01*
X105658877Y-86985612D01*
X105502390Y-87069257D01*
X105446641Y-87086168D01*
X105332588Y-87120766D01*
X105244362Y-87129455D01*
X105200250Y-87133800D01*
X105111750Y-87133800D01*
X105067638Y-87129455D01*
X104979412Y-87120766D01*
X104865359Y-87086168D01*
X104809610Y-87069257D01*
X104653123Y-86985612D01*
X104653121Y-86985611D01*
X104601542Y-86943281D01*
X104515956Y-86873044D01*
X104415224Y-86750300D01*
X104403389Y-86735879D01*
X104393822Y-86717980D01*
X104319743Y-86579390D01*
X104292053Y-86488109D01*
X104268234Y-86409588D01*
X104250842Y-86233000D01*
X104268234Y-86056412D01*
X104319743Y-85886611D01*
X104319743Y-85886610D01*
X104403388Y-85730123D01*
X104403389Y-85730121D01*
X104438013Y-85687932D01*
X104515956Y-85592956D01*
X104617391Y-85509712D01*
X104653121Y-85480389D01*
X104671020Y-85470822D01*
X104809610Y-85396743D01*
X104866211Y-85379573D01*
X104979412Y-85345234D01*
X105067638Y-85336545D01*
X105111750Y-85332200D01*
X105200250Y-85332200D01*
X105244362Y-85336545D01*
X105244362Y-85336545D01*
G37*
G36*
X141443800Y-86856200D02*
X140242200Y-86856200D01*
X140242200Y-85654600D01*
X141443800Y-85654600D01*
X141443800Y-86856200D01*
X141443800Y-86856200D01*
G37*
G36*
X162738000Y-81867700D02*
X162740402Y-81892086D01*
X162747515Y-81915535D01*
X162759066Y-81937146D01*
X162774612Y-81956088D01*
X162793554Y-81971634D01*
X162815165Y-81983185D01*
X162838614Y-81990298D01*
X162863000Y-81992700D01*
X164821400Y-81992700D01*
X164845786Y-81990298D01*
X164869235Y-81983185D01*
X164890846Y-81971634D01*
X164909788Y-81956088D01*
X164925334Y-81937146D01*
X164936885Y-81915535D01*
X164943998Y-81892086D01*
X164946400Y-81867700D01*
X164946400Y-81523200D01*
X165558000Y-81523200D01*
X165558000Y-86624800D01*
X164946400Y-86624800D01*
X164946400Y-86280300D01*
X164943998Y-86255914D01*
X164936885Y-86232465D01*
X164925334Y-86210854D01*
X164909788Y-86191912D01*
X164890846Y-86176366D01*
X164869235Y-86164815D01*
X164845786Y-86157702D01*
X164821400Y-86155300D01*
X162863000Y-86155300D01*
X162838614Y-86157702D01*
X162815165Y-86164815D01*
X162793554Y-86176366D01*
X162774612Y-86191912D01*
X162759066Y-86210854D01*
X162747515Y-86232465D01*
X162740402Y-86255914D01*
X162738000Y-86280300D01*
X162738000Y-86750300D01*
X162026400Y-86750300D01*
X162026400Y-86280300D01*
X162023998Y-86255914D01*
X162016885Y-86232465D01*
X162005334Y-86210854D01*
X161989788Y-86191912D01*
X161970846Y-86176366D01*
X161949235Y-86164815D01*
X161925786Y-86157702D01*
X161901400Y-86155300D01*
X161316400Y-86155300D01*
X161316400Y-81992700D01*
X161901400Y-81992700D01*
X161925786Y-81990298D01*
X161949235Y-81983185D01*
X161970846Y-81971634D01*
X161989788Y-81956088D01*
X162005334Y-81937146D01*
X162016885Y-81915535D01*
X162023998Y-81892086D01*
X162026400Y-81867700D01*
X162026400Y-81397700D01*
X162738000Y-81397700D01*
X162738000Y-81867700D01*
X162738000Y-81867700D01*
G37*
G36*
X123620268Y-85545683D02*
X123654234Y-85555986D01*
X123685532Y-85572716D01*
X123712968Y-85595232D01*
X123735484Y-85622668D01*
X123752214Y-85653966D01*
X123762517Y-85687932D01*
X123766600Y-85729390D01*
X123766600Y-86330410D01*
X123762517Y-86371868D01*
X123752214Y-86405834D01*
X123735484Y-86437132D01*
X123712968Y-86464568D01*
X123685532Y-86487084D01*
X123654234Y-86503814D01*
X123620268Y-86514117D01*
X123578810Y-86518200D01*
X122902790Y-86518200D01*
X122861332Y-86514117D01*
X122827366Y-86503814D01*
X122796068Y-86487084D01*
X122768632Y-86464568D01*
X122746116Y-86437132D01*
X122729386Y-86405834D01*
X122719083Y-86371868D01*
X122715000Y-86330410D01*
X122715000Y-85729390D01*
X122719083Y-85687932D01*
X122729386Y-85653966D01*
X122746116Y-85622668D01*
X122768632Y-85595232D01*
X122796068Y-85572716D01*
X122827366Y-85555986D01*
X122861332Y-85545683D01*
X122902790Y-85541600D01*
X123578810Y-85541600D01*
X123620268Y-85545683D01*
X123620268Y-85545683D01*
G37*
G36*
X125118868Y-85545683D02*
X125152834Y-85555986D01*
X125184132Y-85572716D01*
X125211568Y-85595232D01*
X125234084Y-85622668D01*
X125250814Y-85653966D01*
X125261117Y-85687932D01*
X125265200Y-85729390D01*
X125265200Y-86330410D01*
X125261117Y-86371868D01*
X125250814Y-86405834D01*
X125234084Y-86437132D01*
X125211568Y-86464568D01*
X125184132Y-86487084D01*
X125152834Y-86503814D01*
X125118868Y-86514117D01*
X125077410Y-86518200D01*
X124401390Y-86518200D01*
X124359932Y-86514117D01*
X124325966Y-86503814D01*
X124294668Y-86487084D01*
X124267232Y-86464568D01*
X124244716Y-86437132D01*
X124227986Y-86405834D01*
X124217683Y-86371868D01*
X124213600Y-86330410D01*
X124213600Y-85729390D01*
X124217683Y-85687932D01*
X124227986Y-85653966D01*
X124244716Y-85622668D01*
X124267232Y-85595232D01*
X124294668Y-85572716D01*
X124325966Y-85555986D01*
X124359932Y-85545683D01*
X124401390Y-85541600D01*
X125077410Y-85541600D01*
X125118868Y-85545683D01*
X125118868Y-85545683D01*
G37*
G36*
X126617468Y-85545683D02*
X126651434Y-85555986D01*
X126682732Y-85572716D01*
X126710168Y-85595232D01*
X126732684Y-85622668D01*
X126749414Y-85653966D01*
X126759717Y-85687932D01*
X126763800Y-85729390D01*
X126763800Y-86330410D01*
X126759717Y-86371868D01*
X126749414Y-86405834D01*
X126732684Y-86437132D01*
X126710168Y-86464568D01*
X126682732Y-86487084D01*
X126651434Y-86503814D01*
X126617468Y-86514117D01*
X126576010Y-86518200D01*
X125899990Y-86518200D01*
X125858532Y-86514117D01*
X125824566Y-86503814D01*
X125793268Y-86487084D01*
X125765832Y-86464568D01*
X125743316Y-86437132D01*
X125726586Y-86405834D01*
X125716283Y-86371868D01*
X125712200Y-86330410D01*
X125712200Y-85729390D01*
X125716283Y-85687932D01*
X125726586Y-85653966D01*
X125743316Y-85622668D01*
X125765832Y-85595232D01*
X125793268Y-85572716D01*
X125824566Y-85555986D01*
X125858532Y-85545683D01*
X125899990Y-85541600D01*
X126576010Y-85541600D01*
X126617468Y-85545683D01*
X126617468Y-85545683D01*
G37*
G36*
X128141468Y-85520283D02*
X128175434Y-85530586D01*
X128206732Y-85547316D01*
X128234168Y-85569832D01*
X128256684Y-85597268D01*
X128273414Y-85628566D01*
X128283717Y-85662532D01*
X128287800Y-85703990D01*
X128287800Y-86305010D01*
X128283717Y-86346468D01*
X128273414Y-86380434D01*
X128256684Y-86411732D01*
X128234168Y-86439168D01*
X128206732Y-86461684D01*
X128175434Y-86478414D01*
X128141468Y-86488717D01*
X128100010Y-86492800D01*
X127423990Y-86492800D01*
X127382532Y-86488717D01*
X127348566Y-86478414D01*
X127317268Y-86461684D01*
X127289832Y-86439168D01*
X127267316Y-86411732D01*
X127250586Y-86380434D01*
X127240283Y-86346468D01*
X127236200Y-86305010D01*
X127236200Y-85703990D01*
X127240283Y-85662532D01*
X127250586Y-85628566D01*
X127267316Y-85597268D01*
X127289832Y-85569832D01*
X127317268Y-85547316D01*
X127348566Y-85530586D01*
X127382532Y-85520283D01*
X127423990Y-85516200D01*
X128100010Y-85516200D01*
X128141468Y-85520283D01*
X128141468Y-85520283D01*
G37*
G36*
X129640068Y-85520283D02*
X129674034Y-85530586D01*
X129705332Y-85547316D01*
X129732768Y-85569832D01*
X129755284Y-85597268D01*
X129772014Y-85628566D01*
X129782317Y-85662532D01*
X129786400Y-85703990D01*
X129786400Y-86305010D01*
X129782317Y-86346468D01*
X129772014Y-86380434D01*
X129755284Y-86411732D01*
X129732768Y-86439168D01*
X129705332Y-86461684D01*
X129674034Y-86478414D01*
X129640068Y-86488717D01*
X129598610Y-86492800D01*
X128922590Y-86492800D01*
X128881132Y-86488717D01*
X128847166Y-86478414D01*
X128815868Y-86461684D01*
X128788432Y-86439168D01*
X128765916Y-86411732D01*
X128749186Y-86380434D01*
X128738883Y-86346468D01*
X128734800Y-86305010D01*
X128734800Y-85703990D01*
X128738883Y-85662532D01*
X128749186Y-85628566D01*
X128765916Y-85597268D01*
X128788432Y-85569832D01*
X128815868Y-85547316D01*
X128847166Y-85530586D01*
X128881132Y-85520283D01*
X128922590Y-85516200D01*
X129598610Y-85516200D01*
X129640068Y-85520283D01*
X129640068Y-85520283D01*
G37*
G36*
X109112800Y-86431800D02*
X107261200Y-86431800D01*
X107261200Y-85780200D01*
X109112800Y-85780200D01*
X109112800Y-86431800D01*
X109112800Y-86431800D01*
G37*
G36*
X116512800Y-86431800D02*
X114661200Y-86431800D01*
X114661200Y-85780200D01*
X116512800Y-85780200D01*
X116512800Y-86431800D01*
X116512800Y-86431800D01*
G37*
G36*
X147357200Y-86384200D02*
X145555600Y-86384200D01*
X145555600Y-83782600D01*
X147357200Y-83782600D01*
X147357200Y-86384200D01*
X147357200Y-86384200D01*
G37*
G36*
X160127000Y-86234800D02*
X159205400Y-86234800D01*
X159205400Y-85723200D01*
X160127000Y-85723200D01*
X160127000Y-86234800D01*
X160127000Y-86234800D01*
G37*
G36*
X157964859Y-81717446D02*
X158000411Y-81728230D01*
X158033172Y-81745742D01*
X158061890Y-81769310D01*
X158085458Y-81798028D01*
X158102970Y-81830789D01*
X158113754Y-81866341D01*
X158118000Y-81909451D01*
X158118000Y-84968549D01*
X158113754Y-85011659D01*
X158102970Y-85047211D01*
X158085458Y-85079972D01*
X158061890Y-85108690D01*
X158033172Y-85132258D01*
X158000411Y-85149770D01*
X157964859Y-85160554D01*
X157921749Y-85164800D01*
X156862651Y-85164800D01*
X156819541Y-85160554D01*
X156783989Y-85149770D01*
X156751228Y-85132258D01*
X156722510Y-85108690D01*
X156698942Y-85079972D01*
X156681430Y-85047211D01*
X156670646Y-85011659D01*
X156666400Y-84968549D01*
X156666400Y-81909451D01*
X156670646Y-81866341D01*
X156681430Y-81830789D01*
X156698942Y-81798028D01*
X156722510Y-81769310D01*
X156751228Y-81745742D01*
X156783989Y-81728230D01*
X156819541Y-81717446D01*
X156862651Y-81713200D01*
X157921749Y-81713200D01*
X157964859Y-81717446D01*
X157964859Y-81717446D01*
G37*
G36*
X152164859Y-81717446D02*
X152200411Y-81728230D01*
X152233172Y-81745742D01*
X152261890Y-81769310D01*
X152285458Y-81798028D01*
X152302970Y-81830789D01*
X152313754Y-81866341D01*
X152318000Y-81909451D01*
X152318000Y-84968549D01*
X152313754Y-85011659D01*
X152302970Y-85047211D01*
X152285458Y-85079972D01*
X152261890Y-85108690D01*
X152233172Y-85132258D01*
X152200411Y-85149770D01*
X152164859Y-85160554D01*
X152121749Y-85164800D01*
X151062651Y-85164800D01*
X151019541Y-85160554D01*
X150983989Y-85149770D01*
X150951228Y-85132258D01*
X150922510Y-85108690D01*
X150898942Y-85079972D01*
X150881430Y-85047211D01*
X150870646Y-85011659D01*
X150866400Y-84968549D01*
X150866400Y-81909451D01*
X150870646Y-81866341D01*
X150881430Y-81830789D01*
X150898942Y-81798028D01*
X150922510Y-81769310D01*
X150951228Y-81745742D01*
X150983989Y-81728230D01*
X151019541Y-81717446D01*
X151062651Y-81713200D01*
X152121749Y-81713200D01*
X152164859Y-81717446D01*
X152164859Y-81717446D01*
G37*
G36*
X109112800Y-85161800D02*
X107261200Y-85161800D01*
X107261200Y-84510200D01*
X109112800Y-84510200D01*
X109112800Y-85161800D01*
X109112800Y-85161800D01*
G37*
G36*
X116512800Y-85161800D02*
X114661200Y-85161800D01*
X114661200Y-84510200D01*
X116512800Y-84510200D01*
X116512800Y-85161800D01*
X116512800Y-85161800D01*
G37*
G36*
X160127000Y-84964800D02*
X159205400Y-84964800D01*
X159205400Y-84453200D01*
X160127000Y-84453200D01*
X160127000Y-84964800D01*
X160127000Y-84964800D01*
G37*
G36*
X123620268Y-83970683D02*
X123654234Y-83980986D01*
X123685532Y-83997716D01*
X123712968Y-84020232D01*
X123735484Y-84047668D01*
X123752214Y-84078966D01*
X123762517Y-84112932D01*
X123766600Y-84154390D01*
X123766600Y-84755410D01*
X123762517Y-84796868D01*
X123752214Y-84830834D01*
X123735484Y-84862132D01*
X123712968Y-84889568D01*
X123685532Y-84912084D01*
X123654234Y-84928814D01*
X123620268Y-84939117D01*
X123578810Y-84943200D01*
X122902790Y-84943200D01*
X122861332Y-84939117D01*
X122827366Y-84928814D01*
X122796068Y-84912084D01*
X122768632Y-84889568D01*
X122746116Y-84862132D01*
X122729386Y-84830834D01*
X122719083Y-84796868D01*
X122715000Y-84755410D01*
X122715000Y-84154390D01*
X122719083Y-84112932D01*
X122729386Y-84078966D01*
X122746116Y-84047668D01*
X122768632Y-84020232D01*
X122796068Y-83997716D01*
X122827366Y-83980986D01*
X122861332Y-83970683D01*
X122902790Y-83966600D01*
X123578810Y-83966600D01*
X123620268Y-83970683D01*
X123620268Y-83970683D01*
G37*
G36*
X126617468Y-83970683D02*
X126651434Y-83980986D01*
X126682732Y-83997716D01*
X126710168Y-84020232D01*
X126732684Y-84047668D01*
X126749414Y-84078966D01*
X126759717Y-84112932D01*
X126763800Y-84154390D01*
X126763800Y-84755410D01*
X126759717Y-84796868D01*
X126749414Y-84830834D01*
X126732684Y-84862132D01*
X126710168Y-84889568D01*
X126682732Y-84912084D01*
X126651434Y-84928814D01*
X126617468Y-84939117D01*
X126576010Y-84943200D01*
X125899990Y-84943200D01*
X125858532Y-84939117D01*
X125824566Y-84928814D01*
X125793268Y-84912084D01*
X125765832Y-84889568D01*
X125743316Y-84862132D01*
X125726586Y-84830834D01*
X125716283Y-84796868D01*
X125712200Y-84755410D01*
X125712200Y-84154390D01*
X125716283Y-84112932D01*
X125726586Y-84078966D01*
X125743316Y-84047668D01*
X125765832Y-84020232D01*
X125793268Y-83997716D01*
X125824566Y-83980986D01*
X125858532Y-83970683D01*
X125899990Y-83966600D01*
X126576010Y-83966600D01*
X126617468Y-83970683D01*
X126617468Y-83970683D01*
G37*
G36*
X125118868Y-83970683D02*
X125152834Y-83980986D01*
X125184132Y-83997716D01*
X125211568Y-84020232D01*
X125234084Y-84047668D01*
X125250814Y-84078966D01*
X125261117Y-84112932D01*
X125265200Y-84154390D01*
X125265200Y-84755410D01*
X125261117Y-84796868D01*
X125250814Y-84830834D01*
X125234084Y-84862132D01*
X125211568Y-84889568D01*
X125184132Y-84912084D01*
X125152834Y-84928814D01*
X125118868Y-84939117D01*
X125077410Y-84943200D01*
X124401390Y-84943200D01*
X124359932Y-84939117D01*
X124325966Y-84928814D01*
X124294668Y-84912084D01*
X124267232Y-84889568D01*
X124244716Y-84862132D01*
X124227986Y-84830834D01*
X124217683Y-84796868D01*
X124213600Y-84755410D01*
X124213600Y-84154390D01*
X124217683Y-84112932D01*
X124227986Y-84078966D01*
X124244716Y-84047668D01*
X124267232Y-84020232D01*
X124294668Y-83997716D01*
X124325966Y-83980986D01*
X124359932Y-83970683D01*
X124401390Y-83966600D01*
X125077410Y-83966600D01*
X125118868Y-83970683D01*
X125118868Y-83970683D01*
G37*
G36*
X128141468Y-83945283D02*
X128175434Y-83955586D01*
X128206732Y-83972316D01*
X128234168Y-83994832D01*
X128256684Y-84022268D01*
X128273414Y-84053566D01*
X128283717Y-84087532D01*
X128287800Y-84128990D01*
X128287800Y-84730010D01*
X128283717Y-84771468D01*
X128273414Y-84805434D01*
X128256684Y-84836732D01*
X128234168Y-84864168D01*
X128206732Y-84886684D01*
X128175434Y-84903414D01*
X128141468Y-84913717D01*
X128100010Y-84917800D01*
X127423990Y-84917800D01*
X127382532Y-84913717D01*
X127348566Y-84903414D01*
X127317268Y-84886684D01*
X127289832Y-84864168D01*
X127267316Y-84836732D01*
X127250586Y-84805434D01*
X127240283Y-84771468D01*
X127236200Y-84730010D01*
X127236200Y-84128990D01*
X127240283Y-84087532D01*
X127250586Y-84053566D01*
X127267316Y-84022268D01*
X127289832Y-83994832D01*
X127317268Y-83972316D01*
X127348566Y-83955586D01*
X127382532Y-83945283D01*
X127423990Y-83941200D01*
X128100010Y-83941200D01*
X128141468Y-83945283D01*
X128141468Y-83945283D01*
G37*
G36*
X129640068Y-83945283D02*
X129674034Y-83955586D01*
X129705332Y-83972316D01*
X129732768Y-83994832D01*
X129755284Y-84022268D01*
X129772014Y-84053566D01*
X129782317Y-84087532D01*
X129786400Y-84128990D01*
X129786400Y-84730010D01*
X129782317Y-84771468D01*
X129772014Y-84805434D01*
X129755284Y-84836732D01*
X129732768Y-84864168D01*
X129705332Y-84886684D01*
X129674034Y-84903414D01*
X129640068Y-84913717D01*
X129598610Y-84917800D01*
X128922590Y-84917800D01*
X128881132Y-84913717D01*
X128847166Y-84903414D01*
X128815868Y-84886684D01*
X128788432Y-84864168D01*
X128765916Y-84836732D01*
X128749186Y-84805434D01*
X128738883Y-84771468D01*
X128734800Y-84730010D01*
X128734800Y-84128990D01*
X128738883Y-84087532D01*
X128749186Y-84053566D01*
X128765916Y-84022268D01*
X128788432Y-83994832D01*
X128815868Y-83972316D01*
X128847166Y-83955586D01*
X128881132Y-83945283D01*
X128922590Y-83941200D01*
X129598610Y-83941200D01*
X129640068Y-83945283D01*
X129640068Y-83945283D01*
G37*
G36*
X142569465Y-83443546D02*
X142605995Y-83454627D01*
X142639659Y-83472621D01*
X142669164Y-83496836D01*
X142693379Y-83526341D01*
X142711373Y-83560005D01*
X142722454Y-83596535D01*
X142726800Y-83640660D01*
X142726800Y-84589340D01*
X142722454Y-84633465D01*
X142711373Y-84669995D01*
X142693379Y-84703659D01*
X142669164Y-84733164D01*
X142639659Y-84757379D01*
X142605995Y-84775373D01*
X142569465Y-84786454D01*
X142525340Y-84790800D01*
X140176660Y-84790800D01*
X140132535Y-84786454D01*
X140096005Y-84775373D01*
X140062341Y-84757379D01*
X140032836Y-84733164D01*
X140008621Y-84703659D01*
X139990627Y-84669995D01*
X139979546Y-84633465D01*
X139975200Y-84589340D01*
X139975200Y-83640660D01*
X139979546Y-83596535D01*
X139990627Y-83560005D01*
X140008621Y-83526341D01*
X140032836Y-83496836D01*
X140062341Y-83472621D01*
X140096005Y-83454627D01*
X140132535Y-83443546D01*
X140176660Y-83439200D01*
X142525340Y-83439200D01*
X142569465Y-83443546D01*
X142569465Y-83443546D01*
G37*
G36*
X105244362Y-82796545D02*
X105332588Y-82805234D01*
X105445789Y-82839573D01*
X105502390Y-82856743D01*
X105640980Y-82930822D01*
X105658879Y-82940389D01*
X105694609Y-82969712D01*
X105796044Y-83052956D01*
X105879288Y-83154391D01*
X105908611Y-83190121D01*
X105908612Y-83190123D01*
X105992257Y-83346610D01*
X105992257Y-83346611D01*
X106043766Y-83516412D01*
X106061158Y-83693000D01*
X106043766Y-83869588D01*
X106009561Y-83982347D01*
X105992257Y-84039390D01*
X105926122Y-84163119D01*
X105908611Y-84195879D01*
X105879288Y-84231609D01*
X105796044Y-84333044D01*
X105694609Y-84416288D01*
X105658879Y-84445611D01*
X105658877Y-84445612D01*
X105502390Y-84529257D01*
X105445789Y-84546427D01*
X105332588Y-84580766D01*
X105245533Y-84589340D01*
X105200250Y-84593800D01*
X105111750Y-84593800D01*
X105066467Y-84589340D01*
X104979412Y-84580766D01*
X104866211Y-84546427D01*
X104809610Y-84529257D01*
X104653123Y-84445612D01*
X104653121Y-84445611D01*
X104617391Y-84416288D01*
X104515956Y-84333044D01*
X104432712Y-84231609D01*
X104403389Y-84195879D01*
X104385878Y-84163119D01*
X104319743Y-84039390D01*
X104302439Y-83982347D01*
X104268234Y-83869588D01*
X104250842Y-83693000D01*
X104268234Y-83516412D01*
X104319743Y-83346611D01*
X104319743Y-83346610D01*
X104403388Y-83190123D01*
X104403389Y-83190121D01*
X104432712Y-83154391D01*
X104515956Y-83052956D01*
X104617391Y-82969712D01*
X104653121Y-82940389D01*
X104671020Y-82930822D01*
X104809610Y-82856743D01*
X104866211Y-82839573D01*
X104979412Y-82805234D01*
X105067638Y-82796545D01*
X105111750Y-82792200D01*
X105200250Y-82792200D01*
X105244362Y-82796545D01*
X105244362Y-82796545D01*
G37*
G36*
X139051800Y-84271000D02*
X130950200Y-84271000D01*
X130950200Y-81469400D01*
X139051800Y-81469400D01*
X139051800Y-84271000D01*
X139051800Y-84271000D01*
G37*
G36*
X144270468Y-83031083D02*
X144304434Y-83041386D01*
X144335732Y-83058116D01*
X144363168Y-83080632D01*
X144385684Y-83108068D01*
X144402414Y-83139366D01*
X144412717Y-83173332D01*
X144416800Y-83214790D01*
X144416800Y-83815810D01*
X144412717Y-83857268D01*
X144402414Y-83891234D01*
X144385684Y-83922532D01*
X144363168Y-83949968D01*
X144335732Y-83972484D01*
X144304434Y-83989214D01*
X144270468Y-83999517D01*
X144229010Y-84003600D01*
X143552990Y-84003600D01*
X143511532Y-83999517D01*
X143477566Y-83989214D01*
X143446268Y-83972484D01*
X143418832Y-83949968D01*
X143396316Y-83922532D01*
X143379586Y-83891234D01*
X143369283Y-83857268D01*
X143365200Y-83815810D01*
X143365200Y-83214790D01*
X143369283Y-83173332D01*
X143379586Y-83139366D01*
X143396316Y-83108068D01*
X143418832Y-83080632D01*
X143446268Y-83058116D01*
X143477566Y-83041386D01*
X143511532Y-83031083D01*
X143552990Y-83027000D01*
X144229010Y-83027000D01*
X144270468Y-83031083D01*
X144270468Y-83031083D01*
G37*
G36*
X116512800Y-83891800D02*
X114661200Y-83891800D01*
X114661200Y-83240200D01*
X116512800Y-83240200D01*
X116512800Y-83891800D01*
X116512800Y-83891800D01*
G37*
G36*
X109112800Y-83891800D02*
X107261200Y-83891800D01*
X107261200Y-83240200D01*
X109112800Y-83240200D01*
X109112800Y-83891800D01*
X109112800Y-83891800D01*
G37*
G36*
X160127000Y-83694800D02*
X159205400Y-83694800D01*
X159205400Y-83183200D01*
X160127000Y-83183200D01*
X160127000Y-83694800D01*
X160127000Y-83694800D01*
G37*
G36*
X126617468Y-82548483D02*
X126651434Y-82558786D01*
X126682732Y-82575516D01*
X126710168Y-82598032D01*
X126732684Y-82625468D01*
X126749414Y-82656766D01*
X126759717Y-82690732D01*
X126763800Y-82732190D01*
X126763800Y-83333210D01*
X126759717Y-83374668D01*
X126749414Y-83408634D01*
X126732684Y-83439932D01*
X126710168Y-83467368D01*
X126682732Y-83489884D01*
X126651434Y-83506614D01*
X126617468Y-83516917D01*
X126576010Y-83521000D01*
X125899990Y-83521000D01*
X125858532Y-83516917D01*
X125824566Y-83506614D01*
X125793268Y-83489884D01*
X125765832Y-83467368D01*
X125743316Y-83439932D01*
X125726586Y-83408634D01*
X125716283Y-83374668D01*
X125712200Y-83333210D01*
X125712200Y-82732190D01*
X125716283Y-82690732D01*
X125726586Y-82656766D01*
X125743316Y-82625468D01*
X125765832Y-82598032D01*
X125793268Y-82575516D01*
X125824566Y-82558786D01*
X125858532Y-82548483D01*
X125899990Y-82544400D01*
X126576010Y-82544400D01*
X126617468Y-82548483D01*
X126617468Y-82548483D01*
G37*
G36*
X109112800Y-82621800D02*
X107261200Y-82621800D01*
X107261200Y-81970200D01*
X109112800Y-81970200D01*
X109112800Y-82621800D01*
X109112800Y-82621800D01*
G37*
G36*
X116512800Y-82621800D02*
X114661200Y-82621800D01*
X114661200Y-81970200D01*
X116512800Y-81970200D01*
X116512800Y-82621800D01*
X116512800Y-82621800D01*
G37*
G36*
X170087800Y-82457800D02*
X167986200Y-82457800D01*
X167986200Y-80356200D01*
X170087800Y-80356200D01*
X170087800Y-82457800D01*
X170087800Y-82457800D01*
G37*
G36*
X144270468Y-81456083D02*
X144304434Y-81466386D01*
X144335732Y-81483116D01*
X144363168Y-81505632D01*
X144385684Y-81533068D01*
X144402414Y-81564366D01*
X144412717Y-81598332D01*
X144416800Y-81639790D01*
X144416800Y-82240810D01*
X144412717Y-82282268D01*
X144402414Y-82316234D01*
X144385684Y-82347532D01*
X144363168Y-82374968D01*
X144335732Y-82397484D01*
X144304434Y-82414214D01*
X144270468Y-82424517D01*
X144229010Y-82428600D01*
X143552990Y-82428600D01*
X143511532Y-82424517D01*
X143477566Y-82414214D01*
X143446268Y-82397484D01*
X143418832Y-82374968D01*
X143396316Y-82347532D01*
X143379586Y-82316234D01*
X143369283Y-82282268D01*
X143365200Y-82240810D01*
X143365200Y-81639790D01*
X143369283Y-81598332D01*
X143379586Y-81564366D01*
X143396316Y-81533068D01*
X143418832Y-81505632D01*
X143446268Y-81483116D01*
X143477566Y-81466386D01*
X143511532Y-81456083D01*
X143552990Y-81452000D01*
X144229010Y-81452000D01*
X144270468Y-81456083D01*
X144270468Y-81456083D01*
G37*
G36*
X160127000Y-82424800D02*
X159205400Y-82424800D01*
X159205400Y-81913200D01*
X160127000Y-81913200D01*
X160127000Y-82424800D01*
X160127000Y-82424800D01*
G37*
G36*
X147357200Y-82384200D02*
X145555600Y-82384200D01*
X145555600Y-79782600D01*
X147357200Y-79782600D01*
X147357200Y-82384200D01*
X147357200Y-82384200D01*
G37*
G36*
X105244362Y-80256545D02*
X105332588Y-80265234D01*
X105395881Y-80284434D01*
X105502390Y-80316743D01*
X105576208Y-80356200D01*
X105658879Y-80400389D01*
X105665980Y-80406217D01*
X105796044Y-80512956D01*
X105859582Y-80590379D01*
X105908611Y-80650121D01*
X105913772Y-80659777D01*
X105992257Y-80806610D01*
X105992257Y-80806611D01*
X106043766Y-80976412D01*
X106061158Y-81153000D01*
X106043766Y-81329588D01*
X106023104Y-81397700D01*
X105992257Y-81499390D01*
X105959588Y-81560508D01*
X105908611Y-81655879D01*
X105879288Y-81691609D01*
X105796044Y-81793044D01*
X105705074Y-81867700D01*
X105658879Y-81905611D01*
X105658877Y-81905612D01*
X105502390Y-81989257D01*
X105445789Y-82006427D01*
X105332588Y-82040766D01*
X105244362Y-82049455D01*
X105200250Y-82053800D01*
X105111750Y-82053800D01*
X105067638Y-82049455D01*
X104979412Y-82040766D01*
X104866211Y-82006427D01*
X104809610Y-81989257D01*
X104653123Y-81905612D01*
X104653121Y-81905611D01*
X104606926Y-81867700D01*
X104515956Y-81793044D01*
X104432712Y-81691609D01*
X104403389Y-81655879D01*
X104352412Y-81560508D01*
X104319743Y-81499390D01*
X104288896Y-81397700D01*
X104268234Y-81329588D01*
X104250842Y-81153000D01*
X104268234Y-80976412D01*
X104319743Y-80806611D01*
X104319743Y-80806610D01*
X104398228Y-80659777D01*
X104403389Y-80650121D01*
X104452418Y-80590379D01*
X104515956Y-80512956D01*
X104646020Y-80406217D01*
X104653121Y-80400389D01*
X104735792Y-80356200D01*
X104809610Y-80316743D01*
X104916119Y-80284434D01*
X104979412Y-80265234D01*
X105067638Y-80256545D01*
X105111750Y-80252200D01*
X105200250Y-80252200D01*
X105244362Y-80256545D01*
X105244362Y-80256545D01*
G37*
G36*
X142569465Y-80643546D02*
X142605995Y-80654627D01*
X142639659Y-80672621D01*
X142669164Y-80696836D01*
X142693379Y-80726341D01*
X142711373Y-80760005D01*
X142722454Y-80796535D01*
X142726800Y-80840660D01*
X142726800Y-81789340D01*
X142722454Y-81833465D01*
X142711373Y-81869995D01*
X142693379Y-81903659D01*
X142669164Y-81933164D01*
X142639659Y-81957379D01*
X142605995Y-81975373D01*
X142569465Y-81986454D01*
X142525340Y-81990800D01*
X140176660Y-81990800D01*
X140132535Y-81986454D01*
X140096005Y-81975373D01*
X140062341Y-81957379D01*
X140032836Y-81933164D01*
X140008621Y-81903659D01*
X139990627Y-81869995D01*
X139979546Y-81833465D01*
X139975200Y-81789340D01*
X139975200Y-80840660D01*
X139979546Y-80796535D01*
X139990627Y-80760005D01*
X140008621Y-80726341D01*
X140032836Y-80696836D01*
X140062341Y-80672621D01*
X140096005Y-80654627D01*
X140132535Y-80643546D01*
X140176660Y-80639200D01*
X142525340Y-80639200D01*
X142569465Y-80643546D01*
X142569465Y-80643546D01*
G37*
G36*
X126617468Y-80973483D02*
X126651434Y-80983786D01*
X126682732Y-81000516D01*
X126710168Y-81023032D01*
X126732684Y-81050468D01*
X126749414Y-81081766D01*
X126759717Y-81115732D01*
X126763800Y-81157190D01*
X126763800Y-81758210D01*
X126759717Y-81799668D01*
X126749414Y-81833634D01*
X126732684Y-81864932D01*
X126710168Y-81892368D01*
X126682732Y-81914884D01*
X126651434Y-81931614D01*
X126617468Y-81941917D01*
X126576010Y-81946000D01*
X125899990Y-81946000D01*
X125858532Y-81941917D01*
X125824566Y-81931614D01*
X125793268Y-81914884D01*
X125765832Y-81892368D01*
X125743316Y-81864932D01*
X125726586Y-81833634D01*
X125716283Y-81799668D01*
X125712200Y-81758210D01*
X125712200Y-81157190D01*
X125716283Y-81115732D01*
X125726586Y-81081766D01*
X125743316Y-81050468D01*
X125765832Y-81023032D01*
X125793268Y-81000516D01*
X125824566Y-80983786D01*
X125858532Y-80973483D01*
X125899990Y-80969400D01*
X126576010Y-80969400D01*
X126617468Y-80973483D01*
X126617468Y-80973483D01*
G37*
G36*
X157950665Y-77876546D02*
X157987195Y-77887627D01*
X158020859Y-77905621D01*
X158050364Y-77929836D01*
X158074579Y-77959341D01*
X158092573Y-77993005D01*
X158103654Y-78029535D01*
X158108000Y-78073660D01*
X158108000Y-80422340D01*
X158103654Y-80466465D01*
X158092573Y-80502995D01*
X158074579Y-80536659D01*
X158050364Y-80566164D01*
X158020859Y-80590379D01*
X157987195Y-80608373D01*
X157950665Y-80619454D01*
X157906540Y-80623800D01*
X156957860Y-80623800D01*
X156913735Y-80619454D01*
X156877205Y-80608373D01*
X156843541Y-80590379D01*
X156814036Y-80566164D01*
X156789821Y-80536659D01*
X156771827Y-80502995D01*
X156760746Y-80466465D01*
X156756400Y-80422340D01*
X156756400Y-78073660D01*
X156760746Y-78029535D01*
X156771827Y-77993005D01*
X156789821Y-77959341D01*
X156814036Y-77929836D01*
X156843541Y-77905621D01*
X156877205Y-77887627D01*
X156913735Y-77876546D01*
X156957860Y-77872200D01*
X157906540Y-77872200D01*
X157950665Y-77876546D01*
X157950665Y-77876546D01*
G37*
G36*
X155150665Y-77876546D02*
X155187195Y-77887627D01*
X155220859Y-77905621D01*
X155250364Y-77929836D01*
X155274579Y-77959341D01*
X155292573Y-77993005D01*
X155303654Y-78029535D01*
X155308000Y-78073660D01*
X155308000Y-80422340D01*
X155303654Y-80466465D01*
X155292573Y-80502995D01*
X155274579Y-80536659D01*
X155250364Y-80566164D01*
X155220859Y-80590379D01*
X155187195Y-80608373D01*
X155150665Y-80619454D01*
X155106540Y-80623800D01*
X154157860Y-80623800D01*
X154113735Y-80619454D01*
X154077205Y-80608373D01*
X154043541Y-80590379D01*
X154014036Y-80566164D01*
X153989821Y-80536659D01*
X153971827Y-80502995D01*
X153960746Y-80466465D01*
X153956400Y-80422340D01*
X153956400Y-78073660D01*
X153960746Y-78029535D01*
X153971827Y-77993005D01*
X153989821Y-77959341D01*
X154014036Y-77929836D01*
X154043541Y-77905621D01*
X154077205Y-77887627D01*
X154113735Y-77876546D01*
X154157860Y-77872200D01*
X155106540Y-77872200D01*
X155150665Y-77876546D01*
X155150665Y-77876546D01*
G37*
G36*
X162738000Y-75517700D02*
X162740402Y-75542086D01*
X162747515Y-75565535D01*
X162759066Y-75587146D01*
X162774612Y-75606088D01*
X162793554Y-75621634D01*
X162815165Y-75633185D01*
X162838614Y-75640298D01*
X162863000Y-75642700D01*
X163448000Y-75642700D01*
X163448000Y-79805300D01*
X162863000Y-79805300D01*
X162838614Y-79807702D01*
X162815165Y-79814815D01*
X162793554Y-79826366D01*
X162774612Y-79841912D01*
X162759066Y-79860854D01*
X162747515Y-79882465D01*
X162740402Y-79905914D01*
X162738000Y-79930300D01*
X162738000Y-80400300D01*
X162026400Y-80400300D01*
X162026400Y-79930300D01*
X162023998Y-79905914D01*
X162016885Y-79882465D01*
X162005334Y-79860854D01*
X161989788Y-79841912D01*
X161970846Y-79826366D01*
X161949235Y-79814815D01*
X161925786Y-79807702D01*
X161901400Y-79805300D01*
X159943000Y-79805300D01*
X159918614Y-79807702D01*
X159895165Y-79814815D01*
X159873554Y-79826366D01*
X159854612Y-79841912D01*
X159839066Y-79860854D01*
X159827515Y-79882465D01*
X159820402Y-79905914D01*
X159818000Y-79930300D01*
X159818000Y-80274800D01*
X159206400Y-80274800D01*
X159206400Y-75173200D01*
X159818000Y-75173200D01*
X159818000Y-75517700D01*
X159820402Y-75542086D01*
X159827515Y-75565535D01*
X159839066Y-75587146D01*
X159854612Y-75606088D01*
X159873554Y-75621634D01*
X159895165Y-75633185D01*
X159918614Y-75640298D01*
X159943000Y-75642700D01*
X161901400Y-75642700D01*
X161925786Y-75640298D01*
X161949235Y-75633185D01*
X161970846Y-75621634D01*
X161989788Y-75606088D01*
X162005334Y-75587146D01*
X162016885Y-75565535D01*
X162023998Y-75542086D01*
X162026400Y-75517700D01*
X162026400Y-75047700D01*
X162738000Y-75047700D01*
X162738000Y-75517700D01*
X162738000Y-75517700D01*
G37*
G36*
X108710468Y-79424283D02*
X108744434Y-79434586D01*
X108775732Y-79451316D01*
X108803168Y-79473832D01*
X108825684Y-79501268D01*
X108842414Y-79532566D01*
X108852717Y-79566532D01*
X108856800Y-79607990D01*
X108856800Y-80209010D01*
X108852717Y-80250468D01*
X108842414Y-80284434D01*
X108825684Y-80315732D01*
X108803168Y-80343168D01*
X108775732Y-80365684D01*
X108744434Y-80382414D01*
X108710468Y-80392717D01*
X108669010Y-80396800D01*
X107992990Y-80396800D01*
X107951532Y-80392717D01*
X107917566Y-80382414D01*
X107886268Y-80365684D01*
X107858832Y-80343168D01*
X107836316Y-80315732D01*
X107819586Y-80284434D01*
X107809283Y-80250468D01*
X107805200Y-80209010D01*
X107805200Y-79607990D01*
X107809283Y-79566532D01*
X107819586Y-79532566D01*
X107836316Y-79501268D01*
X107858832Y-79473832D01*
X107886268Y-79451316D01*
X107917566Y-79434586D01*
X107951532Y-79424283D01*
X107992990Y-79420200D01*
X108669010Y-79420200D01*
X108710468Y-79424283D01*
X108710468Y-79424283D01*
G37*
G36*
X116203468Y-79424283D02*
X116237434Y-79434586D01*
X116268732Y-79451316D01*
X116296168Y-79473832D01*
X116318684Y-79501268D01*
X116335414Y-79532566D01*
X116345717Y-79566532D01*
X116349800Y-79607990D01*
X116349800Y-80209010D01*
X116345717Y-80250468D01*
X116335414Y-80284434D01*
X116318684Y-80315732D01*
X116296168Y-80343168D01*
X116268732Y-80365684D01*
X116237434Y-80382414D01*
X116203468Y-80392717D01*
X116162010Y-80396800D01*
X115485990Y-80396800D01*
X115444532Y-80392717D01*
X115410566Y-80382414D01*
X115379268Y-80365684D01*
X115351832Y-80343168D01*
X115329316Y-80315732D01*
X115312586Y-80284434D01*
X115302283Y-80250468D01*
X115298200Y-80209010D01*
X115298200Y-79607990D01*
X115302283Y-79566532D01*
X115312586Y-79532566D01*
X115329316Y-79501268D01*
X115351832Y-79473832D01*
X115379268Y-79451316D01*
X115410566Y-79434586D01*
X115444532Y-79424283D01*
X115485990Y-79420200D01*
X116162010Y-79420200D01*
X116203468Y-79424283D01*
X116203468Y-79424283D01*
G37*
G36*
X165559000Y-79884800D02*
X164637400Y-79884800D01*
X164637400Y-79373200D01*
X165559000Y-79373200D01*
X165559000Y-79884800D01*
X165559000Y-79884800D01*
G37*
G36*
X106056800Y-79513800D02*
X104255200Y-79513800D01*
X104255200Y-77712200D01*
X106056800Y-77712200D01*
X106056800Y-79513800D01*
X106056800Y-79513800D01*
G37*
G36*
X108710468Y-77849283D02*
X108744434Y-77859586D01*
X108775732Y-77876316D01*
X108803168Y-77898832D01*
X108825684Y-77926268D01*
X108842414Y-77957566D01*
X108852717Y-77991532D01*
X108856800Y-78032990D01*
X108856800Y-78634010D01*
X108852717Y-78675468D01*
X108842414Y-78709434D01*
X108825684Y-78740732D01*
X108803168Y-78768168D01*
X108775732Y-78790684D01*
X108744434Y-78807414D01*
X108710468Y-78817717D01*
X108669010Y-78821800D01*
X107992990Y-78821800D01*
X107951532Y-78817717D01*
X107917566Y-78807414D01*
X107886268Y-78790684D01*
X107858832Y-78768168D01*
X107836316Y-78740732D01*
X107819586Y-78709434D01*
X107809283Y-78675468D01*
X107805200Y-78634010D01*
X107805200Y-78032990D01*
X107809283Y-77991532D01*
X107819586Y-77957566D01*
X107836316Y-77926268D01*
X107858832Y-77898832D01*
X107886268Y-77876316D01*
X107917566Y-77859586D01*
X107951532Y-77849283D01*
X107992990Y-77845200D01*
X108669010Y-77845200D01*
X108710468Y-77849283D01*
X108710468Y-77849283D01*
G37*
G36*
X116203468Y-77849283D02*
X116237434Y-77859586D01*
X116268732Y-77876316D01*
X116296168Y-77898832D01*
X116318684Y-77926268D01*
X116335414Y-77957566D01*
X116345717Y-77991532D01*
X116349800Y-78032990D01*
X116349800Y-78634010D01*
X116345717Y-78675468D01*
X116335414Y-78709434D01*
X116318684Y-78740732D01*
X116296168Y-78768168D01*
X116268732Y-78790684D01*
X116237434Y-78807414D01*
X116203468Y-78817717D01*
X116162010Y-78821800D01*
X115485990Y-78821800D01*
X115444532Y-78817717D01*
X115410566Y-78807414D01*
X115379268Y-78790684D01*
X115351832Y-78768168D01*
X115329316Y-78740732D01*
X115312586Y-78709434D01*
X115302283Y-78675468D01*
X115298200Y-78634010D01*
X115298200Y-78032990D01*
X115302283Y-77991532D01*
X115312586Y-77957566D01*
X115329316Y-77926268D01*
X115351832Y-77898832D01*
X115379268Y-77876316D01*
X115410566Y-77859586D01*
X115444532Y-77849283D01*
X115485990Y-77845200D01*
X116162010Y-77845200D01*
X116203468Y-77849283D01*
X116203468Y-77849283D01*
G37*
G36*
X165559000Y-78614800D02*
X164637400Y-78614800D01*
X164637400Y-78103200D01*
X165559000Y-78103200D01*
X165559000Y-78614800D01*
X165559000Y-78614800D01*
G37*
G36*
X165559000Y-77344800D02*
X164637400Y-77344800D01*
X164637400Y-76833200D01*
X165559000Y-76833200D01*
X165559000Y-77344800D01*
X165559000Y-77344800D01*
G37*
G36*
X157950665Y-74574546D02*
X157987195Y-74585627D01*
X158020859Y-74603621D01*
X158050364Y-74627836D01*
X158074579Y-74657341D01*
X158092573Y-74691005D01*
X158103654Y-74727535D01*
X158108000Y-74771660D01*
X158108000Y-77120340D01*
X158103654Y-77164465D01*
X158092573Y-77200995D01*
X158074579Y-77234659D01*
X158050364Y-77264164D01*
X158020859Y-77288379D01*
X157987195Y-77306373D01*
X157950665Y-77317454D01*
X157906540Y-77321800D01*
X156957860Y-77321800D01*
X156913735Y-77317454D01*
X156877205Y-77306373D01*
X156843541Y-77288379D01*
X156814036Y-77264164D01*
X156789821Y-77234659D01*
X156771827Y-77200995D01*
X156760746Y-77164465D01*
X156756400Y-77120340D01*
X156756400Y-74771660D01*
X156760746Y-74727535D01*
X156771827Y-74691005D01*
X156789821Y-74657341D01*
X156814036Y-74627836D01*
X156843541Y-74603621D01*
X156877205Y-74585627D01*
X156913735Y-74574546D01*
X156957860Y-74570200D01*
X157906540Y-74570200D01*
X157950665Y-74574546D01*
X157950665Y-74574546D01*
G37*
G36*
X155150665Y-74574546D02*
X155187195Y-74585627D01*
X155220859Y-74603621D01*
X155250364Y-74627836D01*
X155274579Y-74657341D01*
X155292573Y-74691005D01*
X155303654Y-74727535D01*
X155308000Y-74771660D01*
X155308000Y-77120340D01*
X155303654Y-77164465D01*
X155292573Y-77200995D01*
X155274579Y-77234659D01*
X155250364Y-77264164D01*
X155220859Y-77288379D01*
X155187195Y-77306373D01*
X155150665Y-77317454D01*
X155106540Y-77321800D01*
X154157860Y-77321800D01*
X154113735Y-77317454D01*
X154077205Y-77306373D01*
X154043541Y-77288379D01*
X154014036Y-77264164D01*
X153989821Y-77234659D01*
X153971827Y-77200995D01*
X153960746Y-77164465D01*
X153956400Y-77120340D01*
X153956400Y-74771660D01*
X153960746Y-74727535D01*
X153971827Y-74691005D01*
X153989821Y-74657341D01*
X154014036Y-74627836D01*
X154043541Y-74603621D01*
X154077205Y-74585627D01*
X154113735Y-74574546D01*
X154157860Y-74570200D01*
X155106540Y-74570200D01*
X155150665Y-74574546D01*
X155150665Y-74574546D01*
G37*
G36*
X130327548Y-75816364D02*
X130366200Y-75828089D01*
X130401824Y-75847130D01*
X130433046Y-75872754D01*
X130458670Y-75903976D01*
X130477711Y-75939600D01*
X130489436Y-75978252D01*
X130494000Y-76024591D01*
X130494000Y-76675609D01*
X130489436Y-76721948D01*
X130477711Y-76760600D01*
X130458670Y-76796224D01*
X130433046Y-76827446D01*
X130401824Y-76853070D01*
X130366200Y-76872111D01*
X130327548Y-76883836D01*
X130281209Y-76888400D01*
X129205191Y-76888400D01*
X129158852Y-76883836D01*
X129120200Y-76872111D01*
X129084576Y-76853070D01*
X129053354Y-76827446D01*
X129027730Y-76796224D01*
X129008689Y-76760600D01*
X128996964Y-76721948D01*
X128992400Y-76675609D01*
X128992400Y-76024591D01*
X128996964Y-75978252D01*
X129008689Y-75939600D01*
X129027730Y-75903976D01*
X129053354Y-75872754D01*
X129084576Y-75847130D01*
X129120200Y-75828089D01*
X129158852Y-75816364D01*
X129205191Y-75811800D01*
X130281209Y-75811800D01*
X130327548Y-75816364D01*
X130327548Y-75816364D01*
G37*
G36*
X134914400Y-76738400D02*
X133592800Y-76738400D01*
X133592800Y-74086800D01*
X134914400Y-74086800D01*
X134914400Y-76738400D01*
X134914400Y-76738400D01*
G37*
G36*
X132294400Y-76738400D02*
X130972800Y-76738400D01*
X130972800Y-75986800D01*
X132294400Y-75986800D01*
X132294400Y-76738400D01*
X132294400Y-76738400D01*
G37*
G36*
X165559000Y-76074800D02*
X164637400Y-76074800D01*
X164637400Y-75563200D01*
X165559000Y-75563200D01*
X165559000Y-76074800D01*
X165559000Y-76074800D01*
G37*
G36*
X144052800Y-75980800D02*
X141951200Y-75980800D01*
X141951200Y-73879200D01*
X144052800Y-73879200D01*
X144052800Y-75980800D01*
X144052800Y-75980800D01*
G37*
G36*
X109550600Y-75043800D02*
X108049000Y-75043800D01*
X108049000Y-73342200D01*
X109550600Y-73342200D01*
X109550600Y-75043800D01*
X109550600Y-75043800D01*
G37*
G36*
X130327548Y-73941364D02*
X130366200Y-73953089D01*
X130401824Y-73972130D01*
X130433046Y-73997754D01*
X130458670Y-74028976D01*
X130477711Y-74064600D01*
X130489436Y-74103252D01*
X130494000Y-74149591D01*
X130494000Y-74800609D01*
X130489436Y-74846948D01*
X130477711Y-74885600D01*
X130458670Y-74921224D01*
X130433046Y-74952446D01*
X130401824Y-74978070D01*
X130366200Y-74997111D01*
X130327548Y-75008836D01*
X130281209Y-75013400D01*
X129205191Y-75013400D01*
X129158852Y-75008836D01*
X129120200Y-74997111D01*
X129084576Y-74978070D01*
X129053354Y-74952446D01*
X129027730Y-74921224D01*
X129008689Y-74885600D01*
X128996964Y-74846948D01*
X128992400Y-74800609D01*
X128992400Y-74149591D01*
X128996964Y-74103252D01*
X129008689Y-74064600D01*
X129027730Y-74028976D01*
X129053354Y-73997754D01*
X129084576Y-73972130D01*
X129120200Y-73953089D01*
X129158852Y-73941364D01*
X129205191Y-73936800D01*
X130281209Y-73936800D01*
X130327548Y-73941364D01*
X130327548Y-73941364D01*
G37*
G36*
X132294400Y-74838400D02*
X130972800Y-74838400D01*
X130972800Y-74086800D01*
X132294400Y-74086800D01*
X132294400Y-74838400D01*
X132294400Y-74838400D01*
G37*
G36*
X106797974Y-73799446D02*
X106892375Y-73828083D01*
X106979376Y-73874585D01*
X107055632Y-73937168D01*
X107118215Y-74013424D01*
X107164717Y-74100425D01*
X107193354Y-74194826D01*
X107203023Y-74293000D01*
X107193354Y-74391174D01*
X107164717Y-74485575D01*
X107118215Y-74572576D01*
X107055632Y-74648832D01*
X106979376Y-74711415D01*
X106892375Y-74757917D01*
X106797974Y-74786554D01*
X106724402Y-74793800D01*
X105975198Y-74793800D01*
X105901626Y-74786554D01*
X105807225Y-74757917D01*
X105720224Y-74711415D01*
X105643968Y-74648832D01*
X105581385Y-74572576D01*
X105534883Y-74485575D01*
X105506246Y-74391174D01*
X105496577Y-74293000D01*
X105506246Y-74194826D01*
X105534883Y-74100425D01*
X105581385Y-74013424D01*
X105643968Y-73937168D01*
X105720224Y-73874585D01*
X105807225Y-73828083D01*
X105901626Y-73799446D01*
X105975198Y-73792200D01*
X106724402Y-73792200D01*
X106797974Y-73799446D01*
X106797974Y-73799446D01*
G37*
G36*
X152843468Y-73011283D02*
X152877434Y-73021586D01*
X152908732Y-73038316D01*
X152936168Y-73060832D01*
X152958684Y-73088268D01*
X152975414Y-73119566D01*
X152985717Y-73153532D01*
X152989800Y-73194990D01*
X152989800Y-73871010D01*
X152985717Y-73912468D01*
X152975414Y-73946434D01*
X152958684Y-73977732D01*
X152936168Y-74005168D01*
X152908732Y-74027684D01*
X152877434Y-74044414D01*
X152843468Y-74054717D01*
X152802010Y-74058800D01*
X152200990Y-74058800D01*
X152159532Y-74054717D01*
X152125566Y-74044414D01*
X152094268Y-74027684D01*
X152066832Y-74005168D01*
X152044316Y-73977732D01*
X152027586Y-73946434D01*
X152017283Y-73912468D01*
X152013200Y-73871010D01*
X152013200Y-73194990D01*
X152017283Y-73153532D01*
X152027586Y-73119566D01*
X152044316Y-73088268D01*
X152066832Y-73060832D01*
X152094268Y-73038316D01*
X152125566Y-73021586D01*
X152159532Y-73011283D01*
X152200990Y-73007200D01*
X152802010Y-73007200D01*
X152843468Y-73011283D01*
X152843468Y-73011283D01*
G37*
G36*
X154418468Y-73011283D02*
X154452434Y-73021586D01*
X154483732Y-73038316D01*
X154511168Y-73060832D01*
X154533684Y-73088268D01*
X154550414Y-73119566D01*
X154560717Y-73153532D01*
X154564800Y-73194990D01*
X154564800Y-73871010D01*
X154560717Y-73912468D01*
X154550414Y-73946434D01*
X154533684Y-73977732D01*
X154511168Y-74005168D01*
X154483732Y-74027684D01*
X154452434Y-74044414D01*
X154418468Y-74054717D01*
X154377010Y-74058800D01*
X153775990Y-74058800D01*
X153734532Y-74054717D01*
X153700566Y-74044414D01*
X153669268Y-74027684D01*
X153641832Y-74005168D01*
X153619316Y-73977732D01*
X153602586Y-73946434D01*
X153592283Y-73912468D01*
X153588200Y-73871010D01*
X153588200Y-73194990D01*
X153592283Y-73153532D01*
X153602586Y-73119566D01*
X153619316Y-73088268D01*
X153641832Y-73060832D01*
X153669268Y-73038316D01*
X153700566Y-73021586D01*
X153734532Y-73011283D01*
X153775990Y-73007200D01*
X154377010Y-73007200D01*
X154418468Y-73011283D01*
X154418468Y-73011283D01*
G37*
G36*
X132982465Y-70713746D02*
X133018995Y-70724827D01*
X133052659Y-70742821D01*
X133082164Y-70767036D01*
X133106379Y-70796541D01*
X133124373Y-70830205D01*
X133135454Y-70866735D01*
X133139800Y-70910860D01*
X133139800Y-73259540D01*
X133135454Y-73303665D01*
X133124373Y-73340195D01*
X133106379Y-73373859D01*
X133082164Y-73403364D01*
X133052659Y-73427579D01*
X133018995Y-73445573D01*
X132982465Y-73456654D01*
X132938340Y-73461000D01*
X131989660Y-73461000D01*
X131945535Y-73456654D01*
X131909005Y-73445573D01*
X131875341Y-73427579D01*
X131845836Y-73403364D01*
X131821621Y-73373859D01*
X131803627Y-73340195D01*
X131792546Y-73303665D01*
X131788200Y-73259540D01*
X131788200Y-70910860D01*
X131792546Y-70866735D01*
X131803627Y-70830205D01*
X131821621Y-70796541D01*
X131845836Y-70767036D01*
X131875341Y-70742821D01*
X131909005Y-70724827D01*
X131945535Y-70713746D01*
X131989660Y-70709400D01*
X132938340Y-70709400D01*
X132982465Y-70713746D01*
X132982465Y-70713746D01*
G37*
G36*
X130182465Y-70713746D02*
X130218995Y-70724827D01*
X130252659Y-70742821D01*
X130282164Y-70767036D01*
X130306379Y-70796541D01*
X130324373Y-70830205D01*
X130335454Y-70866735D01*
X130339800Y-70910860D01*
X130339800Y-73259540D01*
X130335454Y-73303665D01*
X130324373Y-73340195D01*
X130306379Y-73373859D01*
X130282164Y-73403364D01*
X130252659Y-73427579D01*
X130218995Y-73445573D01*
X130182465Y-73456654D01*
X130138340Y-73461000D01*
X129189660Y-73461000D01*
X129145535Y-73456654D01*
X129109005Y-73445573D01*
X129075341Y-73427579D01*
X129045836Y-73403364D01*
X129021621Y-73373859D01*
X129003627Y-73340195D01*
X128992546Y-73303665D01*
X128988200Y-73259540D01*
X128988200Y-70910860D01*
X128992546Y-70866735D01*
X129003627Y-70830205D01*
X129021621Y-70796541D01*
X129045836Y-70767036D01*
X129075341Y-70742821D01*
X129109005Y-70724827D01*
X129145535Y-70713746D01*
X129189660Y-70709400D01*
X130138340Y-70709400D01*
X130182465Y-70713746D01*
X130182465Y-70713746D01*
G37*
G36*
X134643868Y-72363083D02*
X134677834Y-72373386D01*
X134709132Y-72390116D01*
X134736568Y-72412632D01*
X134759084Y-72440068D01*
X134775814Y-72471366D01*
X134786117Y-72505332D01*
X134790200Y-72546790D01*
X134790200Y-73147810D01*
X134786117Y-73189268D01*
X134775814Y-73223234D01*
X134759084Y-73254532D01*
X134736568Y-73281968D01*
X134709132Y-73304484D01*
X134677834Y-73321214D01*
X134643868Y-73331517D01*
X134602410Y-73335600D01*
X133926390Y-73335600D01*
X133884932Y-73331517D01*
X133850966Y-73321214D01*
X133819668Y-73304484D01*
X133792232Y-73281968D01*
X133769716Y-73254532D01*
X133752986Y-73223234D01*
X133742683Y-73189268D01*
X133738600Y-73147810D01*
X133738600Y-72546790D01*
X133742683Y-72505332D01*
X133752986Y-72471366D01*
X133769716Y-72440068D01*
X133792232Y-72412632D01*
X133819668Y-72390116D01*
X133850966Y-72373386D01*
X133884932Y-72363083D01*
X133926390Y-72359000D01*
X134602410Y-72359000D01*
X134643868Y-72363083D01*
X134643868Y-72363083D01*
G37*
G36*
X107350600Y-73193800D02*
X105349000Y-73193800D01*
X105349000Y-71192200D01*
X107350600Y-71192200D01*
X107350600Y-73193800D01*
X107350600Y-73193800D01*
G37*
G36*
X109750600Y-72543800D02*
X108299000Y-72543800D01*
X108299000Y-69442200D01*
X109750600Y-69442200D01*
X109750600Y-72543800D01*
X109750600Y-72543800D01*
G37*
G36*
X114794468Y-71131683D02*
X114828434Y-71141986D01*
X114859732Y-71158716D01*
X114887168Y-71181232D01*
X114909684Y-71208668D01*
X114926414Y-71239966D01*
X114936717Y-71273932D01*
X114940800Y-71315390D01*
X114940800Y-71991410D01*
X114936717Y-72032868D01*
X114926414Y-72066834D01*
X114909684Y-72098132D01*
X114887168Y-72125568D01*
X114859732Y-72148084D01*
X114828434Y-72164814D01*
X114794468Y-72175117D01*
X114753010Y-72179200D01*
X114151990Y-72179200D01*
X114110532Y-72175117D01*
X114076566Y-72164814D01*
X114045268Y-72148084D01*
X114017832Y-72125568D01*
X113995316Y-72098132D01*
X113978586Y-72066834D01*
X113968283Y-72032868D01*
X113964200Y-71991410D01*
X113964200Y-71315390D01*
X113968283Y-71273932D01*
X113978586Y-71239966D01*
X113995316Y-71208668D01*
X114017832Y-71181232D01*
X114045268Y-71158716D01*
X114076566Y-71141986D01*
X114110532Y-71131683D01*
X114151990Y-71127600D01*
X114753010Y-71127600D01*
X114794468Y-71131683D01*
X114794468Y-71131683D01*
G37*
G36*
X113219468Y-71131683D02*
X113253434Y-71141986D01*
X113284732Y-71158716D01*
X113312168Y-71181232D01*
X113334684Y-71208668D01*
X113351414Y-71239966D01*
X113361717Y-71273932D01*
X113365800Y-71315390D01*
X113365800Y-71991410D01*
X113361717Y-72032868D01*
X113351414Y-72066834D01*
X113334684Y-72098132D01*
X113312168Y-72125568D01*
X113284732Y-72148084D01*
X113253434Y-72164814D01*
X113219468Y-72175117D01*
X113178010Y-72179200D01*
X112576990Y-72179200D01*
X112535532Y-72175117D01*
X112501566Y-72164814D01*
X112470268Y-72148084D01*
X112442832Y-72125568D01*
X112420316Y-72098132D01*
X112403586Y-72066834D01*
X112393283Y-72032868D01*
X112389200Y-71991410D01*
X112389200Y-71315390D01*
X112393283Y-71273932D01*
X112403586Y-71239966D01*
X112420316Y-71208668D01*
X112442832Y-71181232D01*
X112470268Y-71158716D01*
X112501566Y-71141986D01*
X112535532Y-71131683D01*
X112576990Y-71127600D01*
X113178010Y-71127600D01*
X113219468Y-71131683D01*
X113219468Y-71131683D01*
G37*
G36*
X134643868Y-70788083D02*
X134677834Y-70798386D01*
X134709132Y-70815116D01*
X134736568Y-70837632D01*
X134759084Y-70865068D01*
X134775814Y-70896366D01*
X134786117Y-70930332D01*
X134790200Y-70971790D01*
X134790200Y-71572810D01*
X134786117Y-71614268D01*
X134775814Y-71648234D01*
X134759084Y-71679532D01*
X134736568Y-71706968D01*
X134709132Y-71729484D01*
X134677834Y-71746214D01*
X134643868Y-71756517D01*
X134602410Y-71760600D01*
X133926390Y-71760600D01*
X133884932Y-71756517D01*
X133850966Y-71746214D01*
X133819668Y-71729484D01*
X133792232Y-71706968D01*
X133769716Y-71679532D01*
X133752986Y-71648234D01*
X133742683Y-71614268D01*
X133738600Y-71572810D01*
X133738600Y-70971790D01*
X133742683Y-70930332D01*
X133752986Y-70896366D01*
X133769716Y-70865068D01*
X133792232Y-70837632D01*
X133819668Y-70815116D01*
X133850966Y-70798386D01*
X133884932Y-70788083D01*
X133926390Y-70784000D01*
X134602410Y-70784000D01*
X134643868Y-70788083D01*
X134643868Y-70788083D01*
G37*
G36*
X107350600Y-70793800D02*
X105349000Y-70793800D01*
X105349000Y-68792200D01*
X107350600Y-68792200D01*
X107350600Y-70793800D01*
X107350600Y-70793800D01*
G37*
G36*
X114794468Y-69607683D02*
X114828434Y-69617986D01*
X114859732Y-69634716D01*
X114887168Y-69657232D01*
X114909684Y-69684668D01*
X114926414Y-69715966D01*
X114936717Y-69749932D01*
X114940800Y-69791390D01*
X114940800Y-70467410D01*
X114936717Y-70508868D01*
X114926414Y-70542834D01*
X114909684Y-70574132D01*
X114887168Y-70601568D01*
X114859732Y-70624084D01*
X114828434Y-70640814D01*
X114794468Y-70651117D01*
X114753010Y-70655200D01*
X114151990Y-70655200D01*
X114110532Y-70651117D01*
X114076566Y-70640814D01*
X114045268Y-70624084D01*
X114017832Y-70601568D01*
X113995316Y-70574132D01*
X113978586Y-70542834D01*
X113968283Y-70508868D01*
X113964200Y-70467410D01*
X113964200Y-69791390D01*
X113968283Y-69749932D01*
X113978586Y-69715966D01*
X113995316Y-69684668D01*
X114017832Y-69657232D01*
X114045268Y-69634716D01*
X114076566Y-69617986D01*
X114110532Y-69607683D01*
X114151990Y-69603600D01*
X114753010Y-69603600D01*
X114794468Y-69607683D01*
X114794468Y-69607683D01*
G37*
G36*
X113219468Y-69607683D02*
X113253434Y-69617986D01*
X113284732Y-69634716D01*
X113312168Y-69657232D01*
X113334684Y-69684668D01*
X113351414Y-69715966D01*
X113361717Y-69749932D01*
X113365800Y-69791390D01*
X113365800Y-70467410D01*
X113361717Y-70508868D01*
X113351414Y-70542834D01*
X113334684Y-70574132D01*
X113312168Y-70601568D01*
X113284732Y-70624084D01*
X113253434Y-70640814D01*
X113219468Y-70651117D01*
X113178010Y-70655200D01*
X112576990Y-70655200D01*
X112535532Y-70651117D01*
X112501566Y-70640814D01*
X112470268Y-70624084D01*
X112442832Y-70601568D01*
X112420316Y-70574132D01*
X112403586Y-70542834D01*
X112393283Y-70508868D01*
X112389200Y-70467410D01*
X112389200Y-69791390D01*
X112393283Y-69749932D01*
X112403586Y-69715966D01*
X112420316Y-69684668D01*
X112442832Y-69657232D01*
X112470268Y-69634716D01*
X112501566Y-69617986D01*
X112535532Y-69607683D01*
X112576990Y-69603600D01*
X113178010Y-69603600D01*
X113219468Y-69607683D01*
X113219468Y-69607683D01*
G37*
G36*
X129805668Y-69175883D02*
X129839634Y-69186186D01*
X129870932Y-69202916D01*
X129898368Y-69225432D01*
X129920884Y-69252868D01*
X129937614Y-69284166D01*
X129947917Y-69318132D01*
X129952000Y-69359590D01*
X129952000Y-70035610D01*
X129947917Y-70077068D01*
X129937614Y-70111034D01*
X129920884Y-70142332D01*
X129898368Y-70169768D01*
X129870932Y-70192284D01*
X129839634Y-70209014D01*
X129805668Y-70219317D01*
X129764210Y-70223400D01*
X129163190Y-70223400D01*
X129121732Y-70219317D01*
X129087766Y-70209014D01*
X129056468Y-70192284D01*
X129029032Y-70169768D01*
X129006516Y-70142332D01*
X128989786Y-70111034D01*
X128979483Y-70077068D01*
X128975400Y-70035610D01*
X128975400Y-69359590D01*
X128979483Y-69318132D01*
X128989786Y-69284166D01*
X129006516Y-69252868D01*
X129029032Y-69225432D01*
X129056468Y-69202916D01*
X129087766Y-69186186D01*
X129121732Y-69175883D01*
X129163190Y-69171800D01*
X129764210Y-69171800D01*
X129805668Y-69175883D01*
X129805668Y-69175883D01*
G37*
G36*
X131380668Y-69175883D02*
X131414634Y-69186186D01*
X131445932Y-69202916D01*
X131473368Y-69225432D01*
X131495884Y-69252868D01*
X131512614Y-69284166D01*
X131522917Y-69318132D01*
X131527000Y-69359590D01*
X131527000Y-70035610D01*
X131522917Y-70077068D01*
X131512614Y-70111034D01*
X131495884Y-70142332D01*
X131473368Y-70169768D01*
X131445932Y-70192284D01*
X131414634Y-70209014D01*
X131380668Y-70219317D01*
X131339210Y-70223400D01*
X130738190Y-70223400D01*
X130696732Y-70219317D01*
X130662766Y-70209014D01*
X130631468Y-70192284D01*
X130604032Y-70169768D01*
X130581516Y-70142332D01*
X130564786Y-70111034D01*
X130554483Y-70077068D01*
X130550400Y-70035610D01*
X130550400Y-69359590D01*
X130554483Y-69318132D01*
X130564786Y-69284166D01*
X130581516Y-69252868D01*
X130604032Y-69225432D01*
X130631468Y-69202916D01*
X130662766Y-69186186D01*
X130696732Y-69175883D01*
X130738190Y-69171800D01*
X131339210Y-69171800D01*
X131380668Y-69175883D01*
X131380668Y-69175883D01*
G37*
G36*
X170214800Y-69757800D02*
X168113200Y-69757800D01*
X168113200Y-67656200D01*
X170214800Y-67656200D01*
X170214800Y-69757800D01*
X170214800Y-69757800D01*
G37*
G36*
X109550600Y-68643800D02*
X108049000Y-68643800D01*
X108049000Y-66942200D01*
X109550600Y-66942200D01*
X109550600Y-68643800D01*
X109550600Y-68643800D01*
G37*
G36*
X153878707Y-66553582D02*
X154069940Y-66632793D01*
X154240887Y-66747016D01*
X154242049Y-66747793D01*
X154388407Y-66894151D01*
X154388409Y-66894154D01*
X154503407Y-67066260D01*
X154582618Y-67257493D01*
X154623000Y-67460505D01*
X154623000Y-67667495D01*
X154582618Y-67870507D01*
X154503407Y-68061740D01*
X154415167Y-68193800D01*
X154388407Y-68233849D01*
X154242049Y-68380207D01*
X154242046Y-68380209D01*
X154069940Y-68495207D01*
X153878707Y-68574418D01*
X153675695Y-68614800D01*
X153468705Y-68614800D01*
X153265693Y-68574418D01*
X153074460Y-68495207D01*
X152902354Y-68380209D01*
X152902351Y-68380207D01*
X152755993Y-68233849D01*
X152729233Y-68193800D01*
X152640993Y-68061740D01*
X152561782Y-67870507D01*
X152521400Y-67667495D01*
X152521400Y-67460505D01*
X152561782Y-67257493D01*
X152640993Y-67066260D01*
X152755991Y-66894154D01*
X152755993Y-66894151D01*
X152902351Y-66747793D01*
X152903513Y-66747016D01*
X153074460Y-66632793D01*
X153265693Y-66553582D01*
X153468705Y-66513200D01*
X153675695Y-66513200D01*
X153878707Y-66553582D01*
X153878707Y-66553582D01*
G37*
G36*
X159623000Y-68614800D02*
X157521400Y-68614800D01*
X157521400Y-66513200D01*
X159623000Y-66513200D01*
X159623000Y-68614800D01*
X159623000Y-68614800D01*
G37*
G36*
X106797974Y-67199446D02*
X106892375Y-67228083D01*
X106979376Y-67274585D01*
X107055632Y-67337168D01*
X107118215Y-67413424D01*
X107164717Y-67500425D01*
X107193354Y-67594826D01*
X107203023Y-67693000D01*
X107193354Y-67791174D01*
X107164717Y-67885575D01*
X107118215Y-67972576D01*
X107055632Y-68048832D01*
X106979376Y-68111415D01*
X106892375Y-68157917D01*
X106797974Y-68186554D01*
X106724402Y-68193800D01*
X105975198Y-68193800D01*
X105901626Y-68186554D01*
X105807225Y-68157917D01*
X105720224Y-68111415D01*
X105643968Y-68048832D01*
X105581385Y-67972576D01*
X105534883Y-67885575D01*
X105506246Y-67791174D01*
X105496577Y-67693000D01*
X105506246Y-67594826D01*
X105534883Y-67500425D01*
X105581385Y-67413424D01*
X105643968Y-67337168D01*
X105720224Y-67274585D01*
X105807225Y-67228083D01*
X105901626Y-67199446D01*
X105975198Y-67192200D01*
X106724402Y-67192200D01*
X106797974Y-67199446D01*
X106797974Y-67199446D01*
G37*
G36*
X129574800Y-66709800D02*
X127473200Y-66709800D01*
X127473200Y-64608200D01*
X129574800Y-64608200D01*
X129574800Y-66709800D01*
X129574800Y-66709800D01*
G37*
G36*
X143417800Y-66455800D02*
X141316200Y-66455800D01*
X141316200Y-64354200D01*
X143417800Y-64354200D01*
X143417800Y-66455800D01*
X143417800Y-66455800D01*
G37*
G36*
X114159762Y-63289345D02*
X114247988Y-63298034D01*
X114361189Y-63332373D01*
X114417790Y-63349543D01*
X114556380Y-63423622D01*
X114574279Y-63433189D01*
X114610009Y-63462512D01*
X114711444Y-63545756D01*
X114794688Y-63647191D01*
X114824011Y-63682921D01*
X114824012Y-63682923D01*
X114907657Y-63839410D01*
X114907657Y-63839411D01*
X114959166Y-64009212D01*
X114976558Y-64185800D01*
X114959166Y-64362388D01*
X114924827Y-64475589D01*
X114907657Y-64532190D01*
X114867028Y-64608200D01*
X114824011Y-64688679D01*
X114794688Y-64724409D01*
X114711444Y-64825844D01*
X114610009Y-64909088D01*
X114574279Y-64938411D01*
X114574277Y-64938412D01*
X114417790Y-65022057D01*
X114361189Y-65039227D01*
X114247988Y-65073566D01*
X114159762Y-65082255D01*
X114115650Y-65086600D01*
X114027150Y-65086600D01*
X113983038Y-65082255D01*
X113894812Y-65073566D01*
X113781611Y-65039227D01*
X113725010Y-65022057D01*
X113568523Y-64938412D01*
X113568521Y-64938411D01*
X113532791Y-64909088D01*
X113431356Y-64825844D01*
X113348112Y-64724409D01*
X113318789Y-64688679D01*
X113275772Y-64608200D01*
X113235143Y-64532190D01*
X113217973Y-64475589D01*
X113183634Y-64362388D01*
X113166242Y-64185800D01*
X113183634Y-64009212D01*
X113235143Y-63839411D01*
X113235143Y-63839410D01*
X113318788Y-63682923D01*
X113318789Y-63682921D01*
X113348112Y-63647191D01*
X113431356Y-63545756D01*
X113532791Y-63462512D01*
X113568521Y-63433189D01*
X113586420Y-63423622D01*
X113725010Y-63349543D01*
X113781611Y-63332373D01*
X113894812Y-63298034D01*
X113983038Y-63289345D01*
X114027150Y-63285000D01*
X114115650Y-63285000D01*
X114159762Y-63289345D01*
X114159762Y-63289345D01*
G37*
G36*
X121779762Y-63289345D02*
X121867988Y-63298034D01*
X121981189Y-63332373D01*
X122037790Y-63349543D01*
X122176380Y-63423622D01*
X122194279Y-63433189D01*
X122230009Y-63462512D01*
X122331444Y-63545756D01*
X122414688Y-63647191D01*
X122444011Y-63682921D01*
X122444012Y-63682923D01*
X122527657Y-63839410D01*
X122527657Y-63839411D01*
X122579166Y-64009212D01*
X122596558Y-64185800D01*
X122579166Y-64362388D01*
X122544827Y-64475589D01*
X122527657Y-64532190D01*
X122487028Y-64608200D01*
X122444011Y-64688679D01*
X122414688Y-64724409D01*
X122331444Y-64825844D01*
X122230009Y-64909088D01*
X122194279Y-64938411D01*
X122194277Y-64938412D01*
X122037790Y-65022057D01*
X121981189Y-65039227D01*
X121867988Y-65073566D01*
X121779762Y-65082255D01*
X121735650Y-65086600D01*
X121647150Y-65086600D01*
X121603038Y-65082255D01*
X121514812Y-65073566D01*
X121401611Y-65039227D01*
X121345010Y-65022057D01*
X121188523Y-64938412D01*
X121188521Y-64938411D01*
X121152791Y-64909088D01*
X121051356Y-64825844D01*
X120968112Y-64724409D01*
X120938789Y-64688679D01*
X120895772Y-64608200D01*
X120855143Y-64532190D01*
X120837973Y-64475589D01*
X120803634Y-64362388D01*
X120786242Y-64185800D01*
X120803634Y-64009212D01*
X120855143Y-63839411D01*
X120855143Y-63839410D01*
X120938788Y-63682923D01*
X120938789Y-63682921D01*
X120968112Y-63647191D01*
X121051356Y-63545756D01*
X121152791Y-63462512D01*
X121188521Y-63433189D01*
X121206420Y-63423622D01*
X121345010Y-63349543D01*
X121401611Y-63332373D01*
X121514812Y-63298034D01*
X121603038Y-63289345D01*
X121647150Y-63285000D01*
X121735650Y-63285000D01*
X121779762Y-63289345D01*
X121779762Y-63289345D01*
G37*
G36*
X116699762Y-63289345D02*
X116787988Y-63298034D01*
X116901189Y-63332373D01*
X116957790Y-63349543D01*
X117096380Y-63423622D01*
X117114279Y-63433189D01*
X117150009Y-63462512D01*
X117251444Y-63545756D01*
X117334688Y-63647191D01*
X117364011Y-63682921D01*
X117364012Y-63682923D01*
X117447657Y-63839410D01*
X117447657Y-63839411D01*
X117499166Y-64009212D01*
X117516558Y-64185800D01*
X117499166Y-64362388D01*
X117464827Y-64475589D01*
X117447657Y-64532190D01*
X117407028Y-64608200D01*
X117364011Y-64688679D01*
X117334688Y-64724409D01*
X117251444Y-64825844D01*
X117150009Y-64909088D01*
X117114279Y-64938411D01*
X117114277Y-64938412D01*
X116957790Y-65022057D01*
X116901189Y-65039227D01*
X116787988Y-65073566D01*
X116699762Y-65082255D01*
X116655650Y-65086600D01*
X116567150Y-65086600D01*
X116523038Y-65082255D01*
X116434812Y-65073566D01*
X116321611Y-65039227D01*
X116265010Y-65022057D01*
X116108523Y-64938412D01*
X116108521Y-64938411D01*
X116072791Y-64909088D01*
X115971356Y-64825844D01*
X115888112Y-64724409D01*
X115858789Y-64688679D01*
X115815772Y-64608200D01*
X115775143Y-64532190D01*
X115757973Y-64475589D01*
X115723634Y-64362388D01*
X115706242Y-64185800D01*
X115723634Y-64009212D01*
X115775143Y-63839411D01*
X115775143Y-63839410D01*
X115858788Y-63682923D01*
X115858789Y-63682921D01*
X115888112Y-63647191D01*
X115971356Y-63545756D01*
X116072791Y-63462512D01*
X116108521Y-63433189D01*
X116126420Y-63423622D01*
X116265010Y-63349543D01*
X116321611Y-63332373D01*
X116434812Y-63298034D01*
X116523038Y-63289345D01*
X116567150Y-63285000D01*
X116655650Y-63285000D01*
X116699762Y-63289345D01*
X116699762Y-63289345D01*
G37*
G36*
X112432200Y-65086600D02*
X110630600Y-65086600D01*
X110630600Y-63285000D01*
X112432200Y-63285000D01*
X112432200Y-65086600D01*
X112432200Y-65086600D01*
G37*
G36*
X119239762Y-63289345D02*
X119327988Y-63298034D01*
X119441189Y-63332373D01*
X119497790Y-63349543D01*
X119636380Y-63423622D01*
X119654279Y-63433189D01*
X119690009Y-63462512D01*
X119791444Y-63545756D01*
X119874688Y-63647191D01*
X119904011Y-63682921D01*
X119904012Y-63682923D01*
X119987657Y-63839410D01*
X119987657Y-63839411D01*
X120039166Y-64009212D01*
X120056558Y-64185800D01*
X120039166Y-64362388D01*
X120004827Y-64475589D01*
X119987657Y-64532190D01*
X119947028Y-64608200D01*
X119904011Y-64688679D01*
X119874688Y-64724409D01*
X119791444Y-64825844D01*
X119690009Y-64909088D01*
X119654279Y-64938411D01*
X119654277Y-64938412D01*
X119497790Y-65022057D01*
X119441189Y-65039227D01*
X119327988Y-65073566D01*
X119239762Y-65082255D01*
X119195650Y-65086600D01*
X119107150Y-65086600D01*
X119063038Y-65082255D01*
X118974812Y-65073566D01*
X118861611Y-65039227D01*
X118805010Y-65022057D01*
X118648523Y-64938412D01*
X118648521Y-64938411D01*
X118612791Y-64909088D01*
X118511356Y-64825844D01*
X118428112Y-64724409D01*
X118398789Y-64688679D01*
X118355772Y-64608200D01*
X118315143Y-64532190D01*
X118297973Y-64475589D01*
X118263634Y-64362388D01*
X118246242Y-64185800D01*
X118263634Y-64009212D01*
X118315143Y-63839411D01*
X118315143Y-63839410D01*
X118398788Y-63682923D01*
X118398789Y-63682921D01*
X118428112Y-63647191D01*
X118511356Y-63545756D01*
X118612791Y-63462512D01*
X118648521Y-63433189D01*
X118666420Y-63423622D01*
X118805010Y-63349543D01*
X118861611Y-63332373D01*
X118974812Y-63298034D01*
X119063038Y-63289345D01*
X119107150Y-63285000D01*
X119195650Y-63285000D01*
X119239762Y-63289345D01*
X119239762Y-63289345D01*
G37*
M02*
