G04 #@! TF.GenerationSoftware,KiCad,Pcbnew,5.0.2-bee76a0~70~ubuntu18.04.1*
G04 #@! TF.CreationDate,2019-03-01T11:09:08-06:00*
G04 #@! TF.ProjectId,MotorDriverXL,4d6f746f-7244-4726-9976-6572584c2e6b,V1.0*
G04 #@! TF.SameCoordinates,Original*
G04 #@! TF.FileFunction,Paste,Bot*
G04 #@! TF.FilePolarity,Positive*
%FSLAX46Y46*%
G04 Gerber Fmt 4.6, Leading zero omitted, Abs format (unit mm)*
G04 Created by KiCad (PCBNEW 5.0.2-bee76a0~70~ubuntu18.04.1) date Fri 01 Mar 2019 11:09:08 AM CST*
%MOMM*%
%LPD*%
G01*
G04 APERTURE LIST*
%ADD10C,0.100000*%
%ADD11C,0.875000*%
G04 APERTURE END LIST*
D10*
G04 #@! TO.C,C38*
G36*
X121398091Y-93683853D02*
X121419326Y-93687003D01*
X121440150Y-93692219D01*
X121460362Y-93699451D01*
X121479768Y-93708630D01*
X121498181Y-93719666D01*
X121515424Y-93732454D01*
X121531330Y-93746870D01*
X121545746Y-93762776D01*
X121558534Y-93780019D01*
X121569570Y-93798432D01*
X121578749Y-93817838D01*
X121585981Y-93838050D01*
X121591197Y-93858874D01*
X121594347Y-93880109D01*
X121595400Y-93901550D01*
X121595400Y-94414050D01*
X121594347Y-94435491D01*
X121591197Y-94456726D01*
X121585981Y-94477550D01*
X121578749Y-94497762D01*
X121569570Y-94517168D01*
X121558534Y-94535581D01*
X121545746Y-94552824D01*
X121531330Y-94568730D01*
X121515424Y-94583146D01*
X121498181Y-94595934D01*
X121479768Y-94606970D01*
X121460362Y-94616149D01*
X121440150Y-94623381D01*
X121419326Y-94628597D01*
X121398091Y-94631747D01*
X121376650Y-94632800D01*
X120939150Y-94632800D01*
X120917709Y-94631747D01*
X120896474Y-94628597D01*
X120875650Y-94623381D01*
X120855438Y-94616149D01*
X120836032Y-94606970D01*
X120817619Y-94595934D01*
X120800376Y-94583146D01*
X120784470Y-94568730D01*
X120770054Y-94552824D01*
X120757266Y-94535581D01*
X120746230Y-94517168D01*
X120737051Y-94497762D01*
X120729819Y-94477550D01*
X120724603Y-94456726D01*
X120721453Y-94435491D01*
X120720400Y-94414050D01*
X120720400Y-93901550D01*
X120721453Y-93880109D01*
X120724603Y-93858874D01*
X120729819Y-93838050D01*
X120737051Y-93817838D01*
X120746230Y-93798432D01*
X120757266Y-93780019D01*
X120770054Y-93762776D01*
X120784470Y-93746870D01*
X120800376Y-93732454D01*
X120817619Y-93719666D01*
X120836032Y-93708630D01*
X120855438Y-93699451D01*
X120875650Y-93692219D01*
X120896474Y-93687003D01*
X120917709Y-93683853D01*
X120939150Y-93682800D01*
X121376650Y-93682800D01*
X121398091Y-93683853D01*
X121398091Y-93683853D01*
G37*
D11*
X121157900Y-94157800D03*
D10*
G36*
X122973091Y-93683853D02*
X122994326Y-93687003D01*
X123015150Y-93692219D01*
X123035362Y-93699451D01*
X123054768Y-93708630D01*
X123073181Y-93719666D01*
X123090424Y-93732454D01*
X123106330Y-93746870D01*
X123120746Y-93762776D01*
X123133534Y-93780019D01*
X123144570Y-93798432D01*
X123153749Y-93817838D01*
X123160981Y-93838050D01*
X123166197Y-93858874D01*
X123169347Y-93880109D01*
X123170400Y-93901550D01*
X123170400Y-94414050D01*
X123169347Y-94435491D01*
X123166197Y-94456726D01*
X123160981Y-94477550D01*
X123153749Y-94497762D01*
X123144570Y-94517168D01*
X123133534Y-94535581D01*
X123120746Y-94552824D01*
X123106330Y-94568730D01*
X123090424Y-94583146D01*
X123073181Y-94595934D01*
X123054768Y-94606970D01*
X123035362Y-94616149D01*
X123015150Y-94623381D01*
X122994326Y-94628597D01*
X122973091Y-94631747D01*
X122951650Y-94632800D01*
X122514150Y-94632800D01*
X122492709Y-94631747D01*
X122471474Y-94628597D01*
X122450650Y-94623381D01*
X122430438Y-94616149D01*
X122411032Y-94606970D01*
X122392619Y-94595934D01*
X122375376Y-94583146D01*
X122359470Y-94568730D01*
X122345054Y-94552824D01*
X122332266Y-94535581D01*
X122321230Y-94517168D01*
X122312051Y-94497762D01*
X122304819Y-94477550D01*
X122299603Y-94456726D01*
X122296453Y-94435491D01*
X122295400Y-94414050D01*
X122295400Y-93901550D01*
X122296453Y-93880109D01*
X122299603Y-93858874D01*
X122304819Y-93838050D01*
X122312051Y-93817838D01*
X122321230Y-93798432D01*
X122332266Y-93780019D01*
X122345054Y-93762776D01*
X122359470Y-93746870D01*
X122375376Y-93732454D01*
X122392619Y-93719666D01*
X122411032Y-93708630D01*
X122430438Y-93699451D01*
X122450650Y-93692219D01*
X122471474Y-93687003D01*
X122492709Y-93683853D01*
X122514150Y-93682800D01*
X122951650Y-93682800D01*
X122973091Y-93683853D01*
X122973091Y-93683853D01*
G37*
D11*
X122732900Y-94157800D03*
G04 #@! TD*
D10*
G04 #@! TO.C,C36*
G36*
X118324991Y-94649053D02*
X118346226Y-94652203D01*
X118367050Y-94657419D01*
X118387262Y-94664651D01*
X118406668Y-94673830D01*
X118425081Y-94684866D01*
X118442324Y-94697654D01*
X118458230Y-94712070D01*
X118472646Y-94727976D01*
X118485434Y-94745219D01*
X118496470Y-94763632D01*
X118505649Y-94783038D01*
X118512881Y-94803250D01*
X118518097Y-94824074D01*
X118521247Y-94845309D01*
X118522300Y-94866750D01*
X118522300Y-95379250D01*
X118521247Y-95400691D01*
X118518097Y-95421926D01*
X118512881Y-95442750D01*
X118505649Y-95462962D01*
X118496470Y-95482368D01*
X118485434Y-95500781D01*
X118472646Y-95518024D01*
X118458230Y-95533930D01*
X118442324Y-95548346D01*
X118425081Y-95561134D01*
X118406668Y-95572170D01*
X118387262Y-95581349D01*
X118367050Y-95588581D01*
X118346226Y-95593797D01*
X118324991Y-95596947D01*
X118303550Y-95598000D01*
X117866050Y-95598000D01*
X117844609Y-95596947D01*
X117823374Y-95593797D01*
X117802550Y-95588581D01*
X117782338Y-95581349D01*
X117762932Y-95572170D01*
X117744519Y-95561134D01*
X117727276Y-95548346D01*
X117711370Y-95533930D01*
X117696954Y-95518024D01*
X117684166Y-95500781D01*
X117673130Y-95482368D01*
X117663951Y-95462962D01*
X117656719Y-95442750D01*
X117651503Y-95421926D01*
X117648353Y-95400691D01*
X117647300Y-95379250D01*
X117647300Y-94866750D01*
X117648353Y-94845309D01*
X117651503Y-94824074D01*
X117656719Y-94803250D01*
X117663951Y-94783038D01*
X117673130Y-94763632D01*
X117684166Y-94745219D01*
X117696954Y-94727976D01*
X117711370Y-94712070D01*
X117727276Y-94697654D01*
X117744519Y-94684866D01*
X117762932Y-94673830D01*
X117782338Y-94664651D01*
X117802550Y-94657419D01*
X117823374Y-94652203D01*
X117844609Y-94649053D01*
X117866050Y-94648000D01*
X118303550Y-94648000D01*
X118324991Y-94649053D01*
X118324991Y-94649053D01*
G37*
D11*
X118084800Y-95123000D03*
D10*
G36*
X116749991Y-94649053D02*
X116771226Y-94652203D01*
X116792050Y-94657419D01*
X116812262Y-94664651D01*
X116831668Y-94673830D01*
X116850081Y-94684866D01*
X116867324Y-94697654D01*
X116883230Y-94712070D01*
X116897646Y-94727976D01*
X116910434Y-94745219D01*
X116921470Y-94763632D01*
X116930649Y-94783038D01*
X116937881Y-94803250D01*
X116943097Y-94824074D01*
X116946247Y-94845309D01*
X116947300Y-94866750D01*
X116947300Y-95379250D01*
X116946247Y-95400691D01*
X116943097Y-95421926D01*
X116937881Y-95442750D01*
X116930649Y-95462962D01*
X116921470Y-95482368D01*
X116910434Y-95500781D01*
X116897646Y-95518024D01*
X116883230Y-95533930D01*
X116867324Y-95548346D01*
X116850081Y-95561134D01*
X116831668Y-95572170D01*
X116812262Y-95581349D01*
X116792050Y-95588581D01*
X116771226Y-95593797D01*
X116749991Y-95596947D01*
X116728550Y-95598000D01*
X116291050Y-95598000D01*
X116269609Y-95596947D01*
X116248374Y-95593797D01*
X116227550Y-95588581D01*
X116207338Y-95581349D01*
X116187932Y-95572170D01*
X116169519Y-95561134D01*
X116152276Y-95548346D01*
X116136370Y-95533930D01*
X116121954Y-95518024D01*
X116109166Y-95500781D01*
X116098130Y-95482368D01*
X116088951Y-95462962D01*
X116081719Y-95442750D01*
X116076503Y-95421926D01*
X116073353Y-95400691D01*
X116072300Y-95379250D01*
X116072300Y-94866750D01*
X116073353Y-94845309D01*
X116076503Y-94824074D01*
X116081719Y-94803250D01*
X116088951Y-94783038D01*
X116098130Y-94763632D01*
X116109166Y-94745219D01*
X116121954Y-94727976D01*
X116136370Y-94712070D01*
X116152276Y-94697654D01*
X116169519Y-94684866D01*
X116187932Y-94673830D01*
X116207338Y-94664651D01*
X116227550Y-94657419D01*
X116248374Y-94652203D01*
X116269609Y-94649053D01*
X116291050Y-94648000D01*
X116728550Y-94648000D01*
X116749991Y-94649053D01*
X116749991Y-94649053D01*
G37*
D11*
X116509800Y-95123000D03*
G04 #@! TD*
D10*
G04 #@! TO.C,R26*
G36*
X133082091Y-117610653D02*
X133103326Y-117613803D01*
X133124150Y-117619019D01*
X133144362Y-117626251D01*
X133163768Y-117635430D01*
X133182181Y-117646466D01*
X133199424Y-117659254D01*
X133215330Y-117673670D01*
X133229746Y-117689576D01*
X133242534Y-117706819D01*
X133253570Y-117725232D01*
X133262749Y-117744638D01*
X133269981Y-117764850D01*
X133275197Y-117785674D01*
X133278347Y-117806909D01*
X133279400Y-117828350D01*
X133279400Y-118340850D01*
X133278347Y-118362291D01*
X133275197Y-118383526D01*
X133269981Y-118404350D01*
X133262749Y-118424562D01*
X133253570Y-118443968D01*
X133242534Y-118462381D01*
X133229746Y-118479624D01*
X133215330Y-118495530D01*
X133199424Y-118509946D01*
X133182181Y-118522734D01*
X133163768Y-118533770D01*
X133144362Y-118542949D01*
X133124150Y-118550181D01*
X133103326Y-118555397D01*
X133082091Y-118558547D01*
X133060650Y-118559600D01*
X132623150Y-118559600D01*
X132601709Y-118558547D01*
X132580474Y-118555397D01*
X132559650Y-118550181D01*
X132539438Y-118542949D01*
X132520032Y-118533770D01*
X132501619Y-118522734D01*
X132484376Y-118509946D01*
X132468470Y-118495530D01*
X132454054Y-118479624D01*
X132441266Y-118462381D01*
X132430230Y-118443968D01*
X132421051Y-118424562D01*
X132413819Y-118404350D01*
X132408603Y-118383526D01*
X132405453Y-118362291D01*
X132404400Y-118340850D01*
X132404400Y-117828350D01*
X132405453Y-117806909D01*
X132408603Y-117785674D01*
X132413819Y-117764850D01*
X132421051Y-117744638D01*
X132430230Y-117725232D01*
X132441266Y-117706819D01*
X132454054Y-117689576D01*
X132468470Y-117673670D01*
X132484376Y-117659254D01*
X132501619Y-117646466D01*
X132520032Y-117635430D01*
X132539438Y-117626251D01*
X132559650Y-117619019D01*
X132580474Y-117613803D01*
X132601709Y-117610653D01*
X132623150Y-117609600D01*
X133060650Y-117609600D01*
X133082091Y-117610653D01*
X133082091Y-117610653D01*
G37*
D11*
X132841900Y-118084600D03*
D10*
G36*
X134657091Y-117610653D02*
X134678326Y-117613803D01*
X134699150Y-117619019D01*
X134719362Y-117626251D01*
X134738768Y-117635430D01*
X134757181Y-117646466D01*
X134774424Y-117659254D01*
X134790330Y-117673670D01*
X134804746Y-117689576D01*
X134817534Y-117706819D01*
X134828570Y-117725232D01*
X134837749Y-117744638D01*
X134844981Y-117764850D01*
X134850197Y-117785674D01*
X134853347Y-117806909D01*
X134854400Y-117828350D01*
X134854400Y-118340850D01*
X134853347Y-118362291D01*
X134850197Y-118383526D01*
X134844981Y-118404350D01*
X134837749Y-118424562D01*
X134828570Y-118443968D01*
X134817534Y-118462381D01*
X134804746Y-118479624D01*
X134790330Y-118495530D01*
X134774424Y-118509946D01*
X134757181Y-118522734D01*
X134738768Y-118533770D01*
X134719362Y-118542949D01*
X134699150Y-118550181D01*
X134678326Y-118555397D01*
X134657091Y-118558547D01*
X134635650Y-118559600D01*
X134198150Y-118559600D01*
X134176709Y-118558547D01*
X134155474Y-118555397D01*
X134134650Y-118550181D01*
X134114438Y-118542949D01*
X134095032Y-118533770D01*
X134076619Y-118522734D01*
X134059376Y-118509946D01*
X134043470Y-118495530D01*
X134029054Y-118479624D01*
X134016266Y-118462381D01*
X134005230Y-118443968D01*
X133996051Y-118424562D01*
X133988819Y-118404350D01*
X133983603Y-118383526D01*
X133980453Y-118362291D01*
X133979400Y-118340850D01*
X133979400Y-117828350D01*
X133980453Y-117806909D01*
X133983603Y-117785674D01*
X133988819Y-117764850D01*
X133996051Y-117744638D01*
X134005230Y-117725232D01*
X134016266Y-117706819D01*
X134029054Y-117689576D01*
X134043470Y-117673670D01*
X134059376Y-117659254D01*
X134076619Y-117646466D01*
X134095032Y-117635430D01*
X134114438Y-117626251D01*
X134134650Y-117619019D01*
X134155474Y-117613803D01*
X134176709Y-117610653D01*
X134198150Y-117609600D01*
X134635650Y-117609600D01*
X134657091Y-117610653D01*
X134657091Y-117610653D01*
G37*
D11*
X134416900Y-118084600D03*
G04 #@! TD*
D10*
G04 #@! TO.C,R25*
G36*
X133082091Y-116086653D02*
X133103326Y-116089803D01*
X133124150Y-116095019D01*
X133144362Y-116102251D01*
X133163768Y-116111430D01*
X133182181Y-116122466D01*
X133199424Y-116135254D01*
X133215330Y-116149670D01*
X133229746Y-116165576D01*
X133242534Y-116182819D01*
X133253570Y-116201232D01*
X133262749Y-116220638D01*
X133269981Y-116240850D01*
X133275197Y-116261674D01*
X133278347Y-116282909D01*
X133279400Y-116304350D01*
X133279400Y-116816850D01*
X133278347Y-116838291D01*
X133275197Y-116859526D01*
X133269981Y-116880350D01*
X133262749Y-116900562D01*
X133253570Y-116919968D01*
X133242534Y-116938381D01*
X133229746Y-116955624D01*
X133215330Y-116971530D01*
X133199424Y-116985946D01*
X133182181Y-116998734D01*
X133163768Y-117009770D01*
X133144362Y-117018949D01*
X133124150Y-117026181D01*
X133103326Y-117031397D01*
X133082091Y-117034547D01*
X133060650Y-117035600D01*
X132623150Y-117035600D01*
X132601709Y-117034547D01*
X132580474Y-117031397D01*
X132559650Y-117026181D01*
X132539438Y-117018949D01*
X132520032Y-117009770D01*
X132501619Y-116998734D01*
X132484376Y-116985946D01*
X132468470Y-116971530D01*
X132454054Y-116955624D01*
X132441266Y-116938381D01*
X132430230Y-116919968D01*
X132421051Y-116900562D01*
X132413819Y-116880350D01*
X132408603Y-116859526D01*
X132405453Y-116838291D01*
X132404400Y-116816850D01*
X132404400Y-116304350D01*
X132405453Y-116282909D01*
X132408603Y-116261674D01*
X132413819Y-116240850D01*
X132421051Y-116220638D01*
X132430230Y-116201232D01*
X132441266Y-116182819D01*
X132454054Y-116165576D01*
X132468470Y-116149670D01*
X132484376Y-116135254D01*
X132501619Y-116122466D01*
X132520032Y-116111430D01*
X132539438Y-116102251D01*
X132559650Y-116095019D01*
X132580474Y-116089803D01*
X132601709Y-116086653D01*
X132623150Y-116085600D01*
X133060650Y-116085600D01*
X133082091Y-116086653D01*
X133082091Y-116086653D01*
G37*
D11*
X132841900Y-116560600D03*
D10*
G36*
X134657091Y-116086653D02*
X134678326Y-116089803D01*
X134699150Y-116095019D01*
X134719362Y-116102251D01*
X134738768Y-116111430D01*
X134757181Y-116122466D01*
X134774424Y-116135254D01*
X134790330Y-116149670D01*
X134804746Y-116165576D01*
X134817534Y-116182819D01*
X134828570Y-116201232D01*
X134837749Y-116220638D01*
X134844981Y-116240850D01*
X134850197Y-116261674D01*
X134853347Y-116282909D01*
X134854400Y-116304350D01*
X134854400Y-116816850D01*
X134853347Y-116838291D01*
X134850197Y-116859526D01*
X134844981Y-116880350D01*
X134837749Y-116900562D01*
X134828570Y-116919968D01*
X134817534Y-116938381D01*
X134804746Y-116955624D01*
X134790330Y-116971530D01*
X134774424Y-116985946D01*
X134757181Y-116998734D01*
X134738768Y-117009770D01*
X134719362Y-117018949D01*
X134699150Y-117026181D01*
X134678326Y-117031397D01*
X134657091Y-117034547D01*
X134635650Y-117035600D01*
X134198150Y-117035600D01*
X134176709Y-117034547D01*
X134155474Y-117031397D01*
X134134650Y-117026181D01*
X134114438Y-117018949D01*
X134095032Y-117009770D01*
X134076619Y-116998734D01*
X134059376Y-116985946D01*
X134043470Y-116971530D01*
X134029054Y-116955624D01*
X134016266Y-116938381D01*
X134005230Y-116919968D01*
X133996051Y-116900562D01*
X133988819Y-116880350D01*
X133983603Y-116859526D01*
X133980453Y-116838291D01*
X133979400Y-116816850D01*
X133979400Y-116304350D01*
X133980453Y-116282909D01*
X133983603Y-116261674D01*
X133988819Y-116240850D01*
X133996051Y-116220638D01*
X134005230Y-116201232D01*
X134016266Y-116182819D01*
X134029054Y-116165576D01*
X134043470Y-116149670D01*
X134059376Y-116135254D01*
X134076619Y-116122466D01*
X134095032Y-116111430D01*
X134114438Y-116102251D01*
X134134650Y-116095019D01*
X134155474Y-116089803D01*
X134176709Y-116086653D01*
X134198150Y-116085600D01*
X134635650Y-116085600D01*
X134657091Y-116086653D01*
X134657091Y-116086653D01*
G37*
D11*
X134416900Y-116560600D03*
G04 #@! TD*
D10*
G04 #@! TO.C,R19*
G36*
X139355891Y-109355653D02*
X139377126Y-109358803D01*
X139397950Y-109364019D01*
X139418162Y-109371251D01*
X139437568Y-109380430D01*
X139455981Y-109391466D01*
X139473224Y-109404254D01*
X139489130Y-109418670D01*
X139503546Y-109434576D01*
X139516334Y-109451819D01*
X139527370Y-109470232D01*
X139536549Y-109489638D01*
X139543781Y-109509850D01*
X139548997Y-109530674D01*
X139552147Y-109551909D01*
X139553200Y-109573350D01*
X139553200Y-110085850D01*
X139552147Y-110107291D01*
X139548997Y-110128526D01*
X139543781Y-110149350D01*
X139536549Y-110169562D01*
X139527370Y-110188968D01*
X139516334Y-110207381D01*
X139503546Y-110224624D01*
X139489130Y-110240530D01*
X139473224Y-110254946D01*
X139455981Y-110267734D01*
X139437568Y-110278770D01*
X139418162Y-110287949D01*
X139397950Y-110295181D01*
X139377126Y-110300397D01*
X139355891Y-110303547D01*
X139334450Y-110304600D01*
X138896950Y-110304600D01*
X138875509Y-110303547D01*
X138854274Y-110300397D01*
X138833450Y-110295181D01*
X138813238Y-110287949D01*
X138793832Y-110278770D01*
X138775419Y-110267734D01*
X138758176Y-110254946D01*
X138742270Y-110240530D01*
X138727854Y-110224624D01*
X138715066Y-110207381D01*
X138704030Y-110188968D01*
X138694851Y-110169562D01*
X138687619Y-110149350D01*
X138682403Y-110128526D01*
X138679253Y-110107291D01*
X138678200Y-110085850D01*
X138678200Y-109573350D01*
X138679253Y-109551909D01*
X138682403Y-109530674D01*
X138687619Y-109509850D01*
X138694851Y-109489638D01*
X138704030Y-109470232D01*
X138715066Y-109451819D01*
X138727854Y-109434576D01*
X138742270Y-109418670D01*
X138758176Y-109404254D01*
X138775419Y-109391466D01*
X138793832Y-109380430D01*
X138813238Y-109371251D01*
X138833450Y-109364019D01*
X138854274Y-109358803D01*
X138875509Y-109355653D01*
X138896950Y-109354600D01*
X139334450Y-109354600D01*
X139355891Y-109355653D01*
X139355891Y-109355653D01*
G37*
D11*
X139115700Y-109829600D03*
D10*
G36*
X140930891Y-109355653D02*
X140952126Y-109358803D01*
X140972950Y-109364019D01*
X140993162Y-109371251D01*
X141012568Y-109380430D01*
X141030981Y-109391466D01*
X141048224Y-109404254D01*
X141064130Y-109418670D01*
X141078546Y-109434576D01*
X141091334Y-109451819D01*
X141102370Y-109470232D01*
X141111549Y-109489638D01*
X141118781Y-109509850D01*
X141123997Y-109530674D01*
X141127147Y-109551909D01*
X141128200Y-109573350D01*
X141128200Y-110085850D01*
X141127147Y-110107291D01*
X141123997Y-110128526D01*
X141118781Y-110149350D01*
X141111549Y-110169562D01*
X141102370Y-110188968D01*
X141091334Y-110207381D01*
X141078546Y-110224624D01*
X141064130Y-110240530D01*
X141048224Y-110254946D01*
X141030981Y-110267734D01*
X141012568Y-110278770D01*
X140993162Y-110287949D01*
X140972950Y-110295181D01*
X140952126Y-110300397D01*
X140930891Y-110303547D01*
X140909450Y-110304600D01*
X140471950Y-110304600D01*
X140450509Y-110303547D01*
X140429274Y-110300397D01*
X140408450Y-110295181D01*
X140388238Y-110287949D01*
X140368832Y-110278770D01*
X140350419Y-110267734D01*
X140333176Y-110254946D01*
X140317270Y-110240530D01*
X140302854Y-110224624D01*
X140290066Y-110207381D01*
X140279030Y-110188968D01*
X140269851Y-110169562D01*
X140262619Y-110149350D01*
X140257403Y-110128526D01*
X140254253Y-110107291D01*
X140253200Y-110085850D01*
X140253200Y-109573350D01*
X140254253Y-109551909D01*
X140257403Y-109530674D01*
X140262619Y-109509850D01*
X140269851Y-109489638D01*
X140279030Y-109470232D01*
X140290066Y-109451819D01*
X140302854Y-109434576D01*
X140317270Y-109418670D01*
X140333176Y-109404254D01*
X140350419Y-109391466D01*
X140368832Y-109380430D01*
X140388238Y-109371251D01*
X140408450Y-109364019D01*
X140429274Y-109358803D01*
X140450509Y-109355653D01*
X140471950Y-109354600D01*
X140909450Y-109354600D01*
X140930891Y-109355653D01*
X140930891Y-109355653D01*
G37*
D11*
X140690700Y-109829600D03*
G04 #@! TD*
D10*
G04 #@! TO.C,R20*
G36*
X139355891Y-110930453D02*
X139377126Y-110933603D01*
X139397950Y-110938819D01*
X139418162Y-110946051D01*
X139437568Y-110955230D01*
X139455981Y-110966266D01*
X139473224Y-110979054D01*
X139489130Y-110993470D01*
X139503546Y-111009376D01*
X139516334Y-111026619D01*
X139527370Y-111045032D01*
X139536549Y-111064438D01*
X139543781Y-111084650D01*
X139548997Y-111105474D01*
X139552147Y-111126709D01*
X139553200Y-111148150D01*
X139553200Y-111660650D01*
X139552147Y-111682091D01*
X139548997Y-111703326D01*
X139543781Y-111724150D01*
X139536549Y-111744362D01*
X139527370Y-111763768D01*
X139516334Y-111782181D01*
X139503546Y-111799424D01*
X139489130Y-111815330D01*
X139473224Y-111829746D01*
X139455981Y-111842534D01*
X139437568Y-111853570D01*
X139418162Y-111862749D01*
X139397950Y-111869981D01*
X139377126Y-111875197D01*
X139355891Y-111878347D01*
X139334450Y-111879400D01*
X138896950Y-111879400D01*
X138875509Y-111878347D01*
X138854274Y-111875197D01*
X138833450Y-111869981D01*
X138813238Y-111862749D01*
X138793832Y-111853570D01*
X138775419Y-111842534D01*
X138758176Y-111829746D01*
X138742270Y-111815330D01*
X138727854Y-111799424D01*
X138715066Y-111782181D01*
X138704030Y-111763768D01*
X138694851Y-111744362D01*
X138687619Y-111724150D01*
X138682403Y-111703326D01*
X138679253Y-111682091D01*
X138678200Y-111660650D01*
X138678200Y-111148150D01*
X138679253Y-111126709D01*
X138682403Y-111105474D01*
X138687619Y-111084650D01*
X138694851Y-111064438D01*
X138704030Y-111045032D01*
X138715066Y-111026619D01*
X138727854Y-111009376D01*
X138742270Y-110993470D01*
X138758176Y-110979054D01*
X138775419Y-110966266D01*
X138793832Y-110955230D01*
X138813238Y-110946051D01*
X138833450Y-110938819D01*
X138854274Y-110933603D01*
X138875509Y-110930453D01*
X138896950Y-110929400D01*
X139334450Y-110929400D01*
X139355891Y-110930453D01*
X139355891Y-110930453D01*
G37*
D11*
X139115700Y-111404400D03*
D10*
G36*
X140930891Y-110930453D02*
X140952126Y-110933603D01*
X140972950Y-110938819D01*
X140993162Y-110946051D01*
X141012568Y-110955230D01*
X141030981Y-110966266D01*
X141048224Y-110979054D01*
X141064130Y-110993470D01*
X141078546Y-111009376D01*
X141091334Y-111026619D01*
X141102370Y-111045032D01*
X141111549Y-111064438D01*
X141118781Y-111084650D01*
X141123997Y-111105474D01*
X141127147Y-111126709D01*
X141128200Y-111148150D01*
X141128200Y-111660650D01*
X141127147Y-111682091D01*
X141123997Y-111703326D01*
X141118781Y-111724150D01*
X141111549Y-111744362D01*
X141102370Y-111763768D01*
X141091334Y-111782181D01*
X141078546Y-111799424D01*
X141064130Y-111815330D01*
X141048224Y-111829746D01*
X141030981Y-111842534D01*
X141012568Y-111853570D01*
X140993162Y-111862749D01*
X140972950Y-111869981D01*
X140952126Y-111875197D01*
X140930891Y-111878347D01*
X140909450Y-111879400D01*
X140471950Y-111879400D01*
X140450509Y-111878347D01*
X140429274Y-111875197D01*
X140408450Y-111869981D01*
X140388238Y-111862749D01*
X140368832Y-111853570D01*
X140350419Y-111842534D01*
X140333176Y-111829746D01*
X140317270Y-111815330D01*
X140302854Y-111799424D01*
X140290066Y-111782181D01*
X140279030Y-111763768D01*
X140269851Y-111744362D01*
X140262619Y-111724150D01*
X140257403Y-111703326D01*
X140254253Y-111682091D01*
X140253200Y-111660650D01*
X140253200Y-111148150D01*
X140254253Y-111126709D01*
X140257403Y-111105474D01*
X140262619Y-111084650D01*
X140269851Y-111064438D01*
X140279030Y-111045032D01*
X140290066Y-111026619D01*
X140302854Y-111009376D01*
X140317270Y-110993470D01*
X140333176Y-110979054D01*
X140350419Y-110966266D01*
X140368832Y-110955230D01*
X140388238Y-110946051D01*
X140408450Y-110938819D01*
X140429274Y-110933603D01*
X140450509Y-110930453D01*
X140471950Y-110929400D01*
X140909450Y-110929400D01*
X140930891Y-110930453D01*
X140930891Y-110930453D01*
G37*
D11*
X140690700Y-111404400D03*
G04 #@! TD*
D10*
G04 #@! TO.C,R21*
G36*
X133082091Y-111463853D02*
X133103326Y-111467003D01*
X133124150Y-111472219D01*
X133144362Y-111479451D01*
X133163768Y-111488630D01*
X133182181Y-111499666D01*
X133199424Y-111512454D01*
X133215330Y-111526870D01*
X133229746Y-111542776D01*
X133242534Y-111560019D01*
X133253570Y-111578432D01*
X133262749Y-111597838D01*
X133269981Y-111618050D01*
X133275197Y-111638874D01*
X133278347Y-111660109D01*
X133279400Y-111681550D01*
X133279400Y-112194050D01*
X133278347Y-112215491D01*
X133275197Y-112236726D01*
X133269981Y-112257550D01*
X133262749Y-112277762D01*
X133253570Y-112297168D01*
X133242534Y-112315581D01*
X133229746Y-112332824D01*
X133215330Y-112348730D01*
X133199424Y-112363146D01*
X133182181Y-112375934D01*
X133163768Y-112386970D01*
X133144362Y-112396149D01*
X133124150Y-112403381D01*
X133103326Y-112408597D01*
X133082091Y-112411747D01*
X133060650Y-112412800D01*
X132623150Y-112412800D01*
X132601709Y-112411747D01*
X132580474Y-112408597D01*
X132559650Y-112403381D01*
X132539438Y-112396149D01*
X132520032Y-112386970D01*
X132501619Y-112375934D01*
X132484376Y-112363146D01*
X132468470Y-112348730D01*
X132454054Y-112332824D01*
X132441266Y-112315581D01*
X132430230Y-112297168D01*
X132421051Y-112277762D01*
X132413819Y-112257550D01*
X132408603Y-112236726D01*
X132405453Y-112215491D01*
X132404400Y-112194050D01*
X132404400Y-111681550D01*
X132405453Y-111660109D01*
X132408603Y-111638874D01*
X132413819Y-111618050D01*
X132421051Y-111597838D01*
X132430230Y-111578432D01*
X132441266Y-111560019D01*
X132454054Y-111542776D01*
X132468470Y-111526870D01*
X132484376Y-111512454D01*
X132501619Y-111499666D01*
X132520032Y-111488630D01*
X132539438Y-111479451D01*
X132559650Y-111472219D01*
X132580474Y-111467003D01*
X132601709Y-111463853D01*
X132623150Y-111462800D01*
X133060650Y-111462800D01*
X133082091Y-111463853D01*
X133082091Y-111463853D01*
G37*
D11*
X132841900Y-111937800D03*
D10*
G36*
X134657091Y-111463853D02*
X134678326Y-111467003D01*
X134699150Y-111472219D01*
X134719362Y-111479451D01*
X134738768Y-111488630D01*
X134757181Y-111499666D01*
X134774424Y-111512454D01*
X134790330Y-111526870D01*
X134804746Y-111542776D01*
X134817534Y-111560019D01*
X134828570Y-111578432D01*
X134837749Y-111597838D01*
X134844981Y-111618050D01*
X134850197Y-111638874D01*
X134853347Y-111660109D01*
X134854400Y-111681550D01*
X134854400Y-112194050D01*
X134853347Y-112215491D01*
X134850197Y-112236726D01*
X134844981Y-112257550D01*
X134837749Y-112277762D01*
X134828570Y-112297168D01*
X134817534Y-112315581D01*
X134804746Y-112332824D01*
X134790330Y-112348730D01*
X134774424Y-112363146D01*
X134757181Y-112375934D01*
X134738768Y-112386970D01*
X134719362Y-112396149D01*
X134699150Y-112403381D01*
X134678326Y-112408597D01*
X134657091Y-112411747D01*
X134635650Y-112412800D01*
X134198150Y-112412800D01*
X134176709Y-112411747D01*
X134155474Y-112408597D01*
X134134650Y-112403381D01*
X134114438Y-112396149D01*
X134095032Y-112386970D01*
X134076619Y-112375934D01*
X134059376Y-112363146D01*
X134043470Y-112348730D01*
X134029054Y-112332824D01*
X134016266Y-112315581D01*
X134005230Y-112297168D01*
X133996051Y-112277762D01*
X133988819Y-112257550D01*
X133983603Y-112236726D01*
X133980453Y-112215491D01*
X133979400Y-112194050D01*
X133979400Y-111681550D01*
X133980453Y-111660109D01*
X133983603Y-111638874D01*
X133988819Y-111618050D01*
X133996051Y-111597838D01*
X134005230Y-111578432D01*
X134016266Y-111560019D01*
X134029054Y-111542776D01*
X134043470Y-111526870D01*
X134059376Y-111512454D01*
X134076619Y-111499666D01*
X134095032Y-111488630D01*
X134114438Y-111479451D01*
X134134650Y-111472219D01*
X134155474Y-111467003D01*
X134176709Y-111463853D01*
X134198150Y-111462800D01*
X134635650Y-111462800D01*
X134657091Y-111463853D01*
X134657091Y-111463853D01*
G37*
D11*
X134416900Y-111937800D03*
G04 #@! TD*
D10*
G04 #@! TO.C,R22*
G36*
X133082091Y-109939853D02*
X133103326Y-109943003D01*
X133124150Y-109948219D01*
X133144362Y-109955451D01*
X133163768Y-109964630D01*
X133182181Y-109975666D01*
X133199424Y-109988454D01*
X133215330Y-110002870D01*
X133229746Y-110018776D01*
X133242534Y-110036019D01*
X133253570Y-110054432D01*
X133262749Y-110073838D01*
X133269981Y-110094050D01*
X133275197Y-110114874D01*
X133278347Y-110136109D01*
X133279400Y-110157550D01*
X133279400Y-110670050D01*
X133278347Y-110691491D01*
X133275197Y-110712726D01*
X133269981Y-110733550D01*
X133262749Y-110753762D01*
X133253570Y-110773168D01*
X133242534Y-110791581D01*
X133229746Y-110808824D01*
X133215330Y-110824730D01*
X133199424Y-110839146D01*
X133182181Y-110851934D01*
X133163768Y-110862970D01*
X133144362Y-110872149D01*
X133124150Y-110879381D01*
X133103326Y-110884597D01*
X133082091Y-110887747D01*
X133060650Y-110888800D01*
X132623150Y-110888800D01*
X132601709Y-110887747D01*
X132580474Y-110884597D01*
X132559650Y-110879381D01*
X132539438Y-110872149D01*
X132520032Y-110862970D01*
X132501619Y-110851934D01*
X132484376Y-110839146D01*
X132468470Y-110824730D01*
X132454054Y-110808824D01*
X132441266Y-110791581D01*
X132430230Y-110773168D01*
X132421051Y-110753762D01*
X132413819Y-110733550D01*
X132408603Y-110712726D01*
X132405453Y-110691491D01*
X132404400Y-110670050D01*
X132404400Y-110157550D01*
X132405453Y-110136109D01*
X132408603Y-110114874D01*
X132413819Y-110094050D01*
X132421051Y-110073838D01*
X132430230Y-110054432D01*
X132441266Y-110036019D01*
X132454054Y-110018776D01*
X132468470Y-110002870D01*
X132484376Y-109988454D01*
X132501619Y-109975666D01*
X132520032Y-109964630D01*
X132539438Y-109955451D01*
X132559650Y-109948219D01*
X132580474Y-109943003D01*
X132601709Y-109939853D01*
X132623150Y-109938800D01*
X133060650Y-109938800D01*
X133082091Y-109939853D01*
X133082091Y-109939853D01*
G37*
D11*
X132841900Y-110413800D03*
D10*
G36*
X134657091Y-109939853D02*
X134678326Y-109943003D01*
X134699150Y-109948219D01*
X134719362Y-109955451D01*
X134738768Y-109964630D01*
X134757181Y-109975666D01*
X134774424Y-109988454D01*
X134790330Y-110002870D01*
X134804746Y-110018776D01*
X134817534Y-110036019D01*
X134828570Y-110054432D01*
X134837749Y-110073838D01*
X134844981Y-110094050D01*
X134850197Y-110114874D01*
X134853347Y-110136109D01*
X134854400Y-110157550D01*
X134854400Y-110670050D01*
X134853347Y-110691491D01*
X134850197Y-110712726D01*
X134844981Y-110733550D01*
X134837749Y-110753762D01*
X134828570Y-110773168D01*
X134817534Y-110791581D01*
X134804746Y-110808824D01*
X134790330Y-110824730D01*
X134774424Y-110839146D01*
X134757181Y-110851934D01*
X134738768Y-110862970D01*
X134719362Y-110872149D01*
X134699150Y-110879381D01*
X134678326Y-110884597D01*
X134657091Y-110887747D01*
X134635650Y-110888800D01*
X134198150Y-110888800D01*
X134176709Y-110887747D01*
X134155474Y-110884597D01*
X134134650Y-110879381D01*
X134114438Y-110872149D01*
X134095032Y-110862970D01*
X134076619Y-110851934D01*
X134059376Y-110839146D01*
X134043470Y-110824730D01*
X134029054Y-110808824D01*
X134016266Y-110791581D01*
X134005230Y-110773168D01*
X133996051Y-110753762D01*
X133988819Y-110733550D01*
X133983603Y-110712726D01*
X133980453Y-110691491D01*
X133979400Y-110670050D01*
X133979400Y-110157550D01*
X133980453Y-110136109D01*
X133983603Y-110114874D01*
X133988819Y-110094050D01*
X133996051Y-110073838D01*
X134005230Y-110054432D01*
X134016266Y-110036019D01*
X134029054Y-110018776D01*
X134043470Y-110002870D01*
X134059376Y-109988454D01*
X134076619Y-109975666D01*
X134095032Y-109964630D01*
X134114438Y-109955451D01*
X134134650Y-109948219D01*
X134155474Y-109943003D01*
X134176709Y-109939853D01*
X134198150Y-109938800D01*
X134635650Y-109938800D01*
X134657091Y-109939853D01*
X134657091Y-109939853D01*
G37*
D11*
X134416900Y-110413800D03*
G04 #@! TD*
D10*
G04 #@! TO.C,R23*
G36*
X133072010Y-114534775D02*
X133093245Y-114537925D01*
X133114069Y-114543141D01*
X133134281Y-114550373D01*
X133153687Y-114559552D01*
X133172100Y-114570588D01*
X133189343Y-114583376D01*
X133205249Y-114597792D01*
X133219665Y-114613698D01*
X133232453Y-114630941D01*
X133243489Y-114649354D01*
X133252668Y-114668760D01*
X133259900Y-114688972D01*
X133265116Y-114709796D01*
X133268266Y-114731031D01*
X133269319Y-114752472D01*
X133269319Y-115264972D01*
X133268266Y-115286413D01*
X133265116Y-115307648D01*
X133259900Y-115328472D01*
X133252668Y-115348684D01*
X133243489Y-115368090D01*
X133232453Y-115386503D01*
X133219665Y-115403746D01*
X133205249Y-115419652D01*
X133189343Y-115434068D01*
X133172100Y-115446856D01*
X133153687Y-115457892D01*
X133134281Y-115467071D01*
X133114069Y-115474303D01*
X133093245Y-115479519D01*
X133072010Y-115482669D01*
X133050569Y-115483722D01*
X132613069Y-115483722D01*
X132591628Y-115482669D01*
X132570393Y-115479519D01*
X132549569Y-115474303D01*
X132529357Y-115467071D01*
X132509951Y-115457892D01*
X132491538Y-115446856D01*
X132474295Y-115434068D01*
X132458389Y-115419652D01*
X132443973Y-115403746D01*
X132431185Y-115386503D01*
X132420149Y-115368090D01*
X132410970Y-115348684D01*
X132403738Y-115328472D01*
X132398522Y-115307648D01*
X132395372Y-115286413D01*
X132394319Y-115264972D01*
X132394319Y-114752472D01*
X132395372Y-114731031D01*
X132398522Y-114709796D01*
X132403738Y-114688972D01*
X132410970Y-114668760D01*
X132420149Y-114649354D01*
X132431185Y-114630941D01*
X132443973Y-114613698D01*
X132458389Y-114597792D01*
X132474295Y-114583376D01*
X132491538Y-114570588D01*
X132509951Y-114559552D01*
X132529357Y-114550373D01*
X132549569Y-114543141D01*
X132570393Y-114537925D01*
X132591628Y-114534775D01*
X132613069Y-114533722D01*
X133050569Y-114533722D01*
X133072010Y-114534775D01*
X133072010Y-114534775D01*
G37*
D11*
X132831819Y-115008722D03*
D10*
G36*
X134647010Y-114534775D02*
X134668245Y-114537925D01*
X134689069Y-114543141D01*
X134709281Y-114550373D01*
X134728687Y-114559552D01*
X134747100Y-114570588D01*
X134764343Y-114583376D01*
X134780249Y-114597792D01*
X134794665Y-114613698D01*
X134807453Y-114630941D01*
X134818489Y-114649354D01*
X134827668Y-114668760D01*
X134834900Y-114688972D01*
X134840116Y-114709796D01*
X134843266Y-114731031D01*
X134844319Y-114752472D01*
X134844319Y-115264972D01*
X134843266Y-115286413D01*
X134840116Y-115307648D01*
X134834900Y-115328472D01*
X134827668Y-115348684D01*
X134818489Y-115368090D01*
X134807453Y-115386503D01*
X134794665Y-115403746D01*
X134780249Y-115419652D01*
X134764343Y-115434068D01*
X134747100Y-115446856D01*
X134728687Y-115457892D01*
X134709281Y-115467071D01*
X134689069Y-115474303D01*
X134668245Y-115479519D01*
X134647010Y-115482669D01*
X134625569Y-115483722D01*
X134188069Y-115483722D01*
X134166628Y-115482669D01*
X134145393Y-115479519D01*
X134124569Y-115474303D01*
X134104357Y-115467071D01*
X134084951Y-115457892D01*
X134066538Y-115446856D01*
X134049295Y-115434068D01*
X134033389Y-115419652D01*
X134018973Y-115403746D01*
X134006185Y-115386503D01*
X133995149Y-115368090D01*
X133985970Y-115348684D01*
X133978738Y-115328472D01*
X133973522Y-115307648D01*
X133970372Y-115286413D01*
X133969319Y-115264972D01*
X133969319Y-114752472D01*
X133970372Y-114731031D01*
X133973522Y-114709796D01*
X133978738Y-114688972D01*
X133985970Y-114668760D01*
X133995149Y-114649354D01*
X134006185Y-114630941D01*
X134018973Y-114613698D01*
X134033389Y-114597792D01*
X134049295Y-114583376D01*
X134066538Y-114570588D01*
X134084951Y-114559552D01*
X134104357Y-114550373D01*
X134124569Y-114543141D01*
X134145393Y-114537925D01*
X134166628Y-114534775D01*
X134188069Y-114533722D01*
X134625569Y-114533722D01*
X134647010Y-114534775D01*
X134647010Y-114534775D01*
G37*
D11*
X134406819Y-115008722D03*
G04 #@! TD*
D10*
G04 #@! TO.C,R24*
G36*
X133072010Y-113010775D02*
X133093245Y-113013925D01*
X133114069Y-113019141D01*
X133134281Y-113026373D01*
X133153687Y-113035552D01*
X133172100Y-113046588D01*
X133189343Y-113059376D01*
X133205249Y-113073792D01*
X133219665Y-113089698D01*
X133232453Y-113106941D01*
X133243489Y-113125354D01*
X133252668Y-113144760D01*
X133259900Y-113164972D01*
X133265116Y-113185796D01*
X133268266Y-113207031D01*
X133269319Y-113228472D01*
X133269319Y-113740972D01*
X133268266Y-113762413D01*
X133265116Y-113783648D01*
X133259900Y-113804472D01*
X133252668Y-113824684D01*
X133243489Y-113844090D01*
X133232453Y-113862503D01*
X133219665Y-113879746D01*
X133205249Y-113895652D01*
X133189343Y-113910068D01*
X133172100Y-113922856D01*
X133153687Y-113933892D01*
X133134281Y-113943071D01*
X133114069Y-113950303D01*
X133093245Y-113955519D01*
X133072010Y-113958669D01*
X133050569Y-113959722D01*
X132613069Y-113959722D01*
X132591628Y-113958669D01*
X132570393Y-113955519D01*
X132549569Y-113950303D01*
X132529357Y-113943071D01*
X132509951Y-113933892D01*
X132491538Y-113922856D01*
X132474295Y-113910068D01*
X132458389Y-113895652D01*
X132443973Y-113879746D01*
X132431185Y-113862503D01*
X132420149Y-113844090D01*
X132410970Y-113824684D01*
X132403738Y-113804472D01*
X132398522Y-113783648D01*
X132395372Y-113762413D01*
X132394319Y-113740972D01*
X132394319Y-113228472D01*
X132395372Y-113207031D01*
X132398522Y-113185796D01*
X132403738Y-113164972D01*
X132410970Y-113144760D01*
X132420149Y-113125354D01*
X132431185Y-113106941D01*
X132443973Y-113089698D01*
X132458389Y-113073792D01*
X132474295Y-113059376D01*
X132491538Y-113046588D01*
X132509951Y-113035552D01*
X132529357Y-113026373D01*
X132549569Y-113019141D01*
X132570393Y-113013925D01*
X132591628Y-113010775D01*
X132613069Y-113009722D01*
X133050569Y-113009722D01*
X133072010Y-113010775D01*
X133072010Y-113010775D01*
G37*
D11*
X132831819Y-113484722D03*
D10*
G36*
X134647010Y-113010775D02*
X134668245Y-113013925D01*
X134689069Y-113019141D01*
X134709281Y-113026373D01*
X134728687Y-113035552D01*
X134747100Y-113046588D01*
X134764343Y-113059376D01*
X134780249Y-113073792D01*
X134794665Y-113089698D01*
X134807453Y-113106941D01*
X134818489Y-113125354D01*
X134827668Y-113144760D01*
X134834900Y-113164972D01*
X134840116Y-113185796D01*
X134843266Y-113207031D01*
X134844319Y-113228472D01*
X134844319Y-113740972D01*
X134843266Y-113762413D01*
X134840116Y-113783648D01*
X134834900Y-113804472D01*
X134827668Y-113824684D01*
X134818489Y-113844090D01*
X134807453Y-113862503D01*
X134794665Y-113879746D01*
X134780249Y-113895652D01*
X134764343Y-113910068D01*
X134747100Y-113922856D01*
X134728687Y-113933892D01*
X134709281Y-113943071D01*
X134689069Y-113950303D01*
X134668245Y-113955519D01*
X134647010Y-113958669D01*
X134625569Y-113959722D01*
X134188069Y-113959722D01*
X134166628Y-113958669D01*
X134145393Y-113955519D01*
X134124569Y-113950303D01*
X134104357Y-113943071D01*
X134084951Y-113933892D01*
X134066538Y-113922856D01*
X134049295Y-113910068D01*
X134033389Y-113895652D01*
X134018973Y-113879746D01*
X134006185Y-113862503D01*
X133995149Y-113844090D01*
X133985970Y-113824684D01*
X133978738Y-113804472D01*
X133973522Y-113783648D01*
X133970372Y-113762413D01*
X133969319Y-113740972D01*
X133969319Y-113228472D01*
X133970372Y-113207031D01*
X133973522Y-113185796D01*
X133978738Y-113164972D01*
X133985970Y-113144760D01*
X133995149Y-113125354D01*
X134006185Y-113106941D01*
X134018973Y-113089698D01*
X134033389Y-113073792D01*
X134049295Y-113059376D01*
X134066538Y-113046588D01*
X134084951Y-113035552D01*
X134104357Y-113026373D01*
X134124569Y-113019141D01*
X134145393Y-113013925D01*
X134166628Y-113010775D01*
X134188069Y-113009722D01*
X134625569Y-113009722D01*
X134647010Y-113010775D01*
X134647010Y-113010775D01*
G37*
D11*
X134406819Y-113484722D03*
G04 #@! TD*
D10*
G04 #@! TO.C,C5*
G36*
X127607891Y-90546253D02*
X127629126Y-90549403D01*
X127649950Y-90554619D01*
X127670162Y-90561851D01*
X127689568Y-90571030D01*
X127707981Y-90582066D01*
X127725224Y-90594854D01*
X127741130Y-90609270D01*
X127755546Y-90625176D01*
X127768334Y-90642419D01*
X127779370Y-90660832D01*
X127788549Y-90680238D01*
X127795781Y-90700450D01*
X127800997Y-90721274D01*
X127804147Y-90742509D01*
X127805200Y-90763950D01*
X127805200Y-91201450D01*
X127804147Y-91222891D01*
X127800997Y-91244126D01*
X127795781Y-91264950D01*
X127788549Y-91285162D01*
X127779370Y-91304568D01*
X127768334Y-91322981D01*
X127755546Y-91340224D01*
X127741130Y-91356130D01*
X127725224Y-91370546D01*
X127707981Y-91383334D01*
X127689568Y-91394370D01*
X127670162Y-91403549D01*
X127649950Y-91410781D01*
X127629126Y-91415997D01*
X127607891Y-91419147D01*
X127586450Y-91420200D01*
X127073950Y-91420200D01*
X127052509Y-91419147D01*
X127031274Y-91415997D01*
X127010450Y-91410781D01*
X126990238Y-91403549D01*
X126970832Y-91394370D01*
X126952419Y-91383334D01*
X126935176Y-91370546D01*
X126919270Y-91356130D01*
X126904854Y-91340224D01*
X126892066Y-91322981D01*
X126881030Y-91304568D01*
X126871851Y-91285162D01*
X126864619Y-91264950D01*
X126859403Y-91244126D01*
X126856253Y-91222891D01*
X126855200Y-91201450D01*
X126855200Y-90763950D01*
X126856253Y-90742509D01*
X126859403Y-90721274D01*
X126864619Y-90700450D01*
X126871851Y-90680238D01*
X126881030Y-90660832D01*
X126892066Y-90642419D01*
X126904854Y-90625176D01*
X126919270Y-90609270D01*
X126935176Y-90594854D01*
X126952419Y-90582066D01*
X126970832Y-90571030D01*
X126990238Y-90561851D01*
X127010450Y-90554619D01*
X127031274Y-90549403D01*
X127052509Y-90546253D01*
X127073950Y-90545200D01*
X127586450Y-90545200D01*
X127607891Y-90546253D01*
X127607891Y-90546253D01*
G37*
D11*
X127330200Y-90982700D03*
D10*
G36*
X127607891Y-92121253D02*
X127629126Y-92124403D01*
X127649950Y-92129619D01*
X127670162Y-92136851D01*
X127689568Y-92146030D01*
X127707981Y-92157066D01*
X127725224Y-92169854D01*
X127741130Y-92184270D01*
X127755546Y-92200176D01*
X127768334Y-92217419D01*
X127779370Y-92235832D01*
X127788549Y-92255238D01*
X127795781Y-92275450D01*
X127800997Y-92296274D01*
X127804147Y-92317509D01*
X127805200Y-92338950D01*
X127805200Y-92776450D01*
X127804147Y-92797891D01*
X127800997Y-92819126D01*
X127795781Y-92839950D01*
X127788549Y-92860162D01*
X127779370Y-92879568D01*
X127768334Y-92897981D01*
X127755546Y-92915224D01*
X127741130Y-92931130D01*
X127725224Y-92945546D01*
X127707981Y-92958334D01*
X127689568Y-92969370D01*
X127670162Y-92978549D01*
X127649950Y-92985781D01*
X127629126Y-92990997D01*
X127607891Y-92994147D01*
X127586450Y-92995200D01*
X127073950Y-92995200D01*
X127052509Y-92994147D01*
X127031274Y-92990997D01*
X127010450Y-92985781D01*
X126990238Y-92978549D01*
X126970832Y-92969370D01*
X126952419Y-92958334D01*
X126935176Y-92945546D01*
X126919270Y-92931130D01*
X126904854Y-92915224D01*
X126892066Y-92897981D01*
X126881030Y-92879568D01*
X126871851Y-92860162D01*
X126864619Y-92839950D01*
X126859403Y-92819126D01*
X126856253Y-92797891D01*
X126855200Y-92776450D01*
X126855200Y-92338950D01*
X126856253Y-92317509D01*
X126859403Y-92296274D01*
X126864619Y-92275450D01*
X126871851Y-92255238D01*
X126881030Y-92235832D01*
X126892066Y-92217419D01*
X126904854Y-92200176D01*
X126919270Y-92184270D01*
X126935176Y-92169854D01*
X126952419Y-92157066D01*
X126970832Y-92146030D01*
X126990238Y-92136851D01*
X127010450Y-92129619D01*
X127031274Y-92124403D01*
X127052509Y-92121253D01*
X127073950Y-92120200D01*
X127586450Y-92120200D01*
X127607891Y-92121253D01*
X127607891Y-92121253D01*
G37*
D11*
X127330200Y-92557700D03*
G04 #@! TD*
D10*
G04 #@! TO.C,C9*
G36*
X129170491Y-96223853D02*
X129191726Y-96227003D01*
X129212550Y-96232219D01*
X129232762Y-96239451D01*
X129252168Y-96248630D01*
X129270581Y-96259666D01*
X129287824Y-96272454D01*
X129303730Y-96286870D01*
X129318146Y-96302776D01*
X129330934Y-96320019D01*
X129341970Y-96338432D01*
X129351149Y-96357838D01*
X129358381Y-96378050D01*
X129363597Y-96398874D01*
X129366747Y-96420109D01*
X129367800Y-96441550D01*
X129367800Y-96954050D01*
X129366747Y-96975491D01*
X129363597Y-96996726D01*
X129358381Y-97017550D01*
X129351149Y-97037762D01*
X129341970Y-97057168D01*
X129330934Y-97075581D01*
X129318146Y-97092824D01*
X129303730Y-97108730D01*
X129287824Y-97123146D01*
X129270581Y-97135934D01*
X129252168Y-97146970D01*
X129232762Y-97156149D01*
X129212550Y-97163381D01*
X129191726Y-97168597D01*
X129170491Y-97171747D01*
X129149050Y-97172800D01*
X128711550Y-97172800D01*
X128690109Y-97171747D01*
X128668874Y-97168597D01*
X128648050Y-97163381D01*
X128627838Y-97156149D01*
X128608432Y-97146970D01*
X128590019Y-97135934D01*
X128572776Y-97123146D01*
X128556870Y-97108730D01*
X128542454Y-97092824D01*
X128529666Y-97075581D01*
X128518630Y-97057168D01*
X128509451Y-97037762D01*
X128502219Y-97017550D01*
X128497003Y-96996726D01*
X128493853Y-96975491D01*
X128492800Y-96954050D01*
X128492800Y-96441550D01*
X128493853Y-96420109D01*
X128497003Y-96398874D01*
X128502219Y-96378050D01*
X128509451Y-96357838D01*
X128518630Y-96338432D01*
X128529666Y-96320019D01*
X128542454Y-96302776D01*
X128556870Y-96286870D01*
X128572776Y-96272454D01*
X128590019Y-96259666D01*
X128608432Y-96248630D01*
X128627838Y-96239451D01*
X128648050Y-96232219D01*
X128668874Y-96227003D01*
X128690109Y-96223853D01*
X128711550Y-96222800D01*
X129149050Y-96222800D01*
X129170491Y-96223853D01*
X129170491Y-96223853D01*
G37*
D11*
X128930300Y-96697800D03*
D10*
G36*
X130745491Y-96223853D02*
X130766726Y-96227003D01*
X130787550Y-96232219D01*
X130807762Y-96239451D01*
X130827168Y-96248630D01*
X130845581Y-96259666D01*
X130862824Y-96272454D01*
X130878730Y-96286870D01*
X130893146Y-96302776D01*
X130905934Y-96320019D01*
X130916970Y-96338432D01*
X130926149Y-96357838D01*
X130933381Y-96378050D01*
X130938597Y-96398874D01*
X130941747Y-96420109D01*
X130942800Y-96441550D01*
X130942800Y-96954050D01*
X130941747Y-96975491D01*
X130938597Y-96996726D01*
X130933381Y-97017550D01*
X130926149Y-97037762D01*
X130916970Y-97057168D01*
X130905934Y-97075581D01*
X130893146Y-97092824D01*
X130878730Y-97108730D01*
X130862824Y-97123146D01*
X130845581Y-97135934D01*
X130827168Y-97146970D01*
X130807762Y-97156149D01*
X130787550Y-97163381D01*
X130766726Y-97168597D01*
X130745491Y-97171747D01*
X130724050Y-97172800D01*
X130286550Y-97172800D01*
X130265109Y-97171747D01*
X130243874Y-97168597D01*
X130223050Y-97163381D01*
X130202838Y-97156149D01*
X130183432Y-97146970D01*
X130165019Y-97135934D01*
X130147776Y-97123146D01*
X130131870Y-97108730D01*
X130117454Y-97092824D01*
X130104666Y-97075581D01*
X130093630Y-97057168D01*
X130084451Y-97037762D01*
X130077219Y-97017550D01*
X130072003Y-96996726D01*
X130068853Y-96975491D01*
X130067800Y-96954050D01*
X130067800Y-96441550D01*
X130068853Y-96420109D01*
X130072003Y-96398874D01*
X130077219Y-96378050D01*
X130084451Y-96357838D01*
X130093630Y-96338432D01*
X130104666Y-96320019D01*
X130117454Y-96302776D01*
X130131870Y-96286870D01*
X130147776Y-96272454D01*
X130165019Y-96259666D01*
X130183432Y-96248630D01*
X130202838Y-96239451D01*
X130223050Y-96232219D01*
X130243874Y-96227003D01*
X130265109Y-96223853D01*
X130286550Y-96222800D01*
X130724050Y-96222800D01*
X130745491Y-96223853D01*
X130745491Y-96223853D01*
G37*
D11*
X130505300Y-96697800D03*
G04 #@! TD*
D10*
G04 #@! TO.C,R10*
G36*
X129119691Y-93887053D02*
X129140926Y-93890203D01*
X129161750Y-93895419D01*
X129181962Y-93902651D01*
X129201368Y-93911830D01*
X129219781Y-93922866D01*
X129237024Y-93935654D01*
X129252930Y-93950070D01*
X129267346Y-93965976D01*
X129280134Y-93983219D01*
X129291170Y-94001632D01*
X129300349Y-94021038D01*
X129307581Y-94041250D01*
X129312797Y-94062074D01*
X129315947Y-94083309D01*
X129317000Y-94104750D01*
X129317000Y-94617250D01*
X129315947Y-94638691D01*
X129312797Y-94659926D01*
X129307581Y-94680750D01*
X129300349Y-94700962D01*
X129291170Y-94720368D01*
X129280134Y-94738781D01*
X129267346Y-94756024D01*
X129252930Y-94771930D01*
X129237024Y-94786346D01*
X129219781Y-94799134D01*
X129201368Y-94810170D01*
X129181962Y-94819349D01*
X129161750Y-94826581D01*
X129140926Y-94831797D01*
X129119691Y-94834947D01*
X129098250Y-94836000D01*
X128660750Y-94836000D01*
X128639309Y-94834947D01*
X128618074Y-94831797D01*
X128597250Y-94826581D01*
X128577038Y-94819349D01*
X128557632Y-94810170D01*
X128539219Y-94799134D01*
X128521976Y-94786346D01*
X128506070Y-94771930D01*
X128491654Y-94756024D01*
X128478866Y-94738781D01*
X128467830Y-94720368D01*
X128458651Y-94700962D01*
X128451419Y-94680750D01*
X128446203Y-94659926D01*
X128443053Y-94638691D01*
X128442000Y-94617250D01*
X128442000Y-94104750D01*
X128443053Y-94083309D01*
X128446203Y-94062074D01*
X128451419Y-94041250D01*
X128458651Y-94021038D01*
X128467830Y-94001632D01*
X128478866Y-93983219D01*
X128491654Y-93965976D01*
X128506070Y-93950070D01*
X128521976Y-93935654D01*
X128539219Y-93922866D01*
X128557632Y-93911830D01*
X128577038Y-93902651D01*
X128597250Y-93895419D01*
X128618074Y-93890203D01*
X128639309Y-93887053D01*
X128660750Y-93886000D01*
X129098250Y-93886000D01*
X129119691Y-93887053D01*
X129119691Y-93887053D01*
G37*
D11*
X128879500Y-94361000D03*
D10*
G36*
X130694691Y-93887053D02*
X130715926Y-93890203D01*
X130736750Y-93895419D01*
X130756962Y-93902651D01*
X130776368Y-93911830D01*
X130794781Y-93922866D01*
X130812024Y-93935654D01*
X130827930Y-93950070D01*
X130842346Y-93965976D01*
X130855134Y-93983219D01*
X130866170Y-94001632D01*
X130875349Y-94021038D01*
X130882581Y-94041250D01*
X130887797Y-94062074D01*
X130890947Y-94083309D01*
X130892000Y-94104750D01*
X130892000Y-94617250D01*
X130890947Y-94638691D01*
X130887797Y-94659926D01*
X130882581Y-94680750D01*
X130875349Y-94700962D01*
X130866170Y-94720368D01*
X130855134Y-94738781D01*
X130842346Y-94756024D01*
X130827930Y-94771930D01*
X130812024Y-94786346D01*
X130794781Y-94799134D01*
X130776368Y-94810170D01*
X130756962Y-94819349D01*
X130736750Y-94826581D01*
X130715926Y-94831797D01*
X130694691Y-94834947D01*
X130673250Y-94836000D01*
X130235750Y-94836000D01*
X130214309Y-94834947D01*
X130193074Y-94831797D01*
X130172250Y-94826581D01*
X130152038Y-94819349D01*
X130132632Y-94810170D01*
X130114219Y-94799134D01*
X130096976Y-94786346D01*
X130081070Y-94771930D01*
X130066654Y-94756024D01*
X130053866Y-94738781D01*
X130042830Y-94720368D01*
X130033651Y-94700962D01*
X130026419Y-94680750D01*
X130021203Y-94659926D01*
X130018053Y-94638691D01*
X130017000Y-94617250D01*
X130017000Y-94104750D01*
X130018053Y-94083309D01*
X130021203Y-94062074D01*
X130026419Y-94041250D01*
X130033651Y-94021038D01*
X130042830Y-94001632D01*
X130053866Y-93983219D01*
X130066654Y-93965976D01*
X130081070Y-93950070D01*
X130096976Y-93935654D01*
X130114219Y-93922866D01*
X130132632Y-93911830D01*
X130152038Y-93902651D01*
X130172250Y-93895419D01*
X130193074Y-93890203D01*
X130214309Y-93887053D01*
X130235750Y-93886000D01*
X130673250Y-93886000D01*
X130694691Y-93887053D01*
X130694691Y-93887053D01*
G37*
D11*
X130454500Y-94361000D03*
G04 #@! TD*
M02*
