G04 #@! TF.GenerationSoftware,KiCad,Pcbnew,5.0.2-bee76a0~70~ubuntu18.04.1*
G04 #@! TF.CreationDate,2019-03-01T11:09:08-06:00*
G04 #@! TF.ProjectId,MotorDriverXL,4d6f746f-7244-4726-9976-6572584c2e6b,V1.0*
G04 #@! TF.SameCoordinates,Original*
G04 #@! TF.FileFunction,Copper,L4,Bot*
G04 #@! TF.FilePolarity,Positive*
%FSLAX46Y46*%
G04 Gerber Fmt 4.6, Leading zero omitted, Abs format (unit mm)*
G04 Created by KiCad (PCBNEW 5.0.2-bee76a0~70~ubuntu18.04.1) date Fri 01 Mar 2019 11:09:08 AM CST*
%MOMM*%
%LPD*%
G01*
G04 APERTURE LIST*
G04 #@! TA.AperFunction,SMDPad,CuDef*
%ADD10R,2.000000X2.000000*%
G04 #@! TD*
G04 #@! TA.AperFunction,SMDPad,CuDef*
%ADD11R,4.000000X5.000000*%
G04 #@! TD*
G04 #@! TA.AperFunction,SMDPad,CuDef*
%ADD12R,5.000000X4.000000*%
G04 #@! TD*
G04 #@! TA.AperFunction,ComponentPad*
%ADD13O,1.700000X1.700000*%
G04 #@! TD*
G04 #@! TA.AperFunction,ComponentPad*
%ADD14R,1.700000X1.700000*%
G04 #@! TD*
G04 #@! TA.AperFunction,Conductor*
%ADD15C,0.100000*%
G04 #@! TD*
G04 #@! TA.AperFunction,SMDPad,CuDef*
%ADD16C,0.875000*%
G04 #@! TD*
G04 #@! TA.AperFunction,ComponentPad*
%ADD17C,2.000000*%
G04 #@! TD*
G04 #@! TA.AperFunction,ComponentPad*
%ADD18R,2.000000X2.000000*%
G04 #@! TD*
G04 #@! TA.AperFunction,ComponentPad*
%ADD19O,1.600000X0.900000*%
G04 #@! TD*
G04 #@! TA.AperFunction,ViaPad*
%ADD20C,1.524000*%
G04 #@! TD*
G04 #@! TA.AperFunction,ViaPad*
%ADD21C,0.685800*%
G04 #@! TD*
G04 #@! TA.AperFunction,Conductor*
%ADD22C,0.889000*%
G04 #@! TD*
G04 #@! TA.AperFunction,Conductor*
%ADD23C,0.635000*%
G04 #@! TD*
G04 #@! TA.AperFunction,Conductor*
%ADD24C,0.304800*%
G04 #@! TD*
G04 #@! TA.AperFunction,Conductor*
%ADD25C,1.016000*%
G04 #@! TD*
G04 #@! TA.AperFunction,Conductor*
%ADD26C,0.254000*%
G04 #@! TD*
G04 APERTURE END LIST*
D10*
G04 #@! TO.P,TP13,1*
G04 #@! TO.N,SL_B*
X146685000Y-105029000D03*
G04 #@! TD*
G04 #@! TO.P,TP6,1*
G04 #@! TO.N,GH_A*
X148082000Y-73660000D03*
G04 #@! TD*
G04 #@! TO.P,TP7,1*
G04 #@! TO.N,GL_A*
X146558000Y-87249000D03*
G04 #@! TD*
G04 #@! TO.P,TP9,1*
G04 #@! TO.N,SL_A*
X146431000Y-100203000D03*
G04 #@! TD*
D11*
G04 #@! TO.P,P5,1*
G04 #@! TO.N,SH_A*
X168783000Y-81407000D03*
G04 #@! TD*
D12*
G04 #@! TO.P,P9,1*
G04 #@! TO.N,GND*
X147853400Y-126111000D03*
G04 #@! TD*
G04 #@! TO.P,P8,1*
G04 #@! TO.N,V_SUPPLY*
X163245800Y-64947800D03*
G04 #@! TD*
D11*
G04 #@! TO.P,P7,1*
G04 #@! TO.N,SH_C*
X168859200Y-111709200D03*
G04 #@! TD*
G04 #@! TO.P,P6,1*
G04 #@! TO.N,SH_B*
X168859200Y-96647000D03*
G04 #@! TD*
D13*
G04 #@! TO.P,P4,5*
G04 #@! TO.N,NRST*
X121691400Y-64185800D03*
G04 #@! TO.P,P4,4*
G04 #@! TO.N,SWDIO*
X119151400Y-64185800D03*
G04 #@! TO.P,P4,3*
G04 #@! TO.N,GND*
X116611400Y-64185800D03*
G04 #@! TO.P,P4,2*
G04 #@! TO.N,SWCLK*
X114071400Y-64185800D03*
D14*
G04 #@! TO.P,P4,1*
G04 #@! TO.N,VCC_3V3*
X111531400Y-64185800D03*
G04 #@! TD*
D13*
G04 #@! TO.P,P2,5*
G04 #@! TO.N,GND*
X105283000Y-96647000D03*
G04 #@! TO.P,P2,4*
G04 #@! TO.N,HALL_C*
X105283000Y-99187000D03*
G04 #@! TO.P,P2,3*
G04 #@! TO.N,HALL_B*
X105283000Y-101727000D03*
G04 #@! TO.P,P2,2*
G04 #@! TO.N,HALL_A*
X105283000Y-104267000D03*
D14*
G04 #@! TO.P,P2,1*
G04 #@! TO.N,5V*
X105283000Y-106807000D03*
G04 #@! TD*
D13*
G04 #@! TO.P,P3,8*
G04 #@! TO.N,SCK_ADC_EXT1*
X116763800Y-126873000D03*
G04 #@! TO.P,P3,7*
G04 #@! TO.N,MISO_ADC_EXT2*
X119303800Y-126873000D03*
G04 #@! TO.P,P3,6*
G04 #@! TO.N,MOSI_TX_SCL*
X121843800Y-126873000D03*
G04 #@! TO.P,P3,5*
G04 #@! TO.N,NSS_RX_SDA*
X124383800Y-126873000D03*
G04 #@! TO.P,P3,4*
G04 #@! TO.N,ADC_EXT3*
X126923800Y-126873000D03*
G04 #@! TO.P,P3,3*
G04 #@! TO.N,GND*
X129463800Y-126873000D03*
G04 #@! TO.P,P3,2*
G04 #@! TO.N,VCC_3V3*
X132003800Y-126873000D03*
D14*
G04 #@! TO.P,P3,1*
G04 #@! TO.N,5V*
X134543800Y-126873000D03*
G04 #@! TD*
D13*
G04 #@! TO.P,P1,4*
G04 #@! TO.N,GND*
X105156000Y-86233000D03*
G04 #@! TO.P,P1,3*
G04 #@! TO.N,Net-(P1-Pad3)*
X105156000Y-83693000D03*
G04 #@! TO.P,P1,2*
G04 #@! TO.N,Net-(P1-Pad2)*
X105156000Y-81153000D03*
D14*
G04 #@! TO.P,P1,1*
G04 #@! TO.N,5V*
X105156000Y-78613000D03*
G04 #@! TD*
D15*
G04 #@! TO.N,GND*
G04 #@! TO.C,C38*
G36*
X121398091Y-93683853D02*
X121419326Y-93687003D01*
X121440150Y-93692219D01*
X121460362Y-93699451D01*
X121479768Y-93708630D01*
X121498181Y-93719666D01*
X121515424Y-93732454D01*
X121531330Y-93746870D01*
X121545746Y-93762776D01*
X121558534Y-93780019D01*
X121569570Y-93798432D01*
X121578749Y-93817838D01*
X121585981Y-93838050D01*
X121591197Y-93858874D01*
X121594347Y-93880109D01*
X121595400Y-93901550D01*
X121595400Y-94414050D01*
X121594347Y-94435491D01*
X121591197Y-94456726D01*
X121585981Y-94477550D01*
X121578749Y-94497762D01*
X121569570Y-94517168D01*
X121558534Y-94535581D01*
X121545746Y-94552824D01*
X121531330Y-94568730D01*
X121515424Y-94583146D01*
X121498181Y-94595934D01*
X121479768Y-94606970D01*
X121460362Y-94616149D01*
X121440150Y-94623381D01*
X121419326Y-94628597D01*
X121398091Y-94631747D01*
X121376650Y-94632800D01*
X120939150Y-94632800D01*
X120917709Y-94631747D01*
X120896474Y-94628597D01*
X120875650Y-94623381D01*
X120855438Y-94616149D01*
X120836032Y-94606970D01*
X120817619Y-94595934D01*
X120800376Y-94583146D01*
X120784470Y-94568730D01*
X120770054Y-94552824D01*
X120757266Y-94535581D01*
X120746230Y-94517168D01*
X120737051Y-94497762D01*
X120729819Y-94477550D01*
X120724603Y-94456726D01*
X120721453Y-94435491D01*
X120720400Y-94414050D01*
X120720400Y-93901550D01*
X120721453Y-93880109D01*
X120724603Y-93858874D01*
X120729819Y-93838050D01*
X120737051Y-93817838D01*
X120746230Y-93798432D01*
X120757266Y-93780019D01*
X120770054Y-93762776D01*
X120784470Y-93746870D01*
X120800376Y-93732454D01*
X120817619Y-93719666D01*
X120836032Y-93708630D01*
X120855438Y-93699451D01*
X120875650Y-93692219D01*
X120896474Y-93687003D01*
X120917709Y-93683853D01*
X120939150Y-93682800D01*
X121376650Y-93682800D01*
X121398091Y-93683853D01*
X121398091Y-93683853D01*
G37*
D16*
G04 #@! TD*
G04 #@! TO.P,C38,2*
G04 #@! TO.N,GND*
X121157900Y-94157800D03*
D15*
G04 #@! TO.N,Net-(C38-Pad1)*
G04 #@! TO.C,C38*
G36*
X122973091Y-93683853D02*
X122994326Y-93687003D01*
X123015150Y-93692219D01*
X123035362Y-93699451D01*
X123054768Y-93708630D01*
X123073181Y-93719666D01*
X123090424Y-93732454D01*
X123106330Y-93746870D01*
X123120746Y-93762776D01*
X123133534Y-93780019D01*
X123144570Y-93798432D01*
X123153749Y-93817838D01*
X123160981Y-93838050D01*
X123166197Y-93858874D01*
X123169347Y-93880109D01*
X123170400Y-93901550D01*
X123170400Y-94414050D01*
X123169347Y-94435491D01*
X123166197Y-94456726D01*
X123160981Y-94477550D01*
X123153749Y-94497762D01*
X123144570Y-94517168D01*
X123133534Y-94535581D01*
X123120746Y-94552824D01*
X123106330Y-94568730D01*
X123090424Y-94583146D01*
X123073181Y-94595934D01*
X123054768Y-94606970D01*
X123035362Y-94616149D01*
X123015150Y-94623381D01*
X122994326Y-94628597D01*
X122973091Y-94631747D01*
X122951650Y-94632800D01*
X122514150Y-94632800D01*
X122492709Y-94631747D01*
X122471474Y-94628597D01*
X122450650Y-94623381D01*
X122430438Y-94616149D01*
X122411032Y-94606970D01*
X122392619Y-94595934D01*
X122375376Y-94583146D01*
X122359470Y-94568730D01*
X122345054Y-94552824D01*
X122332266Y-94535581D01*
X122321230Y-94517168D01*
X122312051Y-94497762D01*
X122304819Y-94477550D01*
X122299603Y-94456726D01*
X122296453Y-94435491D01*
X122295400Y-94414050D01*
X122295400Y-93901550D01*
X122296453Y-93880109D01*
X122299603Y-93858874D01*
X122304819Y-93838050D01*
X122312051Y-93817838D01*
X122321230Y-93798432D01*
X122332266Y-93780019D01*
X122345054Y-93762776D01*
X122359470Y-93746870D01*
X122375376Y-93732454D01*
X122392619Y-93719666D01*
X122411032Y-93708630D01*
X122430438Y-93699451D01*
X122450650Y-93692219D01*
X122471474Y-93687003D01*
X122492709Y-93683853D01*
X122514150Y-93682800D01*
X122951650Y-93682800D01*
X122973091Y-93683853D01*
X122973091Y-93683853D01*
G37*
D16*
G04 #@! TD*
G04 #@! TO.P,C38,1*
G04 #@! TO.N,Net-(C38-Pad1)*
X122732900Y-94157800D03*
D15*
G04 #@! TO.N,GND*
G04 #@! TO.C,C36*
G36*
X118324991Y-94649053D02*
X118346226Y-94652203D01*
X118367050Y-94657419D01*
X118387262Y-94664651D01*
X118406668Y-94673830D01*
X118425081Y-94684866D01*
X118442324Y-94697654D01*
X118458230Y-94712070D01*
X118472646Y-94727976D01*
X118485434Y-94745219D01*
X118496470Y-94763632D01*
X118505649Y-94783038D01*
X118512881Y-94803250D01*
X118518097Y-94824074D01*
X118521247Y-94845309D01*
X118522300Y-94866750D01*
X118522300Y-95379250D01*
X118521247Y-95400691D01*
X118518097Y-95421926D01*
X118512881Y-95442750D01*
X118505649Y-95462962D01*
X118496470Y-95482368D01*
X118485434Y-95500781D01*
X118472646Y-95518024D01*
X118458230Y-95533930D01*
X118442324Y-95548346D01*
X118425081Y-95561134D01*
X118406668Y-95572170D01*
X118387262Y-95581349D01*
X118367050Y-95588581D01*
X118346226Y-95593797D01*
X118324991Y-95596947D01*
X118303550Y-95598000D01*
X117866050Y-95598000D01*
X117844609Y-95596947D01*
X117823374Y-95593797D01*
X117802550Y-95588581D01*
X117782338Y-95581349D01*
X117762932Y-95572170D01*
X117744519Y-95561134D01*
X117727276Y-95548346D01*
X117711370Y-95533930D01*
X117696954Y-95518024D01*
X117684166Y-95500781D01*
X117673130Y-95482368D01*
X117663951Y-95462962D01*
X117656719Y-95442750D01*
X117651503Y-95421926D01*
X117648353Y-95400691D01*
X117647300Y-95379250D01*
X117647300Y-94866750D01*
X117648353Y-94845309D01*
X117651503Y-94824074D01*
X117656719Y-94803250D01*
X117663951Y-94783038D01*
X117673130Y-94763632D01*
X117684166Y-94745219D01*
X117696954Y-94727976D01*
X117711370Y-94712070D01*
X117727276Y-94697654D01*
X117744519Y-94684866D01*
X117762932Y-94673830D01*
X117782338Y-94664651D01*
X117802550Y-94657419D01*
X117823374Y-94652203D01*
X117844609Y-94649053D01*
X117866050Y-94648000D01*
X118303550Y-94648000D01*
X118324991Y-94649053D01*
X118324991Y-94649053D01*
G37*
D16*
G04 #@! TD*
G04 #@! TO.P,C36,2*
G04 #@! TO.N,GND*
X118084800Y-95123000D03*
D15*
G04 #@! TO.N,NRST*
G04 #@! TO.C,C36*
G36*
X116749991Y-94649053D02*
X116771226Y-94652203D01*
X116792050Y-94657419D01*
X116812262Y-94664651D01*
X116831668Y-94673830D01*
X116850081Y-94684866D01*
X116867324Y-94697654D01*
X116883230Y-94712070D01*
X116897646Y-94727976D01*
X116910434Y-94745219D01*
X116921470Y-94763632D01*
X116930649Y-94783038D01*
X116937881Y-94803250D01*
X116943097Y-94824074D01*
X116946247Y-94845309D01*
X116947300Y-94866750D01*
X116947300Y-95379250D01*
X116946247Y-95400691D01*
X116943097Y-95421926D01*
X116937881Y-95442750D01*
X116930649Y-95462962D01*
X116921470Y-95482368D01*
X116910434Y-95500781D01*
X116897646Y-95518024D01*
X116883230Y-95533930D01*
X116867324Y-95548346D01*
X116850081Y-95561134D01*
X116831668Y-95572170D01*
X116812262Y-95581349D01*
X116792050Y-95588581D01*
X116771226Y-95593797D01*
X116749991Y-95596947D01*
X116728550Y-95598000D01*
X116291050Y-95598000D01*
X116269609Y-95596947D01*
X116248374Y-95593797D01*
X116227550Y-95588581D01*
X116207338Y-95581349D01*
X116187932Y-95572170D01*
X116169519Y-95561134D01*
X116152276Y-95548346D01*
X116136370Y-95533930D01*
X116121954Y-95518024D01*
X116109166Y-95500781D01*
X116098130Y-95482368D01*
X116088951Y-95462962D01*
X116081719Y-95442750D01*
X116076503Y-95421926D01*
X116073353Y-95400691D01*
X116072300Y-95379250D01*
X116072300Y-94866750D01*
X116073353Y-94845309D01*
X116076503Y-94824074D01*
X116081719Y-94803250D01*
X116088951Y-94783038D01*
X116098130Y-94763632D01*
X116109166Y-94745219D01*
X116121954Y-94727976D01*
X116136370Y-94712070D01*
X116152276Y-94697654D01*
X116169519Y-94684866D01*
X116187932Y-94673830D01*
X116207338Y-94664651D01*
X116227550Y-94657419D01*
X116248374Y-94652203D01*
X116269609Y-94649053D01*
X116291050Y-94648000D01*
X116728550Y-94648000D01*
X116749991Y-94649053D01*
X116749991Y-94649053D01*
G37*
D16*
G04 #@! TD*
G04 #@! TO.P,C36,1*
G04 #@! TO.N,NRST*
X116509800Y-95123000D03*
D17*
G04 #@! TO.P,C31,2*
G04 #@! TO.N,GND*
X153572200Y-67564000D03*
D18*
G04 #@! TO.P,C31,1*
G04 #@! TO.N,V_SUPPLY*
X158572200Y-67564000D03*
G04 #@! TD*
D17*
G04 #@! TO.P,C33,2*
G04 #@! TO.N,GND*
X153572200Y-123444000D03*
D18*
G04 #@! TO.P,C33,1*
G04 #@! TO.N,V_SUPPLY*
X158572200Y-123444000D03*
G04 #@! TD*
D15*
G04 #@! TO.N,SENS_C*
G04 #@! TO.C,R26*
G36*
X133082091Y-117610653D02*
X133103326Y-117613803D01*
X133124150Y-117619019D01*
X133144362Y-117626251D01*
X133163768Y-117635430D01*
X133182181Y-117646466D01*
X133199424Y-117659254D01*
X133215330Y-117673670D01*
X133229746Y-117689576D01*
X133242534Y-117706819D01*
X133253570Y-117725232D01*
X133262749Y-117744638D01*
X133269981Y-117764850D01*
X133275197Y-117785674D01*
X133278347Y-117806909D01*
X133279400Y-117828350D01*
X133279400Y-118340850D01*
X133278347Y-118362291D01*
X133275197Y-118383526D01*
X133269981Y-118404350D01*
X133262749Y-118424562D01*
X133253570Y-118443968D01*
X133242534Y-118462381D01*
X133229746Y-118479624D01*
X133215330Y-118495530D01*
X133199424Y-118509946D01*
X133182181Y-118522734D01*
X133163768Y-118533770D01*
X133144362Y-118542949D01*
X133124150Y-118550181D01*
X133103326Y-118555397D01*
X133082091Y-118558547D01*
X133060650Y-118559600D01*
X132623150Y-118559600D01*
X132601709Y-118558547D01*
X132580474Y-118555397D01*
X132559650Y-118550181D01*
X132539438Y-118542949D01*
X132520032Y-118533770D01*
X132501619Y-118522734D01*
X132484376Y-118509946D01*
X132468470Y-118495530D01*
X132454054Y-118479624D01*
X132441266Y-118462381D01*
X132430230Y-118443968D01*
X132421051Y-118424562D01*
X132413819Y-118404350D01*
X132408603Y-118383526D01*
X132405453Y-118362291D01*
X132404400Y-118340850D01*
X132404400Y-117828350D01*
X132405453Y-117806909D01*
X132408603Y-117785674D01*
X132413819Y-117764850D01*
X132421051Y-117744638D01*
X132430230Y-117725232D01*
X132441266Y-117706819D01*
X132454054Y-117689576D01*
X132468470Y-117673670D01*
X132484376Y-117659254D01*
X132501619Y-117646466D01*
X132520032Y-117635430D01*
X132539438Y-117626251D01*
X132559650Y-117619019D01*
X132580474Y-117613803D01*
X132601709Y-117610653D01*
X132623150Y-117609600D01*
X133060650Y-117609600D01*
X133082091Y-117610653D01*
X133082091Y-117610653D01*
G37*
D16*
G04 #@! TD*
G04 #@! TO.P,R26,2*
G04 #@! TO.N,SENS_C*
X132841900Y-118084600D03*
D15*
G04 #@! TO.N,GND*
G04 #@! TO.C,R26*
G36*
X134657091Y-117610653D02*
X134678326Y-117613803D01*
X134699150Y-117619019D01*
X134719362Y-117626251D01*
X134738768Y-117635430D01*
X134757181Y-117646466D01*
X134774424Y-117659254D01*
X134790330Y-117673670D01*
X134804746Y-117689576D01*
X134817534Y-117706819D01*
X134828570Y-117725232D01*
X134837749Y-117744638D01*
X134844981Y-117764850D01*
X134850197Y-117785674D01*
X134853347Y-117806909D01*
X134854400Y-117828350D01*
X134854400Y-118340850D01*
X134853347Y-118362291D01*
X134850197Y-118383526D01*
X134844981Y-118404350D01*
X134837749Y-118424562D01*
X134828570Y-118443968D01*
X134817534Y-118462381D01*
X134804746Y-118479624D01*
X134790330Y-118495530D01*
X134774424Y-118509946D01*
X134757181Y-118522734D01*
X134738768Y-118533770D01*
X134719362Y-118542949D01*
X134699150Y-118550181D01*
X134678326Y-118555397D01*
X134657091Y-118558547D01*
X134635650Y-118559600D01*
X134198150Y-118559600D01*
X134176709Y-118558547D01*
X134155474Y-118555397D01*
X134134650Y-118550181D01*
X134114438Y-118542949D01*
X134095032Y-118533770D01*
X134076619Y-118522734D01*
X134059376Y-118509946D01*
X134043470Y-118495530D01*
X134029054Y-118479624D01*
X134016266Y-118462381D01*
X134005230Y-118443968D01*
X133996051Y-118424562D01*
X133988819Y-118404350D01*
X133983603Y-118383526D01*
X133980453Y-118362291D01*
X133979400Y-118340850D01*
X133979400Y-117828350D01*
X133980453Y-117806909D01*
X133983603Y-117785674D01*
X133988819Y-117764850D01*
X133996051Y-117744638D01*
X134005230Y-117725232D01*
X134016266Y-117706819D01*
X134029054Y-117689576D01*
X134043470Y-117673670D01*
X134059376Y-117659254D01*
X134076619Y-117646466D01*
X134095032Y-117635430D01*
X134114438Y-117626251D01*
X134134650Y-117619019D01*
X134155474Y-117613803D01*
X134176709Y-117610653D01*
X134198150Y-117609600D01*
X134635650Y-117609600D01*
X134657091Y-117610653D01*
X134657091Y-117610653D01*
G37*
D16*
G04 #@! TD*
G04 #@! TO.P,R26,1*
G04 #@! TO.N,GND*
X134416900Y-118084600D03*
D15*
G04 #@! TO.N,SENS_C*
G04 #@! TO.C,R25*
G36*
X133082091Y-116086653D02*
X133103326Y-116089803D01*
X133124150Y-116095019D01*
X133144362Y-116102251D01*
X133163768Y-116111430D01*
X133182181Y-116122466D01*
X133199424Y-116135254D01*
X133215330Y-116149670D01*
X133229746Y-116165576D01*
X133242534Y-116182819D01*
X133253570Y-116201232D01*
X133262749Y-116220638D01*
X133269981Y-116240850D01*
X133275197Y-116261674D01*
X133278347Y-116282909D01*
X133279400Y-116304350D01*
X133279400Y-116816850D01*
X133278347Y-116838291D01*
X133275197Y-116859526D01*
X133269981Y-116880350D01*
X133262749Y-116900562D01*
X133253570Y-116919968D01*
X133242534Y-116938381D01*
X133229746Y-116955624D01*
X133215330Y-116971530D01*
X133199424Y-116985946D01*
X133182181Y-116998734D01*
X133163768Y-117009770D01*
X133144362Y-117018949D01*
X133124150Y-117026181D01*
X133103326Y-117031397D01*
X133082091Y-117034547D01*
X133060650Y-117035600D01*
X132623150Y-117035600D01*
X132601709Y-117034547D01*
X132580474Y-117031397D01*
X132559650Y-117026181D01*
X132539438Y-117018949D01*
X132520032Y-117009770D01*
X132501619Y-116998734D01*
X132484376Y-116985946D01*
X132468470Y-116971530D01*
X132454054Y-116955624D01*
X132441266Y-116938381D01*
X132430230Y-116919968D01*
X132421051Y-116900562D01*
X132413819Y-116880350D01*
X132408603Y-116859526D01*
X132405453Y-116838291D01*
X132404400Y-116816850D01*
X132404400Y-116304350D01*
X132405453Y-116282909D01*
X132408603Y-116261674D01*
X132413819Y-116240850D01*
X132421051Y-116220638D01*
X132430230Y-116201232D01*
X132441266Y-116182819D01*
X132454054Y-116165576D01*
X132468470Y-116149670D01*
X132484376Y-116135254D01*
X132501619Y-116122466D01*
X132520032Y-116111430D01*
X132539438Y-116102251D01*
X132559650Y-116095019D01*
X132580474Y-116089803D01*
X132601709Y-116086653D01*
X132623150Y-116085600D01*
X133060650Y-116085600D01*
X133082091Y-116086653D01*
X133082091Y-116086653D01*
G37*
D16*
G04 #@! TD*
G04 #@! TO.P,R25,2*
G04 #@! TO.N,SENS_C*
X132841900Y-116560600D03*
D15*
G04 #@! TO.N,SH_C*
G04 #@! TO.C,R25*
G36*
X134657091Y-116086653D02*
X134678326Y-116089803D01*
X134699150Y-116095019D01*
X134719362Y-116102251D01*
X134738768Y-116111430D01*
X134757181Y-116122466D01*
X134774424Y-116135254D01*
X134790330Y-116149670D01*
X134804746Y-116165576D01*
X134817534Y-116182819D01*
X134828570Y-116201232D01*
X134837749Y-116220638D01*
X134844981Y-116240850D01*
X134850197Y-116261674D01*
X134853347Y-116282909D01*
X134854400Y-116304350D01*
X134854400Y-116816850D01*
X134853347Y-116838291D01*
X134850197Y-116859526D01*
X134844981Y-116880350D01*
X134837749Y-116900562D01*
X134828570Y-116919968D01*
X134817534Y-116938381D01*
X134804746Y-116955624D01*
X134790330Y-116971530D01*
X134774424Y-116985946D01*
X134757181Y-116998734D01*
X134738768Y-117009770D01*
X134719362Y-117018949D01*
X134699150Y-117026181D01*
X134678326Y-117031397D01*
X134657091Y-117034547D01*
X134635650Y-117035600D01*
X134198150Y-117035600D01*
X134176709Y-117034547D01*
X134155474Y-117031397D01*
X134134650Y-117026181D01*
X134114438Y-117018949D01*
X134095032Y-117009770D01*
X134076619Y-116998734D01*
X134059376Y-116985946D01*
X134043470Y-116971530D01*
X134029054Y-116955624D01*
X134016266Y-116938381D01*
X134005230Y-116919968D01*
X133996051Y-116900562D01*
X133988819Y-116880350D01*
X133983603Y-116859526D01*
X133980453Y-116838291D01*
X133979400Y-116816850D01*
X133979400Y-116304350D01*
X133980453Y-116282909D01*
X133983603Y-116261674D01*
X133988819Y-116240850D01*
X133996051Y-116220638D01*
X134005230Y-116201232D01*
X134016266Y-116182819D01*
X134029054Y-116165576D01*
X134043470Y-116149670D01*
X134059376Y-116135254D01*
X134076619Y-116122466D01*
X134095032Y-116111430D01*
X134114438Y-116102251D01*
X134134650Y-116095019D01*
X134155474Y-116089803D01*
X134176709Y-116086653D01*
X134198150Y-116085600D01*
X134635650Y-116085600D01*
X134657091Y-116086653D01*
X134657091Y-116086653D01*
G37*
D16*
G04 #@! TD*
G04 #@! TO.P,R25,1*
G04 #@! TO.N,SH_C*
X134416900Y-116560600D03*
D15*
G04 #@! TO.N,SENS_SUPPLY*
G04 #@! TO.C,R19*
G36*
X139355891Y-109355653D02*
X139377126Y-109358803D01*
X139397950Y-109364019D01*
X139418162Y-109371251D01*
X139437568Y-109380430D01*
X139455981Y-109391466D01*
X139473224Y-109404254D01*
X139489130Y-109418670D01*
X139503546Y-109434576D01*
X139516334Y-109451819D01*
X139527370Y-109470232D01*
X139536549Y-109489638D01*
X139543781Y-109509850D01*
X139548997Y-109530674D01*
X139552147Y-109551909D01*
X139553200Y-109573350D01*
X139553200Y-110085850D01*
X139552147Y-110107291D01*
X139548997Y-110128526D01*
X139543781Y-110149350D01*
X139536549Y-110169562D01*
X139527370Y-110188968D01*
X139516334Y-110207381D01*
X139503546Y-110224624D01*
X139489130Y-110240530D01*
X139473224Y-110254946D01*
X139455981Y-110267734D01*
X139437568Y-110278770D01*
X139418162Y-110287949D01*
X139397950Y-110295181D01*
X139377126Y-110300397D01*
X139355891Y-110303547D01*
X139334450Y-110304600D01*
X138896950Y-110304600D01*
X138875509Y-110303547D01*
X138854274Y-110300397D01*
X138833450Y-110295181D01*
X138813238Y-110287949D01*
X138793832Y-110278770D01*
X138775419Y-110267734D01*
X138758176Y-110254946D01*
X138742270Y-110240530D01*
X138727854Y-110224624D01*
X138715066Y-110207381D01*
X138704030Y-110188968D01*
X138694851Y-110169562D01*
X138687619Y-110149350D01*
X138682403Y-110128526D01*
X138679253Y-110107291D01*
X138678200Y-110085850D01*
X138678200Y-109573350D01*
X138679253Y-109551909D01*
X138682403Y-109530674D01*
X138687619Y-109509850D01*
X138694851Y-109489638D01*
X138704030Y-109470232D01*
X138715066Y-109451819D01*
X138727854Y-109434576D01*
X138742270Y-109418670D01*
X138758176Y-109404254D01*
X138775419Y-109391466D01*
X138793832Y-109380430D01*
X138813238Y-109371251D01*
X138833450Y-109364019D01*
X138854274Y-109358803D01*
X138875509Y-109355653D01*
X138896950Y-109354600D01*
X139334450Y-109354600D01*
X139355891Y-109355653D01*
X139355891Y-109355653D01*
G37*
D16*
G04 #@! TD*
G04 #@! TO.P,R19,2*
G04 #@! TO.N,SENS_SUPPLY*
X139115700Y-109829600D03*
D15*
G04 #@! TO.N,V_SUPPLY*
G04 #@! TO.C,R19*
G36*
X140930891Y-109355653D02*
X140952126Y-109358803D01*
X140972950Y-109364019D01*
X140993162Y-109371251D01*
X141012568Y-109380430D01*
X141030981Y-109391466D01*
X141048224Y-109404254D01*
X141064130Y-109418670D01*
X141078546Y-109434576D01*
X141091334Y-109451819D01*
X141102370Y-109470232D01*
X141111549Y-109489638D01*
X141118781Y-109509850D01*
X141123997Y-109530674D01*
X141127147Y-109551909D01*
X141128200Y-109573350D01*
X141128200Y-110085850D01*
X141127147Y-110107291D01*
X141123997Y-110128526D01*
X141118781Y-110149350D01*
X141111549Y-110169562D01*
X141102370Y-110188968D01*
X141091334Y-110207381D01*
X141078546Y-110224624D01*
X141064130Y-110240530D01*
X141048224Y-110254946D01*
X141030981Y-110267734D01*
X141012568Y-110278770D01*
X140993162Y-110287949D01*
X140972950Y-110295181D01*
X140952126Y-110300397D01*
X140930891Y-110303547D01*
X140909450Y-110304600D01*
X140471950Y-110304600D01*
X140450509Y-110303547D01*
X140429274Y-110300397D01*
X140408450Y-110295181D01*
X140388238Y-110287949D01*
X140368832Y-110278770D01*
X140350419Y-110267734D01*
X140333176Y-110254946D01*
X140317270Y-110240530D01*
X140302854Y-110224624D01*
X140290066Y-110207381D01*
X140279030Y-110188968D01*
X140269851Y-110169562D01*
X140262619Y-110149350D01*
X140257403Y-110128526D01*
X140254253Y-110107291D01*
X140253200Y-110085850D01*
X140253200Y-109573350D01*
X140254253Y-109551909D01*
X140257403Y-109530674D01*
X140262619Y-109509850D01*
X140269851Y-109489638D01*
X140279030Y-109470232D01*
X140290066Y-109451819D01*
X140302854Y-109434576D01*
X140317270Y-109418670D01*
X140333176Y-109404254D01*
X140350419Y-109391466D01*
X140368832Y-109380430D01*
X140388238Y-109371251D01*
X140408450Y-109364019D01*
X140429274Y-109358803D01*
X140450509Y-109355653D01*
X140471950Y-109354600D01*
X140909450Y-109354600D01*
X140930891Y-109355653D01*
X140930891Y-109355653D01*
G37*
D16*
G04 #@! TD*
G04 #@! TO.P,R19,1*
G04 #@! TO.N,V_SUPPLY*
X140690700Y-109829600D03*
D15*
G04 #@! TO.N,SENS_SUPPLY*
G04 #@! TO.C,R20*
G36*
X139355891Y-110930453D02*
X139377126Y-110933603D01*
X139397950Y-110938819D01*
X139418162Y-110946051D01*
X139437568Y-110955230D01*
X139455981Y-110966266D01*
X139473224Y-110979054D01*
X139489130Y-110993470D01*
X139503546Y-111009376D01*
X139516334Y-111026619D01*
X139527370Y-111045032D01*
X139536549Y-111064438D01*
X139543781Y-111084650D01*
X139548997Y-111105474D01*
X139552147Y-111126709D01*
X139553200Y-111148150D01*
X139553200Y-111660650D01*
X139552147Y-111682091D01*
X139548997Y-111703326D01*
X139543781Y-111724150D01*
X139536549Y-111744362D01*
X139527370Y-111763768D01*
X139516334Y-111782181D01*
X139503546Y-111799424D01*
X139489130Y-111815330D01*
X139473224Y-111829746D01*
X139455981Y-111842534D01*
X139437568Y-111853570D01*
X139418162Y-111862749D01*
X139397950Y-111869981D01*
X139377126Y-111875197D01*
X139355891Y-111878347D01*
X139334450Y-111879400D01*
X138896950Y-111879400D01*
X138875509Y-111878347D01*
X138854274Y-111875197D01*
X138833450Y-111869981D01*
X138813238Y-111862749D01*
X138793832Y-111853570D01*
X138775419Y-111842534D01*
X138758176Y-111829746D01*
X138742270Y-111815330D01*
X138727854Y-111799424D01*
X138715066Y-111782181D01*
X138704030Y-111763768D01*
X138694851Y-111744362D01*
X138687619Y-111724150D01*
X138682403Y-111703326D01*
X138679253Y-111682091D01*
X138678200Y-111660650D01*
X138678200Y-111148150D01*
X138679253Y-111126709D01*
X138682403Y-111105474D01*
X138687619Y-111084650D01*
X138694851Y-111064438D01*
X138704030Y-111045032D01*
X138715066Y-111026619D01*
X138727854Y-111009376D01*
X138742270Y-110993470D01*
X138758176Y-110979054D01*
X138775419Y-110966266D01*
X138793832Y-110955230D01*
X138813238Y-110946051D01*
X138833450Y-110938819D01*
X138854274Y-110933603D01*
X138875509Y-110930453D01*
X138896950Y-110929400D01*
X139334450Y-110929400D01*
X139355891Y-110930453D01*
X139355891Y-110930453D01*
G37*
D16*
G04 #@! TD*
G04 #@! TO.P,R20,2*
G04 #@! TO.N,SENS_SUPPLY*
X139115700Y-111404400D03*
D15*
G04 #@! TO.N,GND*
G04 #@! TO.C,R20*
G36*
X140930891Y-110930453D02*
X140952126Y-110933603D01*
X140972950Y-110938819D01*
X140993162Y-110946051D01*
X141012568Y-110955230D01*
X141030981Y-110966266D01*
X141048224Y-110979054D01*
X141064130Y-110993470D01*
X141078546Y-111009376D01*
X141091334Y-111026619D01*
X141102370Y-111045032D01*
X141111549Y-111064438D01*
X141118781Y-111084650D01*
X141123997Y-111105474D01*
X141127147Y-111126709D01*
X141128200Y-111148150D01*
X141128200Y-111660650D01*
X141127147Y-111682091D01*
X141123997Y-111703326D01*
X141118781Y-111724150D01*
X141111549Y-111744362D01*
X141102370Y-111763768D01*
X141091334Y-111782181D01*
X141078546Y-111799424D01*
X141064130Y-111815330D01*
X141048224Y-111829746D01*
X141030981Y-111842534D01*
X141012568Y-111853570D01*
X140993162Y-111862749D01*
X140972950Y-111869981D01*
X140952126Y-111875197D01*
X140930891Y-111878347D01*
X140909450Y-111879400D01*
X140471950Y-111879400D01*
X140450509Y-111878347D01*
X140429274Y-111875197D01*
X140408450Y-111869981D01*
X140388238Y-111862749D01*
X140368832Y-111853570D01*
X140350419Y-111842534D01*
X140333176Y-111829746D01*
X140317270Y-111815330D01*
X140302854Y-111799424D01*
X140290066Y-111782181D01*
X140279030Y-111763768D01*
X140269851Y-111744362D01*
X140262619Y-111724150D01*
X140257403Y-111703326D01*
X140254253Y-111682091D01*
X140253200Y-111660650D01*
X140253200Y-111148150D01*
X140254253Y-111126709D01*
X140257403Y-111105474D01*
X140262619Y-111084650D01*
X140269851Y-111064438D01*
X140279030Y-111045032D01*
X140290066Y-111026619D01*
X140302854Y-111009376D01*
X140317270Y-110993470D01*
X140333176Y-110979054D01*
X140350419Y-110966266D01*
X140368832Y-110955230D01*
X140388238Y-110946051D01*
X140408450Y-110938819D01*
X140429274Y-110933603D01*
X140450509Y-110930453D01*
X140471950Y-110929400D01*
X140909450Y-110929400D01*
X140930891Y-110930453D01*
X140930891Y-110930453D01*
G37*
D16*
G04 #@! TD*
G04 #@! TO.P,R20,1*
G04 #@! TO.N,GND*
X140690700Y-111404400D03*
D15*
G04 #@! TO.N,SENS_A*
G04 #@! TO.C,R21*
G36*
X133082091Y-111463853D02*
X133103326Y-111467003D01*
X133124150Y-111472219D01*
X133144362Y-111479451D01*
X133163768Y-111488630D01*
X133182181Y-111499666D01*
X133199424Y-111512454D01*
X133215330Y-111526870D01*
X133229746Y-111542776D01*
X133242534Y-111560019D01*
X133253570Y-111578432D01*
X133262749Y-111597838D01*
X133269981Y-111618050D01*
X133275197Y-111638874D01*
X133278347Y-111660109D01*
X133279400Y-111681550D01*
X133279400Y-112194050D01*
X133278347Y-112215491D01*
X133275197Y-112236726D01*
X133269981Y-112257550D01*
X133262749Y-112277762D01*
X133253570Y-112297168D01*
X133242534Y-112315581D01*
X133229746Y-112332824D01*
X133215330Y-112348730D01*
X133199424Y-112363146D01*
X133182181Y-112375934D01*
X133163768Y-112386970D01*
X133144362Y-112396149D01*
X133124150Y-112403381D01*
X133103326Y-112408597D01*
X133082091Y-112411747D01*
X133060650Y-112412800D01*
X132623150Y-112412800D01*
X132601709Y-112411747D01*
X132580474Y-112408597D01*
X132559650Y-112403381D01*
X132539438Y-112396149D01*
X132520032Y-112386970D01*
X132501619Y-112375934D01*
X132484376Y-112363146D01*
X132468470Y-112348730D01*
X132454054Y-112332824D01*
X132441266Y-112315581D01*
X132430230Y-112297168D01*
X132421051Y-112277762D01*
X132413819Y-112257550D01*
X132408603Y-112236726D01*
X132405453Y-112215491D01*
X132404400Y-112194050D01*
X132404400Y-111681550D01*
X132405453Y-111660109D01*
X132408603Y-111638874D01*
X132413819Y-111618050D01*
X132421051Y-111597838D01*
X132430230Y-111578432D01*
X132441266Y-111560019D01*
X132454054Y-111542776D01*
X132468470Y-111526870D01*
X132484376Y-111512454D01*
X132501619Y-111499666D01*
X132520032Y-111488630D01*
X132539438Y-111479451D01*
X132559650Y-111472219D01*
X132580474Y-111467003D01*
X132601709Y-111463853D01*
X132623150Y-111462800D01*
X133060650Y-111462800D01*
X133082091Y-111463853D01*
X133082091Y-111463853D01*
G37*
D16*
G04 #@! TD*
G04 #@! TO.P,R21,2*
G04 #@! TO.N,SENS_A*
X132841900Y-111937800D03*
D15*
G04 #@! TO.N,SH_A*
G04 #@! TO.C,R21*
G36*
X134657091Y-111463853D02*
X134678326Y-111467003D01*
X134699150Y-111472219D01*
X134719362Y-111479451D01*
X134738768Y-111488630D01*
X134757181Y-111499666D01*
X134774424Y-111512454D01*
X134790330Y-111526870D01*
X134804746Y-111542776D01*
X134817534Y-111560019D01*
X134828570Y-111578432D01*
X134837749Y-111597838D01*
X134844981Y-111618050D01*
X134850197Y-111638874D01*
X134853347Y-111660109D01*
X134854400Y-111681550D01*
X134854400Y-112194050D01*
X134853347Y-112215491D01*
X134850197Y-112236726D01*
X134844981Y-112257550D01*
X134837749Y-112277762D01*
X134828570Y-112297168D01*
X134817534Y-112315581D01*
X134804746Y-112332824D01*
X134790330Y-112348730D01*
X134774424Y-112363146D01*
X134757181Y-112375934D01*
X134738768Y-112386970D01*
X134719362Y-112396149D01*
X134699150Y-112403381D01*
X134678326Y-112408597D01*
X134657091Y-112411747D01*
X134635650Y-112412800D01*
X134198150Y-112412800D01*
X134176709Y-112411747D01*
X134155474Y-112408597D01*
X134134650Y-112403381D01*
X134114438Y-112396149D01*
X134095032Y-112386970D01*
X134076619Y-112375934D01*
X134059376Y-112363146D01*
X134043470Y-112348730D01*
X134029054Y-112332824D01*
X134016266Y-112315581D01*
X134005230Y-112297168D01*
X133996051Y-112277762D01*
X133988819Y-112257550D01*
X133983603Y-112236726D01*
X133980453Y-112215491D01*
X133979400Y-112194050D01*
X133979400Y-111681550D01*
X133980453Y-111660109D01*
X133983603Y-111638874D01*
X133988819Y-111618050D01*
X133996051Y-111597838D01*
X134005230Y-111578432D01*
X134016266Y-111560019D01*
X134029054Y-111542776D01*
X134043470Y-111526870D01*
X134059376Y-111512454D01*
X134076619Y-111499666D01*
X134095032Y-111488630D01*
X134114438Y-111479451D01*
X134134650Y-111472219D01*
X134155474Y-111467003D01*
X134176709Y-111463853D01*
X134198150Y-111462800D01*
X134635650Y-111462800D01*
X134657091Y-111463853D01*
X134657091Y-111463853D01*
G37*
D16*
G04 #@! TD*
G04 #@! TO.P,R21,1*
G04 #@! TO.N,SH_A*
X134416900Y-111937800D03*
D15*
G04 #@! TO.N,SENS_A*
G04 #@! TO.C,R22*
G36*
X133082091Y-109939853D02*
X133103326Y-109943003D01*
X133124150Y-109948219D01*
X133144362Y-109955451D01*
X133163768Y-109964630D01*
X133182181Y-109975666D01*
X133199424Y-109988454D01*
X133215330Y-110002870D01*
X133229746Y-110018776D01*
X133242534Y-110036019D01*
X133253570Y-110054432D01*
X133262749Y-110073838D01*
X133269981Y-110094050D01*
X133275197Y-110114874D01*
X133278347Y-110136109D01*
X133279400Y-110157550D01*
X133279400Y-110670050D01*
X133278347Y-110691491D01*
X133275197Y-110712726D01*
X133269981Y-110733550D01*
X133262749Y-110753762D01*
X133253570Y-110773168D01*
X133242534Y-110791581D01*
X133229746Y-110808824D01*
X133215330Y-110824730D01*
X133199424Y-110839146D01*
X133182181Y-110851934D01*
X133163768Y-110862970D01*
X133144362Y-110872149D01*
X133124150Y-110879381D01*
X133103326Y-110884597D01*
X133082091Y-110887747D01*
X133060650Y-110888800D01*
X132623150Y-110888800D01*
X132601709Y-110887747D01*
X132580474Y-110884597D01*
X132559650Y-110879381D01*
X132539438Y-110872149D01*
X132520032Y-110862970D01*
X132501619Y-110851934D01*
X132484376Y-110839146D01*
X132468470Y-110824730D01*
X132454054Y-110808824D01*
X132441266Y-110791581D01*
X132430230Y-110773168D01*
X132421051Y-110753762D01*
X132413819Y-110733550D01*
X132408603Y-110712726D01*
X132405453Y-110691491D01*
X132404400Y-110670050D01*
X132404400Y-110157550D01*
X132405453Y-110136109D01*
X132408603Y-110114874D01*
X132413819Y-110094050D01*
X132421051Y-110073838D01*
X132430230Y-110054432D01*
X132441266Y-110036019D01*
X132454054Y-110018776D01*
X132468470Y-110002870D01*
X132484376Y-109988454D01*
X132501619Y-109975666D01*
X132520032Y-109964630D01*
X132539438Y-109955451D01*
X132559650Y-109948219D01*
X132580474Y-109943003D01*
X132601709Y-109939853D01*
X132623150Y-109938800D01*
X133060650Y-109938800D01*
X133082091Y-109939853D01*
X133082091Y-109939853D01*
G37*
D16*
G04 #@! TD*
G04 #@! TO.P,R22,2*
G04 #@! TO.N,SENS_A*
X132841900Y-110413800D03*
D15*
G04 #@! TO.N,GND*
G04 #@! TO.C,R22*
G36*
X134657091Y-109939853D02*
X134678326Y-109943003D01*
X134699150Y-109948219D01*
X134719362Y-109955451D01*
X134738768Y-109964630D01*
X134757181Y-109975666D01*
X134774424Y-109988454D01*
X134790330Y-110002870D01*
X134804746Y-110018776D01*
X134817534Y-110036019D01*
X134828570Y-110054432D01*
X134837749Y-110073838D01*
X134844981Y-110094050D01*
X134850197Y-110114874D01*
X134853347Y-110136109D01*
X134854400Y-110157550D01*
X134854400Y-110670050D01*
X134853347Y-110691491D01*
X134850197Y-110712726D01*
X134844981Y-110733550D01*
X134837749Y-110753762D01*
X134828570Y-110773168D01*
X134817534Y-110791581D01*
X134804746Y-110808824D01*
X134790330Y-110824730D01*
X134774424Y-110839146D01*
X134757181Y-110851934D01*
X134738768Y-110862970D01*
X134719362Y-110872149D01*
X134699150Y-110879381D01*
X134678326Y-110884597D01*
X134657091Y-110887747D01*
X134635650Y-110888800D01*
X134198150Y-110888800D01*
X134176709Y-110887747D01*
X134155474Y-110884597D01*
X134134650Y-110879381D01*
X134114438Y-110872149D01*
X134095032Y-110862970D01*
X134076619Y-110851934D01*
X134059376Y-110839146D01*
X134043470Y-110824730D01*
X134029054Y-110808824D01*
X134016266Y-110791581D01*
X134005230Y-110773168D01*
X133996051Y-110753762D01*
X133988819Y-110733550D01*
X133983603Y-110712726D01*
X133980453Y-110691491D01*
X133979400Y-110670050D01*
X133979400Y-110157550D01*
X133980453Y-110136109D01*
X133983603Y-110114874D01*
X133988819Y-110094050D01*
X133996051Y-110073838D01*
X134005230Y-110054432D01*
X134016266Y-110036019D01*
X134029054Y-110018776D01*
X134043470Y-110002870D01*
X134059376Y-109988454D01*
X134076619Y-109975666D01*
X134095032Y-109964630D01*
X134114438Y-109955451D01*
X134134650Y-109948219D01*
X134155474Y-109943003D01*
X134176709Y-109939853D01*
X134198150Y-109938800D01*
X134635650Y-109938800D01*
X134657091Y-109939853D01*
X134657091Y-109939853D01*
G37*
D16*
G04 #@! TD*
G04 #@! TO.P,R22,1*
G04 #@! TO.N,GND*
X134416900Y-110413800D03*
D15*
G04 #@! TO.N,SENS_B*
G04 #@! TO.C,R23*
G36*
X133072010Y-114534775D02*
X133093245Y-114537925D01*
X133114069Y-114543141D01*
X133134281Y-114550373D01*
X133153687Y-114559552D01*
X133172100Y-114570588D01*
X133189343Y-114583376D01*
X133205249Y-114597792D01*
X133219665Y-114613698D01*
X133232453Y-114630941D01*
X133243489Y-114649354D01*
X133252668Y-114668760D01*
X133259900Y-114688972D01*
X133265116Y-114709796D01*
X133268266Y-114731031D01*
X133269319Y-114752472D01*
X133269319Y-115264972D01*
X133268266Y-115286413D01*
X133265116Y-115307648D01*
X133259900Y-115328472D01*
X133252668Y-115348684D01*
X133243489Y-115368090D01*
X133232453Y-115386503D01*
X133219665Y-115403746D01*
X133205249Y-115419652D01*
X133189343Y-115434068D01*
X133172100Y-115446856D01*
X133153687Y-115457892D01*
X133134281Y-115467071D01*
X133114069Y-115474303D01*
X133093245Y-115479519D01*
X133072010Y-115482669D01*
X133050569Y-115483722D01*
X132613069Y-115483722D01*
X132591628Y-115482669D01*
X132570393Y-115479519D01*
X132549569Y-115474303D01*
X132529357Y-115467071D01*
X132509951Y-115457892D01*
X132491538Y-115446856D01*
X132474295Y-115434068D01*
X132458389Y-115419652D01*
X132443973Y-115403746D01*
X132431185Y-115386503D01*
X132420149Y-115368090D01*
X132410970Y-115348684D01*
X132403738Y-115328472D01*
X132398522Y-115307648D01*
X132395372Y-115286413D01*
X132394319Y-115264972D01*
X132394319Y-114752472D01*
X132395372Y-114731031D01*
X132398522Y-114709796D01*
X132403738Y-114688972D01*
X132410970Y-114668760D01*
X132420149Y-114649354D01*
X132431185Y-114630941D01*
X132443973Y-114613698D01*
X132458389Y-114597792D01*
X132474295Y-114583376D01*
X132491538Y-114570588D01*
X132509951Y-114559552D01*
X132529357Y-114550373D01*
X132549569Y-114543141D01*
X132570393Y-114537925D01*
X132591628Y-114534775D01*
X132613069Y-114533722D01*
X133050569Y-114533722D01*
X133072010Y-114534775D01*
X133072010Y-114534775D01*
G37*
D16*
G04 #@! TD*
G04 #@! TO.P,R23,2*
G04 #@! TO.N,SENS_B*
X132831819Y-115008722D03*
D15*
G04 #@! TO.N,SH_B*
G04 #@! TO.C,R23*
G36*
X134647010Y-114534775D02*
X134668245Y-114537925D01*
X134689069Y-114543141D01*
X134709281Y-114550373D01*
X134728687Y-114559552D01*
X134747100Y-114570588D01*
X134764343Y-114583376D01*
X134780249Y-114597792D01*
X134794665Y-114613698D01*
X134807453Y-114630941D01*
X134818489Y-114649354D01*
X134827668Y-114668760D01*
X134834900Y-114688972D01*
X134840116Y-114709796D01*
X134843266Y-114731031D01*
X134844319Y-114752472D01*
X134844319Y-115264972D01*
X134843266Y-115286413D01*
X134840116Y-115307648D01*
X134834900Y-115328472D01*
X134827668Y-115348684D01*
X134818489Y-115368090D01*
X134807453Y-115386503D01*
X134794665Y-115403746D01*
X134780249Y-115419652D01*
X134764343Y-115434068D01*
X134747100Y-115446856D01*
X134728687Y-115457892D01*
X134709281Y-115467071D01*
X134689069Y-115474303D01*
X134668245Y-115479519D01*
X134647010Y-115482669D01*
X134625569Y-115483722D01*
X134188069Y-115483722D01*
X134166628Y-115482669D01*
X134145393Y-115479519D01*
X134124569Y-115474303D01*
X134104357Y-115467071D01*
X134084951Y-115457892D01*
X134066538Y-115446856D01*
X134049295Y-115434068D01*
X134033389Y-115419652D01*
X134018973Y-115403746D01*
X134006185Y-115386503D01*
X133995149Y-115368090D01*
X133985970Y-115348684D01*
X133978738Y-115328472D01*
X133973522Y-115307648D01*
X133970372Y-115286413D01*
X133969319Y-115264972D01*
X133969319Y-114752472D01*
X133970372Y-114731031D01*
X133973522Y-114709796D01*
X133978738Y-114688972D01*
X133985970Y-114668760D01*
X133995149Y-114649354D01*
X134006185Y-114630941D01*
X134018973Y-114613698D01*
X134033389Y-114597792D01*
X134049295Y-114583376D01*
X134066538Y-114570588D01*
X134084951Y-114559552D01*
X134104357Y-114550373D01*
X134124569Y-114543141D01*
X134145393Y-114537925D01*
X134166628Y-114534775D01*
X134188069Y-114533722D01*
X134625569Y-114533722D01*
X134647010Y-114534775D01*
X134647010Y-114534775D01*
G37*
D16*
G04 #@! TD*
G04 #@! TO.P,R23,1*
G04 #@! TO.N,SH_B*
X134406819Y-115008722D03*
D15*
G04 #@! TO.N,SENS_B*
G04 #@! TO.C,R24*
G36*
X133072010Y-113010775D02*
X133093245Y-113013925D01*
X133114069Y-113019141D01*
X133134281Y-113026373D01*
X133153687Y-113035552D01*
X133172100Y-113046588D01*
X133189343Y-113059376D01*
X133205249Y-113073792D01*
X133219665Y-113089698D01*
X133232453Y-113106941D01*
X133243489Y-113125354D01*
X133252668Y-113144760D01*
X133259900Y-113164972D01*
X133265116Y-113185796D01*
X133268266Y-113207031D01*
X133269319Y-113228472D01*
X133269319Y-113740972D01*
X133268266Y-113762413D01*
X133265116Y-113783648D01*
X133259900Y-113804472D01*
X133252668Y-113824684D01*
X133243489Y-113844090D01*
X133232453Y-113862503D01*
X133219665Y-113879746D01*
X133205249Y-113895652D01*
X133189343Y-113910068D01*
X133172100Y-113922856D01*
X133153687Y-113933892D01*
X133134281Y-113943071D01*
X133114069Y-113950303D01*
X133093245Y-113955519D01*
X133072010Y-113958669D01*
X133050569Y-113959722D01*
X132613069Y-113959722D01*
X132591628Y-113958669D01*
X132570393Y-113955519D01*
X132549569Y-113950303D01*
X132529357Y-113943071D01*
X132509951Y-113933892D01*
X132491538Y-113922856D01*
X132474295Y-113910068D01*
X132458389Y-113895652D01*
X132443973Y-113879746D01*
X132431185Y-113862503D01*
X132420149Y-113844090D01*
X132410970Y-113824684D01*
X132403738Y-113804472D01*
X132398522Y-113783648D01*
X132395372Y-113762413D01*
X132394319Y-113740972D01*
X132394319Y-113228472D01*
X132395372Y-113207031D01*
X132398522Y-113185796D01*
X132403738Y-113164972D01*
X132410970Y-113144760D01*
X132420149Y-113125354D01*
X132431185Y-113106941D01*
X132443973Y-113089698D01*
X132458389Y-113073792D01*
X132474295Y-113059376D01*
X132491538Y-113046588D01*
X132509951Y-113035552D01*
X132529357Y-113026373D01*
X132549569Y-113019141D01*
X132570393Y-113013925D01*
X132591628Y-113010775D01*
X132613069Y-113009722D01*
X133050569Y-113009722D01*
X133072010Y-113010775D01*
X133072010Y-113010775D01*
G37*
D16*
G04 #@! TD*
G04 #@! TO.P,R24,2*
G04 #@! TO.N,SENS_B*
X132831819Y-113484722D03*
D15*
G04 #@! TO.N,GND*
G04 #@! TO.C,R24*
G36*
X134647010Y-113010775D02*
X134668245Y-113013925D01*
X134689069Y-113019141D01*
X134709281Y-113026373D01*
X134728687Y-113035552D01*
X134747100Y-113046588D01*
X134764343Y-113059376D01*
X134780249Y-113073792D01*
X134794665Y-113089698D01*
X134807453Y-113106941D01*
X134818489Y-113125354D01*
X134827668Y-113144760D01*
X134834900Y-113164972D01*
X134840116Y-113185796D01*
X134843266Y-113207031D01*
X134844319Y-113228472D01*
X134844319Y-113740972D01*
X134843266Y-113762413D01*
X134840116Y-113783648D01*
X134834900Y-113804472D01*
X134827668Y-113824684D01*
X134818489Y-113844090D01*
X134807453Y-113862503D01*
X134794665Y-113879746D01*
X134780249Y-113895652D01*
X134764343Y-113910068D01*
X134747100Y-113922856D01*
X134728687Y-113933892D01*
X134709281Y-113943071D01*
X134689069Y-113950303D01*
X134668245Y-113955519D01*
X134647010Y-113958669D01*
X134625569Y-113959722D01*
X134188069Y-113959722D01*
X134166628Y-113958669D01*
X134145393Y-113955519D01*
X134124569Y-113950303D01*
X134104357Y-113943071D01*
X134084951Y-113933892D01*
X134066538Y-113922856D01*
X134049295Y-113910068D01*
X134033389Y-113895652D01*
X134018973Y-113879746D01*
X134006185Y-113862503D01*
X133995149Y-113844090D01*
X133985970Y-113824684D01*
X133978738Y-113804472D01*
X133973522Y-113783648D01*
X133970372Y-113762413D01*
X133969319Y-113740972D01*
X133969319Y-113228472D01*
X133970372Y-113207031D01*
X133973522Y-113185796D01*
X133978738Y-113164972D01*
X133985970Y-113144760D01*
X133995149Y-113125354D01*
X134006185Y-113106941D01*
X134018973Y-113089698D01*
X134033389Y-113073792D01*
X134049295Y-113059376D01*
X134066538Y-113046588D01*
X134084951Y-113035552D01*
X134104357Y-113026373D01*
X134124569Y-113019141D01*
X134145393Y-113013925D01*
X134166628Y-113010775D01*
X134188069Y-113009722D01*
X134625569Y-113009722D01*
X134647010Y-113010775D01*
X134647010Y-113010775D01*
G37*
D16*
G04 #@! TD*
G04 #@! TO.P,R24,1*
G04 #@! TO.N,GND*
X134406819Y-113484722D03*
D19*
G04 #@! TO.P,J1,SH*
G04 #@! TO.N,GND*
X106349800Y-74293000D03*
X106349800Y-67693000D03*
G04 #@! TD*
D15*
G04 #@! TO.N,GND*
G04 #@! TO.C,C5*
G36*
X127607891Y-90546253D02*
X127629126Y-90549403D01*
X127649950Y-90554619D01*
X127670162Y-90561851D01*
X127689568Y-90571030D01*
X127707981Y-90582066D01*
X127725224Y-90594854D01*
X127741130Y-90609270D01*
X127755546Y-90625176D01*
X127768334Y-90642419D01*
X127779370Y-90660832D01*
X127788549Y-90680238D01*
X127795781Y-90700450D01*
X127800997Y-90721274D01*
X127804147Y-90742509D01*
X127805200Y-90763950D01*
X127805200Y-91201450D01*
X127804147Y-91222891D01*
X127800997Y-91244126D01*
X127795781Y-91264950D01*
X127788549Y-91285162D01*
X127779370Y-91304568D01*
X127768334Y-91322981D01*
X127755546Y-91340224D01*
X127741130Y-91356130D01*
X127725224Y-91370546D01*
X127707981Y-91383334D01*
X127689568Y-91394370D01*
X127670162Y-91403549D01*
X127649950Y-91410781D01*
X127629126Y-91415997D01*
X127607891Y-91419147D01*
X127586450Y-91420200D01*
X127073950Y-91420200D01*
X127052509Y-91419147D01*
X127031274Y-91415997D01*
X127010450Y-91410781D01*
X126990238Y-91403549D01*
X126970832Y-91394370D01*
X126952419Y-91383334D01*
X126935176Y-91370546D01*
X126919270Y-91356130D01*
X126904854Y-91340224D01*
X126892066Y-91322981D01*
X126881030Y-91304568D01*
X126871851Y-91285162D01*
X126864619Y-91264950D01*
X126859403Y-91244126D01*
X126856253Y-91222891D01*
X126855200Y-91201450D01*
X126855200Y-90763950D01*
X126856253Y-90742509D01*
X126859403Y-90721274D01*
X126864619Y-90700450D01*
X126871851Y-90680238D01*
X126881030Y-90660832D01*
X126892066Y-90642419D01*
X126904854Y-90625176D01*
X126919270Y-90609270D01*
X126935176Y-90594854D01*
X126952419Y-90582066D01*
X126970832Y-90571030D01*
X126990238Y-90561851D01*
X127010450Y-90554619D01*
X127031274Y-90549403D01*
X127052509Y-90546253D01*
X127073950Y-90545200D01*
X127586450Y-90545200D01*
X127607891Y-90546253D01*
X127607891Y-90546253D01*
G37*
D16*
G04 #@! TD*
G04 #@! TO.P,C5,2*
G04 #@! TO.N,GND*
X127330200Y-90982700D03*
D15*
G04 #@! TO.N,VCC_3V3*
G04 #@! TO.C,C5*
G36*
X127607891Y-92121253D02*
X127629126Y-92124403D01*
X127649950Y-92129619D01*
X127670162Y-92136851D01*
X127689568Y-92146030D01*
X127707981Y-92157066D01*
X127725224Y-92169854D01*
X127741130Y-92184270D01*
X127755546Y-92200176D01*
X127768334Y-92217419D01*
X127779370Y-92235832D01*
X127788549Y-92255238D01*
X127795781Y-92275450D01*
X127800997Y-92296274D01*
X127804147Y-92317509D01*
X127805200Y-92338950D01*
X127805200Y-92776450D01*
X127804147Y-92797891D01*
X127800997Y-92819126D01*
X127795781Y-92839950D01*
X127788549Y-92860162D01*
X127779370Y-92879568D01*
X127768334Y-92897981D01*
X127755546Y-92915224D01*
X127741130Y-92931130D01*
X127725224Y-92945546D01*
X127707981Y-92958334D01*
X127689568Y-92969370D01*
X127670162Y-92978549D01*
X127649950Y-92985781D01*
X127629126Y-92990997D01*
X127607891Y-92994147D01*
X127586450Y-92995200D01*
X127073950Y-92995200D01*
X127052509Y-92994147D01*
X127031274Y-92990997D01*
X127010450Y-92985781D01*
X126990238Y-92978549D01*
X126970832Y-92969370D01*
X126952419Y-92958334D01*
X126935176Y-92945546D01*
X126919270Y-92931130D01*
X126904854Y-92915224D01*
X126892066Y-92897981D01*
X126881030Y-92879568D01*
X126871851Y-92860162D01*
X126864619Y-92839950D01*
X126859403Y-92819126D01*
X126856253Y-92797891D01*
X126855200Y-92776450D01*
X126855200Y-92338950D01*
X126856253Y-92317509D01*
X126859403Y-92296274D01*
X126864619Y-92275450D01*
X126871851Y-92255238D01*
X126881030Y-92235832D01*
X126892066Y-92217419D01*
X126904854Y-92200176D01*
X126919270Y-92184270D01*
X126935176Y-92169854D01*
X126952419Y-92157066D01*
X126970832Y-92146030D01*
X126990238Y-92136851D01*
X127010450Y-92129619D01*
X127031274Y-92124403D01*
X127052509Y-92121253D01*
X127073950Y-92120200D01*
X127586450Y-92120200D01*
X127607891Y-92121253D01*
X127607891Y-92121253D01*
G37*
D16*
G04 #@! TD*
G04 #@! TO.P,C5,1*
G04 #@! TO.N,VCC_3V3*
X127330200Y-92557700D03*
D15*
G04 #@! TO.N,GND*
G04 #@! TO.C,C9*
G36*
X129170491Y-96223853D02*
X129191726Y-96227003D01*
X129212550Y-96232219D01*
X129232762Y-96239451D01*
X129252168Y-96248630D01*
X129270581Y-96259666D01*
X129287824Y-96272454D01*
X129303730Y-96286870D01*
X129318146Y-96302776D01*
X129330934Y-96320019D01*
X129341970Y-96338432D01*
X129351149Y-96357838D01*
X129358381Y-96378050D01*
X129363597Y-96398874D01*
X129366747Y-96420109D01*
X129367800Y-96441550D01*
X129367800Y-96954050D01*
X129366747Y-96975491D01*
X129363597Y-96996726D01*
X129358381Y-97017550D01*
X129351149Y-97037762D01*
X129341970Y-97057168D01*
X129330934Y-97075581D01*
X129318146Y-97092824D01*
X129303730Y-97108730D01*
X129287824Y-97123146D01*
X129270581Y-97135934D01*
X129252168Y-97146970D01*
X129232762Y-97156149D01*
X129212550Y-97163381D01*
X129191726Y-97168597D01*
X129170491Y-97171747D01*
X129149050Y-97172800D01*
X128711550Y-97172800D01*
X128690109Y-97171747D01*
X128668874Y-97168597D01*
X128648050Y-97163381D01*
X128627838Y-97156149D01*
X128608432Y-97146970D01*
X128590019Y-97135934D01*
X128572776Y-97123146D01*
X128556870Y-97108730D01*
X128542454Y-97092824D01*
X128529666Y-97075581D01*
X128518630Y-97057168D01*
X128509451Y-97037762D01*
X128502219Y-97017550D01*
X128497003Y-96996726D01*
X128493853Y-96975491D01*
X128492800Y-96954050D01*
X128492800Y-96441550D01*
X128493853Y-96420109D01*
X128497003Y-96398874D01*
X128502219Y-96378050D01*
X128509451Y-96357838D01*
X128518630Y-96338432D01*
X128529666Y-96320019D01*
X128542454Y-96302776D01*
X128556870Y-96286870D01*
X128572776Y-96272454D01*
X128590019Y-96259666D01*
X128608432Y-96248630D01*
X128627838Y-96239451D01*
X128648050Y-96232219D01*
X128668874Y-96227003D01*
X128690109Y-96223853D01*
X128711550Y-96222800D01*
X129149050Y-96222800D01*
X129170491Y-96223853D01*
X129170491Y-96223853D01*
G37*
D16*
G04 #@! TD*
G04 #@! TO.P,C9,2*
G04 #@! TO.N,GND*
X128930300Y-96697800D03*
D15*
G04 #@! TO.N,Net-(C9-Pad1)*
G04 #@! TO.C,C9*
G36*
X130745491Y-96223853D02*
X130766726Y-96227003D01*
X130787550Y-96232219D01*
X130807762Y-96239451D01*
X130827168Y-96248630D01*
X130845581Y-96259666D01*
X130862824Y-96272454D01*
X130878730Y-96286870D01*
X130893146Y-96302776D01*
X130905934Y-96320019D01*
X130916970Y-96338432D01*
X130926149Y-96357838D01*
X130933381Y-96378050D01*
X130938597Y-96398874D01*
X130941747Y-96420109D01*
X130942800Y-96441550D01*
X130942800Y-96954050D01*
X130941747Y-96975491D01*
X130938597Y-96996726D01*
X130933381Y-97017550D01*
X130926149Y-97037762D01*
X130916970Y-97057168D01*
X130905934Y-97075581D01*
X130893146Y-97092824D01*
X130878730Y-97108730D01*
X130862824Y-97123146D01*
X130845581Y-97135934D01*
X130827168Y-97146970D01*
X130807762Y-97156149D01*
X130787550Y-97163381D01*
X130766726Y-97168597D01*
X130745491Y-97171747D01*
X130724050Y-97172800D01*
X130286550Y-97172800D01*
X130265109Y-97171747D01*
X130243874Y-97168597D01*
X130223050Y-97163381D01*
X130202838Y-97156149D01*
X130183432Y-97146970D01*
X130165019Y-97135934D01*
X130147776Y-97123146D01*
X130131870Y-97108730D01*
X130117454Y-97092824D01*
X130104666Y-97075581D01*
X130093630Y-97057168D01*
X130084451Y-97037762D01*
X130077219Y-97017550D01*
X130072003Y-96996726D01*
X130068853Y-96975491D01*
X130067800Y-96954050D01*
X130067800Y-96441550D01*
X130068853Y-96420109D01*
X130072003Y-96398874D01*
X130077219Y-96378050D01*
X130084451Y-96357838D01*
X130093630Y-96338432D01*
X130104666Y-96320019D01*
X130117454Y-96302776D01*
X130131870Y-96286870D01*
X130147776Y-96272454D01*
X130165019Y-96259666D01*
X130183432Y-96248630D01*
X130202838Y-96239451D01*
X130223050Y-96232219D01*
X130243874Y-96227003D01*
X130265109Y-96223853D01*
X130286550Y-96222800D01*
X130724050Y-96222800D01*
X130745491Y-96223853D01*
X130745491Y-96223853D01*
G37*
D16*
G04 #@! TD*
G04 #@! TO.P,C9,1*
G04 #@! TO.N,Net-(C9-Pad1)*
X130505300Y-96697800D03*
D15*
G04 #@! TO.N,GND*
G04 #@! TO.C,R10*
G36*
X129119691Y-93887053D02*
X129140926Y-93890203D01*
X129161750Y-93895419D01*
X129181962Y-93902651D01*
X129201368Y-93911830D01*
X129219781Y-93922866D01*
X129237024Y-93935654D01*
X129252930Y-93950070D01*
X129267346Y-93965976D01*
X129280134Y-93983219D01*
X129291170Y-94001632D01*
X129300349Y-94021038D01*
X129307581Y-94041250D01*
X129312797Y-94062074D01*
X129315947Y-94083309D01*
X129317000Y-94104750D01*
X129317000Y-94617250D01*
X129315947Y-94638691D01*
X129312797Y-94659926D01*
X129307581Y-94680750D01*
X129300349Y-94700962D01*
X129291170Y-94720368D01*
X129280134Y-94738781D01*
X129267346Y-94756024D01*
X129252930Y-94771930D01*
X129237024Y-94786346D01*
X129219781Y-94799134D01*
X129201368Y-94810170D01*
X129181962Y-94819349D01*
X129161750Y-94826581D01*
X129140926Y-94831797D01*
X129119691Y-94834947D01*
X129098250Y-94836000D01*
X128660750Y-94836000D01*
X128639309Y-94834947D01*
X128618074Y-94831797D01*
X128597250Y-94826581D01*
X128577038Y-94819349D01*
X128557632Y-94810170D01*
X128539219Y-94799134D01*
X128521976Y-94786346D01*
X128506070Y-94771930D01*
X128491654Y-94756024D01*
X128478866Y-94738781D01*
X128467830Y-94720368D01*
X128458651Y-94700962D01*
X128451419Y-94680750D01*
X128446203Y-94659926D01*
X128443053Y-94638691D01*
X128442000Y-94617250D01*
X128442000Y-94104750D01*
X128443053Y-94083309D01*
X128446203Y-94062074D01*
X128451419Y-94041250D01*
X128458651Y-94021038D01*
X128467830Y-94001632D01*
X128478866Y-93983219D01*
X128491654Y-93965976D01*
X128506070Y-93950070D01*
X128521976Y-93935654D01*
X128539219Y-93922866D01*
X128557632Y-93911830D01*
X128577038Y-93902651D01*
X128597250Y-93895419D01*
X128618074Y-93890203D01*
X128639309Y-93887053D01*
X128660750Y-93886000D01*
X129098250Y-93886000D01*
X129119691Y-93887053D01*
X129119691Y-93887053D01*
G37*
D16*
G04 #@! TD*
G04 #@! TO.P,R10,2*
G04 #@! TO.N,GND*
X128879500Y-94361000D03*
D15*
G04 #@! TO.N,Net-(R10-Pad1)*
G04 #@! TO.C,R10*
G36*
X130694691Y-93887053D02*
X130715926Y-93890203D01*
X130736750Y-93895419D01*
X130756962Y-93902651D01*
X130776368Y-93911830D01*
X130794781Y-93922866D01*
X130812024Y-93935654D01*
X130827930Y-93950070D01*
X130842346Y-93965976D01*
X130855134Y-93983219D01*
X130866170Y-94001632D01*
X130875349Y-94021038D01*
X130882581Y-94041250D01*
X130887797Y-94062074D01*
X130890947Y-94083309D01*
X130892000Y-94104750D01*
X130892000Y-94617250D01*
X130890947Y-94638691D01*
X130887797Y-94659926D01*
X130882581Y-94680750D01*
X130875349Y-94700962D01*
X130866170Y-94720368D01*
X130855134Y-94738781D01*
X130842346Y-94756024D01*
X130827930Y-94771930D01*
X130812024Y-94786346D01*
X130794781Y-94799134D01*
X130776368Y-94810170D01*
X130756962Y-94819349D01*
X130736750Y-94826581D01*
X130715926Y-94831797D01*
X130694691Y-94834947D01*
X130673250Y-94836000D01*
X130235750Y-94836000D01*
X130214309Y-94834947D01*
X130193074Y-94831797D01*
X130172250Y-94826581D01*
X130152038Y-94819349D01*
X130132632Y-94810170D01*
X130114219Y-94799134D01*
X130096976Y-94786346D01*
X130081070Y-94771930D01*
X130066654Y-94756024D01*
X130053866Y-94738781D01*
X130042830Y-94720368D01*
X130033651Y-94700962D01*
X130026419Y-94680750D01*
X130021203Y-94659926D01*
X130018053Y-94638691D01*
X130017000Y-94617250D01*
X130017000Y-94104750D01*
X130018053Y-94083309D01*
X130021203Y-94062074D01*
X130026419Y-94041250D01*
X130033651Y-94021038D01*
X130042830Y-94001632D01*
X130053866Y-93983219D01*
X130066654Y-93965976D01*
X130081070Y-93950070D01*
X130096976Y-93935654D01*
X130114219Y-93922866D01*
X130132632Y-93911830D01*
X130152038Y-93902651D01*
X130172250Y-93895419D01*
X130193074Y-93890203D01*
X130214309Y-93887053D01*
X130235750Y-93886000D01*
X130673250Y-93886000D01*
X130694691Y-93887053D01*
X130694691Y-93887053D01*
G37*
D16*
G04 #@! TD*
G04 #@! TO.P,R10,1*
G04 #@! TO.N,Net-(R10-Pad1)*
X130454500Y-94361000D03*
D20*
G04 #@! TO.N,V_SUPPLY*
X157607000Y-75057000D03*
X160147000Y-75057000D03*
X162687000Y-75057000D03*
X157607000Y-77343000D03*
X160147000Y-77343000D03*
X162687000Y-77343000D03*
X162687000Y-79629000D03*
X160147000Y-79629000D03*
X157607000Y-79629000D03*
X162687000Y-92837000D03*
X157607000Y-90551000D03*
X160147000Y-92837000D03*
X157607000Y-92837000D03*
X157607000Y-95123000D03*
X160147000Y-90551000D03*
X162687000Y-95123000D03*
X162687000Y-90551000D03*
X160147000Y-95123000D03*
X157607000Y-110363000D03*
X157607000Y-108077000D03*
X162687000Y-105791000D03*
X162687000Y-108077000D03*
X160147000Y-108077000D03*
X160147000Y-110363000D03*
X162687000Y-110363000D03*
X157607000Y-105791000D03*
X160147000Y-105791000D03*
X164719000Y-63881000D03*
X164719000Y-66167000D03*
X164719000Y-68453000D03*
X164719000Y-70739000D03*
X162687000Y-70739000D03*
X162687000Y-68453000D03*
X162687000Y-66167000D03*
X162687000Y-63881000D03*
X164973000Y-124587000D03*
X164973000Y-120015000D03*
X162941000Y-122301000D03*
X164973000Y-126873000D03*
X162941000Y-124587000D03*
X164973000Y-122301000D03*
X162941000Y-126873000D03*
X162941000Y-120015000D03*
D21*
X143129000Y-91186000D03*
X144272000Y-91186000D03*
X141097000Y-105537000D03*
X141097000Y-107619800D03*
G04 #@! TO.N,Net-(C9-Pad1)*
X131699000Y-96507290D03*
D20*
G04 #@! TO.N,SH_A*
X170307000Y-77597000D03*
X168529000Y-77597000D03*
X170307000Y-86741000D03*
X166751000Y-84963000D03*
X168529000Y-86741000D03*
X168529000Y-84963000D03*
X170307000Y-84963000D03*
X166751000Y-86741000D03*
X166751000Y-77597000D03*
X164719000Y-81915000D03*
X164719000Y-83947000D03*
X164719000Y-86233000D03*
X161925000Y-86233000D03*
X161925000Y-83947000D03*
X161925000Y-81915000D03*
D21*
X142873295Y-95732600D03*
D20*
G04 #@! TO.N,SH_B*
X161925000Y-97409000D03*
X164719000Y-101727000D03*
X161925000Y-99441000D03*
X164719000Y-99441000D03*
X161925000Y-101727000D03*
X164719000Y-97409000D03*
X166751000Y-92837000D03*
X166751000Y-101981000D03*
X168529000Y-100203000D03*
X170307000Y-101981000D03*
X166751000Y-100203000D03*
X168529000Y-92837000D03*
X168529000Y-101981000D03*
X170307000Y-100203000D03*
X170307000Y-92837000D03*
D21*
X142974910Y-98221779D03*
D20*
G04 #@! TO.N,SH_C*
X164719000Y-116967000D03*
X164719000Y-114681000D03*
X161925000Y-116967000D03*
X161925000Y-112649000D03*
X161925000Y-114681000D03*
X164719000Y-112649000D03*
X170307000Y-108077000D03*
X168529000Y-108077000D03*
X170307000Y-117221000D03*
X166751000Y-108077000D03*
X166751000Y-115443000D03*
X168529000Y-115443000D03*
X168529000Y-117221000D03*
X166751000Y-117221000D03*
X170307000Y-115443000D03*
D21*
X142911869Y-100709800D03*
G04 #@! TO.N,5V*
X132207000Y-79883000D03*
X123317000Y-82804000D03*
X134239000Y-79883000D03*
X136271000Y-79883000D03*
X138811000Y-79883000D03*
X141351000Y-79883000D03*
X146431000Y-79883000D03*
X143891000Y-79883000D03*
X109893089Y-89789000D03*
X109893089Y-91313000D03*
X111633000Y-68910200D03*
G04 #@! TO.N,SL_A*
X147650200Y-102285800D03*
X148463000Y-95631000D03*
G04 #@! TO.N,SL_B*
X151460200Y-101523800D03*
X148986939Y-105648061D03*
G04 #@! TO.N,GH_A*
X139700000Y-95186500D03*
X151003000Y-73533000D03*
G04 #@! TO.N,GL_A*
X152527000Y-87249000D03*
X139725400Y-96507290D03*
G04 #@! TO.N,GH_B*
X152730200Y-88417400D03*
X139725400Y-98107477D03*
G04 #@! TO.N,GL_B*
X152831800Y-101879400D03*
X139725400Y-98945690D03*
G04 #@! TO.N,GH_C*
X152831800Y-103759000D03*
X139648867Y-100291910D03*
G04 #@! TO.N,GL_C*
X152781000Y-117119400D03*
X139685080Y-101129340D03*
G04 #@! TO.N,EN_GATE*
X130383827Y-98259910D03*
X119443479Y-90297000D03*
G04 #@! TO.N,INL_A*
X134899400Y-99237800D03*
X126492205Y-99250490D03*
G04 #@! TO.N,INH_C*
X134899400Y-100711000D03*
X124282200Y-97612200D03*
G04 #@! TO.N,VCC_3V3*
X114173000Y-88519000D03*
X127762000Y-69215000D03*
X139700000Y-94234000D03*
X127762000Y-70866000D03*
X127762000Y-72644000D03*
X127762000Y-74549000D03*
X127330200Y-93700600D03*
X132054600Y-102336600D03*
X112039400Y-100406200D03*
X117678200Y-68859400D03*
X129362200Y-105029000D03*
X116713000Y-108483400D03*
X128447800Y-109194600D03*
X114833400Y-106603800D03*
X149098000Y-115316000D03*
X128473200Y-121793000D03*
G04 #@! TO.N,CURR_A*
X135255000Y-102489000D03*
X115692655Y-97253844D03*
G04 #@! TO.N,CURR_B*
X135204200Y-103555800D03*
X115247466Y-97964060D03*
G04 #@! TO.N,SENS_B*
X131445000Y-113461800D03*
X115617422Y-100773267D03*
G04 #@! TO.N,SENS_A*
X131394200Y-110413800D03*
X115660352Y-99936156D03*
G04 #@! TO.N,SENS_SUPPLY*
X137693400Y-109829600D03*
X115743758Y-98639555D03*
G04 #@! TO.N,SENS_C*
X131394200Y-116509800D03*
X115566075Y-101609905D03*
G04 #@! TO.N,HALL_A*
X124378399Y-99328075D03*
X107823000Y-94107000D03*
G04 #@! TO.N,HALL_B*
X123542103Y-99271424D03*
X106299000Y-94107000D03*
G04 #@! TO.N,HALL_C*
X122682956Y-99250490D03*
X104775000Y-94107000D03*
G04 #@! TO.N,USB_N*
X115849400Y-70129400D03*
X122555000Y-96443800D03*
G04 #@! TO.N,Net-(R10-Pad1)*
X132105400Y-93832110D03*
G04 #@! TO.N,NRST*
X115849607Y-96391951D03*
G04 #@! TO.N,SWDIO*
X120624600Y-95580200D03*
G04 #@! TO.N,SWCLK*
X119811800Y-94869000D03*
G04 #@! TO.N,GATE_CS*
X134899400Y-94208600D03*
X126873000Y-97510600D03*
G04 #@! TO.N,ADC_EXT3*
X119049800Y-105587800D03*
X126923800Y-124180600D03*
G04 #@! TO.N,USB_P*
X115849400Y-71653400D03*
X121539000Y-96037400D03*
G04 #@! TO.N,Net-(C38-Pad1)*
X124079000Y-94157800D03*
G04 #@! TO.N,TEMP*
X148894800Y-113639600D03*
X125171200Y-118922800D03*
X114503200Y-103022400D03*
G04 #@! TO.N,GND*
X115824000Y-76962000D03*
X135712200Y-94869000D03*
D20*
X149225000Y-70485000D03*
X147193000Y-70485000D03*
X149225000Y-63627000D03*
X147193000Y-63627000D03*
X147193000Y-68199000D03*
X149225000Y-68199000D03*
X149225000Y-65913000D03*
X147193000Y-65913000D03*
X149987000Y-98806000D03*
X149987000Y-96393000D03*
X152527000Y-93091000D03*
X152527000Y-90424000D03*
X152527000Y-95885000D03*
X154686000Y-95885000D03*
X154686000Y-98806000D03*
X152400000Y-98806000D03*
X154686000Y-93091000D03*
X154686000Y-90424000D03*
X154940000Y-105664000D03*
X155067000Y-107823000D03*
X155067000Y-110109000D03*
X152908000Y-107950000D03*
X152908000Y-105664000D03*
X149987000Y-79121000D03*
X152527000Y-75946000D03*
X152527000Y-78232000D03*
X149987000Y-76962000D03*
X152527000Y-80264000D03*
X149860000Y-86106000D03*
X149860000Y-81534000D03*
X149860000Y-83820000D03*
D21*
X138430000Y-94869000D03*
X135966200Y-101473000D03*
X138430000Y-101473000D03*
X135051800Y-105435400D03*
X135051800Y-107518200D03*
D20*
X146634200Y-125044200D03*
X148666200Y-125044200D03*
X146634200Y-127330200D03*
X146634200Y-120472200D03*
X148666200Y-127330200D03*
X148666200Y-122758200D03*
X146634200Y-122758200D03*
X148666200Y-120472200D03*
D21*
X117475000Y-93091000D03*
X117017800Y-99187000D03*
X117663490Y-101337258D03*
X135559800Y-112445800D03*
X134239000Y-69850000D03*
X132461000Y-69850000D03*
X127762000Y-81534000D03*
X129286000Y-81534000D03*
X127762000Y-83058000D03*
X129286000Y-83058000D03*
G04 #@! TD*
D22*
G04 #@! TO.N,V_SUPPLY*
X144399000Y-106553000D02*
X141097000Y-106553000D01*
D23*
X160147000Y-110363000D02*
X158369000Y-112141000D01*
D22*
X149987000Y-112141000D02*
X144399000Y-106553000D01*
X158369000Y-112141000D02*
X149987000Y-112141000D01*
X144272000Y-106426000D02*
X144272000Y-91186000D01*
X144399000Y-106553000D02*
X144272000Y-106426000D01*
D24*
X140690700Y-108026100D02*
X141097000Y-107619800D01*
X140690700Y-109829600D02*
X140690700Y-108026100D01*
G04 #@! TO.N,Net-(C9-Pad1)*
X131508490Y-96697800D02*
X131699000Y-96507290D01*
X130505300Y-96697800D02*
X131508490Y-96697800D01*
G04 #@! TO.N,SH_A*
X142873295Y-95732600D02*
X142873295Y-97170512D01*
X135813800Y-110540900D02*
X134878512Y-111476188D01*
X134878512Y-111476188D02*
X134416900Y-111937800D01*
X135813800Y-105943400D02*
X135813800Y-110540900D01*
X140334989Y-99708818D02*
X140334989Y-101422211D01*
X140334989Y-101422211D02*
X135813800Y-105943400D01*
X142873295Y-97170512D02*
X140334989Y-99708818D01*
G04 #@! TO.N,SH_B*
X142632011Y-98564678D02*
X142974910Y-98221779D01*
X136321800Y-113093741D02*
X136321800Y-106081992D01*
X134406819Y-115008722D02*
X136321800Y-113093741D01*
X140792198Y-100404491D02*
X142632011Y-98564678D01*
X136321800Y-106081992D02*
X140792198Y-101611594D01*
X140792198Y-101611594D02*
X140792198Y-100404491D01*
G04 #@! TO.N,SH_C*
X141249408Y-101574592D02*
X141249407Y-101800977D01*
X142911869Y-100709800D02*
X142114200Y-100709800D01*
X142114200Y-100709800D02*
X141249408Y-101574592D01*
X141249407Y-101800977D02*
X136880600Y-106169784D01*
X136880600Y-114096900D02*
X134416900Y-116560600D01*
X136880600Y-106169784D02*
X136880600Y-114096900D01*
D23*
G04 #@! TO.N,5V*
X124206000Y-79883000D02*
X123317000Y-80772000D01*
X123317000Y-80772000D02*
X123317000Y-82804000D01*
X132207000Y-79883000D02*
X124206000Y-79883000D01*
D25*
X143891000Y-74904600D02*
X135890000Y-66903600D01*
X143891000Y-79883000D02*
X143891000Y-74904600D01*
X135890000Y-66903600D02*
X113639600Y-66903600D01*
X109893089Y-112300267D02*
X117684022Y-120091200D01*
X113639600Y-66903600D02*
X111633000Y-68910200D01*
D23*
X106768000Y-106807000D02*
X109893089Y-106807000D01*
X105283000Y-106807000D02*
X106768000Y-106807000D01*
D25*
X109893089Y-89789000D02*
X109893089Y-106807000D01*
X109905800Y-106908600D02*
X109905800Y-112401867D01*
D24*
X109842289Y-78562200D02*
X109893089Y-78613000D01*
D25*
X109893089Y-70650111D02*
X109893089Y-78613000D01*
X109893089Y-78613000D02*
X109893089Y-89789000D01*
D23*
X109893089Y-78613000D02*
X105283000Y-78613000D01*
D25*
X111633000Y-68910200D02*
X109893089Y-70650111D01*
D23*
X134543800Y-126873000D02*
X134543800Y-125388000D01*
D25*
X117684022Y-120091200D02*
X125730000Y-120091200D01*
D23*
X134543800Y-125388000D02*
X129247000Y-120091200D01*
D25*
X125730000Y-120091200D02*
X129247000Y-120091200D01*
D26*
G04 #@! TO.N,SL_A*
X147650200Y-101422200D02*
X146431000Y-100203000D01*
X147650200Y-102285800D02*
X147650200Y-101422200D01*
G04 #@! TO.N,SL_B*
X148367878Y-105029000D02*
X148986939Y-105648061D01*
X146685000Y-105029000D02*
X148367878Y-105029000D01*
G04 #@! TO.N,GH_A*
X150876000Y-73660000D02*
X151003000Y-73533000D01*
X148082000Y-73660000D02*
X150876000Y-73660000D01*
G04 #@! TO.N,GL_A*
X152042067Y-87249000D02*
X146558000Y-87249000D01*
X152527000Y-87249000D02*
X152042067Y-87249000D01*
D23*
G04 #@! TO.N,VCC_3V3*
X127762000Y-74549000D02*
X125730000Y-74549000D01*
X122301000Y-77978000D02*
X122301000Y-86537800D01*
X122301000Y-86537800D02*
X122301000Y-87985700D01*
X127330200Y-92557700D02*
X127330200Y-93700600D01*
X122301000Y-89128600D02*
X122301000Y-86537800D01*
X127330200Y-92557700D02*
X125730100Y-92557700D01*
X125730100Y-92557700D02*
X122301000Y-89128600D01*
X132054600Y-102336600D02*
X129362200Y-105029000D01*
X110871000Y-102641400D02*
X114833400Y-106603800D01*
X117424200Y-109194600D02*
X128447800Y-109194600D01*
X129362200Y-105029000D02*
X129362200Y-109194600D01*
X113260933Y-87122000D02*
X113157000Y-87122000D01*
X114173000Y-88519000D02*
X114173000Y-88034067D01*
X122301000Y-77978000D02*
X113157000Y-87122000D01*
X114173000Y-88034067D02*
X113260933Y-87122000D01*
X113157000Y-87122000D02*
X110871000Y-89408000D01*
X110871000Y-89408000D02*
X110871000Y-99745800D01*
D24*
X112039400Y-100406200D02*
X111554467Y-100406200D01*
X111554467Y-100406200D02*
X110871000Y-100406200D01*
D23*
X110871000Y-99745800D02*
X110871000Y-100406200D01*
X110871000Y-100406200D02*
X110871000Y-102641400D01*
X122682000Y-77597000D02*
X122301000Y-77978000D01*
X124510800Y-75692000D02*
X124587000Y-75692000D01*
X117678200Y-68859400D02*
X124510800Y-75692000D01*
X125730000Y-74549000D02*
X124587000Y-75692000D01*
X124587000Y-75692000D02*
X122682000Y-77597000D01*
X129362200Y-105029000D02*
X129362200Y-105029000D01*
X115087400Y-106857800D02*
X116713000Y-108483400D01*
X116713000Y-108483400D02*
X117424200Y-109194600D01*
X116713000Y-108483400D02*
X116713000Y-108483400D01*
X128447800Y-109194600D02*
X129362200Y-109194600D01*
X114833400Y-106603800D02*
X115087400Y-106857800D01*
X138023700Y-92557700D02*
X139700000Y-94234000D01*
X127330200Y-92557700D02*
X138023700Y-92557700D01*
D24*
G04 #@! TO.N,SENS_B*
X132831819Y-113484722D02*
X132831819Y-115008722D01*
X132702341Y-113614200D02*
X132831819Y-113484722D01*
X131445000Y-113461800D02*
X132753141Y-113461800D01*
G04 #@! TO.N,SENS_A*
X132841900Y-110413800D02*
X132841900Y-111937800D01*
X132841900Y-110413800D02*
X131394200Y-110413800D01*
G04 #@! TO.N,SENS_SUPPLY*
X139115700Y-111404400D02*
X139115700Y-109829600D01*
D26*
X137693400Y-109829600D02*
X139115700Y-109829600D01*
D24*
G04 #@! TO.N,SENS_C*
X132841900Y-116560600D02*
X132841900Y-118084600D01*
X131445000Y-116560600D02*
X131394200Y-116509800D01*
X132841900Y-116560600D02*
X131445000Y-116560600D01*
G04 #@! TO.N,Net-(R10-Pad1)*
X132024690Y-93751400D02*
X132105400Y-93832110D01*
X131576510Y-94361000D02*
X132105400Y-93832110D01*
X130454500Y-94361000D02*
X131576510Y-94361000D01*
G04 #@! TO.N,NRST*
X115849400Y-95783400D02*
X116509800Y-95123000D01*
D26*
X115849607Y-95783607D02*
X115849607Y-96391951D01*
X115849400Y-95783400D02*
X115849607Y-95783607D01*
D24*
G04 #@! TO.N,Net-(C38-Pad1)*
X122732900Y-94157800D02*
X124079000Y-94157800D01*
G04 #@! TD*
D26*
G04 #@! TO.N,V_SUPPLY*
G36*
X166116000Y-76200000D02*
X164211000Y-76200000D01*
X164065198Y-76229002D01*
X163941592Y-76311592D01*
X163859002Y-76435198D01*
X163830000Y-76581000D01*
X163830000Y-80518000D01*
X160655000Y-80518000D01*
X160509198Y-80547002D01*
X160385592Y-80629592D01*
X160303002Y-80753198D01*
X160274000Y-80899000D01*
X160274000Y-87503000D01*
X160303002Y-87648802D01*
X160385592Y-87772408D01*
X160509198Y-87854998D01*
X160655000Y-87884000D01*
X166116000Y-87884000D01*
X166116000Y-91440000D01*
X163957000Y-91440000D01*
X163811932Y-91468699D01*
X163688155Y-91551031D01*
X163605307Y-91674464D01*
X163576001Y-91820205D01*
X163567789Y-95758000D01*
X160645995Y-95758000D01*
X160500193Y-95787002D01*
X160376587Y-95869592D01*
X160293997Y-95993198D01*
X160264995Y-96139000D01*
X160264995Y-102743000D01*
X160293997Y-102888802D01*
X160376587Y-103012408D01*
X160500193Y-103094998D01*
X160645995Y-103124000D01*
X166116000Y-103124000D01*
X166116000Y-106680000D01*
X163947995Y-106680000D01*
X163802193Y-106709002D01*
X163678587Y-106791592D01*
X163595997Y-106915198D01*
X163566995Y-107061000D01*
X163566995Y-110998000D01*
X160645995Y-110998000D01*
X160500193Y-111027002D01*
X160376587Y-111109592D01*
X160293997Y-111233198D01*
X160264995Y-111379000D01*
X160264995Y-117983000D01*
X160293997Y-118128802D01*
X160376587Y-118252408D01*
X160500193Y-118334998D01*
X160645995Y-118364000D01*
X166116000Y-118364000D01*
X166116000Y-128524000D01*
X156718000Y-128524000D01*
X156718000Y-62559000D01*
X166116000Y-62559000D01*
X166116000Y-76200000D01*
X166116000Y-76200000D01*
G37*
X166116000Y-76200000D02*
X164211000Y-76200000D01*
X164065198Y-76229002D01*
X163941592Y-76311592D01*
X163859002Y-76435198D01*
X163830000Y-76581000D01*
X163830000Y-80518000D01*
X160655000Y-80518000D01*
X160509198Y-80547002D01*
X160385592Y-80629592D01*
X160303002Y-80753198D01*
X160274000Y-80899000D01*
X160274000Y-87503000D01*
X160303002Y-87648802D01*
X160385592Y-87772408D01*
X160509198Y-87854998D01*
X160655000Y-87884000D01*
X166116000Y-87884000D01*
X166116000Y-91440000D01*
X163957000Y-91440000D01*
X163811932Y-91468699D01*
X163688155Y-91551031D01*
X163605307Y-91674464D01*
X163576001Y-91820205D01*
X163567789Y-95758000D01*
X160645995Y-95758000D01*
X160500193Y-95787002D01*
X160376587Y-95869592D01*
X160293997Y-95993198D01*
X160264995Y-96139000D01*
X160264995Y-102743000D01*
X160293997Y-102888802D01*
X160376587Y-103012408D01*
X160500193Y-103094998D01*
X160645995Y-103124000D01*
X166116000Y-103124000D01*
X166116000Y-106680000D01*
X163947995Y-106680000D01*
X163802193Y-106709002D01*
X163678587Y-106791592D01*
X163595997Y-106915198D01*
X163566995Y-107061000D01*
X163566995Y-110998000D01*
X160645995Y-110998000D01*
X160500193Y-111027002D01*
X160376587Y-111109592D01*
X160293997Y-111233198D01*
X160264995Y-111379000D01*
X160264995Y-117983000D01*
X160293997Y-118128802D01*
X160376587Y-118252408D01*
X160500193Y-118334998D01*
X160645995Y-118364000D01*
X166116000Y-118364000D01*
X166116000Y-128524000D01*
X156718000Y-128524000D01*
X156718000Y-62559000D01*
X166116000Y-62559000D01*
X166116000Y-76200000D01*
G04 #@! TO.N,SH_A*
G36*
X171196000Y-87376000D02*
X160782000Y-87376000D01*
X160782000Y-81026000D01*
X164211000Y-81026000D01*
X164235776Y-81023560D01*
X164259601Y-81016333D01*
X164281557Y-81004597D01*
X164300803Y-80988803D01*
X164316597Y-80969557D01*
X164328333Y-80947601D01*
X164335560Y-80923776D01*
X164338000Y-80899000D01*
X164338000Y-76708000D01*
X171196000Y-76708000D01*
X171196000Y-87376000D01*
X171196000Y-87376000D01*
G37*
X171196000Y-87376000D02*
X160782000Y-87376000D01*
X160782000Y-81026000D01*
X164211000Y-81026000D01*
X164235776Y-81023560D01*
X164259601Y-81016333D01*
X164281557Y-81004597D01*
X164300803Y-80988803D01*
X164316597Y-80969557D01*
X164328333Y-80947601D01*
X164335560Y-80923776D01*
X164338000Y-80899000D01*
X164338000Y-76708000D01*
X171196000Y-76708000D01*
X171196000Y-87376000D01*
G04 #@! TO.N,SH_B*
G36*
X171187100Y-102616000D02*
X160772995Y-102616000D01*
X160772995Y-96266000D01*
X163947995Y-96266000D01*
X163972771Y-96263560D01*
X163996596Y-96256333D01*
X164018552Y-96244597D01*
X164037798Y-96228803D01*
X164053592Y-96209557D01*
X164065328Y-96187601D01*
X164072555Y-96163776D01*
X164074995Y-96139265D01*
X164083736Y-91948000D01*
X171195895Y-91948000D01*
X171187100Y-102616000D01*
X171187100Y-102616000D01*
G37*
X171187100Y-102616000D02*
X160772995Y-102616000D01*
X160772995Y-96266000D01*
X163947995Y-96266000D01*
X163972771Y-96263560D01*
X163996596Y-96256333D01*
X164018552Y-96244597D01*
X164037798Y-96228803D01*
X164053592Y-96209557D01*
X164065328Y-96187601D01*
X164072555Y-96163776D01*
X164074995Y-96139265D01*
X164083736Y-91948000D01*
X171195895Y-91948000D01*
X171187100Y-102616000D01*
G04 #@! TO.N,SH_C*
G36*
X171186995Y-117856000D02*
X160772995Y-117856000D01*
X160772995Y-111506000D01*
X163947995Y-111506000D01*
X163972771Y-111503560D01*
X163996596Y-111496333D01*
X164018552Y-111484597D01*
X164037798Y-111468803D01*
X164053592Y-111449557D01*
X164065328Y-111427601D01*
X164072555Y-111403776D01*
X164074995Y-111379000D01*
X164074995Y-107188000D01*
X171186995Y-107188000D01*
X171186995Y-117856000D01*
X171186995Y-117856000D01*
G37*
X171186995Y-117856000D02*
X160772995Y-117856000D01*
X160772995Y-111506000D01*
X163947995Y-111506000D01*
X163972771Y-111503560D01*
X163996596Y-111496333D01*
X164018552Y-111484597D01*
X164037798Y-111468803D01*
X164053592Y-111449557D01*
X164065328Y-111427601D01*
X164072555Y-111403776D01*
X164074995Y-111379000D01*
X164074995Y-107188000D01*
X171186995Y-107188000D01*
X171186995Y-117856000D01*
G04 #@! TO.N,V_SUPPLY*
G36*
X141478000Y-108331000D02*
X138557000Y-108331000D01*
X138557000Y-105247724D01*
X138902724Y-104902000D01*
X141478000Y-104902000D01*
X141478000Y-108331000D01*
X141478000Y-108331000D01*
G37*
X141478000Y-108331000D02*
X138557000Y-108331000D01*
X138557000Y-105247724D01*
X138902724Y-104902000D01*
X141478000Y-104902000D01*
X141478000Y-108331000D01*
G36*
X145161000Y-92202000D02*
X142113000Y-92202000D01*
X142113000Y-90551000D01*
X145161000Y-90551000D01*
X145161000Y-92202000D01*
X145161000Y-92202000D01*
G37*
X145161000Y-92202000D02*
X142113000Y-92202000D01*
X142113000Y-90551000D01*
X145161000Y-90551000D01*
X145161000Y-92202000D01*
G04 #@! TO.N,VCC_3V3*
G36*
X128524000Y-75438000D02*
X127254000Y-75438000D01*
X127254000Y-68707000D01*
X128524000Y-68707000D01*
X128524000Y-75438000D01*
X128524000Y-75438000D01*
G37*
X128524000Y-75438000D02*
X127254000Y-75438000D01*
X127254000Y-68707000D01*
X128524000Y-68707000D01*
X128524000Y-75438000D01*
G04 #@! TO.N,5V*
G36*
X147828000Y-82804000D02*
X139319000Y-82804000D01*
X139270399Y-82813667D01*
X139229197Y-82841197D01*
X139201667Y-82882399D01*
X139192000Y-82931000D01*
X139192000Y-83820000D01*
X130810000Y-83820000D01*
X130810000Y-78486000D01*
X147828000Y-78486000D01*
X147828000Y-82804000D01*
X147828000Y-82804000D01*
G37*
X147828000Y-82804000D02*
X139319000Y-82804000D01*
X139270399Y-82813667D01*
X139229197Y-82841197D01*
X139201667Y-82882399D01*
X139192000Y-82931000D01*
X139192000Y-83820000D01*
X130810000Y-83820000D01*
X130810000Y-78486000D01*
X147828000Y-78486000D01*
X147828000Y-82804000D01*
G04 #@! TO.N,GND*
G36*
X155932292Y-111315500D02*
X150328934Y-111315500D01*
X145097500Y-106084068D01*
X145097500Y-104029000D01*
X145296536Y-104029000D01*
X145296536Y-106029000D01*
X145326106Y-106177659D01*
X145410314Y-106303686D01*
X145536341Y-106387894D01*
X145685000Y-106417464D01*
X147685000Y-106417464D01*
X147833659Y-106387894D01*
X147959686Y-106303686D01*
X148043894Y-106177659D01*
X148073464Y-106029000D01*
X148073464Y-105537000D01*
X148157458Y-105537000D01*
X148263039Y-105642581D01*
X148263039Y-105792054D01*
X148373246Y-106058117D01*
X148576883Y-106261754D01*
X148842946Y-106371961D01*
X149130932Y-106371961D01*
X149396995Y-106261754D01*
X149600632Y-106058117D01*
X149710839Y-105792054D01*
X149710839Y-105504068D01*
X149600632Y-105238005D01*
X149396995Y-105034368D01*
X149130932Y-104924161D01*
X148981459Y-104924161D01*
X148762466Y-104705168D01*
X148734125Y-104662753D01*
X148566090Y-104550475D01*
X148417910Y-104521000D01*
X148417906Y-104521000D01*
X148367878Y-104511049D01*
X148317850Y-104521000D01*
X148073464Y-104521000D01*
X148073464Y-104029000D01*
X148043894Y-103880341D01*
X147959686Y-103754314D01*
X147833659Y-103670106D01*
X147685000Y-103640536D01*
X145685000Y-103640536D01*
X145536341Y-103670106D01*
X145410314Y-103754314D01*
X145326106Y-103880341D01*
X145296536Y-104029000D01*
X145097500Y-104029000D01*
X145097500Y-103615007D01*
X152107900Y-103615007D01*
X152107900Y-103902993D01*
X152218107Y-104169056D01*
X152421744Y-104372693D01*
X152687807Y-104482900D01*
X152975793Y-104482900D01*
X153241856Y-104372693D01*
X153445493Y-104169056D01*
X153555700Y-103902993D01*
X153555700Y-103615007D01*
X153445493Y-103348944D01*
X153241856Y-103145307D01*
X152975793Y-103035100D01*
X152687807Y-103035100D01*
X152421744Y-103145307D01*
X152218107Y-103348944D01*
X152107900Y-103615007D01*
X145097500Y-103615007D01*
X145097500Y-101389664D01*
X145156314Y-101477686D01*
X145282341Y-101561894D01*
X145431000Y-101591464D01*
X147101043Y-101591464D01*
X147142201Y-101632622D01*
X147142201Y-101770050D01*
X147036507Y-101875744D01*
X146926300Y-102141807D01*
X146926300Y-102429793D01*
X147036507Y-102695856D01*
X147240144Y-102899493D01*
X147506207Y-103009700D01*
X147794193Y-103009700D01*
X148060256Y-102899493D01*
X148263893Y-102695856D01*
X148374100Y-102429793D01*
X148374100Y-102141807D01*
X148263893Y-101875744D01*
X148158200Y-101770051D01*
X148158200Y-101472227D01*
X148168151Y-101422199D01*
X148159719Y-101379807D01*
X150736300Y-101379807D01*
X150736300Y-101667793D01*
X150846507Y-101933856D01*
X151050144Y-102137493D01*
X151316207Y-102247700D01*
X151604193Y-102247700D01*
X151870256Y-102137493D01*
X152073893Y-101933856D01*
X152107900Y-101851756D01*
X152107900Y-102023393D01*
X152218107Y-102289456D01*
X152421744Y-102493093D01*
X152687807Y-102603300D01*
X152975793Y-102603300D01*
X153241856Y-102493093D01*
X153445493Y-102289456D01*
X153555700Y-102023393D01*
X153555700Y-101735407D01*
X153445493Y-101469344D01*
X153241856Y-101265707D01*
X152975793Y-101155500D01*
X152687807Y-101155500D01*
X152421744Y-101265707D01*
X152218107Y-101469344D01*
X152184100Y-101551444D01*
X152184100Y-101379807D01*
X152073893Y-101113744D01*
X151870256Y-100910107D01*
X151604193Y-100799900D01*
X151316207Y-100799900D01*
X151050144Y-100910107D01*
X150846507Y-101113744D01*
X150736300Y-101379807D01*
X148159719Y-101379807D01*
X148158200Y-101372171D01*
X148158200Y-101372168D01*
X148128725Y-101223988D01*
X148106036Y-101190032D01*
X148044788Y-101098367D01*
X148044786Y-101098365D01*
X148016447Y-101055953D01*
X147974035Y-101027614D01*
X147819464Y-100873043D01*
X147819464Y-99203000D01*
X147789894Y-99054341D01*
X147705686Y-98928314D01*
X147579659Y-98844106D01*
X147431000Y-98814536D01*
X145431000Y-98814536D01*
X145282341Y-98844106D01*
X145156314Y-98928314D01*
X145097500Y-99016336D01*
X145097500Y-95487007D01*
X147739100Y-95487007D01*
X147739100Y-95774993D01*
X147849307Y-96041056D01*
X148052944Y-96244693D01*
X148319007Y-96354900D01*
X148606993Y-96354900D01*
X148873056Y-96244693D01*
X149076693Y-96041056D01*
X149186900Y-95774993D01*
X149186900Y-95487007D01*
X149076693Y-95220944D01*
X148873056Y-95017307D01*
X148606993Y-94907100D01*
X148319007Y-94907100D01*
X148052944Y-95017307D01*
X147849307Y-95220944D01*
X147739100Y-95487007D01*
X145097500Y-95487007D01*
X145097500Y-92710000D01*
X145288000Y-92710000D01*
X145433802Y-92680998D01*
X145557408Y-92598408D01*
X145639998Y-92474802D01*
X145669000Y-92329000D01*
X145669000Y-90424000D01*
X145639998Y-90278198D01*
X145557408Y-90154592D01*
X145433802Y-90072002D01*
X145288000Y-90043000D01*
X141986000Y-90043000D01*
X141840198Y-90072002D01*
X141716592Y-90154592D01*
X141634002Y-90278198D01*
X141605000Y-90424000D01*
X141605000Y-92329000D01*
X141634002Y-92474802D01*
X141716592Y-92598408D01*
X141840198Y-92680998D01*
X141986000Y-92710000D01*
X143446501Y-92710000D01*
X143446501Y-95282057D01*
X143283351Y-95118907D01*
X143017288Y-95008700D01*
X142729302Y-95008700D01*
X142463239Y-95118907D01*
X142259602Y-95322544D01*
X142149395Y-95588607D01*
X142149395Y-95876593D01*
X142259602Y-96142656D01*
X142339895Y-96222949D01*
X142339896Y-96949570D01*
X140449300Y-98840167D01*
X140449300Y-98801697D01*
X140339093Y-98535634D01*
X140330043Y-98526584D01*
X140339093Y-98517533D01*
X140449300Y-98251470D01*
X140449300Y-97963484D01*
X140339093Y-97697421D01*
X140135456Y-97493784D01*
X139869393Y-97383577D01*
X139581407Y-97383577D01*
X139315344Y-97493784D01*
X139111707Y-97697421D01*
X139001500Y-97963484D01*
X139001500Y-98251470D01*
X139111707Y-98517533D01*
X139120758Y-98526584D01*
X139111707Y-98535634D01*
X139001500Y-98801697D01*
X139001500Y-99089683D01*
X139111707Y-99355746D01*
X139315344Y-99559383D01*
X139420523Y-99602949D01*
X139238811Y-99678217D01*
X139035174Y-99881854D01*
X138924967Y-100147917D01*
X138924967Y-100435903D01*
X139035174Y-100701966D01*
X139065853Y-100732645D01*
X138961180Y-100985347D01*
X138961180Y-101273333D01*
X139071387Y-101539396D01*
X139267425Y-101735434D01*
X135473777Y-105529083D01*
X135429241Y-105558841D01*
X135311349Y-105735279D01*
X135280400Y-105890870D01*
X135280400Y-105890874D01*
X135269952Y-105943400D01*
X135280400Y-105995926D01*
X135280401Y-110319958D01*
X134538489Y-111061871D01*
X134538486Y-111061873D01*
X134526023Y-111074336D01*
X134198150Y-111074336D01*
X133965779Y-111120557D01*
X133768785Y-111252185D01*
X133637157Y-111449179D01*
X133629400Y-111488176D01*
X133621643Y-111449179D01*
X133490015Y-111252185D01*
X133375697Y-111175800D01*
X133490015Y-111099415D01*
X133621643Y-110902421D01*
X133667864Y-110670050D01*
X133667864Y-110157550D01*
X133621643Y-109925179D01*
X133490015Y-109728185D01*
X133293021Y-109596557D01*
X133060650Y-109550336D01*
X132623150Y-109550336D01*
X132390779Y-109596557D01*
X132193785Y-109728185D01*
X132092078Y-109880400D01*
X131884549Y-109880400D01*
X131804256Y-109800107D01*
X131538193Y-109689900D01*
X131250207Y-109689900D01*
X130984144Y-109800107D01*
X130780507Y-110003744D01*
X130670300Y-110269807D01*
X130670300Y-110557793D01*
X130780507Y-110823856D01*
X130984144Y-111027493D01*
X131250207Y-111137700D01*
X131538193Y-111137700D01*
X131804256Y-111027493D01*
X131884549Y-110947200D01*
X132092078Y-110947200D01*
X132193785Y-111099415D01*
X132308103Y-111175800D01*
X132193785Y-111252185D01*
X132062157Y-111449179D01*
X132015936Y-111681550D01*
X132015936Y-112194050D01*
X132062157Y-112426421D01*
X132193785Y-112623415D01*
X132320215Y-112707893D01*
X132183704Y-112799107D01*
X132097313Y-112928400D01*
X131935349Y-112928400D01*
X131855056Y-112848107D01*
X131588993Y-112737900D01*
X131301007Y-112737900D01*
X131034944Y-112848107D01*
X130831307Y-113051744D01*
X130721100Y-113317807D01*
X130721100Y-113605793D01*
X130831307Y-113871856D01*
X131034944Y-114075493D01*
X131301007Y-114185700D01*
X131588993Y-114185700D01*
X131855056Y-114075493D01*
X131935349Y-113995200D01*
X132066680Y-113995200D01*
X132183704Y-114170337D01*
X132298022Y-114246722D01*
X132183704Y-114323107D01*
X132052076Y-114520101D01*
X132005855Y-114752472D01*
X132005855Y-115264972D01*
X132052076Y-115497343D01*
X132183704Y-115694337D01*
X132323923Y-115788029D01*
X132193785Y-115874985D01*
X132092078Y-116027200D01*
X131935349Y-116027200D01*
X131804256Y-115896107D01*
X131538193Y-115785900D01*
X131250207Y-115785900D01*
X130984144Y-115896107D01*
X130780507Y-116099744D01*
X130670300Y-116365807D01*
X130670300Y-116653793D01*
X130780507Y-116919856D01*
X130984144Y-117123493D01*
X131250207Y-117233700D01*
X131538193Y-117233700D01*
X131804256Y-117123493D01*
X131833749Y-117094000D01*
X132092078Y-117094000D01*
X132193785Y-117246215D01*
X132308103Y-117322600D01*
X132193785Y-117398985D01*
X132062157Y-117595979D01*
X132015936Y-117828350D01*
X132015936Y-118340850D01*
X132062157Y-118573221D01*
X132193785Y-118770215D01*
X132390779Y-118901843D01*
X132623150Y-118948064D01*
X133060650Y-118948064D01*
X133293021Y-118901843D01*
X133490015Y-118770215D01*
X133621643Y-118573221D01*
X133667864Y-118340850D01*
X133667864Y-117828350D01*
X133621643Y-117595979D01*
X133490015Y-117398985D01*
X133375697Y-117322600D01*
X133490015Y-117246215D01*
X133621643Y-117049221D01*
X133629400Y-117010224D01*
X133637157Y-117049221D01*
X133768785Y-117246215D01*
X133965779Y-117377843D01*
X134198150Y-117424064D01*
X134635650Y-117424064D01*
X134868021Y-117377843D01*
X135065015Y-117246215D01*
X135196643Y-117049221D01*
X135211325Y-116975407D01*
X152057100Y-116975407D01*
X152057100Y-117263393D01*
X152167307Y-117529456D01*
X152370944Y-117733093D01*
X152637007Y-117843300D01*
X152924993Y-117843300D01*
X153191056Y-117733093D01*
X153394693Y-117529456D01*
X153504900Y-117263393D01*
X153504900Y-116975407D01*
X153394693Y-116709344D01*
X153191056Y-116505707D01*
X152924993Y-116395500D01*
X152637007Y-116395500D01*
X152370944Y-116505707D01*
X152167307Y-116709344D01*
X152057100Y-116975407D01*
X135211325Y-116975407D01*
X135242864Y-116816850D01*
X135242864Y-116488976D01*
X136559833Y-115172007D01*
X148374100Y-115172007D01*
X148374100Y-115459993D01*
X148484307Y-115726056D01*
X148687944Y-115929693D01*
X148954007Y-116039900D01*
X149241993Y-116039900D01*
X149508056Y-115929693D01*
X149711693Y-115726056D01*
X149821900Y-115459993D01*
X149821900Y-115172007D01*
X149711693Y-114905944D01*
X149508056Y-114702307D01*
X149241993Y-114592100D01*
X148954007Y-114592100D01*
X148687944Y-114702307D01*
X148484307Y-114905944D01*
X148374100Y-115172007D01*
X136559833Y-115172007D01*
X137220625Y-114511215D01*
X137265159Y-114481459D01*
X137383051Y-114305022D01*
X137414000Y-114149431D01*
X137414000Y-114149427D01*
X137424448Y-114096900D01*
X137414000Y-114044373D01*
X137414000Y-113495607D01*
X148170900Y-113495607D01*
X148170900Y-113783593D01*
X148281107Y-114049656D01*
X148484744Y-114253293D01*
X148750807Y-114363500D01*
X149038793Y-114363500D01*
X149304856Y-114253293D01*
X149508493Y-114049656D01*
X149618700Y-113783593D01*
X149618700Y-113495607D01*
X149508493Y-113229544D01*
X149304856Y-113025907D01*
X149038793Y-112915700D01*
X148750807Y-112915700D01*
X148484744Y-113025907D01*
X148281107Y-113229544D01*
X148170900Y-113495607D01*
X137414000Y-113495607D01*
X137414000Y-110497413D01*
X137549407Y-110553500D01*
X137837393Y-110553500D01*
X138103456Y-110443293D01*
X138209149Y-110337600D01*
X138348906Y-110337600D01*
X138467585Y-110515215D01*
X138582301Y-110591866D01*
X138582300Y-110642134D01*
X138467585Y-110718785D01*
X138335957Y-110915779D01*
X138289736Y-111148150D01*
X138289736Y-111660650D01*
X138335957Y-111893021D01*
X138467585Y-112090015D01*
X138664579Y-112221643D01*
X138896950Y-112267864D01*
X139334450Y-112267864D01*
X139566821Y-112221643D01*
X139763815Y-112090015D01*
X139895443Y-111893021D01*
X139941664Y-111660650D01*
X139941664Y-111148150D01*
X139895443Y-110915779D01*
X139763815Y-110718785D01*
X139649100Y-110642134D01*
X139649100Y-110591866D01*
X139763815Y-110515215D01*
X139895443Y-110318221D01*
X139903200Y-110279224D01*
X139910957Y-110318221D01*
X140042585Y-110515215D01*
X140239579Y-110646843D01*
X140471950Y-110693064D01*
X140909450Y-110693064D01*
X141141821Y-110646843D01*
X141338815Y-110515215D01*
X141470443Y-110318221D01*
X141516664Y-110085850D01*
X141516664Y-109573350D01*
X141470443Y-109340979D01*
X141338815Y-109143985D01*
X141224100Y-109067334D01*
X141224100Y-108839000D01*
X141605000Y-108839000D01*
X141750802Y-108809998D01*
X141874408Y-108727408D01*
X141956998Y-108603802D01*
X141986000Y-108458000D01*
X141986000Y-107378500D01*
X144057068Y-107378500D01*
X149345795Y-112667229D01*
X149391848Y-112736152D01*
X149460771Y-112782205D01*
X149460772Y-112782206D01*
X149559400Y-112848107D01*
X149664906Y-112918604D01*
X149905697Y-112966500D01*
X149905701Y-112966500D01*
X149986999Y-112982671D01*
X150068297Y-112966500D01*
X155929792Y-112966500D01*
X155905967Y-128703000D01*
X103580000Y-128703000D01*
X103580000Y-126873000D01*
X115508684Y-126873000D01*
X115604224Y-127353312D01*
X115876299Y-127760501D01*
X116283488Y-128032576D01*
X116642561Y-128104000D01*
X116885039Y-128104000D01*
X117244112Y-128032576D01*
X117651301Y-127760501D01*
X117923376Y-127353312D01*
X118018916Y-126873000D01*
X118048684Y-126873000D01*
X118144224Y-127353312D01*
X118416299Y-127760501D01*
X118823488Y-128032576D01*
X119182561Y-128104000D01*
X119425039Y-128104000D01*
X119784112Y-128032576D01*
X120191301Y-127760501D01*
X120463376Y-127353312D01*
X120558916Y-126873000D01*
X120588684Y-126873000D01*
X120684224Y-127353312D01*
X120956299Y-127760501D01*
X121363488Y-128032576D01*
X121722561Y-128104000D01*
X121965039Y-128104000D01*
X122324112Y-128032576D01*
X122731301Y-127760501D01*
X123003376Y-127353312D01*
X123098916Y-126873000D01*
X123128684Y-126873000D01*
X123224224Y-127353312D01*
X123496299Y-127760501D01*
X123903488Y-128032576D01*
X124262561Y-128104000D01*
X124505039Y-128104000D01*
X124864112Y-128032576D01*
X125271301Y-127760501D01*
X125543376Y-127353312D01*
X125638916Y-126873000D01*
X125668684Y-126873000D01*
X125764224Y-127353312D01*
X126036299Y-127760501D01*
X126443488Y-128032576D01*
X126802561Y-128104000D01*
X127045039Y-128104000D01*
X127404112Y-128032576D01*
X127811301Y-127760501D01*
X128083376Y-127353312D01*
X128178916Y-126873000D01*
X130748684Y-126873000D01*
X130844224Y-127353312D01*
X131116299Y-127760501D01*
X131523488Y-128032576D01*
X131882561Y-128104000D01*
X132125039Y-128104000D01*
X132484112Y-128032576D01*
X132891301Y-127760501D01*
X133163376Y-127353312D01*
X133258916Y-126873000D01*
X133163376Y-126392688D01*
X132891301Y-125985499D01*
X132484112Y-125713424D01*
X132125039Y-125642000D01*
X131882561Y-125642000D01*
X131523488Y-125713424D01*
X131116299Y-125985499D01*
X130844224Y-126392688D01*
X130748684Y-126873000D01*
X128178916Y-126873000D01*
X128083376Y-126392688D01*
X127811301Y-125985499D01*
X127404112Y-125713424D01*
X127045039Y-125642000D01*
X126802561Y-125642000D01*
X126443488Y-125713424D01*
X126036299Y-125985499D01*
X125764224Y-126392688D01*
X125668684Y-126873000D01*
X125638916Y-126873000D01*
X125543376Y-126392688D01*
X125271301Y-125985499D01*
X124864112Y-125713424D01*
X124505039Y-125642000D01*
X124262561Y-125642000D01*
X123903488Y-125713424D01*
X123496299Y-125985499D01*
X123224224Y-126392688D01*
X123128684Y-126873000D01*
X123098916Y-126873000D01*
X123003376Y-126392688D01*
X122731301Y-125985499D01*
X122324112Y-125713424D01*
X121965039Y-125642000D01*
X121722561Y-125642000D01*
X121363488Y-125713424D01*
X120956299Y-125985499D01*
X120684224Y-126392688D01*
X120588684Y-126873000D01*
X120558916Y-126873000D01*
X120463376Y-126392688D01*
X120191301Y-125985499D01*
X119784112Y-125713424D01*
X119425039Y-125642000D01*
X119182561Y-125642000D01*
X118823488Y-125713424D01*
X118416299Y-125985499D01*
X118144224Y-126392688D01*
X118048684Y-126873000D01*
X118018916Y-126873000D01*
X117923376Y-126392688D01*
X117651301Y-125985499D01*
X117244112Y-125713424D01*
X116885039Y-125642000D01*
X116642561Y-125642000D01*
X116283488Y-125713424D01*
X115876299Y-125985499D01*
X115604224Y-126392688D01*
X115508684Y-126873000D01*
X103580000Y-126873000D01*
X103580000Y-124036607D01*
X126199900Y-124036607D01*
X126199900Y-124324593D01*
X126310107Y-124590656D01*
X126513744Y-124794293D01*
X126779807Y-124904500D01*
X127067793Y-124904500D01*
X127333856Y-124794293D01*
X127537493Y-124590656D01*
X127647700Y-124324593D01*
X127647700Y-124036607D01*
X127537493Y-123770544D01*
X127333856Y-123566907D01*
X127067793Y-123456700D01*
X126779807Y-123456700D01*
X126513744Y-123566907D01*
X126310107Y-123770544D01*
X126199900Y-124036607D01*
X103580000Y-124036607D01*
X103580000Y-121649007D01*
X127749300Y-121649007D01*
X127749300Y-121936993D01*
X127859507Y-122203056D01*
X128063144Y-122406693D01*
X128329207Y-122516900D01*
X128617193Y-122516900D01*
X128883256Y-122406693D01*
X129086893Y-122203056D01*
X129197100Y-121936993D01*
X129197100Y-121649007D01*
X129086893Y-121382944D01*
X128883256Y-121179307D01*
X128617193Y-121069100D01*
X128329207Y-121069100D01*
X128063144Y-121179307D01*
X127859507Y-121382944D01*
X127749300Y-121649007D01*
X103580000Y-121649007D01*
X103580000Y-104267000D01*
X104027884Y-104267000D01*
X104123424Y-104747312D01*
X104395499Y-105154501D01*
X104802688Y-105426576D01*
X105161761Y-105498000D01*
X105404239Y-105498000D01*
X105763312Y-105426576D01*
X106170501Y-105154501D01*
X106442576Y-104747312D01*
X106538116Y-104267000D01*
X106442576Y-103786688D01*
X106170501Y-103379499D01*
X105763312Y-103107424D01*
X105404239Y-103036000D01*
X105161761Y-103036000D01*
X104802688Y-103107424D01*
X104395499Y-103379499D01*
X104123424Y-103786688D01*
X104027884Y-104267000D01*
X103580000Y-104267000D01*
X103580000Y-101727000D01*
X104027884Y-101727000D01*
X104123424Y-102207312D01*
X104395499Y-102614501D01*
X104802688Y-102886576D01*
X105161761Y-102958000D01*
X105404239Y-102958000D01*
X105763312Y-102886576D01*
X106170501Y-102614501D01*
X106442576Y-102207312D01*
X106538116Y-101727000D01*
X106442576Y-101246688D01*
X106170501Y-100839499D01*
X105763312Y-100567424D01*
X105404239Y-100496000D01*
X105161761Y-100496000D01*
X104802688Y-100567424D01*
X104395499Y-100839499D01*
X104123424Y-101246688D01*
X104027884Y-101727000D01*
X103580000Y-101727000D01*
X103580000Y-99187000D01*
X104027884Y-99187000D01*
X104123424Y-99667312D01*
X104395499Y-100074501D01*
X104802688Y-100346576D01*
X105161761Y-100418000D01*
X105404239Y-100418000D01*
X105763312Y-100346576D01*
X106170501Y-100074501D01*
X106442576Y-99667312D01*
X106538116Y-99187000D01*
X106442576Y-98706688D01*
X106170501Y-98299499D01*
X105763312Y-98027424D01*
X105404239Y-97956000D01*
X105161761Y-97956000D01*
X104802688Y-98027424D01*
X104395499Y-98299499D01*
X104123424Y-98706688D01*
X104027884Y-99187000D01*
X103580000Y-99187000D01*
X103580000Y-93963007D01*
X104051100Y-93963007D01*
X104051100Y-94250993D01*
X104161307Y-94517056D01*
X104364944Y-94720693D01*
X104631007Y-94830900D01*
X104918993Y-94830900D01*
X105185056Y-94720693D01*
X105388693Y-94517056D01*
X105498900Y-94250993D01*
X105498900Y-93963007D01*
X105575100Y-93963007D01*
X105575100Y-94250993D01*
X105685307Y-94517056D01*
X105888944Y-94720693D01*
X106155007Y-94830900D01*
X106442993Y-94830900D01*
X106709056Y-94720693D01*
X106912693Y-94517056D01*
X107022900Y-94250993D01*
X107022900Y-93963007D01*
X107099100Y-93963007D01*
X107099100Y-94250993D01*
X107209307Y-94517056D01*
X107412944Y-94720693D01*
X107679007Y-94830900D01*
X107966993Y-94830900D01*
X108233056Y-94720693D01*
X108436693Y-94517056D01*
X108546900Y-94250993D01*
X108546900Y-93963007D01*
X108436693Y-93696944D01*
X108233056Y-93493307D01*
X107966993Y-93383100D01*
X107679007Y-93383100D01*
X107412944Y-93493307D01*
X107209307Y-93696944D01*
X107099100Y-93963007D01*
X107022900Y-93963007D01*
X106912693Y-93696944D01*
X106709056Y-93493307D01*
X106442993Y-93383100D01*
X106155007Y-93383100D01*
X105888944Y-93493307D01*
X105685307Y-93696944D01*
X105575100Y-93963007D01*
X105498900Y-93963007D01*
X105388693Y-93696944D01*
X105185056Y-93493307D01*
X104918993Y-93383100D01*
X104631007Y-93383100D01*
X104364944Y-93493307D01*
X104161307Y-93696944D01*
X104051100Y-93963007D01*
X103580000Y-93963007D01*
X103580000Y-83693000D01*
X103900884Y-83693000D01*
X103996424Y-84173312D01*
X104268499Y-84580501D01*
X104675688Y-84852576D01*
X105034761Y-84924000D01*
X105277239Y-84924000D01*
X105636312Y-84852576D01*
X106043501Y-84580501D01*
X106315576Y-84173312D01*
X106411116Y-83693000D01*
X106315576Y-83212688D01*
X106043501Y-82805499D01*
X105636312Y-82533424D01*
X105277239Y-82462000D01*
X105034761Y-82462000D01*
X104675688Y-82533424D01*
X104268499Y-82805499D01*
X103996424Y-83212688D01*
X103900884Y-83693000D01*
X103580000Y-83693000D01*
X103580000Y-81153000D01*
X103900884Y-81153000D01*
X103996424Y-81633312D01*
X104268499Y-82040501D01*
X104675688Y-82312576D01*
X105034761Y-82384000D01*
X105277239Y-82384000D01*
X105636312Y-82312576D01*
X106043501Y-82040501D01*
X106315576Y-81633312D01*
X106411116Y-81153000D01*
X106315576Y-80672688D01*
X106043501Y-80265499D01*
X105636312Y-79993424D01*
X105277239Y-79922000D01*
X105034761Y-79922000D01*
X104675688Y-79993424D01*
X104268499Y-80265499D01*
X103996424Y-80672688D01*
X103900884Y-81153000D01*
X103580000Y-81153000D01*
X103580000Y-77763000D01*
X103917536Y-77763000D01*
X103917536Y-79463000D01*
X103947106Y-79611659D01*
X104031314Y-79737686D01*
X104157341Y-79821894D01*
X104306000Y-79851464D01*
X106006000Y-79851464D01*
X106154659Y-79821894D01*
X106280686Y-79737686D01*
X106364894Y-79611659D01*
X106394464Y-79463000D01*
X106394464Y-79311500D01*
X109004089Y-79311500D01*
X109004090Y-89701440D01*
X109004089Y-89701445D01*
X109004090Y-106108500D01*
X106521464Y-106108500D01*
X106521464Y-105957000D01*
X106491894Y-105808341D01*
X106407686Y-105682314D01*
X106281659Y-105598106D01*
X106133000Y-105568536D01*
X104433000Y-105568536D01*
X104284341Y-105598106D01*
X104158314Y-105682314D01*
X104074106Y-105808341D01*
X104044536Y-105957000D01*
X104044536Y-107657000D01*
X104074106Y-107805659D01*
X104158314Y-107931686D01*
X104284341Y-108015894D01*
X104433000Y-108045464D01*
X106133000Y-108045464D01*
X106281659Y-108015894D01*
X106407686Y-107931686D01*
X106491894Y-107805659D01*
X106521464Y-107657000D01*
X106521464Y-107505500D01*
X109016800Y-107505500D01*
X109016801Y-112148806D01*
X108986673Y-112300267D01*
X109016801Y-112451728D01*
X109016801Y-112489423D01*
X109068382Y-112748737D01*
X109264868Y-113042800D01*
X109558931Y-113239286D01*
X109578831Y-113243244D01*
X116993493Y-120657907D01*
X117043089Y-120732133D01*
X117337152Y-120928619D01*
X117596466Y-120980200D01*
X117684021Y-120997616D01*
X117771576Y-120980200D01*
X129148173Y-120980200D01*
X133802508Y-125634536D01*
X133693800Y-125634536D01*
X133545141Y-125664106D01*
X133419114Y-125748314D01*
X133334906Y-125874341D01*
X133305336Y-126023000D01*
X133305336Y-127723000D01*
X133334906Y-127871659D01*
X133419114Y-127997686D01*
X133545141Y-128081894D01*
X133693800Y-128111464D01*
X135393800Y-128111464D01*
X135542459Y-128081894D01*
X135668486Y-127997686D01*
X135752694Y-127871659D01*
X135782264Y-127723000D01*
X135782264Y-126023000D01*
X135752694Y-125874341D01*
X135668486Y-125748314D01*
X135542459Y-125664106D01*
X135393800Y-125634536D01*
X135242300Y-125634536D01*
X135242300Y-125456788D01*
X135255983Y-125387999D01*
X135242300Y-125319210D01*
X135242300Y-125319206D01*
X135201772Y-125115459D01*
X135047390Y-124884410D01*
X134989069Y-124845441D01*
X130133201Y-119989574D01*
X130084419Y-119744330D01*
X129887933Y-119450267D01*
X129593870Y-119253781D01*
X129334556Y-119202200D01*
X125839013Y-119202200D01*
X125895100Y-119066793D01*
X125895100Y-118778807D01*
X125784893Y-118512744D01*
X125581256Y-118309107D01*
X125315193Y-118198900D01*
X125027207Y-118198900D01*
X124761144Y-118309107D01*
X124557507Y-118512744D01*
X124447300Y-118778807D01*
X124447300Y-119066793D01*
X124503387Y-119202200D01*
X118052258Y-119202200D01*
X110794800Y-111944743D01*
X110794800Y-106821044D01*
X110782089Y-106757142D01*
X110782089Y-103540316D01*
X114194307Y-106952535D01*
X114219707Y-107013856D01*
X114423344Y-107217493D01*
X114484667Y-107242894D01*
X114544842Y-107303069D01*
X116073908Y-108832136D01*
X116099307Y-108893456D01*
X116302944Y-109097093D01*
X116364266Y-109122493D01*
X116881643Y-109639872D01*
X116920610Y-109698190D01*
X116978928Y-109737157D01*
X116978930Y-109737159D01*
X117117279Y-109829600D01*
X117151659Y-109852572D01*
X117300262Y-109882131D01*
X117424200Y-109906784D01*
X117492994Y-109893100D01*
X128242486Y-109893100D01*
X128303807Y-109918500D01*
X128591793Y-109918500D01*
X128653114Y-109893100D01*
X129293406Y-109893100D01*
X129362200Y-109906784D01*
X129486139Y-109882131D01*
X129634741Y-109852572D01*
X129865790Y-109698190D01*
X130020172Y-109467141D01*
X130074384Y-109194600D01*
X130060700Y-109125806D01*
X130060700Y-105318327D01*
X131967220Y-103411807D01*
X134480300Y-103411807D01*
X134480300Y-103699793D01*
X134590507Y-103965856D01*
X134794144Y-104169493D01*
X135060207Y-104279700D01*
X135348193Y-104279700D01*
X135614256Y-104169493D01*
X135817893Y-103965856D01*
X135928100Y-103699793D01*
X135928100Y-103411807D01*
X135817893Y-103145744D01*
X135719949Y-103047800D01*
X135868693Y-102899056D01*
X135978900Y-102632993D01*
X135978900Y-102345007D01*
X135868693Y-102078944D01*
X135665056Y-101875307D01*
X135398993Y-101765100D01*
X135111007Y-101765100D01*
X134844944Y-101875307D01*
X134641307Y-102078944D01*
X134531100Y-102345007D01*
X134531100Y-102632993D01*
X134641307Y-102899056D01*
X134739251Y-102997000D01*
X134590507Y-103145744D01*
X134480300Y-103411807D01*
X131967220Y-103411807D01*
X132403336Y-102975692D01*
X132464656Y-102950293D01*
X132668293Y-102746656D01*
X132778500Y-102480593D01*
X132778500Y-102192607D01*
X132668293Y-101926544D01*
X132464656Y-101722907D01*
X132198593Y-101612700D01*
X131910607Y-101612700D01*
X131644544Y-101722907D01*
X131440907Y-101926544D01*
X131415508Y-101987864D01*
X129013466Y-104389906D01*
X128952144Y-104415307D01*
X128748507Y-104618944D01*
X128638300Y-104885007D01*
X128638300Y-105172993D01*
X128663700Y-105234314D01*
X128663701Y-108496100D01*
X128653114Y-108496100D01*
X128591793Y-108470700D01*
X128303807Y-108470700D01*
X128242486Y-108496100D01*
X117713528Y-108496100D01*
X117352093Y-108134666D01*
X117326693Y-108073344D01*
X117123056Y-107869707D01*
X117061736Y-107844308D01*
X115532669Y-106315242D01*
X115472494Y-106255067D01*
X115447093Y-106193744D01*
X115243456Y-105990107D01*
X115182135Y-105964707D01*
X114661235Y-105443807D01*
X118325900Y-105443807D01*
X118325900Y-105731793D01*
X118436107Y-105997856D01*
X118639744Y-106201493D01*
X118905807Y-106311700D01*
X119193793Y-106311700D01*
X119459856Y-106201493D01*
X119663493Y-105997856D01*
X119773700Y-105731793D01*
X119773700Y-105443807D01*
X119663493Y-105177744D01*
X119459856Y-104974107D01*
X119193793Y-104863900D01*
X118905807Y-104863900D01*
X118639744Y-104974107D01*
X118436107Y-105177744D01*
X118325900Y-105443807D01*
X114661235Y-105443807D01*
X112095835Y-102878407D01*
X113779300Y-102878407D01*
X113779300Y-103166393D01*
X113889507Y-103432456D01*
X114093144Y-103636093D01*
X114359207Y-103746300D01*
X114647193Y-103746300D01*
X114913256Y-103636093D01*
X115116893Y-103432456D01*
X115227100Y-103166393D01*
X115227100Y-102878407D01*
X115116893Y-102612344D01*
X114913256Y-102408707D01*
X114647193Y-102298500D01*
X114359207Y-102298500D01*
X114093144Y-102408707D01*
X113889507Y-102612344D01*
X113779300Y-102878407D01*
X112095835Y-102878407D01*
X111569500Y-102352073D01*
X111569500Y-100960049D01*
X111629344Y-101019893D01*
X111895407Y-101130100D01*
X112183393Y-101130100D01*
X112449456Y-101019893D01*
X112653093Y-100816256D01*
X112763300Y-100550193D01*
X112763300Y-100262207D01*
X112653093Y-99996144D01*
X112449456Y-99792507D01*
X112183393Y-99682300D01*
X111895407Y-99682300D01*
X111629344Y-99792507D01*
X111569500Y-99852351D01*
X111569500Y-97820067D01*
X114523566Y-97820067D01*
X114523566Y-98108053D01*
X114633773Y-98374116D01*
X114837410Y-98577753D01*
X115019858Y-98653326D01*
X115019858Y-98783548D01*
X115130065Y-99049611D01*
X115333702Y-99253248D01*
X115375549Y-99270582D01*
X115250296Y-99322463D01*
X115046659Y-99526100D01*
X114936452Y-99792163D01*
X114936452Y-100080149D01*
X115039064Y-100327876D01*
X115003729Y-100363211D01*
X114893522Y-100629274D01*
X114893522Y-100917260D01*
X114993530Y-101158701D01*
X114952382Y-101199849D01*
X114842175Y-101465912D01*
X114842175Y-101753898D01*
X114952382Y-102019961D01*
X115156019Y-102223598D01*
X115422082Y-102333805D01*
X115710068Y-102333805D01*
X115976131Y-102223598D01*
X116179768Y-102019961D01*
X116289975Y-101753898D01*
X116289975Y-101465912D01*
X116189967Y-101224471D01*
X116231115Y-101183323D01*
X116341322Y-100917260D01*
X116341322Y-100629274D01*
X116315531Y-100567007D01*
X134175500Y-100567007D01*
X134175500Y-100854993D01*
X134285707Y-101121056D01*
X134489344Y-101324693D01*
X134755407Y-101434900D01*
X135043393Y-101434900D01*
X135309456Y-101324693D01*
X135513093Y-101121056D01*
X135623300Y-100854993D01*
X135623300Y-100567007D01*
X135513093Y-100300944D01*
X135309456Y-100097307D01*
X135043393Y-99987100D01*
X134755407Y-99987100D01*
X134489344Y-100097307D01*
X134285707Y-100300944D01*
X134175500Y-100567007D01*
X116315531Y-100567007D01*
X116238710Y-100381547D01*
X116274045Y-100346212D01*
X116384252Y-100080149D01*
X116384252Y-99792163D01*
X116274045Y-99526100D01*
X116070408Y-99322463D01*
X116028561Y-99305129D01*
X116153814Y-99253248D01*
X116300565Y-99106497D01*
X121959056Y-99106497D01*
X121959056Y-99394483D01*
X122069263Y-99660546D01*
X122272900Y-99864183D01*
X122538963Y-99974390D01*
X122826949Y-99974390D01*
X123093012Y-99864183D01*
X123102063Y-99855133D01*
X123132047Y-99885117D01*
X123398110Y-99995324D01*
X123686096Y-99995324D01*
X123923545Y-99896970D01*
X123968343Y-99941768D01*
X124234406Y-100051975D01*
X124522392Y-100051975D01*
X124788455Y-99941768D01*
X124992092Y-99738131D01*
X125102299Y-99472068D01*
X125102299Y-99184082D01*
X125070163Y-99106497D01*
X125768305Y-99106497D01*
X125768305Y-99394483D01*
X125878512Y-99660546D01*
X126082149Y-99864183D01*
X126348212Y-99974390D01*
X126636198Y-99974390D01*
X126902261Y-99864183D01*
X127105898Y-99660546D01*
X127216105Y-99394483D01*
X127216105Y-99106497D01*
X127210849Y-99093807D01*
X134175500Y-99093807D01*
X134175500Y-99381793D01*
X134285707Y-99647856D01*
X134489344Y-99851493D01*
X134755407Y-99961700D01*
X135043393Y-99961700D01*
X135309456Y-99851493D01*
X135513093Y-99647856D01*
X135623300Y-99381793D01*
X135623300Y-99093807D01*
X135513093Y-98827744D01*
X135309456Y-98624107D01*
X135043393Y-98513900D01*
X134755407Y-98513900D01*
X134489344Y-98624107D01*
X134285707Y-98827744D01*
X134175500Y-99093807D01*
X127210849Y-99093807D01*
X127105898Y-98840434D01*
X126902261Y-98636797D01*
X126636198Y-98526590D01*
X126348212Y-98526590D01*
X126082149Y-98636797D01*
X125878512Y-98840434D01*
X125768305Y-99106497D01*
X125070163Y-99106497D01*
X124992092Y-98918019D01*
X124788455Y-98714382D01*
X124522392Y-98604175D01*
X124234406Y-98604175D01*
X123996957Y-98702529D01*
X123952159Y-98657731D01*
X123686096Y-98547524D01*
X123398110Y-98547524D01*
X123132047Y-98657731D01*
X123122997Y-98666782D01*
X123093012Y-98636797D01*
X122826949Y-98526590D01*
X122538963Y-98526590D01*
X122272900Y-98636797D01*
X122069263Y-98840434D01*
X121959056Y-99106497D01*
X116300565Y-99106497D01*
X116357451Y-99049611D01*
X116467658Y-98783548D01*
X116467658Y-98495562D01*
X116357451Y-98229499D01*
X116153814Y-98025862D01*
X115971366Y-97950289D01*
X115971366Y-97921942D01*
X116102711Y-97867537D01*
X116306348Y-97663900D01*
X116387406Y-97468207D01*
X123558300Y-97468207D01*
X123558300Y-97756193D01*
X123668507Y-98022256D01*
X123872144Y-98225893D01*
X124138207Y-98336100D01*
X124426193Y-98336100D01*
X124692256Y-98225893D01*
X124895893Y-98022256D01*
X125006100Y-97756193D01*
X125006100Y-97468207D01*
X124964016Y-97366607D01*
X126149100Y-97366607D01*
X126149100Y-97654593D01*
X126259307Y-97920656D01*
X126462944Y-98124293D01*
X126729007Y-98234500D01*
X127016993Y-98234500D01*
X127283056Y-98124293D01*
X127291432Y-98115917D01*
X129659927Y-98115917D01*
X129659927Y-98403903D01*
X129770134Y-98669966D01*
X129973771Y-98873603D01*
X130239834Y-98983810D01*
X130527820Y-98983810D01*
X130793883Y-98873603D01*
X130997520Y-98669966D01*
X131107727Y-98403903D01*
X131107727Y-98115917D01*
X130997520Y-97849854D01*
X130793883Y-97646217D01*
X130588788Y-97561264D01*
X130724050Y-97561264D01*
X130956421Y-97515043D01*
X131153415Y-97383415D01*
X131255122Y-97231200D01*
X131455964Y-97231200D01*
X131508490Y-97241648D01*
X131561016Y-97231200D01*
X131561021Y-97231200D01*
X131561071Y-97231190D01*
X131842993Y-97231190D01*
X132109056Y-97120983D01*
X132312693Y-96917346D01*
X132422900Y-96651283D01*
X132422900Y-96363297D01*
X132312693Y-96097234D01*
X132109056Y-95893597D01*
X131842993Y-95783390D01*
X131555007Y-95783390D01*
X131288944Y-95893597D01*
X131160201Y-96022340D01*
X131153415Y-96012185D01*
X130956421Y-95880557D01*
X130724050Y-95834336D01*
X130286550Y-95834336D01*
X130054179Y-95880557D01*
X129857185Y-96012185D01*
X129725557Y-96209179D01*
X129679336Y-96441550D01*
X129679336Y-96954050D01*
X129725557Y-97186421D01*
X129857185Y-97383415D01*
X130054179Y-97515043D01*
X130213801Y-97546793D01*
X129973771Y-97646217D01*
X129770134Y-97849854D01*
X129659927Y-98115917D01*
X127291432Y-98115917D01*
X127486693Y-97920656D01*
X127596900Y-97654593D01*
X127596900Y-97366607D01*
X127486693Y-97100544D01*
X127283056Y-96896907D01*
X127016993Y-96786700D01*
X126729007Y-96786700D01*
X126462944Y-96896907D01*
X126259307Y-97100544D01*
X126149100Y-97366607D01*
X124964016Y-97366607D01*
X124895893Y-97202144D01*
X124692256Y-96998507D01*
X124426193Y-96888300D01*
X124138207Y-96888300D01*
X123872144Y-96998507D01*
X123668507Y-97202144D01*
X123558300Y-97468207D01*
X116387406Y-97468207D01*
X116416555Y-97397837D01*
X116416555Y-97109851D01*
X116340081Y-96925226D01*
X116463300Y-96802007D01*
X116573507Y-96535944D01*
X116573507Y-96247958D01*
X116465193Y-95986464D01*
X116728550Y-95986464D01*
X116960921Y-95940243D01*
X117157915Y-95808615D01*
X117289543Y-95611621D01*
X117335764Y-95379250D01*
X117335764Y-94866750D01*
X117307570Y-94725007D01*
X119087900Y-94725007D01*
X119087900Y-95012993D01*
X119198107Y-95279056D01*
X119401744Y-95482693D01*
X119667807Y-95592900D01*
X119900700Y-95592900D01*
X119900700Y-95724193D01*
X120010907Y-95990256D01*
X120214544Y-96193893D01*
X120480607Y-96304100D01*
X120768593Y-96304100D01*
X120851673Y-96269687D01*
X120925307Y-96447456D01*
X121128944Y-96651093D01*
X121395007Y-96761300D01*
X121682993Y-96761300D01*
X121870754Y-96683527D01*
X121941307Y-96853856D01*
X122144944Y-97057493D01*
X122411007Y-97167700D01*
X122698993Y-97167700D01*
X122965056Y-97057493D01*
X123168693Y-96853856D01*
X123278900Y-96587793D01*
X123278900Y-96299807D01*
X123168693Y-96033744D01*
X122965056Y-95830107D01*
X122698993Y-95719900D01*
X122411007Y-95719900D01*
X122223246Y-95797673D01*
X122152693Y-95627344D01*
X121949056Y-95423707D01*
X121682993Y-95313500D01*
X121395007Y-95313500D01*
X121311927Y-95347913D01*
X121238293Y-95170144D01*
X121034656Y-94966507D01*
X120768593Y-94856300D01*
X120535700Y-94856300D01*
X120535700Y-94725007D01*
X120425493Y-94458944D01*
X120221856Y-94255307D01*
X119955793Y-94145100D01*
X119667807Y-94145100D01*
X119401744Y-94255307D01*
X119198107Y-94458944D01*
X119087900Y-94725007D01*
X117307570Y-94725007D01*
X117289543Y-94634379D01*
X117157915Y-94437385D01*
X116960921Y-94305757D01*
X116728550Y-94259536D01*
X116291050Y-94259536D01*
X116058679Y-94305757D01*
X115861685Y-94437385D01*
X115730057Y-94634379D01*
X115683836Y-94866750D01*
X115683836Y-95194623D01*
X115435085Y-95443375D01*
X115346950Y-95575278D01*
X115305552Y-95783400D01*
X115326931Y-95890878D01*
X115235914Y-95981895D01*
X115125707Y-96247958D01*
X115125707Y-96535944D01*
X115202181Y-96720569D01*
X115078962Y-96843788D01*
X114968755Y-97109851D01*
X114968755Y-97295962D01*
X114837410Y-97350367D01*
X114633773Y-97554004D01*
X114523566Y-97820067D01*
X111569500Y-97820067D01*
X111569500Y-93901550D01*
X121906936Y-93901550D01*
X121906936Y-94414050D01*
X121953157Y-94646421D01*
X122084785Y-94843415D01*
X122281779Y-94975043D01*
X122514150Y-95021264D01*
X122951650Y-95021264D01*
X123184021Y-94975043D01*
X123381015Y-94843415D01*
X123482722Y-94691200D01*
X123588651Y-94691200D01*
X123668944Y-94771493D01*
X123935007Y-94881700D01*
X124222993Y-94881700D01*
X124489056Y-94771493D01*
X124692693Y-94567856D01*
X124802900Y-94301793D01*
X124802900Y-94013807D01*
X124692693Y-93747744D01*
X124489056Y-93544107D01*
X124222993Y-93433900D01*
X123935007Y-93433900D01*
X123668944Y-93544107D01*
X123588651Y-93624400D01*
X123482722Y-93624400D01*
X123381015Y-93472185D01*
X123184021Y-93340557D01*
X122951650Y-93294336D01*
X122514150Y-93294336D01*
X122281779Y-93340557D01*
X122084785Y-93472185D01*
X121953157Y-93669179D01*
X121906936Y-93901550D01*
X111569500Y-93901550D01*
X111569500Y-90153007D01*
X118719579Y-90153007D01*
X118719579Y-90440993D01*
X118829786Y-90707056D01*
X119033423Y-90910693D01*
X119299486Y-91020900D01*
X119587472Y-91020900D01*
X119853535Y-90910693D01*
X120057172Y-90707056D01*
X120167379Y-90440993D01*
X120167379Y-90153007D01*
X120057172Y-89886944D01*
X119853535Y-89683307D01*
X119587472Y-89573100D01*
X119299486Y-89573100D01*
X119033423Y-89683307D01*
X118829786Y-89886944D01*
X118719579Y-90153007D01*
X111569500Y-90153007D01*
X111569500Y-89697327D01*
X113208966Y-88057861D01*
X113471656Y-88320552D01*
X113449100Y-88375007D01*
X113449100Y-88662993D01*
X113559307Y-88929056D01*
X113762944Y-89132693D01*
X114029007Y-89242900D01*
X114316993Y-89242900D01*
X114583056Y-89132693D01*
X114786693Y-88929056D01*
X114896900Y-88662993D01*
X114896900Y-88375007D01*
X114871500Y-88313686D01*
X114871500Y-88102861D01*
X114885184Y-88034067D01*
X114830972Y-87761526D01*
X114715559Y-87588797D01*
X114715557Y-87588795D01*
X114676590Y-87530477D01*
X114618272Y-87491510D01*
X114196794Y-87070033D01*
X121602500Y-79664328D01*
X121602501Y-86469002D01*
X121602500Y-86469007D01*
X121602501Y-87321883D01*
X121602500Y-89059810D01*
X121588817Y-89128600D01*
X121602500Y-89197390D01*
X121602500Y-89197393D01*
X121643028Y-89401140D01*
X121797410Y-89632189D01*
X121855731Y-89671158D01*
X125187541Y-93002969D01*
X125226510Y-93061290D01*
X125284830Y-93100258D01*
X125457559Y-93215672D01*
X125730100Y-93269884D01*
X125798894Y-93256200D01*
X126631701Y-93256200D01*
X126631701Y-93495284D01*
X126606300Y-93556607D01*
X126606300Y-93844593D01*
X126716507Y-94110656D01*
X126920144Y-94314293D01*
X127186207Y-94424500D01*
X127474193Y-94424500D01*
X127740256Y-94314293D01*
X127943893Y-94110656D01*
X128054100Y-93844593D01*
X128054100Y-93556607D01*
X128028700Y-93495286D01*
X128028700Y-93256200D01*
X131657561Y-93256200D01*
X131491707Y-93422054D01*
X131381500Y-93688117D01*
X131381500Y-93801669D01*
X131355569Y-93827600D01*
X131204322Y-93827600D01*
X131102615Y-93675385D01*
X130905621Y-93543757D01*
X130673250Y-93497536D01*
X130235750Y-93497536D01*
X130003379Y-93543757D01*
X129806385Y-93675385D01*
X129674757Y-93872379D01*
X129628536Y-94104750D01*
X129628536Y-94617250D01*
X129674757Y-94849621D01*
X129806385Y-95046615D01*
X130003379Y-95178243D01*
X130235750Y-95224464D01*
X130673250Y-95224464D01*
X130905621Y-95178243D01*
X131102615Y-95046615D01*
X131204322Y-94894400D01*
X131523984Y-94894400D01*
X131576510Y-94904848D01*
X131629036Y-94894400D01*
X131629041Y-94894400D01*
X131784632Y-94863451D01*
X131961069Y-94745559D01*
X131990827Y-94701023D01*
X132135841Y-94556010D01*
X132249393Y-94556010D01*
X132515456Y-94445803D01*
X132719093Y-94242166D01*
X132792640Y-94064607D01*
X134175500Y-94064607D01*
X134175500Y-94352593D01*
X134285707Y-94618656D01*
X134489344Y-94822293D01*
X134755407Y-94932500D01*
X135043393Y-94932500D01*
X135309456Y-94822293D01*
X135513093Y-94618656D01*
X135623300Y-94352593D01*
X135623300Y-94064607D01*
X135513093Y-93798544D01*
X135309456Y-93594907D01*
X135043393Y-93484700D01*
X134755407Y-93484700D01*
X134489344Y-93594907D01*
X134285707Y-93798544D01*
X134175500Y-94064607D01*
X132792640Y-94064607D01*
X132829300Y-93976103D01*
X132829300Y-93688117D01*
X132719093Y-93422054D01*
X132553239Y-93256200D01*
X137734373Y-93256200D01*
X139060907Y-94582735D01*
X139086307Y-94644056D01*
X139152501Y-94710250D01*
X139086307Y-94776444D01*
X138976100Y-95042507D01*
X138976100Y-95330493D01*
X139086307Y-95596556D01*
X139289944Y-95800193D01*
X139415393Y-95852156D01*
X139315344Y-95893597D01*
X139111707Y-96097234D01*
X139001500Y-96363297D01*
X139001500Y-96651283D01*
X139111707Y-96917346D01*
X139315344Y-97120983D01*
X139581407Y-97231190D01*
X139869393Y-97231190D01*
X140135456Y-97120983D01*
X140339093Y-96917346D01*
X140449300Y-96651283D01*
X140449300Y-96363297D01*
X140339093Y-96097234D01*
X140135456Y-95893597D01*
X140010007Y-95841634D01*
X140110056Y-95800193D01*
X140313693Y-95596556D01*
X140423900Y-95330493D01*
X140423900Y-95042507D01*
X140313693Y-94776444D01*
X140247499Y-94710250D01*
X140313693Y-94644056D01*
X140423900Y-94377993D01*
X140423900Y-94090007D01*
X140313693Y-93823944D01*
X140110056Y-93620307D01*
X140048735Y-93594907D01*
X138566260Y-92112433D01*
X138527290Y-92054110D01*
X138296241Y-91899728D01*
X138092494Y-91859200D01*
X138092490Y-91859200D01*
X138023700Y-91845517D01*
X137954910Y-91859200D01*
X127940409Y-91859200D01*
X127818821Y-91777957D01*
X127586450Y-91731736D01*
X127073950Y-91731736D01*
X126841579Y-91777957D01*
X126719991Y-91859200D01*
X126019428Y-91859200D01*
X122999500Y-88839273D01*
X122999500Y-86249000D01*
X145169536Y-86249000D01*
X145169536Y-88249000D01*
X145199106Y-88397659D01*
X145283314Y-88523686D01*
X145409341Y-88607894D01*
X145558000Y-88637464D01*
X147558000Y-88637464D01*
X147706659Y-88607894D01*
X147832686Y-88523686D01*
X147916894Y-88397659D01*
X147946464Y-88249000D01*
X147946464Y-87757000D01*
X152011251Y-87757000D01*
X152116944Y-87862693D01*
X152218919Y-87904932D01*
X152116507Y-88007344D01*
X152006300Y-88273407D01*
X152006300Y-88561393D01*
X152116507Y-88827456D01*
X152320144Y-89031093D01*
X152586207Y-89141300D01*
X152874193Y-89141300D01*
X153140256Y-89031093D01*
X153343893Y-88827456D01*
X153454100Y-88561393D01*
X153454100Y-88273407D01*
X153343893Y-88007344D01*
X153140256Y-87803707D01*
X153038281Y-87761468D01*
X153140693Y-87659056D01*
X153250900Y-87392993D01*
X153250900Y-87105007D01*
X153140693Y-86838944D01*
X152937056Y-86635307D01*
X152670993Y-86525100D01*
X152383007Y-86525100D01*
X152116944Y-86635307D01*
X152011251Y-86741000D01*
X147946464Y-86741000D01*
X147946464Y-86249000D01*
X147916894Y-86100341D01*
X147832686Y-85974314D01*
X147706659Y-85890106D01*
X147558000Y-85860536D01*
X145558000Y-85860536D01*
X145409341Y-85890106D01*
X145283314Y-85974314D01*
X145199106Y-86100341D01*
X145169536Y-86249000D01*
X122999500Y-86249000D01*
X122999500Y-83456031D01*
X123173007Y-83527900D01*
X123460993Y-83527900D01*
X123727056Y-83417693D01*
X123930693Y-83214056D01*
X124040900Y-82947993D01*
X124040900Y-82660007D01*
X124015500Y-82598686D01*
X124015500Y-81061327D01*
X124495328Y-80581500D01*
X130302000Y-80581500D01*
X130302000Y-83947000D01*
X130331002Y-84092802D01*
X130413592Y-84216408D01*
X130537198Y-84298998D01*
X130683000Y-84328000D01*
X139319000Y-84328000D01*
X139464802Y-84298998D01*
X139588408Y-84216408D01*
X139670998Y-84092802D01*
X139700000Y-83947000D01*
X139700000Y-83312000D01*
X147955000Y-83312000D01*
X148100802Y-83282998D01*
X148224408Y-83200408D01*
X148306998Y-83076802D01*
X148336000Y-82931000D01*
X148336000Y-78359000D01*
X148306998Y-78213198D01*
X148224408Y-78089592D01*
X148100802Y-78007002D01*
X147955000Y-77978000D01*
X144780000Y-77978000D01*
X144780000Y-74992155D01*
X144797416Y-74904600D01*
X144778332Y-74808659D01*
X144728419Y-74557730D01*
X144531933Y-74263667D01*
X144457707Y-74214071D01*
X142903636Y-72660000D01*
X146693536Y-72660000D01*
X146693536Y-74660000D01*
X146723106Y-74808659D01*
X146807314Y-74934686D01*
X146933341Y-75018894D01*
X147082000Y-75048464D01*
X149082000Y-75048464D01*
X149230659Y-75018894D01*
X149356686Y-74934686D01*
X149440894Y-74808659D01*
X149470464Y-74660000D01*
X149470464Y-74168000D01*
X150644384Y-74168000D01*
X150859007Y-74256900D01*
X151146993Y-74256900D01*
X151413056Y-74146693D01*
X151616693Y-73943056D01*
X151726900Y-73676993D01*
X151726900Y-73389007D01*
X151616693Y-73122944D01*
X151413056Y-72919307D01*
X151146993Y-72809100D01*
X150859007Y-72809100D01*
X150592944Y-72919307D01*
X150389307Y-73122944D01*
X150377272Y-73152000D01*
X149470464Y-73152000D01*
X149470464Y-72660000D01*
X149440894Y-72511341D01*
X149356686Y-72385314D01*
X149230659Y-72301106D01*
X149082000Y-72271536D01*
X147082000Y-72271536D01*
X146933341Y-72301106D01*
X146807314Y-72385314D01*
X146723106Y-72511341D01*
X146693536Y-72660000D01*
X142903636Y-72660000D01*
X136580531Y-66336896D01*
X136530933Y-66262667D01*
X136236870Y-66066181D01*
X135977556Y-66014600D01*
X135977555Y-66014600D01*
X135890000Y-65997184D01*
X135802445Y-66014600D01*
X113727155Y-66014600D01*
X113639600Y-65997184D01*
X113552045Y-66014600D01*
X113552044Y-66014600D01*
X113292730Y-66066181D01*
X112998667Y-66262667D01*
X112949071Y-66336893D01*
X111066296Y-68219669D01*
X111066293Y-68219671D01*
X109326385Y-69959580D01*
X109252156Y-70009178D01*
X109055670Y-70303242D01*
X109025296Y-70455944D01*
X108986673Y-70650111D01*
X109004089Y-70737666D01*
X109004090Y-77914500D01*
X106394464Y-77914500D01*
X106394464Y-77763000D01*
X106364894Y-77614341D01*
X106280686Y-77488314D01*
X106154659Y-77404106D01*
X106006000Y-77374536D01*
X104306000Y-77374536D01*
X104157341Y-77404106D01*
X104031314Y-77488314D01*
X103947106Y-77614341D01*
X103917536Y-77763000D01*
X103580000Y-77763000D01*
X103580000Y-63335800D01*
X110292936Y-63335800D01*
X110292936Y-65035800D01*
X110322506Y-65184459D01*
X110406714Y-65310486D01*
X110532741Y-65394694D01*
X110681400Y-65424264D01*
X112381400Y-65424264D01*
X112530059Y-65394694D01*
X112656086Y-65310486D01*
X112740294Y-65184459D01*
X112769864Y-65035800D01*
X112769864Y-64185800D01*
X112816284Y-64185800D01*
X112911824Y-64666112D01*
X113183899Y-65073301D01*
X113591088Y-65345376D01*
X113950161Y-65416800D01*
X114192639Y-65416800D01*
X114551712Y-65345376D01*
X114958901Y-65073301D01*
X115230976Y-64666112D01*
X115326516Y-64185800D01*
X117896284Y-64185800D01*
X117991824Y-64666112D01*
X118263899Y-65073301D01*
X118671088Y-65345376D01*
X119030161Y-65416800D01*
X119272639Y-65416800D01*
X119631712Y-65345376D01*
X120038901Y-65073301D01*
X120310976Y-64666112D01*
X120406516Y-64185800D01*
X120436284Y-64185800D01*
X120531824Y-64666112D01*
X120803899Y-65073301D01*
X121211088Y-65345376D01*
X121570161Y-65416800D01*
X121812639Y-65416800D01*
X122171712Y-65345376D01*
X122578901Y-65073301D01*
X122850976Y-64666112D01*
X122946516Y-64185800D01*
X122850976Y-63705488D01*
X122578901Y-63298299D01*
X122171712Y-63026224D01*
X121812639Y-62954800D01*
X121570161Y-62954800D01*
X121211088Y-63026224D01*
X120803899Y-63298299D01*
X120531824Y-63705488D01*
X120436284Y-64185800D01*
X120406516Y-64185800D01*
X120310976Y-63705488D01*
X120038901Y-63298299D01*
X119631712Y-63026224D01*
X119272639Y-62954800D01*
X119030161Y-62954800D01*
X118671088Y-63026224D01*
X118263899Y-63298299D01*
X117991824Y-63705488D01*
X117896284Y-64185800D01*
X115326516Y-64185800D01*
X115230976Y-63705488D01*
X114958901Y-63298299D01*
X114551712Y-63026224D01*
X114192639Y-62954800D01*
X113950161Y-62954800D01*
X113591088Y-63026224D01*
X113183899Y-63298299D01*
X112911824Y-63705488D01*
X112816284Y-64185800D01*
X112769864Y-64185800D01*
X112769864Y-63335800D01*
X112740294Y-63187141D01*
X112656086Y-63061114D01*
X112530059Y-62976906D01*
X112381400Y-62947336D01*
X110681400Y-62947336D01*
X110532741Y-62976906D01*
X110406714Y-63061114D01*
X110322506Y-63187141D01*
X110292936Y-63335800D01*
X103580000Y-63335800D01*
X103580000Y-62559000D01*
X156006109Y-62559000D01*
X155932292Y-111315500D01*
X155932292Y-111315500D01*
G37*
X155932292Y-111315500D02*
X150328934Y-111315500D01*
X145097500Y-106084068D01*
X145097500Y-104029000D01*
X145296536Y-104029000D01*
X145296536Y-106029000D01*
X145326106Y-106177659D01*
X145410314Y-106303686D01*
X145536341Y-106387894D01*
X145685000Y-106417464D01*
X147685000Y-106417464D01*
X147833659Y-106387894D01*
X147959686Y-106303686D01*
X148043894Y-106177659D01*
X148073464Y-106029000D01*
X148073464Y-105537000D01*
X148157458Y-105537000D01*
X148263039Y-105642581D01*
X148263039Y-105792054D01*
X148373246Y-106058117D01*
X148576883Y-106261754D01*
X148842946Y-106371961D01*
X149130932Y-106371961D01*
X149396995Y-106261754D01*
X149600632Y-106058117D01*
X149710839Y-105792054D01*
X149710839Y-105504068D01*
X149600632Y-105238005D01*
X149396995Y-105034368D01*
X149130932Y-104924161D01*
X148981459Y-104924161D01*
X148762466Y-104705168D01*
X148734125Y-104662753D01*
X148566090Y-104550475D01*
X148417910Y-104521000D01*
X148417906Y-104521000D01*
X148367878Y-104511049D01*
X148317850Y-104521000D01*
X148073464Y-104521000D01*
X148073464Y-104029000D01*
X148043894Y-103880341D01*
X147959686Y-103754314D01*
X147833659Y-103670106D01*
X147685000Y-103640536D01*
X145685000Y-103640536D01*
X145536341Y-103670106D01*
X145410314Y-103754314D01*
X145326106Y-103880341D01*
X145296536Y-104029000D01*
X145097500Y-104029000D01*
X145097500Y-103615007D01*
X152107900Y-103615007D01*
X152107900Y-103902993D01*
X152218107Y-104169056D01*
X152421744Y-104372693D01*
X152687807Y-104482900D01*
X152975793Y-104482900D01*
X153241856Y-104372693D01*
X153445493Y-104169056D01*
X153555700Y-103902993D01*
X153555700Y-103615007D01*
X153445493Y-103348944D01*
X153241856Y-103145307D01*
X152975793Y-103035100D01*
X152687807Y-103035100D01*
X152421744Y-103145307D01*
X152218107Y-103348944D01*
X152107900Y-103615007D01*
X145097500Y-103615007D01*
X145097500Y-101389664D01*
X145156314Y-101477686D01*
X145282341Y-101561894D01*
X145431000Y-101591464D01*
X147101043Y-101591464D01*
X147142201Y-101632622D01*
X147142201Y-101770050D01*
X147036507Y-101875744D01*
X146926300Y-102141807D01*
X146926300Y-102429793D01*
X147036507Y-102695856D01*
X147240144Y-102899493D01*
X147506207Y-103009700D01*
X147794193Y-103009700D01*
X148060256Y-102899493D01*
X148263893Y-102695856D01*
X148374100Y-102429793D01*
X148374100Y-102141807D01*
X148263893Y-101875744D01*
X148158200Y-101770051D01*
X148158200Y-101472227D01*
X148168151Y-101422199D01*
X148159719Y-101379807D01*
X150736300Y-101379807D01*
X150736300Y-101667793D01*
X150846507Y-101933856D01*
X151050144Y-102137493D01*
X151316207Y-102247700D01*
X151604193Y-102247700D01*
X151870256Y-102137493D01*
X152073893Y-101933856D01*
X152107900Y-101851756D01*
X152107900Y-102023393D01*
X152218107Y-102289456D01*
X152421744Y-102493093D01*
X152687807Y-102603300D01*
X152975793Y-102603300D01*
X153241856Y-102493093D01*
X153445493Y-102289456D01*
X153555700Y-102023393D01*
X153555700Y-101735407D01*
X153445493Y-101469344D01*
X153241856Y-101265707D01*
X152975793Y-101155500D01*
X152687807Y-101155500D01*
X152421744Y-101265707D01*
X152218107Y-101469344D01*
X152184100Y-101551444D01*
X152184100Y-101379807D01*
X152073893Y-101113744D01*
X151870256Y-100910107D01*
X151604193Y-100799900D01*
X151316207Y-100799900D01*
X151050144Y-100910107D01*
X150846507Y-101113744D01*
X150736300Y-101379807D01*
X148159719Y-101379807D01*
X148158200Y-101372171D01*
X148158200Y-101372168D01*
X148128725Y-101223988D01*
X148106036Y-101190032D01*
X148044788Y-101098367D01*
X148044786Y-101098365D01*
X148016447Y-101055953D01*
X147974035Y-101027614D01*
X147819464Y-100873043D01*
X147819464Y-99203000D01*
X147789894Y-99054341D01*
X147705686Y-98928314D01*
X147579659Y-98844106D01*
X147431000Y-98814536D01*
X145431000Y-98814536D01*
X145282341Y-98844106D01*
X145156314Y-98928314D01*
X145097500Y-99016336D01*
X145097500Y-95487007D01*
X147739100Y-95487007D01*
X147739100Y-95774993D01*
X147849307Y-96041056D01*
X148052944Y-96244693D01*
X148319007Y-96354900D01*
X148606993Y-96354900D01*
X148873056Y-96244693D01*
X149076693Y-96041056D01*
X149186900Y-95774993D01*
X149186900Y-95487007D01*
X149076693Y-95220944D01*
X148873056Y-95017307D01*
X148606993Y-94907100D01*
X148319007Y-94907100D01*
X148052944Y-95017307D01*
X147849307Y-95220944D01*
X147739100Y-95487007D01*
X145097500Y-95487007D01*
X145097500Y-92710000D01*
X145288000Y-92710000D01*
X145433802Y-92680998D01*
X145557408Y-92598408D01*
X145639998Y-92474802D01*
X145669000Y-92329000D01*
X145669000Y-90424000D01*
X145639998Y-90278198D01*
X145557408Y-90154592D01*
X145433802Y-90072002D01*
X145288000Y-90043000D01*
X141986000Y-90043000D01*
X141840198Y-90072002D01*
X141716592Y-90154592D01*
X141634002Y-90278198D01*
X141605000Y-90424000D01*
X141605000Y-92329000D01*
X141634002Y-92474802D01*
X141716592Y-92598408D01*
X141840198Y-92680998D01*
X141986000Y-92710000D01*
X143446501Y-92710000D01*
X143446501Y-95282057D01*
X143283351Y-95118907D01*
X143017288Y-95008700D01*
X142729302Y-95008700D01*
X142463239Y-95118907D01*
X142259602Y-95322544D01*
X142149395Y-95588607D01*
X142149395Y-95876593D01*
X142259602Y-96142656D01*
X142339895Y-96222949D01*
X142339896Y-96949570D01*
X140449300Y-98840167D01*
X140449300Y-98801697D01*
X140339093Y-98535634D01*
X140330043Y-98526584D01*
X140339093Y-98517533D01*
X140449300Y-98251470D01*
X140449300Y-97963484D01*
X140339093Y-97697421D01*
X140135456Y-97493784D01*
X139869393Y-97383577D01*
X139581407Y-97383577D01*
X139315344Y-97493784D01*
X139111707Y-97697421D01*
X139001500Y-97963484D01*
X139001500Y-98251470D01*
X139111707Y-98517533D01*
X139120758Y-98526584D01*
X139111707Y-98535634D01*
X139001500Y-98801697D01*
X139001500Y-99089683D01*
X139111707Y-99355746D01*
X139315344Y-99559383D01*
X139420523Y-99602949D01*
X139238811Y-99678217D01*
X139035174Y-99881854D01*
X138924967Y-100147917D01*
X138924967Y-100435903D01*
X139035174Y-100701966D01*
X139065853Y-100732645D01*
X138961180Y-100985347D01*
X138961180Y-101273333D01*
X139071387Y-101539396D01*
X139267425Y-101735434D01*
X135473777Y-105529083D01*
X135429241Y-105558841D01*
X135311349Y-105735279D01*
X135280400Y-105890870D01*
X135280400Y-105890874D01*
X135269952Y-105943400D01*
X135280400Y-105995926D01*
X135280401Y-110319958D01*
X134538489Y-111061871D01*
X134538486Y-111061873D01*
X134526023Y-111074336D01*
X134198150Y-111074336D01*
X133965779Y-111120557D01*
X133768785Y-111252185D01*
X133637157Y-111449179D01*
X133629400Y-111488176D01*
X133621643Y-111449179D01*
X133490015Y-111252185D01*
X133375697Y-111175800D01*
X133490015Y-111099415D01*
X133621643Y-110902421D01*
X133667864Y-110670050D01*
X133667864Y-110157550D01*
X133621643Y-109925179D01*
X133490015Y-109728185D01*
X133293021Y-109596557D01*
X133060650Y-109550336D01*
X132623150Y-109550336D01*
X132390779Y-109596557D01*
X132193785Y-109728185D01*
X132092078Y-109880400D01*
X131884549Y-109880400D01*
X131804256Y-109800107D01*
X131538193Y-109689900D01*
X131250207Y-109689900D01*
X130984144Y-109800107D01*
X130780507Y-110003744D01*
X130670300Y-110269807D01*
X130670300Y-110557793D01*
X130780507Y-110823856D01*
X130984144Y-111027493D01*
X131250207Y-111137700D01*
X131538193Y-111137700D01*
X131804256Y-111027493D01*
X131884549Y-110947200D01*
X132092078Y-110947200D01*
X132193785Y-111099415D01*
X132308103Y-111175800D01*
X132193785Y-111252185D01*
X132062157Y-111449179D01*
X132015936Y-111681550D01*
X132015936Y-112194050D01*
X132062157Y-112426421D01*
X132193785Y-112623415D01*
X132320215Y-112707893D01*
X132183704Y-112799107D01*
X132097313Y-112928400D01*
X131935349Y-112928400D01*
X131855056Y-112848107D01*
X131588993Y-112737900D01*
X131301007Y-112737900D01*
X131034944Y-112848107D01*
X130831307Y-113051744D01*
X130721100Y-113317807D01*
X130721100Y-113605793D01*
X130831307Y-113871856D01*
X131034944Y-114075493D01*
X131301007Y-114185700D01*
X131588993Y-114185700D01*
X131855056Y-114075493D01*
X131935349Y-113995200D01*
X132066680Y-113995200D01*
X132183704Y-114170337D01*
X132298022Y-114246722D01*
X132183704Y-114323107D01*
X132052076Y-114520101D01*
X132005855Y-114752472D01*
X132005855Y-115264972D01*
X132052076Y-115497343D01*
X132183704Y-115694337D01*
X132323923Y-115788029D01*
X132193785Y-115874985D01*
X132092078Y-116027200D01*
X131935349Y-116027200D01*
X131804256Y-115896107D01*
X131538193Y-115785900D01*
X131250207Y-115785900D01*
X130984144Y-115896107D01*
X130780507Y-116099744D01*
X130670300Y-116365807D01*
X130670300Y-116653793D01*
X130780507Y-116919856D01*
X130984144Y-117123493D01*
X131250207Y-117233700D01*
X131538193Y-117233700D01*
X131804256Y-117123493D01*
X131833749Y-117094000D01*
X132092078Y-117094000D01*
X132193785Y-117246215D01*
X132308103Y-117322600D01*
X132193785Y-117398985D01*
X132062157Y-117595979D01*
X132015936Y-117828350D01*
X132015936Y-118340850D01*
X132062157Y-118573221D01*
X132193785Y-118770215D01*
X132390779Y-118901843D01*
X132623150Y-118948064D01*
X133060650Y-118948064D01*
X133293021Y-118901843D01*
X133490015Y-118770215D01*
X133621643Y-118573221D01*
X133667864Y-118340850D01*
X133667864Y-117828350D01*
X133621643Y-117595979D01*
X133490015Y-117398985D01*
X133375697Y-117322600D01*
X133490015Y-117246215D01*
X133621643Y-117049221D01*
X133629400Y-117010224D01*
X133637157Y-117049221D01*
X133768785Y-117246215D01*
X133965779Y-117377843D01*
X134198150Y-117424064D01*
X134635650Y-117424064D01*
X134868021Y-117377843D01*
X135065015Y-117246215D01*
X135196643Y-117049221D01*
X135211325Y-116975407D01*
X152057100Y-116975407D01*
X152057100Y-117263393D01*
X152167307Y-117529456D01*
X152370944Y-117733093D01*
X152637007Y-117843300D01*
X152924993Y-117843300D01*
X153191056Y-117733093D01*
X153394693Y-117529456D01*
X153504900Y-117263393D01*
X153504900Y-116975407D01*
X153394693Y-116709344D01*
X153191056Y-116505707D01*
X152924993Y-116395500D01*
X152637007Y-116395500D01*
X152370944Y-116505707D01*
X152167307Y-116709344D01*
X152057100Y-116975407D01*
X135211325Y-116975407D01*
X135242864Y-116816850D01*
X135242864Y-116488976D01*
X136559833Y-115172007D01*
X148374100Y-115172007D01*
X148374100Y-115459993D01*
X148484307Y-115726056D01*
X148687944Y-115929693D01*
X148954007Y-116039900D01*
X149241993Y-116039900D01*
X149508056Y-115929693D01*
X149711693Y-115726056D01*
X149821900Y-115459993D01*
X149821900Y-115172007D01*
X149711693Y-114905944D01*
X149508056Y-114702307D01*
X149241993Y-114592100D01*
X148954007Y-114592100D01*
X148687944Y-114702307D01*
X148484307Y-114905944D01*
X148374100Y-115172007D01*
X136559833Y-115172007D01*
X137220625Y-114511215D01*
X137265159Y-114481459D01*
X137383051Y-114305022D01*
X137414000Y-114149431D01*
X137414000Y-114149427D01*
X137424448Y-114096900D01*
X137414000Y-114044373D01*
X137414000Y-113495607D01*
X148170900Y-113495607D01*
X148170900Y-113783593D01*
X148281107Y-114049656D01*
X148484744Y-114253293D01*
X148750807Y-114363500D01*
X149038793Y-114363500D01*
X149304856Y-114253293D01*
X149508493Y-114049656D01*
X149618700Y-113783593D01*
X149618700Y-113495607D01*
X149508493Y-113229544D01*
X149304856Y-113025907D01*
X149038793Y-112915700D01*
X148750807Y-112915700D01*
X148484744Y-113025907D01*
X148281107Y-113229544D01*
X148170900Y-113495607D01*
X137414000Y-113495607D01*
X137414000Y-110497413D01*
X137549407Y-110553500D01*
X137837393Y-110553500D01*
X138103456Y-110443293D01*
X138209149Y-110337600D01*
X138348906Y-110337600D01*
X138467585Y-110515215D01*
X138582301Y-110591866D01*
X138582300Y-110642134D01*
X138467585Y-110718785D01*
X138335957Y-110915779D01*
X138289736Y-111148150D01*
X138289736Y-111660650D01*
X138335957Y-111893021D01*
X138467585Y-112090015D01*
X138664579Y-112221643D01*
X138896950Y-112267864D01*
X139334450Y-112267864D01*
X139566821Y-112221643D01*
X139763815Y-112090015D01*
X139895443Y-111893021D01*
X139941664Y-111660650D01*
X139941664Y-111148150D01*
X139895443Y-110915779D01*
X139763815Y-110718785D01*
X139649100Y-110642134D01*
X139649100Y-110591866D01*
X139763815Y-110515215D01*
X139895443Y-110318221D01*
X139903200Y-110279224D01*
X139910957Y-110318221D01*
X140042585Y-110515215D01*
X140239579Y-110646843D01*
X140471950Y-110693064D01*
X140909450Y-110693064D01*
X141141821Y-110646843D01*
X141338815Y-110515215D01*
X141470443Y-110318221D01*
X141516664Y-110085850D01*
X141516664Y-109573350D01*
X141470443Y-109340979D01*
X141338815Y-109143985D01*
X141224100Y-109067334D01*
X141224100Y-108839000D01*
X141605000Y-108839000D01*
X141750802Y-108809998D01*
X141874408Y-108727408D01*
X141956998Y-108603802D01*
X141986000Y-108458000D01*
X141986000Y-107378500D01*
X144057068Y-107378500D01*
X149345795Y-112667229D01*
X149391848Y-112736152D01*
X149460771Y-112782205D01*
X149460772Y-112782206D01*
X149559400Y-112848107D01*
X149664906Y-112918604D01*
X149905697Y-112966500D01*
X149905701Y-112966500D01*
X149986999Y-112982671D01*
X150068297Y-112966500D01*
X155929792Y-112966500D01*
X155905967Y-128703000D01*
X103580000Y-128703000D01*
X103580000Y-126873000D01*
X115508684Y-126873000D01*
X115604224Y-127353312D01*
X115876299Y-127760501D01*
X116283488Y-128032576D01*
X116642561Y-128104000D01*
X116885039Y-128104000D01*
X117244112Y-128032576D01*
X117651301Y-127760501D01*
X117923376Y-127353312D01*
X118018916Y-126873000D01*
X118048684Y-126873000D01*
X118144224Y-127353312D01*
X118416299Y-127760501D01*
X118823488Y-128032576D01*
X119182561Y-128104000D01*
X119425039Y-128104000D01*
X119784112Y-128032576D01*
X120191301Y-127760501D01*
X120463376Y-127353312D01*
X120558916Y-126873000D01*
X120588684Y-126873000D01*
X120684224Y-127353312D01*
X120956299Y-127760501D01*
X121363488Y-128032576D01*
X121722561Y-128104000D01*
X121965039Y-128104000D01*
X122324112Y-128032576D01*
X122731301Y-127760501D01*
X123003376Y-127353312D01*
X123098916Y-126873000D01*
X123128684Y-126873000D01*
X123224224Y-127353312D01*
X123496299Y-127760501D01*
X123903488Y-128032576D01*
X124262561Y-128104000D01*
X124505039Y-128104000D01*
X124864112Y-128032576D01*
X125271301Y-127760501D01*
X125543376Y-127353312D01*
X125638916Y-126873000D01*
X125668684Y-126873000D01*
X125764224Y-127353312D01*
X126036299Y-127760501D01*
X126443488Y-128032576D01*
X126802561Y-128104000D01*
X127045039Y-128104000D01*
X127404112Y-128032576D01*
X127811301Y-127760501D01*
X128083376Y-127353312D01*
X128178916Y-126873000D01*
X130748684Y-126873000D01*
X130844224Y-127353312D01*
X131116299Y-127760501D01*
X131523488Y-128032576D01*
X131882561Y-128104000D01*
X132125039Y-128104000D01*
X132484112Y-128032576D01*
X132891301Y-127760501D01*
X133163376Y-127353312D01*
X133258916Y-126873000D01*
X133163376Y-126392688D01*
X132891301Y-125985499D01*
X132484112Y-125713424D01*
X132125039Y-125642000D01*
X131882561Y-125642000D01*
X131523488Y-125713424D01*
X131116299Y-125985499D01*
X130844224Y-126392688D01*
X130748684Y-126873000D01*
X128178916Y-126873000D01*
X128083376Y-126392688D01*
X127811301Y-125985499D01*
X127404112Y-125713424D01*
X127045039Y-125642000D01*
X126802561Y-125642000D01*
X126443488Y-125713424D01*
X126036299Y-125985499D01*
X125764224Y-126392688D01*
X125668684Y-126873000D01*
X125638916Y-126873000D01*
X125543376Y-126392688D01*
X125271301Y-125985499D01*
X124864112Y-125713424D01*
X124505039Y-125642000D01*
X124262561Y-125642000D01*
X123903488Y-125713424D01*
X123496299Y-125985499D01*
X123224224Y-126392688D01*
X123128684Y-126873000D01*
X123098916Y-126873000D01*
X123003376Y-126392688D01*
X122731301Y-125985499D01*
X122324112Y-125713424D01*
X121965039Y-125642000D01*
X121722561Y-125642000D01*
X121363488Y-125713424D01*
X120956299Y-125985499D01*
X120684224Y-126392688D01*
X120588684Y-126873000D01*
X120558916Y-126873000D01*
X120463376Y-126392688D01*
X120191301Y-125985499D01*
X119784112Y-125713424D01*
X119425039Y-125642000D01*
X119182561Y-125642000D01*
X118823488Y-125713424D01*
X118416299Y-125985499D01*
X118144224Y-126392688D01*
X118048684Y-126873000D01*
X118018916Y-126873000D01*
X117923376Y-126392688D01*
X117651301Y-125985499D01*
X117244112Y-125713424D01*
X116885039Y-125642000D01*
X116642561Y-125642000D01*
X116283488Y-125713424D01*
X115876299Y-125985499D01*
X115604224Y-126392688D01*
X115508684Y-126873000D01*
X103580000Y-126873000D01*
X103580000Y-124036607D01*
X126199900Y-124036607D01*
X126199900Y-124324593D01*
X126310107Y-124590656D01*
X126513744Y-124794293D01*
X126779807Y-124904500D01*
X127067793Y-124904500D01*
X127333856Y-124794293D01*
X127537493Y-124590656D01*
X127647700Y-124324593D01*
X127647700Y-124036607D01*
X127537493Y-123770544D01*
X127333856Y-123566907D01*
X127067793Y-123456700D01*
X126779807Y-123456700D01*
X126513744Y-123566907D01*
X126310107Y-123770544D01*
X126199900Y-124036607D01*
X103580000Y-124036607D01*
X103580000Y-121649007D01*
X127749300Y-121649007D01*
X127749300Y-121936993D01*
X127859507Y-122203056D01*
X128063144Y-122406693D01*
X128329207Y-122516900D01*
X128617193Y-122516900D01*
X128883256Y-122406693D01*
X129086893Y-122203056D01*
X129197100Y-121936993D01*
X129197100Y-121649007D01*
X129086893Y-121382944D01*
X128883256Y-121179307D01*
X128617193Y-121069100D01*
X128329207Y-121069100D01*
X128063144Y-121179307D01*
X127859507Y-121382944D01*
X127749300Y-121649007D01*
X103580000Y-121649007D01*
X103580000Y-104267000D01*
X104027884Y-104267000D01*
X104123424Y-104747312D01*
X104395499Y-105154501D01*
X104802688Y-105426576D01*
X105161761Y-105498000D01*
X105404239Y-105498000D01*
X105763312Y-105426576D01*
X106170501Y-105154501D01*
X106442576Y-104747312D01*
X106538116Y-104267000D01*
X106442576Y-103786688D01*
X106170501Y-103379499D01*
X105763312Y-103107424D01*
X105404239Y-103036000D01*
X105161761Y-103036000D01*
X104802688Y-103107424D01*
X104395499Y-103379499D01*
X104123424Y-103786688D01*
X104027884Y-104267000D01*
X103580000Y-104267000D01*
X103580000Y-101727000D01*
X104027884Y-101727000D01*
X104123424Y-102207312D01*
X104395499Y-102614501D01*
X104802688Y-102886576D01*
X105161761Y-102958000D01*
X105404239Y-102958000D01*
X105763312Y-102886576D01*
X106170501Y-102614501D01*
X106442576Y-102207312D01*
X106538116Y-101727000D01*
X106442576Y-101246688D01*
X106170501Y-100839499D01*
X105763312Y-100567424D01*
X105404239Y-100496000D01*
X105161761Y-100496000D01*
X104802688Y-100567424D01*
X104395499Y-100839499D01*
X104123424Y-101246688D01*
X104027884Y-101727000D01*
X103580000Y-101727000D01*
X103580000Y-99187000D01*
X104027884Y-99187000D01*
X104123424Y-99667312D01*
X104395499Y-100074501D01*
X104802688Y-100346576D01*
X105161761Y-100418000D01*
X105404239Y-100418000D01*
X105763312Y-100346576D01*
X106170501Y-100074501D01*
X106442576Y-99667312D01*
X106538116Y-99187000D01*
X106442576Y-98706688D01*
X106170501Y-98299499D01*
X105763312Y-98027424D01*
X105404239Y-97956000D01*
X105161761Y-97956000D01*
X104802688Y-98027424D01*
X104395499Y-98299499D01*
X104123424Y-98706688D01*
X104027884Y-99187000D01*
X103580000Y-99187000D01*
X103580000Y-93963007D01*
X104051100Y-93963007D01*
X104051100Y-94250993D01*
X104161307Y-94517056D01*
X104364944Y-94720693D01*
X104631007Y-94830900D01*
X104918993Y-94830900D01*
X105185056Y-94720693D01*
X105388693Y-94517056D01*
X105498900Y-94250993D01*
X105498900Y-93963007D01*
X105575100Y-93963007D01*
X105575100Y-94250993D01*
X105685307Y-94517056D01*
X105888944Y-94720693D01*
X106155007Y-94830900D01*
X106442993Y-94830900D01*
X106709056Y-94720693D01*
X106912693Y-94517056D01*
X107022900Y-94250993D01*
X107022900Y-93963007D01*
X107099100Y-93963007D01*
X107099100Y-94250993D01*
X107209307Y-94517056D01*
X107412944Y-94720693D01*
X107679007Y-94830900D01*
X107966993Y-94830900D01*
X108233056Y-94720693D01*
X108436693Y-94517056D01*
X108546900Y-94250993D01*
X108546900Y-93963007D01*
X108436693Y-93696944D01*
X108233056Y-93493307D01*
X107966993Y-93383100D01*
X107679007Y-93383100D01*
X107412944Y-93493307D01*
X107209307Y-93696944D01*
X107099100Y-93963007D01*
X107022900Y-93963007D01*
X106912693Y-93696944D01*
X106709056Y-93493307D01*
X106442993Y-93383100D01*
X106155007Y-93383100D01*
X105888944Y-93493307D01*
X105685307Y-93696944D01*
X105575100Y-93963007D01*
X105498900Y-93963007D01*
X105388693Y-93696944D01*
X105185056Y-93493307D01*
X104918993Y-93383100D01*
X104631007Y-93383100D01*
X104364944Y-93493307D01*
X104161307Y-93696944D01*
X104051100Y-93963007D01*
X103580000Y-93963007D01*
X103580000Y-83693000D01*
X103900884Y-83693000D01*
X103996424Y-84173312D01*
X104268499Y-84580501D01*
X104675688Y-84852576D01*
X105034761Y-84924000D01*
X105277239Y-84924000D01*
X105636312Y-84852576D01*
X106043501Y-84580501D01*
X106315576Y-84173312D01*
X106411116Y-83693000D01*
X106315576Y-83212688D01*
X106043501Y-82805499D01*
X105636312Y-82533424D01*
X105277239Y-82462000D01*
X105034761Y-82462000D01*
X104675688Y-82533424D01*
X104268499Y-82805499D01*
X103996424Y-83212688D01*
X103900884Y-83693000D01*
X103580000Y-83693000D01*
X103580000Y-81153000D01*
X103900884Y-81153000D01*
X103996424Y-81633312D01*
X104268499Y-82040501D01*
X104675688Y-82312576D01*
X105034761Y-82384000D01*
X105277239Y-82384000D01*
X105636312Y-82312576D01*
X106043501Y-82040501D01*
X106315576Y-81633312D01*
X106411116Y-81153000D01*
X106315576Y-80672688D01*
X106043501Y-80265499D01*
X105636312Y-79993424D01*
X105277239Y-79922000D01*
X105034761Y-79922000D01*
X104675688Y-79993424D01*
X104268499Y-80265499D01*
X103996424Y-80672688D01*
X103900884Y-81153000D01*
X103580000Y-81153000D01*
X103580000Y-77763000D01*
X103917536Y-77763000D01*
X103917536Y-79463000D01*
X103947106Y-79611659D01*
X104031314Y-79737686D01*
X104157341Y-79821894D01*
X104306000Y-79851464D01*
X106006000Y-79851464D01*
X106154659Y-79821894D01*
X106280686Y-79737686D01*
X106364894Y-79611659D01*
X106394464Y-79463000D01*
X106394464Y-79311500D01*
X109004089Y-79311500D01*
X109004090Y-89701440D01*
X109004089Y-89701445D01*
X109004090Y-106108500D01*
X106521464Y-106108500D01*
X106521464Y-105957000D01*
X106491894Y-105808341D01*
X106407686Y-105682314D01*
X106281659Y-105598106D01*
X106133000Y-105568536D01*
X104433000Y-105568536D01*
X104284341Y-105598106D01*
X104158314Y-105682314D01*
X104074106Y-105808341D01*
X104044536Y-105957000D01*
X104044536Y-107657000D01*
X104074106Y-107805659D01*
X104158314Y-107931686D01*
X104284341Y-108015894D01*
X104433000Y-108045464D01*
X106133000Y-108045464D01*
X106281659Y-108015894D01*
X106407686Y-107931686D01*
X106491894Y-107805659D01*
X106521464Y-107657000D01*
X106521464Y-107505500D01*
X109016800Y-107505500D01*
X109016801Y-112148806D01*
X108986673Y-112300267D01*
X109016801Y-112451728D01*
X109016801Y-112489423D01*
X109068382Y-112748737D01*
X109264868Y-113042800D01*
X109558931Y-113239286D01*
X109578831Y-113243244D01*
X116993493Y-120657907D01*
X117043089Y-120732133D01*
X117337152Y-120928619D01*
X117596466Y-120980200D01*
X117684021Y-120997616D01*
X117771576Y-120980200D01*
X129148173Y-120980200D01*
X133802508Y-125634536D01*
X133693800Y-125634536D01*
X133545141Y-125664106D01*
X133419114Y-125748314D01*
X133334906Y-125874341D01*
X133305336Y-126023000D01*
X133305336Y-127723000D01*
X133334906Y-127871659D01*
X133419114Y-127997686D01*
X133545141Y-128081894D01*
X133693800Y-128111464D01*
X135393800Y-128111464D01*
X135542459Y-128081894D01*
X135668486Y-127997686D01*
X135752694Y-127871659D01*
X135782264Y-127723000D01*
X135782264Y-126023000D01*
X135752694Y-125874341D01*
X135668486Y-125748314D01*
X135542459Y-125664106D01*
X135393800Y-125634536D01*
X135242300Y-125634536D01*
X135242300Y-125456788D01*
X135255983Y-125387999D01*
X135242300Y-125319210D01*
X135242300Y-125319206D01*
X135201772Y-125115459D01*
X135047390Y-124884410D01*
X134989069Y-124845441D01*
X130133201Y-119989574D01*
X130084419Y-119744330D01*
X129887933Y-119450267D01*
X129593870Y-119253781D01*
X129334556Y-119202200D01*
X125839013Y-119202200D01*
X125895100Y-119066793D01*
X125895100Y-118778807D01*
X125784893Y-118512744D01*
X125581256Y-118309107D01*
X125315193Y-118198900D01*
X125027207Y-118198900D01*
X124761144Y-118309107D01*
X124557507Y-118512744D01*
X124447300Y-118778807D01*
X124447300Y-119066793D01*
X124503387Y-119202200D01*
X118052258Y-119202200D01*
X110794800Y-111944743D01*
X110794800Y-106821044D01*
X110782089Y-106757142D01*
X110782089Y-103540316D01*
X114194307Y-106952535D01*
X114219707Y-107013856D01*
X114423344Y-107217493D01*
X114484667Y-107242894D01*
X114544842Y-107303069D01*
X116073908Y-108832136D01*
X116099307Y-108893456D01*
X116302944Y-109097093D01*
X116364266Y-109122493D01*
X116881643Y-109639872D01*
X116920610Y-109698190D01*
X116978928Y-109737157D01*
X116978930Y-109737159D01*
X117117279Y-109829600D01*
X117151659Y-109852572D01*
X117300262Y-109882131D01*
X117424200Y-109906784D01*
X117492994Y-109893100D01*
X128242486Y-109893100D01*
X128303807Y-109918500D01*
X128591793Y-109918500D01*
X128653114Y-109893100D01*
X129293406Y-109893100D01*
X129362200Y-109906784D01*
X129486139Y-109882131D01*
X129634741Y-109852572D01*
X129865790Y-109698190D01*
X130020172Y-109467141D01*
X130074384Y-109194600D01*
X130060700Y-109125806D01*
X130060700Y-105318327D01*
X131967220Y-103411807D01*
X134480300Y-103411807D01*
X134480300Y-103699793D01*
X134590507Y-103965856D01*
X134794144Y-104169493D01*
X135060207Y-104279700D01*
X135348193Y-104279700D01*
X135614256Y-104169493D01*
X135817893Y-103965856D01*
X135928100Y-103699793D01*
X135928100Y-103411807D01*
X135817893Y-103145744D01*
X135719949Y-103047800D01*
X135868693Y-102899056D01*
X135978900Y-102632993D01*
X135978900Y-102345007D01*
X135868693Y-102078944D01*
X135665056Y-101875307D01*
X135398993Y-101765100D01*
X135111007Y-101765100D01*
X134844944Y-101875307D01*
X134641307Y-102078944D01*
X134531100Y-102345007D01*
X134531100Y-102632993D01*
X134641307Y-102899056D01*
X134739251Y-102997000D01*
X134590507Y-103145744D01*
X134480300Y-103411807D01*
X131967220Y-103411807D01*
X132403336Y-102975692D01*
X132464656Y-102950293D01*
X132668293Y-102746656D01*
X132778500Y-102480593D01*
X132778500Y-102192607D01*
X132668293Y-101926544D01*
X132464656Y-101722907D01*
X132198593Y-101612700D01*
X131910607Y-101612700D01*
X131644544Y-101722907D01*
X131440907Y-101926544D01*
X131415508Y-101987864D01*
X129013466Y-104389906D01*
X128952144Y-104415307D01*
X128748507Y-104618944D01*
X128638300Y-104885007D01*
X128638300Y-105172993D01*
X128663700Y-105234314D01*
X128663701Y-108496100D01*
X128653114Y-108496100D01*
X128591793Y-108470700D01*
X128303807Y-108470700D01*
X128242486Y-108496100D01*
X117713528Y-108496100D01*
X117352093Y-108134666D01*
X117326693Y-108073344D01*
X117123056Y-107869707D01*
X117061736Y-107844308D01*
X115532669Y-106315242D01*
X115472494Y-106255067D01*
X115447093Y-106193744D01*
X115243456Y-105990107D01*
X115182135Y-105964707D01*
X114661235Y-105443807D01*
X118325900Y-105443807D01*
X118325900Y-105731793D01*
X118436107Y-105997856D01*
X118639744Y-106201493D01*
X118905807Y-106311700D01*
X119193793Y-106311700D01*
X119459856Y-106201493D01*
X119663493Y-105997856D01*
X119773700Y-105731793D01*
X119773700Y-105443807D01*
X119663493Y-105177744D01*
X119459856Y-104974107D01*
X119193793Y-104863900D01*
X118905807Y-104863900D01*
X118639744Y-104974107D01*
X118436107Y-105177744D01*
X118325900Y-105443807D01*
X114661235Y-105443807D01*
X112095835Y-102878407D01*
X113779300Y-102878407D01*
X113779300Y-103166393D01*
X113889507Y-103432456D01*
X114093144Y-103636093D01*
X114359207Y-103746300D01*
X114647193Y-103746300D01*
X114913256Y-103636093D01*
X115116893Y-103432456D01*
X115227100Y-103166393D01*
X115227100Y-102878407D01*
X115116893Y-102612344D01*
X114913256Y-102408707D01*
X114647193Y-102298500D01*
X114359207Y-102298500D01*
X114093144Y-102408707D01*
X113889507Y-102612344D01*
X113779300Y-102878407D01*
X112095835Y-102878407D01*
X111569500Y-102352073D01*
X111569500Y-100960049D01*
X111629344Y-101019893D01*
X111895407Y-101130100D01*
X112183393Y-101130100D01*
X112449456Y-101019893D01*
X112653093Y-100816256D01*
X112763300Y-100550193D01*
X112763300Y-100262207D01*
X112653093Y-99996144D01*
X112449456Y-99792507D01*
X112183393Y-99682300D01*
X111895407Y-99682300D01*
X111629344Y-99792507D01*
X111569500Y-99852351D01*
X111569500Y-97820067D01*
X114523566Y-97820067D01*
X114523566Y-98108053D01*
X114633773Y-98374116D01*
X114837410Y-98577753D01*
X115019858Y-98653326D01*
X115019858Y-98783548D01*
X115130065Y-99049611D01*
X115333702Y-99253248D01*
X115375549Y-99270582D01*
X115250296Y-99322463D01*
X115046659Y-99526100D01*
X114936452Y-99792163D01*
X114936452Y-100080149D01*
X115039064Y-100327876D01*
X115003729Y-100363211D01*
X114893522Y-100629274D01*
X114893522Y-100917260D01*
X114993530Y-101158701D01*
X114952382Y-101199849D01*
X114842175Y-101465912D01*
X114842175Y-101753898D01*
X114952382Y-102019961D01*
X115156019Y-102223598D01*
X115422082Y-102333805D01*
X115710068Y-102333805D01*
X115976131Y-102223598D01*
X116179768Y-102019961D01*
X116289975Y-101753898D01*
X116289975Y-101465912D01*
X116189967Y-101224471D01*
X116231115Y-101183323D01*
X116341322Y-100917260D01*
X116341322Y-100629274D01*
X116315531Y-100567007D01*
X134175500Y-100567007D01*
X134175500Y-100854993D01*
X134285707Y-101121056D01*
X134489344Y-101324693D01*
X134755407Y-101434900D01*
X135043393Y-101434900D01*
X135309456Y-101324693D01*
X135513093Y-101121056D01*
X135623300Y-100854993D01*
X135623300Y-100567007D01*
X135513093Y-100300944D01*
X135309456Y-100097307D01*
X135043393Y-99987100D01*
X134755407Y-99987100D01*
X134489344Y-100097307D01*
X134285707Y-100300944D01*
X134175500Y-100567007D01*
X116315531Y-100567007D01*
X116238710Y-100381547D01*
X116274045Y-100346212D01*
X116384252Y-100080149D01*
X116384252Y-99792163D01*
X116274045Y-99526100D01*
X116070408Y-99322463D01*
X116028561Y-99305129D01*
X116153814Y-99253248D01*
X116300565Y-99106497D01*
X121959056Y-99106497D01*
X121959056Y-99394483D01*
X122069263Y-99660546D01*
X122272900Y-99864183D01*
X122538963Y-99974390D01*
X122826949Y-99974390D01*
X123093012Y-99864183D01*
X123102063Y-99855133D01*
X123132047Y-99885117D01*
X123398110Y-99995324D01*
X123686096Y-99995324D01*
X123923545Y-99896970D01*
X123968343Y-99941768D01*
X124234406Y-100051975D01*
X124522392Y-100051975D01*
X124788455Y-99941768D01*
X124992092Y-99738131D01*
X125102299Y-99472068D01*
X125102299Y-99184082D01*
X125070163Y-99106497D01*
X125768305Y-99106497D01*
X125768305Y-99394483D01*
X125878512Y-99660546D01*
X126082149Y-99864183D01*
X126348212Y-99974390D01*
X126636198Y-99974390D01*
X126902261Y-99864183D01*
X127105898Y-99660546D01*
X127216105Y-99394483D01*
X127216105Y-99106497D01*
X127210849Y-99093807D01*
X134175500Y-99093807D01*
X134175500Y-99381793D01*
X134285707Y-99647856D01*
X134489344Y-99851493D01*
X134755407Y-99961700D01*
X135043393Y-99961700D01*
X135309456Y-99851493D01*
X135513093Y-99647856D01*
X135623300Y-99381793D01*
X135623300Y-99093807D01*
X135513093Y-98827744D01*
X135309456Y-98624107D01*
X135043393Y-98513900D01*
X134755407Y-98513900D01*
X134489344Y-98624107D01*
X134285707Y-98827744D01*
X134175500Y-99093807D01*
X127210849Y-99093807D01*
X127105898Y-98840434D01*
X126902261Y-98636797D01*
X126636198Y-98526590D01*
X126348212Y-98526590D01*
X126082149Y-98636797D01*
X125878512Y-98840434D01*
X125768305Y-99106497D01*
X125070163Y-99106497D01*
X124992092Y-98918019D01*
X124788455Y-98714382D01*
X124522392Y-98604175D01*
X124234406Y-98604175D01*
X123996957Y-98702529D01*
X123952159Y-98657731D01*
X123686096Y-98547524D01*
X123398110Y-98547524D01*
X123132047Y-98657731D01*
X123122997Y-98666782D01*
X123093012Y-98636797D01*
X122826949Y-98526590D01*
X122538963Y-98526590D01*
X122272900Y-98636797D01*
X122069263Y-98840434D01*
X121959056Y-99106497D01*
X116300565Y-99106497D01*
X116357451Y-99049611D01*
X116467658Y-98783548D01*
X116467658Y-98495562D01*
X116357451Y-98229499D01*
X116153814Y-98025862D01*
X115971366Y-97950289D01*
X115971366Y-97921942D01*
X116102711Y-97867537D01*
X116306348Y-97663900D01*
X116387406Y-97468207D01*
X123558300Y-97468207D01*
X123558300Y-97756193D01*
X123668507Y-98022256D01*
X123872144Y-98225893D01*
X124138207Y-98336100D01*
X124426193Y-98336100D01*
X124692256Y-98225893D01*
X124895893Y-98022256D01*
X125006100Y-97756193D01*
X125006100Y-97468207D01*
X124964016Y-97366607D01*
X126149100Y-97366607D01*
X126149100Y-97654593D01*
X126259307Y-97920656D01*
X126462944Y-98124293D01*
X126729007Y-98234500D01*
X127016993Y-98234500D01*
X127283056Y-98124293D01*
X127291432Y-98115917D01*
X129659927Y-98115917D01*
X129659927Y-98403903D01*
X129770134Y-98669966D01*
X129973771Y-98873603D01*
X130239834Y-98983810D01*
X130527820Y-98983810D01*
X130793883Y-98873603D01*
X130997520Y-98669966D01*
X131107727Y-98403903D01*
X131107727Y-98115917D01*
X130997520Y-97849854D01*
X130793883Y-97646217D01*
X130588788Y-97561264D01*
X130724050Y-97561264D01*
X130956421Y-97515043D01*
X131153415Y-97383415D01*
X131255122Y-97231200D01*
X131455964Y-97231200D01*
X131508490Y-97241648D01*
X131561016Y-97231200D01*
X131561021Y-97231200D01*
X131561071Y-97231190D01*
X131842993Y-97231190D01*
X132109056Y-97120983D01*
X132312693Y-96917346D01*
X132422900Y-96651283D01*
X132422900Y-96363297D01*
X132312693Y-96097234D01*
X132109056Y-95893597D01*
X131842993Y-95783390D01*
X131555007Y-95783390D01*
X131288944Y-95893597D01*
X131160201Y-96022340D01*
X131153415Y-96012185D01*
X130956421Y-95880557D01*
X130724050Y-95834336D01*
X130286550Y-95834336D01*
X130054179Y-95880557D01*
X129857185Y-96012185D01*
X129725557Y-96209179D01*
X129679336Y-96441550D01*
X129679336Y-96954050D01*
X129725557Y-97186421D01*
X129857185Y-97383415D01*
X130054179Y-97515043D01*
X130213801Y-97546793D01*
X129973771Y-97646217D01*
X129770134Y-97849854D01*
X129659927Y-98115917D01*
X127291432Y-98115917D01*
X127486693Y-97920656D01*
X127596900Y-97654593D01*
X127596900Y-97366607D01*
X127486693Y-97100544D01*
X127283056Y-96896907D01*
X127016993Y-96786700D01*
X126729007Y-96786700D01*
X126462944Y-96896907D01*
X126259307Y-97100544D01*
X126149100Y-97366607D01*
X124964016Y-97366607D01*
X124895893Y-97202144D01*
X124692256Y-96998507D01*
X124426193Y-96888300D01*
X124138207Y-96888300D01*
X123872144Y-96998507D01*
X123668507Y-97202144D01*
X123558300Y-97468207D01*
X116387406Y-97468207D01*
X116416555Y-97397837D01*
X116416555Y-97109851D01*
X116340081Y-96925226D01*
X116463300Y-96802007D01*
X116573507Y-96535944D01*
X116573507Y-96247958D01*
X116465193Y-95986464D01*
X116728550Y-95986464D01*
X116960921Y-95940243D01*
X117157915Y-95808615D01*
X117289543Y-95611621D01*
X117335764Y-95379250D01*
X117335764Y-94866750D01*
X117307570Y-94725007D01*
X119087900Y-94725007D01*
X119087900Y-95012993D01*
X119198107Y-95279056D01*
X119401744Y-95482693D01*
X119667807Y-95592900D01*
X119900700Y-95592900D01*
X119900700Y-95724193D01*
X120010907Y-95990256D01*
X120214544Y-96193893D01*
X120480607Y-96304100D01*
X120768593Y-96304100D01*
X120851673Y-96269687D01*
X120925307Y-96447456D01*
X121128944Y-96651093D01*
X121395007Y-96761300D01*
X121682993Y-96761300D01*
X121870754Y-96683527D01*
X121941307Y-96853856D01*
X122144944Y-97057493D01*
X122411007Y-97167700D01*
X122698993Y-97167700D01*
X122965056Y-97057493D01*
X123168693Y-96853856D01*
X123278900Y-96587793D01*
X123278900Y-96299807D01*
X123168693Y-96033744D01*
X122965056Y-95830107D01*
X122698993Y-95719900D01*
X122411007Y-95719900D01*
X122223246Y-95797673D01*
X122152693Y-95627344D01*
X121949056Y-95423707D01*
X121682993Y-95313500D01*
X121395007Y-95313500D01*
X121311927Y-95347913D01*
X121238293Y-95170144D01*
X121034656Y-94966507D01*
X120768593Y-94856300D01*
X120535700Y-94856300D01*
X120535700Y-94725007D01*
X120425493Y-94458944D01*
X120221856Y-94255307D01*
X119955793Y-94145100D01*
X119667807Y-94145100D01*
X119401744Y-94255307D01*
X119198107Y-94458944D01*
X119087900Y-94725007D01*
X117307570Y-94725007D01*
X117289543Y-94634379D01*
X117157915Y-94437385D01*
X116960921Y-94305757D01*
X116728550Y-94259536D01*
X116291050Y-94259536D01*
X116058679Y-94305757D01*
X115861685Y-94437385D01*
X115730057Y-94634379D01*
X115683836Y-94866750D01*
X115683836Y-95194623D01*
X115435085Y-95443375D01*
X115346950Y-95575278D01*
X115305552Y-95783400D01*
X115326931Y-95890878D01*
X115235914Y-95981895D01*
X115125707Y-96247958D01*
X115125707Y-96535944D01*
X115202181Y-96720569D01*
X115078962Y-96843788D01*
X114968755Y-97109851D01*
X114968755Y-97295962D01*
X114837410Y-97350367D01*
X114633773Y-97554004D01*
X114523566Y-97820067D01*
X111569500Y-97820067D01*
X111569500Y-93901550D01*
X121906936Y-93901550D01*
X121906936Y-94414050D01*
X121953157Y-94646421D01*
X122084785Y-94843415D01*
X122281779Y-94975043D01*
X122514150Y-95021264D01*
X122951650Y-95021264D01*
X123184021Y-94975043D01*
X123381015Y-94843415D01*
X123482722Y-94691200D01*
X123588651Y-94691200D01*
X123668944Y-94771493D01*
X123935007Y-94881700D01*
X124222993Y-94881700D01*
X124489056Y-94771493D01*
X124692693Y-94567856D01*
X124802900Y-94301793D01*
X124802900Y-94013807D01*
X124692693Y-93747744D01*
X124489056Y-93544107D01*
X124222993Y-93433900D01*
X123935007Y-93433900D01*
X123668944Y-93544107D01*
X123588651Y-93624400D01*
X123482722Y-93624400D01*
X123381015Y-93472185D01*
X123184021Y-93340557D01*
X122951650Y-93294336D01*
X122514150Y-93294336D01*
X122281779Y-93340557D01*
X122084785Y-93472185D01*
X121953157Y-93669179D01*
X121906936Y-93901550D01*
X111569500Y-93901550D01*
X111569500Y-90153007D01*
X118719579Y-90153007D01*
X118719579Y-90440993D01*
X118829786Y-90707056D01*
X119033423Y-90910693D01*
X119299486Y-91020900D01*
X119587472Y-91020900D01*
X119853535Y-90910693D01*
X120057172Y-90707056D01*
X120167379Y-90440993D01*
X120167379Y-90153007D01*
X120057172Y-89886944D01*
X119853535Y-89683307D01*
X119587472Y-89573100D01*
X119299486Y-89573100D01*
X119033423Y-89683307D01*
X118829786Y-89886944D01*
X118719579Y-90153007D01*
X111569500Y-90153007D01*
X111569500Y-89697327D01*
X113208966Y-88057861D01*
X113471656Y-88320552D01*
X113449100Y-88375007D01*
X113449100Y-88662993D01*
X113559307Y-88929056D01*
X113762944Y-89132693D01*
X114029007Y-89242900D01*
X114316993Y-89242900D01*
X114583056Y-89132693D01*
X114786693Y-88929056D01*
X114896900Y-88662993D01*
X114896900Y-88375007D01*
X114871500Y-88313686D01*
X114871500Y-88102861D01*
X114885184Y-88034067D01*
X114830972Y-87761526D01*
X114715559Y-87588797D01*
X114715557Y-87588795D01*
X114676590Y-87530477D01*
X114618272Y-87491510D01*
X114196794Y-87070033D01*
X121602500Y-79664328D01*
X121602501Y-86469002D01*
X121602500Y-86469007D01*
X121602501Y-87321883D01*
X121602500Y-89059810D01*
X121588817Y-89128600D01*
X121602500Y-89197390D01*
X121602500Y-89197393D01*
X121643028Y-89401140D01*
X121797410Y-89632189D01*
X121855731Y-89671158D01*
X125187541Y-93002969D01*
X125226510Y-93061290D01*
X125284830Y-93100258D01*
X125457559Y-93215672D01*
X125730100Y-93269884D01*
X125798894Y-93256200D01*
X126631701Y-93256200D01*
X126631701Y-93495284D01*
X126606300Y-93556607D01*
X126606300Y-93844593D01*
X126716507Y-94110656D01*
X126920144Y-94314293D01*
X127186207Y-94424500D01*
X127474193Y-94424500D01*
X127740256Y-94314293D01*
X127943893Y-94110656D01*
X128054100Y-93844593D01*
X128054100Y-93556607D01*
X128028700Y-93495286D01*
X128028700Y-93256200D01*
X131657561Y-93256200D01*
X131491707Y-93422054D01*
X131381500Y-93688117D01*
X131381500Y-93801669D01*
X131355569Y-93827600D01*
X131204322Y-93827600D01*
X131102615Y-93675385D01*
X130905621Y-93543757D01*
X130673250Y-93497536D01*
X130235750Y-93497536D01*
X130003379Y-93543757D01*
X129806385Y-93675385D01*
X129674757Y-93872379D01*
X129628536Y-94104750D01*
X129628536Y-94617250D01*
X129674757Y-94849621D01*
X129806385Y-95046615D01*
X130003379Y-95178243D01*
X130235750Y-95224464D01*
X130673250Y-95224464D01*
X130905621Y-95178243D01*
X131102615Y-95046615D01*
X131204322Y-94894400D01*
X131523984Y-94894400D01*
X131576510Y-94904848D01*
X131629036Y-94894400D01*
X131629041Y-94894400D01*
X131784632Y-94863451D01*
X131961069Y-94745559D01*
X131990827Y-94701023D01*
X132135841Y-94556010D01*
X132249393Y-94556010D01*
X132515456Y-94445803D01*
X132719093Y-94242166D01*
X132792640Y-94064607D01*
X134175500Y-94064607D01*
X134175500Y-94352593D01*
X134285707Y-94618656D01*
X134489344Y-94822293D01*
X134755407Y-94932500D01*
X135043393Y-94932500D01*
X135309456Y-94822293D01*
X135513093Y-94618656D01*
X135623300Y-94352593D01*
X135623300Y-94064607D01*
X135513093Y-93798544D01*
X135309456Y-93594907D01*
X135043393Y-93484700D01*
X134755407Y-93484700D01*
X134489344Y-93594907D01*
X134285707Y-93798544D01*
X134175500Y-94064607D01*
X132792640Y-94064607D01*
X132829300Y-93976103D01*
X132829300Y-93688117D01*
X132719093Y-93422054D01*
X132553239Y-93256200D01*
X137734373Y-93256200D01*
X139060907Y-94582735D01*
X139086307Y-94644056D01*
X139152501Y-94710250D01*
X139086307Y-94776444D01*
X138976100Y-95042507D01*
X138976100Y-95330493D01*
X139086307Y-95596556D01*
X139289944Y-95800193D01*
X139415393Y-95852156D01*
X139315344Y-95893597D01*
X139111707Y-96097234D01*
X139001500Y-96363297D01*
X139001500Y-96651283D01*
X139111707Y-96917346D01*
X139315344Y-97120983D01*
X139581407Y-97231190D01*
X139869393Y-97231190D01*
X140135456Y-97120983D01*
X140339093Y-96917346D01*
X140449300Y-96651283D01*
X140449300Y-96363297D01*
X140339093Y-96097234D01*
X140135456Y-95893597D01*
X140010007Y-95841634D01*
X140110056Y-95800193D01*
X140313693Y-95596556D01*
X140423900Y-95330493D01*
X140423900Y-95042507D01*
X140313693Y-94776444D01*
X140247499Y-94710250D01*
X140313693Y-94644056D01*
X140423900Y-94377993D01*
X140423900Y-94090007D01*
X140313693Y-93823944D01*
X140110056Y-93620307D01*
X140048735Y-93594907D01*
X138566260Y-92112433D01*
X138527290Y-92054110D01*
X138296241Y-91899728D01*
X138092494Y-91859200D01*
X138092490Y-91859200D01*
X138023700Y-91845517D01*
X137954910Y-91859200D01*
X127940409Y-91859200D01*
X127818821Y-91777957D01*
X127586450Y-91731736D01*
X127073950Y-91731736D01*
X126841579Y-91777957D01*
X126719991Y-91859200D01*
X126019428Y-91859200D01*
X122999500Y-88839273D01*
X122999500Y-86249000D01*
X145169536Y-86249000D01*
X145169536Y-88249000D01*
X145199106Y-88397659D01*
X145283314Y-88523686D01*
X145409341Y-88607894D01*
X145558000Y-88637464D01*
X147558000Y-88637464D01*
X147706659Y-88607894D01*
X147832686Y-88523686D01*
X147916894Y-88397659D01*
X147946464Y-88249000D01*
X147946464Y-87757000D01*
X152011251Y-87757000D01*
X152116944Y-87862693D01*
X152218919Y-87904932D01*
X152116507Y-88007344D01*
X152006300Y-88273407D01*
X152006300Y-88561393D01*
X152116507Y-88827456D01*
X152320144Y-89031093D01*
X152586207Y-89141300D01*
X152874193Y-89141300D01*
X153140256Y-89031093D01*
X153343893Y-88827456D01*
X153454100Y-88561393D01*
X153454100Y-88273407D01*
X153343893Y-88007344D01*
X153140256Y-87803707D01*
X153038281Y-87761468D01*
X153140693Y-87659056D01*
X153250900Y-87392993D01*
X153250900Y-87105007D01*
X153140693Y-86838944D01*
X152937056Y-86635307D01*
X152670993Y-86525100D01*
X152383007Y-86525100D01*
X152116944Y-86635307D01*
X152011251Y-86741000D01*
X147946464Y-86741000D01*
X147946464Y-86249000D01*
X147916894Y-86100341D01*
X147832686Y-85974314D01*
X147706659Y-85890106D01*
X147558000Y-85860536D01*
X145558000Y-85860536D01*
X145409341Y-85890106D01*
X145283314Y-85974314D01*
X145199106Y-86100341D01*
X145169536Y-86249000D01*
X122999500Y-86249000D01*
X122999500Y-83456031D01*
X123173007Y-83527900D01*
X123460993Y-83527900D01*
X123727056Y-83417693D01*
X123930693Y-83214056D01*
X124040900Y-82947993D01*
X124040900Y-82660007D01*
X124015500Y-82598686D01*
X124015500Y-81061327D01*
X124495328Y-80581500D01*
X130302000Y-80581500D01*
X130302000Y-83947000D01*
X130331002Y-84092802D01*
X130413592Y-84216408D01*
X130537198Y-84298998D01*
X130683000Y-84328000D01*
X139319000Y-84328000D01*
X139464802Y-84298998D01*
X139588408Y-84216408D01*
X139670998Y-84092802D01*
X139700000Y-83947000D01*
X139700000Y-83312000D01*
X147955000Y-83312000D01*
X148100802Y-83282998D01*
X148224408Y-83200408D01*
X148306998Y-83076802D01*
X148336000Y-82931000D01*
X148336000Y-78359000D01*
X148306998Y-78213198D01*
X148224408Y-78089592D01*
X148100802Y-78007002D01*
X147955000Y-77978000D01*
X144780000Y-77978000D01*
X144780000Y-74992155D01*
X144797416Y-74904600D01*
X144778332Y-74808659D01*
X144728419Y-74557730D01*
X144531933Y-74263667D01*
X144457707Y-74214071D01*
X142903636Y-72660000D01*
X146693536Y-72660000D01*
X146693536Y-74660000D01*
X146723106Y-74808659D01*
X146807314Y-74934686D01*
X146933341Y-75018894D01*
X147082000Y-75048464D01*
X149082000Y-75048464D01*
X149230659Y-75018894D01*
X149356686Y-74934686D01*
X149440894Y-74808659D01*
X149470464Y-74660000D01*
X149470464Y-74168000D01*
X150644384Y-74168000D01*
X150859007Y-74256900D01*
X151146993Y-74256900D01*
X151413056Y-74146693D01*
X151616693Y-73943056D01*
X151726900Y-73676993D01*
X151726900Y-73389007D01*
X151616693Y-73122944D01*
X151413056Y-72919307D01*
X151146993Y-72809100D01*
X150859007Y-72809100D01*
X150592944Y-72919307D01*
X150389307Y-73122944D01*
X150377272Y-73152000D01*
X149470464Y-73152000D01*
X149470464Y-72660000D01*
X149440894Y-72511341D01*
X149356686Y-72385314D01*
X149230659Y-72301106D01*
X149082000Y-72271536D01*
X147082000Y-72271536D01*
X146933341Y-72301106D01*
X146807314Y-72385314D01*
X146723106Y-72511341D01*
X146693536Y-72660000D01*
X142903636Y-72660000D01*
X136580531Y-66336896D01*
X136530933Y-66262667D01*
X136236870Y-66066181D01*
X135977556Y-66014600D01*
X135977555Y-66014600D01*
X135890000Y-65997184D01*
X135802445Y-66014600D01*
X113727155Y-66014600D01*
X113639600Y-65997184D01*
X113552045Y-66014600D01*
X113552044Y-66014600D01*
X113292730Y-66066181D01*
X112998667Y-66262667D01*
X112949071Y-66336893D01*
X111066296Y-68219669D01*
X111066293Y-68219671D01*
X109326385Y-69959580D01*
X109252156Y-70009178D01*
X109055670Y-70303242D01*
X109025296Y-70455944D01*
X108986673Y-70650111D01*
X109004089Y-70737666D01*
X109004090Y-77914500D01*
X106394464Y-77914500D01*
X106394464Y-77763000D01*
X106364894Y-77614341D01*
X106280686Y-77488314D01*
X106154659Y-77404106D01*
X106006000Y-77374536D01*
X104306000Y-77374536D01*
X104157341Y-77404106D01*
X104031314Y-77488314D01*
X103947106Y-77614341D01*
X103917536Y-77763000D01*
X103580000Y-77763000D01*
X103580000Y-63335800D01*
X110292936Y-63335800D01*
X110292936Y-65035800D01*
X110322506Y-65184459D01*
X110406714Y-65310486D01*
X110532741Y-65394694D01*
X110681400Y-65424264D01*
X112381400Y-65424264D01*
X112530059Y-65394694D01*
X112656086Y-65310486D01*
X112740294Y-65184459D01*
X112769864Y-65035800D01*
X112769864Y-64185800D01*
X112816284Y-64185800D01*
X112911824Y-64666112D01*
X113183899Y-65073301D01*
X113591088Y-65345376D01*
X113950161Y-65416800D01*
X114192639Y-65416800D01*
X114551712Y-65345376D01*
X114958901Y-65073301D01*
X115230976Y-64666112D01*
X115326516Y-64185800D01*
X117896284Y-64185800D01*
X117991824Y-64666112D01*
X118263899Y-65073301D01*
X118671088Y-65345376D01*
X119030161Y-65416800D01*
X119272639Y-65416800D01*
X119631712Y-65345376D01*
X120038901Y-65073301D01*
X120310976Y-64666112D01*
X120406516Y-64185800D01*
X120436284Y-64185800D01*
X120531824Y-64666112D01*
X120803899Y-65073301D01*
X121211088Y-65345376D01*
X121570161Y-65416800D01*
X121812639Y-65416800D01*
X122171712Y-65345376D01*
X122578901Y-65073301D01*
X122850976Y-64666112D01*
X122946516Y-64185800D01*
X122850976Y-63705488D01*
X122578901Y-63298299D01*
X122171712Y-63026224D01*
X121812639Y-62954800D01*
X121570161Y-62954800D01*
X121211088Y-63026224D01*
X120803899Y-63298299D01*
X120531824Y-63705488D01*
X120436284Y-64185800D01*
X120406516Y-64185800D01*
X120310976Y-63705488D01*
X120038901Y-63298299D01*
X119631712Y-63026224D01*
X119272639Y-62954800D01*
X119030161Y-62954800D01*
X118671088Y-63026224D01*
X118263899Y-63298299D01*
X117991824Y-63705488D01*
X117896284Y-64185800D01*
X115326516Y-64185800D01*
X115230976Y-63705488D01*
X114958901Y-63298299D01*
X114551712Y-63026224D01*
X114192639Y-62954800D01*
X113950161Y-62954800D01*
X113591088Y-63026224D01*
X113183899Y-63298299D01*
X112911824Y-63705488D01*
X112816284Y-64185800D01*
X112769864Y-64185800D01*
X112769864Y-63335800D01*
X112740294Y-63187141D01*
X112656086Y-63061114D01*
X112530059Y-62976906D01*
X112381400Y-62947336D01*
X110681400Y-62947336D01*
X110532741Y-62976906D01*
X110406714Y-63061114D01*
X110322506Y-63187141D01*
X110292936Y-63335800D01*
X103580000Y-63335800D01*
X103580000Y-62559000D01*
X156006109Y-62559000D01*
X155932292Y-111315500D01*
G36*
X143002001Y-75272837D02*
X143002000Y-77978000D01*
X130683000Y-77978000D01*
X130537198Y-78007002D01*
X130413592Y-78089592D01*
X130331002Y-78213198D01*
X130302000Y-78359000D01*
X130302000Y-79184500D01*
X124274790Y-79184500D01*
X124206000Y-79170817D01*
X124137210Y-79184500D01*
X124137206Y-79184500D01*
X123933459Y-79225028D01*
X123702410Y-79379410D01*
X123663441Y-79437731D01*
X122999500Y-80101673D01*
X122999500Y-78267327D01*
X123224558Y-78042269D01*
X125032270Y-76234558D01*
X125090590Y-76195590D01*
X125129560Y-76137267D01*
X126019328Y-75247500D01*
X126746000Y-75247500D01*
X126746000Y-75565000D01*
X126775002Y-75710802D01*
X126857592Y-75834408D01*
X126981198Y-75916998D01*
X127127000Y-75946000D01*
X128651000Y-75946000D01*
X128796802Y-75916998D01*
X128920408Y-75834408D01*
X129002998Y-75710802D01*
X129032000Y-75565000D01*
X129032000Y-68580000D01*
X129002998Y-68434198D01*
X128920408Y-68310592D01*
X128796802Y-68228002D01*
X128651000Y-68199000D01*
X127127000Y-68199000D01*
X126981198Y-68228002D01*
X126857592Y-68310592D01*
X126775002Y-68434198D01*
X126746000Y-68580000D01*
X126746000Y-73850500D01*
X125798788Y-73850500D01*
X125729999Y-73836817D01*
X125661210Y-73850500D01*
X125661206Y-73850500D01*
X125457459Y-73891028D01*
X125226410Y-74045410D01*
X125187441Y-74103731D01*
X124548901Y-74742272D01*
X118317294Y-68510667D01*
X118291893Y-68449344D01*
X118088256Y-68245707D01*
X117822193Y-68135500D01*
X117534207Y-68135500D01*
X117268144Y-68245707D01*
X117064507Y-68449344D01*
X116954300Y-68715407D01*
X116954300Y-69003393D01*
X117064507Y-69269456D01*
X117268144Y-69473093D01*
X117329467Y-69498494D01*
X123561072Y-75730101D01*
X121855733Y-77435440D01*
X121855730Y-77435442D01*
X121855728Y-77435444D01*
X121797410Y-77474411D01*
X121758443Y-77532729D01*
X112711734Y-86579439D01*
X112653410Y-86618410D01*
X112614441Y-86676731D01*
X110782089Y-88509084D01*
X110782089Y-71509407D01*
X115125500Y-71509407D01*
X115125500Y-71797393D01*
X115235707Y-72063456D01*
X115439344Y-72267093D01*
X115705407Y-72377300D01*
X115993393Y-72377300D01*
X116259456Y-72267093D01*
X116463093Y-72063456D01*
X116573300Y-71797393D01*
X116573300Y-71509407D01*
X116463093Y-71243344D01*
X116259456Y-71039707D01*
X115993393Y-70929500D01*
X115705407Y-70929500D01*
X115439344Y-71039707D01*
X115235707Y-71243344D01*
X115125500Y-71509407D01*
X110782089Y-71509407D01*
X110782089Y-71018346D01*
X111815028Y-69985407D01*
X115125500Y-69985407D01*
X115125500Y-70273393D01*
X115235707Y-70539456D01*
X115439344Y-70743093D01*
X115705407Y-70853300D01*
X115993393Y-70853300D01*
X116259456Y-70743093D01*
X116463093Y-70539456D01*
X116573300Y-70273393D01*
X116573300Y-69985407D01*
X116463093Y-69719344D01*
X116259456Y-69515707D01*
X115993393Y-69405500D01*
X115705407Y-69405500D01*
X115439344Y-69515707D01*
X115235707Y-69719344D01*
X115125500Y-69985407D01*
X111815028Y-69985407D01*
X112323529Y-69476907D01*
X112323531Y-69476904D01*
X114007836Y-67792600D01*
X135521765Y-67792600D01*
X143002001Y-75272837D01*
X143002001Y-75272837D01*
G37*
X143002001Y-75272837D02*
X143002000Y-77978000D01*
X130683000Y-77978000D01*
X130537198Y-78007002D01*
X130413592Y-78089592D01*
X130331002Y-78213198D01*
X130302000Y-78359000D01*
X130302000Y-79184500D01*
X124274790Y-79184500D01*
X124206000Y-79170817D01*
X124137210Y-79184500D01*
X124137206Y-79184500D01*
X123933459Y-79225028D01*
X123702410Y-79379410D01*
X123663441Y-79437731D01*
X122999500Y-80101673D01*
X122999500Y-78267327D01*
X123224558Y-78042269D01*
X125032270Y-76234558D01*
X125090590Y-76195590D01*
X125129560Y-76137267D01*
X126019328Y-75247500D01*
X126746000Y-75247500D01*
X126746000Y-75565000D01*
X126775002Y-75710802D01*
X126857592Y-75834408D01*
X126981198Y-75916998D01*
X127127000Y-75946000D01*
X128651000Y-75946000D01*
X128796802Y-75916998D01*
X128920408Y-75834408D01*
X129002998Y-75710802D01*
X129032000Y-75565000D01*
X129032000Y-68580000D01*
X129002998Y-68434198D01*
X128920408Y-68310592D01*
X128796802Y-68228002D01*
X128651000Y-68199000D01*
X127127000Y-68199000D01*
X126981198Y-68228002D01*
X126857592Y-68310592D01*
X126775002Y-68434198D01*
X126746000Y-68580000D01*
X126746000Y-73850500D01*
X125798788Y-73850500D01*
X125729999Y-73836817D01*
X125661210Y-73850500D01*
X125661206Y-73850500D01*
X125457459Y-73891028D01*
X125226410Y-74045410D01*
X125187441Y-74103731D01*
X124548901Y-74742272D01*
X118317294Y-68510667D01*
X118291893Y-68449344D01*
X118088256Y-68245707D01*
X117822193Y-68135500D01*
X117534207Y-68135500D01*
X117268144Y-68245707D01*
X117064507Y-68449344D01*
X116954300Y-68715407D01*
X116954300Y-69003393D01*
X117064507Y-69269456D01*
X117268144Y-69473093D01*
X117329467Y-69498494D01*
X123561072Y-75730101D01*
X121855733Y-77435440D01*
X121855730Y-77435442D01*
X121855728Y-77435444D01*
X121797410Y-77474411D01*
X121758443Y-77532729D01*
X112711734Y-86579439D01*
X112653410Y-86618410D01*
X112614441Y-86676731D01*
X110782089Y-88509084D01*
X110782089Y-71509407D01*
X115125500Y-71509407D01*
X115125500Y-71797393D01*
X115235707Y-72063456D01*
X115439344Y-72267093D01*
X115705407Y-72377300D01*
X115993393Y-72377300D01*
X116259456Y-72267093D01*
X116463093Y-72063456D01*
X116573300Y-71797393D01*
X116573300Y-71509407D01*
X116463093Y-71243344D01*
X116259456Y-71039707D01*
X115993393Y-70929500D01*
X115705407Y-70929500D01*
X115439344Y-71039707D01*
X115235707Y-71243344D01*
X115125500Y-71509407D01*
X110782089Y-71509407D01*
X110782089Y-71018346D01*
X111815028Y-69985407D01*
X115125500Y-69985407D01*
X115125500Y-70273393D01*
X115235707Y-70539456D01*
X115439344Y-70743093D01*
X115705407Y-70853300D01*
X115993393Y-70853300D01*
X116259456Y-70743093D01*
X116463093Y-70539456D01*
X116573300Y-70273393D01*
X116573300Y-69985407D01*
X116463093Y-69719344D01*
X116259456Y-69515707D01*
X115993393Y-69405500D01*
X115705407Y-69405500D01*
X115439344Y-69515707D01*
X115235707Y-69719344D01*
X115125500Y-69985407D01*
X111815028Y-69985407D01*
X112323529Y-69476907D01*
X112323531Y-69476904D01*
X114007836Y-67792600D01*
X135521765Y-67792600D01*
X143002001Y-75272837D01*
G36*
X135788400Y-112872800D02*
X134515943Y-114145258D01*
X134188069Y-114145258D01*
X133955698Y-114191479D01*
X133758704Y-114323107D01*
X133627076Y-114520101D01*
X133619319Y-114559098D01*
X133611562Y-114520101D01*
X133479934Y-114323107D01*
X133365616Y-114246722D01*
X133479934Y-114170337D01*
X133611562Y-113973343D01*
X133657783Y-113740972D01*
X133657783Y-113228472D01*
X133611562Y-112996101D01*
X133479934Y-112799107D01*
X133353504Y-112714629D01*
X133490015Y-112623415D01*
X133621643Y-112426421D01*
X133629400Y-112387424D01*
X133637157Y-112426421D01*
X133768785Y-112623415D01*
X133965779Y-112755043D01*
X134198150Y-112801264D01*
X134635650Y-112801264D01*
X134868021Y-112755043D01*
X135065015Y-112623415D01*
X135196643Y-112426421D01*
X135242864Y-112194050D01*
X135242864Y-111866177D01*
X135292827Y-111816214D01*
X135292829Y-111816211D01*
X135788400Y-111320640D01*
X135788400Y-112872800D01*
X135788400Y-112872800D01*
G37*
X135788400Y-112872800D02*
X134515943Y-114145258D01*
X134188069Y-114145258D01*
X133955698Y-114191479D01*
X133758704Y-114323107D01*
X133627076Y-114520101D01*
X133619319Y-114559098D01*
X133611562Y-114520101D01*
X133479934Y-114323107D01*
X133365616Y-114246722D01*
X133479934Y-114170337D01*
X133611562Y-113973343D01*
X133657783Y-113740972D01*
X133657783Y-113228472D01*
X133611562Y-112996101D01*
X133479934Y-112799107D01*
X133353504Y-112714629D01*
X133490015Y-112623415D01*
X133621643Y-112426421D01*
X133629400Y-112387424D01*
X133637157Y-112426421D01*
X133768785Y-112623415D01*
X133965779Y-112755043D01*
X134198150Y-112801264D01*
X134635650Y-112801264D01*
X134868021Y-112755043D01*
X135065015Y-112623415D01*
X135196643Y-112426421D01*
X135242864Y-112194050D01*
X135242864Y-111866177D01*
X135292827Y-111816214D01*
X135292829Y-111816211D01*
X135788400Y-111320640D01*
X135788400Y-112872800D01*
G04 #@! TD*
M02*
