G04 #@! TF.GenerationSoftware,KiCad,Pcbnew,5.0.2-bee76a0~70~ubuntu18.04.1*
G04 #@! TF.CreationDate,2019-03-01T11:09:08-06:00*
G04 #@! TF.ProjectId,MotorDriverXL,4d6f746f-7244-4726-9976-6572584c2e6b,V1.0*
G04 #@! TF.SameCoordinates,Original*
G04 #@! TF.FileFunction,Legend,Bot*
G04 #@! TF.FilePolarity,Positive*
%FSLAX46Y46*%
G04 Gerber Fmt 4.6, Leading zero omitted, Abs format (unit mm)*
G04 Created by KiCad (PCBNEW 5.0.2-bee76a0~70~ubuntu18.04.1) date Fri 01 Mar 2019 11:09:08 AM CST*
%MOMM*%
%LPD*%
G01*
G04 APERTURE LIST*
%ADD10C,0.158750*%
%ADD11C,0.300000*%
%ADD12C,0.120000*%
%ADD13C,0.150000*%
G04 APERTURE END LIST*
D10*
X116921642Y-122588261D02*
X116921642Y-122799928D01*
X117254261Y-122890642D02*
X117254261Y-122588261D01*
X116619261Y-122588261D01*
X116619261Y-122890642D01*
X116619261Y-123102309D02*
X117254261Y-123525642D01*
X116619261Y-123525642D02*
X117254261Y-123102309D01*
X116619261Y-123676833D02*
X116619261Y-124039690D01*
X117254261Y-123858261D02*
X116619261Y-123858261D01*
X117254261Y-124583976D02*
X117254261Y-124221119D01*
X117254261Y-124402547D02*
X116619261Y-124402547D01*
X116709976Y-124342071D01*
X116770452Y-124281595D01*
X116800690Y-124221119D01*
X119588642Y-122588261D02*
X119588642Y-122799928D01*
X119921261Y-122890642D02*
X119921261Y-122588261D01*
X119286261Y-122588261D01*
X119286261Y-122890642D01*
X119286261Y-123102309D02*
X119921261Y-123525642D01*
X119286261Y-123525642D02*
X119921261Y-123102309D01*
X119286261Y-123676833D02*
X119286261Y-124039690D01*
X119921261Y-123858261D02*
X119286261Y-123858261D01*
X119346738Y-124221119D02*
X119316500Y-124251357D01*
X119286261Y-124311833D01*
X119286261Y-124463023D01*
X119316500Y-124523500D01*
X119346738Y-124553738D01*
X119407214Y-124583976D01*
X119467690Y-124583976D01*
X119558404Y-124553738D01*
X119921261Y-124190880D01*
X119921261Y-124583976D01*
X121572261Y-123595190D02*
X121572261Y-123958047D01*
X122207261Y-123776619D02*
X121572261Y-123776619D01*
X121572261Y-124109238D02*
X122207261Y-124532571D01*
X121572261Y-124532571D02*
X122207261Y-124109238D01*
X124874261Y-123973166D02*
X124571880Y-123761500D01*
X124874261Y-123610309D02*
X124239261Y-123610309D01*
X124239261Y-123852214D01*
X124269500Y-123912690D01*
X124299738Y-123942928D01*
X124360214Y-123973166D01*
X124450928Y-123973166D01*
X124511404Y-123942928D01*
X124541642Y-123912690D01*
X124571880Y-123852214D01*
X124571880Y-123610309D01*
X124239261Y-124184833D02*
X124874261Y-124608166D01*
X124239261Y-124608166D02*
X124874261Y-124184833D01*
X127081642Y-122715261D02*
X127081642Y-122926928D01*
X127414261Y-123017642D02*
X127414261Y-122715261D01*
X126779261Y-122715261D01*
X126779261Y-123017642D01*
X126779261Y-123229309D02*
X127414261Y-123652642D01*
X126779261Y-123652642D02*
X127414261Y-123229309D01*
X126779261Y-123803833D02*
X126779261Y-124166690D01*
X127414261Y-123985261D02*
X126779261Y-123985261D01*
X126779261Y-124317880D02*
X126779261Y-124710976D01*
X127021166Y-124499309D01*
X127021166Y-124590023D01*
X127051404Y-124650500D01*
X127081642Y-124680738D01*
X127142119Y-124710976D01*
X127293309Y-124710976D01*
X127353785Y-124680738D01*
X127384023Y-124650500D01*
X127414261Y-124590023D01*
X127414261Y-124408595D01*
X127384023Y-124348119D01*
X127353785Y-124317880D01*
X129222500Y-123214190D02*
X129192261Y-123153714D01*
X129192261Y-123063000D01*
X129222500Y-122972285D01*
X129282976Y-122911809D01*
X129343452Y-122881571D01*
X129464404Y-122851333D01*
X129555119Y-122851333D01*
X129676071Y-122881571D01*
X129736547Y-122911809D01*
X129797023Y-122972285D01*
X129827261Y-123063000D01*
X129827261Y-123123476D01*
X129797023Y-123214190D01*
X129766785Y-123244428D01*
X129555119Y-123244428D01*
X129555119Y-123123476D01*
X129827261Y-123516571D02*
X129192261Y-123516571D01*
X129827261Y-123879428D01*
X129192261Y-123879428D01*
X129827261Y-124181809D02*
X129192261Y-124181809D01*
X129192261Y-124333000D01*
X129222500Y-124423714D01*
X129282976Y-124484190D01*
X129343452Y-124514428D01*
X129464404Y-124544666D01*
X129555119Y-124544666D01*
X129676071Y-124514428D01*
X129736547Y-124484190D01*
X129797023Y-124423714D01*
X129827261Y-124333000D01*
X129827261Y-124181809D01*
X132252357Y-121920000D02*
X132252357Y-122403809D01*
X132494261Y-122161904D02*
X132010452Y-122161904D01*
X131859261Y-122645714D02*
X131859261Y-123038809D01*
X132101166Y-122827142D01*
X132101166Y-122917857D01*
X132131404Y-122978333D01*
X132161642Y-123008571D01*
X132222119Y-123038809D01*
X132373309Y-123038809D01*
X132433785Y-123008571D01*
X132464023Y-122978333D01*
X132494261Y-122917857D01*
X132494261Y-122736428D01*
X132464023Y-122675952D01*
X132433785Y-122645714D01*
X132433785Y-123310952D02*
X132464023Y-123341190D01*
X132494261Y-123310952D01*
X132464023Y-123280714D01*
X132433785Y-123310952D01*
X132494261Y-123310952D01*
X131859261Y-123552857D02*
X131859261Y-123945952D01*
X132101166Y-123734285D01*
X132101166Y-123825000D01*
X132131404Y-123885476D01*
X132161642Y-123915714D01*
X132222119Y-123945952D01*
X132373309Y-123945952D01*
X132433785Y-123915714D01*
X132464023Y-123885476D01*
X132494261Y-123825000D01*
X132494261Y-123643571D01*
X132464023Y-123583095D01*
X132433785Y-123552857D01*
X131859261Y-124127380D02*
X132494261Y-124339047D01*
X131859261Y-124550714D01*
X134538357Y-122881571D02*
X134538357Y-123365380D01*
X134780261Y-123123476D02*
X134296452Y-123123476D01*
X134145261Y-123970142D02*
X134145261Y-123667761D01*
X134447642Y-123637523D01*
X134417404Y-123667761D01*
X134387166Y-123728238D01*
X134387166Y-123879428D01*
X134417404Y-123939904D01*
X134447642Y-123970142D01*
X134508119Y-124000380D01*
X134659309Y-124000380D01*
X134719785Y-123970142D01*
X134750023Y-123939904D01*
X134780261Y-123879428D01*
X134780261Y-123728238D01*
X134750023Y-123667761D01*
X134719785Y-123637523D01*
X134145261Y-124181809D02*
X134780261Y-124393476D01*
X134145261Y-124605142D01*
D11*
X146951000Y-119507142D02*
X146879571Y-119364285D01*
X146879571Y-119150000D01*
X146951000Y-118935714D01*
X147093857Y-118792857D01*
X147236714Y-118721428D01*
X147522428Y-118650000D01*
X147736714Y-118650000D01*
X148022428Y-118721428D01*
X148165285Y-118792857D01*
X148308142Y-118935714D01*
X148379571Y-119150000D01*
X148379571Y-119292857D01*
X148308142Y-119507142D01*
X148236714Y-119578571D01*
X147736714Y-119578571D01*
X147736714Y-119292857D01*
X148379571Y-120221428D02*
X146879571Y-120221428D01*
X148379571Y-121078571D01*
X146879571Y-121078571D01*
X148379571Y-121792857D02*
X146879571Y-121792857D01*
X146879571Y-122150000D01*
X146951000Y-122364285D01*
X147093857Y-122507142D01*
X147236714Y-122578571D01*
X147522428Y-122650000D01*
X147736714Y-122650000D01*
X148022428Y-122578571D01*
X148165285Y-122507142D01*
X148308142Y-122364285D01*
X148379571Y-122150000D01*
X148379571Y-121792857D01*
X164127571Y-68231000D02*
X162627571Y-68231000D01*
X162627571Y-68802428D01*
X162699000Y-68945285D01*
X162770428Y-69016714D01*
X162913285Y-69088142D01*
X163127571Y-69088142D01*
X163270428Y-69016714D01*
X163341857Y-68945285D01*
X163413285Y-68802428D01*
X163413285Y-68231000D01*
X162627571Y-69588142D02*
X164127571Y-69945285D01*
X163056142Y-70231000D01*
X164127571Y-70516714D01*
X162627571Y-70873857D01*
X164127571Y-72302428D02*
X163413285Y-71802428D01*
X164127571Y-71445285D02*
X162627571Y-71445285D01*
X162627571Y-72016714D01*
X162699000Y-72159571D01*
X162770428Y-72231000D01*
X162913285Y-72302428D01*
X163127571Y-72302428D01*
X163270428Y-72231000D01*
X163341857Y-72159571D01*
X163413285Y-72016714D01*
X163413285Y-71445285D01*
D10*
X107720190Y-86423500D02*
X107659714Y-86453738D01*
X107569000Y-86453738D01*
X107478285Y-86423500D01*
X107417809Y-86363023D01*
X107387571Y-86302547D01*
X107357333Y-86181595D01*
X107357333Y-86090880D01*
X107387571Y-85969928D01*
X107417809Y-85909452D01*
X107478285Y-85848976D01*
X107569000Y-85818738D01*
X107629476Y-85818738D01*
X107720190Y-85848976D01*
X107750428Y-85879214D01*
X107750428Y-86090880D01*
X107629476Y-86090880D01*
X108022571Y-85818738D02*
X108022571Y-86453738D01*
X108385428Y-85818738D01*
X108385428Y-86453738D01*
X108687809Y-85818738D02*
X108687809Y-86453738D01*
X108839000Y-86453738D01*
X108929714Y-86423500D01*
X108990190Y-86363023D01*
X109020428Y-86302547D01*
X109050666Y-86181595D01*
X109050666Y-86090880D01*
X109020428Y-85969928D01*
X108990190Y-85909452D01*
X108929714Y-85848976D01*
X108839000Y-85818738D01*
X108687809Y-85818738D01*
X107260571Y-78567642D02*
X107744380Y-78567642D01*
X107502476Y-78325738D02*
X107502476Y-78809547D01*
X108349142Y-78960738D02*
X108046761Y-78960738D01*
X108016523Y-78658357D01*
X108046761Y-78688595D01*
X108107238Y-78718833D01*
X108258428Y-78718833D01*
X108318904Y-78688595D01*
X108349142Y-78658357D01*
X108379380Y-78597880D01*
X108379380Y-78446690D01*
X108349142Y-78386214D01*
X108318904Y-78355976D01*
X108258428Y-78325738D01*
X108107238Y-78325738D01*
X108046761Y-78355976D01*
X108016523Y-78386214D01*
X108560809Y-78960738D02*
X108772476Y-78325738D01*
X108984142Y-78960738D01*
X107804857Y-80799214D02*
X107774619Y-80768976D01*
X107683904Y-80738738D01*
X107623428Y-80738738D01*
X107532714Y-80768976D01*
X107472238Y-80829452D01*
X107442000Y-80889928D01*
X107411761Y-81010880D01*
X107411761Y-81101595D01*
X107442000Y-81222547D01*
X107472238Y-81283023D01*
X107532714Y-81343500D01*
X107623428Y-81373738D01*
X107683904Y-81373738D01*
X107774619Y-81343500D01*
X107804857Y-81313261D01*
X108046761Y-80920166D02*
X108349142Y-80920166D01*
X107986285Y-80738738D02*
X108197952Y-81373738D01*
X108409619Y-80738738D01*
X108621285Y-80738738D02*
X108621285Y-81373738D01*
X108984142Y-80738738D01*
X108984142Y-81373738D01*
X110072714Y-80738738D02*
X109770333Y-80738738D01*
X109770333Y-81373738D01*
X107856261Y-83339214D02*
X107826023Y-83308976D01*
X107735309Y-83278738D01*
X107674833Y-83278738D01*
X107584119Y-83308976D01*
X107523642Y-83369452D01*
X107493404Y-83429928D01*
X107463166Y-83550880D01*
X107463166Y-83641595D01*
X107493404Y-83762547D01*
X107523642Y-83823023D01*
X107584119Y-83883500D01*
X107674833Y-83913738D01*
X107735309Y-83913738D01*
X107826023Y-83883500D01*
X107856261Y-83853261D01*
X108098166Y-83460166D02*
X108400547Y-83460166D01*
X108037690Y-83278738D02*
X108249357Y-83913738D01*
X108461023Y-83278738D01*
X108672690Y-83278738D02*
X108672690Y-83913738D01*
X109035547Y-83278738D01*
X109035547Y-83913738D01*
X109821738Y-83278738D02*
X109821738Y-83913738D01*
X109821738Y-83611357D02*
X110184595Y-83611357D01*
X110184595Y-83278738D02*
X110184595Y-83913738D01*
X122080261Y-66520785D02*
X121445261Y-66520785D01*
X122080261Y-66883642D01*
X121445261Y-66883642D01*
X122080261Y-67548880D02*
X121777880Y-67337214D01*
X122080261Y-67186023D02*
X121445261Y-67186023D01*
X121445261Y-67427928D01*
X121475500Y-67488404D01*
X121505738Y-67518642D01*
X121566214Y-67548880D01*
X121656928Y-67548880D01*
X121717404Y-67518642D01*
X121747642Y-67488404D01*
X121777880Y-67427928D01*
X121777880Y-67186023D01*
X122050023Y-67790785D02*
X122080261Y-67881500D01*
X122080261Y-68032690D01*
X122050023Y-68093166D01*
X122019785Y-68123404D01*
X121959309Y-68153642D01*
X121898833Y-68153642D01*
X121838357Y-68123404D01*
X121808119Y-68093166D01*
X121777880Y-68032690D01*
X121747642Y-67911738D01*
X121717404Y-67851261D01*
X121687166Y-67821023D01*
X121626690Y-67790785D01*
X121566214Y-67790785D01*
X121505738Y-67821023D01*
X121475500Y-67851261D01*
X121445261Y-67911738D01*
X121445261Y-68062928D01*
X121475500Y-68153642D01*
X121445261Y-68335071D02*
X121445261Y-68697928D01*
X122080261Y-68516500D02*
X121445261Y-68516500D01*
X119383023Y-66218404D02*
X119413261Y-66309119D01*
X119413261Y-66460309D01*
X119383023Y-66520785D01*
X119352785Y-66551023D01*
X119292309Y-66581261D01*
X119231833Y-66581261D01*
X119171357Y-66551023D01*
X119141119Y-66520785D01*
X119110880Y-66460309D01*
X119080642Y-66339357D01*
X119050404Y-66278880D01*
X119020166Y-66248642D01*
X118959690Y-66218404D01*
X118899214Y-66218404D01*
X118838738Y-66248642D01*
X118808500Y-66278880D01*
X118778261Y-66339357D01*
X118778261Y-66490547D01*
X118808500Y-66581261D01*
X118778261Y-66792928D02*
X119413261Y-66944119D01*
X118959690Y-67065071D01*
X119413261Y-67186023D01*
X118778261Y-67337214D01*
X119413261Y-67579119D02*
X118778261Y-67579119D01*
X118778261Y-67730309D01*
X118808500Y-67821023D01*
X118868976Y-67881500D01*
X118929452Y-67911738D01*
X119050404Y-67941976D01*
X119141119Y-67941976D01*
X119262071Y-67911738D01*
X119322547Y-67881500D01*
X119383023Y-67821023D01*
X119413261Y-67730309D01*
X119413261Y-67579119D01*
X119413261Y-68214119D02*
X118778261Y-68214119D01*
X118778261Y-68637452D02*
X118778261Y-68758404D01*
X118808500Y-68818880D01*
X118868976Y-68879357D01*
X118989928Y-68909595D01*
X119201595Y-68909595D01*
X119322547Y-68879357D01*
X119383023Y-68818880D01*
X119413261Y-68758404D01*
X119413261Y-68637452D01*
X119383023Y-68576976D01*
X119322547Y-68516500D01*
X119201595Y-68486261D01*
X118989928Y-68486261D01*
X118868976Y-68516500D01*
X118808500Y-68576976D01*
X118778261Y-68637452D01*
X114303023Y-66254690D02*
X114333261Y-66345404D01*
X114333261Y-66496595D01*
X114303023Y-66557071D01*
X114272785Y-66587309D01*
X114212309Y-66617547D01*
X114151833Y-66617547D01*
X114091357Y-66587309D01*
X114061119Y-66557071D01*
X114030880Y-66496595D01*
X114000642Y-66375642D01*
X113970404Y-66315166D01*
X113940166Y-66284928D01*
X113879690Y-66254690D01*
X113819214Y-66254690D01*
X113758738Y-66284928D01*
X113728500Y-66315166D01*
X113698261Y-66375642D01*
X113698261Y-66526833D01*
X113728500Y-66617547D01*
X113698261Y-66829214D02*
X114333261Y-66980404D01*
X113879690Y-67101357D01*
X114333261Y-67222309D01*
X113698261Y-67373500D01*
X114272785Y-67978261D02*
X114303023Y-67948023D01*
X114333261Y-67857309D01*
X114333261Y-67796833D01*
X114303023Y-67706119D01*
X114242547Y-67645642D01*
X114182071Y-67615404D01*
X114061119Y-67585166D01*
X113970404Y-67585166D01*
X113849452Y-67615404D01*
X113788976Y-67645642D01*
X113728500Y-67706119D01*
X113698261Y-67796833D01*
X113698261Y-67857309D01*
X113728500Y-67948023D01*
X113758738Y-67978261D01*
X114333261Y-68552785D02*
X114333261Y-68250404D01*
X113698261Y-68250404D01*
X114333261Y-68764452D02*
X113698261Y-68764452D01*
X114333261Y-69127309D02*
X113970404Y-68855166D01*
X113698261Y-69127309D02*
X114061119Y-68764452D01*
X116268500Y-66699190D02*
X116238261Y-66638714D01*
X116238261Y-66548000D01*
X116268500Y-66457285D01*
X116328976Y-66396809D01*
X116389452Y-66366571D01*
X116510404Y-66336333D01*
X116601119Y-66336333D01*
X116722071Y-66366571D01*
X116782547Y-66396809D01*
X116843023Y-66457285D01*
X116873261Y-66548000D01*
X116873261Y-66608476D01*
X116843023Y-66699190D01*
X116812785Y-66729428D01*
X116601119Y-66729428D01*
X116601119Y-66608476D01*
X116873261Y-67001571D02*
X116238261Y-67001571D01*
X116873261Y-67364428D01*
X116238261Y-67364428D01*
X116873261Y-67666809D02*
X116238261Y-67666809D01*
X116238261Y-67818000D01*
X116268500Y-67908714D01*
X116328976Y-67969190D01*
X116389452Y-67999428D01*
X116510404Y-68029666D01*
X116601119Y-68029666D01*
X116722071Y-67999428D01*
X116782547Y-67969190D01*
X116843023Y-67908714D01*
X116873261Y-67818000D01*
X116873261Y-67666809D01*
X111678357Y-66167000D02*
X111678357Y-66650809D01*
X111920261Y-66408904D02*
X111436452Y-66408904D01*
X111285261Y-66892714D02*
X111285261Y-67285809D01*
X111527166Y-67074142D01*
X111527166Y-67164857D01*
X111557404Y-67225333D01*
X111587642Y-67255571D01*
X111648119Y-67285809D01*
X111799309Y-67285809D01*
X111859785Y-67255571D01*
X111890023Y-67225333D01*
X111920261Y-67164857D01*
X111920261Y-66983428D01*
X111890023Y-66922952D01*
X111859785Y-66892714D01*
X111859785Y-67557952D02*
X111890023Y-67588190D01*
X111920261Y-67557952D01*
X111890023Y-67527714D01*
X111859785Y-67557952D01*
X111920261Y-67557952D01*
X111285261Y-67799857D02*
X111285261Y-68192952D01*
X111527166Y-67981285D01*
X111527166Y-68072000D01*
X111557404Y-68132476D01*
X111587642Y-68162714D01*
X111648119Y-68192952D01*
X111799309Y-68192952D01*
X111859785Y-68162714D01*
X111890023Y-68132476D01*
X111920261Y-68072000D01*
X111920261Y-67890571D01*
X111890023Y-67830095D01*
X111859785Y-67799857D01*
X111285261Y-68374380D02*
X111920261Y-68586047D01*
X111285261Y-68797714D01*
X107133571Y-106634642D02*
X107617380Y-106634642D01*
X107375476Y-106392738D02*
X107375476Y-106876547D01*
X108222142Y-107027738D02*
X107919761Y-107027738D01*
X107889523Y-106725357D01*
X107919761Y-106755595D01*
X107980238Y-106785833D01*
X108131428Y-106785833D01*
X108191904Y-106755595D01*
X108222142Y-106725357D01*
X108252380Y-106664880D01*
X108252380Y-106513690D01*
X108222142Y-106453214D01*
X108191904Y-106422976D01*
X108131428Y-106392738D01*
X107980238Y-106392738D01*
X107919761Y-106422976D01*
X107889523Y-106453214D01*
X108433809Y-107027738D02*
X108645476Y-106392738D01*
X108857142Y-107027738D01*
X107544809Y-104161166D02*
X107847190Y-104161166D01*
X107484333Y-103979738D02*
X107696000Y-104614738D01*
X107907666Y-103979738D01*
X107741357Y-101772357D02*
X107832071Y-101742119D01*
X107862309Y-101711880D01*
X107892547Y-101651404D01*
X107892547Y-101560690D01*
X107862309Y-101500214D01*
X107832071Y-101469976D01*
X107771595Y-101439738D01*
X107529690Y-101439738D01*
X107529690Y-102074738D01*
X107741357Y-102074738D01*
X107801833Y-102044500D01*
X107832071Y-102014261D01*
X107862309Y-101953785D01*
X107862309Y-101893309D01*
X107832071Y-101832833D01*
X107801833Y-101802595D01*
X107741357Y-101772357D01*
X107529690Y-101772357D01*
X107892547Y-98833214D02*
X107862309Y-98802976D01*
X107771595Y-98772738D01*
X107711119Y-98772738D01*
X107620404Y-98802976D01*
X107559928Y-98863452D01*
X107529690Y-98923928D01*
X107499452Y-99044880D01*
X107499452Y-99135595D01*
X107529690Y-99256547D01*
X107559928Y-99317023D01*
X107620404Y-99377500D01*
X107711119Y-99407738D01*
X107771595Y-99407738D01*
X107862309Y-99377500D01*
X107892547Y-99347261D01*
X107847190Y-96837500D02*
X107786714Y-96867738D01*
X107696000Y-96867738D01*
X107605285Y-96837500D01*
X107544809Y-96777023D01*
X107514571Y-96716547D01*
X107484333Y-96595595D01*
X107484333Y-96504880D01*
X107514571Y-96383928D01*
X107544809Y-96323452D01*
X107605285Y-96262976D01*
X107696000Y-96232738D01*
X107756476Y-96232738D01*
X107847190Y-96262976D01*
X107877428Y-96293214D01*
X107877428Y-96504880D01*
X107756476Y-96504880D01*
X108149571Y-96232738D02*
X108149571Y-96867738D01*
X108512428Y-96232738D01*
X108512428Y-96867738D01*
X108814809Y-96232738D02*
X108814809Y-96867738D01*
X108966000Y-96867738D01*
X109056714Y-96837500D01*
X109117190Y-96777023D01*
X109147428Y-96716547D01*
X109177666Y-96595595D01*
X109177666Y-96504880D01*
X109147428Y-96383928D01*
X109117190Y-96323452D01*
X109056714Y-96262976D01*
X108966000Y-96232738D01*
X108814809Y-96232738D01*
D11*
X167834571Y-106926142D02*
X169334571Y-107283285D01*
X168263142Y-107569000D01*
X169334571Y-107854714D01*
X167834571Y-108211857D01*
X167834571Y-92083000D02*
X169334571Y-92583000D01*
X167834571Y-93083000D01*
X167834571Y-76787428D02*
X169048857Y-76787428D01*
X169191714Y-76858857D01*
X169263142Y-76930285D01*
X169334571Y-77073142D01*
X169334571Y-77358857D01*
X169263142Y-77501714D01*
X169191714Y-77573142D01*
X169048857Y-77644571D01*
X167834571Y-77644571D01*
D12*
G04 #@! TO.C,TP13*
X145485000Y-103829000D02*
X145485000Y-106229000D01*
X147885000Y-103829000D02*
X145485000Y-103829000D01*
X147885000Y-106229000D02*
X147885000Y-103829000D01*
X145485000Y-106229000D02*
X147885000Y-106229000D01*
G04 #@! TO.C,TP6*
X146882000Y-72460000D02*
X146882000Y-74860000D01*
X149282000Y-72460000D02*
X146882000Y-72460000D01*
X149282000Y-74860000D02*
X149282000Y-72460000D01*
X146882000Y-74860000D02*
X149282000Y-74860000D01*
G04 #@! TO.C,TP7*
X145358000Y-86049000D02*
X145358000Y-88449000D01*
X147758000Y-86049000D02*
X145358000Y-86049000D01*
X147758000Y-88449000D02*
X147758000Y-86049000D01*
X145358000Y-88449000D02*
X147758000Y-88449000D01*
G04 #@! TO.C,TP9*
X145231000Y-99003000D02*
X145231000Y-101403000D01*
X147631000Y-99003000D02*
X145231000Y-99003000D01*
X147631000Y-101403000D02*
X147631000Y-99003000D01*
X145231000Y-101403000D02*
X147631000Y-101403000D01*
D13*
G04 #@! TO.C,P5*
X166533000Y-78657000D02*
X166533000Y-84157000D01*
X171033000Y-78657000D02*
X166533000Y-78657000D01*
X171033000Y-84157000D02*
X171033000Y-78657000D01*
X166533000Y-84157000D02*
X171033000Y-84157000D01*
G04 #@! TO.C,P9*
X145103400Y-128361000D02*
X150603400Y-128361000D01*
X145103400Y-123861000D02*
X145103400Y-128361000D01*
X150603400Y-123861000D02*
X145103400Y-123861000D01*
X150603400Y-128361000D02*
X150603400Y-123861000D01*
G04 #@! TO.C,P8*
X160495800Y-67197800D02*
X165995800Y-67197800D01*
X160495800Y-62697800D02*
X160495800Y-67197800D01*
X165995800Y-62697800D02*
X160495800Y-62697800D01*
X165995800Y-67197800D02*
X165995800Y-62697800D01*
G04 #@! TO.C,P7*
X166609200Y-108959200D02*
X166609200Y-114459200D01*
X171109200Y-108959200D02*
X166609200Y-108959200D01*
X171109200Y-114459200D02*
X171109200Y-108959200D01*
X166609200Y-114459200D02*
X171109200Y-114459200D01*
G04 #@! TO.C,P6*
X166609200Y-93897000D02*
X166609200Y-99397000D01*
X171109200Y-93897000D02*
X166609200Y-93897000D01*
X171109200Y-99397000D02*
X171109200Y-93897000D01*
X166609200Y-99397000D02*
X171109200Y-99397000D01*
D12*
G04 #@! TO.C,C38*
X122108179Y-94667800D02*
X121782621Y-94667800D01*
X122108179Y-93647800D02*
X121782621Y-93647800D01*
G04 #@! TO.C,C36*
X117134521Y-94613000D02*
X117460079Y-94613000D01*
X117134521Y-95633000D02*
X117460079Y-95633000D01*
G04 #@! TO.C,R26*
X133792179Y-118594600D02*
X133466621Y-118594600D01*
X133792179Y-117574600D02*
X133466621Y-117574600D01*
G04 #@! TO.C,R25*
X133792179Y-117070600D02*
X133466621Y-117070600D01*
X133792179Y-116050600D02*
X133466621Y-116050600D01*
G04 #@! TO.C,R19*
X140065979Y-110339600D02*
X139740421Y-110339600D01*
X140065979Y-109319600D02*
X139740421Y-109319600D01*
G04 #@! TO.C,R20*
X140065979Y-111914400D02*
X139740421Y-111914400D01*
X140065979Y-110894400D02*
X139740421Y-110894400D01*
G04 #@! TO.C,R21*
X133792179Y-112447800D02*
X133466621Y-112447800D01*
X133792179Y-111427800D02*
X133466621Y-111427800D01*
G04 #@! TO.C,R22*
X133792179Y-110923800D02*
X133466621Y-110923800D01*
X133792179Y-109903800D02*
X133466621Y-109903800D01*
G04 #@! TO.C,R23*
X133782098Y-115518722D02*
X133456540Y-115518722D01*
X133782098Y-114498722D02*
X133456540Y-114498722D01*
G04 #@! TO.C,R24*
X133782098Y-113994722D02*
X133456540Y-113994722D01*
X133782098Y-112974722D02*
X133456540Y-112974722D01*
G04 #@! TO.C,C5*
X126820200Y-91932979D02*
X126820200Y-91607421D01*
X127840200Y-91932979D02*
X127840200Y-91607421D01*
G04 #@! TO.C,C9*
X129880579Y-97207800D02*
X129555021Y-97207800D01*
X129880579Y-96187800D02*
X129555021Y-96187800D01*
G04 #@! TO.C,R10*
X129829779Y-94871000D02*
X129504221Y-94871000D01*
X129829779Y-93851000D02*
X129504221Y-93851000D01*
G04 #@! TO.C,TP13*
D13*
X148423095Y-106479380D02*
X147851666Y-106479380D01*
X148137380Y-107479380D02*
X148137380Y-106479380D01*
X147518333Y-107479380D02*
X147518333Y-106479380D01*
X147137380Y-106479380D01*
X147042142Y-106527000D01*
X146994523Y-106574619D01*
X146946904Y-106669857D01*
X146946904Y-106812714D01*
X146994523Y-106907952D01*
X147042142Y-106955571D01*
X147137380Y-107003190D01*
X147518333Y-107003190D01*
X145994523Y-107479380D02*
X146565952Y-107479380D01*
X146280238Y-107479380D02*
X146280238Y-106479380D01*
X146375476Y-106622238D01*
X146470714Y-106717476D01*
X146565952Y-106765095D01*
X145661190Y-106479380D02*
X145042142Y-106479380D01*
X145375476Y-106860333D01*
X145232619Y-106860333D01*
X145137380Y-106907952D01*
X145089761Y-106955571D01*
X145042142Y-107050809D01*
X145042142Y-107288904D01*
X145089761Y-107384142D01*
X145137380Y-107431761D01*
X145232619Y-107479380D01*
X145518333Y-107479380D01*
X145613571Y-107431761D01*
X145661190Y-107384142D01*
G04 #@! TO.C,TP6*
X149343904Y-75110380D02*
X148772476Y-75110380D01*
X149058190Y-76110380D02*
X149058190Y-75110380D01*
X148439142Y-76110380D02*
X148439142Y-75110380D01*
X148058190Y-75110380D01*
X147962952Y-75158000D01*
X147915333Y-75205619D01*
X147867714Y-75300857D01*
X147867714Y-75443714D01*
X147915333Y-75538952D01*
X147962952Y-75586571D01*
X148058190Y-75634190D01*
X148439142Y-75634190D01*
X147010571Y-75110380D02*
X147201047Y-75110380D01*
X147296285Y-75158000D01*
X147343904Y-75205619D01*
X147439142Y-75348476D01*
X147486761Y-75538952D01*
X147486761Y-75919904D01*
X147439142Y-76015142D01*
X147391523Y-76062761D01*
X147296285Y-76110380D01*
X147105809Y-76110380D01*
X147010571Y-76062761D01*
X146962952Y-76015142D01*
X146915333Y-75919904D01*
X146915333Y-75681809D01*
X146962952Y-75586571D01*
X147010571Y-75538952D01*
X147105809Y-75491333D01*
X147296285Y-75491333D01*
X147391523Y-75538952D01*
X147439142Y-75586571D01*
X147486761Y-75681809D01*
G04 #@! TO.C,TP7*
X147819904Y-88699380D02*
X147248476Y-88699380D01*
X147534190Y-89699380D02*
X147534190Y-88699380D01*
X146915142Y-89699380D02*
X146915142Y-88699380D01*
X146534190Y-88699380D01*
X146438952Y-88747000D01*
X146391333Y-88794619D01*
X146343714Y-88889857D01*
X146343714Y-89032714D01*
X146391333Y-89127952D01*
X146438952Y-89175571D01*
X146534190Y-89223190D01*
X146915142Y-89223190D01*
X146010380Y-88699380D02*
X145343714Y-88699380D01*
X145772285Y-89699380D01*
G04 #@! TO.C,TP9*
X147692904Y-97623380D02*
X147121476Y-97623380D01*
X147407190Y-98623380D02*
X147407190Y-97623380D01*
X146788142Y-98623380D02*
X146788142Y-97623380D01*
X146407190Y-97623380D01*
X146311952Y-97671000D01*
X146264333Y-97718619D01*
X146216714Y-97813857D01*
X146216714Y-97956714D01*
X146264333Y-98051952D01*
X146311952Y-98099571D01*
X146407190Y-98147190D01*
X146788142Y-98147190D01*
X145740523Y-98623380D02*
X145550047Y-98623380D01*
X145454809Y-98575761D01*
X145407190Y-98528142D01*
X145311952Y-98385285D01*
X145264333Y-98194809D01*
X145264333Y-97813857D01*
X145311952Y-97718619D01*
X145359571Y-97671000D01*
X145454809Y-97623380D01*
X145645285Y-97623380D01*
X145740523Y-97671000D01*
X145788142Y-97718619D01*
X145835761Y-97813857D01*
X145835761Y-98051952D01*
X145788142Y-98147190D01*
X145740523Y-98194809D01*
X145645285Y-98242428D01*
X145454809Y-98242428D01*
X145359571Y-98194809D01*
X145311952Y-98147190D01*
X145264333Y-98051952D01*
G04 #@! TO.C,P5*
X169521095Y-86050380D02*
X169521095Y-85050380D01*
X169140142Y-85050380D01*
X169044904Y-85098000D01*
X168997285Y-85145619D01*
X168949666Y-85240857D01*
X168949666Y-85383714D01*
X168997285Y-85478952D01*
X169044904Y-85526571D01*
X169140142Y-85574190D01*
X169521095Y-85574190D01*
X168044904Y-85050380D02*
X168521095Y-85050380D01*
X168568714Y-85526571D01*
X168521095Y-85478952D01*
X168425857Y-85431333D01*
X168187761Y-85431333D01*
X168092523Y-85478952D01*
X168044904Y-85526571D01*
X167997285Y-85621809D01*
X167997285Y-85859904D01*
X168044904Y-85955142D01*
X168092523Y-86002761D01*
X168187761Y-86050380D01*
X168425857Y-86050380D01*
X168521095Y-86002761D01*
X168568714Y-85955142D01*
G04 #@! TO.C,P9*
X143555780Y-125372904D02*
X142555780Y-125372904D01*
X142555780Y-125753857D01*
X142603400Y-125849095D01*
X142651019Y-125896714D01*
X142746257Y-125944333D01*
X142889114Y-125944333D01*
X142984352Y-125896714D01*
X143031971Y-125849095D01*
X143079590Y-125753857D01*
X143079590Y-125372904D01*
X143555780Y-126420523D02*
X143555780Y-126611000D01*
X143508161Y-126706238D01*
X143460542Y-126753857D01*
X143317685Y-126849095D01*
X143127209Y-126896714D01*
X142746257Y-126896714D01*
X142651019Y-126849095D01*
X142603400Y-126801476D01*
X142555780Y-126706238D01*
X142555780Y-126515761D01*
X142603400Y-126420523D01*
X142651019Y-126372904D01*
X142746257Y-126325285D01*
X142984352Y-126325285D01*
X143079590Y-126372904D01*
X143127209Y-126420523D01*
X143174828Y-126515761D01*
X143174828Y-126706238D01*
X143127209Y-126801476D01*
X143079590Y-126849095D01*
X142984352Y-126896714D01*
G04 #@! TO.C,P8*
X167584380Y-64209704D02*
X166584380Y-64209704D01*
X166584380Y-64590657D01*
X166632000Y-64685895D01*
X166679619Y-64733514D01*
X166774857Y-64781133D01*
X166917714Y-64781133D01*
X167012952Y-64733514D01*
X167060571Y-64685895D01*
X167108190Y-64590657D01*
X167108190Y-64209704D01*
X167012952Y-65352561D02*
X166965333Y-65257323D01*
X166917714Y-65209704D01*
X166822476Y-65162085D01*
X166774857Y-65162085D01*
X166679619Y-65209704D01*
X166632000Y-65257323D01*
X166584380Y-65352561D01*
X166584380Y-65543038D01*
X166632000Y-65638276D01*
X166679619Y-65685895D01*
X166774857Y-65733514D01*
X166822476Y-65733514D01*
X166917714Y-65685895D01*
X166965333Y-65638276D01*
X167012952Y-65543038D01*
X167012952Y-65352561D01*
X167060571Y-65257323D01*
X167108190Y-65209704D01*
X167203428Y-65162085D01*
X167393904Y-65162085D01*
X167489142Y-65209704D01*
X167536761Y-65257323D01*
X167584380Y-65352561D01*
X167584380Y-65543038D01*
X167536761Y-65638276D01*
X167489142Y-65685895D01*
X167393904Y-65733514D01*
X167203428Y-65733514D01*
X167108190Y-65685895D01*
X167060571Y-65638276D01*
X167012952Y-65543038D01*
G04 #@! TO.C,P7*
X169597295Y-116530380D02*
X169597295Y-115530380D01*
X169216342Y-115530380D01*
X169121104Y-115578000D01*
X169073485Y-115625619D01*
X169025866Y-115720857D01*
X169025866Y-115863714D01*
X169073485Y-115958952D01*
X169121104Y-116006571D01*
X169216342Y-116054190D01*
X169597295Y-116054190D01*
X168692533Y-115530380D02*
X168025866Y-115530380D01*
X168454438Y-116530380D01*
G04 #@! TO.C,P6*
X169648095Y-100909380D02*
X169648095Y-99909380D01*
X169267142Y-99909380D01*
X169171904Y-99957000D01*
X169124285Y-100004619D01*
X169076666Y-100099857D01*
X169076666Y-100242714D01*
X169124285Y-100337952D01*
X169171904Y-100385571D01*
X169267142Y-100433190D01*
X169648095Y-100433190D01*
X168219523Y-99909380D02*
X168410000Y-99909380D01*
X168505238Y-99957000D01*
X168552857Y-100004619D01*
X168648095Y-100147476D01*
X168695714Y-100337952D01*
X168695714Y-100718904D01*
X168648095Y-100814142D01*
X168600476Y-100861761D01*
X168505238Y-100909380D01*
X168314761Y-100909380D01*
X168219523Y-100861761D01*
X168171904Y-100814142D01*
X168124285Y-100718904D01*
X168124285Y-100480809D01*
X168171904Y-100385571D01*
X168219523Y-100337952D01*
X168314761Y-100290333D01*
X168505238Y-100290333D01*
X168600476Y-100337952D01*
X168648095Y-100385571D01*
X168695714Y-100480809D01*
G04 #@! TO.C,C38*
X125610857Y-94591142D02*
X125658476Y-94638761D01*
X125801333Y-94686380D01*
X125896571Y-94686380D01*
X126039428Y-94638761D01*
X126134666Y-94543523D01*
X126182285Y-94448285D01*
X126229904Y-94257809D01*
X126229904Y-94114952D01*
X126182285Y-93924476D01*
X126134666Y-93829238D01*
X126039428Y-93734000D01*
X125896571Y-93686380D01*
X125801333Y-93686380D01*
X125658476Y-93734000D01*
X125610857Y-93781619D01*
X125277523Y-93686380D02*
X124658476Y-93686380D01*
X124991809Y-94067333D01*
X124848952Y-94067333D01*
X124753714Y-94114952D01*
X124706095Y-94162571D01*
X124658476Y-94257809D01*
X124658476Y-94495904D01*
X124706095Y-94591142D01*
X124753714Y-94638761D01*
X124848952Y-94686380D01*
X125134666Y-94686380D01*
X125229904Y-94638761D01*
X125277523Y-94591142D01*
X124087047Y-94114952D02*
X124182285Y-94067333D01*
X124229904Y-94019714D01*
X124277523Y-93924476D01*
X124277523Y-93876857D01*
X124229904Y-93781619D01*
X124182285Y-93734000D01*
X124087047Y-93686380D01*
X123896571Y-93686380D01*
X123801333Y-93734000D01*
X123753714Y-93781619D01*
X123706095Y-93876857D01*
X123706095Y-93924476D01*
X123753714Y-94019714D01*
X123801333Y-94067333D01*
X123896571Y-94114952D01*
X124087047Y-94114952D01*
X124182285Y-94162571D01*
X124229904Y-94210190D01*
X124277523Y-94305428D01*
X124277523Y-94495904D01*
X124229904Y-94591142D01*
X124182285Y-94638761D01*
X124087047Y-94686380D01*
X123896571Y-94686380D01*
X123801333Y-94638761D01*
X123753714Y-94591142D01*
X123706095Y-94495904D01*
X123706095Y-94305428D01*
X123753714Y-94210190D01*
X123801333Y-94162571D01*
X123896571Y-94114952D01*
G04 #@! TO.C,C36*
X114942857Y-95480142D02*
X114990476Y-95527761D01*
X115133333Y-95575380D01*
X115228571Y-95575380D01*
X115371428Y-95527761D01*
X115466666Y-95432523D01*
X115514285Y-95337285D01*
X115561904Y-95146809D01*
X115561904Y-95003952D01*
X115514285Y-94813476D01*
X115466666Y-94718238D01*
X115371428Y-94623000D01*
X115228571Y-94575380D01*
X115133333Y-94575380D01*
X114990476Y-94623000D01*
X114942857Y-94670619D01*
X114609523Y-94575380D02*
X113990476Y-94575380D01*
X114323809Y-94956333D01*
X114180952Y-94956333D01*
X114085714Y-95003952D01*
X114038095Y-95051571D01*
X113990476Y-95146809D01*
X113990476Y-95384904D01*
X114038095Y-95480142D01*
X114085714Y-95527761D01*
X114180952Y-95575380D01*
X114466666Y-95575380D01*
X114561904Y-95527761D01*
X114609523Y-95480142D01*
X113133333Y-94575380D02*
X113323809Y-94575380D01*
X113419047Y-94623000D01*
X113466666Y-94670619D01*
X113561904Y-94813476D01*
X113609523Y-95003952D01*
X113609523Y-95384904D01*
X113561904Y-95480142D01*
X113514285Y-95527761D01*
X113419047Y-95575380D01*
X113228571Y-95575380D01*
X113133333Y-95527761D01*
X113085714Y-95480142D01*
X113038095Y-95384904D01*
X113038095Y-95146809D01*
X113085714Y-95051571D01*
X113133333Y-95003952D01*
X113228571Y-94956333D01*
X113419047Y-94956333D01*
X113514285Y-95003952D01*
X113561904Y-95051571D01*
X113609523Y-95146809D01*
G04 #@! TO.C,R26*
X131198857Y-118511580D02*
X131532190Y-118035390D01*
X131770285Y-118511580D02*
X131770285Y-117511580D01*
X131389333Y-117511580D01*
X131294095Y-117559200D01*
X131246476Y-117606819D01*
X131198857Y-117702057D01*
X131198857Y-117844914D01*
X131246476Y-117940152D01*
X131294095Y-117987771D01*
X131389333Y-118035390D01*
X131770285Y-118035390D01*
X130817904Y-117606819D02*
X130770285Y-117559200D01*
X130675047Y-117511580D01*
X130436952Y-117511580D01*
X130341714Y-117559200D01*
X130294095Y-117606819D01*
X130246476Y-117702057D01*
X130246476Y-117797295D01*
X130294095Y-117940152D01*
X130865523Y-118511580D01*
X130246476Y-118511580D01*
X129389333Y-117511580D02*
X129579809Y-117511580D01*
X129675047Y-117559200D01*
X129722666Y-117606819D01*
X129817904Y-117749676D01*
X129865523Y-117940152D01*
X129865523Y-118321104D01*
X129817904Y-118416342D01*
X129770285Y-118463961D01*
X129675047Y-118511580D01*
X129484571Y-118511580D01*
X129389333Y-118463961D01*
X129341714Y-118416342D01*
X129294095Y-118321104D01*
X129294095Y-118083009D01*
X129341714Y-117987771D01*
X129389333Y-117940152D01*
X129484571Y-117892533D01*
X129675047Y-117892533D01*
X129770285Y-117940152D01*
X129817904Y-117987771D01*
X129865523Y-118083009D01*
G04 #@! TO.C,R25*
X131198857Y-116962180D02*
X131532190Y-116485990D01*
X131770285Y-116962180D02*
X131770285Y-115962180D01*
X131389333Y-115962180D01*
X131294095Y-116009800D01*
X131246476Y-116057419D01*
X131198857Y-116152657D01*
X131198857Y-116295514D01*
X131246476Y-116390752D01*
X131294095Y-116438371D01*
X131389333Y-116485990D01*
X131770285Y-116485990D01*
X130817904Y-116057419D02*
X130770285Y-116009800D01*
X130675047Y-115962180D01*
X130436952Y-115962180D01*
X130341714Y-116009800D01*
X130294095Y-116057419D01*
X130246476Y-116152657D01*
X130246476Y-116247895D01*
X130294095Y-116390752D01*
X130865523Y-116962180D01*
X130246476Y-116962180D01*
X129341714Y-115962180D02*
X129817904Y-115962180D01*
X129865523Y-116438371D01*
X129817904Y-116390752D01*
X129722666Y-116343133D01*
X129484571Y-116343133D01*
X129389333Y-116390752D01*
X129341714Y-116438371D01*
X129294095Y-116533609D01*
X129294095Y-116771704D01*
X129341714Y-116866942D01*
X129389333Y-116914561D01*
X129484571Y-116962180D01*
X129722666Y-116962180D01*
X129817904Y-116914561D01*
X129865523Y-116866942D01*
G04 #@! TO.C,R19*
X143568657Y-110256580D02*
X143901990Y-109780390D01*
X144140085Y-110256580D02*
X144140085Y-109256580D01*
X143759133Y-109256580D01*
X143663895Y-109304200D01*
X143616276Y-109351819D01*
X143568657Y-109447057D01*
X143568657Y-109589914D01*
X143616276Y-109685152D01*
X143663895Y-109732771D01*
X143759133Y-109780390D01*
X144140085Y-109780390D01*
X142616276Y-110256580D02*
X143187704Y-110256580D01*
X142901990Y-110256580D02*
X142901990Y-109256580D01*
X142997228Y-109399438D01*
X143092466Y-109494676D01*
X143187704Y-109542295D01*
X142140085Y-110256580D02*
X141949609Y-110256580D01*
X141854371Y-110208961D01*
X141806752Y-110161342D01*
X141711514Y-110018485D01*
X141663895Y-109828009D01*
X141663895Y-109447057D01*
X141711514Y-109351819D01*
X141759133Y-109304200D01*
X141854371Y-109256580D01*
X142044847Y-109256580D01*
X142140085Y-109304200D01*
X142187704Y-109351819D01*
X142235323Y-109447057D01*
X142235323Y-109685152D01*
X142187704Y-109780390D01*
X142140085Y-109828009D01*
X142044847Y-109875628D01*
X141854371Y-109875628D01*
X141759133Y-109828009D01*
X141711514Y-109780390D01*
X141663895Y-109685152D01*
G04 #@! TO.C,R20*
X143568657Y-111856780D02*
X143901990Y-111380590D01*
X144140085Y-111856780D02*
X144140085Y-110856780D01*
X143759133Y-110856780D01*
X143663895Y-110904400D01*
X143616276Y-110952019D01*
X143568657Y-111047257D01*
X143568657Y-111190114D01*
X143616276Y-111285352D01*
X143663895Y-111332971D01*
X143759133Y-111380590D01*
X144140085Y-111380590D01*
X143187704Y-110952019D02*
X143140085Y-110904400D01*
X143044847Y-110856780D01*
X142806752Y-110856780D01*
X142711514Y-110904400D01*
X142663895Y-110952019D01*
X142616276Y-111047257D01*
X142616276Y-111142495D01*
X142663895Y-111285352D01*
X143235323Y-111856780D01*
X142616276Y-111856780D01*
X141997228Y-110856780D02*
X141901990Y-110856780D01*
X141806752Y-110904400D01*
X141759133Y-110952019D01*
X141711514Y-111047257D01*
X141663895Y-111237733D01*
X141663895Y-111475828D01*
X141711514Y-111666304D01*
X141759133Y-111761542D01*
X141806752Y-111809161D01*
X141901990Y-111856780D01*
X141997228Y-111856780D01*
X142092466Y-111809161D01*
X142140085Y-111761542D01*
X142187704Y-111666304D01*
X142235323Y-111475828D01*
X142235323Y-111237733D01*
X142187704Y-111047257D01*
X142140085Y-110952019D01*
X142092466Y-110904400D01*
X141997228Y-110856780D01*
G04 #@! TO.C,R21*
X131198857Y-112339380D02*
X131532190Y-111863190D01*
X131770285Y-112339380D02*
X131770285Y-111339380D01*
X131389333Y-111339380D01*
X131294095Y-111387000D01*
X131246476Y-111434619D01*
X131198857Y-111529857D01*
X131198857Y-111672714D01*
X131246476Y-111767952D01*
X131294095Y-111815571D01*
X131389333Y-111863190D01*
X131770285Y-111863190D01*
X130817904Y-111434619D02*
X130770285Y-111387000D01*
X130675047Y-111339380D01*
X130436952Y-111339380D01*
X130341714Y-111387000D01*
X130294095Y-111434619D01*
X130246476Y-111529857D01*
X130246476Y-111625095D01*
X130294095Y-111767952D01*
X130865523Y-112339380D01*
X130246476Y-112339380D01*
X129294095Y-112339380D02*
X129865523Y-112339380D01*
X129579809Y-112339380D02*
X129579809Y-111339380D01*
X129675047Y-111482238D01*
X129770285Y-111577476D01*
X129865523Y-111625095D01*
G04 #@! TO.C,R22*
X131198857Y-110815380D02*
X131532190Y-110339190D01*
X131770285Y-110815380D02*
X131770285Y-109815380D01*
X131389333Y-109815380D01*
X131294095Y-109863000D01*
X131246476Y-109910619D01*
X131198857Y-110005857D01*
X131198857Y-110148714D01*
X131246476Y-110243952D01*
X131294095Y-110291571D01*
X131389333Y-110339190D01*
X131770285Y-110339190D01*
X130817904Y-109910619D02*
X130770285Y-109863000D01*
X130675047Y-109815380D01*
X130436952Y-109815380D01*
X130341714Y-109863000D01*
X130294095Y-109910619D01*
X130246476Y-110005857D01*
X130246476Y-110101095D01*
X130294095Y-110243952D01*
X130865523Y-110815380D01*
X130246476Y-110815380D01*
X129865523Y-109910619D02*
X129817904Y-109863000D01*
X129722666Y-109815380D01*
X129484571Y-109815380D01*
X129389333Y-109863000D01*
X129341714Y-109910619D01*
X129294095Y-110005857D01*
X129294095Y-110101095D01*
X129341714Y-110243952D01*
X129913142Y-110815380D01*
X129294095Y-110815380D01*
G04 #@! TO.C,R23*
X131198857Y-115387380D02*
X131532190Y-114911190D01*
X131770285Y-115387380D02*
X131770285Y-114387380D01*
X131389333Y-114387380D01*
X131294095Y-114435000D01*
X131246476Y-114482619D01*
X131198857Y-114577857D01*
X131198857Y-114720714D01*
X131246476Y-114815952D01*
X131294095Y-114863571D01*
X131389333Y-114911190D01*
X131770285Y-114911190D01*
X130817904Y-114482619D02*
X130770285Y-114435000D01*
X130675047Y-114387380D01*
X130436952Y-114387380D01*
X130341714Y-114435000D01*
X130294095Y-114482619D01*
X130246476Y-114577857D01*
X130246476Y-114673095D01*
X130294095Y-114815952D01*
X130865523Y-115387380D01*
X130246476Y-115387380D01*
X129913142Y-114387380D02*
X129294095Y-114387380D01*
X129627428Y-114768333D01*
X129484571Y-114768333D01*
X129389333Y-114815952D01*
X129341714Y-114863571D01*
X129294095Y-114958809D01*
X129294095Y-115196904D01*
X129341714Y-115292142D01*
X129389333Y-115339761D01*
X129484571Y-115387380D01*
X129770285Y-115387380D01*
X129865523Y-115339761D01*
X129913142Y-115292142D01*
G04 #@! TO.C,R24*
X131198857Y-113886302D02*
X131532190Y-113410112D01*
X131770285Y-113886302D02*
X131770285Y-112886302D01*
X131389333Y-112886302D01*
X131294095Y-112933922D01*
X131246476Y-112981541D01*
X131198857Y-113076779D01*
X131198857Y-113219636D01*
X131246476Y-113314874D01*
X131294095Y-113362493D01*
X131389333Y-113410112D01*
X131770285Y-113410112D01*
X130817904Y-112981541D02*
X130770285Y-112933922D01*
X130675047Y-112886302D01*
X130436952Y-112886302D01*
X130341714Y-112933922D01*
X130294095Y-112981541D01*
X130246476Y-113076779D01*
X130246476Y-113172017D01*
X130294095Y-113314874D01*
X130865523Y-113886302D01*
X130246476Y-113886302D01*
X129389333Y-113219636D02*
X129389333Y-113886302D01*
X129627428Y-112838683D02*
X129865523Y-113552969D01*
X129246476Y-113552969D01*
G04 #@! TO.C,C5*
X127687342Y-89012733D02*
X127734961Y-88965114D01*
X127782580Y-88822257D01*
X127782580Y-88727019D01*
X127734961Y-88584161D01*
X127639723Y-88488923D01*
X127544485Y-88441304D01*
X127354009Y-88393685D01*
X127211152Y-88393685D01*
X127020676Y-88441304D01*
X126925438Y-88488923D01*
X126830200Y-88584161D01*
X126782580Y-88727019D01*
X126782580Y-88822257D01*
X126830200Y-88965114D01*
X126877819Y-89012733D01*
X126782580Y-89917495D02*
X126782580Y-89441304D01*
X127258771Y-89393685D01*
X127211152Y-89441304D01*
X127163533Y-89536542D01*
X127163533Y-89774638D01*
X127211152Y-89869876D01*
X127258771Y-89917495D01*
X127354009Y-89965114D01*
X127592104Y-89965114D01*
X127687342Y-89917495D01*
X127734961Y-89869876D01*
X127782580Y-89774638D01*
X127782580Y-89536542D01*
X127734961Y-89441304D01*
X127687342Y-89393685D01*
G04 #@! TO.C,C9*
X132500666Y-97004142D02*
X132548285Y-97051761D01*
X132691142Y-97099380D01*
X132786380Y-97099380D01*
X132929238Y-97051761D01*
X133024476Y-96956523D01*
X133072095Y-96861285D01*
X133119714Y-96670809D01*
X133119714Y-96527952D01*
X133072095Y-96337476D01*
X133024476Y-96242238D01*
X132929238Y-96147000D01*
X132786380Y-96099380D01*
X132691142Y-96099380D01*
X132548285Y-96147000D01*
X132500666Y-96194619D01*
X132024476Y-97099380D02*
X131834000Y-97099380D01*
X131738761Y-97051761D01*
X131691142Y-97004142D01*
X131595904Y-96861285D01*
X131548285Y-96670809D01*
X131548285Y-96289857D01*
X131595904Y-96194619D01*
X131643523Y-96147000D01*
X131738761Y-96099380D01*
X131929238Y-96099380D01*
X132024476Y-96147000D01*
X132072095Y-96194619D01*
X132119714Y-96289857D01*
X132119714Y-96527952D01*
X132072095Y-96623190D01*
X132024476Y-96670809D01*
X131929238Y-96718428D01*
X131738761Y-96718428D01*
X131643523Y-96670809D01*
X131595904Y-96623190D01*
X131548285Y-96527952D01*
G04 #@! TO.C,R10*
X133484857Y-94813380D02*
X133818190Y-94337190D01*
X134056285Y-94813380D02*
X134056285Y-93813380D01*
X133675333Y-93813380D01*
X133580095Y-93861000D01*
X133532476Y-93908619D01*
X133484857Y-94003857D01*
X133484857Y-94146714D01*
X133532476Y-94241952D01*
X133580095Y-94289571D01*
X133675333Y-94337190D01*
X134056285Y-94337190D01*
X132532476Y-94813380D02*
X133103904Y-94813380D01*
X132818190Y-94813380D02*
X132818190Y-93813380D01*
X132913428Y-93956238D01*
X133008666Y-94051476D01*
X133103904Y-94099095D01*
X131913428Y-93813380D02*
X131818190Y-93813380D01*
X131722952Y-93861000D01*
X131675333Y-93908619D01*
X131627714Y-94003857D01*
X131580095Y-94194333D01*
X131580095Y-94432428D01*
X131627714Y-94622904D01*
X131675333Y-94718142D01*
X131722952Y-94765761D01*
X131818190Y-94813380D01*
X131913428Y-94813380D01*
X132008666Y-94765761D01*
X132056285Y-94718142D01*
X132103904Y-94622904D01*
X132151523Y-94432428D01*
X132151523Y-94194333D01*
X132103904Y-94003857D01*
X132056285Y-93908619D01*
X132008666Y-93861000D01*
X131913428Y-93813380D01*
G04 #@! TD*
M02*
