M48
;DRILL file {KiCad 5.0.2-bee76a0~70~ubuntu18.04.1} date Fri 01 Mar 2019 11:09:12 AM CST
;FORMAT={-:-/ absolute / inch / decimal}
FMAT,2
INCH,TZ
T1C0.0130
T2C0.0197
T3C0.0300
T4C0.0394
%
G90
G05
T1
X4.125Y-3.705
X4.185Y-3.705
X4.245Y-3.705
X4.3265Y-3.535
X4.3265Y-3.595
X4.395Y-2.713
X4.411Y-3.953
X4.495Y-3.485
X4.508Y-4.056
X4.521Y-4.197
X4.5373Y-3.8569
X4.5498Y-4.0004
X4.5519Y-3.9675
X4.5536Y-3.9345
X4.5548Y-3.8289
X4.5568Y-3.8834
X4.56Y-3.03
X4.561Y-2.761
X4.561Y-2.821
X4.561Y-3.795
X4.595Y-4.271
X4.607Y-3.905
X4.625Y-3.665
X4.6324Y-3.9897
X4.633Y-2.711
X4.687Y-4.157
X4.7025Y-3.555
X4.717Y-3.735
X4.749Y-3.763
X4.785Y-3.781
X4.825Y-3.797
X4.83Y-3.9075
X4.855Y-3.26
X4.8639Y-3.9083
X4.885Y-3.707
X4.893Y-3.843
X4.8968Y-3.9106
X4.928Y-4.682
X4.98Y-3.9075
X4.995Y-3.839
X4.997Y-4.889
X5.013Y-3.689
X5.03Y-2.725
X5.03Y-2.79
X5.03Y-2.86
X5.03Y-2.935
X5.03Y-3.21
X5.03Y-3.27
X5.057Y-4.299
X5.058Y-4.795
X5.09Y-3.21
X5.09Y-3.27
X5.093Y-4.135
X5.1332Y-3.8685
X5.173Y-4.347
X5.173Y-4.587
X5.175Y-4.467
X5.185Y-3.7995
X5.199Y-4.029
X5.201Y-3.6942
X5.205Y-3.145
X5.215Y-2.75
X5.285Y-2.75
X5.285Y-3.145
X5.311Y-3.709
X5.311Y-3.907
X5.311Y-3.965
X5.317Y-4.151
X5.317Y-4.233
X5.323Y-4.077
X5.325Y-4.035
X5.337Y-4.427
X5.343Y-3.735
X5.353Y-3.995
X5.365Y-3.145
X5.421Y-4.324
X5.45Y-3.735
X5.45Y-3.995
X5.465Y-3.145
X5.498Y-3.9485
X5.4994Y-3.9815
X5.5Y-3.71
X5.5Y-3.7475
X5.501Y-3.7995
X5.501Y-3.8625
X5.501Y-3.8955
X5.555Y-4.155
X5.555Y-4.237
X5.565Y-3.145
X5.6249Y-3.769
X5.6265Y-3.965
X5.6289Y-3.867
X5.635Y-3.59
X5.665Y-3.145
X5.68Y-3.59
X5.765Y-3.145
X5.813Y-4.027
X5.845Y-3.765
X5.862Y-4.474
X5.8656Y-4.1594
X5.87Y-4.54
X5.945Y-2.895
X5.963Y-3.997
X6.005Y-3.435
X6.013Y-3.481
X6.015Y-4.611
X6.017Y-4.011
X6.017Y-4.085
T3
X5.773Y-4.743
X5.773Y-4.833
X5.773Y-4.923
X5.773Y-5.013
X5.795Y-2.505
X5.795Y-2.595
X5.795Y-2.685
X5.795Y-2.775
X5.853Y-4.743
X5.853Y-4.833
X5.853Y-4.923
X5.853Y-5.013
X5.875Y-2.505
X5.875Y-2.595
X5.875Y-2.685
X5.875Y-2.775
X5.9Y-3.21
X5.9Y-3.3
X5.9Y-3.39
X5.905Y-3.03
X5.905Y-3.115
X5.905Y-3.795
X5.905Y-3.89
X6.Y-3.89
X6.005Y-2.99
X6.005Y-3.08
X6.005Y-3.16
X6.005Y-3.56
X6.005Y-3.665
X6.005Y-3.775
X6.02Y-4.16
X6.02Y-4.25
X6.09Y-3.56
X6.09Y-3.665
X6.09Y-3.775
X6.09Y-3.89
X6.1Y-4.16
X6.105Y-4.245
X6.105Y-4.335
X6.205Y-2.955
X6.205Y-3.045
X6.205Y-3.135
X6.205Y-3.565
X6.205Y-3.655
X6.205Y-3.745
X6.205Y-4.165
X6.205Y-4.255
X6.205Y-4.345
X6.305Y-2.955
X6.305Y-3.045
X6.305Y-3.135
X6.305Y-3.565
X6.305Y-3.655
X6.305Y-3.745
X6.305Y-4.165
X6.305Y-4.255
X6.305Y-4.345
X6.375Y-3.225
X6.375Y-3.305
X6.375Y-3.395
X6.375Y-3.835
X6.375Y-3.915
X6.375Y-4.005
X6.375Y-4.435
X6.375Y-4.515
X6.375Y-4.605
X6.405Y-2.515
X6.405Y-2.605
X6.405Y-2.695
X6.405Y-2.785
X6.405Y-2.955
X6.405Y-3.045
X6.405Y-3.135
X6.405Y-3.565
X6.405Y-3.655
X6.405Y-3.745
X6.405Y-4.165
X6.405Y-4.255
X6.405Y-4.345
X6.415Y-4.725
X6.415Y-4.815
X6.415Y-4.905
X6.415Y-4.995
X6.485Y-2.515
X6.485Y-2.605
X6.485Y-2.695
X6.485Y-2.785
X6.485Y-3.225
X6.485Y-3.305
X6.485Y-3.395
X6.485Y-3.835
X6.485Y-3.915
X6.485Y-4.005
X6.485Y-4.435
X6.485Y-4.515
X6.485Y-4.605
X6.495Y-4.725
X6.495Y-4.815
X6.495Y-4.905
X6.495Y-4.995
X6.565Y-3.055
X6.565Y-3.345
X6.565Y-3.415
X6.565Y-3.655
X6.565Y-3.945
X6.565Y-4.015
X6.565Y-4.255
X6.565Y-4.545
X6.565Y-4.615
X6.635Y-3.055
X6.635Y-3.345
X6.635Y-3.415
X6.635Y-3.655
X6.635Y-3.945
X6.635Y-4.015
X6.635Y-4.255
X6.635Y-4.545
X6.635Y-4.615
X6.705Y-3.055
X6.705Y-3.345
X6.705Y-3.415
X6.705Y-3.655
X6.705Y-3.945
X6.705Y-4.015
X6.705Y-4.255
X6.705Y-4.545
X6.705Y-4.615
T4
X6.0461Y-2.66
X6.243Y-2.66
X4.145Y-3.805
X4.145Y-3.905
X4.145Y-4.005
X4.145Y-4.105
X4.145Y-4.205
X6.0461Y-4.86
X6.243Y-4.86
X4.14Y-3.095
X4.14Y-3.195
X4.14Y-3.295
X4.14Y-3.395
X4.597Y-4.995
X4.697Y-4.995
X4.797Y-4.995
X4.897Y-4.995
X4.997Y-4.995
X5.097Y-4.995
X5.197Y-4.995
X5.297Y-4.995
X4.391Y-2.527
X4.491Y-2.527
X4.591Y-2.527
X4.691Y-2.527
X4.791Y-2.527
T2
X4.2008Y-2.6651G85X4.1732Y-2.6651
G05
X4.2008Y-2.9249G85X4.1732Y-2.9249
G05
T0
M30
