G04 #@! TF.GenerationSoftware,KiCad,Pcbnew,5.0.2-bee76a0~70~ubuntu18.04.1*
G04 #@! TF.CreationDate,2019-03-01T11:09:08-06:00*
G04 #@! TF.ProjectId,MotorDriverXL,4d6f746f-7244-4726-9976-6572584c2e6b,V1.0*
G04 #@! TF.SameCoordinates,Original*
G04 #@! TF.FileFunction,Copper,L2,Inr*
G04 #@! TF.FilePolarity,Positive*
%FSLAX46Y46*%
G04 Gerber Fmt 4.6, Leading zero omitted, Abs format (unit mm)*
G04 Created by KiCad (PCBNEW 5.0.2-bee76a0~70~ubuntu18.04.1) date Fri 01 Mar 2019 11:09:08 AM CST*
%MOMM*%
%LPD*%
G01*
G04 APERTURE LIST*
G04 #@! TA.AperFunction,ViaPad*
%ADD10O,1.700000X1.700000*%
G04 #@! TD*
G04 #@! TA.AperFunction,ViaPad*
%ADD11R,1.700000X1.700000*%
G04 #@! TD*
G04 #@! TA.AperFunction,ViaPad*
%ADD12C,2.000000*%
G04 #@! TD*
G04 #@! TA.AperFunction,ViaPad*
%ADD13R,2.000000X2.000000*%
G04 #@! TD*
G04 #@! TA.AperFunction,ViaPad*
%ADD14O,1.600000X0.900000*%
G04 #@! TD*
G04 #@! TA.AperFunction,ViaPad*
%ADD15C,1.524000*%
G04 #@! TD*
G04 #@! TA.AperFunction,ViaPad*
%ADD16C,0.685800*%
G04 #@! TD*
G04 #@! TA.AperFunction,Conductor*
%ADD17C,0.635000*%
G04 #@! TD*
G04 #@! TA.AperFunction,Conductor*
%ADD18C,0.304800*%
G04 #@! TD*
G04 #@! TA.AperFunction,Conductor*
%ADD19C,0.254000*%
G04 #@! TD*
G04 APERTURE END LIST*
D10*
G04 #@! TO.N,NRST*
G04 #@! TO.C,P4*
X121691400Y-64185800D03*
G04 #@! TO.N,SWDIO*
X119151400Y-64185800D03*
G04 #@! TO.N,GND*
X116611400Y-64185800D03*
G04 #@! TO.N,SWCLK*
X114071400Y-64185800D03*
D11*
G04 #@! TO.N,VCC_3V3*
X111531400Y-64185800D03*
G04 #@! TD*
D10*
G04 #@! TO.N,GND*
G04 #@! TO.C,P2*
X105283000Y-96647000D03*
G04 #@! TO.N,HALL_C*
X105283000Y-99187000D03*
G04 #@! TO.N,HALL_B*
X105283000Y-101727000D03*
G04 #@! TO.N,HALL_A*
X105283000Y-104267000D03*
D11*
G04 #@! TO.N,5V*
X105283000Y-106807000D03*
G04 #@! TD*
D10*
G04 #@! TO.N,SCK_ADC_EXT1*
G04 #@! TO.C,P3*
X116763800Y-126873000D03*
G04 #@! TO.N,MISO_ADC_EXT2*
X119303800Y-126873000D03*
G04 #@! TO.N,MOSI_TX_SCL*
X121843800Y-126873000D03*
G04 #@! TO.N,NSS_RX_SDA*
X124383800Y-126873000D03*
G04 #@! TO.N,ADC_EXT3*
X126923800Y-126873000D03*
G04 #@! TO.N,GND*
X129463800Y-126873000D03*
G04 #@! TO.N,VCC_3V3*
X132003800Y-126873000D03*
D11*
G04 #@! TO.N,5V*
X134543800Y-126873000D03*
G04 #@! TD*
D10*
G04 #@! TO.N,GND*
G04 #@! TO.C,P1*
X105156000Y-86233000D03*
G04 #@! TO.N,Net-(P1-Pad3)*
X105156000Y-83693000D03*
G04 #@! TO.N,Net-(P1-Pad2)*
X105156000Y-81153000D03*
D11*
G04 #@! TO.N,5V*
X105156000Y-78613000D03*
G04 #@! TD*
D12*
G04 #@! TO.N,GND*
G04 #@! TO.C,C31*
X153572200Y-67564000D03*
D13*
G04 #@! TO.N,V_SUPPLY*
X158572200Y-67564000D03*
G04 #@! TD*
D12*
G04 #@! TO.N,GND*
G04 #@! TO.C,C33*
X153572200Y-123444000D03*
D13*
G04 #@! TO.N,V_SUPPLY*
X158572200Y-123444000D03*
G04 #@! TD*
D14*
G04 #@! TO.N,GND*
G04 #@! TO.C,J1*
X106349800Y-74293000D03*
X106349800Y-67693000D03*
G04 #@! TD*
D15*
G04 #@! TO.N,V_SUPPLY*
X157607000Y-75057000D03*
X160147000Y-75057000D03*
X162687000Y-75057000D03*
X157607000Y-77343000D03*
X160147000Y-77343000D03*
X162687000Y-77343000D03*
X162687000Y-79629000D03*
X160147000Y-79629000D03*
X157607000Y-79629000D03*
X162687000Y-92837000D03*
X157607000Y-90551000D03*
X160147000Y-92837000D03*
X157607000Y-92837000D03*
X157607000Y-95123000D03*
X160147000Y-90551000D03*
X162687000Y-95123000D03*
X162687000Y-90551000D03*
X160147000Y-95123000D03*
X157607000Y-110363000D03*
X157607000Y-108077000D03*
X162687000Y-105791000D03*
X162687000Y-108077000D03*
X160147000Y-108077000D03*
X160147000Y-110363000D03*
X162687000Y-110363000D03*
X157607000Y-105791000D03*
X160147000Y-105791000D03*
X164719000Y-63881000D03*
X164719000Y-66167000D03*
X164719000Y-68453000D03*
X164719000Y-70739000D03*
X162687000Y-70739000D03*
X162687000Y-68453000D03*
X162687000Y-66167000D03*
X162687000Y-63881000D03*
X164973000Y-124587000D03*
X164973000Y-120015000D03*
X162941000Y-122301000D03*
X164973000Y-126873000D03*
X162941000Y-124587000D03*
X164973000Y-122301000D03*
X162941000Y-126873000D03*
X162941000Y-120015000D03*
D16*
X143129000Y-91186000D03*
X144272000Y-91186000D03*
X141097000Y-105537000D03*
X141097000Y-107619800D03*
G04 #@! TO.N,Net-(C9-Pad1)*
X131699000Y-96507290D03*
D15*
G04 #@! TO.N,SH_A*
X170307000Y-77597000D03*
X168529000Y-77597000D03*
X170307000Y-86741000D03*
X166751000Y-84963000D03*
X168529000Y-86741000D03*
X168529000Y-84963000D03*
X170307000Y-84963000D03*
X166751000Y-86741000D03*
X166751000Y-77597000D03*
X164719000Y-81915000D03*
X164719000Y-83947000D03*
X164719000Y-86233000D03*
X161925000Y-86233000D03*
X161925000Y-83947000D03*
X161925000Y-81915000D03*
D16*
X142873295Y-95732600D03*
D15*
G04 #@! TO.N,SH_B*
X161925000Y-97409000D03*
X164719000Y-101727000D03*
X161925000Y-99441000D03*
X164719000Y-99441000D03*
X161925000Y-101727000D03*
X164719000Y-97409000D03*
X166751000Y-92837000D03*
X166751000Y-101981000D03*
X168529000Y-100203000D03*
X170307000Y-101981000D03*
X166751000Y-100203000D03*
X168529000Y-92837000D03*
X168529000Y-101981000D03*
X170307000Y-100203000D03*
X170307000Y-92837000D03*
D16*
X142974910Y-98221779D03*
D15*
G04 #@! TO.N,SH_C*
X164719000Y-116967000D03*
X164719000Y-114681000D03*
X161925000Y-116967000D03*
X161925000Y-112649000D03*
X161925000Y-114681000D03*
X164719000Y-112649000D03*
X170307000Y-108077000D03*
X168529000Y-108077000D03*
X170307000Y-117221000D03*
X166751000Y-108077000D03*
X166751000Y-115443000D03*
X168529000Y-115443000D03*
X168529000Y-117221000D03*
X166751000Y-117221000D03*
X170307000Y-115443000D03*
D16*
X142911869Y-100709800D03*
G04 #@! TO.N,5V*
X132207000Y-79883000D03*
X123317000Y-82804000D03*
X134239000Y-79883000D03*
X136271000Y-79883000D03*
X138811000Y-79883000D03*
X141351000Y-79883000D03*
X146431000Y-79883000D03*
X143891000Y-79883000D03*
X109893089Y-89789000D03*
X109893089Y-91313000D03*
X111633000Y-68910200D03*
G04 #@! TO.N,SL_A*
X147650200Y-102285800D03*
X148463000Y-95631000D03*
G04 #@! TO.N,SL_B*
X151460200Y-101523800D03*
X148986939Y-105648061D03*
G04 #@! TO.N,GH_A*
X139700000Y-95186500D03*
X151003000Y-73533000D03*
G04 #@! TO.N,GL_A*
X152527000Y-87249000D03*
X139725400Y-96507290D03*
G04 #@! TO.N,GH_B*
X152730200Y-88417400D03*
X139725400Y-98107477D03*
G04 #@! TO.N,GL_B*
X152831800Y-101879400D03*
X139725400Y-98945690D03*
G04 #@! TO.N,GH_C*
X152831800Y-103759000D03*
X139648867Y-100291910D03*
G04 #@! TO.N,GL_C*
X152781000Y-117119400D03*
X139685080Y-101129340D03*
G04 #@! TO.N,EN_GATE*
X130383827Y-98259910D03*
X119443479Y-90297000D03*
G04 #@! TO.N,INL_A*
X134899400Y-99237800D03*
X126492205Y-99250490D03*
G04 #@! TO.N,INH_C*
X134899400Y-100711000D03*
X124282200Y-97612200D03*
G04 #@! TO.N,VCC_3V3*
X114173000Y-88519000D03*
X127762000Y-69215000D03*
X139700000Y-94234000D03*
X127762000Y-70866000D03*
X127762000Y-72644000D03*
X127762000Y-74549000D03*
X127330200Y-93700600D03*
X132054600Y-102336600D03*
X112039400Y-100406200D03*
X117678200Y-68859400D03*
X129362200Y-105029000D03*
X116713000Y-108483400D03*
X128447800Y-109194600D03*
X114833400Y-106603800D03*
X149098000Y-115316000D03*
X128473200Y-121793000D03*
G04 #@! TO.N,CURR_A*
X135255000Y-102489000D03*
X115692655Y-97253844D03*
G04 #@! TO.N,CURR_B*
X135204200Y-103555800D03*
X115247466Y-97964060D03*
G04 #@! TO.N,SENS_B*
X131445000Y-113461800D03*
X115617422Y-100773267D03*
G04 #@! TO.N,SENS_A*
X131394200Y-110413800D03*
X115660352Y-99936156D03*
G04 #@! TO.N,SENS_SUPPLY*
X137693400Y-109829600D03*
X115743758Y-98639555D03*
G04 #@! TO.N,SENS_C*
X131394200Y-116509800D03*
X115566075Y-101609905D03*
G04 #@! TO.N,HALL_A*
X124378399Y-99328075D03*
X107823000Y-94107000D03*
G04 #@! TO.N,HALL_B*
X123542103Y-99271424D03*
X106299000Y-94107000D03*
G04 #@! TO.N,HALL_C*
X122682956Y-99250490D03*
X104775000Y-94107000D03*
G04 #@! TO.N,USB_N*
X115849400Y-70129400D03*
X122555000Y-96443800D03*
G04 #@! TO.N,Net-(R10-Pad1)*
X132105400Y-93832110D03*
G04 #@! TO.N,NRST*
X115849607Y-96391951D03*
G04 #@! TO.N,SWDIO*
X120624600Y-95580200D03*
G04 #@! TO.N,SWCLK*
X119811800Y-94869000D03*
G04 #@! TO.N,GATE_CS*
X134899400Y-94208600D03*
X126873000Y-97510600D03*
G04 #@! TO.N,ADC_EXT3*
X119049800Y-105587800D03*
X126923800Y-124180600D03*
G04 #@! TO.N,USB_P*
X115849400Y-71653400D03*
X121539000Y-96037400D03*
G04 #@! TO.N,Net-(C38-Pad1)*
X124079000Y-94157800D03*
G04 #@! TO.N,TEMP*
X148894800Y-113639600D03*
X125171200Y-118922800D03*
X114503200Y-103022400D03*
G04 #@! TO.N,GND*
X115824000Y-76962000D03*
X135712200Y-94869000D03*
D15*
X149225000Y-70485000D03*
X147193000Y-70485000D03*
X149225000Y-63627000D03*
X147193000Y-63627000D03*
X147193000Y-68199000D03*
X149225000Y-68199000D03*
X149225000Y-65913000D03*
X147193000Y-65913000D03*
X149987000Y-98806000D03*
X149987000Y-96393000D03*
X152527000Y-93091000D03*
X152527000Y-90424000D03*
X152527000Y-95885000D03*
X154686000Y-95885000D03*
X154686000Y-98806000D03*
X152400000Y-98806000D03*
X154686000Y-93091000D03*
X154686000Y-90424000D03*
X154940000Y-105664000D03*
X155067000Y-107823000D03*
X155067000Y-110109000D03*
X152908000Y-107950000D03*
X152908000Y-105664000D03*
X149987000Y-79121000D03*
X152527000Y-75946000D03*
X152527000Y-78232000D03*
X149987000Y-76962000D03*
X152527000Y-80264000D03*
X149860000Y-86106000D03*
X149860000Y-81534000D03*
X149860000Y-83820000D03*
D16*
X138430000Y-94869000D03*
X135966200Y-101473000D03*
X138430000Y-101473000D03*
X135051800Y-105435400D03*
X135051800Y-107518200D03*
D15*
X146634200Y-125044200D03*
X148666200Y-125044200D03*
X146634200Y-127330200D03*
X146634200Y-120472200D03*
X148666200Y-127330200D03*
X148666200Y-122758200D03*
X146634200Y-122758200D03*
X148666200Y-120472200D03*
D16*
X117475000Y-93091000D03*
X117017800Y-99187000D03*
X117663490Y-101337258D03*
X135559800Y-112445800D03*
X134239000Y-69850000D03*
X132461000Y-69850000D03*
X127762000Y-81534000D03*
X129286000Y-81534000D03*
X127762000Y-83058000D03*
X129286000Y-83058000D03*
G04 #@! TD*
D17*
G04 #@! TO.N,SH_A*
X161925000Y-81915000D02*
X161163001Y-82676999D01*
X162509200Y-83947000D02*
X164719000Y-83947000D01*
X161010600Y-85445600D02*
X162509200Y-83947000D01*
X160720370Y-86360000D02*
X152247600Y-86360000D01*
X160847370Y-86233000D02*
X160720370Y-86360000D01*
X161925000Y-86233000D02*
X160847370Y-86233000D01*
X152247600Y-86360000D02*
X142875000Y-95732600D01*
G04 #@! TO.N,SH_B*
X161925000Y-97409000D02*
X161925000Y-98221795D01*
X161163001Y-100202999D02*
X149184869Y-100202999D01*
X161925000Y-99441000D02*
X161163001Y-100202999D01*
X143459843Y-98221779D02*
X142974910Y-98221779D01*
X147203649Y-98221779D02*
X143459843Y-98221779D01*
X149184869Y-100202999D02*
X147203649Y-98221779D01*
G04 #@! TO.N,SH_C*
X161925000Y-112649000D02*
X161925000Y-111937800D01*
X161010599Y-111887001D02*
X161163001Y-111887001D01*
X160959800Y-111937800D02*
X161010599Y-111887001D01*
X154127190Y-111937800D02*
X160959800Y-111937800D01*
X161163001Y-111887001D02*
X161925000Y-112649000D01*
X142976600Y-100787210D02*
X154127190Y-111937800D01*
G04 #@! TO.N,GH_A*
X151003000Y-74017933D02*
X151003000Y-73533000D01*
X148463000Y-88874600D02*
X148463000Y-76557933D01*
X148463000Y-76557933D02*
X151003000Y-74017933D01*
X139700000Y-95186500D02*
X142151100Y-95186500D01*
X142151100Y-95186500D02*
X148463000Y-88874600D01*
G04 #@! TO.N,GL_A*
X140210333Y-96507290D02*
X139725400Y-96507290D01*
X140268743Y-96565700D02*
X140210333Y-96507290D01*
X152527000Y-87249000D02*
X143210300Y-96565700D01*
X143210300Y-96565700D02*
X140268743Y-96565700D01*
G04 #@! TO.N,GH_B*
X152730200Y-88417400D02*
X143776699Y-97370901D01*
X140461976Y-97370901D02*
X140068299Y-97764578D01*
X143776699Y-97370901D02*
X140461976Y-97370901D01*
X140068299Y-97764578D02*
X139725400Y-98107477D01*
G04 #@! TO.N,GL_B*
X140210333Y-98945690D02*
X139725400Y-98945690D01*
X152831800Y-101879400D02*
X152273000Y-102438200D01*
X152273000Y-102438200D02*
X150306503Y-102438200D01*
X146902892Y-99034589D02*
X140299232Y-99034589D01*
X140299232Y-99034589D02*
X140210333Y-98945690D01*
X150306503Y-102438200D02*
X146902892Y-99034589D01*
G04 #@! TO.N,GH_C*
X150401468Y-103759000D02*
X146616857Y-99974389D01*
X140133800Y-100291910D02*
X139648867Y-100291910D01*
X152831800Y-103759000D02*
X150401468Y-103759000D01*
X140451321Y-99974389D02*
X140133800Y-100291910D01*
X140512800Y-99822000D02*
X140462000Y-99872800D01*
X146576736Y-99822000D02*
X140512800Y-99822000D01*
X146627536Y-99872800D02*
X146576736Y-99822000D01*
G04 #@! TO.N,GL_C*
X152781000Y-117119400D02*
X152781000Y-112191800D01*
X152781000Y-112191800D02*
X142417800Y-101828600D01*
X140384340Y-101828600D02*
X140027979Y-101472239D01*
X142417800Y-101828600D02*
X140384340Y-101828600D01*
X140027979Y-101472239D02*
X139685080Y-101129340D01*
D18*
G04 #@! TO.N,INL_A*
X126504895Y-99237800D02*
X126492205Y-99250490D01*
X134899400Y-99237800D02*
X126504895Y-99237800D01*
D17*
G04 #@! TO.N,VCC_3V3*
X128447800Y-123317000D02*
X132003800Y-126873000D01*
X128447800Y-109194600D02*
X128447800Y-123317000D01*
D19*
G04 #@! TO.N,CURR_A*
X135255000Y-102489000D02*
X133629400Y-100863400D01*
X121250151Y-100863400D02*
X117640595Y-97253844D01*
X116177588Y-97253844D02*
X115692655Y-97253844D01*
X133629400Y-100863400D02*
X121250151Y-100863400D01*
X117640595Y-97253844D02*
X116177588Y-97253844D01*
G04 #@! TO.N,CURR_B*
X135204200Y-103555800D02*
X123367800Y-103555800D01*
X117776060Y-97964060D02*
X115732399Y-97964060D01*
X123367800Y-103555800D02*
X117776060Y-97964060D01*
X115732399Y-97964060D02*
X115247466Y-97964060D01*
G04 #@! TO.N,HALL_A*
X124378399Y-98843142D02*
X123198257Y-97663000D01*
X124378399Y-99328075D02*
X124378399Y-98843142D01*
X123198257Y-97663000D02*
X121539000Y-97663000D01*
X117983000Y-94107000D02*
X107823000Y-94107000D01*
X121539000Y-97663000D02*
X117983000Y-94107000D01*
G04 #@! TO.N,HALL_B*
X117983000Y-95123000D02*
X107315000Y-95123000D01*
X121031000Y-98171000D02*
X117983000Y-95123000D01*
X107315000Y-95123000D02*
X106299000Y-94107000D01*
X122926612Y-98171000D02*
X121031000Y-98171000D01*
X123542103Y-99271424D02*
X123542103Y-98786491D01*
X123542103Y-98786491D02*
X122926612Y-98171000D01*
G04 #@! TO.N,HALL_C*
X122682956Y-99250490D02*
X121094490Y-99250490D01*
X121094490Y-99250490D02*
X117475000Y-95631000D01*
X106299000Y-95631000D02*
X104775000Y-94107000D01*
X117475000Y-95631000D02*
X106299000Y-95631000D01*
G04 #@! TO.N,USB_N*
X122555000Y-76835000D02*
X115849400Y-70129400D01*
X122555000Y-96443800D02*
X122555000Y-76835000D01*
G04 #@! TO.N,SWDIO*
X114579400Y-68757800D02*
X119151400Y-64185800D01*
X114579400Y-87045800D02*
X114579400Y-68757800D01*
X120624600Y-95580200D02*
X120624600Y-93091000D01*
X120624600Y-93091000D02*
X114579400Y-87045800D01*
G04 #@! TO.N,SWCLK*
X119811800Y-94869000D02*
X119811800Y-92852951D01*
X114071400Y-87112551D02*
X114071400Y-64185800D01*
X119811800Y-92852951D02*
X114071400Y-87112551D01*
G04 #@! TO.N,ADC_EXT3*
X119049800Y-116306600D02*
X126923800Y-124180600D01*
X119049800Y-105587800D02*
X119049800Y-116306600D01*
G04 #@! TO.N,USB_P*
X121539000Y-77343000D02*
X115849400Y-71653400D01*
X121539000Y-96037400D02*
X121539000Y-77343000D01*
G04 #@! TD*
G04 #@! TO.N,SH_A*
G36*
X171196000Y-87376000D02*
X160782000Y-87376000D01*
X160782000Y-81026000D01*
X164211000Y-81026000D01*
X164235776Y-81023560D01*
X164259601Y-81016333D01*
X164281557Y-81004597D01*
X164300803Y-80988803D01*
X164316597Y-80969557D01*
X164328333Y-80947601D01*
X164335560Y-80923776D01*
X164338000Y-80899000D01*
X164338000Y-76708000D01*
X171196000Y-76708000D01*
X171196000Y-87376000D01*
X171196000Y-87376000D01*
G37*
X171196000Y-87376000D02*
X160782000Y-87376000D01*
X160782000Y-81026000D01*
X164211000Y-81026000D01*
X164235776Y-81023560D01*
X164259601Y-81016333D01*
X164281557Y-81004597D01*
X164300803Y-80988803D01*
X164316597Y-80969557D01*
X164328333Y-80947601D01*
X164335560Y-80923776D01*
X164338000Y-80899000D01*
X164338000Y-76708000D01*
X171196000Y-76708000D01*
X171196000Y-87376000D01*
G04 #@! TO.N,SH_B*
G36*
X171187100Y-102616000D02*
X160772995Y-102616000D01*
X160772995Y-96266000D01*
X163947995Y-96266000D01*
X163972771Y-96263560D01*
X163996596Y-96256333D01*
X164018552Y-96244597D01*
X164037798Y-96228803D01*
X164053592Y-96209557D01*
X164065328Y-96187601D01*
X164072555Y-96163776D01*
X164074995Y-96139265D01*
X164083736Y-91948000D01*
X171195895Y-91948000D01*
X171187100Y-102616000D01*
X171187100Y-102616000D01*
G37*
X171187100Y-102616000D02*
X160772995Y-102616000D01*
X160772995Y-96266000D01*
X163947995Y-96266000D01*
X163972771Y-96263560D01*
X163996596Y-96256333D01*
X164018552Y-96244597D01*
X164037798Y-96228803D01*
X164053592Y-96209557D01*
X164065328Y-96187601D01*
X164072555Y-96163776D01*
X164074995Y-96139265D01*
X164083736Y-91948000D01*
X171195895Y-91948000D01*
X171187100Y-102616000D01*
G04 #@! TO.N,SH_C*
G36*
X171186995Y-117856000D02*
X160772995Y-117856000D01*
X160772995Y-111506000D01*
X163947995Y-111506000D01*
X163972771Y-111503560D01*
X163996596Y-111496333D01*
X164018552Y-111484597D01*
X164037798Y-111468803D01*
X164053592Y-111449557D01*
X164065328Y-111427601D01*
X164072555Y-111403776D01*
X164074995Y-111379000D01*
X164074995Y-107188000D01*
X171186995Y-107188000D01*
X171186995Y-117856000D01*
X171186995Y-117856000D01*
G37*
X171186995Y-117856000D02*
X160772995Y-117856000D01*
X160772995Y-111506000D01*
X163947995Y-111506000D01*
X163972771Y-111503560D01*
X163996596Y-111496333D01*
X164018552Y-111484597D01*
X164037798Y-111468803D01*
X164053592Y-111449557D01*
X164065328Y-111427601D01*
X164072555Y-111403776D01*
X164074995Y-111379000D01*
X164074995Y-107188000D01*
X171186995Y-107188000D01*
X171186995Y-117856000D01*
G04 #@! TO.N,V_SUPPLY*
G36*
X160264995Y-117983000D02*
X160293997Y-118128802D01*
X160376587Y-118252408D01*
X160500193Y-118334998D01*
X160645995Y-118364000D01*
X166116000Y-118364000D01*
X166116000Y-128524000D01*
X156718000Y-128524000D01*
X156718000Y-112636300D01*
X160264995Y-112636300D01*
X160264995Y-117983000D01*
X160264995Y-117983000D01*
G37*
X160264995Y-117983000D02*
X160293997Y-118128802D01*
X160376587Y-118252408D01*
X160500193Y-118334998D01*
X160645995Y-118364000D01*
X166116000Y-118364000D01*
X166116000Y-128524000D01*
X156718000Y-128524000D01*
X156718000Y-112636300D01*
X160264995Y-112636300D01*
X160264995Y-117983000D01*
G36*
X160264995Y-102743000D02*
X160293997Y-102888802D01*
X160376587Y-103012408D01*
X160500193Y-103094998D01*
X160645995Y-103124000D01*
X166116000Y-103124000D01*
X166116000Y-106680000D01*
X163947995Y-106680000D01*
X163802193Y-106709002D01*
X163678587Y-106791592D01*
X163595997Y-106915198D01*
X163566995Y-107061000D01*
X163566995Y-110998000D01*
X160645995Y-110998000D01*
X160500193Y-111027002D01*
X160376587Y-111109592D01*
X160293997Y-111233198D01*
X160292783Y-111239300D01*
X156718000Y-111239300D01*
X156718000Y-100901499D01*
X160264995Y-100901499D01*
X160264995Y-102743000D01*
X160264995Y-102743000D01*
G37*
X160264995Y-102743000D02*
X160293997Y-102888802D01*
X160376587Y-103012408D01*
X160500193Y-103094998D01*
X160645995Y-103124000D01*
X166116000Y-103124000D01*
X166116000Y-106680000D01*
X163947995Y-106680000D01*
X163802193Y-106709002D01*
X163678587Y-106791592D01*
X163595997Y-106915198D01*
X163566995Y-107061000D01*
X163566995Y-110998000D01*
X160645995Y-110998000D01*
X160500193Y-111027002D01*
X160376587Y-111109592D01*
X160293997Y-111233198D01*
X160292783Y-111239300D01*
X156718000Y-111239300D01*
X156718000Y-100901499D01*
X160264995Y-100901499D01*
X160264995Y-102743000D01*
G36*
X160274000Y-87503000D02*
X160303002Y-87648802D01*
X160385592Y-87772408D01*
X160509198Y-87854998D01*
X160655000Y-87884000D01*
X166116000Y-87884000D01*
X166116000Y-91440000D01*
X163957000Y-91440000D01*
X163811932Y-91468699D01*
X163688155Y-91551031D01*
X163605307Y-91674464D01*
X163576001Y-91820205D01*
X163567789Y-95758000D01*
X160645995Y-95758000D01*
X160500193Y-95787002D01*
X160376587Y-95869592D01*
X160293997Y-95993198D01*
X160264995Y-96139000D01*
X160264995Y-99504499D01*
X156718000Y-99504499D01*
X156718000Y-87058500D01*
X160274000Y-87058500D01*
X160274000Y-87503000D01*
X160274000Y-87503000D01*
G37*
X160274000Y-87503000D02*
X160303002Y-87648802D01*
X160385592Y-87772408D01*
X160509198Y-87854998D01*
X160655000Y-87884000D01*
X166116000Y-87884000D01*
X166116000Y-91440000D01*
X163957000Y-91440000D01*
X163811932Y-91468699D01*
X163688155Y-91551031D01*
X163605307Y-91674464D01*
X163576001Y-91820205D01*
X163567789Y-95758000D01*
X160645995Y-95758000D01*
X160500193Y-95787002D01*
X160376587Y-95869592D01*
X160293997Y-95993198D01*
X160264995Y-96139000D01*
X160264995Y-99504499D01*
X156718000Y-99504499D01*
X156718000Y-87058500D01*
X160274000Y-87058500D01*
X160274000Y-87503000D01*
G36*
X166116000Y-76200000D02*
X164211000Y-76200000D01*
X164065198Y-76229002D01*
X163941592Y-76311592D01*
X163859002Y-76435198D01*
X163830000Y-76581000D01*
X163830000Y-80518000D01*
X160655000Y-80518000D01*
X160509198Y-80547002D01*
X160385592Y-80629592D01*
X160303002Y-80753198D01*
X160274000Y-80899000D01*
X160274000Y-85661500D01*
X156718000Y-85661500D01*
X156718000Y-62559000D01*
X166116000Y-62559000D01*
X166116000Y-76200000D01*
X166116000Y-76200000D01*
G37*
X166116000Y-76200000D02*
X164211000Y-76200000D01*
X164065198Y-76229002D01*
X163941592Y-76311592D01*
X163859002Y-76435198D01*
X163830000Y-76581000D01*
X163830000Y-80518000D01*
X160655000Y-80518000D01*
X160509198Y-80547002D01*
X160385592Y-80629592D01*
X160303002Y-80753198D01*
X160274000Y-80899000D01*
X160274000Y-85661500D01*
X156718000Y-85661500D01*
X156718000Y-62559000D01*
X166116000Y-62559000D01*
X166116000Y-76200000D01*
G04 #@! TO.N,GND*
G36*
X156210000Y-85661500D02*
X152316389Y-85661500D01*
X152247599Y-85647817D01*
X152178809Y-85661500D01*
X152178806Y-85661500D01*
X151975059Y-85702028D01*
X151744010Y-85856410D01*
X151705041Y-85914731D01*
X149161500Y-88458272D01*
X149161500Y-76847260D01*
X151448271Y-74560490D01*
X151506589Y-74521523D01*
X151545556Y-74463205D01*
X151545558Y-74463203D01*
X151660971Y-74290475D01*
X151660972Y-74290474D01*
X151701500Y-74086727D01*
X151701500Y-74086723D01*
X151715183Y-74017934D01*
X151701500Y-73949145D01*
X151701500Y-73738314D01*
X151726900Y-73676993D01*
X151726900Y-73389007D01*
X151616693Y-73122944D01*
X151413056Y-72919307D01*
X151146993Y-72809100D01*
X150859007Y-72809100D01*
X150592944Y-72919307D01*
X150389307Y-73122944D01*
X150279100Y-73389007D01*
X150279100Y-73676993D01*
X150301656Y-73731449D01*
X148017731Y-76015375D01*
X147959411Y-76054343D01*
X147920442Y-76112664D01*
X147805028Y-76285393D01*
X147750817Y-76557933D01*
X147764501Y-76626728D01*
X147764500Y-88585271D01*
X144979015Y-91370757D01*
X144995900Y-91329993D01*
X144995900Y-91042007D01*
X144885693Y-90775944D01*
X144682056Y-90572307D01*
X144415993Y-90462100D01*
X144128007Y-90462100D01*
X143861944Y-90572307D01*
X143700500Y-90733751D01*
X143539056Y-90572307D01*
X143272993Y-90462100D01*
X142985007Y-90462100D01*
X142718944Y-90572307D01*
X142515307Y-90775944D01*
X142405100Y-91042007D01*
X142405100Y-91329993D01*
X142515307Y-91596056D01*
X142718944Y-91799693D01*
X142985007Y-91909900D01*
X143272993Y-91909900D01*
X143539056Y-91799693D01*
X143700500Y-91638249D01*
X143861944Y-91799693D01*
X144128007Y-91909900D01*
X144415993Y-91909900D01*
X144456757Y-91893015D01*
X141861773Y-94488000D01*
X140378334Y-94488000D01*
X140423900Y-94377993D01*
X140423900Y-94090007D01*
X140313693Y-93823944D01*
X140110056Y-93620307D01*
X139843993Y-93510100D01*
X139556007Y-93510100D01*
X139289944Y-93620307D01*
X139086307Y-93823944D01*
X138976100Y-94090007D01*
X138976100Y-94377993D01*
X139086307Y-94644056D01*
X139152501Y-94710250D01*
X139086307Y-94776444D01*
X138976100Y-95042507D01*
X138976100Y-95330493D01*
X139086307Y-95596556D01*
X139289944Y-95800193D01*
X139415393Y-95852156D01*
X139315344Y-95893597D01*
X139111707Y-96097234D01*
X139001500Y-96363297D01*
X139001500Y-96651283D01*
X139111707Y-96917346D01*
X139315344Y-97120983D01*
X139581407Y-97231190D01*
X139613860Y-97231190D01*
X139376667Y-97468383D01*
X139315344Y-97493784D01*
X139111707Y-97697421D01*
X139001500Y-97963484D01*
X139001500Y-98251470D01*
X139111707Y-98517533D01*
X139120758Y-98526584D01*
X139111707Y-98535634D01*
X139001500Y-98801697D01*
X139001500Y-99089683D01*
X139111707Y-99355746D01*
X139315344Y-99559383D01*
X139420523Y-99602949D01*
X139238811Y-99678217D01*
X139035174Y-99881854D01*
X138924967Y-100147917D01*
X138924967Y-100435903D01*
X139035174Y-100701966D01*
X139065853Y-100732645D01*
X138961180Y-100985347D01*
X138961180Y-101273333D01*
X139071387Y-101539396D01*
X139275024Y-101743033D01*
X139336347Y-101768434D01*
X139485421Y-101917508D01*
X139841781Y-102273869D01*
X139880750Y-102332190D01*
X139939071Y-102371159D01*
X140111799Y-102486572D01*
X140384340Y-102540784D01*
X140453134Y-102527100D01*
X142128473Y-102527100D01*
X152082501Y-112481129D01*
X152082500Y-116914086D01*
X152057100Y-116975407D01*
X152057100Y-117263393D01*
X152167307Y-117529456D01*
X152370944Y-117733093D01*
X152637007Y-117843300D01*
X152924993Y-117843300D01*
X153191056Y-117733093D01*
X153394693Y-117529456D01*
X153504900Y-117263393D01*
X153504900Y-116975407D01*
X153479500Y-116914086D01*
X153479500Y-112277939D01*
X153584633Y-112383072D01*
X153623600Y-112441390D01*
X153681918Y-112480357D01*
X153681920Y-112480359D01*
X153854649Y-112595772D01*
X154127190Y-112649984D01*
X154195984Y-112636300D01*
X156210000Y-112636300D01*
X156210000Y-128703000D01*
X103580000Y-128703000D01*
X103580000Y-126873000D01*
X115508684Y-126873000D01*
X115604224Y-127353312D01*
X115876299Y-127760501D01*
X116283488Y-128032576D01*
X116642561Y-128104000D01*
X116885039Y-128104000D01*
X117244112Y-128032576D01*
X117651301Y-127760501D01*
X117923376Y-127353312D01*
X118018916Y-126873000D01*
X118048684Y-126873000D01*
X118144224Y-127353312D01*
X118416299Y-127760501D01*
X118823488Y-128032576D01*
X119182561Y-128104000D01*
X119425039Y-128104000D01*
X119784112Y-128032576D01*
X120191301Y-127760501D01*
X120463376Y-127353312D01*
X120558916Y-126873000D01*
X120588684Y-126873000D01*
X120684224Y-127353312D01*
X120956299Y-127760501D01*
X121363488Y-128032576D01*
X121722561Y-128104000D01*
X121965039Y-128104000D01*
X122324112Y-128032576D01*
X122731301Y-127760501D01*
X123003376Y-127353312D01*
X123098916Y-126873000D01*
X123128684Y-126873000D01*
X123224224Y-127353312D01*
X123496299Y-127760501D01*
X123903488Y-128032576D01*
X124262561Y-128104000D01*
X124505039Y-128104000D01*
X124864112Y-128032576D01*
X125271301Y-127760501D01*
X125543376Y-127353312D01*
X125638916Y-126873000D01*
X125668684Y-126873000D01*
X125764224Y-127353312D01*
X126036299Y-127760501D01*
X126443488Y-128032576D01*
X126802561Y-128104000D01*
X127045039Y-128104000D01*
X127404112Y-128032576D01*
X127811301Y-127760501D01*
X128083376Y-127353312D01*
X128178916Y-126873000D01*
X128083376Y-126392688D01*
X127811301Y-125985499D01*
X127404112Y-125713424D01*
X127045039Y-125642000D01*
X126802561Y-125642000D01*
X126443488Y-125713424D01*
X126036299Y-125985499D01*
X125764224Y-126392688D01*
X125668684Y-126873000D01*
X125638916Y-126873000D01*
X125543376Y-126392688D01*
X125271301Y-125985499D01*
X124864112Y-125713424D01*
X124505039Y-125642000D01*
X124262561Y-125642000D01*
X123903488Y-125713424D01*
X123496299Y-125985499D01*
X123224224Y-126392688D01*
X123128684Y-126873000D01*
X123098916Y-126873000D01*
X123003376Y-126392688D01*
X122731301Y-125985499D01*
X122324112Y-125713424D01*
X121965039Y-125642000D01*
X121722561Y-125642000D01*
X121363488Y-125713424D01*
X120956299Y-125985499D01*
X120684224Y-126392688D01*
X120588684Y-126873000D01*
X120558916Y-126873000D01*
X120463376Y-126392688D01*
X120191301Y-125985499D01*
X119784112Y-125713424D01*
X119425039Y-125642000D01*
X119182561Y-125642000D01*
X118823488Y-125713424D01*
X118416299Y-125985499D01*
X118144224Y-126392688D01*
X118048684Y-126873000D01*
X118018916Y-126873000D01*
X117923376Y-126392688D01*
X117651301Y-125985499D01*
X117244112Y-125713424D01*
X116885039Y-125642000D01*
X116642561Y-125642000D01*
X116283488Y-125713424D01*
X115876299Y-125985499D01*
X115604224Y-126392688D01*
X115508684Y-126873000D01*
X103580000Y-126873000D01*
X103580000Y-108339407D01*
X115989100Y-108339407D01*
X115989100Y-108627393D01*
X116099307Y-108893456D01*
X116302944Y-109097093D01*
X116569007Y-109207300D01*
X116856993Y-109207300D01*
X117123056Y-109097093D01*
X117326693Y-108893456D01*
X117436900Y-108627393D01*
X117436900Y-108339407D01*
X117326693Y-108073344D01*
X117123056Y-107869707D01*
X116856993Y-107759500D01*
X116569007Y-107759500D01*
X116302944Y-107869707D01*
X116099307Y-108073344D01*
X115989100Y-108339407D01*
X103580000Y-108339407D01*
X103580000Y-105957000D01*
X104044536Y-105957000D01*
X104044536Y-107657000D01*
X104074106Y-107805659D01*
X104158314Y-107931686D01*
X104284341Y-108015894D01*
X104433000Y-108045464D01*
X106133000Y-108045464D01*
X106281659Y-108015894D01*
X106407686Y-107931686D01*
X106491894Y-107805659D01*
X106521464Y-107657000D01*
X106521464Y-106459807D01*
X114109500Y-106459807D01*
X114109500Y-106747793D01*
X114219707Y-107013856D01*
X114423344Y-107217493D01*
X114689407Y-107327700D01*
X114977393Y-107327700D01*
X115243456Y-107217493D01*
X115447093Y-107013856D01*
X115557300Y-106747793D01*
X115557300Y-106459807D01*
X115447093Y-106193744D01*
X115243456Y-105990107D01*
X114977393Y-105879900D01*
X114689407Y-105879900D01*
X114423344Y-105990107D01*
X114219707Y-106193744D01*
X114109500Y-106459807D01*
X106521464Y-106459807D01*
X106521464Y-105957000D01*
X106491894Y-105808341D01*
X106407686Y-105682314D01*
X106281659Y-105598106D01*
X106133000Y-105568536D01*
X104433000Y-105568536D01*
X104284341Y-105598106D01*
X104158314Y-105682314D01*
X104074106Y-105808341D01*
X104044536Y-105957000D01*
X103580000Y-105957000D01*
X103580000Y-104267000D01*
X104027884Y-104267000D01*
X104123424Y-104747312D01*
X104395499Y-105154501D01*
X104802688Y-105426576D01*
X105161761Y-105498000D01*
X105404239Y-105498000D01*
X105676685Y-105443807D01*
X118325900Y-105443807D01*
X118325900Y-105731793D01*
X118436107Y-105997856D01*
X118541800Y-106103549D01*
X118541801Y-116256567D01*
X118531849Y-116306600D01*
X118571275Y-116504811D01*
X118655212Y-116630432D01*
X118655215Y-116630435D01*
X118683554Y-116672847D01*
X118725966Y-116701186D01*
X126199900Y-124175120D01*
X126199900Y-124324593D01*
X126310107Y-124590656D01*
X126513744Y-124794293D01*
X126779807Y-124904500D01*
X127067793Y-124904500D01*
X127333856Y-124794293D01*
X127537493Y-124590656D01*
X127647700Y-124324593D01*
X127647700Y-124036607D01*
X127537493Y-123770544D01*
X127333856Y-123566907D01*
X127067793Y-123456700D01*
X126918320Y-123456700D01*
X122240427Y-118778807D01*
X124447300Y-118778807D01*
X124447300Y-119066793D01*
X124557507Y-119332856D01*
X124761144Y-119536493D01*
X125027207Y-119646700D01*
X125315193Y-119646700D01*
X125581256Y-119536493D01*
X125784893Y-119332856D01*
X125895100Y-119066793D01*
X125895100Y-118778807D01*
X125784893Y-118512744D01*
X125581256Y-118309107D01*
X125315193Y-118198900D01*
X125027207Y-118198900D01*
X124761144Y-118309107D01*
X124557507Y-118512744D01*
X124447300Y-118778807D01*
X122240427Y-118778807D01*
X119557800Y-116096180D01*
X119557800Y-109050607D01*
X127723900Y-109050607D01*
X127723900Y-109338593D01*
X127749300Y-109399914D01*
X127749301Y-121649005D01*
X127749300Y-121649007D01*
X127749300Y-121936993D01*
X127749301Y-121936995D01*
X127749301Y-123248205D01*
X127735617Y-123317000D01*
X127789828Y-123589540D01*
X127789829Y-123589541D01*
X127944211Y-123820590D01*
X128002531Y-123859558D01*
X130793030Y-126650058D01*
X130748684Y-126873000D01*
X130844224Y-127353312D01*
X131116299Y-127760501D01*
X131523488Y-128032576D01*
X131882561Y-128104000D01*
X132125039Y-128104000D01*
X132484112Y-128032576D01*
X132891301Y-127760501D01*
X133163376Y-127353312D01*
X133258916Y-126873000D01*
X133163376Y-126392688D01*
X132916359Y-126023000D01*
X133305336Y-126023000D01*
X133305336Y-127723000D01*
X133334906Y-127871659D01*
X133419114Y-127997686D01*
X133545141Y-128081894D01*
X133693800Y-128111464D01*
X135393800Y-128111464D01*
X135542459Y-128081894D01*
X135668486Y-127997686D01*
X135752694Y-127871659D01*
X135782264Y-127723000D01*
X135782264Y-126023000D01*
X135752694Y-125874341D01*
X135668486Y-125748314D01*
X135542459Y-125664106D01*
X135393800Y-125634536D01*
X133693800Y-125634536D01*
X133545141Y-125664106D01*
X133419114Y-125748314D01*
X133334906Y-125874341D01*
X133305336Y-126023000D01*
X132916359Y-126023000D01*
X132891301Y-125985499D01*
X132484112Y-125713424D01*
X132125039Y-125642000D01*
X131882561Y-125642000D01*
X131780858Y-125662230D01*
X129146300Y-123027673D01*
X129146300Y-122059635D01*
X129197100Y-121936993D01*
X129197100Y-121649007D01*
X129146300Y-121526365D01*
X129146300Y-116365807D01*
X130670300Y-116365807D01*
X130670300Y-116653793D01*
X130780507Y-116919856D01*
X130984144Y-117123493D01*
X131250207Y-117233700D01*
X131538193Y-117233700D01*
X131804256Y-117123493D01*
X132007893Y-116919856D01*
X132118100Y-116653793D01*
X132118100Y-116365807D01*
X132007893Y-116099744D01*
X131804256Y-115896107D01*
X131538193Y-115785900D01*
X131250207Y-115785900D01*
X130984144Y-115896107D01*
X130780507Y-116099744D01*
X130670300Y-116365807D01*
X129146300Y-116365807D01*
X129146300Y-115172007D01*
X148374100Y-115172007D01*
X148374100Y-115459993D01*
X148484307Y-115726056D01*
X148687944Y-115929693D01*
X148954007Y-116039900D01*
X149241993Y-116039900D01*
X149508056Y-115929693D01*
X149711693Y-115726056D01*
X149821900Y-115459993D01*
X149821900Y-115172007D01*
X149711693Y-114905944D01*
X149508056Y-114702307D01*
X149241993Y-114592100D01*
X148954007Y-114592100D01*
X148687944Y-114702307D01*
X148484307Y-114905944D01*
X148374100Y-115172007D01*
X129146300Y-115172007D01*
X129146300Y-113317807D01*
X130721100Y-113317807D01*
X130721100Y-113605793D01*
X130831307Y-113871856D01*
X131034944Y-114075493D01*
X131301007Y-114185700D01*
X131588993Y-114185700D01*
X131855056Y-114075493D01*
X132058693Y-113871856D01*
X132168900Y-113605793D01*
X132168900Y-113495607D01*
X148170900Y-113495607D01*
X148170900Y-113783593D01*
X148281107Y-114049656D01*
X148484744Y-114253293D01*
X148750807Y-114363500D01*
X149038793Y-114363500D01*
X149304856Y-114253293D01*
X149508493Y-114049656D01*
X149618700Y-113783593D01*
X149618700Y-113495607D01*
X149508493Y-113229544D01*
X149304856Y-113025907D01*
X149038793Y-112915700D01*
X148750807Y-112915700D01*
X148484744Y-113025907D01*
X148281107Y-113229544D01*
X148170900Y-113495607D01*
X132168900Y-113495607D01*
X132168900Y-113317807D01*
X132058693Y-113051744D01*
X131855056Y-112848107D01*
X131588993Y-112737900D01*
X131301007Y-112737900D01*
X131034944Y-112848107D01*
X130831307Y-113051744D01*
X130721100Y-113317807D01*
X129146300Y-113317807D01*
X129146300Y-110269807D01*
X130670300Y-110269807D01*
X130670300Y-110557793D01*
X130780507Y-110823856D01*
X130984144Y-111027493D01*
X131250207Y-111137700D01*
X131538193Y-111137700D01*
X131804256Y-111027493D01*
X132007893Y-110823856D01*
X132118100Y-110557793D01*
X132118100Y-110269807D01*
X132007893Y-110003744D01*
X131804256Y-109800107D01*
X131538193Y-109689900D01*
X131250207Y-109689900D01*
X130984144Y-109800107D01*
X130780507Y-110003744D01*
X130670300Y-110269807D01*
X129146300Y-110269807D01*
X129146300Y-109685607D01*
X136969500Y-109685607D01*
X136969500Y-109973593D01*
X137079707Y-110239656D01*
X137283344Y-110443293D01*
X137549407Y-110553500D01*
X137837393Y-110553500D01*
X138103456Y-110443293D01*
X138307093Y-110239656D01*
X138417300Y-109973593D01*
X138417300Y-109685607D01*
X138307093Y-109419544D01*
X138103456Y-109215907D01*
X137837393Y-109105700D01*
X137549407Y-109105700D01*
X137283344Y-109215907D01*
X137079707Y-109419544D01*
X136969500Y-109685607D01*
X129146300Y-109685607D01*
X129146300Y-109399914D01*
X129171700Y-109338593D01*
X129171700Y-109050607D01*
X129061493Y-108784544D01*
X128857856Y-108580907D01*
X128591793Y-108470700D01*
X128303807Y-108470700D01*
X128037744Y-108580907D01*
X127834107Y-108784544D01*
X127723900Y-109050607D01*
X119557800Y-109050607D01*
X119557800Y-107475807D01*
X140373100Y-107475807D01*
X140373100Y-107763793D01*
X140483307Y-108029856D01*
X140686944Y-108233493D01*
X140953007Y-108343700D01*
X141240993Y-108343700D01*
X141507056Y-108233493D01*
X141710693Y-108029856D01*
X141820900Y-107763793D01*
X141820900Y-107475807D01*
X141710693Y-107209744D01*
X141507056Y-107006107D01*
X141240993Y-106895900D01*
X140953007Y-106895900D01*
X140686944Y-107006107D01*
X140483307Y-107209744D01*
X140373100Y-107475807D01*
X119557800Y-107475807D01*
X119557800Y-106103549D01*
X119663493Y-105997856D01*
X119773700Y-105731793D01*
X119773700Y-105443807D01*
X119663493Y-105177744D01*
X119459856Y-104974107D01*
X119244750Y-104885007D01*
X128638300Y-104885007D01*
X128638300Y-105172993D01*
X128748507Y-105439056D01*
X128952144Y-105642693D01*
X129218207Y-105752900D01*
X129506193Y-105752900D01*
X129772256Y-105642693D01*
X129975893Y-105439056D01*
X129994967Y-105393007D01*
X140373100Y-105393007D01*
X140373100Y-105680993D01*
X140483307Y-105947056D01*
X140686944Y-106150693D01*
X140953007Y-106260900D01*
X141240993Y-106260900D01*
X141507056Y-106150693D01*
X141710693Y-105947056D01*
X141820900Y-105680993D01*
X141820900Y-105393007D01*
X141710693Y-105126944D01*
X141507056Y-104923307D01*
X141240993Y-104813100D01*
X140953007Y-104813100D01*
X140686944Y-104923307D01*
X140483307Y-105126944D01*
X140373100Y-105393007D01*
X129994967Y-105393007D01*
X130086100Y-105172993D01*
X130086100Y-104885007D01*
X129975893Y-104618944D01*
X129772256Y-104415307D01*
X129506193Y-104305100D01*
X129218207Y-104305100D01*
X128952144Y-104415307D01*
X128748507Y-104618944D01*
X128638300Y-104885007D01*
X119244750Y-104885007D01*
X119193793Y-104863900D01*
X118905807Y-104863900D01*
X118639744Y-104974107D01*
X118436107Y-105177744D01*
X118325900Y-105443807D01*
X105676685Y-105443807D01*
X105763312Y-105426576D01*
X106170501Y-105154501D01*
X106442576Y-104747312D01*
X106538116Y-104267000D01*
X106442576Y-103786688D01*
X106170501Y-103379499D01*
X105763312Y-103107424D01*
X105404239Y-103036000D01*
X105161761Y-103036000D01*
X104802688Y-103107424D01*
X104395499Y-103379499D01*
X104123424Y-103786688D01*
X104027884Y-104267000D01*
X103580000Y-104267000D01*
X103580000Y-101727000D01*
X104027884Y-101727000D01*
X104123424Y-102207312D01*
X104395499Y-102614501D01*
X104802688Y-102886576D01*
X105161761Y-102958000D01*
X105404239Y-102958000D01*
X105763312Y-102886576D01*
X105775537Y-102878407D01*
X113779300Y-102878407D01*
X113779300Y-103166393D01*
X113889507Y-103432456D01*
X114093144Y-103636093D01*
X114359207Y-103746300D01*
X114647193Y-103746300D01*
X114913256Y-103636093D01*
X115116893Y-103432456D01*
X115227100Y-103166393D01*
X115227100Y-102878407D01*
X115116893Y-102612344D01*
X114913256Y-102408707D01*
X114647193Y-102298500D01*
X114359207Y-102298500D01*
X114093144Y-102408707D01*
X113889507Y-102612344D01*
X113779300Y-102878407D01*
X105775537Y-102878407D01*
X106170501Y-102614501D01*
X106442576Y-102207312D01*
X106538116Y-101727000D01*
X106442576Y-101246688D01*
X106170501Y-100839499D01*
X105763312Y-100567424D01*
X105404239Y-100496000D01*
X105161761Y-100496000D01*
X104802688Y-100567424D01*
X104395499Y-100839499D01*
X104123424Y-101246688D01*
X104027884Y-101727000D01*
X103580000Y-101727000D01*
X103580000Y-99187000D01*
X104027884Y-99187000D01*
X104123424Y-99667312D01*
X104395499Y-100074501D01*
X104802688Y-100346576D01*
X105161761Y-100418000D01*
X105404239Y-100418000D01*
X105763312Y-100346576D01*
X105889579Y-100262207D01*
X111315500Y-100262207D01*
X111315500Y-100550193D01*
X111425707Y-100816256D01*
X111629344Y-101019893D01*
X111895407Y-101130100D01*
X112183393Y-101130100D01*
X112449456Y-101019893D01*
X112653093Y-100816256D01*
X112763300Y-100550193D01*
X112763300Y-100262207D01*
X112653093Y-99996144D01*
X112449456Y-99792507D01*
X112183393Y-99682300D01*
X111895407Y-99682300D01*
X111629344Y-99792507D01*
X111425707Y-99996144D01*
X111315500Y-100262207D01*
X105889579Y-100262207D01*
X106170501Y-100074501D01*
X106442576Y-99667312D01*
X106538116Y-99187000D01*
X106442576Y-98706688D01*
X106170501Y-98299499D01*
X105763312Y-98027424D01*
X105404239Y-97956000D01*
X105161761Y-97956000D01*
X104802688Y-98027424D01*
X104395499Y-98299499D01*
X104123424Y-98706688D01*
X104027884Y-99187000D01*
X103580000Y-99187000D01*
X103580000Y-93963007D01*
X104051100Y-93963007D01*
X104051100Y-94250993D01*
X104161307Y-94517056D01*
X104364944Y-94720693D01*
X104631007Y-94830900D01*
X104780480Y-94830900D01*
X105904412Y-95954832D01*
X105932753Y-95997247D01*
X106100788Y-96109525D01*
X106248968Y-96139000D01*
X106248972Y-96139000D01*
X106298999Y-96148951D01*
X106349026Y-96139000D01*
X115170839Y-96139000D01*
X115125707Y-96247958D01*
X115125707Y-96535944D01*
X115202181Y-96720569D01*
X115078962Y-96843788D01*
X114968755Y-97109851D01*
X114968755Y-97295962D01*
X114837410Y-97350367D01*
X114633773Y-97554004D01*
X114523566Y-97820067D01*
X114523566Y-98108053D01*
X114633773Y-98374116D01*
X114837410Y-98577753D01*
X115019858Y-98653326D01*
X115019858Y-98783548D01*
X115130065Y-99049611D01*
X115333702Y-99253248D01*
X115375549Y-99270582D01*
X115250296Y-99322463D01*
X115046659Y-99526100D01*
X114936452Y-99792163D01*
X114936452Y-100080149D01*
X115039064Y-100327876D01*
X115003729Y-100363211D01*
X114893522Y-100629274D01*
X114893522Y-100917260D01*
X114993530Y-101158701D01*
X114952382Y-101199849D01*
X114842175Y-101465912D01*
X114842175Y-101753898D01*
X114952382Y-102019961D01*
X115156019Y-102223598D01*
X115422082Y-102333805D01*
X115710068Y-102333805D01*
X115976131Y-102223598D01*
X116179768Y-102019961D01*
X116289975Y-101753898D01*
X116289975Y-101465912D01*
X116189967Y-101224471D01*
X116231115Y-101183323D01*
X116341322Y-100917260D01*
X116341322Y-100629274D01*
X116238710Y-100381547D01*
X116274045Y-100346212D01*
X116384252Y-100080149D01*
X116384252Y-99792163D01*
X116274045Y-99526100D01*
X116070408Y-99322463D01*
X116028561Y-99305129D01*
X116153814Y-99253248D01*
X116357451Y-99049611D01*
X116467658Y-98783548D01*
X116467658Y-98495562D01*
X116457923Y-98472060D01*
X117565640Y-98472060D01*
X122973212Y-103879632D01*
X123001553Y-103922047D01*
X123169588Y-104034325D01*
X123317768Y-104063800D01*
X123317772Y-104063800D01*
X123367800Y-104073751D01*
X123417828Y-104063800D01*
X134688451Y-104063800D01*
X134794144Y-104169493D01*
X135060207Y-104279700D01*
X135348193Y-104279700D01*
X135614256Y-104169493D01*
X135817893Y-103965856D01*
X135928100Y-103699793D01*
X135928100Y-103411807D01*
X135817893Y-103145744D01*
X135719949Y-103047800D01*
X135868693Y-102899056D01*
X135978900Y-102632993D01*
X135978900Y-102345007D01*
X135868693Y-102078944D01*
X135665056Y-101875307D01*
X135398993Y-101765100D01*
X135249520Y-101765100D01*
X134919320Y-101434900D01*
X135043393Y-101434900D01*
X135309456Y-101324693D01*
X135513093Y-101121056D01*
X135623300Y-100854993D01*
X135623300Y-100567007D01*
X135513093Y-100300944D01*
X135309456Y-100097307D01*
X135043393Y-99987100D01*
X134755407Y-99987100D01*
X134489344Y-100097307D01*
X134285707Y-100300944D01*
X134175500Y-100567007D01*
X134175500Y-100691080D01*
X134023987Y-100539567D01*
X133995647Y-100497153D01*
X133827612Y-100384875D01*
X133679432Y-100355400D01*
X133679428Y-100355400D01*
X133629400Y-100345449D01*
X133579372Y-100355400D01*
X121460572Y-100355400D01*
X118035183Y-96930012D01*
X118006842Y-96887597D01*
X117838807Y-96775319D01*
X117690627Y-96745844D01*
X117690623Y-96745844D01*
X117640595Y-96735893D01*
X117590567Y-96745844D01*
X116486563Y-96745844D01*
X116573507Y-96535944D01*
X116573507Y-96247958D01*
X116528375Y-96139000D01*
X117264580Y-96139000D01*
X120699904Y-99574325D01*
X120728243Y-99616737D01*
X120770655Y-99645076D01*
X120770657Y-99645078D01*
X120855620Y-99701848D01*
X120896278Y-99729015D01*
X121044458Y-99758490D01*
X121044462Y-99758490D01*
X121094490Y-99768441D01*
X121144518Y-99758490D01*
X122167207Y-99758490D01*
X122272900Y-99864183D01*
X122538963Y-99974390D01*
X122826949Y-99974390D01*
X123093012Y-99864183D01*
X123102063Y-99855133D01*
X123132047Y-99885117D01*
X123398110Y-99995324D01*
X123686096Y-99995324D01*
X123923545Y-99896970D01*
X123968343Y-99941768D01*
X124234406Y-100051975D01*
X124522392Y-100051975D01*
X124788455Y-99941768D01*
X124992092Y-99738131D01*
X125102299Y-99472068D01*
X125102299Y-99184082D01*
X125070163Y-99106497D01*
X125768305Y-99106497D01*
X125768305Y-99394483D01*
X125878512Y-99660546D01*
X126082149Y-99864183D01*
X126348212Y-99974390D01*
X126636198Y-99974390D01*
X126902261Y-99864183D01*
X126995244Y-99771200D01*
X134409051Y-99771200D01*
X134489344Y-99851493D01*
X134755407Y-99961700D01*
X135043393Y-99961700D01*
X135309456Y-99851493D01*
X135513093Y-99647856D01*
X135623300Y-99381793D01*
X135623300Y-99093807D01*
X135513093Y-98827744D01*
X135309456Y-98624107D01*
X135043393Y-98513900D01*
X134755407Y-98513900D01*
X134489344Y-98624107D01*
X134409051Y-98704400D01*
X130963086Y-98704400D01*
X130997520Y-98669966D01*
X131107727Y-98403903D01*
X131107727Y-98115917D01*
X130997520Y-97849854D01*
X130793883Y-97646217D01*
X130527820Y-97536010D01*
X130239834Y-97536010D01*
X129973771Y-97646217D01*
X129770134Y-97849854D01*
X129659927Y-98115917D01*
X129659927Y-98403903D01*
X129770134Y-98669966D01*
X129804568Y-98704400D01*
X126969864Y-98704400D01*
X126902261Y-98636797D01*
X126636198Y-98526590D01*
X126348212Y-98526590D01*
X126082149Y-98636797D01*
X125878512Y-98840434D01*
X125768305Y-99106497D01*
X125070163Y-99106497D01*
X124992092Y-98918019D01*
X124891169Y-98817096D01*
X124886399Y-98793114D01*
X124886399Y-98793110D01*
X124856924Y-98644930D01*
X124848174Y-98631835D01*
X124772987Y-98519309D01*
X124772985Y-98519307D01*
X124744646Y-98476895D01*
X124702234Y-98448556D01*
X124541865Y-98288187D01*
X124692256Y-98225893D01*
X124895893Y-98022256D01*
X125006100Y-97756193D01*
X125006100Y-97468207D01*
X124964016Y-97366607D01*
X126149100Y-97366607D01*
X126149100Y-97654593D01*
X126259307Y-97920656D01*
X126462944Y-98124293D01*
X126729007Y-98234500D01*
X127016993Y-98234500D01*
X127283056Y-98124293D01*
X127486693Y-97920656D01*
X127596900Y-97654593D01*
X127596900Y-97366607D01*
X127486693Y-97100544D01*
X127283056Y-96896907D01*
X127016993Y-96786700D01*
X126729007Y-96786700D01*
X126462944Y-96896907D01*
X126259307Y-97100544D01*
X126149100Y-97366607D01*
X124964016Y-97366607D01*
X124895893Y-97202144D01*
X124692256Y-96998507D01*
X124426193Y-96888300D01*
X124138207Y-96888300D01*
X123872144Y-96998507D01*
X123668507Y-97202144D01*
X123606213Y-97352536D01*
X123592844Y-97339167D01*
X123564504Y-97296753D01*
X123396469Y-97184475D01*
X123248289Y-97155000D01*
X123248285Y-97155000D01*
X123198257Y-97145049D01*
X123148229Y-97155000D01*
X122729653Y-97155000D01*
X122965056Y-97057493D01*
X123168693Y-96853856D01*
X123278900Y-96587793D01*
X123278900Y-96363297D01*
X130975100Y-96363297D01*
X130975100Y-96651283D01*
X131085307Y-96917346D01*
X131288944Y-97120983D01*
X131555007Y-97231190D01*
X131842993Y-97231190D01*
X132109056Y-97120983D01*
X132312693Y-96917346D01*
X132422900Y-96651283D01*
X132422900Y-96363297D01*
X132312693Y-96097234D01*
X132109056Y-95893597D01*
X131842993Y-95783390D01*
X131555007Y-95783390D01*
X131288944Y-95893597D01*
X131085307Y-96097234D01*
X130975100Y-96363297D01*
X123278900Y-96363297D01*
X123278900Y-96299807D01*
X123168693Y-96033744D01*
X123063000Y-95928051D01*
X123063000Y-94013807D01*
X123355100Y-94013807D01*
X123355100Y-94301793D01*
X123465307Y-94567856D01*
X123668944Y-94771493D01*
X123935007Y-94881700D01*
X124222993Y-94881700D01*
X124489056Y-94771493D01*
X124692693Y-94567856D01*
X124802900Y-94301793D01*
X124802900Y-94013807D01*
X124692693Y-93747744D01*
X124501556Y-93556607D01*
X126606300Y-93556607D01*
X126606300Y-93844593D01*
X126716507Y-94110656D01*
X126920144Y-94314293D01*
X127186207Y-94424500D01*
X127474193Y-94424500D01*
X127740256Y-94314293D01*
X127943893Y-94110656D01*
X128054100Y-93844593D01*
X128054100Y-93688117D01*
X131381500Y-93688117D01*
X131381500Y-93976103D01*
X131491707Y-94242166D01*
X131695344Y-94445803D01*
X131961407Y-94556010D01*
X132249393Y-94556010D01*
X132515456Y-94445803D01*
X132719093Y-94242166D01*
X132792640Y-94064607D01*
X134175500Y-94064607D01*
X134175500Y-94352593D01*
X134285707Y-94618656D01*
X134489344Y-94822293D01*
X134755407Y-94932500D01*
X135043393Y-94932500D01*
X135309456Y-94822293D01*
X135513093Y-94618656D01*
X135623300Y-94352593D01*
X135623300Y-94064607D01*
X135513093Y-93798544D01*
X135309456Y-93594907D01*
X135043393Y-93484700D01*
X134755407Y-93484700D01*
X134489344Y-93594907D01*
X134285707Y-93798544D01*
X134175500Y-94064607D01*
X132792640Y-94064607D01*
X132829300Y-93976103D01*
X132829300Y-93688117D01*
X132719093Y-93422054D01*
X132515456Y-93218417D01*
X132249393Y-93108210D01*
X131961407Y-93108210D01*
X131695344Y-93218417D01*
X131491707Y-93422054D01*
X131381500Y-93688117D01*
X128054100Y-93688117D01*
X128054100Y-93556607D01*
X127943893Y-93290544D01*
X127740256Y-93086907D01*
X127474193Y-92976700D01*
X127186207Y-92976700D01*
X126920144Y-93086907D01*
X126716507Y-93290544D01*
X126606300Y-93556607D01*
X124501556Y-93556607D01*
X124489056Y-93544107D01*
X124222993Y-93433900D01*
X123935007Y-93433900D01*
X123668944Y-93544107D01*
X123465307Y-93747744D01*
X123355100Y-94013807D01*
X123063000Y-94013807D01*
X123063000Y-83482334D01*
X123173007Y-83527900D01*
X123460993Y-83527900D01*
X123727056Y-83417693D01*
X123930693Y-83214056D01*
X124040900Y-82947993D01*
X124040900Y-82660007D01*
X123930693Y-82393944D01*
X123727056Y-82190307D01*
X123460993Y-82080100D01*
X123173007Y-82080100D01*
X123063000Y-82125666D01*
X123063000Y-79739007D01*
X131483100Y-79739007D01*
X131483100Y-80026993D01*
X131593307Y-80293056D01*
X131796944Y-80496693D01*
X132063007Y-80606900D01*
X132350993Y-80606900D01*
X132617056Y-80496693D01*
X132820693Y-80293056D01*
X132930900Y-80026993D01*
X132930900Y-79739007D01*
X133515100Y-79739007D01*
X133515100Y-80026993D01*
X133625307Y-80293056D01*
X133828944Y-80496693D01*
X134095007Y-80606900D01*
X134382993Y-80606900D01*
X134649056Y-80496693D01*
X134852693Y-80293056D01*
X134962900Y-80026993D01*
X134962900Y-79739007D01*
X135547100Y-79739007D01*
X135547100Y-80026993D01*
X135657307Y-80293056D01*
X135860944Y-80496693D01*
X136127007Y-80606900D01*
X136414993Y-80606900D01*
X136681056Y-80496693D01*
X136884693Y-80293056D01*
X136994900Y-80026993D01*
X136994900Y-79739007D01*
X138087100Y-79739007D01*
X138087100Y-80026993D01*
X138197307Y-80293056D01*
X138400944Y-80496693D01*
X138667007Y-80606900D01*
X138954993Y-80606900D01*
X139221056Y-80496693D01*
X139424693Y-80293056D01*
X139534900Y-80026993D01*
X139534900Y-79739007D01*
X140627100Y-79739007D01*
X140627100Y-80026993D01*
X140737307Y-80293056D01*
X140940944Y-80496693D01*
X141207007Y-80606900D01*
X141494993Y-80606900D01*
X141761056Y-80496693D01*
X141964693Y-80293056D01*
X142074900Y-80026993D01*
X142074900Y-79739007D01*
X143167100Y-79739007D01*
X143167100Y-80026993D01*
X143277307Y-80293056D01*
X143480944Y-80496693D01*
X143747007Y-80606900D01*
X144034993Y-80606900D01*
X144301056Y-80496693D01*
X144504693Y-80293056D01*
X144614900Y-80026993D01*
X144614900Y-79739007D01*
X145707100Y-79739007D01*
X145707100Y-80026993D01*
X145817307Y-80293056D01*
X146020944Y-80496693D01*
X146287007Y-80606900D01*
X146574993Y-80606900D01*
X146841056Y-80496693D01*
X147044693Y-80293056D01*
X147154900Y-80026993D01*
X147154900Y-79739007D01*
X147044693Y-79472944D01*
X146841056Y-79269307D01*
X146574993Y-79159100D01*
X146287007Y-79159100D01*
X146020944Y-79269307D01*
X145817307Y-79472944D01*
X145707100Y-79739007D01*
X144614900Y-79739007D01*
X144504693Y-79472944D01*
X144301056Y-79269307D01*
X144034993Y-79159100D01*
X143747007Y-79159100D01*
X143480944Y-79269307D01*
X143277307Y-79472944D01*
X143167100Y-79739007D01*
X142074900Y-79739007D01*
X141964693Y-79472944D01*
X141761056Y-79269307D01*
X141494993Y-79159100D01*
X141207007Y-79159100D01*
X140940944Y-79269307D01*
X140737307Y-79472944D01*
X140627100Y-79739007D01*
X139534900Y-79739007D01*
X139424693Y-79472944D01*
X139221056Y-79269307D01*
X138954993Y-79159100D01*
X138667007Y-79159100D01*
X138400944Y-79269307D01*
X138197307Y-79472944D01*
X138087100Y-79739007D01*
X136994900Y-79739007D01*
X136884693Y-79472944D01*
X136681056Y-79269307D01*
X136414993Y-79159100D01*
X136127007Y-79159100D01*
X135860944Y-79269307D01*
X135657307Y-79472944D01*
X135547100Y-79739007D01*
X134962900Y-79739007D01*
X134852693Y-79472944D01*
X134649056Y-79269307D01*
X134382993Y-79159100D01*
X134095007Y-79159100D01*
X133828944Y-79269307D01*
X133625307Y-79472944D01*
X133515100Y-79739007D01*
X132930900Y-79739007D01*
X132820693Y-79472944D01*
X132617056Y-79269307D01*
X132350993Y-79159100D01*
X132063007Y-79159100D01*
X131796944Y-79269307D01*
X131593307Y-79472944D01*
X131483100Y-79739007D01*
X123063000Y-79739007D01*
X123063000Y-76885026D01*
X123072951Y-76834999D01*
X123063000Y-76784972D01*
X123063000Y-76784968D01*
X123033525Y-76636788D01*
X122921247Y-76468753D01*
X122878832Y-76440412D01*
X120843427Y-74405007D01*
X127038100Y-74405007D01*
X127038100Y-74692993D01*
X127148307Y-74959056D01*
X127351944Y-75162693D01*
X127618007Y-75272900D01*
X127905993Y-75272900D01*
X128172056Y-75162693D01*
X128375693Y-74959056D01*
X128485900Y-74692993D01*
X128485900Y-74405007D01*
X128375693Y-74138944D01*
X128172056Y-73935307D01*
X127905993Y-73825100D01*
X127618007Y-73825100D01*
X127351944Y-73935307D01*
X127148307Y-74138944D01*
X127038100Y-74405007D01*
X120843427Y-74405007D01*
X118938427Y-72500007D01*
X127038100Y-72500007D01*
X127038100Y-72787993D01*
X127148307Y-73054056D01*
X127351944Y-73257693D01*
X127618007Y-73367900D01*
X127905993Y-73367900D01*
X128172056Y-73257693D01*
X128375693Y-73054056D01*
X128485900Y-72787993D01*
X128485900Y-72500007D01*
X128375693Y-72233944D01*
X128172056Y-72030307D01*
X127905993Y-71920100D01*
X127618007Y-71920100D01*
X127351944Y-72030307D01*
X127148307Y-72233944D01*
X127038100Y-72500007D01*
X118938427Y-72500007D01*
X117160427Y-70722007D01*
X127038100Y-70722007D01*
X127038100Y-71009993D01*
X127148307Y-71276056D01*
X127351944Y-71479693D01*
X127618007Y-71589900D01*
X127905993Y-71589900D01*
X128172056Y-71479693D01*
X128375693Y-71276056D01*
X128485900Y-71009993D01*
X128485900Y-70722007D01*
X128375693Y-70455944D01*
X128172056Y-70252307D01*
X127905993Y-70142100D01*
X127618007Y-70142100D01*
X127351944Y-70252307D01*
X127148307Y-70455944D01*
X127038100Y-70722007D01*
X117160427Y-70722007D01*
X116573300Y-70134880D01*
X116573300Y-69985407D01*
X116463093Y-69719344D01*
X116259456Y-69515707D01*
X115993393Y-69405500D01*
X115705407Y-69405500D01*
X115439344Y-69515707D01*
X115235707Y-69719344D01*
X115125500Y-69985407D01*
X115125500Y-70273393D01*
X115235707Y-70539456D01*
X115439344Y-70743093D01*
X115705407Y-70853300D01*
X115854880Y-70853300D01*
X115931080Y-70929500D01*
X115705407Y-70929500D01*
X115439344Y-71039707D01*
X115235707Y-71243344D01*
X115125500Y-71509407D01*
X115125500Y-71797393D01*
X115235707Y-72063456D01*
X115439344Y-72267093D01*
X115705407Y-72377300D01*
X115854880Y-72377300D01*
X121031001Y-77553421D01*
X121031000Y-92784845D01*
X121019188Y-92767167D01*
X121019186Y-92767165D01*
X120990847Y-92724753D01*
X120948435Y-92696414D01*
X119254136Y-91002115D01*
X119299486Y-91020900D01*
X119587472Y-91020900D01*
X119853535Y-90910693D01*
X120057172Y-90707056D01*
X120167379Y-90440993D01*
X120167379Y-90153007D01*
X120057172Y-89886944D01*
X119853535Y-89683307D01*
X119587472Y-89573100D01*
X119299486Y-89573100D01*
X119033423Y-89683307D01*
X118829786Y-89886944D01*
X118719579Y-90153007D01*
X118719579Y-90440993D01*
X118738364Y-90486343D01*
X115087400Y-86835380D01*
X115087400Y-68968220D01*
X115340213Y-68715407D01*
X116954300Y-68715407D01*
X116954300Y-69003393D01*
X117064507Y-69269456D01*
X117268144Y-69473093D01*
X117534207Y-69583300D01*
X117822193Y-69583300D01*
X118088256Y-69473093D01*
X118291893Y-69269456D01*
X118374093Y-69071007D01*
X127038100Y-69071007D01*
X127038100Y-69358993D01*
X127148307Y-69625056D01*
X127351944Y-69828693D01*
X127618007Y-69938900D01*
X127905993Y-69938900D01*
X128172056Y-69828693D01*
X128375693Y-69625056D01*
X128485900Y-69358993D01*
X128485900Y-69071007D01*
X128375693Y-68804944D01*
X128172056Y-68601307D01*
X127905993Y-68491100D01*
X127618007Y-68491100D01*
X127351944Y-68601307D01*
X127148307Y-68804944D01*
X127038100Y-69071007D01*
X118374093Y-69071007D01*
X118402100Y-69003393D01*
X118402100Y-68715407D01*
X118291893Y-68449344D01*
X118088256Y-68245707D01*
X117822193Y-68135500D01*
X117534207Y-68135500D01*
X117268144Y-68245707D01*
X117064507Y-68449344D01*
X116954300Y-68715407D01*
X115340213Y-68715407D01*
X118703748Y-65351872D01*
X119030161Y-65416800D01*
X119272639Y-65416800D01*
X119631712Y-65345376D01*
X120038901Y-65073301D01*
X120310976Y-64666112D01*
X120406516Y-64185800D01*
X120436284Y-64185800D01*
X120531824Y-64666112D01*
X120803899Y-65073301D01*
X121211088Y-65345376D01*
X121570161Y-65416800D01*
X121812639Y-65416800D01*
X122171712Y-65345376D01*
X122578901Y-65073301D01*
X122850976Y-64666112D01*
X122946516Y-64185800D01*
X122850976Y-63705488D01*
X122578901Y-63298299D01*
X122171712Y-63026224D01*
X121812639Y-62954800D01*
X121570161Y-62954800D01*
X121211088Y-63026224D01*
X120803899Y-63298299D01*
X120531824Y-63705488D01*
X120436284Y-64185800D01*
X120406516Y-64185800D01*
X120310976Y-63705488D01*
X120038901Y-63298299D01*
X119631712Y-63026224D01*
X119272639Y-62954800D01*
X119030161Y-62954800D01*
X118671088Y-63026224D01*
X118263899Y-63298299D01*
X117991824Y-63705488D01*
X117896284Y-64185800D01*
X117985328Y-64633452D01*
X114579400Y-68039380D01*
X114579400Y-65326875D01*
X114958901Y-65073301D01*
X115230976Y-64666112D01*
X115326516Y-64185800D01*
X115230976Y-63705488D01*
X114958901Y-63298299D01*
X114551712Y-63026224D01*
X114192639Y-62954800D01*
X113950161Y-62954800D01*
X113591088Y-63026224D01*
X113183899Y-63298299D01*
X112911824Y-63705488D01*
X112816284Y-64185800D01*
X112911824Y-64666112D01*
X113183899Y-65073301D01*
X113563401Y-65326876D01*
X113563400Y-87062523D01*
X113553449Y-87112551D01*
X113563400Y-87162579D01*
X113563400Y-87162582D01*
X113592875Y-87310762D01*
X113705153Y-87478798D01*
X113747568Y-87507139D01*
X114035529Y-87795100D01*
X114029007Y-87795100D01*
X113762944Y-87905307D01*
X113559307Y-88108944D01*
X113449100Y-88375007D01*
X113449100Y-88662993D01*
X113559307Y-88929056D01*
X113762944Y-89132693D01*
X114029007Y-89242900D01*
X114316993Y-89242900D01*
X114583056Y-89132693D01*
X114786693Y-88929056D01*
X114896900Y-88662993D01*
X114896900Y-88656471D01*
X119303801Y-93063372D01*
X119303800Y-94353251D01*
X119198107Y-94458944D01*
X119155713Y-94561293D01*
X118377588Y-93783168D01*
X118349247Y-93740753D01*
X118181212Y-93628475D01*
X118033032Y-93599000D01*
X118033028Y-93599000D01*
X117983000Y-93589049D01*
X117932972Y-93599000D01*
X108338749Y-93599000D01*
X108233056Y-93493307D01*
X107966993Y-93383100D01*
X107679007Y-93383100D01*
X107412944Y-93493307D01*
X107209307Y-93696944D01*
X107099100Y-93963007D01*
X107099100Y-94188680D01*
X107022900Y-94112480D01*
X107022900Y-93963007D01*
X106912693Y-93696944D01*
X106709056Y-93493307D01*
X106442993Y-93383100D01*
X106155007Y-93383100D01*
X105888944Y-93493307D01*
X105685307Y-93696944D01*
X105575100Y-93963007D01*
X105575100Y-94188680D01*
X105498900Y-94112480D01*
X105498900Y-93963007D01*
X105388693Y-93696944D01*
X105185056Y-93493307D01*
X104918993Y-93383100D01*
X104631007Y-93383100D01*
X104364944Y-93493307D01*
X104161307Y-93696944D01*
X104051100Y-93963007D01*
X103580000Y-93963007D01*
X103580000Y-91169007D01*
X109169189Y-91169007D01*
X109169189Y-91456993D01*
X109279396Y-91723056D01*
X109483033Y-91926693D01*
X109749096Y-92036900D01*
X110037082Y-92036900D01*
X110303145Y-91926693D01*
X110506782Y-91723056D01*
X110616989Y-91456993D01*
X110616989Y-91169007D01*
X110506782Y-90902944D01*
X110303145Y-90699307D01*
X110037082Y-90589100D01*
X109749096Y-90589100D01*
X109483033Y-90699307D01*
X109279396Y-90902944D01*
X109169189Y-91169007D01*
X103580000Y-91169007D01*
X103580000Y-89645007D01*
X109169189Y-89645007D01*
X109169189Y-89932993D01*
X109279396Y-90199056D01*
X109483033Y-90402693D01*
X109749096Y-90512900D01*
X110037082Y-90512900D01*
X110303145Y-90402693D01*
X110506782Y-90199056D01*
X110616989Y-89932993D01*
X110616989Y-89645007D01*
X110506782Y-89378944D01*
X110303145Y-89175307D01*
X110037082Y-89065100D01*
X109749096Y-89065100D01*
X109483033Y-89175307D01*
X109279396Y-89378944D01*
X109169189Y-89645007D01*
X103580000Y-89645007D01*
X103580000Y-83693000D01*
X103900884Y-83693000D01*
X103996424Y-84173312D01*
X104268499Y-84580501D01*
X104675688Y-84852576D01*
X105034761Y-84924000D01*
X105277239Y-84924000D01*
X105636312Y-84852576D01*
X106043501Y-84580501D01*
X106315576Y-84173312D01*
X106411116Y-83693000D01*
X106315576Y-83212688D01*
X106043501Y-82805499D01*
X105636312Y-82533424D01*
X105277239Y-82462000D01*
X105034761Y-82462000D01*
X104675688Y-82533424D01*
X104268499Y-82805499D01*
X103996424Y-83212688D01*
X103900884Y-83693000D01*
X103580000Y-83693000D01*
X103580000Y-81153000D01*
X103900884Y-81153000D01*
X103996424Y-81633312D01*
X104268499Y-82040501D01*
X104675688Y-82312576D01*
X105034761Y-82384000D01*
X105277239Y-82384000D01*
X105636312Y-82312576D01*
X106043501Y-82040501D01*
X106315576Y-81633312D01*
X106411116Y-81153000D01*
X106315576Y-80672688D01*
X106043501Y-80265499D01*
X105636312Y-79993424D01*
X105277239Y-79922000D01*
X105034761Y-79922000D01*
X104675688Y-79993424D01*
X104268499Y-80265499D01*
X103996424Y-80672688D01*
X103900884Y-81153000D01*
X103580000Y-81153000D01*
X103580000Y-77763000D01*
X103917536Y-77763000D01*
X103917536Y-79463000D01*
X103947106Y-79611659D01*
X104031314Y-79737686D01*
X104157341Y-79821894D01*
X104306000Y-79851464D01*
X106006000Y-79851464D01*
X106154659Y-79821894D01*
X106280686Y-79737686D01*
X106364894Y-79611659D01*
X106394464Y-79463000D01*
X106394464Y-77763000D01*
X106364894Y-77614341D01*
X106280686Y-77488314D01*
X106154659Y-77404106D01*
X106006000Y-77374536D01*
X104306000Y-77374536D01*
X104157341Y-77404106D01*
X104031314Y-77488314D01*
X103947106Y-77614341D01*
X103917536Y-77763000D01*
X103580000Y-77763000D01*
X103580000Y-68766207D01*
X110909100Y-68766207D01*
X110909100Y-69054193D01*
X111019307Y-69320256D01*
X111222944Y-69523893D01*
X111489007Y-69634100D01*
X111776993Y-69634100D01*
X112043056Y-69523893D01*
X112246693Y-69320256D01*
X112356900Y-69054193D01*
X112356900Y-68766207D01*
X112246693Y-68500144D01*
X112043056Y-68296507D01*
X111776993Y-68186300D01*
X111489007Y-68186300D01*
X111222944Y-68296507D01*
X111019307Y-68500144D01*
X110909100Y-68766207D01*
X103580000Y-68766207D01*
X103580000Y-63335800D01*
X110292936Y-63335800D01*
X110292936Y-65035800D01*
X110322506Y-65184459D01*
X110406714Y-65310486D01*
X110532741Y-65394694D01*
X110681400Y-65424264D01*
X112381400Y-65424264D01*
X112530059Y-65394694D01*
X112656086Y-65310486D01*
X112740294Y-65184459D01*
X112769864Y-65035800D01*
X112769864Y-63335800D01*
X112740294Y-63187141D01*
X112656086Y-63061114D01*
X112530059Y-62976906D01*
X112381400Y-62947336D01*
X110681400Y-62947336D01*
X110532741Y-62976906D01*
X110406714Y-63061114D01*
X110322506Y-63187141D01*
X110292936Y-63335800D01*
X103580000Y-63335800D01*
X103580000Y-62559000D01*
X156210000Y-62559000D01*
X156210000Y-85661500D01*
X156210000Y-85661500D01*
G37*
X156210000Y-85661500D02*
X152316389Y-85661500D01*
X152247599Y-85647817D01*
X152178809Y-85661500D01*
X152178806Y-85661500D01*
X151975059Y-85702028D01*
X151744010Y-85856410D01*
X151705041Y-85914731D01*
X149161500Y-88458272D01*
X149161500Y-76847260D01*
X151448271Y-74560490D01*
X151506589Y-74521523D01*
X151545556Y-74463205D01*
X151545558Y-74463203D01*
X151660971Y-74290475D01*
X151660972Y-74290474D01*
X151701500Y-74086727D01*
X151701500Y-74086723D01*
X151715183Y-74017934D01*
X151701500Y-73949145D01*
X151701500Y-73738314D01*
X151726900Y-73676993D01*
X151726900Y-73389007D01*
X151616693Y-73122944D01*
X151413056Y-72919307D01*
X151146993Y-72809100D01*
X150859007Y-72809100D01*
X150592944Y-72919307D01*
X150389307Y-73122944D01*
X150279100Y-73389007D01*
X150279100Y-73676993D01*
X150301656Y-73731449D01*
X148017731Y-76015375D01*
X147959411Y-76054343D01*
X147920442Y-76112664D01*
X147805028Y-76285393D01*
X147750817Y-76557933D01*
X147764501Y-76626728D01*
X147764500Y-88585271D01*
X144979015Y-91370757D01*
X144995900Y-91329993D01*
X144995900Y-91042007D01*
X144885693Y-90775944D01*
X144682056Y-90572307D01*
X144415993Y-90462100D01*
X144128007Y-90462100D01*
X143861944Y-90572307D01*
X143700500Y-90733751D01*
X143539056Y-90572307D01*
X143272993Y-90462100D01*
X142985007Y-90462100D01*
X142718944Y-90572307D01*
X142515307Y-90775944D01*
X142405100Y-91042007D01*
X142405100Y-91329993D01*
X142515307Y-91596056D01*
X142718944Y-91799693D01*
X142985007Y-91909900D01*
X143272993Y-91909900D01*
X143539056Y-91799693D01*
X143700500Y-91638249D01*
X143861944Y-91799693D01*
X144128007Y-91909900D01*
X144415993Y-91909900D01*
X144456757Y-91893015D01*
X141861773Y-94488000D01*
X140378334Y-94488000D01*
X140423900Y-94377993D01*
X140423900Y-94090007D01*
X140313693Y-93823944D01*
X140110056Y-93620307D01*
X139843993Y-93510100D01*
X139556007Y-93510100D01*
X139289944Y-93620307D01*
X139086307Y-93823944D01*
X138976100Y-94090007D01*
X138976100Y-94377993D01*
X139086307Y-94644056D01*
X139152501Y-94710250D01*
X139086307Y-94776444D01*
X138976100Y-95042507D01*
X138976100Y-95330493D01*
X139086307Y-95596556D01*
X139289944Y-95800193D01*
X139415393Y-95852156D01*
X139315344Y-95893597D01*
X139111707Y-96097234D01*
X139001500Y-96363297D01*
X139001500Y-96651283D01*
X139111707Y-96917346D01*
X139315344Y-97120983D01*
X139581407Y-97231190D01*
X139613860Y-97231190D01*
X139376667Y-97468383D01*
X139315344Y-97493784D01*
X139111707Y-97697421D01*
X139001500Y-97963484D01*
X139001500Y-98251470D01*
X139111707Y-98517533D01*
X139120758Y-98526584D01*
X139111707Y-98535634D01*
X139001500Y-98801697D01*
X139001500Y-99089683D01*
X139111707Y-99355746D01*
X139315344Y-99559383D01*
X139420523Y-99602949D01*
X139238811Y-99678217D01*
X139035174Y-99881854D01*
X138924967Y-100147917D01*
X138924967Y-100435903D01*
X139035174Y-100701966D01*
X139065853Y-100732645D01*
X138961180Y-100985347D01*
X138961180Y-101273333D01*
X139071387Y-101539396D01*
X139275024Y-101743033D01*
X139336347Y-101768434D01*
X139485421Y-101917508D01*
X139841781Y-102273869D01*
X139880750Y-102332190D01*
X139939071Y-102371159D01*
X140111799Y-102486572D01*
X140384340Y-102540784D01*
X140453134Y-102527100D01*
X142128473Y-102527100D01*
X152082501Y-112481129D01*
X152082500Y-116914086D01*
X152057100Y-116975407D01*
X152057100Y-117263393D01*
X152167307Y-117529456D01*
X152370944Y-117733093D01*
X152637007Y-117843300D01*
X152924993Y-117843300D01*
X153191056Y-117733093D01*
X153394693Y-117529456D01*
X153504900Y-117263393D01*
X153504900Y-116975407D01*
X153479500Y-116914086D01*
X153479500Y-112277939D01*
X153584633Y-112383072D01*
X153623600Y-112441390D01*
X153681918Y-112480357D01*
X153681920Y-112480359D01*
X153854649Y-112595772D01*
X154127190Y-112649984D01*
X154195984Y-112636300D01*
X156210000Y-112636300D01*
X156210000Y-128703000D01*
X103580000Y-128703000D01*
X103580000Y-126873000D01*
X115508684Y-126873000D01*
X115604224Y-127353312D01*
X115876299Y-127760501D01*
X116283488Y-128032576D01*
X116642561Y-128104000D01*
X116885039Y-128104000D01*
X117244112Y-128032576D01*
X117651301Y-127760501D01*
X117923376Y-127353312D01*
X118018916Y-126873000D01*
X118048684Y-126873000D01*
X118144224Y-127353312D01*
X118416299Y-127760501D01*
X118823488Y-128032576D01*
X119182561Y-128104000D01*
X119425039Y-128104000D01*
X119784112Y-128032576D01*
X120191301Y-127760501D01*
X120463376Y-127353312D01*
X120558916Y-126873000D01*
X120588684Y-126873000D01*
X120684224Y-127353312D01*
X120956299Y-127760501D01*
X121363488Y-128032576D01*
X121722561Y-128104000D01*
X121965039Y-128104000D01*
X122324112Y-128032576D01*
X122731301Y-127760501D01*
X123003376Y-127353312D01*
X123098916Y-126873000D01*
X123128684Y-126873000D01*
X123224224Y-127353312D01*
X123496299Y-127760501D01*
X123903488Y-128032576D01*
X124262561Y-128104000D01*
X124505039Y-128104000D01*
X124864112Y-128032576D01*
X125271301Y-127760501D01*
X125543376Y-127353312D01*
X125638916Y-126873000D01*
X125668684Y-126873000D01*
X125764224Y-127353312D01*
X126036299Y-127760501D01*
X126443488Y-128032576D01*
X126802561Y-128104000D01*
X127045039Y-128104000D01*
X127404112Y-128032576D01*
X127811301Y-127760501D01*
X128083376Y-127353312D01*
X128178916Y-126873000D01*
X128083376Y-126392688D01*
X127811301Y-125985499D01*
X127404112Y-125713424D01*
X127045039Y-125642000D01*
X126802561Y-125642000D01*
X126443488Y-125713424D01*
X126036299Y-125985499D01*
X125764224Y-126392688D01*
X125668684Y-126873000D01*
X125638916Y-126873000D01*
X125543376Y-126392688D01*
X125271301Y-125985499D01*
X124864112Y-125713424D01*
X124505039Y-125642000D01*
X124262561Y-125642000D01*
X123903488Y-125713424D01*
X123496299Y-125985499D01*
X123224224Y-126392688D01*
X123128684Y-126873000D01*
X123098916Y-126873000D01*
X123003376Y-126392688D01*
X122731301Y-125985499D01*
X122324112Y-125713424D01*
X121965039Y-125642000D01*
X121722561Y-125642000D01*
X121363488Y-125713424D01*
X120956299Y-125985499D01*
X120684224Y-126392688D01*
X120588684Y-126873000D01*
X120558916Y-126873000D01*
X120463376Y-126392688D01*
X120191301Y-125985499D01*
X119784112Y-125713424D01*
X119425039Y-125642000D01*
X119182561Y-125642000D01*
X118823488Y-125713424D01*
X118416299Y-125985499D01*
X118144224Y-126392688D01*
X118048684Y-126873000D01*
X118018916Y-126873000D01*
X117923376Y-126392688D01*
X117651301Y-125985499D01*
X117244112Y-125713424D01*
X116885039Y-125642000D01*
X116642561Y-125642000D01*
X116283488Y-125713424D01*
X115876299Y-125985499D01*
X115604224Y-126392688D01*
X115508684Y-126873000D01*
X103580000Y-126873000D01*
X103580000Y-108339407D01*
X115989100Y-108339407D01*
X115989100Y-108627393D01*
X116099307Y-108893456D01*
X116302944Y-109097093D01*
X116569007Y-109207300D01*
X116856993Y-109207300D01*
X117123056Y-109097093D01*
X117326693Y-108893456D01*
X117436900Y-108627393D01*
X117436900Y-108339407D01*
X117326693Y-108073344D01*
X117123056Y-107869707D01*
X116856993Y-107759500D01*
X116569007Y-107759500D01*
X116302944Y-107869707D01*
X116099307Y-108073344D01*
X115989100Y-108339407D01*
X103580000Y-108339407D01*
X103580000Y-105957000D01*
X104044536Y-105957000D01*
X104044536Y-107657000D01*
X104074106Y-107805659D01*
X104158314Y-107931686D01*
X104284341Y-108015894D01*
X104433000Y-108045464D01*
X106133000Y-108045464D01*
X106281659Y-108015894D01*
X106407686Y-107931686D01*
X106491894Y-107805659D01*
X106521464Y-107657000D01*
X106521464Y-106459807D01*
X114109500Y-106459807D01*
X114109500Y-106747793D01*
X114219707Y-107013856D01*
X114423344Y-107217493D01*
X114689407Y-107327700D01*
X114977393Y-107327700D01*
X115243456Y-107217493D01*
X115447093Y-107013856D01*
X115557300Y-106747793D01*
X115557300Y-106459807D01*
X115447093Y-106193744D01*
X115243456Y-105990107D01*
X114977393Y-105879900D01*
X114689407Y-105879900D01*
X114423344Y-105990107D01*
X114219707Y-106193744D01*
X114109500Y-106459807D01*
X106521464Y-106459807D01*
X106521464Y-105957000D01*
X106491894Y-105808341D01*
X106407686Y-105682314D01*
X106281659Y-105598106D01*
X106133000Y-105568536D01*
X104433000Y-105568536D01*
X104284341Y-105598106D01*
X104158314Y-105682314D01*
X104074106Y-105808341D01*
X104044536Y-105957000D01*
X103580000Y-105957000D01*
X103580000Y-104267000D01*
X104027884Y-104267000D01*
X104123424Y-104747312D01*
X104395499Y-105154501D01*
X104802688Y-105426576D01*
X105161761Y-105498000D01*
X105404239Y-105498000D01*
X105676685Y-105443807D01*
X118325900Y-105443807D01*
X118325900Y-105731793D01*
X118436107Y-105997856D01*
X118541800Y-106103549D01*
X118541801Y-116256567D01*
X118531849Y-116306600D01*
X118571275Y-116504811D01*
X118655212Y-116630432D01*
X118655215Y-116630435D01*
X118683554Y-116672847D01*
X118725966Y-116701186D01*
X126199900Y-124175120D01*
X126199900Y-124324593D01*
X126310107Y-124590656D01*
X126513744Y-124794293D01*
X126779807Y-124904500D01*
X127067793Y-124904500D01*
X127333856Y-124794293D01*
X127537493Y-124590656D01*
X127647700Y-124324593D01*
X127647700Y-124036607D01*
X127537493Y-123770544D01*
X127333856Y-123566907D01*
X127067793Y-123456700D01*
X126918320Y-123456700D01*
X122240427Y-118778807D01*
X124447300Y-118778807D01*
X124447300Y-119066793D01*
X124557507Y-119332856D01*
X124761144Y-119536493D01*
X125027207Y-119646700D01*
X125315193Y-119646700D01*
X125581256Y-119536493D01*
X125784893Y-119332856D01*
X125895100Y-119066793D01*
X125895100Y-118778807D01*
X125784893Y-118512744D01*
X125581256Y-118309107D01*
X125315193Y-118198900D01*
X125027207Y-118198900D01*
X124761144Y-118309107D01*
X124557507Y-118512744D01*
X124447300Y-118778807D01*
X122240427Y-118778807D01*
X119557800Y-116096180D01*
X119557800Y-109050607D01*
X127723900Y-109050607D01*
X127723900Y-109338593D01*
X127749300Y-109399914D01*
X127749301Y-121649005D01*
X127749300Y-121649007D01*
X127749300Y-121936993D01*
X127749301Y-121936995D01*
X127749301Y-123248205D01*
X127735617Y-123317000D01*
X127789828Y-123589540D01*
X127789829Y-123589541D01*
X127944211Y-123820590D01*
X128002531Y-123859558D01*
X130793030Y-126650058D01*
X130748684Y-126873000D01*
X130844224Y-127353312D01*
X131116299Y-127760501D01*
X131523488Y-128032576D01*
X131882561Y-128104000D01*
X132125039Y-128104000D01*
X132484112Y-128032576D01*
X132891301Y-127760501D01*
X133163376Y-127353312D01*
X133258916Y-126873000D01*
X133163376Y-126392688D01*
X132916359Y-126023000D01*
X133305336Y-126023000D01*
X133305336Y-127723000D01*
X133334906Y-127871659D01*
X133419114Y-127997686D01*
X133545141Y-128081894D01*
X133693800Y-128111464D01*
X135393800Y-128111464D01*
X135542459Y-128081894D01*
X135668486Y-127997686D01*
X135752694Y-127871659D01*
X135782264Y-127723000D01*
X135782264Y-126023000D01*
X135752694Y-125874341D01*
X135668486Y-125748314D01*
X135542459Y-125664106D01*
X135393800Y-125634536D01*
X133693800Y-125634536D01*
X133545141Y-125664106D01*
X133419114Y-125748314D01*
X133334906Y-125874341D01*
X133305336Y-126023000D01*
X132916359Y-126023000D01*
X132891301Y-125985499D01*
X132484112Y-125713424D01*
X132125039Y-125642000D01*
X131882561Y-125642000D01*
X131780858Y-125662230D01*
X129146300Y-123027673D01*
X129146300Y-122059635D01*
X129197100Y-121936993D01*
X129197100Y-121649007D01*
X129146300Y-121526365D01*
X129146300Y-116365807D01*
X130670300Y-116365807D01*
X130670300Y-116653793D01*
X130780507Y-116919856D01*
X130984144Y-117123493D01*
X131250207Y-117233700D01*
X131538193Y-117233700D01*
X131804256Y-117123493D01*
X132007893Y-116919856D01*
X132118100Y-116653793D01*
X132118100Y-116365807D01*
X132007893Y-116099744D01*
X131804256Y-115896107D01*
X131538193Y-115785900D01*
X131250207Y-115785900D01*
X130984144Y-115896107D01*
X130780507Y-116099744D01*
X130670300Y-116365807D01*
X129146300Y-116365807D01*
X129146300Y-115172007D01*
X148374100Y-115172007D01*
X148374100Y-115459993D01*
X148484307Y-115726056D01*
X148687944Y-115929693D01*
X148954007Y-116039900D01*
X149241993Y-116039900D01*
X149508056Y-115929693D01*
X149711693Y-115726056D01*
X149821900Y-115459993D01*
X149821900Y-115172007D01*
X149711693Y-114905944D01*
X149508056Y-114702307D01*
X149241993Y-114592100D01*
X148954007Y-114592100D01*
X148687944Y-114702307D01*
X148484307Y-114905944D01*
X148374100Y-115172007D01*
X129146300Y-115172007D01*
X129146300Y-113317807D01*
X130721100Y-113317807D01*
X130721100Y-113605793D01*
X130831307Y-113871856D01*
X131034944Y-114075493D01*
X131301007Y-114185700D01*
X131588993Y-114185700D01*
X131855056Y-114075493D01*
X132058693Y-113871856D01*
X132168900Y-113605793D01*
X132168900Y-113495607D01*
X148170900Y-113495607D01*
X148170900Y-113783593D01*
X148281107Y-114049656D01*
X148484744Y-114253293D01*
X148750807Y-114363500D01*
X149038793Y-114363500D01*
X149304856Y-114253293D01*
X149508493Y-114049656D01*
X149618700Y-113783593D01*
X149618700Y-113495607D01*
X149508493Y-113229544D01*
X149304856Y-113025907D01*
X149038793Y-112915700D01*
X148750807Y-112915700D01*
X148484744Y-113025907D01*
X148281107Y-113229544D01*
X148170900Y-113495607D01*
X132168900Y-113495607D01*
X132168900Y-113317807D01*
X132058693Y-113051744D01*
X131855056Y-112848107D01*
X131588993Y-112737900D01*
X131301007Y-112737900D01*
X131034944Y-112848107D01*
X130831307Y-113051744D01*
X130721100Y-113317807D01*
X129146300Y-113317807D01*
X129146300Y-110269807D01*
X130670300Y-110269807D01*
X130670300Y-110557793D01*
X130780507Y-110823856D01*
X130984144Y-111027493D01*
X131250207Y-111137700D01*
X131538193Y-111137700D01*
X131804256Y-111027493D01*
X132007893Y-110823856D01*
X132118100Y-110557793D01*
X132118100Y-110269807D01*
X132007893Y-110003744D01*
X131804256Y-109800107D01*
X131538193Y-109689900D01*
X131250207Y-109689900D01*
X130984144Y-109800107D01*
X130780507Y-110003744D01*
X130670300Y-110269807D01*
X129146300Y-110269807D01*
X129146300Y-109685607D01*
X136969500Y-109685607D01*
X136969500Y-109973593D01*
X137079707Y-110239656D01*
X137283344Y-110443293D01*
X137549407Y-110553500D01*
X137837393Y-110553500D01*
X138103456Y-110443293D01*
X138307093Y-110239656D01*
X138417300Y-109973593D01*
X138417300Y-109685607D01*
X138307093Y-109419544D01*
X138103456Y-109215907D01*
X137837393Y-109105700D01*
X137549407Y-109105700D01*
X137283344Y-109215907D01*
X137079707Y-109419544D01*
X136969500Y-109685607D01*
X129146300Y-109685607D01*
X129146300Y-109399914D01*
X129171700Y-109338593D01*
X129171700Y-109050607D01*
X129061493Y-108784544D01*
X128857856Y-108580907D01*
X128591793Y-108470700D01*
X128303807Y-108470700D01*
X128037744Y-108580907D01*
X127834107Y-108784544D01*
X127723900Y-109050607D01*
X119557800Y-109050607D01*
X119557800Y-107475807D01*
X140373100Y-107475807D01*
X140373100Y-107763793D01*
X140483307Y-108029856D01*
X140686944Y-108233493D01*
X140953007Y-108343700D01*
X141240993Y-108343700D01*
X141507056Y-108233493D01*
X141710693Y-108029856D01*
X141820900Y-107763793D01*
X141820900Y-107475807D01*
X141710693Y-107209744D01*
X141507056Y-107006107D01*
X141240993Y-106895900D01*
X140953007Y-106895900D01*
X140686944Y-107006107D01*
X140483307Y-107209744D01*
X140373100Y-107475807D01*
X119557800Y-107475807D01*
X119557800Y-106103549D01*
X119663493Y-105997856D01*
X119773700Y-105731793D01*
X119773700Y-105443807D01*
X119663493Y-105177744D01*
X119459856Y-104974107D01*
X119244750Y-104885007D01*
X128638300Y-104885007D01*
X128638300Y-105172993D01*
X128748507Y-105439056D01*
X128952144Y-105642693D01*
X129218207Y-105752900D01*
X129506193Y-105752900D01*
X129772256Y-105642693D01*
X129975893Y-105439056D01*
X129994967Y-105393007D01*
X140373100Y-105393007D01*
X140373100Y-105680993D01*
X140483307Y-105947056D01*
X140686944Y-106150693D01*
X140953007Y-106260900D01*
X141240993Y-106260900D01*
X141507056Y-106150693D01*
X141710693Y-105947056D01*
X141820900Y-105680993D01*
X141820900Y-105393007D01*
X141710693Y-105126944D01*
X141507056Y-104923307D01*
X141240993Y-104813100D01*
X140953007Y-104813100D01*
X140686944Y-104923307D01*
X140483307Y-105126944D01*
X140373100Y-105393007D01*
X129994967Y-105393007D01*
X130086100Y-105172993D01*
X130086100Y-104885007D01*
X129975893Y-104618944D01*
X129772256Y-104415307D01*
X129506193Y-104305100D01*
X129218207Y-104305100D01*
X128952144Y-104415307D01*
X128748507Y-104618944D01*
X128638300Y-104885007D01*
X119244750Y-104885007D01*
X119193793Y-104863900D01*
X118905807Y-104863900D01*
X118639744Y-104974107D01*
X118436107Y-105177744D01*
X118325900Y-105443807D01*
X105676685Y-105443807D01*
X105763312Y-105426576D01*
X106170501Y-105154501D01*
X106442576Y-104747312D01*
X106538116Y-104267000D01*
X106442576Y-103786688D01*
X106170501Y-103379499D01*
X105763312Y-103107424D01*
X105404239Y-103036000D01*
X105161761Y-103036000D01*
X104802688Y-103107424D01*
X104395499Y-103379499D01*
X104123424Y-103786688D01*
X104027884Y-104267000D01*
X103580000Y-104267000D01*
X103580000Y-101727000D01*
X104027884Y-101727000D01*
X104123424Y-102207312D01*
X104395499Y-102614501D01*
X104802688Y-102886576D01*
X105161761Y-102958000D01*
X105404239Y-102958000D01*
X105763312Y-102886576D01*
X105775537Y-102878407D01*
X113779300Y-102878407D01*
X113779300Y-103166393D01*
X113889507Y-103432456D01*
X114093144Y-103636093D01*
X114359207Y-103746300D01*
X114647193Y-103746300D01*
X114913256Y-103636093D01*
X115116893Y-103432456D01*
X115227100Y-103166393D01*
X115227100Y-102878407D01*
X115116893Y-102612344D01*
X114913256Y-102408707D01*
X114647193Y-102298500D01*
X114359207Y-102298500D01*
X114093144Y-102408707D01*
X113889507Y-102612344D01*
X113779300Y-102878407D01*
X105775537Y-102878407D01*
X106170501Y-102614501D01*
X106442576Y-102207312D01*
X106538116Y-101727000D01*
X106442576Y-101246688D01*
X106170501Y-100839499D01*
X105763312Y-100567424D01*
X105404239Y-100496000D01*
X105161761Y-100496000D01*
X104802688Y-100567424D01*
X104395499Y-100839499D01*
X104123424Y-101246688D01*
X104027884Y-101727000D01*
X103580000Y-101727000D01*
X103580000Y-99187000D01*
X104027884Y-99187000D01*
X104123424Y-99667312D01*
X104395499Y-100074501D01*
X104802688Y-100346576D01*
X105161761Y-100418000D01*
X105404239Y-100418000D01*
X105763312Y-100346576D01*
X105889579Y-100262207D01*
X111315500Y-100262207D01*
X111315500Y-100550193D01*
X111425707Y-100816256D01*
X111629344Y-101019893D01*
X111895407Y-101130100D01*
X112183393Y-101130100D01*
X112449456Y-101019893D01*
X112653093Y-100816256D01*
X112763300Y-100550193D01*
X112763300Y-100262207D01*
X112653093Y-99996144D01*
X112449456Y-99792507D01*
X112183393Y-99682300D01*
X111895407Y-99682300D01*
X111629344Y-99792507D01*
X111425707Y-99996144D01*
X111315500Y-100262207D01*
X105889579Y-100262207D01*
X106170501Y-100074501D01*
X106442576Y-99667312D01*
X106538116Y-99187000D01*
X106442576Y-98706688D01*
X106170501Y-98299499D01*
X105763312Y-98027424D01*
X105404239Y-97956000D01*
X105161761Y-97956000D01*
X104802688Y-98027424D01*
X104395499Y-98299499D01*
X104123424Y-98706688D01*
X104027884Y-99187000D01*
X103580000Y-99187000D01*
X103580000Y-93963007D01*
X104051100Y-93963007D01*
X104051100Y-94250993D01*
X104161307Y-94517056D01*
X104364944Y-94720693D01*
X104631007Y-94830900D01*
X104780480Y-94830900D01*
X105904412Y-95954832D01*
X105932753Y-95997247D01*
X106100788Y-96109525D01*
X106248968Y-96139000D01*
X106248972Y-96139000D01*
X106298999Y-96148951D01*
X106349026Y-96139000D01*
X115170839Y-96139000D01*
X115125707Y-96247958D01*
X115125707Y-96535944D01*
X115202181Y-96720569D01*
X115078962Y-96843788D01*
X114968755Y-97109851D01*
X114968755Y-97295962D01*
X114837410Y-97350367D01*
X114633773Y-97554004D01*
X114523566Y-97820067D01*
X114523566Y-98108053D01*
X114633773Y-98374116D01*
X114837410Y-98577753D01*
X115019858Y-98653326D01*
X115019858Y-98783548D01*
X115130065Y-99049611D01*
X115333702Y-99253248D01*
X115375549Y-99270582D01*
X115250296Y-99322463D01*
X115046659Y-99526100D01*
X114936452Y-99792163D01*
X114936452Y-100080149D01*
X115039064Y-100327876D01*
X115003729Y-100363211D01*
X114893522Y-100629274D01*
X114893522Y-100917260D01*
X114993530Y-101158701D01*
X114952382Y-101199849D01*
X114842175Y-101465912D01*
X114842175Y-101753898D01*
X114952382Y-102019961D01*
X115156019Y-102223598D01*
X115422082Y-102333805D01*
X115710068Y-102333805D01*
X115976131Y-102223598D01*
X116179768Y-102019961D01*
X116289975Y-101753898D01*
X116289975Y-101465912D01*
X116189967Y-101224471D01*
X116231115Y-101183323D01*
X116341322Y-100917260D01*
X116341322Y-100629274D01*
X116238710Y-100381547D01*
X116274045Y-100346212D01*
X116384252Y-100080149D01*
X116384252Y-99792163D01*
X116274045Y-99526100D01*
X116070408Y-99322463D01*
X116028561Y-99305129D01*
X116153814Y-99253248D01*
X116357451Y-99049611D01*
X116467658Y-98783548D01*
X116467658Y-98495562D01*
X116457923Y-98472060D01*
X117565640Y-98472060D01*
X122973212Y-103879632D01*
X123001553Y-103922047D01*
X123169588Y-104034325D01*
X123317768Y-104063800D01*
X123317772Y-104063800D01*
X123367800Y-104073751D01*
X123417828Y-104063800D01*
X134688451Y-104063800D01*
X134794144Y-104169493D01*
X135060207Y-104279700D01*
X135348193Y-104279700D01*
X135614256Y-104169493D01*
X135817893Y-103965856D01*
X135928100Y-103699793D01*
X135928100Y-103411807D01*
X135817893Y-103145744D01*
X135719949Y-103047800D01*
X135868693Y-102899056D01*
X135978900Y-102632993D01*
X135978900Y-102345007D01*
X135868693Y-102078944D01*
X135665056Y-101875307D01*
X135398993Y-101765100D01*
X135249520Y-101765100D01*
X134919320Y-101434900D01*
X135043393Y-101434900D01*
X135309456Y-101324693D01*
X135513093Y-101121056D01*
X135623300Y-100854993D01*
X135623300Y-100567007D01*
X135513093Y-100300944D01*
X135309456Y-100097307D01*
X135043393Y-99987100D01*
X134755407Y-99987100D01*
X134489344Y-100097307D01*
X134285707Y-100300944D01*
X134175500Y-100567007D01*
X134175500Y-100691080D01*
X134023987Y-100539567D01*
X133995647Y-100497153D01*
X133827612Y-100384875D01*
X133679432Y-100355400D01*
X133679428Y-100355400D01*
X133629400Y-100345449D01*
X133579372Y-100355400D01*
X121460572Y-100355400D01*
X118035183Y-96930012D01*
X118006842Y-96887597D01*
X117838807Y-96775319D01*
X117690627Y-96745844D01*
X117690623Y-96745844D01*
X117640595Y-96735893D01*
X117590567Y-96745844D01*
X116486563Y-96745844D01*
X116573507Y-96535944D01*
X116573507Y-96247958D01*
X116528375Y-96139000D01*
X117264580Y-96139000D01*
X120699904Y-99574325D01*
X120728243Y-99616737D01*
X120770655Y-99645076D01*
X120770657Y-99645078D01*
X120855620Y-99701848D01*
X120896278Y-99729015D01*
X121044458Y-99758490D01*
X121044462Y-99758490D01*
X121094490Y-99768441D01*
X121144518Y-99758490D01*
X122167207Y-99758490D01*
X122272900Y-99864183D01*
X122538963Y-99974390D01*
X122826949Y-99974390D01*
X123093012Y-99864183D01*
X123102063Y-99855133D01*
X123132047Y-99885117D01*
X123398110Y-99995324D01*
X123686096Y-99995324D01*
X123923545Y-99896970D01*
X123968343Y-99941768D01*
X124234406Y-100051975D01*
X124522392Y-100051975D01*
X124788455Y-99941768D01*
X124992092Y-99738131D01*
X125102299Y-99472068D01*
X125102299Y-99184082D01*
X125070163Y-99106497D01*
X125768305Y-99106497D01*
X125768305Y-99394483D01*
X125878512Y-99660546D01*
X126082149Y-99864183D01*
X126348212Y-99974390D01*
X126636198Y-99974390D01*
X126902261Y-99864183D01*
X126995244Y-99771200D01*
X134409051Y-99771200D01*
X134489344Y-99851493D01*
X134755407Y-99961700D01*
X135043393Y-99961700D01*
X135309456Y-99851493D01*
X135513093Y-99647856D01*
X135623300Y-99381793D01*
X135623300Y-99093807D01*
X135513093Y-98827744D01*
X135309456Y-98624107D01*
X135043393Y-98513900D01*
X134755407Y-98513900D01*
X134489344Y-98624107D01*
X134409051Y-98704400D01*
X130963086Y-98704400D01*
X130997520Y-98669966D01*
X131107727Y-98403903D01*
X131107727Y-98115917D01*
X130997520Y-97849854D01*
X130793883Y-97646217D01*
X130527820Y-97536010D01*
X130239834Y-97536010D01*
X129973771Y-97646217D01*
X129770134Y-97849854D01*
X129659927Y-98115917D01*
X129659927Y-98403903D01*
X129770134Y-98669966D01*
X129804568Y-98704400D01*
X126969864Y-98704400D01*
X126902261Y-98636797D01*
X126636198Y-98526590D01*
X126348212Y-98526590D01*
X126082149Y-98636797D01*
X125878512Y-98840434D01*
X125768305Y-99106497D01*
X125070163Y-99106497D01*
X124992092Y-98918019D01*
X124891169Y-98817096D01*
X124886399Y-98793114D01*
X124886399Y-98793110D01*
X124856924Y-98644930D01*
X124848174Y-98631835D01*
X124772987Y-98519309D01*
X124772985Y-98519307D01*
X124744646Y-98476895D01*
X124702234Y-98448556D01*
X124541865Y-98288187D01*
X124692256Y-98225893D01*
X124895893Y-98022256D01*
X125006100Y-97756193D01*
X125006100Y-97468207D01*
X124964016Y-97366607D01*
X126149100Y-97366607D01*
X126149100Y-97654593D01*
X126259307Y-97920656D01*
X126462944Y-98124293D01*
X126729007Y-98234500D01*
X127016993Y-98234500D01*
X127283056Y-98124293D01*
X127486693Y-97920656D01*
X127596900Y-97654593D01*
X127596900Y-97366607D01*
X127486693Y-97100544D01*
X127283056Y-96896907D01*
X127016993Y-96786700D01*
X126729007Y-96786700D01*
X126462944Y-96896907D01*
X126259307Y-97100544D01*
X126149100Y-97366607D01*
X124964016Y-97366607D01*
X124895893Y-97202144D01*
X124692256Y-96998507D01*
X124426193Y-96888300D01*
X124138207Y-96888300D01*
X123872144Y-96998507D01*
X123668507Y-97202144D01*
X123606213Y-97352536D01*
X123592844Y-97339167D01*
X123564504Y-97296753D01*
X123396469Y-97184475D01*
X123248289Y-97155000D01*
X123248285Y-97155000D01*
X123198257Y-97145049D01*
X123148229Y-97155000D01*
X122729653Y-97155000D01*
X122965056Y-97057493D01*
X123168693Y-96853856D01*
X123278900Y-96587793D01*
X123278900Y-96363297D01*
X130975100Y-96363297D01*
X130975100Y-96651283D01*
X131085307Y-96917346D01*
X131288944Y-97120983D01*
X131555007Y-97231190D01*
X131842993Y-97231190D01*
X132109056Y-97120983D01*
X132312693Y-96917346D01*
X132422900Y-96651283D01*
X132422900Y-96363297D01*
X132312693Y-96097234D01*
X132109056Y-95893597D01*
X131842993Y-95783390D01*
X131555007Y-95783390D01*
X131288944Y-95893597D01*
X131085307Y-96097234D01*
X130975100Y-96363297D01*
X123278900Y-96363297D01*
X123278900Y-96299807D01*
X123168693Y-96033744D01*
X123063000Y-95928051D01*
X123063000Y-94013807D01*
X123355100Y-94013807D01*
X123355100Y-94301793D01*
X123465307Y-94567856D01*
X123668944Y-94771493D01*
X123935007Y-94881700D01*
X124222993Y-94881700D01*
X124489056Y-94771493D01*
X124692693Y-94567856D01*
X124802900Y-94301793D01*
X124802900Y-94013807D01*
X124692693Y-93747744D01*
X124501556Y-93556607D01*
X126606300Y-93556607D01*
X126606300Y-93844593D01*
X126716507Y-94110656D01*
X126920144Y-94314293D01*
X127186207Y-94424500D01*
X127474193Y-94424500D01*
X127740256Y-94314293D01*
X127943893Y-94110656D01*
X128054100Y-93844593D01*
X128054100Y-93688117D01*
X131381500Y-93688117D01*
X131381500Y-93976103D01*
X131491707Y-94242166D01*
X131695344Y-94445803D01*
X131961407Y-94556010D01*
X132249393Y-94556010D01*
X132515456Y-94445803D01*
X132719093Y-94242166D01*
X132792640Y-94064607D01*
X134175500Y-94064607D01*
X134175500Y-94352593D01*
X134285707Y-94618656D01*
X134489344Y-94822293D01*
X134755407Y-94932500D01*
X135043393Y-94932500D01*
X135309456Y-94822293D01*
X135513093Y-94618656D01*
X135623300Y-94352593D01*
X135623300Y-94064607D01*
X135513093Y-93798544D01*
X135309456Y-93594907D01*
X135043393Y-93484700D01*
X134755407Y-93484700D01*
X134489344Y-93594907D01*
X134285707Y-93798544D01*
X134175500Y-94064607D01*
X132792640Y-94064607D01*
X132829300Y-93976103D01*
X132829300Y-93688117D01*
X132719093Y-93422054D01*
X132515456Y-93218417D01*
X132249393Y-93108210D01*
X131961407Y-93108210D01*
X131695344Y-93218417D01*
X131491707Y-93422054D01*
X131381500Y-93688117D01*
X128054100Y-93688117D01*
X128054100Y-93556607D01*
X127943893Y-93290544D01*
X127740256Y-93086907D01*
X127474193Y-92976700D01*
X127186207Y-92976700D01*
X126920144Y-93086907D01*
X126716507Y-93290544D01*
X126606300Y-93556607D01*
X124501556Y-93556607D01*
X124489056Y-93544107D01*
X124222993Y-93433900D01*
X123935007Y-93433900D01*
X123668944Y-93544107D01*
X123465307Y-93747744D01*
X123355100Y-94013807D01*
X123063000Y-94013807D01*
X123063000Y-83482334D01*
X123173007Y-83527900D01*
X123460993Y-83527900D01*
X123727056Y-83417693D01*
X123930693Y-83214056D01*
X124040900Y-82947993D01*
X124040900Y-82660007D01*
X123930693Y-82393944D01*
X123727056Y-82190307D01*
X123460993Y-82080100D01*
X123173007Y-82080100D01*
X123063000Y-82125666D01*
X123063000Y-79739007D01*
X131483100Y-79739007D01*
X131483100Y-80026993D01*
X131593307Y-80293056D01*
X131796944Y-80496693D01*
X132063007Y-80606900D01*
X132350993Y-80606900D01*
X132617056Y-80496693D01*
X132820693Y-80293056D01*
X132930900Y-80026993D01*
X132930900Y-79739007D01*
X133515100Y-79739007D01*
X133515100Y-80026993D01*
X133625307Y-80293056D01*
X133828944Y-80496693D01*
X134095007Y-80606900D01*
X134382993Y-80606900D01*
X134649056Y-80496693D01*
X134852693Y-80293056D01*
X134962900Y-80026993D01*
X134962900Y-79739007D01*
X135547100Y-79739007D01*
X135547100Y-80026993D01*
X135657307Y-80293056D01*
X135860944Y-80496693D01*
X136127007Y-80606900D01*
X136414993Y-80606900D01*
X136681056Y-80496693D01*
X136884693Y-80293056D01*
X136994900Y-80026993D01*
X136994900Y-79739007D01*
X138087100Y-79739007D01*
X138087100Y-80026993D01*
X138197307Y-80293056D01*
X138400944Y-80496693D01*
X138667007Y-80606900D01*
X138954993Y-80606900D01*
X139221056Y-80496693D01*
X139424693Y-80293056D01*
X139534900Y-80026993D01*
X139534900Y-79739007D01*
X140627100Y-79739007D01*
X140627100Y-80026993D01*
X140737307Y-80293056D01*
X140940944Y-80496693D01*
X141207007Y-80606900D01*
X141494993Y-80606900D01*
X141761056Y-80496693D01*
X141964693Y-80293056D01*
X142074900Y-80026993D01*
X142074900Y-79739007D01*
X143167100Y-79739007D01*
X143167100Y-80026993D01*
X143277307Y-80293056D01*
X143480944Y-80496693D01*
X143747007Y-80606900D01*
X144034993Y-80606900D01*
X144301056Y-80496693D01*
X144504693Y-80293056D01*
X144614900Y-80026993D01*
X144614900Y-79739007D01*
X145707100Y-79739007D01*
X145707100Y-80026993D01*
X145817307Y-80293056D01*
X146020944Y-80496693D01*
X146287007Y-80606900D01*
X146574993Y-80606900D01*
X146841056Y-80496693D01*
X147044693Y-80293056D01*
X147154900Y-80026993D01*
X147154900Y-79739007D01*
X147044693Y-79472944D01*
X146841056Y-79269307D01*
X146574993Y-79159100D01*
X146287007Y-79159100D01*
X146020944Y-79269307D01*
X145817307Y-79472944D01*
X145707100Y-79739007D01*
X144614900Y-79739007D01*
X144504693Y-79472944D01*
X144301056Y-79269307D01*
X144034993Y-79159100D01*
X143747007Y-79159100D01*
X143480944Y-79269307D01*
X143277307Y-79472944D01*
X143167100Y-79739007D01*
X142074900Y-79739007D01*
X141964693Y-79472944D01*
X141761056Y-79269307D01*
X141494993Y-79159100D01*
X141207007Y-79159100D01*
X140940944Y-79269307D01*
X140737307Y-79472944D01*
X140627100Y-79739007D01*
X139534900Y-79739007D01*
X139424693Y-79472944D01*
X139221056Y-79269307D01*
X138954993Y-79159100D01*
X138667007Y-79159100D01*
X138400944Y-79269307D01*
X138197307Y-79472944D01*
X138087100Y-79739007D01*
X136994900Y-79739007D01*
X136884693Y-79472944D01*
X136681056Y-79269307D01*
X136414993Y-79159100D01*
X136127007Y-79159100D01*
X135860944Y-79269307D01*
X135657307Y-79472944D01*
X135547100Y-79739007D01*
X134962900Y-79739007D01*
X134852693Y-79472944D01*
X134649056Y-79269307D01*
X134382993Y-79159100D01*
X134095007Y-79159100D01*
X133828944Y-79269307D01*
X133625307Y-79472944D01*
X133515100Y-79739007D01*
X132930900Y-79739007D01*
X132820693Y-79472944D01*
X132617056Y-79269307D01*
X132350993Y-79159100D01*
X132063007Y-79159100D01*
X131796944Y-79269307D01*
X131593307Y-79472944D01*
X131483100Y-79739007D01*
X123063000Y-79739007D01*
X123063000Y-76885026D01*
X123072951Y-76834999D01*
X123063000Y-76784972D01*
X123063000Y-76784968D01*
X123033525Y-76636788D01*
X122921247Y-76468753D01*
X122878832Y-76440412D01*
X120843427Y-74405007D01*
X127038100Y-74405007D01*
X127038100Y-74692993D01*
X127148307Y-74959056D01*
X127351944Y-75162693D01*
X127618007Y-75272900D01*
X127905993Y-75272900D01*
X128172056Y-75162693D01*
X128375693Y-74959056D01*
X128485900Y-74692993D01*
X128485900Y-74405007D01*
X128375693Y-74138944D01*
X128172056Y-73935307D01*
X127905993Y-73825100D01*
X127618007Y-73825100D01*
X127351944Y-73935307D01*
X127148307Y-74138944D01*
X127038100Y-74405007D01*
X120843427Y-74405007D01*
X118938427Y-72500007D01*
X127038100Y-72500007D01*
X127038100Y-72787993D01*
X127148307Y-73054056D01*
X127351944Y-73257693D01*
X127618007Y-73367900D01*
X127905993Y-73367900D01*
X128172056Y-73257693D01*
X128375693Y-73054056D01*
X128485900Y-72787993D01*
X128485900Y-72500007D01*
X128375693Y-72233944D01*
X128172056Y-72030307D01*
X127905993Y-71920100D01*
X127618007Y-71920100D01*
X127351944Y-72030307D01*
X127148307Y-72233944D01*
X127038100Y-72500007D01*
X118938427Y-72500007D01*
X117160427Y-70722007D01*
X127038100Y-70722007D01*
X127038100Y-71009993D01*
X127148307Y-71276056D01*
X127351944Y-71479693D01*
X127618007Y-71589900D01*
X127905993Y-71589900D01*
X128172056Y-71479693D01*
X128375693Y-71276056D01*
X128485900Y-71009993D01*
X128485900Y-70722007D01*
X128375693Y-70455944D01*
X128172056Y-70252307D01*
X127905993Y-70142100D01*
X127618007Y-70142100D01*
X127351944Y-70252307D01*
X127148307Y-70455944D01*
X127038100Y-70722007D01*
X117160427Y-70722007D01*
X116573300Y-70134880D01*
X116573300Y-69985407D01*
X116463093Y-69719344D01*
X116259456Y-69515707D01*
X115993393Y-69405500D01*
X115705407Y-69405500D01*
X115439344Y-69515707D01*
X115235707Y-69719344D01*
X115125500Y-69985407D01*
X115125500Y-70273393D01*
X115235707Y-70539456D01*
X115439344Y-70743093D01*
X115705407Y-70853300D01*
X115854880Y-70853300D01*
X115931080Y-70929500D01*
X115705407Y-70929500D01*
X115439344Y-71039707D01*
X115235707Y-71243344D01*
X115125500Y-71509407D01*
X115125500Y-71797393D01*
X115235707Y-72063456D01*
X115439344Y-72267093D01*
X115705407Y-72377300D01*
X115854880Y-72377300D01*
X121031001Y-77553421D01*
X121031000Y-92784845D01*
X121019188Y-92767167D01*
X121019186Y-92767165D01*
X120990847Y-92724753D01*
X120948435Y-92696414D01*
X119254136Y-91002115D01*
X119299486Y-91020900D01*
X119587472Y-91020900D01*
X119853535Y-90910693D01*
X120057172Y-90707056D01*
X120167379Y-90440993D01*
X120167379Y-90153007D01*
X120057172Y-89886944D01*
X119853535Y-89683307D01*
X119587472Y-89573100D01*
X119299486Y-89573100D01*
X119033423Y-89683307D01*
X118829786Y-89886944D01*
X118719579Y-90153007D01*
X118719579Y-90440993D01*
X118738364Y-90486343D01*
X115087400Y-86835380D01*
X115087400Y-68968220D01*
X115340213Y-68715407D01*
X116954300Y-68715407D01*
X116954300Y-69003393D01*
X117064507Y-69269456D01*
X117268144Y-69473093D01*
X117534207Y-69583300D01*
X117822193Y-69583300D01*
X118088256Y-69473093D01*
X118291893Y-69269456D01*
X118374093Y-69071007D01*
X127038100Y-69071007D01*
X127038100Y-69358993D01*
X127148307Y-69625056D01*
X127351944Y-69828693D01*
X127618007Y-69938900D01*
X127905993Y-69938900D01*
X128172056Y-69828693D01*
X128375693Y-69625056D01*
X128485900Y-69358993D01*
X128485900Y-69071007D01*
X128375693Y-68804944D01*
X128172056Y-68601307D01*
X127905993Y-68491100D01*
X127618007Y-68491100D01*
X127351944Y-68601307D01*
X127148307Y-68804944D01*
X127038100Y-69071007D01*
X118374093Y-69071007D01*
X118402100Y-69003393D01*
X118402100Y-68715407D01*
X118291893Y-68449344D01*
X118088256Y-68245707D01*
X117822193Y-68135500D01*
X117534207Y-68135500D01*
X117268144Y-68245707D01*
X117064507Y-68449344D01*
X116954300Y-68715407D01*
X115340213Y-68715407D01*
X118703748Y-65351872D01*
X119030161Y-65416800D01*
X119272639Y-65416800D01*
X119631712Y-65345376D01*
X120038901Y-65073301D01*
X120310976Y-64666112D01*
X120406516Y-64185800D01*
X120436284Y-64185800D01*
X120531824Y-64666112D01*
X120803899Y-65073301D01*
X121211088Y-65345376D01*
X121570161Y-65416800D01*
X121812639Y-65416800D01*
X122171712Y-65345376D01*
X122578901Y-65073301D01*
X122850976Y-64666112D01*
X122946516Y-64185800D01*
X122850976Y-63705488D01*
X122578901Y-63298299D01*
X122171712Y-63026224D01*
X121812639Y-62954800D01*
X121570161Y-62954800D01*
X121211088Y-63026224D01*
X120803899Y-63298299D01*
X120531824Y-63705488D01*
X120436284Y-64185800D01*
X120406516Y-64185800D01*
X120310976Y-63705488D01*
X120038901Y-63298299D01*
X119631712Y-63026224D01*
X119272639Y-62954800D01*
X119030161Y-62954800D01*
X118671088Y-63026224D01*
X118263899Y-63298299D01*
X117991824Y-63705488D01*
X117896284Y-64185800D01*
X117985328Y-64633452D01*
X114579400Y-68039380D01*
X114579400Y-65326875D01*
X114958901Y-65073301D01*
X115230976Y-64666112D01*
X115326516Y-64185800D01*
X115230976Y-63705488D01*
X114958901Y-63298299D01*
X114551712Y-63026224D01*
X114192639Y-62954800D01*
X113950161Y-62954800D01*
X113591088Y-63026224D01*
X113183899Y-63298299D01*
X112911824Y-63705488D01*
X112816284Y-64185800D01*
X112911824Y-64666112D01*
X113183899Y-65073301D01*
X113563401Y-65326876D01*
X113563400Y-87062523D01*
X113553449Y-87112551D01*
X113563400Y-87162579D01*
X113563400Y-87162582D01*
X113592875Y-87310762D01*
X113705153Y-87478798D01*
X113747568Y-87507139D01*
X114035529Y-87795100D01*
X114029007Y-87795100D01*
X113762944Y-87905307D01*
X113559307Y-88108944D01*
X113449100Y-88375007D01*
X113449100Y-88662993D01*
X113559307Y-88929056D01*
X113762944Y-89132693D01*
X114029007Y-89242900D01*
X114316993Y-89242900D01*
X114583056Y-89132693D01*
X114786693Y-88929056D01*
X114896900Y-88662993D01*
X114896900Y-88656471D01*
X119303801Y-93063372D01*
X119303800Y-94353251D01*
X119198107Y-94458944D01*
X119155713Y-94561293D01*
X118377588Y-93783168D01*
X118349247Y-93740753D01*
X118181212Y-93628475D01*
X118033032Y-93599000D01*
X118033028Y-93599000D01*
X117983000Y-93589049D01*
X117932972Y-93599000D01*
X108338749Y-93599000D01*
X108233056Y-93493307D01*
X107966993Y-93383100D01*
X107679007Y-93383100D01*
X107412944Y-93493307D01*
X107209307Y-93696944D01*
X107099100Y-93963007D01*
X107099100Y-94188680D01*
X107022900Y-94112480D01*
X107022900Y-93963007D01*
X106912693Y-93696944D01*
X106709056Y-93493307D01*
X106442993Y-93383100D01*
X106155007Y-93383100D01*
X105888944Y-93493307D01*
X105685307Y-93696944D01*
X105575100Y-93963007D01*
X105575100Y-94188680D01*
X105498900Y-94112480D01*
X105498900Y-93963007D01*
X105388693Y-93696944D01*
X105185056Y-93493307D01*
X104918993Y-93383100D01*
X104631007Y-93383100D01*
X104364944Y-93493307D01*
X104161307Y-93696944D01*
X104051100Y-93963007D01*
X103580000Y-93963007D01*
X103580000Y-91169007D01*
X109169189Y-91169007D01*
X109169189Y-91456993D01*
X109279396Y-91723056D01*
X109483033Y-91926693D01*
X109749096Y-92036900D01*
X110037082Y-92036900D01*
X110303145Y-91926693D01*
X110506782Y-91723056D01*
X110616989Y-91456993D01*
X110616989Y-91169007D01*
X110506782Y-90902944D01*
X110303145Y-90699307D01*
X110037082Y-90589100D01*
X109749096Y-90589100D01*
X109483033Y-90699307D01*
X109279396Y-90902944D01*
X109169189Y-91169007D01*
X103580000Y-91169007D01*
X103580000Y-89645007D01*
X109169189Y-89645007D01*
X109169189Y-89932993D01*
X109279396Y-90199056D01*
X109483033Y-90402693D01*
X109749096Y-90512900D01*
X110037082Y-90512900D01*
X110303145Y-90402693D01*
X110506782Y-90199056D01*
X110616989Y-89932993D01*
X110616989Y-89645007D01*
X110506782Y-89378944D01*
X110303145Y-89175307D01*
X110037082Y-89065100D01*
X109749096Y-89065100D01*
X109483033Y-89175307D01*
X109279396Y-89378944D01*
X109169189Y-89645007D01*
X103580000Y-89645007D01*
X103580000Y-83693000D01*
X103900884Y-83693000D01*
X103996424Y-84173312D01*
X104268499Y-84580501D01*
X104675688Y-84852576D01*
X105034761Y-84924000D01*
X105277239Y-84924000D01*
X105636312Y-84852576D01*
X106043501Y-84580501D01*
X106315576Y-84173312D01*
X106411116Y-83693000D01*
X106315576Y-83212688D01*
X106043501Y-82805499D01*
X105636312Y-82533424D01*
X105277239Y-82462000D01*
X105034761Y-82462000D01*
X104675688Y-82533424D01*
X104268499Y-82805499D01*
X103996424Y-83212688D01*
X103900884Y-83693000D01*
X103580000Y-83693000D01*
X103580000Y-81153000D01*
X103900884Y-81153000D01*
X103996424Y-81633312D01*
X104268499Y-82040501D01*
X104675688Y-82312576D01*
X105034761Y-82384000D01*
X105277239Y-82384000D01*
X105636312Y-82312576D01*
X106043501Y-82040501D01*
X106315576Y-81633312D01*
X106411116Y-81153000D01*
X106315576Y-80672688D01*
X106043501Y-80265499D01*
X105636312Y-79993424D01*
X105277239Y-79922000D01*
X105034761Y-79922000D01*
X104675688Y-79993424D01*
X104268499Y-80265499D01*
X103996424Y-80672688D01*
X103900884Y-81153000D01*
X103580000Y-81153000D01*
X103580000Y-77763000D01*
X103917536Y-77763000D01*
X103917536Y-79463000D01*
X103947106Y-79611659D01*
X104031314Y-79737686D01*
X104157341Y-79821894D01*
X104306000Y-79851464D01*
X106006000Y-79851464D01*
X106154659Y-79821894D01*
X106280686Y-79737686D01*
X106364894Y-79611659D01*
X106394464Y-79463000D01*
X106394464Y-77763000D01*
X106364894Y-77614341D01*
X106280686Y-77488314D01*
X106154659Y-77404106D01*
X106006000Y-77374536D01*
X104306000Y-77374536D01*
X104157341Y-77404106D01*
X104031314Y-77488314D01*
X103947106Y-77614341D01*
X103917536Y-77763000D01*
X103580000Y-77763000D01*
X103580000Y-68766207D01*
X110909100Y-68766207D01*
X110909100Y-69054193D01*
X111019307Y-69320256D01*
X111222944Y-69523893D01*
X111489007Y-69634100D01*
X111776993Y-69634100D01*
X112043056Y-69523893D01*
X112246693Y-69320256D01*
X112356900Y-69054193D01*
X112356900Y-68766207D01*
X112246693Y-68500144D01*
X112043056Y-68296507D01*
X111776993Y-68186300D01*
X111489007Y-68186300D01*
X111222944Y-68296507D01*
X111019307Y-68500144D01*
X110909100Y-68766207D01*
X103580000Y-68766207D01*
X103580000Y-63335800D01*
X110292936Y-63335800D01*
X110292936Y-65035800D01*
X110322506Y-65184459D01*
X110406714Y-65310486D01*
X110532741Y-65394694D01*
X110681400Y-65424264D01*
X112381400Y-65424264D01*
X112530059Y-65394694D01*
X112656086Y-65310486D01*
X112740294Y-65184459D01*
X112769864Y-65035800D01*
X112769864Y-63335800D01*
X112740294Y-63187141D01*
X112656086Y-63061114D01*
X112530059Y-62976906D01*
X112381400Y-62947336D01*
X110681400Y-62947336D01*
X110532741Y-62976906D01*
X110406714Y-63061114D01*
X110322506Y-63187141D01*
X110292936Y-63335800D01*
X103580000Y-63335800D01*
X103580000Y-62559000D01*
X156210000Y-62559000D01*
X156210000Y-85661500D01*
G36*
X147301382Y-101646741D02*
X147240144Y-101672107D01*
X147036507Y-101875744D01*
X146926300Y-102141807D01*
X146926300Y-102429793D01*
X147036507Y-102695856D01*
X147240144Y-102899493D01*
X147506207Y-103009700D01*
X147794193Y-103009700D01*
X148060256Y-102899493D01*
X148263893Y-102695856D01*
X148289259Y-102634618D01*
X149858909Y-104204269D01*
X149897878Y-104262590D01*
X150128927Y-104416972D01*
X150332674Y-104457500D01*
X150332678Y-104457500D01*
X150401467Y-104471183D01*
X150470256Y-104457500D01*
X152626486Y-104457500D01*
X152687807Y-104482900D01*
X152975793Y-104482900D01*
X153241856Y-104372693D01*
X153445493Y-104169056D01*
X153555700Y-103902993D01*
X153555700Y-103615007D01*
X153445493Y-103348944D01*
X153241856Y-103145307D01*
X152975793Y-103035100D01*
X152687807Y-103035100D01*
X152626486Y-103060500D01*
X152598928Y-103060500D01*
X152776590Y-102941790D01*
X152815560Y-102883467D01*
X153180536Y-102518493D01*
X153241856Y-102493093D01*
X153445493Y-102289456D01*
X153555700Y-102023393D01*
X153555700Y-101735407D01*
X153445493Y-101469344D01*
X153241856Y-101265707D01*
X152975793Y-101155500D01*
X152687807Y-101155500D01*
X152421744Y-101265707D01*
X152218107Y-101469344D01*
X152192707Y-101530664D01*
X152184100Y-101539272D01*
X152184100Y-101379807D01*
X152073893Y-101113744D01*
X151870256Y-100910107D01*
X151849474Y-100901499D01*
X156210000Y-100901499D01*
X156210000Y-111239300D01*
X154416519Y-111239300D01*
X149417984Y-106240765D01*
X149600632Y-106058117D01*
X149710839Y-105792054D01*
X149710839Y-105504068D01*
X149600632Y-105238005D01*
X149396995Y-105034368D01*
X149130932Y-104924161D01*
X148842946Y-104924161D01*
X148576883Y-105034368D01*
X148394234Y-105217017D01*
X143697717Y-100520500D01*
X146175141Y-100520500D01*
X147301382Y-101646741D01*
X147301382Y-101646741D01*
G37*
X147301382Y-101646741D02*
X147240144Y-101672107D01*
X147036507Y-101875744D01*
X146926300Y-102141807D01*
X146926300Y-102429793D01*
X147036507Y-102695856D01*
X147240144Y-102899493D01*
X147506207Y-103009700D01*
X147794193Y-103009700D01*
X148060256Y-102899493D01*
X148263893Y-102695856D01*
X148289259Y-102634618D01*
X149858909Y-104204269D01*
X149897878Y-104262590D01*
X150128927Y-104416972D01*
X150332674Y-104457500D01*
X150332678Y-104457500D01*
X150401467Y-104471183D01*
X150470256Y-104457500D01*
X152626486Y-104457500D01*
X152687807Y-104482900D01*
X152975793Y-104482900D01*
X153241856Y-104372693D01*
X153445493Y-104169056D01*
X153555700Y-103902993D01*
X153555700Y-103615007D01*
X153445493Y-103348944D01*
X153241856Y-103145307D01*
X152975793Y-103035100D01*
X152687807Y-103035100D01*
X152626486Y-103060500D01*
X152598928Y-103060500D01*
X152776590Y-102941790D01*
X152815560Y-102883467D01*
X153180536Y-102518493D01*
X153241856Y-102493093D01*
X153445493Y-102289456D01*
X153555700Y-102023393D01*
X153555700Y-101735407D01*
X153445493Y-101469344D01*
X153241856Y-101265707D01*
X152975793Y-101155500D01*
X152687807Y-101155500D01*
X152421744Y-101265707D01*
X152218107Y-101469344D01*
X152192707Y-101530664D01*
X152184100Y-101539272D01*
X152184100Y-101379807D01*
X152073893Y-101113744D01*
X151870256Y-100910107D01*
X151849474Y-100901499D01*
X156210000Y-100901499D01*
X156210000Y-111239300D01*
X154416519Y-111239300D01*
X149417984Y-106240765D01*
X149600632Y-106058117D01*
X149710839Y-105792054D01*
X149710839Y-105504068D01*
X149600632Y-105238005D01*
X149396995Y-105034368D01*
X149130932Y-104924161D01*
X148842946Y-104924161D01*
X148576883Y-105034368D01*
X148394234Y-105217017D01*
X143697717Y-100520500D01*
X146175141Y-100520500D01*
X147301382Y-101646741D01*
G36*
X156210000Y-99504499D02*
X149474197Y-99504499D01*
X147746209Y-97776512D01*
X147707239Y-97718189D01*
X147476190Y-97563807D01*
X147272443Y-97523279D01*
X147272439Y-97523279D01*
X147203649Y-97509596D01*
X147134859Y-97523279D01*
X144612148Y-97523279D01*
X146648420Y-95487007D01*
X147739100Y-95487007D01*
X147739100Y-95774993D01*
X147849307Y-96041056D01*
X148052944Y-96244693D01*
X148319007Y-96354900D01*
X148606993Y-96354900D01*
X148873056Y-96244693D01*
X149076693Y-96041056D01*
X149186900Y-95774993D01*
X149186900Y-95487007D01*
X149076693Y-95220944D01*
X148873056Y-95017307D01*
X148606993Y-94907100D01*
X148319007Y-94907100D01*
X148052944Y-95017307D01*
X147849307Y-95220944D01*
X147739100Y-95487007D01*
X146648420Y-95487007D01*
X153078937Y-89056492D01*
X153140256Y-89031093D01*
X153343893Y-88827456D01*
X153454100Y-88561393D01*
X153454100Y-88273407D01*
X153343893Y-88007344D01*
X153140256Y-87803707D01*
X153038281Y-87761468D01*
X153140693Y-87659056D01*
X153250900Y-87392993D01*
X153250900Y-87105007D01*
X153231636Y-87058500D01*
X156210000Y-87058500D01*
X156210000Y-99504499D01*
X156210000Y-99504499D01*
G37*
X156210000Y-99504499D02*
X149474197Y-99504499D01*
X147746209Y-97776512D01*
X147707239Y-97718189D01*
X147476190Y-97563807D01*
X147272443Y-97523279D01*
X147272439Y-97523279D01*
X147203649Y-97509596D01*
X147134859Y-97523279D01*
X144612148Y-97523279D01*
X146648420Y-95487007D01*
X147739100Y-95487007D01*
X147739100Y-95774993D01*
X147849307Y-96041056D01*
X148052944Y-96244693D01*
X148319007Y-96354900D01*
X148606993Y-96354900D01*
X148873056Y-96244693D01*
X149076693Y-96041056D01*
X149186900Y-95774993D01*
X149186900Y-95487007D01*
X149076693Y-95220944D01*
X148873056Y-95017307D01*
X148606993Y-94907100D01*
X148319007Y-94907100D01*
X148052944Y-95017307D01*
X147849307Y-95220944D01*
X147739100Y-95487007D01*
X146648420Y-95487007D01*
X153078937Y-89056492D01*
X153140256Y-89031093D01*
X153343893Y-88827456D01*
X153454100Y-88561393D01*
X153454100Y-88273407D01*
X153343893Y-88007344D01*
X153140256Y-87803707D01*
X153038281Y-87761468D01*
X153140693Y-87659056D01*
X153250900Y-87392993D01*
X153250900Y-87105007D01*
X153231636Y-87058500D01*
X156210000Y-87058500D01*
X156210000Y-99504499D01*
G04 #@! TD*
M02*
