G04 #@! TF.GenerationSoftware,KiCad,Pcbnew,5.0.2-bee76a0~70~ubuntu18.04.1*
G04 #@! TF.CreationDate,2019-03-01T11:09:08-06:00*
G04 #@! TF.ProjectId,MotorDriverXL,4d6f746f-7244-4726-9976-6572584c2e6b,V1.0*
G04 #@! TF.SameCoordinates,Original*
G04 #@! TF.FileFunction,Legend,Top*
G04 #@! TF.FilePolarity,Positive*
%FSLAX46Y46*%
G04 Gerber Fmt 4.6, Leading zero omitted, Abs format (unit mm)*
G04 Created by KiCad (PCBNEW 5.0.2-bee76a0~70~ubuntu18.04.1) date Fri 01 Mar 2019 11:09:08 AM CST*
%MOMM*%
%LPD*%
G01*
G04 APERTURE LIST*
%ADD10C,0.120000*%
%ADD11C,0.100000*%
%ADD12C,0.150000*%
G04 APERTURE END LIST*
D10*
G04 #@! TO.C,TP18*
X141167000Y-66605000D02*
X141167000Y-64205000D01*
X143567000Y-66605000D02*
X141167000Y-66605000D01*
X143567000Y-64205000D02*
X143567000Y-66605000D01*
X141167000Y-64205000D02*
X143567000Y-64205000D01*
G04 #@! TO.C,TP17*
X167837000Y-113214000D02*
X167837000Y-110814000D01*
X170237000Y-113214000D02*
X167837000Y-113214000D01*
X170237000Y-110814000D02*
X170237000Y-113214000D01*
X167837000Y-110814000D02*
X170237000Y-110814000D01*
G04 #@! TO.C,TP16*
X167964000Y-69907000D02*
X167964000Y-67507000D01*
X170364000Y-69907000D02*
X167964000Y-69907000D01*
X170364000Y-67507000D02*
X170364000Y-69907000D01*
X167964000Y-67507000D02*
X170364000Y-67507000D01*
G04 #@! TO.C,TP12*
X167837000Y-98228000D02*
X167837000Y-95828000D01*
X170237000Y-98228000D02*
X167837000Y-98228000D01*
X170237000Y-95828000D02*
X170237000Y-98228000D01*
X167837000Y-95828000D02*
X170237000Y-95828000D01*
G04 #@! TO.C,TP5*
X141802000Y-76130000D02*
X141802000Y-73730000D01*
X144202000Y-76130000D02*
X141802000Y-76130000D01*
X144202000Y-73730000D02*
X144202000Y-76130000D01*
X141802000Y-73730000D02*
X144202000Y-73730000D01*
G04 #@! TO.C,TP8*
X167837000Y-82607000D02*
X167837000Y-80207000D01*
X170237000Y-82607000D02*
X167837000Y-82607000D01*
X170237000Y-80207000D02*
X170237000Y-82607000D01*
X167837000Y-80207000D02*
X170237000Y-80207000D01*
G04 #@! TO.C,TP4*
X127324000Y-66859000D02*
X127324000Y-64459000D01*
X129724000Y-66859000D02*
X127324000Y-66859000D01*
X129724000Y-64459000D02*
X129724000Y-66859000D01*
X127324000Y-64459000D02*
X129724000Y-64459000D01*
G04 #@! TO.C,P4*
X110201400Y-65515800D02*
X110201400Y-64185800D01*
X111531400Y-65515800D02*
X110201400Y-65515800D01*
X112801400Y-65515800D02*
X112801400Y-62855800D01*
X112801400Y-62855800D02*
X123021400Y-62855800D01*
X112801400Y-65515800D02*
X123021400Y-65515800D01*
X123021400Y-65515800D02*
X123021400Y-62855800D01*
G04 #@! TO.C,P2*
X106613000Y-108137000D02*
X105283000Y-108137000D01*
X106613000Y-106807000D02*
X106613000Y-108137000D01*
X106613000Y-105537000D02*
X103953000Y-105537000D01*
X103953000Y-105537000D02*
X103953000Y-95317000D01*
X106613000Y-105537000D02*
X106613000Y-95317000D01*
X106613000Y-95317000D02*
X103953000Y-95317000D01*
G04 #@! TO.C,P3*
X135873800Y-125543000D02*
X135873800Y-126873000D01*
X134543800Y-125543000D02*
X135873800Y-125543000D01*
X133273800Y-125543000D02*
X133273800Y-128203000D01*
X133273800Y-128203000D02*
X115433800Y-128203000D01*
X133273800Y-125543000D02*
X115433800Y-125543000D01*
X115433800Y-125543000D02*
X115433800Y-128203000D01*
G04 #@! TO.C,P1*
X103826000Y-77283000D02*
X105156000Y-77283000D01*
X103826000Y-78613000D02*
X103826000Y-77283000D01*
X103826000Y-79883000D02*
X106486000Y-79883000D01*
X106486000Y-79883000D02*
X106486000Y-87563000D01*
X103826000Y-79883000D02*
X103826000Y-87563000D01*
X103826000Y-87563000D02*
X106486000Y-87563000D01*
G04 #@! TO.C,D1*
X139843000Y-89855400D02*
X139843000Y-86005400D01*
X141843000Y-89855400D02*
X141843000Y-86005400D01*
X139843000Y-89855400D02*
X141843000Y-89855400D01*
G04 #@! TO.C,C42*
X123899200Y-116601021D02*
X123899200Y-116926579D01*
X124919200Y-116601021D02*
X124919200Y-116926579D01*
G04 #@! TO.C,R34*
X126396801Y-116920178D02*
X126396801Y-116594620D01*
X125376801Y-116920178D02*
X125376801Y-116594620D01*
G04 #@! TO.C,TH1*
X151182800Y-114564379D02*
X151182800Y-114238821D01*
X150162800Y-114564379D02*
X150162800Y-114238821D01*
D11*
G04 #@! TO.C,D2*
X147856400Y-85333400D02*
X147456400Y-85333400D01*
X147856400Y-85333400D02*
X147856400Y-84933400D01*
X147856400Y-80833400D02*
X147856400Y-81233400D01*
X147856400Y-80833400D02*
X147456400Y-80833400D01*
X145056400Y-80833400D02*
X145456400Y-80833400D01*
X145056400Y-80833400D02*
X145056400Y-81233400D01*
X145056400Y-85333400D02*
X145456400Y-85333400D01*
X145056400Y-85333400D02*
X145056400Y-84933400D01*
X147855940Y-81719420D02*
X147855940Y-81643220D01*
X147391120Y-81719420D02*
X147855940Y-81719420D01*
X147391120Y-81643220D02*
X147391120Y-81719420D01*
X147855940Y-81643220D02*
X147391120Y-81643220D01*
X145054320Y-81719420D02*
X145054320Y-81643220D01*
X145514060Y-81719420D02*
X145054320Y-81719420D01*
X145514060Y-81643220D02*
X145514060Y-81719420D01*
X145054320Y-81643220D02*
X145514060Y-81643220D01*
D10*
G04 #@! TO.C,C41*
X144066800Y-107139521D02*
X144066800Y-107465079D01*
X145086800Y-107139521D02*
X145086800Y-107465079D01*
G04 #@! TO.C,C40*
X144066800Y-104040721D02*
X144066800Y-104366279D01*
X145086800Y-104040721D02*
X145086800Y-104366279D01*
G04 #@! TO.C,C39*
X111681800Y-97805021D02*
X111681800Y-98130579D01*
X112701800Y-97805021D02*
X112701800Y-98130579D01*
G04 #@! TO.C,C37*
X125364021Y-105970800D02*
X125689579Y-105970800D01*
X125364021Y-104950800D02*
X125689579Y-104950800D01*
G04 #@! TO.C,C35*
X110005400Y-97805021D02*
X110005400Y-98130579D01*
X111025400Y-97805021D02*
X111025400Y-98130579D01*
G04 #@! TO.C,C34*
X110300535Y-105594668D02*
X110626093Y-105594668D01*
X110300535Y-104574668D02*
X110626093Y-104574668D01*
G04 #@! TO.C,C32*
X111845293Y-112550268D02*
X111519735Y-112550268D01*
X111845293Y-113570268D02*
X111519735Y-113570268D01*
G04 #@! TO.C,X1*
X109272914Y-108172468D02*
X109032914Y-108172468D01*
X109272914Y-109972468D02*
X109272914Y-108172468D01*
X112872914Y-108172468D02*
X112872914Y-109972468D01*
X111472914Y-111772468D02*
X110672914Y-111772468D01*
X110672914Y-106372468D02*
X111472914Y-106372468D01*
X110672914Y-105972468D02*
X110672914Y-106372468D01*
G04 #@! TO.C,D4*
X121816800Y-112813200D02*
X121816800Y-110528200D01*
X120346800Y-112813200D02*
X121816800Y-112813200D01*
X120346800Y-110528200D02*
X120346800Y-112813200D01*
G04 #@! TO.C,D5*
X118768800Y-112813200D02*
X118768800Y-110528200D01*
X117298800Y-112813200D02*
X118768800Y-112813200D01*
X117298800Y-110528200D02*
X117298800Y-112813200D01*
G04 #@! TO.C,D3*
X120292800Y-112813200D02*
X120292800Y-110528200D01*
X118822800Y-112813200D02*
X120292800Y-112813200D01*
X118822800Y-110528200D02*
X118822800Y-112813200D01*
G04 #@! TO.C,R32*
X146827021Y-107063000D02*
X147152579Y-107063000D01*
X146827021Y-106043000D02*
X147152579Y-106043000D01*
G04 #@! TO.C,R27*
X120067800Y-108442979D02*
X120067800Y-108117421D01*
X119047800Y-108442979D02*
X119047800Y-108117421D01*
G04 #@! TO.C,R28*
X121591800Y-108442979D02*
X121591800Y-108117421D01*
X120571800Y-108442979D02*
X120571800Y-108117421D01*
G04 #@! TO.C,R29*
X117523800Y-108117421D02*
X117523800Y-108442979D01*
X118543800Y-108117421D02*
X118543800Y-108442979D01*
G04 #@! TO.C,R30*
X146801621Y-103951500D02*
X147127179Y-103951500D01*
X146801621Y-102931500D02*
X147127179Y-102931500D01*
G04 #@! TO.C,R33*
X146827021Y-108637800D02*
X147152579Y-108637800D01*
X146827021Y-107617800D02*
X147152579Y-107617800D01*
G04 #@! TO.C,R31*
X146801621Y-105475500D02*
X147127179Y-105475500D01*
X146801621Y-104455500D02*
X147127179Y-104455500D01*
G04 #@! TO.C,C31*
X161051846Y-70939000D02*
X161051846Y-69939000D01*
X161551846Y-70439000D02*
X160551846Y-70439000D01*
X150991200Y-68163000D02*
X150991200Y-66965000D01*
X151031200Y-68426000D02*
X151031200Y-66702000D01*
X151071200Y-68626000D02*
X151071200Y-66502000D01*
X151111200Y-68794000D02*
X151111200Y-66334000D01*
X151151200Y-68942000D02*
X151151200Y-66186000D01*
X151191200Y-69074000D02*
X151191200Y-66054000D01*
X151231200Y-69194000D02*
X151231200Y-65934000D01*
X151271200Y-69306000D02*
X151271200Y-65822000D01*
X151311200Y-69410000D02*
X151311200Y-65718000D01*
X151351200Y-69508000D02*
X151351200Y-65620000D01*
X151391200Y-69601000D02*
X151391200Y-65527000D01*
X151431200Y-69689000D02*
X151431200Y-65439000D01*
X151471200Y-69773000D02*
X151471200Y-65355000D01*
X151511200Y-69853000D02*
X151511200Y-65275000D01*
X151551200Y-69929000D02*
X151551200Y-65199000D01*
X151591200Y-70003000D02*
X151591200Y-65125000D01*
X151631200Y-70074000D02*
X151631200Y-65054000D01*
X151671200Y-70143000D02*
X151671200Y-64985000D01*
X151711200Y-70209000D02*
X151711200Y-64919000D01*
X151751200Y-70273000D02*
X151751200Y-64855000D01*
X151791200Y-70334000D02*
X151791200Y-64794000D01*
X151831200Y-70394000D02*
X151831200Y-64734000D01*
X151871200Y-70453000D02*
X151871200Y-64675000D01*
X151911200Y-70509000D02*
X151911200Y-64619000D01*
X151951200Y-70564000D02*
X151951200Y-64564000D01*
X151991200Y-70618000D02*
X151991200Y-64510000D01*
X152031200Y-70670000D02*
X152031200Y-64458000D01*
X152071200Y-70720000D02*
X152071200Y-64408000D01*
X152111200Y-70770000D02*
X152111200Y-64358000D01*
X152151200Y-70818000D02*
X152151200Y-64310000D01*
X152191200Y-70865000D02*
X152191200Y-64263000D01*
X152231200Y-70911000D02*
X152231200Y-64217000D01*
X152271200Y-70956000D02*
X152271200Y-64172000D01*
X152311200Y-71000000D02*
X152311200Y-64128000D01*
X152351200Y-66323000D02*
X152351200Y-64086000D01*
X152351200Y-71042000D02*
X152351200Y-68805000D01*
X152391200Y-66323000D02*
X152391200Y-64044000D01*
X152391200Y-71084000D02*
X152391200Y-68805000D01*
X152431200Y-66323000D02*
X152431200Y-64003000D01*
X152431200Y-71125000D02*
X152431200Y-68805000D01*
X152471200Y-66323000D02*
X152471200Y-63963000D01*
X152471200Y-71165000D02*
X152471200Y-68805000D01*
X152511200Y-66323000D02*
X152511200Y-63924000D01*
X152511200Y-71204000D02*
X152511200Y-68805000D01*
X152551200Y-66323000D02*
X152551200Y-63885000D01*
X152551200Y-71243000D02*
X152551200Y-68805000D01*
X152591200Y-66323000D02*
X152591200Y-63848000D01*
X152591200Y-71280000D02*
X152591200Y-68805000D01*
X152631200Y-66323000D02*
X152631200Y-63811000D01*
X152631200Y-71317000D02*
X152631200Y-68805000D01*
X152671200Y-66323000D02*
X152671200Y-63775000D01*
X152671200Y-71353000D02*
X152671200Y-68805000D01*
X152711200Y-66323000D02*
X152711200Y-63740000D01*
X152711200Y-71388000D02*
X152711200Y-68805000D01*
X152751200Y-66323000D02*
X152751200Y-63706000D01*
X152751200Y-71422000D02*
X152751200Y-68805000D01*
X152791200Y-66323000D02*
X152791200Y-63672000D01*
X152791200Y-71456000D02*
X152791200Y-68805000D01*
X152831200Y-66323000D02*
X152831200Y-63639000D01*
X152831200Y-71489000D02*
X152831200Y-68805000D01*
X152871200Y-66323000D02*
X152871200Y-63607000D01*
X152871200Y-71521000D02*
X152871200Y-68805000D01*
X152911200Y-66323000D02*
X152911200Y-63575000D01*
X152911200Y-71553000D02*
X152911200Y-68805000D01*
X152951200Y-66323000D02*
X152951200Y-63544000D01*
X152951200Y-71584000D02*
X152951200Y-68805000D01*
X152991200Y-66323000D02*
X152991200Y-63514000D01*
X152991200Y-71614000D02*
X152991200Y-68805000D01*
X153031200Y-66323000D02*
X153031200Y-63484000D01*
X153031200Y-71644000D02*
X153031200Y-68805000D01*
X153071200Y-66323000D02*
X153071200Y-63454000D01*
X153071200Y-71674000D02*
X153071200Y-68805000D01*
X153111200Y-66323000D02*
X153111200Y-63426000D01*
X153111200Y-71702000D02*
X153111200Y-68805000D01*
X153151200Y-66323000D02*
X153151200Y-63398000D01*
X153151200Y-71730000D02*
X153151200Y-68805000D01*
X153191200Y-66323000D02*
X153191200Y-63370000D01*
X153191200Y-71758000D02*
X153191200Y-68805000D01*
X153231200Y-66323000D02*
X153231200Y-63343000D01*
X153231200Y-71785000D02*
X153231200Y-68805000D01*
X153271200Y-66323000D02*
X153271200Y-63317000D01*
X153271200Y-71811000D02*
X153271200Y-68805000D01*
X153311200Y-66323000D02*
X153311200Y-63291000D01*
X153311200Y-71837000D02*
X153311200Y-68805000D01*
X153351200Y-66323000D02*
X153351200Y-63266000D01*
X153351200Y-71862000D02*
X153351200Y-68805000D01*
X153391200Y-66323000D02*
X153391200Y-63241000D01*
X153391200Y-71887000D02*
X153391200Y-68805000D01*
X153431200Y-66323000D02*
X153431200Y-63217000D01*
X153431200Y-71911000D02*
X153431200Y-68805000D01*
X153471200Y-66323000D02*
X153471200Y-63193000D01*
X153471200Y-71935000D02*
X153471200Y-68805000D01*
X153511200Y-66323000D02*
X153511200Y-63169000D01*
X153511200Y-71959000D02*
X153511200Y-68805000D01*
X153551200Y-66323000D02*
X153551200Y-63147000D01*
X153551200Y-71981000D02*
X153551200Y-68805000D01*
X153591200Y-66323000D02*
X153591200Y-63124000D01*
X153591200Y-72004000D02*
X153591200Y-68805000D01*
X153631200Y-66323000D02*
X153631200Y-63102000D01*
X153631200Y-72026000D02*
X153631200Y-68805000D01*
X153671200Y-66323000D02*
X153671200Y-63081000D01*
X153671200Y-72047000D02*
X153671200Y-68805000D01*
X153711200Y-66323000D02*
X153711200Y-63060000D01*
X153711200Y-72068000D02*
X153711200Y-68805000D01*
X153751200Y-66323000D02*
X153751200Y-63039000D01*
X153751200Y-72089000D02*
X153751200Y-68805000D01*
X153791200Y-66323000D02*
X153791200Y-63019000D01*
X153791200Y-72109000D02*
X153791200Y-68805000D01*
X153831200Y-66323000D02*
X153831200Y-63000000D01*
X153831200Y-72128000D02*
X153831200Y-68805000D01*
X153871200Y-66323000D02*
X153871200Y-62980000D01*
X153871200Y-72148000D02*
X153871200Y-68805000D01*
X153911200Y-66323000D02*
X153911200Y-62961000D01*
X153911200Y-72167000D02*
X153911200Y-68805000D01*
X153951200Y-66323000D02*
X153951200Y-62943000D01*
X153951200Y-72185000D02*
X153951200Y-68805000D01*
X153991200Y-66323000D02*
X153991200Y-62925000D01*
X153991200Y-72203000D02*
X153991200Y-68805000D01*
X154031200Y-66323000D02*
X154031200Y-62907000D01*
X154031200Y-72221000D02*
X154031200Y-68805000D01*
X154071200Y-66323000D02*
X154071200Y-62890000D01*
X154071200Y-72238000D02*
X154071200Y-68805000D01*
X154111200Y-66323000D02*
X154111200Y-62874000D01*
X154111200Y-72254000D02*
X154111200Y-68805000D01*
X154151200Y-66323000D02*
X154151200Y-62857000D01*
X154151200Y-72271000D02*
X154151200Y-68805000D01*
X154191200Y-66323000D02*
X154191200Y-62841000D01*
X154191200Y-72287000D02*
X154191200Y-68805000D01*
X154231200Y-66323000D02*
X154231200Y-62826000D01*
X154231200Y-72302000D02*
X154231200Y-68805000D01*
X154271200Y-66323000D02*
X154271200Y-62810000D01*
X154271200Y-72318000D02*
X154271200Y-68805000D01*
X154311200Y-66323000D02*
X154311200Y-62796000D01*
X154311200Y-72332000D02*
X154311200Y-68805000D01*
X154351200Y-66323000D02*
X154351200Y-62781000D01*
X154351200Y-72347000D02*
X154351200Y-68805000D01*
X154391200Y-66323000D02*
X154391200Y-62767000D01*
X154391200Y-72361000D02*
X154391200Y-68805000D01*
X154431200Y-66323000D02*
X154431200Y-62753000D01*
X154431200Y-72375000D02*
X154431200Y-68805000D01*
X154471200Y-66323000D02*
X154471200Y-62740000D01*
X154471200Y-72388000D02*
X154471200Y-68805000D01*
X154511200Y-66323000D02*
X154511200Y-62727000D01*
X154511200Y-72401000D02*
X154511200Y-68805000D01*
X154551200Y-66323000D02*
X154551200Y-62714000D01*
X154551200Y-72414000D02*
X154551200Y-68805000D01*
X154591200Y-66323000D02*
X154591200Y-62702000D01*
X154591200Y-72426000D02*
X154591200Y-68805000D01*
X154631200Y-66323000D02*
X154631200Y-62690000D01*
X154631200Y-72438000D02*
X154631200Y-68805000D01*
X154671200Y-66323000D02*
X154671200Y-62679000D01*
X154671200Y-72449000D02*
X154671200Y-68805000D01*
X154711200Y-66323000D02*
X154711200Y-62667000D01*
X154711200Y-72461000D02*
X154711200Y-68805000D01*
X154751200Y-66323000D02*
X154751200Y-62657000D01*
X154751200Y-72471000D02*
X154751200Y-68805000D01*
X154791200Y-66323000D02*
X154791200Y-62646000D01*
X154791200Y-72482000D02*
X154791200Y-68805000D01*
X154831200Y-72492000D02*
X154831200Y-62636000D01*
X154871200Y-72502000D02*
X154871200Y-62626000D01*
X154911200Y-72511000D02*
X154911200Y-62617000D01*
X154951200Y-72520000D02*
X154951200Y-62608000D01*
X154991200Y-72529000D02*
X154991200Y-62599000D01*
X155031200Y-72538000D02*
X155031200Y-62590000D01*
X155071200Y-72546000D02*
X155071200Y-62582000D01*
X155111200Y-72554000D02*
X155111200Y-62574000D01*
X155151200Y-72561000D02*
X155151200Y-62567000D01*
X155191200Y-72568000D02*
X155191200Y-62560000D01*
X155231200Y-72575000D02*
X155231200Y-62553000D01*
X155271200Y-72582000D02*
X155271200Y-62546000D01*
X155311200Y-72588000D02*
X155311200Y-62540000D01*
X155351200Y-72594000D02*
X155351200Y-62534000D01*
X155392200Y-72599000D02*
X155392200Y-62529000D01*
X155432200Y-72604000D02*
X155432200Y-62524000D01*
X155472200Y-72609000D02*
X155472200Y-62519000D01*
X155512200Y-72614000D02*
X155512200Y-62514000D01*
X155552200Y-72618000D02*
X155552200Y-62510000D01*
X155592200Y-72622000D02*
X155592200Y-62506000D01*
X155632200Y-72626000D02*
X155632200Y-62502000D01*
X155672200Y-72629000D02*
X155672200Y-62499000D01*
X155712200Y-72632000D02*
X155712200Y-62496000D01*
X155752200Y-72634000D02*
X155752200Y-62494000D01*
X155792200Y-72637000D02*
X155792200Y-62491000D01*
X155832200Y-72639000D02*
X155832200Y-62489000D01*
X155872200Y-72641000D02*
X155872200Y-62487000D01*
X155912200Y-72642000D02*
X155912200Y-62486000D01*
X155952200Y-72643000D02*
X155952200Y-62485000D01*
X155992200Y-72644000D02*
X155992200Y-62484000D01*
X156032200Y-72644000D02*
X156032200Y-62484000D01*
X156072200Y-72644000D02*
X156072200Y-62484000D01*
X161192200Y-67564000D02*
G75*
G03X161192200Y-67564000I-5120000J0D01*
G01*
G04 #@! TO.C,C33*
X161051846Y-126819000D02*
X161051846Y-125819000D01*
X161551846Y-126319000D02*
X160551846Y-126319000D01*
X150991200Y-124043000D02*
X150991200Y-122845000D01*
X151031200Y-124306000D02*
X151031200Y-122582000D01*
X151071200Y-124506000D02*
X151071200Y-122382000D01*
X151111200Y-124674000D02*
X151111200Y-122214000D01*
X151151200Y-124822000D02*
X151151200Y-122066000D01*
X151191200Y-124954000D02*
X151191200Y-121934000D01*
X151231200Y-125074000D02*
X151231200Y-121814000D01*
X151271200Y-125186000D02*
X151271200Y-121702000D01*
X151311200Y-125290000D02*
X151311200Y-121598000D01*
X151351200Y-125388000D02*
X151351200Y-121500000D01*
X151391200Y-125481000D02*
X151391200Y-121407000D01*
X151431200Y-125569000D02*
X151431200Y-121319000D01*
X151471200Y-125653000D02*
X151471200Y-121235000D01*
X151511200Y-125733000D02*
X151511200Y-121155000D01*
X151551200Y-125809000D02*
X151551200Y-121079000D01*
X151591200Y-125883000D02*
X151591200Y-121005000D01*
X151631200Y-125954000D02*
X151631200Y-120934000D01*
X151671200Y-126023000D02*
X151671200Y-120865000D01*
X151711200Y-126089000D02*
X151711200Y-120799000D01*
X151751200Y-126153000D02*
X151751200Y-120735000D01*
X151791200Y-126214000D02*
X151791200Y-120674000D01*
X151831200Y-126274000D02*
X151831200Y-120614000D01*
X151871200Y-126333000D02*
X151871200Y-120555000D01*
X151911200Y-126389000D02*
X151911200Y-120499000D01*
X151951200Y-126444000D02*
X151951200Y-120444000D01*
X151991200Y-126498000D02*
X151991200Y-120390000D01*
X152031200Y-126550000D02*
X152031200Y-120338000D01*
X152071200Y-126600000D02*
X152071200Y-120288000D01*
X152111200Y-126650000D02*
X152111200Y-120238000D01*
X152151200Y-126698000D02*
X152151200Y-120190000D01*
X152191200Y-126745000D02*
X152191200Y-120143000D01*
X152231200Y-126791000D02*
X152231200Y-120097000D01*
X152271200Y-126836000D02*
X152271200Y-120052000D01*
X152311200Y-126880000D02*
X152311200Y-120008000D01*
X152351200Y-122203000D02*
X152351200Y-119966000D01*
X152351200Y-126922000D02*
X152351200Y-124685000D01*
X152391200Y-122203000D02*
X152391200Y-119924000D01*
X152391200Y-126964000D02*
X152391200Y-124685000D01*
X152431200Y-122203000D02*
X152431200Y-119883000D01*
X152431200Y-127005000D02*
X152431200Y-124685000D01*
X152471200Y-122203000D02*
X152471200Y-119843000D01*
X152471200Y-127045000D02*
X152471200Y-124685000D01*
X152511200Y-122203000D02*
X152511200Y-119804000D01*
X152511200Y-127084000D02*
X152511200Y-124685000D01*
X152551200Y-122203000D02*
X152551200Y-119765000D01*
X152551200Y-127123000D02*
X152551200Y-124685000D01*
X152591200Y-122203000D02*
X152591200Y-119728000D01*
X152591200Y-127160000D02*
X152591200Y-124685000D01*
X152631200Y-122203000D02*
X152631200Y-119691000D01*
X152631200Y-127197000D02*
X152631200Y-124685000D01*
X152671200Y-122203000D02*
X152671200Y-119655000D01*
X152671200Y-127233000D02*
X152671200Y-124685000D01*
X152711200Y-122203000D02*
X152711200Y-119620000D01*
X152711200Y-127268000D02*
X152711200Y-124685000D01*
X152751200Y-122203000D02*
X152751200Y-119586000D01*
X152751200Y-127302000D02*
X152751200Y-124685000D01*
X152791200Y-122203000D02*
X152791200Y-119552000D01*
X152791200Y-127336000D02*
X152791200Y-124685000D01*
X152831200Y-122203000D02*
X152831200Y-119519000D01*
X152831200Y-127369000D02*
X152831200Y-124685000D01*
X152871200Y-122203000D02*
X152871200Y-119487000D01*
X152871200Y-127401000D02*
X152871200Y-124685000D01*
X152911200Y-122203000D02*
X152911200Y-119455000D01*
X152911200Y-127433000D02*
X152911200Y-124685000D01*
X152951200Y-122203000D02*
X152951200Y-119424000D01*
X152951200Y-127464000D02*
X152951200Y-124685000D01*
X152991200Y-122203000D02*
X152991200Y-119394000D01*
X152991200Y-127494000D02*
X152991200Y-124685000D01*
X153031200Y-122203000D02*
X153031200Y-119364000D01*
X153031200Y-127524000D02*
X153031200Y-124685000D01*
X153071200Y-122203000D02*
X153071200Y-119334000D01*
X153071200Y-127554000D02*
X153071200Y-124685000D01*
X153111200Y-122203000D02*
X153111200Y-119306000D01*
X153111200Y-127582000D02*
X153111200Y-124685000D01*
X153151200Y-122203000D02*
X153151200Y-119278000D01*
X153151200Y-127610000D02*
X153151200Y-124685000D01*
X153191200Y-122203000D02*
X153191200Y-119250000D01*
X153191200Y-127638000D02*
X153191200Y-124685000D01*
X153231200Y-122203000D02*
X153231200Y-119223000D01*
X153231200Y-127665000D02*
X153231200Y-124685000D01*
X153271200Y-122203000D02*
X153271200Y-119197000D01*
X153271200Y-127691000D02*
X153271200Y-124685000D01*
X153311200Y-122203000D02*
X153311200Y-119171000D01*
X153311200Y-127717000D02*
X153311200Y-124685000D01*
X153351200Y-122203000D02*
X153351200Y-119146000D01*
X153351200Y-127742000D02*
X153351200Y-124685000D01*
X153391200Y-122203000D02*
X153391200Y-119121000D01*
X153391200Y-127767000D02*
X153391200Y-124685000D01*
X153431200Y-122203000D02*
X153431200Y-119097000D01*
X153431200Y-127791000D02*
X153431200Y-124685000D01*
X153471200Y-122203000D02*
X153471200Y-119073000D01*
X153471200Y-127815000D02*
X153471200Y-124685000D01*
X153511200Y-122203000D02*
X153511200Y-119049000D01*
X153511200Y-127839000D02*
X153511200Y-124685000D01*
X153551200Y-122203000D02*
X153551200Y-119027000D01*
X153551200Y-127861000D02*
X153551200Y-124685000D01*
X153591200Y-122203000D02*
X153591200Y-119004000D01*
X153591200Y-127884000D02*
X153591200Y-124685000D01*
X153631200Y-122203000D02*
X153631200Y-118982000D01*
X153631200Y-127906000D02*
X153631200Y-124685000D01*
X153671200Y-122203000D02*
X153671200Y-118961000D01*
X153671200Y-127927000D02*
X153671200Y-124685000D01*
X153711200Y-122203000D02*
X153711200Y-118940000D01*
X153711200Y-127948000D02*
X153711200Y-124685000D01*
X153751200Y-122203000D02*
X153751200Y-118919000D01*
X153751200Y-127969000D02*
X153751200Y-124685000D01*
X153791200Y-122203000D02*
X153791200Y-118899000D01*
X153791200Y-127989000D02*
X153791200Y-124685000D01*
X153831200Y-122203000D02*
X153831200Y-118880000D01*
X153831200Y-128008000D02*
X153831200Y-124685000D01*
X153871200Y-122203000D02*
X153871200Y-118860000D01*
X153871200Y-128028000D02*
X153871200Y-124685000D01*
X153911200Y-122203000D02*
X153911200Y-118841000D01*
X153911200Y-128047000D02*
X153911200Y-124685000D01*
X153951200Y-122203000D02*
X153951200Y-118823000D01*
X153951200Y-128065000D02*
X153951200Y-124685000D01*
X153991200Y-122203000D02*
X153991200Y-118805000D01*
X153991200Y-128083000D02*
X153991200Y-124685000D01*
X154031200Y-122203000D02*
X154031200Y-118787000D01*
X154031200Y-128101000D02*
X154031200Y-124685000D01*
X154071200Y-122203000D02*
X154071200Y-118770000D01*
X154071200Y-128118000D02*
X154071200Y-124685000D01*
X154111200Y-122203000D02*
X154111200Y-118754000D01*
X154111200Y-128134000D02*
X154111200Y-124685000D01*
X154151200Y-122203000D02*
X154151200Y-118737000D01*
X154151200Y-128151000D02*
X154151200Y-124685000D01*
X154191200Y-122203000D02*
X154191200Y-118721000D01*
X154191200Y-128167000D02*
X154191200Y-124685000D01*
X154231200Y-122203000D02*
X154231200Y-118706000D01*
X154231200Y-128182000D02*
X154231200Y-124685000D01*
X154271200Y-122203000D02*
X154271200Y-118690000D01*
X154271200Y-128198000D02*
X154271200Y-124685000D01*
X154311200Y-122203000D02*
X154311200Y-118676000D01*
X154311200Y-128212000D02*
X154311200Y-124685000D01*
X154351200Y-122203000D02*
X154351200Y-118661000D01*
X154351200Y-128227000D02*
X154351200Y-124685000D01*
X154391200Y-122203000D02*
X154391200Y-118647000D01*
X154391200Y-128241000D02*
X154391200Y-124685000D01*
X154431200Y-122203000D02*
X154431200Y-118633000D01*
X154431200Y-128255000D02*
X154431200Y-124685000D01*
X154471200Y-122203000D02*
X154471200Y-118620000D01*
X154471200Y-128268000D02*
X154471200Y-124685000D01*
X154511200Y-122203000D02*
X154511200Y-118607000D01*
X154511200Y-128281000D02*
X154511200Y-124685000D01*
X154551200Y-122203000D02*
X154551200Y-118594000D01*
X154551200Y-128294000D02*
X154551200Y-124685000D01*
X154591200Y-122203000D02*
X154591200Y-118582000D01*
X154591200Y-128306000D02*
X154591200Y-124685000D01*
X154631200Y-122203000D02*
X154631200Y-118570000D01*
X154631200Y-128318000D02*
X154631200Y-124685000D01*
X154671200Y-122203000D02*
X154671200Y-118559000D01*
X154671200Y-128329000D02*
X154671200Y-124685000D01*
X154711200Y-122203000D02*
X154711200Y-118547000D01*
X154711200Y-128341000D02*
X154711200Y-124685000D01*
X154751200Y-122203000D02*
X154751200Y-118537000D01*
X154751200Y-128351000D02*
X154751200Y-124685000D01*
X154791200Y-122203000D02*
X154791200Y-118526000D01*
X154791200Y-128362000D02*
X154791200Y-124685000D01*
X154831200Y-128372000D02*
X154831200Y-118516000D01*
X154871200Y-128382000D02*
X154871200Y-118506000D01*
X154911200Y-128391000D02*
X154911200Y-118497000D01*
X154951200Y-128400000D02*
X154951200Y-118488000D01*
X154991200Y-128409000D02*
X154991200Y-118479000D01*
X155031200Y-128418000D02*
X155031200Y-118470000D01*
X155071200Y-128426000D02*
X155071200Y-118462000D01*
X155111200Y-128434000D02*
X155111200Y-118454000D01*
X155151200Y-128441000D02*
X155151200Y-118447000D01*
X155191200Y-128448000D02*
X155191200Y-118440000D01*
X155231200Y-128455000D02*
X155231200Y-118433000D01*
X155271200Y-128462000D02*
X155271200Y-118426000D01*
X155311200Y-128468000D02*
X155311200Y-118420000D01*
X155351200Y-128474000D02*
X155351200Y-118414000D01*
X155392200Y-128479000D02*
X155392200Y-118409000D01*
X155432200Y-128484000D02*
X155432200Y-118404000D01*
X155472200Y-128489000D02*
X155472200Y-118399000D01*
X155512200Y-128494000D02*
X155512200Y-118394000D01*
X155552200Y-128498000D02*
X155552200Y-118390000D01*
X155592200Y-128502000D02*
X155592200Y-118386000D01*
X155632200Y-128506000D02*
X155632200Y-118382000D01*
X155672200Y-128509000D02*
X155672200Y-118379000D01*
X155712200Y-128512000D02*
X155712200Y-118376000D01*
X155752200Y-128514000D02*
X155752200Y-118374000D01*
X155792200Y-128517000D02*
X155792200Y-118371000D01*
X155832200Y-128519000D02*
X155832200Y-118369000D01*
X155872200Y-128521000D02*
X155872200Y-118367000D01*
X155912200Y-128522000D02*
X155912200Y-118366000D01*
X155952200Y-128523000D02*
X155952200Y-118365000D01*
X155992200Y-128524000D02*
X155992200Y-118364000D01*
X156032200Y-128524000D02*
X156032200Y-118364000D01*
X156072200Y-128524000D02*
X156072200Y-118364000D01*
X161192200Y-123444000D02*
G75*
G03X161192200Y-123444000I-5120000J0D01*
G01*
G04 #@! TO.C,C8*
X127252000Y-85054221D02*
X127252000Y-85379779D01*
X128272000Y-85054221D02*
X128272000Y-85379779D01*
G04 #@! TO.C,C13*
X128344200Y-95722221D02*
X128344200Y-96047779D01*
X129364200Y-95722221D02*
X129364200Y-96047779D01*
G04 #@! TO.C,C16*
X130413979Y-69187600D02*
X130088421Y-69187600D01*
X130413979Y-70207600D02*
X130088421Y-70207600D01*
G04 #@! TO.C,C17*
X145099821Y-94007400D02*
X145425379Y-94007400D01*
X145099821Y-92987400D02*
X145425379Y-92987400D01*
G04 #@! TO.C,C19*
X145099821Y-96242600D02*
X145425379Y-96242600D01*
X145099821Y-95222600D02*
X145425379Y-95222600D01*
G04 #@! TO.C,C20*
X145099821Y-98731800D02*
X145425379Y-98731800D01*
X145099821Y-97711800D02*
X145425379Y-97711800D01*
G04 #@! TO.C,C21*
X145099821Y-101221000D02*
X145425379Y-101221000D01*
X145099821Y-100201000D02*
X145425379Y-100201000D01*
G04 #@! TO.C,C23*
X144401000Y-82890579D02*
X144401000Y-82565021D01*
X143381000Y-82890579D02*
X143381000Y-82565021D01*
G04 #@! TO.C,C22*
X148248200Y-90746664D02*
X148248200Y-89542536D01*
X145528200Y-90746664D02*
X145528200Y-89542536D01*
G04 #@! TO.C,C24*
X139991000Y-82112936D02*
X139991000Y-83317064D01*
X142711000Y-82112936D02*
X142711000Y-83317064D01*
G04 #@! TO.C,C25*
X156634264Y-74586000D02*
X155430136Y-74586000D01*
X156634264Y-77306000D02*
X155430136Y-77306000D01*
G04 #@! TO.C,C26*
X156634264Y-77888000D02*
X155430136Y-77888000D01*
X156634264Y-80608000D02*
X155430136Y-80608000D01*
G04 #@! TO.C,C27*
X156634264Y-89826000D02*
X155430136Y-89826000D01*
X156634264Y-92546000D02*
X155430136Y-92546000D01*
G04 #@! TO.C,C29*
X156634264Y-105066000D02*
X155430136Y-105066000D01*
X156634264Y-107786000D02*
X155430136Y-107786000D01*
G04 #@! TO.C,C30*
X156634264Y-108368000D02*
X155430136Y-108368000D01*
X156634264Y-111088000D02*
X155430136Y-111088000D01*
G04 #@! TO.C,C28*
X156634264Y-93128000D02*
X155430136Y-93128000D01*
X156634264Y-95848000D02*
X155430136Y-95848000D01*
G04 #@! TO.C,L1*
X130453200Y-75671178D02*
X130453200Y-75154022D01*
X129033200Y-75671178D02*
X129033200Y-75154022D01*
D12*
G04 #@! TO.C,U2*
X114621893Y-93212935D02*
X113596893Y-93212935D01*
X124971893Y-92212935D02*
X123896893Y-92212935D01*
X124971893Y-102562935D02*
X123896893Y-102562935D01*
X114621893Y-102562935D02*
X115696893Y-102562935D01*
X114621893Y-92212935D02*
X115696893Y-92212935D01*
X114621893Y-102562935D02*
X114621893Y-101487935D01*
X124971893Y-102562935D02*
X124971893Y-101487935D01*
X124971893Y-92212935D02*
X124971893Y-93287935D01*
X114621893Y-92212935D02*
X114621893Y-93212935D01*
G04 #@! TO.C,U4*
X134162800Y-104584800D02*
X140512800Y-104584800D01*
X133087800Y-90259800D02*
X140512800Y-90259800D01*
X134162800Y-104584800D02*
X134162800Y-104577300D01*
X140512800Y-104584800D02*
X140512800Y-104577300D01*
X140512800Y-90334800D02*
X140512800Y-90342300D01*
G04 #@! TO.C,U1*
X114637000Y-86751000D02*
X116387000Y-86751000D01*
X114637000Y-80996000D02*
X109137000Y-80996000D01*
X114637000Y-87406000D02*
X109137000Y-87406000D01*
X114637000Y-80996000D02*
X114637000Y-81746000D01*
X109137000Y-80996000D02*
X109137000Y-81746000D01*
X109137000Y-87406000D02*
X109137000Y-86656000D01*
X114637000Y-87406000D02*
X114637000Y-86751000D01*
D10*
G04 #@! TO.C,U3*
X132063600Y-76922600D02*
X134493600Y-76922600D01*
X133823600Y-73852600D02*
X132063600Y-73852600D01*
G04 #@! TO.C,R8*
X125728000Y-85079621D02*
X125728000Y-85405179D01*
X126748000Y-85079621D02*
X126748000Y-85405179D01*
G04 #@! TO.C,R14*
X154848779Y-87882000D02*
X154523221Y-87882000D01*
X154848779Y-88902000D02*
X154523221Y-88902000D01*
G04 #@! TO.C,R15*
X154975779Y-101344000D02*
X154650221Y-101344000D01*
X154975779Y-102364000D02*
X154650221Y-102364000D01*
G04 #@! TO.C,R17*
X154975779Y-103249000D02*
X154650221Y-103249000D01*
X154975779Y-104269000D02*
X154650221Y-104269000D01*
G04 #@! TO.C,R18*
X154924979Y-116584000D02*
X154599421Y-116584000D01*
X154924979Y-117604000D02*
X154599421Y-117604000D01*
G04 #@! TO.C,R11*
X153451779Y-73023000D02*
X153126221Y-73023000D01*
X153451779Y-74043000D02*
X153126221Y-74043000D01*
G04 #@! TO.C,R16*
X156544264Y-96969000D02*
X152440136Y-96969000D01*
X156544264Y-100389000D02*
X152440136Y-100389000D01*
G04 #@! TO.C,R13*
X156544264Y-81729000D02*
X152440136Y-81729000D01*
X156544264Y-85149000D02*
X152440136Y-85149000D01*
D11*
G04 #@! TO.C,J1*
X109549800Y-66943000D02*
X108099800Y-66943000D01*
X109559800Y-66943000D02*
X109559800Y-68593000D01*
X109569800Y-75053000D02*
X109569800Y-73393000D01*
X109569800Y-75053000D02*
X108099800Y-75053000D01*
X103889800Y-66979676D02*
X103509800Y-66979676D01*
X103509800Y-66979676D02*
X103509800Y-67349676D01*
X103507952Y-75007908D02*
X103507952Y-74637908D01*
X103887952Y-75007908D02*
X103507952Y-75007908D01*
D12*
G04 #@! TO.C,L2*
X139251000Y-81170200D02*
X139251000Y-81420200D01*
X130751000Y-81170200D02*
X139251000Y-81170200D01*
X130751000Y-89670200D02*
X130751000Y-81170200D01*
X139251000Y-89670200D02*
X130751000Y-89670200D01*
X139251000Y-81420200D02*
X139251000Y-89670200D01*
D10*
G04 #@! TO.C,C1*
X115314000Y-78958221D02*
X115314000Y-79283779D01*
X116334000Y-78958221D02*
X116334000Y-79283779D01*
G04 #@! TO.C,C2*
X107821000Y-78958221D02*
X107821000Y-79283779D01*
X108841000Y-78958221D02*
X108841000Y-79283779D01*
G04 #@! TO.C,C3*
X115026221Y-105386600D02*
X115351779Y-105386600D01*
X115026221Y-104366600D02*
X115351779Y-104366600D01*
G04 #@! TO.C,C4*
X127586200Y-103312179D02*
X127586200Y-102986621D01*
X126566200Y-103312179D02*
X126566200Y-102986621D01*
G04 #@! TO.C,C6*
X113827779Y-89583800D02*
X113502221Y-89583800D01*
X113827779Y-90603800D02*
X113502221Y-90603800D01*
G04 #@! TO.C,C7*
X125728000Y-82082421D02*
X125728000Y-82407979D01*
X126748000Y-82082421D02*
X126748000Y-82407979D01*
G04 #@! TO.C,C10*
X132552221Y-107698000D02*
X132877779Y-107698000D01*
X132552221Y-106678000D02*
X132877779Y-106678000D01*
G04 #@! TO.C,C11*
X133754400Y-71897021D02*
X133754400Y-72222579D01*
X134774400Y-71897021D02*
X134774400Y-72222579D01*
G04 #@! TO.C,C12*
X132526721Y-106174000D02*
X132852279Y-106174000D01*
X132526721Y-105154000D02*
X132852279Y-105154000D01*
G04 #@! TO.C,C14*
X143799779Y-88161400D02*
X143474221Y-88161400D01*
X143799779Y-89181400D02*
X143474221Y-89181400D01*
G04 #@! TO.C,C15*
X138778064Y-105193000D02*
X137573936Y-105193000D01*
X138778064Y-107913000D02*
X137573936Y-107913000D01*
G04 #@! TO.C,C18*
X130461936Y-73445200D02*
X131666064Y-73445200D01*
X130461936Y-70725200D02*
X131666064Y-70725200D01*
G04 #@! TO.C,R1*
X108333000Y-92237779D02*
X108333000Y-91912221D01*
X107313000Y-92237779D02*
X107313000Y-91912221D01*
G04 #@! TO.C,R2*
X106809000Y-92237779D02*
X106809000Y-91912221D01*
X105789000Y-92237779D02*
X105789000Y-91912221D01*
G04 #@! TO.C,R3*
X105285000Y-92237779D02*
X105285000Y-91912221D01*
X104265000Y-92237779D02*
X104265000Y-91912221D01*
G04 #@! TO.C,R4*
X113827779Y-71143400D02*
X113502221Y-71143400D01*
X113827779Y-72163400D02*
X113502221Y-72163400D01*
G04 #@! TO.C,R5*
X113827779Y-69619400D02*
X113502221Y-69619400D01*
X113827779Y-70639400D02*
X113502221Y-70639400D01*
G04 #@! TO.C,R6*
X124229400Y-85079621D02*
X124229400Y-85405179D01*
X125249400Y-85079621D02*
X125249400Y-85405179D01*
G04 #@! TO.C,R7*
X123750800Y-85405179D02*
X123750800Y-85079621D01*
X122730800Y-85405179D02*
X122730800Y-85079621D01*
G04 #@! TO.C,R9*
X128750600Y-85054221D02*
X128750600Y-85379779D01*
X129770600Y-85054221D02*
X129770600Y-85379779D01*
G04 #@! TO.C,R12*
X154848779Y-86104000D02*
X154523221Y-86104000D01*
X154848779Y-87124000D02*
X154523221Y-87124000D01*
G04 #@! TO.C,TP18*
D12*
X140628904Y-62859380D02*
X141200333Y-62859380D01*
X140914619Y-63859380D02*
X140914619Y-62859380D01*
X141533666Y-63859380D02*
X141533666Y-62859380D01*
X141914619Y-62859380D01*
X142009857Y-62907000D01*
X142057476Y-62954619D01*
X142105095Y-63049857D01*
X142105095Y-63192714D01*
X142057476Y-63287952D01*
X142009857Y-63335571D01*
X141914619Y-63383190D01*
X141533666Y-63383190D01*
X143057476Y-63859380D02*
X142486047Y-63859380D01*
X142771761Y-63859380D02*
X142771761Y-62859380D01*
X142676523Y-63002238D01*
X142581285Y-63097476D01*
X142486047Y-63145095D01*
X143628904Y-63287952D02*
X143533666Y-63240333D01*
X143486047Y-63192714D01*
X143438428Y-63097476D01*
X143438428Y-63049857D01*
X143486047Y-62954619D01*
X143533666Y-62907000D01*
X143628904Y-62859380D01*
X143819380Y-62859380D01*
X143914619Y-62907000D01*
X143962238Y-62954619D01*
X144009857Y-63049857D01*
X144009857Y-63097476D01*
X143962238Y-63192714D01*
X143914619Y-63240333D01*
X143819380Y-63287952D01*
X143628904Y-63287952D01*
X143533666Y-63335571D01*
X143486047Y-63383190D01*
X143438428Y-63478428D01*
X143438428Y-63668904D01*
X143486047Y-63764142D01*
X143533666Y-63811761D01*
X143628904Y-63859380D01*
X143819380Y-63859380D01*
X143914619Y-63811761D01*
X143962238Y-63764142D01*
X144009857Y-63668904D01*
X144009857Y-63478428D01*
X143962238Y-63383190D01*
X143914619Y-63335571D01*
X143819380Y-63287952D01*
G04 #@! TO.C,TP17*
X167298904Y-109468380D02*
X167870333Y-109468380D01*
X167584619Y-110468380D02*
X167584619Y-109468380D01*
X168203666Y-110468380D02*
X168203666Y-109468380D01*
X168584619Y-109468380D01*
X168679857Y-109516000D01*
X168727476Y-109563619D01*
X168775095Y-109658857D01*
X168775095Y-109801714D01*
X168727476Y-109896952D01*
X168679857Y-109944571D01*
X168584619Y-109992190D01*
X168203666Y-109992190D01*
X169727476Y-110468380D02*
X169156047Y-110468380D01*
X169441761Y-110468380D02*
X169441761Y-109468380D01*
X169346523Y-109611238D01*
X169251285Y-109706476D01*
X169156047Y-109754095D01*
X170060809Y-109468380D02*
X170727476Y-109468380D01*
X170298904Y-110468380D01*
G04 #@! TO.C,TP16*
X167425904Y-66161380D02*
X167997333Y-66161380D01*
X167711619Y-67161380D02*
X167711619Y-66161380D01*
X168330666Y-67161380D02*
X168330666Y-66161380D01*
X168711619Y-66161380D01*
X168806857Y-66209000D01*
X168854476Y-66256619D01*
X168902095Y-66351857D01*
X168902095Y-66494714D01*
X168854476Y-66589952D01*
X168806857Y-66637571D01*
X168711619Y-66685190D01*
X168330666Y-66685190D01*
X169854476Y-67161380D02*
X169283047Y-67161380D01*
X169568761Y-67161380D02*
X169568761Y-66161380D01*
X169473523Y-66304238D01*
X169378285Y-66399476D01*
X169283047Y-66447095D01*
X170711619Y-66161380D02*
X170521142Y-66161380D01*
X170425904Y-66209000D01*
X170378285Y-66256619D01*
X170283047Y-66399476D01*
X170235428Y-66589952D01*
X170235428Y-66970904D01*
X170283047Y-67066142D01*
X170330666Y-67113761D01*
X170425904Y-67161380D01*
X170616380Y-67161380D01*
X170711619Y-67113761D01*
X170759238Y-67066142D01*
X170806857Y-66970904D01*
X170806857Y-66732809D01*
X170759238Y-66637571D01*
X170711619Y-66589952D01*
X170616380Y-66542333D01*
X170425904Y-66542333D01*
X170330666Y-66589952D01*
X170283047Y-66637571D01*
X170235428Y-66732809D01*
G04 #@! TO.C,TP12*
X167298904Y-94482380D02*
X167870333Y-94482380D01*
X167584619Y-95482380D02*
X167584619Y-94482380D01*
X168203666Y-95482380D02*
X168203666Y-94482380D01*
X168584619Y-94482380D01*
X168679857Y-94530000D01*
X168727476Y-94577619D01*
X168775095Y-94672857D01*
X168775095Y-94815714D01*
X168727476Y-94910952D01*
X168679857Y-94958571D01*
X168584619Y-95006190D01*
X168203666Y-95006190D01*
X169727476Y-95482380D02*
X169156047Y-95482380D01*
X169441761Y-95482380D02*
X169441761Y-94482380D01*
X169346523Y-94625238D01*
X169251285Y-94720476D01*
X169156047Y-94768095D01*
X170108428Y-94577619D02*
X170156047Y-94530000D01*
X170251285Y-94482380D01*
X170489380Y-94482380D01*
X170584619Y-94530000D01*
X170632238Y-94577619D01*
X170679857Y-94672857D01*
X170679857Y-94768095D01*
X170632238Y-94910952D01*
X170060809Y-95482380D01*
X170679857Y-95482380D01*
G04 #@! TO.C,TP5*
X141740095Y-72384380D02*
X142311523Y-72384380D01*
X142025809Y-73384380D02*
X142025809Y-72384380D01*
X142644857Y-73384380D02*
X142644857Y-72384380D01*
X143025809Y-72384380D01*
X143121047Y-72432000D01*
X143168666Y-72479619D01*
X143216285Y-72574857D01*
X143216285Y-72717714D01*
X143168666Y-72812952D01*
X143121047Y-72860571D01*
X143025809Y-72908190D01*
X142644857Y-72908190D01*
X144121047Y-72384380D02*
X143644857Y-72384380D01*
X143597238Y-72860571D01*
X143644857Y-72812952D01*
X143740095Y-72765333D01*
X143978190Y-72765333D01*
X144073428Y-72812952D01*
X144121047Y-72860571D01*
X144168666Y-72955809D01*
X144168666Y-73193904D01*
X144121047Y-73289142D01*
X144073428Y-73336761D01*
X143978190Y-73384380D01*
X143740095Y-73384380D01*
X143644857Y-73336761D01*
X143597238Y-73289142D01*
G04 #@! TO.C,TP8*
X167775095Y-78861380D02*
X168346523Y-78861380D01*
X168060809Y-79861380D02*
X168060809Y-78861380D01*
X168679857Y-79861380D02*
X168679857Y-78861380D01*
X169060809Y-78861380D01*
X169156047Y-78909000D01*
X169203666Y-78956619D01*
X169251285Y-79051857D01*
X169251285Y-79194714D01*
X169203666Y-79289952D01*
X169156047Y-79337571D01*
X169060809Y-79385190D01*
X168679857Y-79385190D01*
X169822714Y-79289952D02*
X169727476Y-79242333D01*
X169679857Y-79194714D01*
X169632238Y-79099476D01*
X169632238Y-79051857D01*
X169679857Y-78956619D01*
X169727476Y-78909000D01*
X169822714Y-78861380D01*
X170013190Y-78861380D01*
X170108428Y-78909000D01*
X170156047Y-78956619D01*
X170203666Y-79051857D01*
X170203666Y-79099476D01*
X170156047Y-79194714D01*
X170108428Y-79242333D01*
X170013190Y-79289952D01*
X169822714Y-79289952D01*
X169727476Y-79337571D01*
X169679857Y-79385190D01*
X169632238Y-79480428D01*
X169632238Y-79670904D01*
X169679857Y-79766142D01*
X169727476Y-79813761D01*
X169822714Y-79861380D01*
X170013190Y-79861380D01*
X170108428Y-79813761D01*
X170156047Y-79766142D01*
X170203666Y-79670904D01*
X170203666Y-79480428D01*
X170156047Y-79385190D01*
X170108428Y-79337571D01*
X170013190Y-79289952D01*
G04 #@! TO.C,TP4*
X127262095Y-63113380D02*
X127833523Y-63113380D01*
X127547809Y-64113380D02*
X127547809Y-63113380D01*
X128166857Y-64113380D02*
X128166857Y-63113380D01*
X128547809Y-63113380D01*
X128643047Y-63161000D01*
X128690666Y-63208619D01*
X128738285Y-63303857D01*
X128738285Y-63446714D01*
X128690666Y-63541952D01*
X128643047Y-63589571D01*
X128547809Y-63637190D01*
X128166857Y-63637190D01*
X129595428Y-63446714D02*
X129595428Y-64113380D01*
X129357333Y-63065761D02*
X129119238Y-63780047D01*
X129738285Y-63780047D01*
G04 #@! TO.C,P4*
X123975904Y-64587380D02*
X123975904Y-63587380D01*
X124356857Y-63587380D01*
X124452095Y-63635000D01*
X124499714Y-63682619D01*
X124547333Y-63777857D01*
X124547333Y-63920714D01*
X124499714Y-64015952D01*
X124452095Y-64063571D01*
X124356857Y-64111190D01*
X123975904Y-64111190D01*
X125404476Y-63920714D02*
X125404476Y-64587380D01*
X125166380Y-63539761D02*
X124928285Y-64254047D01*
X125547333Y-64254047D01*
G04 #@! TO.C,P2*
X104392504Y-110104180D02*
X104392504Y-109104180D01*
X104773457Y-109104180D01*
X104868695Y-109151800D01*
X104916314Y-109199419D01*
X104963933Y-109294657D01*
X104963933Y-109437514D01*
X104916314Y-109532752D01*
X104868695Y-109580371D01*
X104773457Y-109627990D01*
X104392504Y-109627990D01*
X105344885Y-109199419D02*
X105392504Y-109151800D01*
X105487742Y-109104180D01*
X105725838Y-109104180D01*
X105821076Y-109151800D01*
X105868695Y-109199419D01*
X105916314Y-109294657D01*
X105916314Y-109389895D01*
X105868695Y-109532752D01*
X105297266Y-110104180D01*
X105916314Y-110104180D01*
G04 #@! TO.C,P3*
X136802904Y-127452380D02*
X136802904Y-126452380D01*
X137183857Y-126452380D01*
X137279095Y-126500000D01*
X137326714Y-126547619D01*
X137374333Y-126642857D01*
X137374333Y-126785714D01*
X137326714Y-126880952D01*
X137279095Y-126928571D01*
X137183857Y-126976190D01*
X136802904Y-126976190D01*
X137707666Y-126452380D02*
X138326714Y-126452380D01*
X137993380Y-126833333D01*
X138136238Y-126833333D01*
X138231476Y-126880952D01*
X138279095Y-126928571D01*
X138326714Y-127023809D01*
X138326714Y-127261904D01*
X138279095Y-127357142D01*
X138231476Y-127404761D01*
X138136238Y-127452380D01*
X137850523Y-127452380D01*
X137755285Y-127404761D01*
X137707666Y-127357142D01*
G04 #@! TO.C,P1*
X104417904Y-76525380D02*
X104417904Y-75525380D01*
X104798857Y-75525380D01*
X104894095Y-75573000D01*
X104941714Y-75620619D01*
X104989333Y-75715857D01*
X104989333Y-75858714D01*
X104941714Y-75953952D01*
X104894095Y-76001571D01*
X104798857Y-76049190D01*
X104417904Y-76049190D01*
X105941714Y-76525380D02*
X105370285Y-76525380D01*
X105656000Y-76525380D02*
X105656000Y-75525380D01*
X105560761Y-75668238D01*
X105465523Y-75763476D01*
X105370285Y-75811095D01*
G04 #@! TO.C,D1*
X142390904Y-86431380D02*
X142390904Y-85431380D01*
X142629000Y-85431380D01*
X142771857Y-85479000D01*
X142867095Y-85574238D01*
X142914714Y-85669476D01*
X142962333Y-85859952D01*
X142962333Y-86002809D01*
X142914714Y-86193285D01*
X142867095Y-86288523D01*
X142771857Y-86383761D01*
X142629000Y-86431380D01*
X142390904Y-86431380D01*
X143914714Y-86431380D02*
X143343285Y-86431380D01*
X143629000Y-86431380D02*
X143629000Y-85431380D01*
X143533761Y-85574238D01*
X143438523Y-85669476D01*
X143343285Y-85717095D01*
G04 #@! TO.C,C42*
X124715542Y-120429257D02*
X124763161Y-120476876D01*
X124810780Y-120619733D01*
X124810780Y-120714971D01*
X124763161Y-120857828D01*
X124667923Y-120953066D01*
X124572685Y-121000685D01*
X124382209Y-121048304D01*
X124239352Y-121048304D01*
X124048876Y-121000685D01*
X123953638Y-120953066D01*
X123858400Y-120857828D01*
X123810780Y-120714971D01*
X123810780Y-120619733D01*
X123858400Y-120476876D01*
X123906019Y-120429257D01*
X124144114Y-119572114D02*
X124810780Y-119572114D01*
X123763161Y-119810209D02*
X124477447Y-120048304D01*
X124477447Y-119429257D01*
X123906019Y-119095923D02*
X123858400Y-119048304D01*
X123810780Y-118953066D01*
X123810780Y-118714971D01*
X123858400Y-118619733D01*
X123906019Y-118572114D01*
X124001257Y-118524495D01*
X124096495Y-118524495D01*
X124239352Y-118572114D01*
X124810780Y-119143542D01*
X124810780Y-118524495D01*
G04 #@! TO.C,R34*
X126334780Y-120556257D02*
X125858590Y-120889590D01*
X126334780Y-121127685D02*
X125334780Y-121127685D01*
X125334780Y-120746733D01*
X125382400Y-120651495D01*
X125430019Y-120603876D01*
X125525257Y-120556257D01*
X125668114Y-120556257D01*
X125763352Y-120603876D01*
X125810971Y-120651495D01*
X125858590Y-120746733D01*
X125858590Y-121127685D01*
X125334780Y-120222923D02*
X125334780Y-119603876D01*
X125715733Y-119937209D01*
X125715733Y-119794352D01*
X125763352Y-119699114D01*
X125810971Y-119651495D01*
X125906209Y-119603876D01*
X126144304Y-119603876D01*
X126239542Y-119651495D01*
X126287161Y-119699114D01*
X126334780Y-119794352D01*
X126334780Y-120080066D01*
X126287161Y-120175304D01*
X126239542Y-120222923D01*
X125668114Y-118746733D02*
X126334780Y-118746733D01*
X125287161Y-118984828D02*
X126001447Y-119222923D01*
X126001447Y-118603876D01*
G04 #@! TO.C,TH1*
X150074380Y-112639314D02*
X150074380Y-112067885D01*
X151074380Y-112353600D02*
X150074380Y-112353600D01*
X151074380Y-111734552D02*
X150074380Y-111734552D01*
X150550571Y-111734552D02*
X150550571Y-111163123D01*
X151074380Y-111163123D02*
X150074380Y-111163123D01*
X151074380Y-110163123D02*
X151074380Y-110734552D01*
X151074380Y-110448838D02*
X150074380Y-110448838D01*
X150217238Y-110544076D01*
X150312476Y-110639314D01*
X150360095Y-110734552D01*
G04 #@! TO.C,Q1*
X162591761Y-73953619D02*
X162496523Y-73906000D01*
X162401285Y-73810761D01*
X162258428Y-73667904D01*
X162163190Y-73620285D01*
X162067952Y-73620285D01*
X162115571Y-73858380D02*
X162020333Y-73810761D01*
X161925095Y-73715523D01*
X161877476Y-73525047D01*
X161877476Y-73191714D01*
X161925095Y-73001238D01*
X162020333Y-72906000D01*
X162115571Y-72858380D01*
X162306047Y-72858380D01*
X162401285Y-72906000D01*
X162496523Y-73001238D01*
X162544142Y-73191714D01*
X162544142Y-73525047D01*
X162496523Y-73715523D01*
X162401285Y-73810761D01*
X162306047Y-73858380D01*
X162115571Y-73858380D01*
X163496523Y-73858380D02*
X162925095Y-73858380D01*
X163210809Y-73858380D02*
X163210809Y-72858380D01*
X163115571Y-73001238D01*
X163020333Y-73096476D01*
X162925095Y-73144095D01*
G04 #@! TO.C,D2*
X146908780Y-79300295D02*
X145908780Y-79300295D01*
X145908780Y-79062200D01*
X145956400Y-78919342D01*
X146051638Y-78824104D01*
X146146876Y-78776485D01*
X146337352Y-78728866D01*
X146480209Y-78728866D01*
X146670685Y-78776485D01*
X146765923Y-78824104D01*
X146861161Y-78919342D01*
X146908780Y-79062200D01*
X146908780Y-79300295D01*
X146004019Y-78347914D02*
X145956400Y-78300295D01*
X145908780Y-78205057D01*
X145908780Y-77966961D01*
X145956400Y-77871723D01*
X146004019Y-77824104D01*
X146099257Y-77776485D01*
X146194495Y-77776485D01*
X146337352Y-77824104D01*
X146908780Y-78395533D01*
X146908780Y-77776485D01*
G04 #@! TO.C,C41*
X143486142Y-108008657D02*
X143533761Y-108056276D01*
X143581380Y-108199133D01*
X143581380Y-108294371D01*
X143533761Y-108437228D01*
X143438523Y-108532466D01*
X143343285Y-108580085D01*
X143152809Y-108627704D01*
X143009952Y-108627704D01*
X142819476Y-108580085D01*
X142724238Y-108532466D01*
X142629000Y-108437228D01*
X142581380Y-108294371D01*
X142581380Y-108199133D01*
X142629000Y-108056276D01*
X142676619Y-108008657D01*
X142914714Y-107151514D02*
X143581380Y-107151514D01*
X142533761Y-107389609D02*
X143248047Y-107627704D01*
X143248047Y-107008657D01*
X143581380Y-106103895D02*
X143581380Y-106675323D01*
X143581380Y-106389609D02*
X142581380Y-106389609D01*
X142724238Y-106484847D01*
X142819476Y-106580085D01*
X142867095Y-106675323D01*
G04 #@! TO.C,C40*
X143486142Y-104706657D02*
X143533761Y-104754276D01*
X143581380Y-104897133D01*
X143581380Y-104992371D01*
X143533761Y-105135228D01*
X143438523Y-105230466D01*
X143343285Y-105278085D01*
X143152809Y-105325704D01*
X143009952Y-105325704D01*
X142819476Y-105278085D01*
X142724238Y-105230466D01*
X142629000Y-105135228D01*
X142581380Y-104992371D01*
X142581380Y-104897133D01*
X142629000Y-104754276D01*
X142676619Y-104706657D01*
X142914714Y-103849514D02*
X143581380Y-103849514D01*
X142533761Y-104087609D02*
X143248047Y-104325704D01*
X143248047Y-103706657D01*
X142581380Y-103135228D02*
X142581380Y-103039990D01*
X142629000Y-102944752D01*
X142676619Y-102897133D01*
X142771857Y-102849514D01*
X142962333Y-102801895D01*
X143200428Y-102801895D01*
X143390904Y-102849514D01*
X143486142Y-102897133D01*
X143533761Y-102944752D01*
X143581380Y-103039990D01*
X143581380Y-103135228D01*
X143533761Y-103230466D01*
X143486142Y-103278085D01*
X143390904Y-103325704D01*
X143200428Y-103373323D01*
X142962333Y-103373323D01*
X142771857Y-103325704D01*
X142676619Y-103278085D01*
X142629000Y-103230466D01*
X142581380Y-103135228D01*
G04 #@! TO.C,C39*
X112625142Y-95511857D02*
X112672761Y-95559476D01*
X112720380Y-95702333D01*
X112720380Y-95797571D01*
X112672761Y-95940428D01*
X112577523Y-96035666D01*
X112482285Y-96083285D01*
X112291809Y-96130904D01*
X112148952Y-96130904D01*
X111958476Y-96083285D01*
X111863238Y-96035666D01*
X111768000Y-95940428D01*
X111720380Y-95797571D01*
X111720380Y-95702333D01*
X111768000Y-95559476D01*
X111815619Y-95511857D01*
X111720380Y-95178523D02*
X111720380Y-94559476D01*
X112101333Y-94892809D01*
X112101333Y-94749952D01*
X112148952Y-94654714D01*
X112196571Y-94607095D01*
X112291809Y-94559476D01*
X112529904Y-94559476D01*
X112625142Y-94607095D01*
X112672761Y-94654714D01*
X112720380Y-94749952D01*
X112720380Y-95035666D01*
X112672761Y-95130904D01*
X112625142Y-95178523D01*
X112720380Y-94083285D02*
X112720380Y-93892809D01*
X112672761Y-93797571D01*
X112625142Y-93749952D01*
X112482285Y-93654714D01*
X112291809Y-93607095D01*
X111910857Y-93607095D01*
X111815619Y-93654714D01*
X111768000Y-93702333D01*
X111720380Y-93797571D01*
X111720380Y-93988047D01*
X111768000Y-94083285D01*
X111815619Y-94130904D01*
X111910857Y-94178523D01*
X112148952Y-94178523D01*
X112244190Y-94130904D01*
X112291809Y-94083285D01*
X112339428Y-93988047D01*
X112339428Y-93797571D01*
X112291809Y-93702333D01*
X112244190Y-93654714D01*
X112148952Y-93607095D01*
G04 #@! TO.C,C37*
X124756942Y-107316542D02*
X124709323Y-107364161D01*
X124566466Y-107411780D01*
X124471228Y-107411780D01*
X124328371Y-107364161D01*
X124233133Y-107268923D01*
X124185514Y-107173685D01*
X124137895Y-106983209D01*
X124137895Y-106840352D01*
X124185514Y-106649876D01*
X124233133Y-106554638D01*
X124328371Y-106459400D01*
X124471228Y-106411780D01*
X124566466Y-106411780D01*
X124709323Y-106459400D01*
X124756942Y-106507019D01*
X125090276Y-106411780D02*
X125709323Y-106411780D01*
X125375990Y-106792733D01*
X125518847Y-106792733D01*
X125614085Y-106840352D01*
X125661704Y-106887971D01*
X125709323Y-106983209D01*
X125709323Y-107221304D01*
X125661704Y-107316542D01*
X125614085Y-107364161D01*
X125518847Y-107411780D01*
X125233133Y-107411780D01*
X125137895Y-107364161D01*
X125090276Y-107316542D01*
X126042657Y-106411780D02*
X126709323Y-106411780D01*
X126280752Y-107411780D01*
G04 #@! TO.C,C35*
X110847142Y-95511857D02*
X110894761Y-95559476D01*
X110942380Y-95702333D01*
X110942380Y-95797571D01*
X110894761Y-95940428D01*
X110799523Y-96035666D01*
X110704285Y-96083285D01*
X110513809Y-96130904D01*
X110370952Y-96130904D01*
X110180476Y-96083285D01*
X110085238Y-96035666D01*
X109990000Y-95940428D01*
X109942380Y-95797571D01*
X109942380Y-95702333D01*
X109990000Y-95559476D01*
X110037619Y-95511857D01*
X109942380Y-95178523D02*
X109942380Y-94559476D01*
X110323333Y-94892809D01*
X110323333Y-94749952D01*
X110370952Y-94654714D01*
X110418571Y-94607095D01*
X110513809Y-94559476D01*
X110751904Y-94559476D01*
X110847142Y-94607095D01*
X110894761Y-94654714D01*
X110942380Y-94749952D01*
X110942380Y-95035666D01*
X110894761Y-95130904D01*
X110847142Y-95178523D01*
X109942380Y-93654714D02*
X109942380Y-94130904D01*
X110418571Y-94178523D01*
X110370952Y-94130904D01*
X110323333Y-94035666D01*
X110323333Y-93797571D01*
X110370952Y-93702333D01*
X110418571Y-93654714D01*
X110513809Y-93607095D01*
X110751904Y-93607095D01*
X110847142Y-93654714D01*
X110894761Y-93702333D01*
X110942380Y-93797571D01*
X110942380Y-94035666D01*
X110894761Y-94130904D01*
X110847142Y-94178523D01*
G04 #@! TO.C,C34*
X109593142Y-103989142D02*
X109545523Y-104036761D01*
X109402666Y-104084380D01*
X109307428Y-104084380D01*
X109164571Y-104036761D01*
X109069333Y-103941523D01*
X109021714Y-103846285D01*
X108974095Y-103655809D01*
X108974095Y-103512952D01*
X109021714Y-103322476D01*
X109069333Y-103227238D01*
X109164571Y-103132000D01*
X109307428Y-103084380D01*
X109402666Y-103084380D01*
X109545523Y-103132000D01*
X109593142Y-103179619D01*
X109926476Y-103084380D02*
X110545523Y-103084380D01*
X110212190Y-103465333D01*
X110355047Y-103465333D01*
X110450285Y-103512952D01*
X110497904Y-103560571D01*
X110545523Y-103655809D01*
X110545523Y-103893904D01*
X110497904Y-103989142D01*
X110450285Y-104036761D01*
X110355047Y-104084380D01*
X110069333Y-104084380D01*
X109974095Y-104036761D01*
X109926476Y-103989142D01*
X111402666Y-103417714D02*
X111402666Y-104084380D01*
X111164571Y-103036761D02*
X110926476Y-103751047D01*
X111545523Y-103751047D01*
G04 #@! TO.C,C32*
X111100949Y-114844145D02*
X111053330Y-114891764D01*
X110910473Y-114939383D01*
X110815235Y-114939383D01*
X110672378Y-114891764D01*
X110577140Y-114796526D01*
X110529521Y-114701288D01*
X110481902Y-114510812D01*
X110481902Y-114367955D01*
X110529521Y-114177479D01*
X110577140Y-114082241D01*
X110672378Y-113987003D01*
X110815235Y-113939383D01*
X110910473Y-113939383D01*
X111053330Y-113987003D01*
X111100949Y-114034622D01*
X111434283Y-113939383D02*
X112053330Y-113939383D01*
X111719997Y-114320336D01*
X111862854Y-114320336D01*
X111958092Y-114367955D01*
X112005711Y-114415574D01*
X112053330Y-114510812D01*
X112053330Y-114748907D01*
X112005711Y-114844145D01*
X111958092Y-114891764D01*
X111862854Y-114939383D01*
X111577140Y-114939383D01*
X111481902Y-114891764D01*
X111434283Y-114844145D01*
X112434283Y-114034622D02*
X112481902Y-113987003D01*
X112577140Y-113939383D01*
X112815235Y-113939383D01*
X112910473Y-113987003D01*
X112958092Y-114034622D01*
X113005711Y-114129860D01*
X113005711Y-114225098D01*
X112958092Y-114367955D01*
X112386664Y-114939383D01*
X113005711Y-114939383D01*
G04 #@! TO.C,X1*
X107487787Y-110013326D02*
X108487787Y-109346660D01*
X107487787Y-109346660D02*
X108487787Y-110013326D01*
X108487787Y-108441898D02*
X108487787Y-109013326D01*
X108487787Y-108727612D02*
X107487787Y-108727612D01*
X107630645Y-108822850D01*
X107725883Y-108918088D01*
X107773502Y-109013326D01*
G04 #@! TO.C,D4*
X121584980Y-114631695D02*
X120584980Y-114631695D01*
X120584980Y-114393600D01*
X120632600Y-114250742D01*
X120727838Y-114155504D01*
X120823076Y-114107885D01*
X121013552Y-114060266D01*
X121156409Y-114060266D01*
X121346885Y-114107885D01*
X121442123Y-114155504D01*
X121537361Y-114250742D01*
X121584980Y-114393600D01*
X121584980Y-114631695D01*
X120918314Y-113203123D02*
X121584980Y-113203123D01*
X120537361Y-113441219D02*
X121251647Y-113679314D01*
X121251647Y-113060266D01*
G04 #@! TO.C,D5*
X118435380Y-114682495D02*
X117435380Y-114682495D01*
X117435380Y-114444400D01*
X117483000Y-114301542D01*
X117578238Y-114206304D01*
X117673476Y-114158685D01*
X117863952Y-114111066D01*
X118006809Y-114111066D01*
X118197285Y-114158685D01*
X118292523Y-114206304D01*
X118387761Y-114301542D01*
X118435380Y-114444400D01*
X118435380Y-114682495D01*
X117435380Y-113206304D02*
X117435380Y-113682495D01*
X117911571Y-113730114D01*
X117863952Y-113682495D01*
X117816333Y-113587257D01*
X117816333Y-113349161D01*
X117863952Y-113253923D01*
X117911571Y-113206304D01*
X118006809Y-113158685D01*
X118244904Y-113158685D01*
X118340142Y-113206304D01*
X118387761Y-113253923D01*
X118435380Y-113349161D01*
X118435380Y-113587257D01*
X118387761Y-113682495D01*
X118340142Y-113730114D01*
G04 #@! TO.C,D3*
X120060980Y-114606295D02*
X119060980Y-114606295D01*
X119060980Y-114368200D01*
X119108600Y-114225342D01*
X119203838Y-114130104D01*
X119299076Y-114082485D01*
X119489552Y-114034866D01*
X119632409Y-114034866D01*
X119822885Y-114082485D01*
X119918123Y-114130104D01*
X120013361Y-114225342D01*
X120060980Y-114368200D01*
X120060980Y-114606295D01*
X119060980Y-113701533D02*
X119060980Y-113082485D01*
X119441933Y-113415819D01*
X119441933Y-113272961D01*
X119489552Y-113177723D01*
X119537171Y-113130104D01*
X119632409Y-113082485D01*
X119870504Y-113082485D01*
X119965742Y-113130104D01*
X120013361Y-113177723D01*
X120060980Y-113272961D01*
X120060980Y-113558676D01*
X120013361Y-113653914D01*
X119965742Y-113701533D01*
G04 #@! TO.C,R32*
X149521942Y-107005380D02*
X149188609Y-106529190D01*
X148950514Y-107005380D02*
X148950514Y-106005380D01*
X149331466Y-106005380D01*
X149426704Y-106053000D01*
X149474323Y-106100619D01*
X149521942Y-106195857D01*
X149521942Y-106338714D01*
X149474323Y-106433952D01*
X149426704Y-106481571D01*
X149331466Y-106529190D01*
X148950514Y-106529190D01*
X149855276Y-106005380D02*
X150474323Y-106005380D01*
X150140990Y-106386333D01*
X150283847Y-106386333D01*
X150379085Y-106433952D01*
X150426704Y-106481571D01*
X150474323Y-106576809D01*
X150474323Y-106814904D01*
X150426704Y-106910142D01*
X150379085Y-106957761D01*
X150283847Y-107005380D01*
X149998133Y-107005380D01*
X149902895Y-106957761D01*
X149855276Y-106910142D01*
X150855276Y-106100619D02*
X150902895Y-106053000D01*
X150998133Y-106005380D01*
X151236228Y-106005380D01*
X151331466Y-106053000D01*
X151379085Y-106100619D01*
X151426704Y-106195857D01*
X151426704Y-106291095D01*
X151379085Y-106433952D01*
X150807657Y-107005380D01*
X151426704Y-107005380D01*
G04 #@! TO.C,R27*
X120264180Y-105875057D02*
X119787990Y-106208390D01*
X120264180Y-106446485D02*
X119264180Y-106446485D01*
X119264180Y-106065533D01*
X119311800Y-105970295D01*
X119359419Y-105922676D01*
X119454657Y-105875057D01*
X119597514Y-105875057D01*
X119692752Y-105922676D01*
X119740371Y-105970295D01*
X119787990Y-106065533D01*
X119787990Y-106446485D01*
X119359419Y-105494104D02*
X119311800Y-105446485D01*
X119264180Y-105351247D01*
X119264180Y-105113152D01*
X119311800Y-105017914D01*
X119359419Y-104970295D01*
X119454657Y-104922676D01*
X119549895Y-104922676D01*
X119692752Y-104970295D01*
X120264180Y-105541723D01*
X120264180Y-104922676D01*
X119264180Y-104589342D02*
X119264180Y-103922676D01*
X120264180Y-104351247D01*
G04 #@! TO.C,R28*
X121534180Y-105875057D02*
X121057990Y-106208390D01*
X121534180Y-106446485D02*
X120534180Y-106446485D01*
X120534180Y-106065533D01*
X120581800Y-105970295D01*
X120629419Y-105922676D01*
X120724657Y-105875057D01*
X120867514Y-105875057D01*
X120962752Y-105922676D01*
X121010371Y-105970295D01*
X121057990Y-106065533D01*
X121057990Y-106446485D01*
X120629419Y-105494104D02*
X120581800Y-105446485D01*
X120534180Y-105351247D01*
X120534180Y-105113152D01*
X120581800Y-105017914D01*
X120629419Y-104970295D01*
X120724657Y-104922676D01*
X120819895Y-104922676D01*
X120962752Y-104970295D01*
X121534180Y-105541723D01*
X121534180Y-104922676D01*
X120962752Y-104351247D02*
X120915133Y-104446485D01*
X120867514Y-104494104D01*
X120772276Y-104541723D01*
X120724657Y-104541723D01*
X120629419Y-104494104D01*
X120581800Y-104446485D01*
X120534180Y-104351247D01*
X120534180Y-104160771D01*
X120581800Y-104065533D01*
X120629419Y-104017914D01*
X120724657Y-103970295D01*
X120772276Y-103970295D01*
X120867514Y-104017914D01*
X120915133Y-104065533D01*
X120962752Y-104160771D01*
X120962752Y-104351247D01*
X121010371Y-104446485D01*
X121057990Y-104494104D01*
X121153228Y-104541723D01*
X121343704Y-104541723D01*
X121438942Y-104494104D01*
X121486561Y-104446485D01*
X121534180Y-104351247D01*
X121534180Y-104160771D01*
X121486561Y-104065533D01*
X121438942Y-104017914D01*
X121343704Y-103970295D01*
X121153228Y-103970295D01*
X121057990Y-104017914D01*
X121010371Y-104065533D01*
X120962752Y-104160771D01*
G04 #@! TO.C,R29*
X118740180Y-105875057D02*
X118263990Y-106208390D01*
X118740180Y-106446485D02*
X117740180Y-106446485D01*
X117740180Y-106065533D01*
X117787800Y-105970295D01*
X117835419Y-105922676D01*
X117930657Y-105875057D01*
X118073514Y-105875057D01*
X118168752Y-105922676D01*
X118216371Y-105970295D01*
X118263990Y-106065533D01*
X118263990Y-106446485D01*
X117835419Y-105494104D02*
X117787800Y-105446485D01*
X117740180Y-105351247D01*
X117740180Y-105113152D01*
X117787800Y-105017914D01*
X117835419Y-104970295D01*
X117930657Y-104922676D01*
X118025895Y-104922676D01*
X118168752Y-104970295D01*
X118740180Y-105541723D01*
X118740180Y-104922676D01*
X118740180Y-104446485D02*
X118740180Y-104256009D01*
X118692561Y-104160771D01*
X118644942Y-104113152D01*
X118502085Y-104017914D01*
X118311609Y-103970295D01*
X117930657Y-103970295D01*
X117835419Y-104017914D01*
X117787800Y-104065533D01*
X117740180Y-104160771D01*
X117740180Y-104351247D01*
X117787800Y-104446485D01*
X117835419Y-104494104D01*
X117930657Y-104541723D01*
X118168752Y-104541723D01*
X118263990Y-104494104D01*
X118311609Y-104446485D01*
X118359228Y-104351247D01*
X118359228Y-104160771D01*
X118311609Y-104065533D01*
X118263990Y-104017914D01*
X118168752Y-103970295D01*
G04 #@! TO.C,R30*
X149191742Y-103957380D02*
X148858409Y-103481190D01*
X148620314Y-103957380D02*
X148620314Y-102957380D01*
X149001266Y-102957380D01*
X149096504Y-103005000D01*
X149144123Y-103052619D01*
X149191742Y-103147857D01*
X149191742Y-103290714D01*
X149144123Y-103385952D01*
X149096504Y-103433571D01*
X149001266Y-103481190D01*
X148620314Y-103481190D01*
X149525076Y-102957380D02*
X150144123Y-102957380D01*
X149810790Y-103338333D01*
X149953647Y-103338333D01*
X150048885Y-103385952D01*
X150096504Y-103433571D01*
X150144123Y-103528809D01*
X150144123Y-103766904D01*
X150096504Y-103862142D01*
X150048885Y-103909761D01*
X149953647Y-103957380D01*
X149667933Y-103957380D01*
X149572695Y-103909761D01*
X149525076Y-103862142D01*
X150763171Y-102957380D02*
X150858409Y-102957380D01*
X150953647Y-103005000D01*
X151001266Y-103052619D01*
X151048885Y-103147857D01*
X151096504Y-103338333D01*
X151096504Y-103576428D01*
X151048885Y-103766904D01*
X151001266Y-103862142D01*
X150953647Y-103909761D01*
X150858409Y-103957380D01*
X150763171Y-103957380D01*
X150667933Y-103909761D01*
X150620314Y-103862142D01*
X150572695Y-103766904D01*
X150525076Y-103576428D01*
X150525076Y-103338333D01*
X150572695Y-103147857D01*
X150620314Y-103052619D01*
X150667933Y-103005000D01*
X150763171Y-102957380D01*
G04 #@! TO.C,R33*
X149496542Y-108580180D02*
X149163209Y-108103990D01*
X148925114Y-108580180D02*
X148925114Y-107580180D01*
X149306066Y-107580180D01*
X149401304Y-107627800D01*
X149448923Y-107675419D01*
X149496542Y-107770657D01*
X149496542Y-107913514D01*
X149448923Y-108008752D01*
X149401304Y-108056371D01*
X149306066Y-108103990D01*
X148925114Y-108103990D01*
X149829876Y-107580180D02*
X150448923Y-107580180D01*
X150115590Y-107961133D01*
X150258447Y-107961133D01*
X150353685Y-108008752D01*
X150401304Y-108056371D01*
X150448923Y-108151609D01*
X150448923Y-108389704D01*
X150401304Y-108484942D01*
X150353685Y-108532561D01*
X150258447Y-108580180D01*
X149972733Y-108580180D01*
X149877495Y-108532561D01*
X149829876Y-108484942D01*
X150782257Y-107580180D02*
X151401304Y-107580180D01*
X151067971Y-107961133D01*
X151210828Y-107961133D01*
X151306066Y-108008752D01*
X151353685Y-108056371D01*
X151401304Y-108151609D01*
X151401304Y-108389704D01*
X151353685Y-108484942D01*
X151306066Y-108532561D01*
X151210828Y-108580180D01*
X150925114Y-108580180D01*
X150829876Y-108532561D01*
X150782257Y-108484942D01*
G04 #@! TO.C,R31*
X149242542Y-105481380D02*
X148909209Y-105005190D01*
X148671114Y-105481380D02*
X148671114Y-104481380D01*
X149052066Y-104481380D01*
X149147304Y-104529000D01*
X149194923Y-104576619D01*
X149242542Y-104671857D01*
X149242542Y-104814714D01*
X149194923Y-104909952D01*
X149147304Y-104957571D01*
X149052066Y-105005190D01*
X148671114Y-105005190D01*
X149575876Y-104481380D02*
X150194923Y-104481380D01*
X149861590Y-104862333D01*
X150004447Y-104862333D01*
X150099685Y-104909952D01*
X150147304Y-104957571D01*
X150194923Y-105052809D01*
X150194923Y-105290904D01*
X150147304Y-105386142D01*
X150099685Y-105433761D01*
X150004447Y-105481380D01*
X149718733Y-105481380D01*
X149623495Y-105433761D01*
X149575876Y-105386142D01*
X151147304Y-105481380D02*
X150575876Y-105481380D01*
X150861590Y-105481380D02*
X150861590Y-104481380D01*
X150766352Y-104624238D01*
X150671114Y-104719476D01*
X150575876Y-104767095D01*
G04 #@! TO.C,C31*
X148455142Y-67921142D02*
X148407523Y-67968761D01*
X148264666Y-68016380D01*
X148169428Y-68016380D01*
X148026571Y-67968761D01*
X147931333Y-67873523D01*
X147883714Y-67778285D01*
X147836095Y-67587809D01*
X147836095Y-67444952D01*
X147883714Y-67254476D01*
X147931333Y-67159238D01*
X148026571Y-67064000D01*
X148169428Y-67016380D01*
X148264666Y-67016380D01*
X148407523Y-67064000D01*
X148455142Y-67111619D01*
X148788476Y-67016380D02*
X149407523Y-67016380D01*
X149074190Y-67397333D01*
X149217047Y-67397333D01*
X149312285Y-67444952D01*
X149359904Y-67492571D01*
X149407523Y-67587809D01*
X149407523Y-67825904D01*
X149359904Y-67921142D01*
X149312285Y-67968761D01*
X149217047Y-68016380D01*
X148931333Y-68016380D01*
X148836095Y-67968761D01*
X148788476Y-67921142D01*
X150359904Y-68016380D02*
X149788476Y-68016380D01*
X150074190Y-68016380D02*
X150074190Y-67016380D01*
X149978952Y-67159238D01*
X149883714Y-67254476D01*
X149788476Y-67302095D01*
G04 #@! TO.C,C33*
X162425142Y-123801142D02*
X162377523Y-123848761D01*
X162234666Y-123896380D01*
X162139428Y-123896380D01*
X161996571Y-123848761D01*
X161901333Y-123753523D01*
X161853714Y-123658285D01*
X161806095Y-123467809D01*
X161806095Y-123324952D01*
X161853714Y-123134476D01*
X161901333Y-123039238D01*
X161996571Y-122944000D01*
X162139428Y-122896380D01*
X162234666Y-122896380D01*
X162377523Y-122944000D01*
X162425142Y-122991619D01*
X162758476Y-122896380D02*
X163377523Y-122896380D01*
X163044190Y-123277333D01*
X163187047Y-123277333D01*
X163282285Y-123324952D01*
X163329904Y-123372571D01*
X163377523Y-123467809D01*
X163377523Y-123705904D01*
X163329904Y-123801142D01*
X163282285Y-123848761D01*
X163187047Y-123896380D01*
X162901333Y-123896380D01*
X162806095Y-123848761D01*
X162758476Y-123801142D01*
X163710857Y-122896380D02*
X164329904Y-122896380D01*
X163996571Y-123277333D01*
X164139428Y-123277333D01*
X164234666Y-123324952D01*
X164282285Y-123372571D01*
X164329904Y-123467809D01*
X164329904Y-123705904D01*
X164282285Y-123801142D01*
X164234666Y-123848761D01*
X164139428Y-123896380D01*
X163853714Y-123896380D01*
X163758476Y-123848761D01*
X163710857Y-123801142D01*
G04 #@! TO.C,C8*
X128144542Y-82843666D02*
X128192161Y-82891285D01*
X128239780Y-83034142D01*
X128239780Y-83129380D01*
X128192161Y-83272238D01*
X128096923Y-83367476D01*
X128001685Y-83415095D01*
X127811209Y-83462714D01*
X127668352Y-83462714D01*
X127477876Y-83415095D01*
X127382638Y-83367476D01*
X127287400Y-83272238D01*
X127239780Y-83129380D01*
X127239780Y-83034142D01*
X127287400Y-82891285D01*
X127335019Y-82843666D01*
X127668352Y-82272238D02*
X127620733Y-82367476D01*
X127573114Y-82415095D01*
X127477876Y-82462714D01*
X127430257Y-82462714D01*
X127335019Y-82415095D01*
X127287400Y-82367476D01*
X127239780Y-82272238D01*
X127239780Y-82081761D01*
X127287400Y-81986523D01*
X127335019Y-81938904D01*
X127430257Y-81891285D01*
X127477876Y-81891285D01*
X127573114Y-81938904D01*
X127620733Y-81986523D01*
X127668352Y-82081761D01*
X127668352Y-82272238D01*
X127715971Y-82367476D01*
X127763590Y-82415095D01*
X127858828Y-82462714D01*
X128049304Y-82462714D01*
X128144542Y-82415095D01*
X128192161Y-82367476D01*
X128239780Y-82272238D01*
X128239780Y-82081761D01*
X128192161Y-81986523D01*
X128144542Y-81938904D01*
X128049304Y-81891285D01*
X127858828Y-81891285D01*
X127763590Y-81938904D01*
X127715971Y-81986523D01*
X127668352Y-82081761D01*
G04 #@! TO.C,C13*
X129211342Y-99474257D02*
X129258961Y-99521876D01*
X129306580Y-99664733D01*
X129306580Y-99759971D01*
X129258961Y-99902828D01*
X129163723Y-99998066D01*
X129068485Y-100045685D01*
X128878009Y-100093304D01*
X128735152Y-100093304D01*
X128544676Y-100045685D01*
X128449438Y-99998066D01*
X128354200Y-99902828D01*
X128306580Y-99759971D01*
X128306580Y-99664733D01*
X128354200Y-99521876D01*
X128401819Y-99474257D01*
X129306580Y-98521876D02*
X129306580Y-99093304D01*
X129306580Y-98807590D02*
X128306580Y-98807590D01*
X128449438Y-98902828D01*
X128544676Y-98998066D01*
X128592295Y-99093304D01*
X128306580Y-98188542D02*
X128306580Y-97569495D01*
X128687533Y-97902828D01*
X128687533Y-97759971D01*
X128735152Y-97664733D01*
X128782771Y-97617114D01*
X128878009Y-97569495D01*
X129116104Y-97569495D01*
X129211342Y-97617114D01*
X129258961Y-97664733D01*
X129306580Y-97759971D01*
X129306580Y-98045685D01*
X129258961Y-98140923D01*
X129211342Y-98188542D01*
G04 #@! TO.C,C16*
X126611142Y-70080142D02*
X126563523Y-70127761D01*
X126420666Y-70175380D01*
X126325428Y-70175380D01*
X126182571Y-70127761D01*
X126087333Y-70032523D01*
X126039714Y-69937285D01*
X125992095Y-69746809D01*
X125992095Y-69603952D01*
X126039714Y-69413476D01*
X126087333Y-69318238D01*
X126182571Y-69223000D01*
X126325428Y-69175380D01*
X126420666Y-69175380D01*
X126563523Y-69223000D01*
X126611142Y-69270619D01*
X127563523Y-70175380D02*
X126992095Y-70175380D01*
X127277809Y-70175380D02*
X127277809Y-69175380D01*
X127182571Y-69318238D01*
X127087333Y-69413476D01*
X126992095Y-69461095D01*
X128420666Y-69175380D02*
X128230190Y-69175380D01*
X128134952Y-69223000D01*
X128087333Y-69270619D01*
X127992095Y-69413476D01*
X127944476Y-69603952D01*
X127944476Y-69984904D01*
X127992095Y-70080142D01*
X128039714Y-70127761D01*
X128134952Y-70175380D01*
X128325428Y-70175380D01*
X128420666Y-70127761D01*
X128468285Y-70080142D01*
X128515904Y-69984904D01*
X128515904Y-69746809D01*
X128468285Y-69651571D01*
X128420666Y-69603952D01*
X128325428Y-69556333D01*
X128134952Y-69556333D01*
X128039714Y-69603952D01*
X127992095Y-69651571D01*
X127944476Y-69746809D01*
G04 #@! TO.C,C17*
X147566142Y-93905342D02*
X147518523Y-93952961D01*
X147375666Y-94000580D01*
X147280428Y-94000580D01*
X147137571Y-93952961D01*
X147042333Y-93857723D01*
X146994714Y-93762485D01*
X146947095Y-93572009D01*
X146947095Y-93429152D01*
X146994714Y-93238676D01*
X147042333Y-93143438D01*
X147137571Y-93048200D01*
X147280428Y-93000580D01*
X147375666Y-93000580D01*
X147518523Y-93048200D01*
X147566142Y-93095819D01*
X148518523Y-94000580D02*
X147947095Y-94000580D01*
X148232809Y-94000580D02*
X148232809Y-93000580D01*
X148137571Y-93143438D01*
X148042333Y-93238676D01*
X147947095Y-93286295D01*
X148851857Y-93000580D02*
X149518523Y-93000580D01*
X149089952Y-94000580D01*
G04 #@! TO.C,C19*
X147566142Y-96089742D02*
X147518523Y-96137361D01*
X147375666Y-96184980D01*
X147280428Y-96184980D01*
X147137571Y-96137361D01*
X147042333Y-96042123D01*
X146994714Y-95946885D01*
X146947095Y-95756409D01*
X146947095Y-95613552D01*
X146994714Y-95423076D01*
X147042333Y-95327838D01*
X147137571Y-95232600D01*
X147280428Y-95184980D01*
X147375666Y-95184980D01*
X147518523Y-95232600D01*
X147566142Y-95280219D01*
X148518523Y-96184980D02*
X147947095Y-96184980D01*
X148232809Y-96184980D02*
X148232809Y-95184980D01*
X148137571Y-95327838D01*
X148042333Y-95423076D01*
X147947095Y-95470695D01*
X148994714Y-96184980D02*
X149185190Y-96184980D01*
X149280428Y-96137361D01*
X149328047Y-96089742D01*
X149423285Y-95946885D01*
X149470904Y-95756409D01*
X149470904Y-95375457D01*
X149423285Y-95280219D01*
X149375666Y-95232600D01*
X149280428Y-95184980D01*
X149089952Y-95184980D01*
X148994714Y-95232600D01*
X148947095Y-95280219D01*
X148899476Y-95375457D01*
X148899476Y-95613552D01*
X148947095Y-95708790D01*
X148994714Y-95756409D01*
X149089952Y-95804028D01*
X149280428Y-95804028D01*
X149375666Y-95756409D01*
X149423285Y-95708790D01*
X149470904Y-95613552D01*
G04 #@! TO.C,C20*
X147566142Y-98578942D02*
X147518523Y-98626561D01*
X147375666Y-98674180D01*
X147280428Y-98674180D01*
X147137571Y-98626561D01*
X147042333Y-98531323D01*
X146994714Y-98436085D01*
X146947095Y-98245609D01*
X146947095Y-98102752D01*
X146994714Y-97912276D01*
X147042333Y-97817038D01*
X147137571Y-97721800D01*
X147280428Y-97674180D01*
X147375666Y-97674180D01*
X147518523Y-97721800D01*
X147566142Y-97769419D01*
X147947095Y-97769419D02*
X147994714Y-97721800D01*
X148089952Y-97674180D01*
X148328047Y-97674180D01*
X148423285Y-97721800D01*
X148470904Y-97769419D01*
X148518523Y-97864657D01*
X148518523Y-97959895D01*
X148470904Y-98102752D01*
X147899476Y-98674180D01*
X148518523Y-98674180D01*
X149137571Y-97674180D02*
X149232809Y-97674180D01*
X149328047Y-97721800D01*
X149375666Y-97769419D01*
X149423285Y-97864657D01*
X149470904Y-98055133D01*
X149470904Y-98293228D01*
X149423285Y-98483704D01*
X149375666Y-98578942D01*
X149328047Y-98626561D01*
X149232809Y-98674180D01*
X149137571Y-98674180D01*
X149042333Y-98626561D01*
X148994714Y-98578942D01*
X148947095Y-98483704D01*
X148899476Y-98293228D01*
X148899476Y-98055133D01*
X148947095Y-97864657D01*
X148994714Y-97769419D01*
X149042333Y-97721800D01*
X149137571Y-97674180D01*
G04 #@! TO.C,C21*
X147616942Y-101068142D02*
X147569323Y-101115761D01*
X147426466Y-101163380D01*
X147331228Y-101163380D01*
X147188371Y-101115761D01*
X147093133Y-101020523D01*
X147045514Y-100925285D01*
X146997895Y-100734809D01*
X146997895Y-100591952D01*
X147045514Y-100401476D01*
X147093133Y-100306238D01*
X147188371Y-100211000D01*
X147331228Y-100163380D01*
X147426466Y-100163380D01*
X147569323Y-100211000D01*
X147616942Y-100258619D01*
X147997895Y-100258619D02*
X148045514Y-100211000D01*
X148140752Y-100163380D01*
X148378847Y-100163380D01*
X148474085Y-100211000D01*
X148521704Y-100258619D01*
X148569323Y-100353857D01*
X148569323Y-100449095D01*
X148521704Y-100591952D01*
X147950276Y-101163380D01*
X148569323Y-101163380D01*
X149521704Y-101163380D02*
X148950276Y-101163380D01*
X149235990Y-101163380D02*
X149235990Y-100163380D01*
X149140752Y-100306238D01*
X149045514Y-100401476D01*
X148950276Y-100449095D01*
G04 #@! TO.C,C23*
X144197342Y-80322657D02*
X144244961Y-80370276D01*
X144292580Y-80513133D01*
X144292580Y-80608371D01*
X144244961Y-80751228D01*
X144149723Y-80846466D01*
X144054485Y-80894085D01*
X143864009Y-80941704D01*
X143721152Y-80941704D01*
X143530676Y-80894085D01*
X143435438Y-80846466D01*
X143340200Y-80751228D01*
X143292580Y-80608371D01*
X143292580Y-80513133D01*
X143340200Y-80370276D01*
X143387819Y-80322657D01*
X143387819Y-79941704D02*
X143340200Y-79894085D01*
X143292580Y-79798847D01*
X143292580Y-79560752D01*
X143340200Y-79465514D01*
X143387819Y-79417895D01*
X143483057Y-79370276D01*
X143578295Y-79370276D01*
X143721152Y-79417895D01*
X144292580Y-79989323D01*
X144292580Y-79370276D01*
X143292580Y-79036942D02*
X143292580Y-78417895D01*
X143673533Y-78751228D01*
X143673533Y-78608371D01*
X143721152Y-78513133D01*
X143768771Y-78465514D01*
X143864009Y-78417895D01*
X144102104Y-78417895D01*
X144197342Y-78465514D01*
X144244961Y-78513133D01*
X144292580Y-78608371D01*
X144292580Y-78894085D01*
X144244961Y-78989323D01*
X144197342Y-79036942D01*
G04 #@! TO.C,C22*
X149531342Y-90838257D02*
X149578961Y-90885876D01*
X149626580Y-91028733D01*
X149626580Y-91123971D01*
X149578961Y-91266828D01*
X149483723Y-91362066D01*
X149388485Y-91409685D01*
X149198009Y-91457304D01*
X149055152Y-91457304D01*
X148864676Y-91409685D01*
X148769438Y-91362066D01*
X148674200Y-91266828D01*
X148626580Y-91123971D01*
X148626580Y-91028733D01*
X148674200Y-90885876D01*
X148721819Y-90838257D01*
X148721819Y-90457304D02*
X148674200Y-90409685D01*
X148626580Y-90314447D01*
X148626580Y-90076352D01*
X148674200Y-89981114D01*
X148721819Y-89933495D01*
X148817057Y-89885876D01*
X148912295Y-89885876D01*
X149055152Y-89933495D01*
X149626580Y-90504923D01*
X149626580Y-89885876D01*
X148721819Y-89504923D02*
X148674200Y-89457304D01*
X148626580Y-89362066D01*
X148626580Y-89123971D01*
X148674200Y-89028733D01*
X148721819Y-88981114D01*
X148817057Y-88933495D01*
X148912295Y-88933495D01*
X149055152Y-88981114D01*
X149626580Y-89552542D01*
X149626580Y-88933495D01*
G04 #@! TO.C,C24*
X141708142Y-79509857D02*
X141755761Y-79557476D01*
X141803380Y-79700333D01*
X141803380Y-79795571D01*
X141755761Y-79938428D01*
X141660523Y-80033666D01*
X141565285Y-80081285D01*
X141374809Y-80128904D01*
X141231952Y-80128904D01*
X141041476Y-80081285D01*
X140946238Y-80033666D01*
X140851000Y-79938428D01*
X140803380Y-79795571D01*
X140803380Y-79700333D01*
X140851000Y-79557476D01*
X140898619Y-79509857D01*
X140898619Y-79128904D02*
X140851000Y-79081285D01*
X140803380Y-78986047D01*
X140803380Y-78747952D01*
X140851000Y-78652714D01*
X140898619Y-78605095D01*
X140993857Y-78557476D01*
X141089095Y-78557476D01*
X141231952Y-78605095D01*
X141803380Y-79176523D01*
X141803380Y-78557476D01*
X141136714Y-77700333D02*
X141803380Y-77700333D01*
X140755761Y-77938428D02*
X141470047Y-78176523D01*
X141470047Y-77557476D01*
G04 #@! TO.C,C25*
X151579342Y-76303142D02*
X151531723Y-76350761D01*
X151388866Y-76398380D01*
X151293628Y-76398380D01*
X151150771Y-76350761D01*
X151055533Y-76255523D01*
X151007914Y-76160285D01*
X150960295Y-75969809D01*
X150960295Y-75826952D01*
X151007914Y-75636476D01*
X151055533Y-75541238D01*
X151150771Y-75446000D01*
X151293628Y-75398380D01*
X151388866Y-75398380D01*
X151531723Y-75446000D01*
X151579342Y-75493619D01*
X151960295Y-75493619D02*
X152007914Y-75446000D01*
X152103152Y-75398380D01*
X152341247Y-75398380D01*
X152436485Y-75446000D01*
X152484104Y-75493619D01*
X152531723Y-75588857D01*
X152531723Y-75684095D01*
X152484104Y-75826952D01*
X151912676Y-76398380D01*
X152531723Y-76398380D01*
X153436485Y-75398380D02*
X152960295Y-75398380D01*
X152912676Y-75874571D01*
X152960295Y-75826952D01*
X153055533Y-75779333D01*
X153293628Y-75779333D01*
X153388866Y-75826952D01*
X153436485Y-75874571D01*
X153484104Y-75969809D01*
X153484104Y-76207904D01*
X153436485Y-76303142D01*
X153388866Y-76350761D01*
X153293628Y-76398380D01*
X153055533Y-76398380D01*
X152960295Y-76350761D01*
X152912676Y-76303142D01*
G04 #@! TO.C,C26*
X151579342Y-79605142D02*
X151531723Y-79652761D01*
X151388866Y-79700380D01*
X151293628Y-79700380D01*
X151150771Y-79652761D01*
X151055533Y-79557523D01*
X151007914Y-79462285D01*
X150960295Y-79271809D01*
X150960295Y-79128952D01*
X151007914Y-78938476D01*
X151055533Y-78843238D01*
X151150771Y-78748000D01*
X151293628Y-78700380D01*
X151388866Y-78700380D01*
X151531723Y-78748000D01*
X151579342Y-78795619D01*
X151960295Y-78795619D02*
X152007914Y-78748000D01*
X152103152Y-78700380D01*
X152341247Y-78700380D01*
X152436485Y-78748000D01*
X152484104Y-78795619D01*
X152531723Y-78890857D01*
X152531723Y-78986095D01*
X152484104Y-79128952D01*
X151912676Y-79700380D01*
X152531723Y-79700380D01*
X153388866Y-78700380D02*
X153198390Y-78700380D01*
X153103152Y-78748000D01*
X153055533Y-78795619D01*
X152960295Y-78938476D01*
X152912676Y-79128952D01*
X152912676Y-79509904D01*
X152960295Y-79605142D01*
X153007914Y-79652761D01*
X153103152Y-79700380D01*
X153293628Y-79700380D01*
X153388866Y-79652761D01*
X153436485Y-79605142D01*
X153484104Y-79509904D01*
X153484104Y-79271809D01*
X153436485Y-79176571D01*
X153388866Y-79128952D01*
X153293628Y-79081333D01*
X153103152Y-79081333D01*
X153007914Y-79128952D01*
X152960295Y-79176571D01*
X152912676Y-79271809D01*
G04 #@! TO.C,C27*
X151579342Y-91543142D02*
X151531723Y-91590761D01*
X151388866Y-91638380D01*
X151293628Y-91638380D01*
X151150771Y-91590761D01*
X151055533Y-91495523D01*
X151007914Y-91400285D01*
X150960295Y-91209809D01*
X150960295Y-91066952D01*
X151007914Y-90876476D01*
X151055533Y-90781238D01*
X151150771Y-90686000D01*
X151293628Y-90638380D01*
X151388866Y-90638380D01*
X151531723Y-90686000D01*
X151579342Y-90733619D01*
X151960295Y-90733619D02*
X152007914Y-90686000D01*
X152103152Y-90638380D01*
X152341247Y-90638380D01*
X152436485Y-90686000D01*
X152484104Y-90733619D01*
X152531723Y-90828857D01*
X152531723Y-90924095D01*
X152484104Y-91066952D01*
X151912676Y-91638380D01*
X152531723Y-91638380D01*
X152865057Y-90638380D02*
X153531723Y-90638380D01*
X153103152Y-91638380D01*
G04 #@! TO.C,C29*
X153442942Y-106941857D02*
X153490561Y-106989476D01*
X153538180Y-107132333D01*
X153538180Y-107227571D01*
X153490561Y-107370428D01*
X153395323Y-107465666D01*
X153300085Y-107513285D01*
X153109609Y-107560904D01*
X152966752Y-107560904D01*
X152776276Y-107513285D01*
X152681038Y-107465666D01*
X152585800Y-107370428D01*
X152538180Y-107227571D01*
X152538180Y-107132333D01*
X152585800Y-106989476D01*
X152633419Y-106941857D01*
X152633419Y-106560904D02*
X152585800Y-106513285D01*
X152538180Y-106418047D01*
X152538180Y-106179952D01*
X152585800Y-106084714D01*
X152633419Y-106037095D01*
X152728657Y-105989476D01*
X152823895Y-105989476D01*
X152966752Y-106037095D01*
X153538180Y-106608523D01*
X153538180Y-105989476D01*
X153538180Y-105513285D02*
X153538180Y-105322809D01*
X153490561Y-105227571D01*
X153442942Y-105179952D01*
X153300085Y-105084714D01*
X153109609Y-105037095D01*
X152728657Y-105037095D01*
X152633419Y-105084714D01*
X152585800Y-105132333D01*
X152538180Y-105227571D01*
X152538180Y-105418047D01*
X152585800Y-105513285D01*
X152633419Y-105560904D01*
X152728657Y-105608523D01*
X152966752Y-105608523D01*
X153061990Y-105560904D01*
X153109609Y-105513285D01*
X153157228Y-105418047D01*
X153157228Y-105227571D01*
X153109609Y-105132333D01*
X153061990Y-105084714D01*
X152966752Y-105037095D01*
G04 #@! TO.C,C30*
X153442942Y-110243857D02*
X153490561Y-110291476D01*
X153538180Y-110434333D01*
X153538180Y-110529571D01*
X153490561Y-110672428D01*
X153395323Y-110767666D01*
X153300085Y-110815285D01*
X153109609Y-110862904D01*
X152966752Y-110862904D01*
X152776276Y-110815285D01*
X152681038Y-110767666D01*
X152585800Y-110672428D01*
X152538180Y-110529571D01*
X152538180Y-110434333D01*
X152585800Y-110291476D01*
X152633419Y-110243857D01*
X152538180Y-109910523D02*
X152538180Y-109291476D01*
X152919133Y-109624809D01*
X152919133Y-109481952D01*
X152966752Y-109386714D01*
X153014371Y-109339095D01*
X153109609Y-109291476D01*
X153347704Y-109291476D01*
X153442942Y-109339095D01*
X153490561Y-109386714D01*
X153538180Y-109481952D01*
X153538180Y-109767666D01*
X153490561Y-109862904D01*
X153442942Y-109910523D01*
X152538180Y-108672428D02*
X152538180Y-108577190D01*
X152585800Y-108481952D01*
X152633419Y-108434333D01*
X152728657Y-108386714D01*
X152919133Y-108339095D01*
X153157228Y-108339095D01*
X153347704Y-108386714D01*
X153442942Y-108434333D01*
X153490561Y-108481952D01*
X153538180Y-108577190D01*
X153538180Y-108672428D01*
X153490561Y-108767666D01*
X153442942Y-108815285D01*
X153347704Y-108862904D01*
X153157228Y-108910523D01*
X152919133Y-108910523D01*
X152728657Y-108862904D01*
X152633419Y-108815285D01*
X152585800Y-108767666D01*
X152538180Y-108672428D01*
G04 #@! TO.C,C28*
X151579342Y-94845142D02*
X151531723Y-94892761D01*
X151388866Y-94940380D01*
X151293628Y-94940380D01*
X151150771Y-94892761D01*
X151055533Y-94797523D01*
X151007914Y-94702285D01*
X150960295Y-94511809D01*
X150960295Y-94368952D01*
X151007914Y-94178476D01*
X151055533Y-94083238D01*
X151150771Y-93988000D01*
X151293628Y-93940380D01*
X151388866Y-93940380D01*
X151531723Y-93988000D01*
X151579342Y-94035619D01*
X151960295Y-94035619D02*
X152007914Y-93988000D01*
X152103152Y-93940380D01*
X152341247Y-93940380D01*
X152436485Y-93988000D01*
X152484104Y-94035619D01*
X152531723Y-94130857D01*
X152531723Y-94226095D01*
X152484104Y-94368952D01*
X151912676Y-94940380D01*
X152531723Y-94940380D01*
X153103152Y-94368952D02*
X153007914Y-94321333D01*
X152960295Y-94273714D01*
X152912676Y-94178476D01*
X152912676Y-94130857D01*
X152960295Y-94035619D01*
X153007914Y-93988000D01*
X153103152Y-93940380D01*
X153293628Y-93940380D01*
X153388866Y-93988000D01*
X153436485Y-94035619D01*
X153484104Y-94130857D01*
X153484104Y-94178476D01*
X153436485Y-94273714D01*
X153388866Y-94321333D01*
X153293628Y-94368952D01*
X153103152Y-94368952D01*
X153007914Y-94416571D01*
X152960295Y-94464190D01*
X152912676Y-94559428D01*
X152912676Y-94749904D01*
X152960295Y-94845142D01*
X153007914Y-94892761D01*
X153103152Y-94940380D01*
X153293628Y-94940380D01*
X153388866Y-94892761D01*
X153436485Y-94845142D01*
X153484104Y-94749904D01*
X153484104Y-94559428D01*
X153436485Y-94464190D01*
X153388866Y-94416571D01*
X153293628Y-94368952D01*
G04 #@! TO.C,L1*
X129601933Y-78252580D02*
X129125742Y-78252580D01*
X129125742Y-77252580D01*
X130459076Y-78252580D02*
X129887647Y-78252580D01*
X130173361Y-78252580D02*
X130173361Y-77252580D01*
X130078123Y-77395438D01*
X129982885Y-77490676D01*
X129887647Y-77538295D01*
G04 #@! TO.C,U2*
X119034988Y-89640315D02*
X119034988Y-90449839D01*
X119082607Y-90545077D01*
X119130226Y-90592696D01*
X119225464Y-90640315D01*
X119415940Y-90640315D01*
X119511178Y-90592696D01*
X119558797Y-90545077D01*
X119606416Y-90449839D01*
X119606416Y-89640315D01*
X120034988Y-89735554D02*
X120082607Y-89687935D01*
X120177845Y-89640315D01*
X120415940Y-89640315D01*
X120511178Y-89687935D01*
X120558797Y-89735554D01*
X120606416Y-89830792D01*
X120606416Y-89926030D01*
X120558797Y-90068887D01*
X119987369Y-90640315D01*
X120606416Y-90640315D01*
G04 #@! TO.C,U4*
X130683095Y-90612980D02*
X130683095Y-91422504D01*
X130730714Y-91517742D01*
X130778333Y-91565361D01*
X130873571Y-91612980D01*
X131064047Y-91612980D01*
X131159285Y-91565361D01*
X131206904Y-91517742D01*
X131254523Y-91422504D01*
X131254523Y-90612980D01*
X132159285Y-90946314D02*
X132159285Y-91612980D01*
X131921190Y-90565361D02*
X131683095Y-91279647D01*
X132302142Y-91279647D01*
G04 #@! TO.C,U1*
X117221095Y-83780380D02*
X117221095Y-84589904D01*
X117268714Y-84685142D01*
X117316333Y-84732761D01*
X117411571Y-84780380D01*
X117602047Y-84780380D01*
X117697285Y-84732761D01*
X117744904Y-84685142D01*
X117792523Y-84589904D01*
X117792523Y-83780380D01*
X118792523Y-84780380D02*
X118221095Y-84780380D01*
X118506809Y-84780380D02*
X118506809Y-83780380D01*
X118411571Y-83923238D01*
X118316333Y-84018476D01*
X118221095Y-84066095D01*
G04 #@! TO.C,U3*
X135509095Y-74890380D02*
X135509095Y-75699904D01*
X135556714Y-75795142D01*
X135604333Y-75842761D01*
X135699571Y-75890380D01*
X135890047Y-75890380D01*
X135985285Y-75842761D01*
X136032904Y-75795142D01*
X136080523Y-75699904D01*
X136080523Y-74890380D01*
X136461476Y-74890380D02*
X137080523Y-74890380D01*
X136747190Y-75271333D01*
X136890047Y-75271333D01*
X136985285Y-75318952D01*
X137032904Y-75366571D01*
X137080523Y-75461809D01*
X137080523Y-75699904D01*
X137032904Y-75795142D01*
X136985285Y-75842761D01*
X136890047Y-75890380D01*
X136604333Y-75890380D01*
X136509095Y-75842761D01*
X136461476Y-75795142D01*
G04 #@! TO.C,R8*
X126690380Y-87923666D02*
X126214190Y-88257000D01*
X126690380Y-88495095D02*
X125690380Y-88495095D01*
X125690380Y-88114142D01*
X125738000Y-88018904D01*
X125785619Y-87971285D01*
X125880857Y-87923666D01*
X126023714Y-87923666D01*
X126118952Y-87971285D01*
X126166571Y-88018904D01*
X126214190Y-88114142D01*
X126214190Y-88495095D01*
X126118952Y-87352238D02*
X126071333Y-87447476D01*
X126023714Y-87495095D01*
X125928476Y-87542714D01*
X125880857Y-87542714D01*
X125785619Y-87495095D01*
X125738000Y-87447476D01*
X125690380Y-87352238D01*
X125690380Y-87161761D01*
X125738000Y-87066523D01*
X125785619Y-87018904D01*
X125880857Y-86971285D01*
X125928476Y-86971285D01*
X126023714Y-87018904D01*
X126071333Y-87066523D01*
X126118952Y-87161761D01*
X126118952Y-87352238D01*
X126166571Y-87447476D01*
X126214190Y-87495095D01*
X126309428Y-87542714D01*
X126499904Y-87542714D01*
X126595142Y-87495095D01*
X126642761Y-87447476D01*
X126690380Y-87352238D01*
X126690380Y-87161761D01*
X126642761Y-87066523D01*
X126595142Y-87018904D01*
X126499904Y-86971285D01*
X126309428Y-86971285D01*
X126214190Y-87018904D01*
X126166571Y-87066523D01*
X126118952Y-87161761D01*
G04 #@! TO.C,R14*
X156964142Y-88844380D02*
X156630809Y-88368190D01*
X156392714Y-88844380D02*
X156392714Y-87844380D01*
X156773666Y-87844380D01*
X156868904Y-87892000D01*
X156916523Y-87939619D01*
X156964142Y-88034857D01*
X156964142Y-88177714D01*
X156916523Y-88272952D01*
X156868904Y-88320571D01*
X156773666Y-88368190D01*
X156392714Y-88368190D01*
X157916523Y-88844380D02*
X157345095Y-88844380D01*
X157630809Y-88844380D02*
X157630809Y-87844380D01*
X157535571Y-87987238D01*
X157440333Y-88082476D01*
X157345095Y-88130095D01*
X158773666Y-88177714D02*
X158773666Y-88844380D01*
X158535571Y-87796761D02*
X158297476Y-88511047D01*
X158916523Y-88511047D01*
G04 #@! TO.C,R15*
X151122142Y-102306380D02*
X150788809Y-101830190D01*
X150550714Y-102306380D02*
X150550714Y-101306380D01*
X150931666Y-101306380D01*
X151026904Y-101354000D01*
X151074523Y-101401619D01*
X151122142Y-101496857D01*
X151122142Y-101639714D01*
X151074523Y-101734952D01*
X151026904Y-101782571D01*
X150931666Y-101830190D01*
X150550714Y-101830190D01*
X152074523Y-102306380D02*
X151503095Y-102306380D01*
X151788809Y-102306380D02*
X151788809Y-101306380D01*
X151693571Y-101449238D01*
X151598333Y-101544476D01*
X151503095Y-101592095D01*
X152979285Y-101306380D02*
X152503095Y-101306380D01*
X152455476Y-101782571D01*
X152503095Y-101734952D01*
X152598333Y-101687333D01*
X152836428Y-101687333D01*
X152931666Y-101734952D01*
X152979285Y-101782571D01*
X153026904Y-101877809D01*
X153026904Y-102115904D01*
X152979285Y-102211142D01*
X152931666Y-102258761D01*
X152836428Y-102306380D01*
X152598333Y-102306380D01*
X152503095Y-102258761D01*
X152455476Y-102211142D01*
G04 #@! TO.C,R17*
X157218142Y-104211380D02*
X156884809Y-103735190D01*
X156646714Y-104211380D02*
X156646714Y-103211380D01*
X157027666Y-103211380D01*
X157122904Y-103259000D01*
X157170523Y-103306619D01*
X157218142Y-103401857D01*
X157218142Y-103544714D01*
X157170523Y-103639952D01*
X157122904Y-103687571D01*
X157027666Y-103735190D01*
X156646714Y-103735190D01*
X158170523Y-104211380D02*
X157599095Y-104211380D01*
X157884809Y-104211380D02*
X157884809Y-103211380D01*
X157789571Y-103354238D01*
X157694333Y-103449476D01*
X157599095Y-103497095D01*
X158503857Y-103211380D02*
X159170523Y-103211380D01*
X158741952Y-104211380D01*
G04 #@! TO.C,R18*
X151122142Y-117546380D02*
X150788809Y-117070190D01*
X150550714Y-117546380D02*
X150550714Y-116546380D01*
X150931666Y-116546380D01*
X151026904Y-116594000D01*
X151074523Y-116641619D01*
X151122142Y-116736857D01*
X151122142Y-116879714D01*
X151074523Y-116974952D01*
X151026904Y-117022571D01*
X150931666Y-117070190D01*
X150550714Y-117070190D01*
X152074523Y-117546380D02*
X151503095Y-117546380D01*
X151788809Y-117546380D02*
X151788809Y-116546380D01*
X151693571Y-116689238D01*
X151598333Y-116784476D01*
X151503095Y-116832095D01*
X152645952Y-116974952D02*
X152550714Y-116927333D01*
X152503095Y-116879714D01*
X152455476Y-116784476D01*
X152455476Y-116736857D01*
X152503095Y-116641619D01*
X152550714Y-116594000D01*
X152645952Y-116546380D01*
X152836428Y-116546380D01*
X152931666Y-116594000D01*
X152979285Y-116641619D01*
X153026904Y-116736857D01*
X153026904Y-116784476D01*
X152979285Y-116879714D01*
X152931666Y-116927333D01*
X152836428Y-116974952D01*
X152645952Y-116974952D01*
X152550714Y-117022571D01*
X152503095Y-117070190D01*
X152455476Y-117165428D01*
X152455476Y-117355904D01*
X152503095Y-117451142D01*
X152550714Y-117498761D01*
X152645952Y-117546380D01*
X152836428Y-117546380D01*
X152931666Y-117498761D01*
X152979285Y-117451142D01*
X153026904Y-117355904D01*
X153026904Y-117165428D01*
X152979285Y-117070190D01*
X152931666Y-117022571D01*
X152836428Y-116974952D01*
G04 #@! TO.C,R11*
X149725142Y-73985380D02*
X149391809Y-73509190D01*
X149153714Y-73985380D02*
X149153714Y-72985380D01*
X149534666Y-72985380D01*
X149629904Y-73033000D01*
X149677523Y-73080619D01*
X149725142Y-73175857D01*
X149725142Y-73318714D01*
X149677523Y-73413952D01*
X149629904Y-73461571D01*
X149534666Y-73509190D01*
X149153714Y-73509190D01*
X150677523Y-73985380D02*
X150106095Y-73985380D01*
X150391809Y-73985380D02*
X150391809Y-72985380D01*
X150296571Y-73128238D01*
X150201333Y-73223476D01*
X150106095Y-73271095D01*
X151629904Y-73985380D02*
X151058476Y-73985380D01*
X151344190Y-73985380D02*
X151344190Y-72985380D01*
X151248952Y-73128238D01*
X151153714Y-73223476D01*
X151058476Y-73271095D01*
G04 #@! TO.C,R16*
X151249142Y-96464380D02*
X150915809Y-95988190D01*
X150677714Y-96464380D02*
X150677714Y-95464380D01*
X151058666Y-95464380D01*
X151153904Y-95512000D01*
X151201523Y-95559619D01*
X151249142Y-95654857D01*
X151249142Y-95797714D01*
X151201523Y-95892952D01*
X151153904Y-95940571D01*
X151058666Y-95988190D01*
X150677714Y-95988190D01*
X152201523Y-96464380D02*
X151630095Y-96464380D01*
X151915809Y-96464380D02*
X151915809Y-95464380D01*
X151820571Y-95607238D01*
X151725333Y-95702476D01*
X151630095Y-95750095D01*
X153058666Y-95464380D02*
X152868190Y-95464380D01*
X152772952Y-95512000D01*
X152725333Y-95559619D01*
X152630095Y-95702476D01*
X152582476Y-95892952D01*
X152582476Y-96273904D01*
X152630095Y-96369142D01*
X152677714Y-96416761D01*
X152772952Y-96464380D01*
X152963428Y-96464380D01*
X153058666Y-96416761D01*
X153106285Y-96369142D01*
X153153904Y-96273904D01*
X153153904Y-96035809D01*
X153106285Y-95940571D01*
X153058666Y-95892952D01*
X152963428Y-95845333D01*
X152772952Y-95845333D01*
X152677714Y-95892952D01*
X152630095Y-95940571D01*
X152582476Y-96035809D01*
G04 #@! TO.C,R13*
X150312380Y-83827857D02*
X149836190Y-84161190D01*
X150312380Y-84399285D02*
X149312380Y-84399285D01*
X149312380Y-84018333D01*
X149360000Y-83923095D01*
X149407619Y-83875476D01*
X149502857Y-83827857D01*
X149645714Y-83827857D01*
X149740952Y-83875476D01*
X149788571Y-83923095D01*
X149836190Y-84018333D01*
X149836190Y-84399285D01*
X150312380Y-82875476D02*
X150312380Y-83446904D01*
X150312380Y-83161190D02*
X149312380Y-83161190D01*
X149455238Y-83256428D01*
X149550476Y-83351666D01*
X149598095Y-83446904D01*
X149312380Y-82542142D02*
X149312380Y-81923095D01*
X149693333Y-82256428D01*
X149693333Y-82113571D01*
X149740952Y-82018333D01*
X149788571Y-81970714D01*
X149883809Y-81923095D01*
X150121904Y-81923095D01*
X150217142Y-81970714D01*
X150264761Y-82018333D01*
X150312380Y-82113571D01*
X150312380Y-82399285D01*
X150264761Y-82494523D01*
X150217142Y-82542142D01*
G04 #@! TO.C,J1*
X105878380Y-66119333D02*
X106592666Y-66119333D01*
X106735523Y-66166952D01*
X106830761Y-66262190D01*
X106878380Y-66405047D01*
X106878380Y-66500285D01*
X106878380Y-65119333D02*
X106878380Y-65690761D01*
X106878380Y-65405047D02*
X105878380Y-65405047D01*
X106021238Y-65500285D01*
X106116476Y-65595523D01*
X106164095Y-65690761D01*
G04 #@! TO.C,L2*
X134783533Y-80716380D02*
X134307342Y-80716380D01*
X134307342Y-79716380D01*
X135069247Y-79811619D02*
X135116866Y-79764000D01*
X135212104Y-79716380D01*
X135450200Y-79716380D01*
X135545438Y-79764000D01*
X135593057Y-79811619D01*
X135640676Y-79906857D01*
X135640676Y-80002095D01*
X135593057Y-80144952D01*
X135021628Y-80716380D01*
X135640676Y-80716380D01*
G04 #@! TO.C,Q4*
X162337761Y-103671619D02*
X162242523Y-103624000D01*
X162147285Y-103528761D01*
X162004428Y-103385904D01*
X161909190Y-103338285D01*
X161813952Y-103338285D01*
X161861571Y-103576380D02*
X161766333Y-103528761D01*
X161671095Y-103433523D01*
X161623476Y-103243047D01*
X161623476Y-102909714D01*
X161671095Y-102719238D01*
X161766333Y-102624000D01*
X161861571Y-102576380D01*
X162052047Y-102576380D01*
X162147285Y-102624000D01*
X162242523Y-102719238D01*
X162290142Y-102909714D01*
X162290142Y-103243047D01*
X162242523Y-103433523D01*
X162147285Y-103528761D01*
X162052047Y-103576380D01*
X161861571Y-103576380D01*
X163147285Y-102909714D02*
X163147285Y-103576380D01*
X162909190Y-102528761D02*
X162671095Y-103243047D01*
X163290142Y-103243047D01*
G04 #@! TO.C,Q5*
X162337761Y-105068619D02*
X162242523Y-105021000D01*
X162147285Y-104925761D01*
X162004428Y-104782904D01*
X161909190Y-104735285D01*
X161813952Y-104735285D01*
X161861571Y-104973380D02*
X161766333Y-104925761D01*
X161671095Y-104830523D01*
X161623476Y-104640047D01*
X161623476Y-104306714D01*
X161671095Y-104116238D01*
X161766333Y-104021000D01*
X161861571Y-103973380D01*
X162052047Y-103973380D01*
X162147285Y-104021000D01*
X162242523Y-104116238D01*
X162290142Y-104306714D01*
X162290142Y-104640047D01*
X162242523Y-104830523D01*
X162147285Y-104925761D01*
X162052047Y-104973380D01*
X161861571Y-104973380D01*
X163194904Y-103973380D02*
X162718714Y-103973380D01*
X162671095Y-104449571D01*
X162718714Y-104401952D01*
X162813952Y-104354333D01*
X163052047Y-104354333D01*
X163147285Y-104401952D01*
X163194904Y-104449571D01*
X163242523Y-104544809D01*
X163242523Y-104782904D01*
X163194904Y-104878142D01*
X163147285Y-104925761D01*
X163052047Y-104973380D01*
X162813952Y-104973380D01*
X162718714Y-104925761D01*
X162671095Y-104878142D01*
G04 #@! TO.C,Q6*
X162337761Y-119038619D02*
X162242523Y-118991000D01*
X162147285Y-118895761D01*
X162004428Y-118752904D01*
X161909190Y-118705285D01*
X161813952Y-118705285D01*
X161861571Y-118943380D02*
X161766333Y-118895761D01*
X161671095Y-118800523D01*
X161623476Y-118610047D01*
X161623476Y-118276714D01*
X161671095Y-118086238D01*
X161766333Y-117991000D01*
X161861571Y-117943380D01*
X162052047Y-117943380D01*
X162147285Y-117991000D01*
X162242523Y-118086238D01*
X162290142Y-118276714D01*
X162290142Y-118610047D01*
X162242523Y-118800523D01*
X162147285Y-118895761D01*
X162052047Y-118943380D01*
X161861571Y-118943380D01*
X163147285Y-117943380D02*
X162956809Y-117943380D01*
X162861571Y-117991000D01*
X162813952Y-118038619D01*
X162718714Y-118181476D01*
X162671095Y-118371952D01*
X162671095Y-118752904D01*
X162718714Y-118848142D01*
X162766333Y-118895761D01*
X162861571Y-118943380D01*
X163052047Y-118943380D01*
X163147285Y-118895761D01*
X163194904Y-118848142D01*
X163242523Y-118752904D01*
X163242523Y-118514809D01*
X163194904Y-118419571D01*
X163147285Y-118371952D01*
X163052047Y-118324333D01*
X162861571Y-118324333D01*
X162766333Y-118371952D01*
X162718714Y-118419571D01*
X162671095Y-118514809D01*
G04 #@! TO.C,Q3*
X162337761Y-89828619D02*
X162242523Y-89781000D01*
X162147285Y-89685761D01*
X162004428Y-89542904D01*
X161909190Y-89495285D01*
X161813952Y-89495285D01*
X161861571Y-89733380D02*
X161766333Y-89685761D01*
X161671095Y-89590523D01*
X161623476Y-89400047D01*
X161623476Y-89066714D01*
X161671095Y-88876238D01*
X161766333Y-88781000D01*
X161861571Y-88733380D01*
X162052047Y-88733380D01*
X162147285Y-88781000D01*
X162242523Y-88876238D01*
X162290142Y-89066714D01*
X162290142Y-89400047D01*
X162242523Y-89590523D01*
X162147285Y-89685761D01*
X162052047Y-89733380D01*
X161861571Y-89733380D01*
X162623476Y-88733380D02*
X163242523Y-88733380D01*
X162909190Y-89114333D01*
X163052047Y-89114333D01*
X163147285Y-89161952D01*
X163194904Y-89209571D01*
X163242523Y-89304809D01*
X163242523Y-89542904D01*
X163194904Y-89638142D01*
X163147285Y-89685761D01*
X163052047Y-89733380D01*
X162766333Y-89733380D01*
X162671095Y-89685761D01*
X162623476Y-89638142D01*
G04 #@! TO.C,Q2*
X162337761Y-88431619D02*
X162242523Y-88384000D01*
X162147285Y-88288761D01*
X162004428Y-88145904D01*
X161909190Y-88098285D01*
X161813952Y-88098285D01*
X161861571Y-88336380D02*
X161766333Y-88288761D01*
X161671095Y-88193523D01*
X161623476Y-88003047D01*
X161623476Y-87669714D01*
X161671095Y-87479238D01*
X161766333Y-87384000D01*
X161861571Y-87336380D01*
X162052047Y-87336380D01*
X162147285Y-87384000D01*
X162242523Y-87479238D01*
X162290142Y-87669714D01*
X162290142Y-88003047D01*
X162242523Y-88193523D01*
X162147285Y-88288761D01*
X162052047Y-88336380D01*
X161861571Y-88336380D01*
X162671095Y-87431619D02*
X162718714Y-87384000D01*
X162813952Y-87336380D01*
X163052047Y-87336380D01*
X163147285Y-87384000D01*
X163194904Y-87431619D01*
X163242523Y-87526857D01*
X163242523Y-87622095D01*
X163194904Y-87764952D01*
X162623476Y-88336380D01*
X163242523Y-88336380D01*
G04 #@! TO.C,C1*
X116282742Y-76874666D02*
X116330361Y-76922285D01*
X116377980Y-77065142D01*
X116377980Y-77160380D01*
X116330361Y-77303238D01*
X116235123Y-77398476D01*
X116139885Y-77446095D01*
X115949409Y-77493714D01*
X115806552Y-77493714D01*
X115616076Y-77446095D01*
X115520838Y-77398476D01*
X115425600Y-77303238D01*
X115377980Y-77160380D01*
X115377980Y-77065142D01*
X115425600Y-76922285D01*
X115473219Y-76874666D01*
X116377980Y-75922285D02*
X116377980Y-76493714D01*
X116377980Y-76208000D02*
X115377980Y-76208000D01*
X115520838Y-76303238D01*
X115616076Y-76398476D01*
X115663695Y-76493714D01*
G04 #@! TO.C,C2*
X108688142Y-76823866D02*
X108735761Y-76871485D01*
X108783380Y-77014342D01*
X108783380Y-77109580D01*
X108735761Y-77252438D01*
X108640523Y-77347676D01*
X108545285Y-77395295D01*
X108354809Y-77442914D01*
X108211952Y-77442914D01*
X108021476Y-77395295D01*
X107926238Y-77347676D01*
X107831000Y-77252438D01*
X107783380Y-77109580D01*
X107783380Y-77014342D01*
X107831000Y-76871485D01*
X107878619Y-76823866D01*
X107878619Y-76442914D02*
X107831000Y-76395295D01*
X107783380Y-76300057D01*
X107783380Y-76061961D01*
X107831000Y-75966723D01*
X107878619Y-75919104D01*
X107973857Y-75871485D01*
X108069095Y-75871485D01*
X108211952Y-75919104D01*
X108783380Y-76490533D01*
X108783380Y-75871485D01*
G04 #@! TO.C,C3*
X114920733Y-106757742D02*
X114873114Y-106805361D01*
X114730257Y-106852980D01*
X114635019Y-106852980D01*
X114492161Y-106805361D01*
X114396923Y-106710123D01*
X114349304Y-106614885D01*
X114301685Y-106424409D01*
X114301685Y-106281552D01*
X114349304Y-106091076D01*
X114396923Y-105995838D01*
X114492161Y-105900600D01*
X114635019Y-105852980D01*
X114730257Y-105852980D01*
X114873114Y-105900600D01*
X114920733Y-105948219D01*
X115254066Y-105852980D02*
X115873114Y-105852980D01*
X115539780Y-106233933D01*
X115682638Y-106233933D01*
X115777876Y-106281552D01*
X115825495Y-106329171D01*
X115873114Y-106424409D01*
X115873114Y-106662504D01*
X115825495Y-106757742D01*
X115777876Y-106805361D01*
X115682638Y-106852980D01*
X115396923Y-106852980D01*
X115301685Y-106805361D01*
X115254066Y-106757742D01*
G04 #@! TO.C,C4*
X129058942Y-103316066D02*
X129106561Y-103363685D01*
X129154180Y-103506542D01*
X129154180Y-103601780D01*
X129106561Y-103744638D01*
X129011323Y-103839876D01*
X128916085Y-103887495D01*
X128725609Y-103935114D01*
X128582752Y-103935114D01*
X128392276Y-103887495D01*
X128297038Y-103839876D01*
X128201800Y-103744638D01*
X128154180Y-103601780D01*
X128154180Y-103506542D01*
X128201800Y-103363685D01*
X128249419Y-103316066D01*
X128487514Y-102458923D02*
X129154180Y-102458923D01*
X128106561Y-102697019D02*
X128820847Y-102935114D01*
X128820847Y-102316066D01*
G04 #@! TO.C,C6*
X116038333Y-90400142D02*
X115990714Y-90447761D01*
X115847857Y-90495380D01*
X115752619Y-90495380D01*
X115609761Y-90447761D01*
X115514523Y-90352523D01*
X115466904Y-90257285D01*
X115419285Y-90066809D01*
X115419285Y-89923952D01*
X115466904Y-89733476D01*
X115514523Y-89638238D01*
X115609761Y-89543000D01*
X115752619Y-89495380D01*
X115847857Y-89495380D01*
X115990714Y-89543000D01*
X116038333Y-89590619D01*
X116895476Y-89495380D02*
X116705000Y-89495380D01*
X116609761Y-89543000D01*
X116562142Y-89590619D01*
X116466904Y-89733476D01*
X116419285Y-89923952D01*
X116419285Y-90304904D01*
X116466904Y-90400142D01*
X116514523Y-90447761D01*
X116609761Y-90495380D01*
X116800238Y-90495380D01*
X116895476Y-90447761D01*
X116943095Y-90400142D01*
X116990714Y-90304904D01*
X116990714Y-90066809D01*
X116943095Y-89971571D01*
X116895476Y-89923952D01*
X116800238Y-89876333D01*
X116609761Y-89876333D01*
X116514523Y-89923952D01*
X116466904Y-89971571D01*
X116419285Y-90066809D01*
G04 #@! TO.C,C7*
X126595142Y-79795666D02*
X126642761Y-79843285D01*
X126690380Y-79986142D01*
X126690380Y-80081380D01*
X126642761Y-80224238D01*
X126547523Y-80319476D01*
X126452285Y-80367095D01*
X126261809Y-80414714D01*
X126118952Y-80414714D01*
X125928476Y-80367095D01*
X125833238Y-80319476D01*
X125738000Y-80224238D01*
X125690380Y-80081380D01*
X125690380Y-79986142D01*
X125738000Y-79843285D01*
X125785619Y-79795666D01*
X125690380Y-79462333D02*
X125690380Y-78795666D01*
X126690380Y-79224238D01*
G04 #@! TO.C,C10*
X129151142Y-107672142D02*
X129103523Y-107719761D01*
X128960666Y-107767380D01*
X128865428Y-107767380D01*
X128722571Y-107719761D01*
X128627333Y-107624523D01*
X128579714Y-107529285D01*
X128532095Y-107338809D01*
X128532095Y-107195952D01*
X128579714Y-107005476D01*
X128627333Y-106910238D01*
X128722571Y-106815000D01*
X128865428Y-106767380D01*
X128960666Y-106767380D01*
X129103523Y-106815000D01*
X129151142Y-106862619D01*
X130103523Y-107767380D02*
X129532095Y-107767380D01*
X129817809Y-107767380D02*
X129817809Y-106767380D01*
X129722571Y-106910238D01*
X129627333Y-107005476D01*
X129532095Y-107053095D01*
X130722571Y-106767380D02*
X130817809Y-106767380D01*
X130913047Y-106815000D01*
X130960666Y-106862619D01*
X131008285Y-106957857D01*
X131055904Y-107148333D01*
X131055904Y-107386428D01*
X131008285Y-107576904D01*
X130960666Y-107672142D01*
X130913047Y-107719761D01*
X130817809Y-107767380D01*
X130722571Y-107767380D01*
X130627333Y-107719761D01*
X130579714Y-107672142D01*
X130532095Y-107576904D01*
X130484476Y-107386428D01*
X130484476Y-107148333D01*
X130532095Y-106957857D01*
X130579714Y-106862619D01*
X130627333Y-106815000D01*
X130722571Y-106767380D01*
G04 #@! TO.C,C11*
X134596142Y-69603857D02*
X134643761Y-69651476D01*
X134691380Y-69794333D01*
X134691380Y-69889571D01*
X134643761Y-70032428D01*
X134548523Y-70127666D01*
X134453285Y-70175285D01*
X134262809Y-70222904D01*
X134119952Y-70222904D01*
X133929476Y-70175285D01*
X133834238Y-70127666D01*
X133739000Y-70032428D01*
X133691380Y-69889571D01*
X133691380Y-69794333D01*
X133739000Y-69651476D01*
X133786619Y-69603857D01*
X134691380Y-68651476D02*
X134691380Y-69222904D01*
X134691380Y-68937190D02*
X133691380Y-68937190D01*
X133834238Y-69032428D01*
X133929476Y-69127666D01*
X133977095Y-69222904D01*
X134691380Y-67699095D02*
X134691380Y-68270523D01*
X134691380Y-67984809D02*
X133691380Y-67984809D01*
X133834238Y-68080047D01*
X133929476Y-68175285D01*
X133977095Y-68270523D01*
G04 #@! TO.C,C12*
X129024142Y-106021142D02*
X128976523Y-106068761D01*
X128833666Y-106116380D01*
X128738428Y-106116380D01*
X128595571Y-106068761D01*
X128500333Y-105973523D01*
X128452714Y-105878285D01*
X128405095Y-105687809D01*
X128405095Y-105544952D01*
X128452714Y-105354476D01*
X128500333Y-105259238D01*
X128595571Y-105164000D01*
X128738428Y-105116380D01*
X128833666Y-105116380D01*
X128976523Y-105164000D01*
X129024142Y-105211619D01*
X129976523Y-106116380D02*
X129405095Y-106116380D01*
X129690809Y-106116380D02*
X129690809Y-105116380D01*
X129595571Y-105259238D01*
X129500333Y-105354476D01*
X129405095Y-105402095D01*
X130357476Y-105211619D02*
X130405095Y-105164000D01*
X130500333Y-105116380D01*
X130738428Y-105116380D01*
X130833666Y-105164000D01*
X130881285Y-105211619D01*
X130928904Y-105306857D01*
X130928904Y-105402095D01*
X130881285Y-105544952D01*
X130309857Y-106116380D01*
X130928904Y-106116380D01*
G04 #@! TO.C,C14*
X142943342Y-87656942D02*
X142895723Y-87704561D01*
X142752866Y-87752180D01*
X142657628Y-87752180D01*
X142514771Y-87704561D01*
X142419533Y-87609323D01*
X142371914Y-87514085D01*
X142324295Y-87323609D01*
X142324295Y-87180752D01*
X142371914Y-86990276D01*
X142419533Y-86895038D01*
X142514771Y-86799800D01*
X142657628Y-86752180D01*
X142752866Y-86752180D01*
X142895723Y-86799800D01*
X142943342Y-86847419D01*
X143895723Y-87752180D02*
X143324295Y-87752180D01*
X143610009Y-87752180D02*
X143610009Y-86752180D01*
X143514771Y-86895038D01*
X143419533Y-86990276D01*
X143324295Y-87037895D01*
X144752866Y-87085514D02*
X144752866Y-87752180D01*
X144514771Y-86704561D02*
X144276676Y-87418847D01*
X144895723Y-87418847D01*
G04 #@! TO.C,C15*
X137406142Y-109196142D02*
X137358523Y-109243761D01*
X137215666Y-109291380D01*
X137120428Y-109291380D01*
X136977571Y-109243761D01*
X136882333Y-109148523D01*
X136834714Y-109053285D01*
X136787095Y-108862809D01*
X136787095Y-108719952D01*
X136834714Y-108529476D01*
X136882333Y-108434238D01*
X136977571Y-108339000D01*
X137120428Y-108291380D01*
X137215666Y-108291380D01*
X137358523Y-108339000D01*
X137406142Y-108386619D01*
X138358523Y-109291380D02*
X137787095Y-109291380D01*
X138072809Y-109291380D02*
X138072809Y-108291380D01*
X137977571Y-108434238D01*
X137882333Y-108529476D01*
X137787095Y-108577095D01*
X139263285Y-108291380D02*
X138787095Y-108291380D01*
X138739476Y-108767571D01*
X138787095Y-108719952D01*
X138882333Y-108672333D01*
X139120428Y-108672333D01*
X139215666Y-108719952D01*
X139263285Y-108767571D01*
X139310904Y-108862809D01*
X139310904Y-109100904D01*
X139263285Y-109196142D01*
X139215666Y-109243761D01*
X139120428Y-109291380D01*
X138882333Y-109291380D01*
X138787095Y-109243761D01*
X138739476Y-109196142D01*
G04 #@! TO.C,C18*
X126611142Y-72366142D02*
X126563523Y-72413761D01*
X126420666Y-72461380D01*
X126325428Y-72461380D01*
X126182571Y-72413761D01*
X126087333Y-72318523D01*
X126039714Y-72223285D01*
X125992095Y-72032809D01*
X125992095Y-71889952D01*
X126039714Y-71699476D01*
X126087333Y-71604238D01*
X126182571Y-71509000D01*
X126325428Y-71461380D01*
X126420666Y-71461380D01*
X126563523Y-71509000D01*
X126611142Y-71556619D01*
X127563523Y-72461380D02*
X126992095Y-72461380D01*
X127277809Y-72461380D02*
X127277809Y-71461380D01*
X127182571Y-71604238D01*
X127087333Y-71699476D01*
X126992095Y-71747095D01*
X128134952Y-71889952D02*
X128039714Y-71842333D01*
X127992095Y-71794714D01*
X127944476Y-71699476D01*
X127944476Y-71651857D01*
X127992095Y-71556619D01*
X128039714Y-71509000D01*
X128134952Y-71461380D01*
X128325428Y-71461380D01*
X128420666Y-71509000D01*
X128468285Y-71556619D01*
X128515904Y-71651857D01*
X128515904Y-71699476D01*
X128468285Y-71794714D01*
X128420666Y-71842333D01*
X128325428Y-71889952D01*
X128134952Y-71889952D01*
X128039714Y-71937571D01*
X127992095Y-71985190D01*
X127944476Y-72080428D01*
X127944476Y-72270904D01*
X127992095Y-72366142D01*
X128039714Y-72413761D01*
X128134952Y-72461380D01*
X128325428Y-72461380D01*
X128420666Y-72413761D01*
X128468285Y-72366142D01*
X128515904Y-72270904D01*
X128515904Y-72080428D01*
X128468285Y-71985190D01*
X128420666Y-71937571D01*
X128325428Y-71889952D01*
G04 #@! TO.C,R1*
X108249980Y-89803266D02*
X107773790Y-90136600D01*
X108249980Y-90374695D02*
X107249980Y-90374695D01*
X107249980Y-89993742D01*
X107297600Y-89898504D01*
X107345219Y-89850885D01*
X107440457Y-89803266D01*
X107583314Y-89803266D01*
X107678552Y-89850885D01*
X107726171Y-89898504D01*
X107773790Y-89993742D01*
X107773790Y-90374695D01*
X108249980Y-88850885D02*
X108249980Y-89422314D01*
X108249980Y-89136600D02*
X107249980Y-89136600D01*
X107392838Y-89231838D01*
X107488076Y-89327076D01*
X107535695Y-89422314D01*
G04 #@! TO.C,R2*
X106725980Y-89803266D02*
X106249790Y-90136600D01*
X106725980Y-90374695D02*
X105725980Y-90374695D01*
X105725980Y-89993742D01*
X105773600Y-89898504D01*
X105821219Y-89850885D01*
X105916457Y-89803266D01*
X106059314Y-89803266D01*
X106154552Y-89850885D01*
X106202171Y-89898504D01*
X106249790Y-89993742D01*
X106249790Y-90374695D01*
X105821219Y-89422314D02*
X105773600Y-89374695D01*
X105725980Y-89279457D01*
X105725980Y-89041361D01*
X105773600Y-88946123D01*
X105821219Y-88898504D01*
X105916457Y-88850885D01*
X106011695Y-88850885D01*
X106154552Y-88898504D01*
X106725980Y-89469933D01*
X106725980Y-88850885D01*
G04 #@! TO.C,R3*
X105252780Y-89752466D02*
X104776590Y-90085800D01*
X105252780Y-90323895D02*
X104252780Y-90323895D01*
X104252780Y-89942942D01*
X104300400Y-89847704D01*
X104348019Y-89800085D01*
X104443257Y-89752466D01*
X104586114Y-89752466D01*
X104681352Y-89800085D01*
X104728971Y-89847704D01*
X104776590Y-89942942D01*
X104776590Y-90323895D01*
X104252780Y-89419133D02*
X104252780Y-88800085D01*
X104633733Y-89133419D01*
X104633733Y-88990561D01*
X104681352Y-88895323D01*
X104728971Y-88847704D01*
X104824209Y-88800085D01*
X105062304Y-88800085D01*
X105157542Y-88847704D01*
X105205161Y-88895323D01*
X105252780Y-88990561D01*
X105252780Y-89276276D01*
X105205161Y-89371514D01*
X105157542Y-89419133D01*
G04 #@! TO.C,R4*
X116089133Y-72080380D02*
X115755800Y-71604190D01*
X115517704Y-72080380D02*
X115517704Y-71080380D01*
X115898657Y-71080380D01*
X115993895Y-71128000D01*
X116041514Y-71175619D01*
X116089133Y-71270857D01*
X116089133Y-71413714D01*
X116041514Y-71508952D01*
X115993895Y-71556571D01*
X115898657Y-71604190D01*
X115517704Y-71604190D01*
X116946276Y-71413714D02*
X116946276Y-72080380D01*
X116708180Y-71032761D02*
X116470085Y-71747047D01*
X117089133Y-71747047D01*
G04 #@! TO.C,R5*
X116063733Y-70708780D02*
X115730400Y-70232590D01*
X115492304Y-70708780D02*
X115492304Y-69708780D01*
X115873257Y-69708780D01*
X115968495Y-69756400D01*
X116016114Y-69804019D01*
X116063733Y-69899257D01*
X116063733Y-70042114D01*
X116016114Y-70137352D01*
X115968495Y-70184971D01*
X115873257Y-70232590D01*
X115492304Y-70232590D01*
X116968495Y-69708780D02*
X116492304Y-69708780D01*
X116444685Y-70184971D01*
X116492304Y-70137352D01*
X116587542Y-70089733D01*
X116825638Y-70089733D01*
X116920876Y-70137352D01*
X116968495Y-70184971D01*
X117016114Y-70280209D01*
X117016114Y-70518304D01*
X116968495Y-70613542D01*
X116920876Y-70661161D01*
X116825638Y-70708780D01*
X116587542Y-70708780D01*
X116492304Y-70661161D01*
X116444685Y-70613542D01*
G04 #@! TO.C,R6*
X125217180Y-82843666D02*
X124740990Y-83177000D01*
X125217180Y-83415095D02*
X124217180Y-83415095D01*
X124217180Y-83034142D01*
X124264800Y-82938904D01*
X124312419Y-82891285D01*
X124407657Y-82843666D01*
X124550514Y-82843666D01*
X124645752Y-82891285D01*
X124693371Y-82938904D01*
X124740990Y-83034142D01*
X124740990Y-83415095D01*
X124217180Y-81986523D02*
X124217180Y-82177000D01*
X124264800Y-82272238D01*
X124312419Y-82319857D01*
X124455276Y-82415095D01*
X124645752Y-82462714D01*
X125026704Y-82462714D01*
X125121942Y-82415095D01*
X125169561Y-82367476D01*
X125217180Y-82272238D01*
X125217180Y-82081761D01*
X125169561Y-81986523D01*
X125121942Y-81938904D01*
X125026704Y-81891285D01*
X124788609Y-81891285D01*
X124693371Y-81938904D01*
X124645752Y-81986523D01*
X124598133Y-82081761D01*
X124598133Y-82272238D01*
X124645752Y-82367476D01*
X124693371Y-82415095D01*
X124788609Y-82462714D01*
G04 #@! TO.C,R7*
X123769380Y-82843666D02*
X123293190Y-83177000D01*
X123769380Y-83415095D02*
X122769380Y-83415095D01*
X122769380Y-83034142D01*
X122817000Y-82938904D01*
X122864619Y-82891285D01*
X122959857Y-82843666D01*
X123102714Y-82843666D01*
X123197952Y-82891285D01*
X123245571Y-82938904D01*
X123293190Y-83034142D01*
X123293190Y-83415095D01*
X122769380Y-82510333D02*
X122769380Y-81843666D01*
X123769380Y-82272238D01*
G04 #@! TO.C,R9*
X129865380Y-82970666D02*
X129389190Y-83304000D01*
X129865380Y-83542095D02*
X128865380Y-83542095D01*
X128865380Y-83161142D01*
X128913000Y-83065904D01*
X128960619Y-83018285D01*
X129055857Y-82970666D01*
X129198714Y-82970666D01*
X129293952Y-83018285D01*
X129341571Y-83065904D01*
X129389190Y-83161142D01*
X129389190Y-83542095D01*
X129865380Y-82494476D02*
X129865380Y-82304000D01*
X129817761Y-82208761D01*
X129770142Y-82161142D01*
X129627285Y-82065904D01*
X129436809Y-82018285D01*
X129055857Y-82018285D01*
X128960619Y-82065904D01*
X128913000Y-82113523D01*
X128865380Y-82208761D01*
X128865380Y-82399238D01*
X128913000Y-82494476D01*
X128960619Y-82542095D01*
X129055857Y-82589714D01*
X129293952Y-82589714D01*
X129389190Y-82542095D01*
X129436809Y-82494476D01*
X129484428Y-82399238D01*
X129484428Y-82208761D01*
X129436809Y-82113523D01*
X129389190Y-82065904D01*
X129293952Y-82018285D01*
G04 #@! TO.C,R12*
X151071342Y-86939380D02*
X150738009Y-86463190D01*
X150499914Y-86939380D02*
X150499914Y-85939380D01*
X150880866Y-85939380D01*
X150976104Y-85987000D01*
X151023723Y-86034619D01*
X151071342Y-86129857D01*
X151071342Y-86272714D01*
X151023723Y-86367952D01*
X150976104Y-86415571D01*
X150880866Y-86463190D01*
X150499914Y-86463190D01*
X152023723Y-86939380D02*
X151452295Y-86939380D01*
X151738009Y-86939380D02*
X151738009Y-85939380D01*
X151642771Y-86082238D01*
X151547533Y-86177476D01*
X151452295Y-86225095D01*
X152404676Y-86034619D02*
X152452295Y-85987000D01*
X152547533Y-85939380D01*
X152785628Y-85939380D01*
X152880866Y-85987000D01*
X152928485Y-86034619D01*
X152976104Y-86129857D01*
X152976104Y-86225095D01*
X152928485Y-86367952D01*
X152357057Y-86939380D01*
X152976104Y-86939380D01*
G04 #@! TD*
M02*
